<svg xmlns="http://www.w3.org/2000/svg" width="40" height="40" viewBox="0 0 40 40">
  <g id="bank_logo_023" transform="translate(-302 -254)">
    <g id="area" transform="translate(302 254)" fill="#fff" stroke="#eee" stroke-width="1">
      <circle cx="20" cy="20" r="20" stroke="none"/>
      <circle cx="20" cy="20" r="19.5" fill="none"/>
    </g>
    <path id="Path_31" data-name="Path 31" d="M445.8,552.816h0Z" transform="translate(-125.74 -283.368)" fill="none"/>
    <path id="Path_32" data-name="Path 32" d="M466.372,543.935a1.991,1.991,0,1,0,.3-3.294c-.028.015-.055.032-.082.048h0l-.019.012-.066.044-2.465,1.638Z" transform="translate(-141.077 -272.929)" fill="#57a620"/>
    <path id="Path_33" data-name="Path 33" d="M416.035,625.43A1.994,1.994,0,1,0,417.243,629l2.376-1.579-2.391-1.594A1.981,1.981,0,0,0,416.035,625.43Z" transform="translate(-99.043 -344.413)" fill="#005dab"/>
    <path id="Path_34" data-name="Path 34" d="M427.226,586.59l-11.72-7.557a4.291,4.291,0,0,0-.908,2.239c0,1.108-.022,1.817,1.683,2.948,1.561,1.035,7.759,5.022,8.8,5.689a1.983,1.983,0,1,0,2.148-3.318Z" transform="translate(-99.509 -305.408)" fill="#57a620"/>
    <path id="Path_35" data-name="Path 35" d="M418.293,521.419s.974.6,1.949,1.263c2.812,1.919,9.145,5.9,9.145,5.9s2.088-3.092.133-4.521l-7.937-5.263h0l4.216-2.86.011-.007.009-.006h0a1.958,1.958,0,0,0-2.13-3.285v0l-.036.024c-.025.016-.05.033-.074.05l-5.174,3.482a3.1,3.1,0,0,0-1.368,2.167h0a2.288,2.288,0,0,0-.039.411A2.994,2.994,0,0,0,418.293,521.419Z" transform="translate(-101.522 -249.346)" fill="#005dab"/>
  </g>
</svg>
