<svg xmlns="http://www.w3.org/2000/svg" width="40" height="40" viewBox="0 0 40 40">
  <g id="bank_logo_071" transform="translate(-302 -254)">
    <circle id="area" cx="20" cy="20" r="20" transform="translate(302 254)" fill="#de040a"/>
    <path id="Path_124" data-name="Path 124" d="M-1651.852-27.913c-.859,0-1.229-.54-1.085-1.208a1.47,1.47,0,0,1,.731-.914l2.23-1.15-3.7-2.446a.049.049,0,0,1,0-.091l4.764-2.456-1.06,4.991,4.84-2.5h.006l8.662,5.721c.041.027.034.049-.014.049Zm20.127-3.271a.35.35,0,0,1-.162-.048l-3.645-2.4c-.04-.028-.04-.068,0-.089l4.7-2.421a.434.434,0,0,1,.167-.042h.936c.049,0,.053.02.01.042l-4.776,2.461,3.72,2.448c.041.027.033.048-.014.048Zm-2,0a.363.363,0,0,1-.163-.048l-3.646-2.4c-.04-.028-.039-.068.005-.089l4.7-2.421a.429.429,0,0,1,.167-.042h.937c.049,0,.054.02.011.042l-4.779,2.461,3.721,2.448c.04.027.035.048-.014.048Zm-7.6,0,1.061-5h6.529c.048,0,.053.02.01.042l-4.772,2.461,3.714,2.448c.04.027.035.048-.014.048Zm-3.8-2.5h0l-5.522-3.645a.9.9,0,0,1-.345-.917,1.57,1.57,0,0,1,1.6-1.208h15.372c.049,0,.053.02.009.041l-11.11,5.729Z" transform="translate(1963.711 307.452)" fill="#fff" stroke="rgba(0,0,0,0)" stroke-width="1"/>
  </g>
</svg>
