<svg xmlns="http://www.w3.org/2000/svg" xmlns:xlink="http://www.w3.org/1999/xlink" width="40" height="40" viewBox="0 0 40 40">
  <defs>
    <clipPath id="clip-path">
      <rect id="mask" width="40" height="40" transform="translate(302 254)" fill="red"/>
    </clipPath>
  </defs>
  <g id="bank_logo_062" transform="translate(-302 -254)">
    <g id="Mask_Group_9" data-name="Mask Group 9" clip-path="url(#clip-path)">
      <circle id="area" cx="20" cy="20" r="20" transform="translate(302 254)" fill="#be1b30"/>
      <path id="Path_97" data-name="Path 97" d="M-1527,4a11.013,11.013,0,0,1,11-11,11.012,11.012,0,0,1,11,11,11.012,11.012,0,0,1-11,11A11.013,11.013,0,0,1-1527,4Zm1.488,0A9.523,9.523,0,0,0-1516,13.512,9.523,9.523,0,0,0-1506.488,4,9.523,9.523,0,0,0-1516-5.513,9.523,9.523,0,0,0-1525.513,4Zm10,5.825V8.337h3.928V6.472h-3.474V1.616h3.474V-.337h-3.928V-1.825h5.416V3.1h-3.474V4.984h3.474v4.84Zm-6.381,0V4.9h3.474V3.015h-3.474v-4.84h5.416V-.337h-3.928V1.528h3.474V6.384h-3.474V8.337h3.928V9.825Z" transform="translate(1838 270)" fill="#fff"/>
    </g>
  </g>
</svg>
