<svg xmlns="http://www.w3.org/2000/svg" width="40" height="40" viewBox="0 0 40 40">
  <g id="bank_logo_270" transform="translate(-302 -254)">
    <g id="maskarea_hana" transform="translate(302 254)">
      <circle id="area" cx="20" cy="20" r="20" fill="#009591"/>
      <path id="path" d="M-1418.981-315.99c-.051,0-.1-.05-.153-.1a.486.486,0,0,1,0-.457c.051-.2.1-.356.153-.559a18.411,18.411,0,0,0,.813-5.488,2.522,2.522,0,0,0-.254-1.22,1.266,1.266,0,0,0-.915-.762,1.116,1.116,0,0,0-.712.1.9.9,0,0,0-.254.2.921.921,0,0,0-.305.457,2.943,2.943,0,0,0-.05,1.627,1.149,1.149,0,0,1-.407,1.169,1.134,1.134,0,0,1-1.067.1,1.851,1.851,0,0,1-.813-.711,4.633,4.633,0,0,1-.254-3.4,3.084,3.084,0,0,1,.254-.61,3.575,3.575,0,0,1,1.321-1.422,3.9,3.9,0,0,1,4.066-.051,4.5,4.5,0,0,1,1.728,2.033,4.265,4.265,0,0,1,.254.864,7.807,7.807,0,0,1-.1,2.439,15.334,15.334,0,0,1-.407,1.627,9.716,9.716,0,0,1-2.236,3.913.652.652,0,0,1-.494.286A.444.444,0,0,1-1418.981-315.99Zm-9.331-12.472a4.218,4.218,0,0,1-1.512-1.474,1.454,1.454,0,0,1,.151-1.779,1.982,1.982,0,0,1,1.412-.254c.554,0,1.059.153,1.613.2.807.152,1.664.305,2.521.457a30.2,30.2,0,0,0,14.869-1.422,2.216,2.216,0,0,1,.756-.255.5.5,0,0,1,.5.457c0,.255-.251.407-.4.559a11.493,11.493,0,0,1-2.772,1.575,37.943,37.943,0,0,1-9.527,2.033c-1.865.254-3.78.457-5.645.559-.045,0-.09,0-.135,0A3.751,3.751,0,0,1-1428.312-328.462Zm6.891-5.658a1.561,1.561,0,0,1,.305-.965,1.493,1.493,0,0,1,.711-.661,2.508,2.508,0,0,1,1.22-.254c.356,0,1.067,0,1.016.508-.051.407.152.559.3.915a1.476,1.476,0,0,1,.1.457,1.822,1.822,0,0,1-1.829,1.829A1.822,1.822,0,0,1-1421.421-334.12Z" transform="translate(1439.052 347)" fill="#fff"/>
    </g>
  </g>
</svg>
