<svg xmlns="http://www.w3.org/2000/svg" xmlns:xlink="http://www.w3.org/1999/xlink" width="40" height="40" viewBox="0 0 40 40">
  <defs>
    <clipPath id="clip-path">
      <rect id="mask" width="40" height="40" transform="translate(302 254)" fill="red"/>
    </clipPath>
  </defs>
  <g id="bank_logo_027" transform="translate(-302 -254)">
    <g id="Mask_Group_1" data-name="Mask Group 1" clip-path="url(#clip-path)">
      <circle id="area" cx="20" cy="20" r="20" transform="translate(302 254)" fill="#002069"/>
      <path id="Path_41" data-name="Path 41" d="M-1096.572-615.464a4.326,4.326,0,0,1-1.385-3.368,4.292,4.292,0,0,1,1.385-3.368,4.6,4.6,0,0,1,3.225-1.193,3.909,3.909,0,0,1,3.1,1.5l.023.024-.023.023-.956,1.171-.048.048-.024-.048a2.856,2.856,0,0,0-2.149-1,2.576,2.576,0,0,0-1.958.813,2.814,2.814,0,0,0-.764,2.029,2.816,2.816,0,0,0,.764,2.03,2.579,2.579,0,0,0,1.958.813,2.857,2.857,0,0,0,2.149-1l.024-.047.048.047.956,1.171.023.024-.023.023a3.909,3.909,0,0,1-3.1,1.5A4.6,4.6,0,0,1-1096.572-615.464Zm14.315,1.147a1.965,1.965,0,0,1-1.433-.645,2.559,2.559,0,0,1-.55-1.672v-4.943h-1.528v-1.648h1.528v-1.792h.024l1.743-.956v2.748h1.84v1.648h-1.84v4.68c0,.67.287.979.836.979a2.481,2.481,0,0,0,1.338-.454l.095-.047-.023.12-.383,1.552-.023.023h-.024a2.71,2.71,0,0,1-1.477.409Zm3.362-.144v-8.764h1.84v8.764Zm-10.306,0v-8.764h1.815v8.764Z" transform="translate(1408.957 894.467)" fill="#fff"/>
      <path id="Path_40" data-name="Path 40" d="M362.124,19.824a6.835,6.835,0,0,1,5.135-2.222,6.749,6.749,0,0,1,5.111,2.222l.047.024h2.055l-.072-.12a8.708,8.708,0,0,0-3.153-2.722,8.612,8.612,0,0,0-7.977,0,8.911,8.911,0,0,0-3.153,2.722l-.071.12H362.1l.024-.024Z" transform="translate(-41.472 249.973)" fill="#dc0016" fill-rule="evenodd"/>
    </g>
  </g>
</svg>
