<svg xmlns="http://www.w3.org/2000/svg" width="40" height="40" viewBox="0 0 40 40">
  <g id="bank_logo_262" transform="translate(-302 -254)">
    <circle id="area" cx="20" cy="20" r="20" transform="translate(302 254)" fill="#e40048"/>
    <path id="Path_121" data-name="Path 121" d="M-1989.248-294.362a1.376,1.376,0,0,1-.742-1.8l2.692-6.466a1.376,1.376,0,0,1,1.8-.743,1.379,1.379,0,0,1,.743,1.8l-2.692,6.465a1.374,1.374,0,0,1-1.27.849A1.375,1.375,0,0,1-1989.248-294.362Zm-12.8-4.265a3.712,3.712,0,0,1-2.951-3.63,3.983,3.983,0,0,1,1.192-2.89c1.7-1.687,4.667-1.817,5.358-1.826l1.74-4.18a1.374,1.374,0,0,1,1.8-.742,1.377,1.377,0,0,1,.743,1.8l-1.3,3.121h2.921l1.741-4.18a1.375,1.375,0,0,1,1.8-.742,1.375,1.375,0,0,1,.742,1.8l-1.3,3.121h.851a1.376,1.376,0,0,1,1.377,1.375,1.376,1.376,0,0,1-1.377,1.377h-2l-1.518,3.7a1.377,1.377,0,0,1-1.8.741,1.374,1.374,0,0,1-.742-1.8l1.081-2.64h-2.924l-1.325,3.187a.01.01,0,0,0,0,.008v0a3.737,3.737,0,0,1-3.392,2.469A3.54,3.54,0,0,1-2002.049-298.627Zm.176-4.561a1.216,1.216,0,0,0-.374.932.964.964,0,0,0,.752.934c.512.107.831-.355,1.012-.766,0,0,0,0,0,0l.835-2.007A4.311,4.311,0,0,0-2001.874-303.188Z" transform="translate(2316 577)" fill="#fff"/>
    <path id="Path_120" data-name="Path 120" d="M-223.455,331.222a1.624,1.624,0,0,1-1.666,1.581,1.622,1.622,0,0,1-1.582-1.665,1.622,1.622,0,0,1,1.665-1.581,1.624,1.624,0,0,1,1.583,1.665" transform="translate(556.455 -59.737)" fill="#fff"/>
  </g>
</svg>
