<svg xmlns="http://www.w3.org/2000/svg" width="40" height="40" viewBox="0 0 40 40">
  <g id="bank_logo_240" transform="translate(-302 -254)">
    <circle id="area" cx="20" cy="20" r="20" transform="translate(302 254)" fill="#003e92"/>
    <path id="Path_112" data-name="Path 112" d="M-154.583-11.65c-.383-2.35-6.968-3.085-14.713-1.639a39.539,39.539,0,0,0-8.476,2.513,1.066,1.066,0,0,1,.772.263.772.772,0,0,1,.184.544v.231h-.759v-.2a.249.249,0,0,0-.265-.278.238.238,0,0,0-.26.206.424.424,0,0,0,0,.162c.081.357,1.208.577,1.332,1.236a1.73,1.73,0,0,1,0,.524c-.071.53-.5.736-1.059.736-.771,0-1.085-.392-1.085-.935v-.255h.815v.319a.264.264,0,0,0,.285.278.253.253,0,0,0,.282-.208.443.443,0,0,0-.006-.228c-.151-.406-1.205-.595-1.334-1.251a1.15,1.15,0,0,1-.007-.43.864.864,0,0,1,.067-.226c-2.537,1.271-4.021,2.672-3.825,3.881.384,2.353,6.97,3.086,14.712,1.641a39.019,39.019,0,0,0,8.792-2.654c-.033,0-.066,0-.1,0-.531,0-1.005-.213-1.052-.793a2.009,2.009,0,0,1-.011-.21V-9.762c0-.056.006-.158.011-.21.064-.562.477-.793,1.051-.793.443,0,.987.136,1.048.793.007.082.006.171.006.2v.127h-.766v-.187a1.034,1.034,0,0,0-.01-.119.266.266,0,0,0-.286-.223.27.27,0,0,0-.286.223,1.031,1.031,0,0,0-.011.149v1.452a.741.741,0,0,0,.007.12.27.27,0,0,0,.293.221.271.271,0,0,0,.291-.221.6.6,0,0,0,.007-.12V-8.8h-.3v-.486h1.068v.863a1.894,1.894,0,0,1-.01.21.871.871,0,0,1-.128.391c2.472-1.258,3.909-2.636,3.716-3.827m-20.08,4.168-.387-2.832h-.015l-.4,2.832h-.819l.55-3.2h1.336l.546,3.2Zm3.94,0-.019-2.777h-.012l-.482,2.777H-172l-.479-2.777h-.014l-.017,2.777h-.762l.066-3.2h1.226l.356,2.376h.018l.357-2.376h1.225l.063,3.2Zm3.585-.62c-.083.62-.648.728-1.047.728-.664,0-1.075-.3-1.075-.924l0-.253h.8v.316a.261.261,0,0,0,.286.274.251.251,0,0,0,.278-.2.452.452,0,0,0-.006-.226c-.149-.4-1.194-.592-1.321-1.237a1.186,1.186,0,0,1-.007-.429c.088-.583.613-.706,1.033-.706a1.074,1.074,0,0,1,.816.265.764.764,0,0,1,.184.538v.231h-.75v-.2a.248.248,0,0,0-.264-.275.237.237,0,0,0-.26.2.42.42,0,0,0,0,.159c.081.356,1.2.573,1.322,1.223a1.8,1.8,0,0,1,0,.52m2.785-.289c0,.059,0,.178-.007.21-.046.525-.4.794-1.043.794s-1-.269-1.043-.794c0-.032-.007-.152-.007-.21v-2.29h.768v2.362a.494.494,0,0,0,.009.119.261.261,0,0,0,.273.223.267.267,0,0,0,.278-.223.8.8,0,0,0,.006-.119v-2.362h.766Zm3.315.876h-1.069l-.719-2.532h-.012l.039,2.532h-.747V-10.68h1.116l.664,2.433h.015l-.038-2.433h.75Z" transform="translate(490.642 283.03)" fill="#fff"/>
  </g>
</svg>
