<svg xmlns="http://www.w3.org/2000/svg" xmlns:xlink="http://www.w3.org/1999/xlink" width="40" height="40" viewBox="0 0 40 40">
  <defs>
    <clipPath id="clip-path">
      <rect id="mask" width="40" height="40" transform="translate(302 254)" fill="red"/>
    </clipPath>
  </defs>
  <g id="bank_logo_048" transform="translate(-302 -254)">
    <g id="mask-2" data-name="mask" clip-path="url(#clip-path)">
      <circle id="area" cx="20" cy="20" r="20" transform="translate(302 254)" fill="#0050a0"/>
      <path id="Path_68" data-name="Path 68" d="M593.391,424.991a5.55,5.55,0,0,1-2.6,3.1,9.166,9.166,0,0,0,1.867-10.459c-.708-1.254.195-1.8.195-1.8a1.656,1.656,0,0,0-1.417,2.221,8.537,8.537,0,0,1,.474,5.706l-.678-.381.012-.016a7.151,7.151,0,0,0-4.951-8.557l0-1.193H584.9v7.851l6.436,3.669c-.116.238-.241.461-.371.675L584.5,422.06l-6.492,3.746c-.128-.214-.253-.437-.371-.675l6.436-3.669V413.61h-1.384l0,1.193a7.151,7.151,0,0,0-4.95,8.557l.011.016-.68.381a8.533,8.533,0,0,1,.476-5.706,1.656,1.656,0,0,0-1.416-2.221s.9.548.192,1.8a9.168,9.168,0,0,0,1.868,10.459,5.554,5.554,0,0,1-2.6-3.1,1.889,1.889,0,0,0-2.1-.923l.925,1.334a8.041,8.041,0,0,0,6.765,5.1v2.447h2.638v-3.6a7.331,7.331,0,0,1-4.935-2.375l.663-.387a8.04,8.04,0,0,0,4.928,2.047v0h.032v0a8.049,8.049,0,0,0,4.929-2.047l.66.387a7.331,7.331,0,0,1-4.935,2.375v3.6H587.8V430.5a8.038,8.038,0,0,0,6.764-5.1,2.117,2.117,0,0,1,.927-1.334,1.889,1.889,0,0,0-2.1.923m-3.438-2.339-.007.006-3.629-2.032-.021-4.344h.021s4.377,1.188,3.636,6.37m-7.294-6.37h.021l-.021,4.344-3.633,2.032,0-.006c-.741-5.182,3.635-6.37,3.635-6.37m5.459,9.543-.032-.017a5.446,5.446,0,0,1-7.2,0l-.032.017v-.006l3.64-2.118,3.62,2.118Z" transform="translate(-262.488 -149.61)" fill="#fff"/>
    </g>
  </g>
</svg>
