<svg xmlns="http://www.w3.org/2000/svg" width="40" height="40" viewBox="0 0 40 40">
  <g id="bank_logo_266" transform="translate(-302 -254)">
    <circle id="area" cx="20" cy="20" r="20" transform="translate(302 254)" fill="#d80029"/>
    <path id="Path_128" data-name="Path 128" d="M-2208,68.384l1.235-2.315a5.973,5.973,0,0,0,2.979.964c1.1,0,1.919-.453,1.919-1.248,0-.9-1.111-1.342-2.339-1.946a7.277,7.277,0,0,1-2.379-1.63,3.379,3.379,0,0,1-.8-2.3c0-1.99,1.575-3.906,4.559-3.906a9.243,9.243,0,0,1,3.456.688l-.136.411c-.331,1-.828,1.522-1.708,1.522a3.1,3.1,0,0,1-.483-.052,5.078,5.078,0,0,0-.989-.1c-1.008,0-1.52.463-1.52,1.1,0,.835.9,1.248,1.99,1.761,1.583.767,3.537,1.676,3.537,4.123,0,2.462-2.107,4.063-4.892,4.064A8.508,8.508,0,0,1-2208,68.384Zm11.069,1.028V56.269h2.967v5.356h.061l4.029-5.356h3.6l-5.054,6.2L-2186,69.25h-3.775l-4.107-5.6h-.063v3.019a2.55,2.55,0,0,1-2.81,2.738Z" transform="translate(2519 211)" fill="#fff"/>
  </g>
</svg>
