<svg xmlns="http://www.w3.org/2000/svg" xmlns:xlink="http://www.w3.org/1999/xlink" width="40" height="40" viewBox="0 0 40 40">
  <defs>
    <clipPath id="clip-path">
      <rect id="mask" width="40" height="40" transform="translate(302 254)" fill="red"/>
    </clipPath>
  </defs>
  <g id="bank_logo_011" transform="translate(-302 -254)">
    <g id="maskarea" clip-path="url(#clip-path)">
      <circle id="area" cx="20" cy="20" r="20" transform="translate(302 254)" fill="#10a34c"/>
      <path id="path" d="M-1120-178.891a8.9,8.9,0,0,1,3.052-6.7l.068-.059-3.092-1.3v-4.342l5.37,2.287s2.91,5.506,2.975,5.632a4.507,4.507,0,0,0-3.993,4.48,4.527,4.527,0,0,0,4.524,4.519,4.525,4.525,0,0,0,4.522-4.519,4.508,4.508,0,0,0-3.994-4.48c.066-.126,2.979-5.632,2.979-5.632l5.378-2.287v4.342l-3.1,1.3.066.059a8.9,8.9,0,0,1,3.049,6.7,8.908,8.908,0,0,1-8.9,8.891A8.907,8.907,0,0,1-1120-178.891Zm4.279-13.109,4.626,2.324,4.628-2.324-4.628,8.8Z" transform="translate(1433 455)" fill="#fe0"/>
    </g>
  </g>
</svg>
