<svg xmlns="http://www.w3.org/2000/svg" width="40" height="40" viewBox="0 0 40 40">
  <g id="bank_logo_230" transform="translate(-302 -254)">
    <g id="mirae" transform="translate(302 254)">
      <circle id="area" cx="20" cy="20" r="20" fill="#f58220"/>
      <path id="Union_24" data-name="Union 24" d="M-3112.288,15.536l.6-10.18s-4.08,9.529-4.352,10.18h-2.866l-1.239-9.8h0l-.047-.368c-.01.054-.04.2-.082.408h-.008c-.323,1.6-1.457,7.183-2.111,9.757H-3126c.222-.765,1.276-5.435,2.147-9.285h.01c.059-.254.114-.5.169-.748.526-2.336.954-4.225,1.034-4.5h4.852l.306,2.244.256,1.868h0l.577,4.217s1.205-2.76,2.227-5.11l.01,0c.677-1.565,1.271-2.948,1.377-3.215h4.744l-.242.174.243-.174h.292c0,1.017-.671,13.505-.663,14.536Z" transform="translate(3137 12)" fill="#fff"/>
    </g>
  </g>
</svg>
