<svg xmlns="http://www.w3.org/2000/svg" width="40" height="40" viewBox="0 0 40 40">
  <g id="bank_logo_039" transform="translate(-302 -254)">
    <g id="maskarea_bnk" transform="translate(302 254)">
      <circle id="area" cx="20" cy="20" r="20" fill="#d71921"/>
      <path id="Path_47" data-name="Path 47" d="M-1519.213,28.33a.3.3,0,0,1-.258-.116l-.954-1.2a.024.024,0,0,1,0-.025l.587-1.351a.011.011,0,0,1,.02,0l2.18,2.626a.042.042,0,0,1-.036.072Zm-5.235,0a.116.116,0,0,1-.119-.111V22.052a.066.066,0,0,1,.068-.064h1.272a.066.066,0,0,1,.068.064V27.2a.529.529,0,0,0,.555-.352l1.731-3.991c.278-.59.767-.867,1.688-.867h.8a.065.065,0,0,1,.067.064v1.006a.064.064,0,0,1-.067.062h-.566a.7.7,0,0,0-.736.4l-1.709,3.942c-.279.588-.7.865-1.62.865Zm-2.878,0c-.921,0-1.341-.278-1.62-.865l-1.709-3.942a.7.7,0,0,0-.736-.4h-.97a.064.064,0,0,1-.067-.062V22.052a.065.065,0,0,1,.067-.064h1.2c.921,0,1.409.277,1.688.867l1.732,3.991a.527.527,0,0,0,.554.352V22.052a.065.065,0,0,1,.067-.064h1.273a.065.065,0,0,1,.066.064v6.167a.114.114,0,0,1-.117.111Zm-5.035,0a.065.065,0,0,1-.067-.063V23.824a.065.065,0,0,1,.067-.063h1.274a.065.065,0,0,1,.067.063v4.444a.065.065,0,0,1-.067.063Zm-7.2,0a.065.065,0,0,1-.067-.063V23.824a.066.066,0,0,1,.067-.063h1.355a.066.066,0,0,1,.067.063v.748h2.079c.566,0,.947-.325.947-.726s-.382-.726-.947-.726h-3.5a.064.064,0,0,1-.067-.062V22.052a.065.065,0,0,1,.067-.064h3.761c1.217,0,2.228.672,2.228,1.78a1.42,1.42,0,0,1-.934,1.392,1.376,1.376,0,0,1,1.029,1.321c0,1.24-.992,1.849-2.378,1.849Zm1.422-1.1h2.151c.58,0,.971-.333.971-.744s-.391-.744-.971-.744h-2.151Z" transform="translate(1548.627 -4.989)" fill="#fff"/>
    </g>
  </g>
</svg>
