<svg xmlns="http://www.w3.org/2000/svg" xmlns:xlink="http://www.w3.org/1999/xlink" width="40" height="40" viewBox="0 0 40 40">
  <defs>
    <radialGradient id="radial-gradient" cx="0.665" cy="0.213" r="0.5" gradientUnits="objectBoundingBox">
      <stop offset="0" stop-color="#e93c2f"/>
      <stop offset="1" stop-color="#c10c00"/>
    </radialGradient>
    <radialGradient id="radial-gradient-2" cx="0.5" cy="0.5" r="0.731" gradientTransform="matrix(-0.419, 0.908, -0.725, -0.335, 1.072, 0.213)" gradientUnits="objectBoundingBox">
      <stop offset="0" stop-color="#d3d7d9"/>
      <stop offset="0.498" stop-color="#b1bfc9"/>
      <stop offset="1" stop-color="#a0a8b1"/>
    </radialGradient>
  </defs>
  <g id="bank_logo_280" transform="translate(-302 -254)">
    <circle id="area" cx="20" cy="20" r="20" transform="translate(302 254)" fill="#f7f7f7"/>
    <path id="Path_122" data-name="Path 122" d="M-426.5,281.025c-.349.851-1.806,1.446-2.577,2.218-1.782,1.783-1.306,5.083.531,5.715,1.692.576.092-2.492,1.692-3.826,1.694-1.3,6.064.971,2.563,3.932a9.183,9.183,0,0,0-1.479,1.34c-2.868,2.867,1.783,6.117,5.19,5.7,3.017-.368,3.845-2.348,4.262-5.171.38-2.569-.133-3.467.268-5.335,1.283-3.538,5.42-.526,6.005,1.191.012-.2.032-.389.032-.59a11,11,0,0,0-11-11,10.965,10.965,0,0,0-8.589,4.144C-427.28,277.9-425.773,279.281-426.5,281.025Z" transform="translate(743.009 -12.204)" fill="url(#radial-gradient)"/>
    <path id="Path_123" data-name="Path 123" d="M-416.046,285.6c-.4,1.868.112,2.766-.268,5.335-.417,2.823-1.245,4.8-4.262,5.171-3.407.415-8.058-2.835-5.19-5.7a9.183,9.183,0,0,1,1.479-1.34c3.5-2.961-.869-5.232-2.563-3.932-1.6,1.334,0,4.4-1.692,3.826-1.837-.632-2.313-3.932-.531-5.715.771-.772,2.228-1.367,2.577-2.218.723-1.744-.784-3.127-3.106-1.677a10.931,10.931,0,0,0-2.407,6.853,11,11,0,0,0,11,11,10.989,10.989,0,0,0,10.972-10.411C-410.626,285.074-414.763,282.062-416.046,285.6Zm-.431-3.345c1.052.756,2.315.81,2.823.1s.067-1.892-.985-2.647-2.319-.813-2.824-.109S-417.526,281.5-416.477,282.255Z" transform="translate(743.009 -12.204)" fill="url(#radial-gradient-2)"/>
  </g>
</svg>
