<svg xmlns="http://www.w3.org/2000/svg" xmlns:xlink="http://www.w3.org/1999/xlink" width="40" height="40" viewBox="0 0 40 40">
  <defs>
    <clipPath id="clip-path">
      <rect id="mask" width="40" height="40" transform="translate(302 254)" fill="red"/>
    </clipPath>
    <clipPath id="clip-path-2">
      <path id="mask_area1" data-name="mask area1" d="M122.1,275.49a10.485,10.485,0,1,0-10.487-10.485A10.484,10.484,0,0,0,122.1,275.49Z" transform="translate(-111.615 -254.52)" fill="none"/>
    </clipPath>
    <radialGradient id="radial-gradient" cx="0.5" cy="1.063" r="1.096" gradientTransform="translate(-0.428 1.563) rotate(-90) scale(1 0.873)" gradientUnits="objectBoundingBox">
      <stop offset="0" stop-color="#fff"/>
      <stop offset="0.573" stop-color="#fff"/>
      <stop offset="0.636" stop-color="#7adaff"/>
      <stop offset="0.679" stop-color="#00b9ff"/>
      <stop offset="0.764" stop-color="#0095e1"/>
      <stop offset="0.879" stop-color="#007dce"/>
      <stop offset="1" stop-color="#006bb4"/>
    </radialGradient>
  </defs>
  <g id="bank_logo_020" transform="translate(-302 -254)">
    <g id="maskarea" clip-path="url(#clip-path)">
      <circle id="area" cx="20" cy="20" r="20" transform="translate(302 254)" fill="#00b3fa"/>
      <circle id="line" cx="11" cy="11" r="11" transform="translate(311 263)" fill="#fff"/>
      <g id="mask_e" data-name="mask e" transform="translate(311.515 263.479)" clip-path="url(#clip-path-2)">
        <rect id="gra" width="22" height="22" transform="translate(-0.515 -0.479)" fill="url(#radial-gradient)"/>
      </g>
      <path id="shape_02" data-name="shape 02" d="M123.029,281.077a27.614,27.614,0,0,0-9.576,1.622,10.487,10.487,0,0,0,19.157,0A27.647,27.647,0,0,0,123.029,281.077Z" transform="translate(198.971 -4.467)" fill="#006abd"/>
    </g>
  </g>
</svg>
