<svg xmlns="http://www.w3.org/2000/svg" width="40" height="40" viewBox="0 0 40 40">
  <g id="bank_logo_290" transform="translate(-302 -254)">
    <circle id="area" cx="20" cy="20" r="20" transform="translate(302 254)" fill="#0d2a62"/>
    <path id="Path_148" data-name="Path 148" d="M-740.054,385.181l12.926,8.367-12.926,8.8-12.926-8.8,12.926-8.367m0-1.405-15.058,9.747,15.058,10.253L-725,393.523l-15.058-9.747Z" transform="translate(1062.112 -119.776)" fill="#fff"/>
    <path id="Path_150" data-name="Path 150" d="M-713.386,406.258l-1.752,1.244-1.86-1.343,4.074-2.756-.064-.094-2.169-1.447-10.121,6.849,6.442,4.531,7.645-5.526Zm-5.45,3.853-2.094-1.562,1.578-1.047,2.041,1.548Z" transform="translate(1037.305 -134.814)" fill="#fff"/>
    <path id="Path_180" data-name="Path 180" d="M414.158,37.5l9.021-6.343-5.759-3.812-1.472.988,3.347,2.329.7.49-.7.494-6.732,4.733,1.592,1.121m0,.734-2.634-1.855,7.428-5.224-4.067-2.831,2.532-1.7,6.826,4.518Z" transform="translate(-92.524 242.376)" fill="#fff"/>
  </g>
</svg>
