<svg xmlns="http://www.w3.org/2000/svg" width="40" height="40" viewBox="0 0 40 40">
  <g id="bank_logo_291" transform="translate(-302 -254)">
    <circle id="area" cx="20" cy="20" r="20" transform="translate(302 254)" fill="#00380d"/>
    <path id="Path_140" data-name="Path 140" d="M-2405.637,11.337c-.894,0-.971-.8-.647-1.3l2.5-4.091a.956.956,0,0,1,.782-.519.956.956,0,0,1,.782.519l2.5,4.091c.324.5.247,1.3-.647,1.3Zm9.117-3.85-5.834-3.817a1.084,1.084,0,0,0-1.288,0l-5.837,3.815a2.274,2.274,0,0,1-3.149-.66,2.274,2.274,0,0,1,.66-3.148l1.254-.821a2.521,2.521,0,0,0,2.834.051s3.744-2.447,4.192-2.738a1.238,1.238,0,0,1,1.394.006c.353.235,4.176,2.732,4.176,2.732a2.521,2.521,0,0,0,2.834-.051l1.256.821a2.276,2.276,0,0,1,.659,3.148,2.272,2.272,0,0,1-1.906,1.031A2.266,2.266,0,0,1-2396.52,7.487Zm-1.276-5.072s-4.146-2.7-4.548-2.934a1.255,1.255,0,0,0-1.293,0c-.336.2-4.568,2.93-4.568,2.93a1.982,1.982,0,0,1-2.677-.56,1.934,1.934,0,0,1,.56-2.676l1.444-.946a2.175,2.175,0,0,0,2.643.2s2.558-1.671,2.809-1.824a.846.846,0,0,1,.442-.124.835.835,0,0,1,.436.121c.24.142,2.781,1.827,2.781,1.827a2.175,2.175,0,0,0,2.643-.2l1.443.946a1.931,1.931,0,0,1,.561,2.676,1.934,1.934,0,0,1-1.621.875A1.923,1.923,0,0,1-2397.8,2.415Zm-1.646-4.474-3.058-2.013a.838.838,0,0,0-.48-.165.845.845,0,0,0-.478.163l-3.1,2.014a1.584,1.584,0,0,1-2.191-.461,1.583,1.583,0,0,1,.46-2.192l4.821-3.151a.88.88,0,0,1,.948,0l4.813,3.148a1.585,1.585,0,0,1,.459,2.192,1.583,1.583,0,0,1-1.328.718A1.575,1.575,0,0,1-2399.442-2.06Z" transform="translate(2725 272)" fill="#fff" stroke="rgba(0,0,0,0)" stroke-width="1"/>
  </g>
</svg>
