<svg xmlns="http://www.w3.org/2000/svg" width="40" height="40" viewBox="0 0 40 40">
  <g id="bank_logo_279" transform="translate(-302 -254)">
    <g id="area" transform="translate(302 254)" fill="#fff" stroke="#eee" stroke-width="1">
      <circle cx="20" cy="20" r="20" stroke="none"/>
      <circle cx="20" cy="20" r="19.5" fill="none"/>
    </g>
    <g id="shape" transform="translate(1 0)">
      <path id="Path_141" data-name="Path 141" d="M-618.975,118.311a7.1,7.1,0,0,0-2.486-1.48,6.645,6.645,0,0,0-2.014-.43c-.6,0-1.112.19-1.243.79-.249,1.141-.132,10.945-.043,12.081.062.833.414,1.32,1.391,1.3C-616.553,130.462-614.765,122.2-618.975,118.311Z" transform="translate(936.867 153.297)" fill="#f16012"/>
      <path id="Path_142" data-name="Path 142" d="M-606.6,106.223a6.493,6.493,0,0,0-2.254-1.342,5.985,5.985,0,0,0-1.829-.392c-.549,0-1.013.177-1.133.72-.224,1.032-.118,9.935-.04,10.967.06.755.376,1.2,1.263,1.183C-604.4,117.256-602.773,109.753-606.6,106.223Z" transform="translate(932.297 157.511)" fill="#00a3e2"/>
      <path id="Path_143" data-name="Path 143" d="M-603.12,118.784a8.139,8.139,0,0,0-2.834-1.687,7.552,7.552,0,0,0-2.3-.492c-.688,0-1.275.218-1.425.9-.286,1.3-.147,12.484-.047,13.781.075.953.47,1.5,1.584,1.486C-600.362,132.651-598.317,123.22-603.12,118.784Z" transform="translate(931.555 153.225)" fill="#89bb2a"/>
    </g>
  </g>
</svg>
