<svg xmlns="http://www.w3.org/2000/svg" width="40" height="40" viewBox="0 0 40 40">
  <g id="bank_logo_269" transform="translate(-302 -254)">
    <circle id="area" cx="20" cy="20" r="20" transform="translate(302 254)" fill="#f37321"/>
    <path id="Union_25" data-name="Union 25" d="M-2201.007-115.337a5.245,5.245,0,0,1-1-1.321,6.558,6.558,0,0,1-4.44-1.642c-2.761-2.621-1.737-7.446,2.29-10.774s9.529-3.9,12.292-1.283a5.167,5.167,0,0,1,1.5,4.542,5.588,5.588,0,0,1,2.345,3.795c.237,2.317-1.424,4.282-3.979,5.072a6.317,6.317,0,0,1-.887,1.172,6.094,6.094,0,0,1-4.388,1.912A5.35,5.35,0,0,1-2201.007-115.337Zm.318-1.07a4.93,4.93,0,0,0,6.8-.193c-.239.017-.484.025-.732.023a9.441,9.441,0,0,1-3.559-.723,11.422,11.422,0,0,1-2.78.608Q-2200.833-116.545-2200.689-116.407Zm1.858-1.2a6.727,6.727,0,0,1-3.166-3.188,4.831,4.831,0,0,0,.462,3.279A7.447,7.447,0,0,0-2198.831-117.6Zm-1.724-12.775c-3.88,1.52-6.337,5.518-5.482,8.933a5.168,5.168,0,0,0,3.6,3.725,5.835,5.835,0,0,1,.212-3.729,4.508,4.508,0,0,1-.125-.687c-.311-3.037,2.645-5.475,6.6-5.443a9.429,9.429,0,0,1,3.813.836q-.022-.1-.047-.2a5.455,5.455,0,0,0-5.586-4.016A8.217,8.217,0,0,0-2200.555-130.379Zm6.158,12.082a8.261,8.261,0,0,0,1.793-.178,5.051,5.051,0,0,0,.275-2.964,12.409,12.409,0,0,1-1.827,1.856,13.367,13.367,0,0,1-1.646,1.164A8.917,8.917,0,0,0-2194.4-118.3Zm-6.712-4.483c.217,1.966,2.2,3.647,4.746,4.248a9.2,9.2,0,0,0,3.738-3.815,4.516,4.516,0,0,0-1.007-1.434,4.954,4.954,0,0,0-6.987.377,5.482,5.482,0,0,0-.494.6Zm9.844,3.876c1.726-.762,2.781-2.167,2.6-3.783a4.317,4.317,0,0,0-1.747-2.844,8.676,8.676,0,0,1-1.273,3.183A5.636,5.636,0,0,1-2191.266-118.9Zm-9.861-4.343q.1-.113.2-.222a5.758,5.758,0,0,1,8.12-.438,5.247,5.247,0,0,1,.575.649,6.5,6.5,0,0,0,.353-3.157,8.682,8.682,0,0,0-3.5-.754h-.07C-2198.626-127.168-2201.046-125.458-2201.127-123.246Z" transform="translate(2520 397)" fill="#fff"/>
  </g>
</svg>
