<svg xmlns="http://www.w3.org/2000/svg" xmlns:xlink="http://www.w3.org/1999/xlink" width="40" height="40" viewBox="0 0 40 40">
  <defs>
    <clipPath id="clip-path">
      <rect id="mask" width="40" height="40" transform="translate(302 254)" fill="red"/>
    </clipPath>
  </defs>
  <g id="bank_logo_002" transform="translate(-302 -254)">
    <g id="maskarea" clip-path="url(#clip-path)">
      <circle id="area" cx="20" cy="20" r="20" transform="translate(302 254)" fill="#002f6c"/>
      <g id="shape" transform="translate(190.611 12.85)">
        <path id="Path_19" data-name="Path 19" d="M124.257,272.178c-.432.856.008,2.622.553,3.472l7.481,11.742h-5.466a2.611,2.611,0,0,1-2.076-1.061l-4.079-6.41a2.15,2.15,0,0,1,0-2.125Z" transform="translate(0 -16.581)" fill="#fff"/>
        <path id="Path_20" data-name="Path 20" d="M141.186,271.374a1.851,1.851,0,0,0-.077,1.652l-2.527-3.966c-.545-.85-.984-2.616-.553-3.472l.449-.7a2.421,2.421,0,0,1,2.114-1.063h5.375Z" transform="translate(-13.772 -9.992)" fill="#fff"/>
        <path id="Path_21" data-name="Path 21" d="M176.177,266.362c.432-.856-.007-2.622-.552-3.471l-7.481-11.741h5.466a2.614,2.614,0,0,1,2.076,1.058l4.08,6.412a2.148,2.148,0,0,1,0,2.123Z" transform="translate(-37.656 0)" fill="#fff"/>
        <path id="Path_22" data-name="Path 22" d="M173.375,289.569a1.853,1.853,0,0,0,.077-1.652l2.527,3.966c.545.849.984,2.615.552,3.471l-.449.7a2.418,2.418,0,0,1-2.113,1.064h-5.376Z" transform="translate(-38.01 -28.992)" fill="#fff"/>
      </g>
    </g>
  </g>
</svg>
