<svg xmlns="http://www.w3.org/2000/svg" width="40" height="40" viewBox="0 0 40 40">
  <g id="bank_logo_263" transform="translate(-302 -254)">
    <circle id="area" cx="20" cy="20" r="20" transform="translate(302 254)" fill="#f7f7f7"/>
    <g id="shape" transform="translate(570.355 -134.016)">
      <path id="Path_159" data-name="Path 159" d="M-2561.424-238.223a3.818,3.818,0,0,1,3.87-3.761,3.9,3.9,0,0,1,3.2,1.644l-1.151.76a2.5,2.5,0,0,0-2.048-1.052,2.443,2.443,0,0,0-2.479,2.408,2.444,2.444,0,0,0,2.479,2.41,2.492,2.492,0,0,0,2.048-1.053l1.15.762a3.9,3.9,0,0,1-3.2,1.644A3.818,3.818,0,0,1-2561.424-238.223Zm-2.286,3.56v-5.228l-2.036,3.514h-.976l-2.029-3.514v5.228h-1.383v-7.055h1.882l2.021,3.434,2.021-3.434h1.88v7.055Zm-9.186,0v-2.885h-4.078v2.885h-1.382v-7.055h1.382v2.826h4.078v-2.826h1.381v7.055Z" transform="translate(2318 646)" fill="#002f6c" stroke="rgba(0,0,0,0)" stroke-width="1"/>
      <path id="Path_158" data-name="Path 158" d="M-210.206,411.7a1.035,1.035,0,0,1-1.049,1.021A1.036,1.036,0,0,1-212.3,411.7a1.035,1.035,0,0,1,1.049-1.021,1.034,1.034,0,0,1,1.049,1.021" transform="translate(-28.3 -3.927)" fill="#f16121"/>
    </g>
  </g>
</svg>
