<svg xmlns="http://www.w3.org/2000/svg" width="40" height="40" viewBox="0 0 40 40">
  <g id="bank_logo_004" transform="translate(-302 -254)">
    <g id="logo_kb" transform="translate(302 254)">
      <circle id="area" cx="20" cy="20" r="20" fill="#545045"/>
      <path id="Path_30" data-name="Path 30" d="M429.438,165.268a30.006,30.006,0,0,0,.389,4.932.09.09,0,0,0,.008.028c.227.332.462,1.647.649,2.058a.126.126,0,0,0,.041.041,1.647,1.647,0,0,0,.86.227.034.034,0,0,0,.035-.032,5.352,5.352,0,0,0-.015-1.283c-.1-1.536-.213-3.98-.2-5.461,1.2.669,5.706,3.9,8.058,4.568a.151.151,0,0,0,.148-.031.822.822,0,0,1,.345-.213.451.451,0,0,0,.126-.4,6.491,6.491,0,0,0,4.637-1.988,2.257,2.257,0,0,0,.268-2.679,1.611,1.611,0,0,1-.193-.123,3.381,3.381,0,0,0-2.708-.836,5.328,5.328,0,0,0-2.542.913s-.006,0-.009,0c-.055-1,.348-2.277-.006-3.1a.069.069,0,0,0-.073-.044,2.567,2.567,0,0,0-1.056.34.127.127,0,0,0-.047.107,6.54,6.54,0,0,1-.193,1.57c-.021.022-.015.045-.021.1a18,18,0,0,0-.009,3.764.642.642,0,0,0,.317.244,2.425,2.425,0,0,0,.983-.2.6.6,0,0,1,.154-.027c.041,0,.059-.051.054-.1a1.842,1.842,0,0,1,.01-.345,3.266,3.266,0,0,1,2.376-2.326,1.683,1.683,0,0,1,1.615.527,2.05,2.05,0,0,1-.233,1.659,3.3,3.3,0,0,1-1.794,1.423,6.831,6.831,0,0,1-2.731.379,25.093,25.093,0,0,0-3.773-2.327,4.188,4.188,0,0,1-.761-.548c-.649-.523-2.037-1.428-2.864-1.982-.006-.006-.006-.012-.006-.024a.4.4,0,0,1,.012-.174.119.119,0,0,1,.064-.072,18.068,18.068,0,0,0,1.616-1.018.728.728,0,0,1,.137-.093c1.835-1.112,5.055-2.619,6.462-4.075a.125.125,0,0,0,.02-.085.642.642,0,0,1,.027-.176.892.892,0,0,0,.015-.544.084.084,0,0,0-.056-.059,3.813,3.813,0,0,0-2.677,1.254,3.2,3.2,0,0,1-.742.493c-1.052.6-3.545,2.145-4.734,2.91-.016.01-.03,0-.03-.015a39.988,39.988,0,0,1,.638-4.929.153.153,0,0,0-.023-.111c-.1-.147-.154-.32-.189-.357a.044.044,0,0,0-.016-.013.683.683,0,0,0-.512-.03c-.149.034-.333.153-.57.21a.081.081,0,0,0-.061.049,19.929,19.929,0,0,0-1.191,5.707c0,.006,0,.019-.013.011a27.64,27.64,0,0,0-2.9-1.61.158.158,0,0,0-.044-.012,2.14,2.14,0,0,1-.71-.329c-.262-.158-.774-.52-1.1-.707a.157.157,0,0,0-.108-.026,2.016,2.016,0,0,0-.939.632c-.048.072.051.231.038.329a.034.034,0,0,0,.01.029,9.537,9.537,0,0,0,1.92,1.3c.968.522,1.953,1.017,2.362,1.276a.056.056,0,0,1,.024.026.782.782,0,0,0,.22.165,1.994,1.994,0,0,1,.289.178c.026.024.013.051-.014.07-1.024.713-3.057,2.034-4.027,2.684-.143.093-.693.338-.806.385a1.053,1.053,0,0,0-.556.452c-.017.035.005.054.032.062.156.044.194.154.3.2a.428.428,0,0,0,.121.015,3.761,3.761,0,0,0,1.2-.41c.727-.322,2.989-1.711,3.262-1.869a.025.025,0,0,1,.019-.006.693.693,0,0,0,.374-.191,4.014,4.014,0,0,1,.642-.383l.369-.2Z" transform="translate(-414.118 -144.937)" fill="#ffaf00"/>
    </g>
  </g>
</svg>
