<svg xmlns="http://www.w3.org/2000/svg" width="40" height="40" viewBox="0 0 40 40">
  <g id="bank_logo_261" transform="translate(-302 -254)">
    <circle id="area" cx="20" cy="20" r="20" transform="translate(302 254)" fill="#69a52b"/>
    <path id="Path_117" data-name="Path 117" d="M-183.674,246.922a2.647,2.647,0,0,0-3.785.2c-1.323,1.389-2.352,1.908-3.58,1.857-1.711-.075-2.556-1.4-3.435-3.069a4.517,4.517,0,0,0-4.068-2.716,4.436,4.436,0,0,0-4.4,4.716,8.058,8.058,0,0,0,4.552,7.074,11.1,11.1,0,0,0,4.8,1.181,14.457,14.457,0,0,1-.656,2.976h3.149a14.225,14.225,0,0,1-.67-3.078c4.613-.6,6.806-2.693,8-4.687a5.056,5.056,0,0,0,.822-2.6,2.552,2.552,0,0,0-.729-1.857m-14.846,2.392a1.612,1.612,0,0,1-1.714-1.505,1.616,1.616,0,0,1,1.512-1.712,1.609,1.609,0,0,1,1.7,1.509,1.605,1.605,0,0,1-1.5,1.709" transform="translate(514.945 22.802)" fill="#fff"/>
  </g>
</svg>
