<svg xmlns="http://www.w3.org/2000/svg" width="40" height="40" viewBox="0 0 40 40">
  <g id="bank_logo_064" transform="translate(-302 -254)">
    <circle id="area" cx="20" cy="20" r="20" transform="translate(302 254)" fill="#3d9227"/>
    <path id="path_b" data-name="path b" d="M-1833.52-321.7c-.051-.014-.051-.062,0-.075,1.661-.471,2.568-1.6,2.568-4.427v-9.791h3.1v9.791c0,2.933-1.855,4.644-4.356,4.644A5.378,5.378,0,0,1-1833.52-321.7Zm-4.68-2.785c-.084,0-.078-.065-.009-.085,1.661-.494,2.559-1.273,2.559-2.057,0-.643-.3-.977-3.081-2.728-2.835-1.786-3.27-2.523-3.27-3.709,0-1.631,2-3.082,4.841-2.929.08.005.076.063.009.083-1.869.555-2.495,1.218-2.495,1.786,0,.6.239.946,3,2.683,3.014,1.9,3.452,2.828,3.452,3.945,0,1.544-1.73,3.024-4.552,3.024Q-1837.969-324.469-1838.2-324.482Z" transform="translate(2157.145 605.555)" fill="#fff"/>
    <path id="path_g" data-name="path g" d="M-1838.716-319.034a3.789,3.789,0,0,1-2.366-1.171,3.786,3.786,0,0,1-.917-2.477.06.06,0,0,1,.016-.048.06.06,0,0,1,.05-.012,3.8,3.8,0,0,1,2.365,1.17,3.805,3.805,0,0,1,.918,2.478.052.052,0,0,1-.019.046.059.059,0,0,1-.04.014Zm5.363-7.305a3.817,3.817,0,0,1-2.368-1.171,3.805,3.805,0,0,1-.917-2.477.058.058,0,0,1,.018-.048.063.063,0,0,1,.049-.012,3.789,3.789,0,0,1,2.366,1.171,3.8,3.8,0,0,1,.917,2.475.059.059,0,0,1-.017.049.061.061,0,0,1-.04.013Zm5.555-5a4.768,4.768,0,0,1-2.976-1.472,4.781,4.781,0,0,1-1.154-3.112.071.071,0,0,1,.024-.06.07.07,0,0,1,.059-.016,4.779,4.779,0,0,1,2.979,1.473,4.793,4.793,0,0,1,1.152,3.111.084.084,0,0,1-.022.061.065.065,0,0,1-.047.016Z" transform="translate(2157 600)" fill="#fff"/>
  </g>
</svg>
