<svg xmlns="http://www.w3.org/2000/svg" width="40" height="40" viewBox="0 0 40 40">
  <g id="bank_logo_209" transform="translate(-302 -254)">
    <circle id="area" cx="20" cy="20" r="20" transform="translate(302 254)" fill="#009eea"/>
    <path id="Path_103" data-name="Path 103" d="M-1999.362,202.864h0a.28.28,0,0,1-.15-.244.281.281,0,0,1,.017-.105l.006-.008,3.082-7.666.008-.011a1.516,1.516,0,0,1,1.4-.966,1.518,1.518,0,0,1,1.37.847l3.244,7.735v0a.3.3,0,0,1,.021.105.279.279,0,0,1-.136.24l-.013.009a10.034,10.034,0,0,1-4.418,1.064H-1995A9.9,9.9,0,0,1-1999.362,202.864Zm-2.91-2.132s-.009-.007-.009-.013a9.979,9.979,0,0,1-2.72-6.5s.006-.009.006-.009v0a.275.275,0,0,1,.273-.283l5.2-.032a.274.274,0,0,1,.279.278.2.2,0,0,1-.02.105l-2.557,6.361a.28.28,0,0,1-.255.173A.3.3,0,0,1-2002.272,200.733Zm14.185-.191-2.647-6.319v-.009a.319.319,0,0,1-.023-.1.281.281,0,0,1,.278-.281l5.2-.037a.277.277,0,0,1,.278.274l0,.007a9.971,9.971,0,0,1-2.623,6.547l-.005,0a.308.308,0,0,1-.2.086A.279.279,0,0,1-1988.087,200.541Zm-16.424-9.75a.311.311,0,0,1,.016-.086v0a10.02,10.02,0,0,1,7.672-6.676h.008a.143.143,0,0,1,.037,0,.279.279,0,0,1,.281.275l0,.469h0a13.463,13.463,0,0,1-.914,4.908l-.469,1.176a.294.294,0,0,1-.2.17h-.025a.072.072,0,0,1-.023,0l-6.092.045A.285.285,0,0,1-2004.511,190.792Zm12.584.189a.276.276,0,0,1-.232-.171l-.489-1.17a13.489,13.489,0,0,1-.985-4.894l-.006-.467a.276.276,0,0,1,.276-.279h.036l.011,0a10.007,10.007,0,0,1,7.76,6.568l0,0a.214.214,0,0,1,.014.087.275.275,0,0,1-.277.277l-6.087.043Z" transform="translate(2317.001 80)" fill="#fff"/>
  </g>
</svg>
