<svg xmlns="http://www.w3.org/2000/svg" xmlns:xlink="http://www.w3.org/1999/xlink" width="40" height="40" viewBox="0 0 40 40">
  <defs>
    <clipPath id="clip-path">
      <rect id="mask" width="40" height="40" transform="translate(302 254)" fill="red"/>
    </clipPath>
  </defs>
  <g id="bank_logo_007" transform="translate(-302 -254)">
    <g id="maskarea" clip-path="url(#clip-path)">
      <circle id="area" cx="20" cy="20" r="20" transform="translate(302 254)" fill="#0060af"/>
      <path id="path" d="M-1184.293-161.456l.043.074c1.39,2.187,6.323,1.531,6.323,1.531.688-.094.157-.437.157-.437-1.374-1.251.373-2.189.373-2.189a9.825,9.825,0,0,1,5.665-.918c.752.016.314-.315.314-.315a1.137,1.137,0,0,1-.294-1.2c.5-1.189,2.557-1.578,2.557-1.578.579-.233,0-.452,0-.452-5-1.032-7.46.4-7.46.4-2.983,1.546.168,2.86.168,2.86a16.852,16.852,0,0,0-3.587-.217c-3.583.286-4.182,1.571-4.252,1.762.279-4.153,5.078-7.46,10.975-7.46,5.121,0,9.413,2.5,10.636,5.877a7.7,7.7,0,0,0-1.846-.291c-3.621-.374-5.432.655-5.432.655-2.9,1.47,0,2.856,0,2.856a13.2,13.2,0,0,0-4.87.049,5.329,5.329,0,0,0-2.277.857c-1.719,1.2.187,2.231.187,2.231,2.09,1.16,5.369.75,5.369.75,1,0,.283-.593.283-.593a1,1,0,0,1-.22-1.59,3.413,3.413,0,0,1,1.9-1.061,12.1,12.1,0,0,1,4.5-.347c.748.125.123-.528.123-.528-.468-.376-.186-1.188-.186-1.188a4.006,4.006,0,0,1,2.609-1.4c-.039-.136-.094-.265-.141-.4l.014,0,.058.163.071.23h0a5.693,5.693,0,0,1,.219,1.564c0,4.331-4.925,7.607-11,7.607C-1179.248-154.144-1184.072-157.274-1184.293-161.456Zm8.2,2.278a.676.676,0,0,1,.673-.673.672.672,0,0,1,.674.673.669.669,0,0,1-.674.672A.672.672,0,0,1-1176.089-159.178Zm-8.218-2.3-.005-.222c0,.083.015.164.02.247Zm1.644-.844a.674.674,0,0,1,.674-.673.675.675,0,0,1,.675.673.673.673,0,0,1-.675.674A.672.672,0,0,1-1182.663-162.325Zm-1.651.574v.048Q-1184.314-161.727-1184.314-161.751Zm.017-.354.01-.026c-.01.127-.027.251-.027.38C-1184.314-161.915-1184.3-162.1-1184.3-162.1Zm14.684-.4a.672.672,0,0,1,.673-.671.67.67,0,0,1,.672.671.673.673,0,0,1-.672.676A.675.675,0,0,1-1169.612-162.508Zm-6.588-3.181a.671.671,0,0,1,.673-.675.674.674,0,0,1,.674.675.673.673,0,0,1-.674.67A.67.67,0,0,1-1176.2-165.688Z" transform="translate(1495.314 435.591)" fill="#fff" stroke="rgba(0,0,0,0)" stroke-width="1"/>
    </g>
  </g>
</svg>
