<svg xmlns="http://www.w3.org/2000/svg" width="40" height="40" viewBox="0 0 40 40">
  <g id="bank_logo_045" transform="translate(-302 -254)">
    <circle id="area" cx="20" cy="20" r="20" transform="translate(302 254)" fill="#27bcf1"/>
    <path id="Path_125" data-name="Path 125" d="M-1309.853-172.975v-4.243a3.035,3.035,0,0,0,2.418,1.2,3.04,3.04,0,0,0,3.04-3.039,3.04,3.04,0,0,0-3.04-3.04,3.017,3.017,0,0,0-.98.162,3.26,3.26,0,0,0,.541-1.8,3.27,3.27,0,0,0-.245-1.245l-.013,0a3.238,3.238,0,0,0-2.945-1.907,3.26,3.26,0,0,0-3.241,3.278,3.286,3.286,0,0,0,.536,1.8,2.985,2.985,0,0,0-.97-.162,2.98,2.98,0,0,0-2.208.977l0-.005a3,3,0,0,0-.753,1.993,3.016,3.016,0,0,0,3.017,3.016,3.013,3.013,0,0,0,2.4-1.188v4.21a6.494,6.494,0,0,1-3.178.825,6.523,6.523,0,0,1-6.522-6.522,6.527,6.527,0,0,1,4.25-6.116,6.727,6.727,0,0,1,6.673-6.218,6.725,6.725,0,0,1,6.664,6.1,6.577,6.577,0,0,1,4.337,6.184,6.575,6.575,0,0,1-6.574,6.574A6.55,6.55,0,0,1-1309.853-172.975Z" transform="translate(1633.076 455)" fill="#fff" stroke="rgba(0,0,0,0)" stroke-width="1"/>
  </g>
</svg>
