<svg xmlns="http://www.w3.org/2000/svg" width="40" height="40" viewBox="0 0 40 40">
  <g id="bank_logo_294" transform="translate(-302 -254)">
    <circle id="area" cx="20" cy="20" r="20" transform="translate(302 254)" fill="#543db5"/>
    <path id="Path_147" data-name="Path 147" d="M-2410.617-111.033c.617-1.675,2.645-2.627,3.756-3.05a15.184,15.184,0,0,0,2.733-1.192s.338.13,0,2.038c-.441,2.486-2.751,3.351-4.3,4a17.091,17.091,0,0,0-2.45,1.235A7.186,7.186,0,0,1-2410.617-111.033Zm.546-7.265a41.383,41.383,0,0,1,6.093-3.033,35.227,35.227,0,0,0,4.331-2.222,7.242,7.242,0,0,1,0,2.257c-.233,3.527-6.1,5.4-8.1,6.171a26.081,26.081,0,0,0-4.22,2.187C-2412.24-115.706-2411.569-117.2-2410.071-118.3Zm-2.929-1.623a5.043,5.043,0,0,1,2.858-4.765c1.288-.773,6.98-3.219,8.964-4.172s6.516-3.143,6.516-3.143a8.908,8.908,0,0,1-.824,4.276c-1,1.854-4.018,2.884-6.773,4.172s-9.659,4.431-10.741,5.023Z" transform="translate(2726 394)" fill="#fff"/>
  </g>
</svg>
