<svg xmlns="http://www.w3.org/2000/svg" xmlns:xlink="http://www.w3.org/1999/xlink" width="40" height="40" viewBox="0 0 40 40">
  <defs>
    <clipPath id="clip-path">
      <rect id="mask" width="40" height="40" transform="translate(302 254)" fill="red"/>
    </clipPath>
  </defs>
  <g id="bank_logo_090" transform="translate(-302 -254)">
    <g id="Mask_Group_5" data-name="Mask Group 5" clip-path="url(#clip-path)">
      <circle id="area" cx="20" cy="20" r="20" transform="translate(302 254)" fill="#ffe400"/>
      <path id="Path_77" data-name="Path 77" d="M641.593,583.774A4.754,4.754,0,0,0,639.8,580.7c-.149-.12-.3-.233-.479-.367.145-.1.266-.181.38-.27a5.115,5.115,0,0,0,1.593-2.07,4.45,4.45,0,0,0,.294-2.4,4.652,4.652,0,0,0-1.325-2.631,5.2,5.2,0,0,0-1.864-1.241,5.967,5.967,0,0,0-2.176-.387h-8.349a1.688,1.688,0,0,0-.173,0,.338.338,0,0,0-.334.337c0,.054,0,.109,0,.163v16.949c0,.085-.005.171,0,.256a.311.311,0,0,0,.277.284,1.149,1.149,0,0,0,.173.006h8.647a5.144,5.144,0,0,0,2.483-.623,5.069,5.069,0,0,0,2.347-2.555A4.4,4.4,0,0,0,641.593,583.774Zm-6.646.61h-1.56v-8.089h1.543s-.006,0,0,0v0h.017Z" transform="translate(-312.367 -306.331)" fill="#1e1719"/>
    </g>
  </g>
</svg>
