<svg xmlns="http://www.w3.org/2000/svg" xmlns:xlink="http://www.w3.org/1999/xlink" width="40" height="40" viewBox="0 0 40 40">
  <defs>
    <clipPath id="clip-path">
      <rect id="mask" width="40" height="40" transform="translate(302 254)" fill="red"/>
    </clipPath>
  </defs>
  <g id="bank_logo_060" transform="translate(-302 -254)">
    <g id="mask_a" data-name="mask a" clip-path="url(#clip-path)">
      <g id="area" transform="translate(302 254)" fill="#fff" stroke="#eee" stroke-width="1">
        <circle cx="20" cy="20" r="20" stroke="none"/>
        <circle cx="20" cy="20" r="19.5" fill="none"/>
      </g>
      <path id="path02" d="M-1851.882-184.874a44.176,44.176,0,0,1,6.253-2.992c.695.27,1.39.56,2.066.887a44.025,44.025,0,0,0-6.254,3.108C-1850.493-184.218-1851.187-184.566-1851.882-184.874Zm-2.8-1.139a37.5,37.5,0,0,1,6.466-2.76c.6.174,1.177.386,1.757.6a35.729,35.729,0,0,0-6.273,2.934C-1853.368-185.512-1854.025-185.763-1854.681-186.013Z" transform="translate(2164.681 458.78)" fill="#0056a3" stroke="rgba(0,0,0,0)" stroke-width="1"/>
      <path id="path01" d="M-1851.052-178.834a48.664,48.664,0,0,1,12.622-6.427c.734.386,1.447.792,2.162,1.236a51.234,51.234,0,0,0-11.986,7.083C-1849.162-177.618-1850.088-178.235-1851.052-178.834Zm-3.629-1.988a43.605,43.605,0,0,1,13.124-5.906c.831.329,1.622.715,2.414,1.1a46.05,46.05,0,0,0-12.893,6.214C-1852.906-179.914-1853.793-180.377-1854.681-180.822Zm17.66-1.678.077-.019a.224.224,0,0,0,.231.154.212.212,0,0,0,.155-.038.152.152,0,0,0,.039-.1c0-.077-.058-.115-.135-.115l-.135-.039c-.039-.02-.1-.02-.135-.059a.217.217,0,0,1-.058-.154c0-.155.135-.212.27-.212a.267.267,0,0,1,.271.193l-.1.02c0-.077-.1-.135-.193-.135-.058,0-.155.039-.155.115,0,.1.059.116.136.136l.115.019a1.3,1.3,0,0,1,.155.058.271.271,0,0,1,.057.174.209.209,0,0,1-.076.174.394.394,0,0,1-.213.059A.308.308,0,0,1-1837.021-182.5Zm1.409.212v-.675l-.251.675h-.077l-.251-.675v.675h-.076v-.771h.135l.251.617.212-.617h.155v.771Zm-17.776-5.192c.637-.212,1.293-.425,1.969-.617a40.34,40.34,0,0,1,5.481,2.142c-.618.212-1.216.425-1.814.656A39.1,39.1,0,0,0-1853.388-187.48Zm2.934-.887c.6-.155,1.2-.29,1.814-.406a39.831,39.831,0,0,1,5.578,1.969c-.617.154-1.255.347-1.872.54A37.356,37.356,0,0,0-1850.454-188.367Z" transform="translate(2169.68 456.773)" fill="#e60c19" stroke="rgba(0,0,0,0)" stroke-width="1"/>
    </g>
  </g>
</svg>
