<svg xmlns="http://www.w3.org/2000/svg" xmlns:xlink="http://www.w3.org/1999/xlink" width="40" height="40" viewBox="0 0 40 40">
  <defs>
    <linearGradient id="linear-gradient" x1="0.025" y1="1.083" x2="1.024" y2="0.282" gradientUnits="objectBoundingBox">
      <stop offset="0.129" stop-color="#017dc7"/>
      <stop offset="0.258" stop-color="#0086ca"/>
      <stop offset="0.422" stop-color="#0099d0"/>
      <stop offset="0.525" stop-color="#01a1bf"/>
      <stop offset="0.696" stop-color="#05b59c"/>
      <stop offset="0.909" stop-color="#6abd4c"/>
    </linearGradient>
  </defs>
  <g id="bank_logo_031" transform="translate(-302 -254)">
    <circle id="area" cx="20" cy="20" r="20" transform="translate(302 254)" fill="#f7f7f7"/>
    <path id="Path_88" data-name="Path 88" d="M960.242-311.829a4.68,4.68,0,0,1-.877,2.99c-1.764,2.168-4.96,2.729-10.117,3.26-4.169.429-5.735,1.977-6.23,2.705a16.3,16.3,0,0,0,5.455.912c6.613,0,11.974-3.728,11.974-8.326A5.917,5.917,0,0,0,960.242-311.829Z" transform="translate(-626.448 584.65)" stroke="rgba(0,0,0,0)" stroke-width="1" fill="url(#linear-gradient)"/>
    <path id="Path_93" data-name="Path 93" d="M-1322,193.345c0-4.609,5.373-8.345,12-8.345a14.447,14.447,0,0,1,9.347,3.111,5.036,5.036,0,0,1,1.585,3.308c-.063,1.241-.756,2.325-2.558,3.292a1.993,1.993,0,0,0,.242-1.022c0-1.237-1.536-1.687-1.536-1.687a1.614,1.614,0,0,0,1.162-1.537c0-1.225-1.462-1.491-1.837-1.491h-2.425a2.843,2.843,0,0,1,.1.779V195.7h1.94q-.78.263-1.713.514c-3.862,1.037-8.222,1.216-10.116,4.436C-1319.5,199.226-1322,196.489-1322,193.345Zm11-4.017a3.406,3.406,0,0,0-1.875,3.249c0,.238-.075,3.274,3.886,3.274a12.139,12.139,0,0,0,1.949-.238l-.075-3.219-1.163.019a1.117,1.117,0,0,1,.188.477v2.327s-.84.039-1.3,0c-.673-.058-2.308-.521-2.3-2.989a2.706,2.706,0,0,1,2.786-2.787,2.961,2.961,0,0,1,1.762.637v-.937a6.232,6.232,0,0,0-1.728-.235A5.3,5.3,0,0,0-1311,189.329Zm-8.086.38v5.99s2.164.1,3.068.015a3.191,3.191,0,0,0,2.653-3.487,3.217,3.217,0,0,0-2.934-3.253h-2.934A1.414,1.414,0,0,1-1319.089,189.708Zm14.188,4.98v-2.3h.748a1.458,1.458,0,0,1,1.57,1.416,1.473,1.473,0,0,1-1.446,1.415C-1304.752,195.214-1304.9,194.788-1304.9,194.688Zm-13.209-.024v-5.047h1.269c1.268,0,2.219.635,2.219,2.9,0,2.337-1.488,2.69-2.488,2.69C-1317.905,195.21-1318.11,195.006-1318.11,194.664Zm13.2-2.867v-2.28c.749,0,2.145-.112,2.145,1.14,0,1.051-1.451,1.144-1.966,1.144C-1304.847,191.8-1304.915,191.8-1304.915,191.8Z" transform="translate(1632 81)" fill="#007dc6" stroke="rgba(0,0,0,0)" stroke-width="1"/>
  </g>
</svg>
