<svg xmlns="http://www.w3.org/2000/svg" xmlns:xlink="http://www.w3.org/1999/xlink" width="40" height="40" viewBox="0 0 40 40">
  <defs>
    <linearGradient id="linear-gradient" y1="0.5" x2="1" y2="0.5" gradientUnits="objectBoundingBox">
      <stop offset="0" stop-color="#f67910"/>
      <stop offset="1" stop-color="#f77e0b"/>
    </linearGradient>
  </defs>
  <g id="bank_logo_265" transform="translate(-302 -254)">
    <g id="area" transform="translate(302 254)" fill="#fff" stroke="#eee" stroke-width="1">
      <circle cx="20" cy="20" r="20" stroke="none"/>
      <circle cx="20" cy="20" r="19.5" fill="none"/>
    </g>
    <g id="Group_102" data-name="Group 102" transform="translate(-800.415 -2.277)">
      <path id="Path_178" data-name="Path 178" d="M1115.152,298.4c3.07.029,6.986,0,10.125,0a7.687,7.687,0,0,0-5.6-8.563,8.013,8.013,0,1,0,4.132,12.477l-1.868-2.1c-2.351,2.581-4.614,3.2-6.934,1.95a5.385,5.385,0,0,1-2.57-5.964,5.257,5.257,0,0,1,4.789-3.879,4.716,4.716,0,0,1,4.836,3.415c-1.679,0-3.33-.046-4.978,0a2.091,2.091,0,0,0-1.533.657A3.247,3.247,0,0,0,1115.152,298.4Z" transform="translate(2 -19.251)" fill="#005581"/>
      <path id="Path_179" data-name="Path 179" d="M1178.931,267.3a1.978,1.978,0,1,1-1.978,1.978,1.98,1.98,0,0,1,1.978-1.978m0-2.022a4,4,0,1,0,4,4,4,4,0,0,0-4-4Z" transform="translate(-48.517)" fill="url(#linear-gradient)"/>
    </g>
  </g>
</svg>
