<svg xmlns="http://www.w3.org/2000/svg" width="40" height="40" viewBox="0 0 40 40">
  <g id="bank_logo_287" transform="translate(-302 -254)">
    <circle id="area" cx="20" cy="20" r="20" transform="translate(302 254)" fill="#1a1818"/>
    <path id="Path_170" data-name="Path 170" d="M-3341.366,203.071h-24v-2.792h24v2.791Zm-9.129-1.916a.75.75,0,0,0-.75.749.751.751,0,0,0,.75.751.751.751,0,0,0,.75-.751A.75.75,0,0,0-3350.495,201.155Z" transform="translate(3675.366 69.721)" fill="#d60018" stroke="rgba(0,0,0,0)" stroke-width="1"/>
    <path id="Path_171" data-name="Path 171" d="M-3344.882,204.362v-1.238l1.864-1.788h-1.868v-1.051h3.518v1.237l-1.835,1.753h1.836v1.087Zm-3.159,0v-2.877h-1.29v-1.206h4.04v1.206h-1.289v2.877Zm-3.179,0v-4.083h1.463v4.083Zm-2.01,0a7.685,7.685,0,0,0-.2-1.174c-.086-.188-.234-.211-.414-.211h-.328v1.385h-1.462v-4.083h2.363c.912,0,1.473.305,1.473,1.089a1.05,1.05,0,0,1-.912,1.082v.011a.919.919,0,0,1,.645.439,12.639,12.639,0,0,1,.361,1.462Zm-1.01-2.3h.382c.3,0,.594-.035.594-.45,0-.369-.279-.42-.573-.42h-.4Zm-5.243,2.3v-4.083h3.3v.984h-1.871v.58h1.79v.982h-1.79v.555h1.91v.983Zm-1.878,0-.022-3.2h-.011l-.748,3.2h-1.218l-.725-3.2h-.022l-.017,3.2h-1.244v-4.083h2.161l.5,2.235h.009l.492-2.235h2.155v4.083Z" transform="translate(3675.366 73.148)" fill="#fff"/>
  </g>
</svg>
