<svg xmlns="http://www.w3.org/2000/svg" xmlns:xlink="http://www.w3.org/1999/xlink" width="40" height="40" viewBox="0 0 40 40">
  <defs>
    <clipPath id="clip-path">
      <rect id="mask" width="40" height="40" transform="translate(302 254)" fill="red"/>
    </clipPath>
  </defs>
  <g id="bank_logo_050" transform="translate(-302 -254)">
    <g id="mask_a" data-name="mask a" clip-path="url(#clip-path)">
      <circle id="area" cx="20" cy="20" r="20" transform="translate(302 254)" fill="#62ad24"/>
      <path id="Path_69" data-name="Path 69" d="M-1320.985,19.047V.033c2.388-.248,6.348.884,6.348,4.279a4.356,4.356,0,0,1-.835,2.775A3.785,3.785,0,0,1-1314,10.356c0,3.488-2.9,4.546-5.108,4.546v4.145Zm1.876-5.956c1.434,0,3.2-.784,3.2-2.636,0-2.123-2.287-3.152-2.287-3.152,1.885-1.158,1.778-2.479,1.778-2.748,0-2.532-2.694-2.586-2.694-2.586Zm-8.028,1.809s2.856-1.778,2.856-3.664c0-2.29-3.719-2.91-3.719-6.493,0-5.308,5.712-4.688,5.712-4.688v1.94s-3.718-.4-3.718,2.532c0,.241-.1,1.388,1.859,3.018,2.236,1.859,1.859,3.452,1.859,3.745a4.825,4.825,0,0,1-2.048,3.61Z" transform="translate(1643 266)" fill="#fff" stroke="rgba(0,0,0,0)" stroke-width="1"/>
    </g>
  </g>
</svg>
