<svg xmlns="http://www.w3.org/2000/svg" width="40" height="40" viewBox="0 0 40 40">
  <g id="bank_logo_243" transform="translate(-302 -254)">
    <circle id="area" cx="20" cy="20" r="20" transform="translate(302 254)" fill="#f7f7f7"/>
    <path id="Path_113" data-name="Path 113" d="M-256.383,138.038c.2,0,.557.171,1.043.7a31.913,31.913,0,0,0,7.724,6.2c.341.188.532.328.532.507,0,.135-.019.272-.317.272a21.316,21.316,0,0,1-4.328-.964c-.794-.373-2.509-1.764-4.553-5.286a2.525,2.525,0,0,1-.476-1.062A.362.362,0,0,1-256.383,138.038Z" transform="translate(577.025 138.266)" fill="#488ac9"/>
    <path id="Path_114" data-name="Path 114" d="M-247.7,131.689s.5.982-4.346,1.664l.877-2.48a1.012,1.012,0,0,0-.886-1.42,1.239,1.239,0,0,0-1.073.867l-1.44,3.3a25.828,25.828,0,0,1-3.921,0c-.878-.087-1.1.4-1.1.9,0,.866,1.526,1.744,2.5,1.648.615-.057.972-.085,1.472-.135l-5.354,12.24c-.2.457-.37,1.191.55,1.191s2.989-.84,3.333-1.813c.148-.41,1.212-3.432,2.4-6.8a32.541,32.541,0,0,1,3.353-.448c.57,0,.863.257.863.56,0,.705-1.689,2.727-4.967,5.22-.361.274-.063.49.122.49.506,0,2.764-1.548,3.885-2.392,1.228-.929,3.373-3.345,3.373-5.043,0-.669-.3-1.282-1.639-1.282-1.3,0-3.6.291-4.093.352l.927-2.621c2.533-.351,4.045-.579,4.935-.765,1.227-.261,2.211-.964,2.211-1.691C-245.716,131.672-247.7,131.689-247.7,131.689Z" transform="translate(575.131 134.548)" fill="#512000"/>
  </g>
</svg>
