<svg xmlns="http://www.w3.org/2000/svg" width="40" height="40" viewBox="0 0 40 40">
  <g id="bank_logo_247" transform="translate(-302 -254)">
    <g id="logo_nh" transform="translate(302 254)">
      <circle id="area" cx="20" cy="20" r="20" fill="#0065b4"/>
      <path id="Path_132" data-name="Path 132" d="M-2289.859-438v-3.338h-5.978V-438h-1.463a.627.627,0,0,1-.628-.627v-6.744a.627.627,0,0,1,.628-.629h1.463v3.1h5.978V-446h1.464a.629.629,0,0,1,.629.629v6.744a.629.629,0,0,1-.629.627Zm-10.986,0a3.428,3.428,0,0,1-2.5-1.294l-4.564-4.631V-438h-1.462a.63.63,0,0,1-.633-.627V-446h1.282a3.062,3.062,0,0,1,2.4,1.233l4.607,4.662V-446h1.463a.63.63,0,0,1,.629.629V-438Z" transform="translate(2318.883 461.598)" fill="#fff"/>
    </g>
  </g>
</svg>
