<svg xmlns="http://www.w3.org/2000/svg" width="40" height="40" viewBox="0 0 40 40">
  <g id="bank_logo_292" transform="translate(-302 -254)">
    <circle id="area" cx="20" cy="20" r="20" transform="translate(302 254)" fill="#0090dc"/>
    <g id="Group_101" data-name="Group 101" transform="translate(900.291 -1000.188)">
      <path id="Path_172" data-name="Path 172" d="M-495.049,1273.236h-9.161c.166-.524.314-.994.464-1.463.436-1.36.88-2.718,1.3-4.083.086-.276.207-.391.5-.379.549.023,1.1.006,1.7.006l-1.192,3.995h3.5l-2.8-8.117c.685,0,1.3-.028,1.918.021.14.011.314.268.378.445q1.539,4.3,3.05,8.614C-495.271,1272.581-495.168,1272.888-495.049,1273.236Z" transform="translate(-74.48)" fill="#ff2e4b"/>
      <path id="Path_177" data-name="Path 177" d="M-3304.714,949.129a1.787,1.787,0,0,1-.046-.293c0-1.758,0-3.515-.01-5.274,0-.34.126-.444.454-.443q3.153.015,6.306,0c.346,0,.5.093.485.465-.025.494-.006.99-.006,1.531h-4.9v2.046h1.713c.912,0,1.826,0,2.738,0,.236,0,.457,0,.449.335-.009.533,0,1.065,0,1.633Zm-9.263-.111c-.01-.178-.029-.329-.029-.479,0-1.621.012-3.242-.011-4.862-.006-.423.1-.572.543-.562,1.171.027,2.344.017,3.516,0a1.093,1.093,0,0,0,1.212-1.065,1.116,1.116,0,0,0-1.212-1.067c-.569-.006-1.138,0-1.707,0h-2.342c0-.6-.02-1.137.016-1.667a.464.464,0,0,1,.321-.319c1.585,0,3.175-.049,4.753.062a2.965,2.965,0,0,1,2.532,3.206,3.055,3.055,0,0,1-2.952,2.842c-.74.016-1.48,0-2.293,0v3.9Zm9.217-8.06c0-.573,0-1.119,0-1.665,0-.351.251-.308.47-.308q1.755,0,3.51,0c.929,0,1.858.013,2.787-.006.363-.008.486.125.47.479-.022.492,0,.986,0,1.5Zm-7.18-4.467a5.044,5.044,0,0,1-2.257-5.266,4.815,4.815,0,0,1,4.082-3.975,30.4,30.4,0,0,1,3.406-.022c0,.509.02,1.073-.018,1.633-.006.1-.24.256-.376.263-.7.037-1.414-.007-2.116.051a2.967,2.967,0,0,0-2.691,2.856,2.918,2.918,0,0,0,2.35,3.132,8.8,8.8,0,0,0,1.56.086c.184,0,.368,0,.552,0,.871.015.731-.03.74.759,0,.375,0,.749,0,1.189-.379-.007-.757,0-1.132.008-.272.006-.544.011-.814.011A6.065,6.065,0,0,1-3311.94,936.491Z" transform="translate(2727 336.059)" fill="#fff"/>
    </g>
  </g>
</svg>
