<svg xmlns="http://www.w3.org/2000/svg" width="52" height="52" viewBox="0 0 52 52">
    <path d="M-4983 3246a25.852 25.852 0 0 1-10.121-2.043 25.937 25.937 0 0 1-8.264-5.573 25.92 25.92 0 0 1-5.573-8.264A25.843 25.843 0 0 1-5009 3220a25.846 25.846 0 0 1 2.042-10.121 25.917 25.917 0 0 1 5.573-8.264 25.935 25.935 0 0 1 8.264-5.573A25.852 25.852 0 0 1-4983 3194a25.859 25.859 0 0 1 10.121 2.043 25.919 25.919 0 0 1 8.263 5.573 25.9 25.9 0 0 1 5.572 8.264A25.851 25.851 0 0 1-4957 3220a25.847 25.847 0 0 1-2.043 10.12 25.9 25.9 0 0 1-5.572 8.264 25.919 25.919 0 0 1-8.263 5.573A25.859 25.859 0 0 1-4983 3246zm-14-21.222v8.716a38.42 38.42 0 0 0 13.192 2.339 21.234 21.234 0 0 0 10.515-2.347 10.222 10.222 0 0 0 3.852-3.808 9.813 9.813 0 0 0 1.3-4.95 9.495 9.495 0 0 0-1.359-4.808 10.554 10.554 0 0 0-4.107-3.826 13.634 13.634 0 0 0-6.383-1.6 8.962 8.962 0 0 0-4.4 1.007 4.524 4.524 0 0 0-2.347 4.283 4.386 4.386 0 0 0 1.729 3.309 6.19 6.19 0 0 0 3.764 1.165c.227 0 .463-.011.7-.031v-4.427h4.916v4.06c-.03 4.235-4.848 4.867-7.717 4.867a27.323 27.323 0 0 1-5.533-.618 21.492 21.492 0 0 1-8.116-3.336zm15.971-20.777a24.552 24.552 0 0 0-9.042 1.6 11.516 11.516 0 0 0-5.617 4.241 8.524 8.524 0 0 0-.69 7.128c.647 1.828 2.269 4.3 6.321 5.684a5.94 5.94 0 0 1-1.884-4.624 7.7 7.7 0 0 1 2.976-5.747c1.878-1.509 5.163-2.409 8.787-2.409a23.942 23.942 0 0 1 10.7 2.57v-6.244a32.226 32.226 0 0 0-11.551-2.2z" transform="translate(5009 -3194)" style="fill:#fff"/>
</svg>
