<svg xmlns="http://www.w3.org/2000/svg" width="271" height="191" viewBox="0 0 271 191">
    <path data-name="패스 2518" d="M39.077 5.305S57.1-1.338 74.614-1.338s34.522 6.643 34.522 6.643c.616.176 1.22.371 2.1.69 11.5 5.937 18.445 14.953 22.953 27.9 4.74 13.615 8.333 52.623 8.333 52.623 0 11.055-7.451 20.017-20.2 20.017H23.24C10.489 106.537 4 97.575 4 86.52l10.9-60.073c2.6-9.973 12.935-18.413 24.177-21.142z" transform="translate(47.419 84.462)" style="fill:#2b6ff0"/>
    <path data-name="패스 2519" d="M0 1.385 28.12 0l1.8 26.3s-7.209 7.109-17.3 6.979S0 29.186 0 29.186z" transform="translate(105.54 60.271)" style="fill:#f4c9b3"/>
    <path data-name="패스 2520" d="M0 1.432 27.936 0l1.786 22.918s-3 4.209-11.833 3.83A132.957 132.957 0 0 1 0 24.539z" transform="translate(105.54 60.271)" style="fill:#f5bdaa"/>
    <path data-name="패스 2521" d="m6.211 0 15.845 6.811C26.62 8.5 27 11.084 27 14.95l-.122 35.688c-.14 4.11-2.469 6.169-6.043 7.3l-13.263-7c-2.871-1.83-4.253-3.848-4.253-7.714L0 3.458C.428 1.873 4.513.083 6.211 0z" transform="rotate(-22.03 271.027 -48.563)" style="fill:#101010"/>
    <path data-name="패스 2522" d="M3.087.052 19.5 7.09c4.564 1.692 4.706 3.771 4.706 7.637L24 50.9c-.14 4.11-2.007 6.36-5.583 5.328L4.778 50.714C1.907 48.884.525 46.866.525 43L0 5.931C0 2.065 1.307-.392 3.087.052z" transform="rotate(-22.03 276.415 -46.637)" style="fill:#e6eaee"/>
    <path data-name="패스 2529" d="M-6775.721 18044.785c.285-.365-5.3 1.268-8.26 6.477s-2.7 10.859-1.8 16.236 5.184 13.309 13.8 18.162 28.09 4.639 40.429-3.832-12.38-28.789-12.38-28.789-32.073-7.889-31.789-8.254z" transform="translate(6814.977 -17897.94)" style="fill:#2b6ff0"/>
    <path d="M0 0s6.446 2.443 10.13 6.1" transform="rotate(33 -233.384 164.595)" style="stroke:#145ce3;stroke-width:1.5px;fill:none"/>
    <path d="M-6779.316 18045.043s.3-16.111.792-18.289 11.3-19.01 12.446-20.283 2.045-2.031 2.73-1.137a5.142 5.142 0 0 1 .633 4.324c-.455 1.9-6.318 13.082-6.176 13.826s.743 1.168 4.922.83 18.58-2.924 20.226-2.66 2.776 1.234 2.626 2.66-19.242 6.391-20.014 6.957-1.476.926-.687 1.1 16.7-4.529 19.649-4.611 3.69.7 4.032 1.871-4.215 4.092-6.29 4.631-16.164 4.99-16.164 4.99 14.134-3.424 16.164-3.68 4.562-.758 4.941.506-8.581 5.875-12.381 7.283-6.567 2.811-8.175 4.422-3.631 7.492-6.716 8.109-9.024.041-11.026-1.85-2.772-3.031-2.549-4.521 1.017-4.478 1.017-4.478z" transform="translate(6814.43 -17895.94)" style="fill:#f4c9b3"/>
    <g data-name="그룹 626053">
        <path data-name="패스 2635" d="M234.706 568.3s-.862 5.932-3.92 9.344-10.309 4.709-10.309 4.709-.112-2.092 2.1-5.051 6.43-7.451 8.556-8.166a16.845 16.845 0 0 1 3.573-.836z" transform="translate(-91.872 -419.729)" style="stroke-linecap:round;stroke:#145ce3;stroke-width:1.5px;fill:none"/>
        <path data-name="패스 2636" d="m234.957 568.211 28.1 12.146" transform="translate(-91.872 -419.729)" style="stroke-linecap:round;stroke:#145ce3;stroke-width:1.5px;fill:none"/>
        <path data-name="패스 2637" d="m220.293 582.545 23.61 19.84" transform="translate(-91.872 -419.729)" style="stroke-linecap:round;stroke:#145ce3;stroke-width:1.5px;fill:none"/>
    </g>
    <g>
        <path data-name="패스 2524" d="M-6688.6 18040.469s-5.177-5.4-6.9-9.838-2.341-11.412-12.485-17.248-23.431-4.723-25.632-4.35-4.674 1.438-1.625 3.475 11.033 1.879 14.3 3.281 3.709 2.047 3.709 2.047-4.532 1.893-6.452 4.559-1.9 7.3 0 8.236 2.743 0 2.743 0-1.03 3.592 0 4.639 3.709.754 3.709.754 2.653 3.291 4.4 3.783 4.309.422 4.331-.889.029-2.148-1.844-3.648 1.2-.885 2.358-1.369-.2 1.064.853 3 1.891 5.689 4.417 6.506a5.311 5.311 0 0 0 4 0l3.213 5.02s3.9-1.289 5.015-3.23a24.846 24.846 0 0 0 1.89-4.728z" transform="translate(6829.278 -17888.519)" style="fill:#f4c9b3"/>
        <path data-name="패스 2525" d="M-6720.984 18030.707s1.574-4.52 3.71-6.172a46.515 46.515 0 0 1 6.112-3.619s.849-1.232-1.442 0-4.725 2.15-6.7 4.723a7.527 7.527 0 0 0-1.68 5.068z" transform="translate(6829.278 -17888.519)" style="fill:#f5bdaa"/>
        <path data-name="패스 2526" d="M-6720.6 18031.691a7.993 7.993 0 0 1 .815-3.205 10.73 10.73 0 0 1 2.827-3.621 24.1 24.1 0 0 1 4.228-2.6 8.277 8.277 0 0 0 1.942-1.1s-.253-1.232-2.544 0a19.116 19.116 0 0 0-6.453 5.328 5.352 5.352 0 0 0-.815 5.198z" transform="translate(6832.633 -17884.17)" style="fill:#f5bdaa"/>
        <path data-name="패스 2527" d="m-6690.106 18002.82 2.879-.916a21.873 21.873 0 0 0-3.838-.838c-1.144-.02-2.6-.17-2.6-.17z" transform="translate(6802.278 -17873.519)" style="fill:#f5bdaa"/>
        <path data-name="패스 2528" d="M-6681.642 18018.916a13.2 13.2 0 0 1 3.361-1.1c.827.055-.089-.637-.955 1.795s-.372 3.35-.372 3.35a9.548 9.548 0 0 1-.761-2.049 4.336 4.336 0 0 1 0-1.715z" transform="translate(6802.278 -17873.519)" style="fill:#f5bdaa"/>
    </g>
    <g transform="translate(71.055)">
        <path data-name="패스 2475" d="M458.589-312.5c-15.945 0-27.346 14.97-27.346 35.013 0 .208.465 10.59 1.795 14.942 3.851 13.268 10.392 22.636 22.639 22.636s24.624-9.381 28.47-22.665c.253-.873.485-1.762.688-2.667a49.106 49.106 0 0 0 1.08-7.6q.086-1.361.1-2.749c0-.206.011-.411.011-.618.002-20.046-11.492-36.292-27.437-36.292z" transform="translate(-420.96 324.476)" style="fill:#f4c9b3"/>
        <rect data-name="사각형 925" width="7.952" height="1.59" rx=".505" transform="rotate(5.223 -422.128 437.544)"/>
        <ellipse data-name="타원 27" cx="2.651" cy="3.181" rx="2.651" ry="3.181" transform="translate(37.989 46.964)"/>
        <path data-name="패스 2480" d="M444.357-276.473s.839 1.66 4.444 1.66 7.436-2.694 7.436-2.694" transform="translate(-415.597 345.389)" style="opacity:.5;stroke:#eb8468;stroke-miterlimit:10;stroke-linecap:round;fill:none"/>
        <rect data-name="사각형 926" width="6.952" height="1.59" rx=".505" transform="rotate(174.777 10.677 21.49)"/>
        <ellipse data-name="타원 29" cx="2.679" cy="3.214" rx="2.679" ry="3.214" transform="translate(18.903 46.897)"/>
        <path data-name="패스 2482" d="M448.627-282.555a1.882 1.882 0 0 0-1.59 1.06 1.109 1.109 0 0 0 .112 1.251 2.4 2.4 0 0 0 1.7.547 3.615 3.615 0 0 0 1.9-.206" transform="translate(-421.061 341.712)" style="opacity:.5;stroke:#eb8468;stroke-miterlimit:10;stroke-linecap:round;fill:none"/>
        <path data-name="패스 2483" d="M3.192 6.786s5.489 5.489 16.469 0S49.284-3.94 59.682 4.226a10.861 10.861 0 0 1 3.523 8.689c2.745 1.374 8.285 4.419 9.44 10.182 2.125 11.916-3.56 29.057-3.56 29.057l-4.569 4.727s-.678-8.391-2.254-13.118a68.4 68.4 0 0 0-7.69-15.164s-26.637 14.9-41.734 3.92a64.134 64.134 0 0 0-2.049 8.988c-.67 7.338 0 8.678 0 8.678S-7.101 36.294 3.192 6.786z"/>
        <path data-name="패스 2484" d="M464.76-279.716c1.763.3 3.485-1.15 3.849-3.249s-.774-4.048-2.537-4.352a2.8 2.8 0 0 0-.3-.016 49.814 49.814 0 0 1-1.064 7.6c.016.005.033.014.052.017z" transform="translate(-400.811 338.963)" style="fill:#f4c9b3"/>
        <path data-name="패스 2487" d="M466.793-289.042a4.665 4.665 0 0 0-.677-.035q-.017 1.387-.1 2.749a2.816 2.816 0 0 1 .3.016c1.763.3 2.9 2.253 2.537 4.352s-2.086 3.553-3.849 3.249c-.019 0-.036-.013-.055-.016a45.19 45.19 0 0 1-.677 2.667c.088.02.169.063.26.079 3.03.523 5.99-1.976 6.614-5.582s-1.325-6.956-4.353-7.479z" transform="translate(-401.059 337.959)" style="fill:#f4c9b3"/>
        <path data-name="패스 2488" d="M464.76-279.716c1.763.3 3.485-1.15 3.849-3.249s-.774-4.048-2.537-4.352a2.8 2.8 0 0 0-.3-.016 49.814 49.814 0 0 1-1.064 7.6c.016.005.033.014.052.017z" transform="translate(-400.811 338.963)" style="fill:#eb8468;opacity:.5"/>
    </g>
    <g data-name="그룹 626054">
        <path data-name="패스 2506" d="M20.2 0c11.154 0 20.2 7.147 20.2 15.965 0 5.739-3.831 10.77-9.581 13.584.423 1.576 1.53 5.713 1.751 6.6.274 1.1-.4 1.084-.845.79a5478.68 5478.68 0 0 1-7.771-5.281 25.478 25.478 0 0 1-3.749.276C9.042 31.93 0 24.784 0 15.965S9.042 0 20.2 0" style="fill:#3942af" transform="translate(0 47.184)"/>
        <path data-name="사각형 1128" transform="translate(2.507 49.487)" style="fill:none" d="M0 0h35.377v32.5H0z"/>
        <path data-name="패스 2634" d="m9 16.426 4.388 4.388L20.7 13.5" transform="translate(5.482 46.17)" style="stroke:#fff;stroke-linejoin:round;stroke-width:2px;stroke-linecap:round;fill:none"/>
    </g>
    <g>
        <path data-name="사각형 459188" d="M16 0h81a16 16 0 0 1 16 16v27a16 16 0 0 1-16 16H0V16A16 16 0 0 1 16 0z" style="fill:#d5e0ff" transform="translate(158 12.055)"/>
        <text data-name="최초 1회" transform="translate(186 36.055)" style="font-family:AppleSDGothicNeo-Bold,Apple SD Gothic Neo;font-weight:700;font-size:16px"><tspan x="0" y="0">최초 1회</tspan></text>
        <text transform="translate(186 57.055)" style="font-family:AppleSDGothicNeo-Regular,Apple SD Gothic Neo;font-size:16px"><tspan x="0" y="0">본인인증</tspan></text>
    </g>
</svg>
