<svg xmlns="http://www.w3.org/2000/svg" width="32" height="32" viewBox="0 0 32 32">
    <g data-name="그룹 625997">
        <path data-name="사각형 460717" style="fill:#e22c24;opacity:.005" d="M0 0h26v26H0z" transform="translate(3 3)"/>
        <path data-name="다각형 1" d="M11.456 1.877a2 2 0 0 1 3.089 0L17.854 5.9a2 2 0 0 0 .859.608l4.877 1.78a2 2 0 0 1 .969 3l-2.828 4.164a2 2 0 0 0-.343 1.03l-.236 5.037a2 2 0 0 1-2.514 1.838l-5.121-1.368a2 2 0 0 0-1.032 0l-5.122 1.37a2 2 0 0 1-2.514-1.838l-.237-5.037a2 2 0 0 0-.343-1.03L1.442 11.29a2 2 0 0 1 .969-3l4.877-1.78a2 2 0 0 0 .858-.61z" transform="translate(3 4)" style="fill:#f5bf41"/>
        <path data-name="패스 2613" d="m12 8.4 2.1 2.1L17.6 7" transform="translate(1.55 9.25)" style="fill:none;stroke:#fff;stroke-linecap:round;stroke-linejoin:round;stroke-width:1.5px"/>
    </g>
</svg>
