<svg xmlns="http://www.w3.org/2000/svg" width="32" height="32" viewBox="0 0 32 32">
    <g data-name="그룹 1448" transform="translate(-23 -381)">
        <path data-name="패스 2509" d="M1-2h2v6H1a1 1 0 0 1-1-1v-4a1 1 0 0 1 1-1z" transform="translate(30 396)" style="fill:#223f76"/>
        <g data-name="사각형 1121" transform="translate(33.769 398)" style="stroke:#223f76;stroke-width:2px;fill:none">
            <rect width="7" height="7" rx="2" style="stroke:none"/>
            <rect x="1" y="1" width="5" height="5" rx="1" style="fill:none"/>
        </g>
        <path data-name="패스 2510" d="M-.057 5.041 14 0a1 1 0 0 1 1 1v14a1 1 0 0 1-1 1L-.057 10.97z" transform="translate(33 389)" style="fill:#3080f3"/>
        <rect data-name="사각형 1123" width="2" height="16" rx="1" transform="translate(46 389)" style="fill:#223f76"/>
    </g>
</svg>
