<svg xmlns="http://www.w3.org/2000/svg" width="96" height="96" viewBox="0 0 96 96">
    <g data-name="그룹 418">
        <path data-name="패스 41" d="M1547.409 1441.842c15.99.207 29.176 10.6 32.212 25.512a24.521 24.521 0 0 1 .551 6.706 12.038 12.038 0 0 1-12.187 10.954c-6.571.036-11.646-4.6-12.4-11.322-.6-5.39-3.578-8.287-8.464-8.238a8.035 8.035 0 0 0-8.219 8.475c.155 10.8 7.7 20.554 18.621 24.152 1.551.511 3.827 1.228 3.25 3.1-.666 2.158-2.94 1.192-4.458.657-12.4-4.367-19.657-13-21.291-26.14-.734-5.906 1.812-10.729 6.713-13.073a12.769 12.769 0 0 1 14.553 2.53 11.9 11.9 0 0 1 3.3 7.63c.435 5.278 4.286 8.658 9.088 8.171 5.114-.518 8.051-4.394 7.482-9.872a28.157 28.157 0 0 0-25.988-25.127c-15.079-.993-27.957 7.628-31.05 20.85-1.405 6.008-.694 11.935.966 17.792.227.8.472 1.6.775 2.375.517 1.322.544 2.555-.966 3.123-1.493.562-2.317-.327-2.8-1.689-2.1-5.974-3.275-12.115-2.542-18.433 1.902-16.412 15.933-28.352 32.854-28.133z" transform="translate(-1499.584 -1414.52)" style="fill:#fff"/>
        <path data-name="패스 42" d="M1818.352 1751.786q-.006-.253-.006-.506a21.862 21.862 0 0 1 3.481-12.008 22.216 22.216 0 0 1 8.115-7.419 25.117 25.117 0 0 1 9.055-2.766 22.581 22.581 0 0 1 24.446 17.611 10.429 10.429 0 0 1 .259 3.714 1.452 1.452 0 0 1-.163.451 1.976 1.976 0 0 1-3.037.5 2.244 2.244 0 0 1-.577-.716c-.434-.921-.179-2.14-.387-3.2-1.759-8.934-10.725-15.342-20.074-14.383-9.827 1.008-16.83 8.387-16.937 17.777-.1 8.792 3.169 16.237 8.932 22.707.555.622 1.138 1.22 1.727 1.81 1.013 1.016 1.549 2.3.21 3.163a3.148 3.148 0 0 1-2.958-.389 35.9 35.9 0 0 1-10.22-16.053 40.011 40.011 0 0 1-1.866-10.293z" transform="translate(-1793.376 -1691.984)" style="fill:#fff"/>
        <path data-name="패스 43" d="M1503.761 1172.146a1.979 1.979 0 0 1-.149 2.335 1.458 1.458 0 0 1-.559.445 2.871 2.871 0 0 1-2.091-.193c-.544-.27-.877-.975-1.29-1.5a39.052 39.052 0 0 0-13.925-11.116 40.348 40.348 0 0 0-8.215-2.867 41.447 41.447 0 0 0-17.2-.322 40.5 40.5 0 0 0-8.3 2.543 39.274 39.274 0 0 0-7.638 4.344 42.251 42.251 0 0 0-8.057 7.925 3.619 3.619 0 0 1-1.813 1.347c-1.912.5-2.607-1.521-1.92-2.951a15.774 15.774 0 0 1 2.394-3.171 41.178 41.178 0 0 1 3.081-3.209 41.619 41.619 0 0 1 6.945-5.241 43.308 43.308 0 0 1 7.753-3.67 45.213 45.213 0 0 1 8.277-2.1 46.295 46.295 0 0 1 16.985.516 44.635 44.635 0 0 1 8.139 2.616 42.7 42.7 0 0 1 7.523 4.189 41.367 41.367 0 0 1 6.623 5.762q1.334 1.437 2.528 3c.322.408.605.842.909 1.318z" transform="translate(-1420.354 -1136.509)" style="fill:#fff"/>
        <path data-name="패스 44" d="M1776.894 866.037a50.152 50.152 0 0 1 16.37 4.1 67.48 67.48 0 0 1 2.764 1.3c1.4.7 2.584 1.6 1.663 3.267-.857 1.555-2.2.98-3.485.347q-21.54-10.633-43.042.1c-1.244.619-2.492.962-3.264-.444-.824-1.5.074-2.452 1.439-3.162a51.793 51.793 0 0 1 21.808-5.629 50 50 0 0 1 5.747.121z" transform="translate(-1724.992 -857.889)" style="fill:#fff"/>
        <path data-name="패스 45" d="M2455.886 2339.715h-.151c-12.452-.086-21.945-8.8-22.4-19.962-.057-1.411-.038-2.908 1.712-3.077 1.921-.185 2.153 1.352 2.309 2.858 1.049 10.186 8.678 16.685 18.895 16.121a10.721 10.721 0 0 1 2.973-.158 2.551 2.551 0 0 1 .52.194 1.976 1.976 0 0 1 .565 3.121 1.792 1.792 0 0 1-.706.493 13.493 13.493 0 0 1-3.717.41z" transform="translate(-2387.721 -2259.952)" style="fill:#fff"/>
    </g>
</svg>
