<svg xmlns="http://www.w3.org/2000/svg" width="32" height="32" viewBox="0 0 32 32">
    <defs>
        <linearGradient id="vpp8qigdba" x1=".201" x2=".785" y2="1.087" gradientUnits="objectBoundingBox">
            <stop offset="0" stop-color="#2ba4f0"/>
            <stop offset=".625" stop-color="#3978f0"/>
            <stop offset="1" stop-color="#502df0"/>
        </linearGradient>
    </defs>
    <path data-name="합치기 1" d="M-746 638a2 2 0 0 1-2-2v-11a2 2 0 0 1 2-2h3.5l.5-2c.146-.571.447-1 1-1h6c.553 0 .881.5 1 1l.5 2h3.5a2 2 0 0 1 2 2v11a2 2 0 0 1-2 2z" transform="translate(754 -613)" style="fill:url(#vpp8qigdba)"/>
    <circle data-name="타원 33" cx="4" cy="4" r="4" transform="translate(12 13)" style="fill:#fff"/>
</svg>
