<svg xmlns="http://www.w3.org/2000/svg" width="40" height="40" viewBox="0 0 40 40">
    <defs>
        <clipPath id="ubu0ogfaka">
            <path data-name="사각형 460725" style="fill:none" d="M0 0h32v32H0z"/>
        </clipPath>
    </defs>
    <g data-name="그룹 625708">
        <path data-name="패스 2213" d="m0 12 16 10 16-10L16 2z" style="fill:#999db2" transform="translate(4 4)"/>
        <g data-name="그룹 625709">
            <g data-name="그룹 625708" style="clip-path:url(#ubu0ogfaka)" transform="translate(4 4)">
                <path data-name="패스 2214" d="M25 22H7a3 3 0 0 1-3-3V3a3 3 0 0 1 3-3h18a3 3 0 0 1 3 3v16a3 3 0 0 1-3 3" style="fill:#49a1f8"/>
                <path data-name="패스 2215" d="M16 22 0 12v18a2.023 2.023 0 0 0 2 2h28a1.981 1.981 0 0 0 1.263-.461z" style="fill:#e8e8e8"/>
                <path data-name="패스 2216" d="m16 22 15.263 9.539A1.988 1.988 0 0 0 32 30V12z" style="fill:#c5cfe0"/>
            </g>
            <g data-name="그룹 626073" transform="rotate(45 11.579 16.738)">
                <rect data-name="사각형 460946" width="1.5" height="10" rx=".75" transform="translate(14.317 3.317)" style="fill:#fff"/>
                <rect data-name="사각형 460949" width="1.5" height="10" rx=".75" transform="rotate(90 6.25 13.817)" style="fill:#fff"/>
            </g>
        </g>
    </g>
</svg>
