<svg xmlns="http://www.w3.org/2000/svg" width="40" height="40" viewBox="0 0 40 40">
    <defs>
        <clipPath id="qugkhhsh4a">
            <path data-name="사각형 460726" style="fill:none" d="M0 0h30v34H0z"/>
        </clipPath>
    </defs>
    <g data-name="그룹 625710" style="clip-path:url(#qugkhhsh4a)" transform="translate(5 3)">
        <path data-name="패스 2218" d="M30 20.654C30 28.087 20.25 34 17 34S4 28.087 4 20.654V9.336a3.044 3.044 0 0 1 1.823-2.808L15.86 2.234a2.891 2.891 0 0 1 2.279 0l10.037 4.294A3.043 3.043 0 0 1 30 9.336z" style="fill:#c0b5ff"/>
        <path data-name="패스 2219" d="M26 18.654C26 26.087 16.25 32 13 32S0 26.087 0 18.654V7.336a3.044 3.044 0 0 1 1.823-2.808L11.86.234a2.891 2.891 0 0 1 2.279 0l10.037 4.294A3.043 3.043 0 0 1 26 7.336z" style="fill:#7041e5"/>
        <path data-name="패스 2220" d="m9 15.5 3 3 5-5" style="stroke:#fff;stroke-linecap:round;stroke-linejoin:round;stroke-width:2px;fill:none"/>
    </g>
</svg>
