<svg xmlns="http://www.w3.org/2000/svg" xmlns:xlink="http://www.w3.org/1999/xlink" width="32" height="32" viewBox="0 0 32 32">
  <defs>
    <style>
      .cls-1, .cls-5 {
        fill: none;
      }

      .cls-2 {
        fill: rgba(255,191,191,0.5);
        opacity: 0;
      }

      .cls-3 {
        clip-path: url(#clip-path);
      }

      .cls-4 {
        fill: #ebebf5;
      }

      .cls-5 {
        stroke: #999db2;
        stroke-linecap: round;
        stroke-miterlimit: 10;
        stroke-width: 2px;
      }

      .cls-6 {
        fill: #999db2;
      }

      .cls-7 {
        fill: #d93772;
      }

      .cls-8 {
        fill: #ea5692;
      }
    </style>
    <clipPath id="clip-path">
      <rect id="사각형_460717" data-name="사각형 460717" class="cls-1" width="26" height="26"/>
    </clipPath>
  </defs>
  <g id="ico_sign" transform="translate(-40 -1491)">
    <rect id="area" class="cls-2" width="32" height="32" transform="translate(40 1491)"/>
    <g id="그룹_625694" data-name="그룹 625694" transform="translate(43 1494)">
      <g id="그룹_625693" data-name="그룹 625693" class="cls-3">
        <path id="패스_2189" data-name="패스 2189" class="cls-4" d="M15.061,26H3a3,3,0,0,1-3-3V3A3,3,0,0,1,3,0H15.061a3,3,0,0,1,3,3V23a3,3,0,0,1-3,3"/>
        <line id="선_8" data-name="선 8" class="cls-5" x2="4" transform="translate(7.031 4)"/>
        <path id="패스_2190" data-name="패스 2190" class="cls-6" d="M9.282,23a1.5,1.5,0,1,1,1.5-1.5,1.5,1.5,0,0,1-1.5,1.5"/>
        <path id="패스_2191" data-name="패스 2191" class="cls-7" d="M25.827,6.26A2.491,2.491,0,0,1,25.069,7.3L23.125,8.859,20,4.971,21.94,3.406A2.494,2.494,0,0,1,25.827,6.26"/>
        <path id="패스_2192" data-name="패스 2192" class="cls-8" d="M20,4.971,16.888,7.466,9.8,13.163a.942.942,0,0,0-.264.339L8.087,16.675a.935.935,0,0,0,1.048,1.3l3.411-.741a.939.939,0,0,0,.387-.185L23.125,8.859Z"/>
      </g>
    </g>
  </g>
</svg>
