<svg xmlns="http://www.w3.org/2000/svg" width="56" height="56" viewBox="0 0 56 56">
    <defs>
        <clipPath id="j2dqnw82sa">
            <path data-name="사각형 1128" style="fill:none" d="M0 0h22.733v20.885H0z"/>
        </clipPath>
    </defs>
    <g data-name="그룹 626099" transform="translate(0 -104.961)">
        <circle data-name="타원 581" cx="25" cy="25" r="25" transform="translate(3 107.961)" style="fill:#ffe400"/>
        <g data-name="그룹 1438">
            <g data-name="그룹 1437" transform="translate(17 123.961)" style="clip-path:url(#j2dqnw82sa)">
                <path data-name="패스 2506" d="M11.367 0C5.089 0 0 4.023 0 8.986c0 3.23 2.156 6.061 5.392 7.646-.238.887-.861 3.215-.986 3.713-.154.618.226.61.476.445.2-.13 3.115-2.116 4.374-2.972a14.34 14.34 0 0 0 2.11.155c6.278 0 11.367-4.022 11.367-8.986S17.644 0 11.367 0" style="fill:#3b1f1e"/>
            </g>
        </g>
    </g>
</svg>
