<svg xmlns="http://www.w3.org/2000/svg" xmlns:xlink="http://www.w3.org/1999/xlink" width="40" height="40" viewBox="0 0 40 40">
  <defs>
    <style>
      .cls-1 {
        fill: #fff;
      }

      .cls-2 {
        fill: #2b6ff0;
      }

      .cls-3 {
        clip-path: url(#clip-path);
      }
    </style>
    <clipPath id="clip-path">
      <rect id="area" class="cls-1" width="18" height="18" transform="translate(76 227)"/>
    </clipPath>
  </defs>
  <g id="ico_tel" transform="translate(-300 -790)">
    <path id="패스_2543" data-name="패스 2543" class="cls-2" d="M20,0A20,20,0,1,1,0,20,20,20,0,0,1,20,0Z" transform="translate(300 790)"/>
    <g id="마스크_그룹_21" data-name="마스크 그룹 21" class="cls-3" transform="translate(235 574)">
      <path id="패스_2541" data-name="패스 2541" class="cls-1" d="M.145,6.553A4.19,4.19,0,0,1,1.3,2.311C2.822.868,5.646-.041,9.141,0s6.257,1.051,7.65,2.31,1.652,1.982,1.569,4.038-4.893,1.541-5.532.793-.035-2.836-.322-3.106a9.592,9.592,0,0,0-3.366-.4c-1.139.022-2.815-.014-3.3.4S6.032,6.4,5.561,6.946,4.489,7.694,3.2,7.78.381,7.766.145,6.553Z" transform="translate(87.993 246.51) rotate(-135)"/>
    </g>
  </g>
</svg>
