<svg xmlns="http://www.w3.org/2000/svg" width="96" height="96" viewBox="0 0 96 96">
    <path data-name="패스 37" d="M4.114 21.943v-8.914a8.775 8.775 0 0 1 8.914-8.914h8.914a2.057 2.057 0 0 0 0-4.114h-8.913A12.888 12.888 0 0 0 0 13.029v8.914a2.057 2.057 0 0 0 4.114 0z" style="fill:#fff" transform="translate(8 8)"/>
    <g data-name="Corner">
        <path data-name="패스 38" d="M4.114-21.943v8.914a8.775 8.775 0 0 0 8.914 8.914h8.914A2.057 2.057 0 0 1 24-2.057 2.057 2.057 0 0 1 21.943 0h-8.914A12.888 12.888 0 0 1 0-13.029v-8.914A2.057 2.057 0 0 1 2.057-24a2.057 2.057 0 0 1 2.057 2.057z" style="fill:#fff" transform="rotate(180 44 4)"/>
    </g>
    <g data-name="Corner">
        <path data-name="패스 39" d="M4.114-21.943v8.914a8.775 8.775 0 0 0 8.914 8.914h8.914A2.057 2.057 0 0 1 24-2.057 2.057 2.057 0 0 1 21.943 0h-8.914A12.888 12.888 0 0 1 0-13.029v-8.914A2.057 2.057 0 0 1 2.057-24a2.057 2.057 0 0 1 2.057 2.057z" style="fill:#fff" transform="translate(8 88)"/>
    </g>
    <g data-name="Corner">
        <path data-name="패스 40" d="M4.114 21.943v-8.914a8.775 8.775 0 0 1 8.914-8.914h8.914a2.057 2.057 0 0 0 0-4.114h-8.913A12.888 12.888 0 0 0 0 13.029v8.914a2.057 2.057 0 0 0 4.114 0z" style="fill:#fff" transform="rotate(180 44 44)"/>
    </g>
    <path d="M0 2.143V7.86A2.075 2.075 0 0 0 2 10a2.075 2.075 0 0 0 2-2.14V2.143A2.075 2.075 0 0 0 2 0a2.075 2.075 0 0 0-2 2.143z" transform="translate(29.754 36.07)" style="fill:#fff"/>
    <path data-name="Path" d="M0 2.143V7.86A2.075 2.075 0 0 0 2 10a2.075 2.075 0 0 0 2-2.14V2.143A2.075 2.075 0 0 0 2 0a2.075 2.075 0 0 0-2 2.143z" transform="translate(62.737 36.07)" style="fill:#fff"/>
    <path d="M25.932 59.083A19.964 19.964 0 0 0 40 64.561a19.964 19.964 0 0 0 14.068-5.478A2.105 2.105 0 1 0 51.2 56 15.76 15.76 0 0 1 40 60.351 15.76 15.76 0 0 1 28.8 56a2.105 2.105 0 0 0-2.873 3.078zM40 30.175v14.737a1.237 1.237 0 0 1-1.409 1.4h-1.4a2.105 2.105 0 0 0 0 4.211h1.4a5.414 5.414 0 0 0 5.619-5.614V30.175a2.105 2.105 0 0 0-4.211 0z" transform="translate(8 8)" style="fill:#fff"/>
</svg>
