<svg xmlns="http://www.w3.org/2000/svg" width="24" height="24" viewBox="0 0 24 24">
    <defs>
        <clipPath id="5xbj7j1o9a">
            <path style="fill:rgba(255,191,191,.5);opacity:0" d="M0 0h17.737v18H0z"/>
        </clipPath>
    </defs>
    <g data-name="그룹 1475" transform="translate(3 3)">
        <path data-name="패스 2508" d="m0-1.2 6.911-4.116L14-1.2V8a1 1 0 0 1-1 1H1a1 1 0 0 1-1-1z" transform="translate(2 8)" style="fill:#8faffa"/>
        <rect data-name="사각형 459197" width="2" height="11" rx="1" transform="rotate(-60 6.003 -5.165)" style="fill:#3968c4"/>
        <g data-name="마스크 그룹 20" style="clip-path:url(#5xbj7j1o9a)">
            <path data-name="패스 2509" d="M1 .006A1.008 1.008 0 0 1 2 1l.057 8.9a.978.978 0 0 1-.99.983 1.008 1.008 0 0 1-1-1L.006.989A.978.978 0 0 1 1 .006z" transform="rotate(60 3.928 8.571)" style="fill:#3968c4"/>
            <g data-name="그룹 527">
                <path data-name="사각형 283" transform="rotate(90 2 10)" style="fill:#fff" d="M0 0h6v6H0z"/>
                <g data-name="사각형 1035" style="stroke:#8faffa;fill:none">
                    <path style="stroke:none" d="M0 0h1.5v6H0z" transform="rotate(90 .875 11.125)"/>
                    <path style="fill:none" d="M.5.5H1v5H.5z" transform="rotate(90 .875 11.125)"/>
                </g>
                <g data-name="사각형 1036" style="stroke:#8faffa;fill:none">
                    <path style="stroke:none" d="M0 0h1.5v6H0z" transform="rotate(180 4.875 7)"/>
                    <path style="fill:none" d="M.5.5H1v5H.5z" transform="rotate(180 4.875 7)"/>
                </g>
            </g>
        </g>
    </g>
</svg>
