<svg xmlns="http://www.w3.org/2000/svg" width="15.004" height="16.076" viewBox="0 0 15.004 16.076">
    <g data-name="그룹 1475">
        <g data-name="그룹 625728">
            <path data-name="사각형 460733" d="M2 0h5a2 2 0 0 1 2 2v9H0V2a2 2 0 0 1 2-2z" transform="translate(6.004 5.076)" style="fill:#80c1f0"/>
            <path data-name="사각형 460734" transform="translate(8.004 13.076)" style="fill:#fff" d="M0 0h5v1H0z"/>
            <path data-name="사각형 460735" transform="translate(8.004 10.076)" style="fill:#fff" d="M0 0h5v1H0z"/>
            <path data-name="사각형 460736" transform="translate(8.004 7.076)" style="fill:#fff" d="M0 0h5v1H0z"/>
        </g>
        <g data-name="그룹 625727">
            <path data-name="패스 2597" d="M1.823 2.184C3.829 1.278 7 0 7 0c.933-.407 2 .9 2 2v14H0V4c0-1.1-.182-.91 1.823-1.816z" transform="translate(.004 .076)" style="fill:#31a8ff"/>
            <path data-name="사각형 460734" transform="translate(2.004 13.076)" style="fill:#fff" d="M0 0h5v1H0z"/>
            <path data-name="사각형 460735" transform="translate(2.004 10.076)" style="fill:#fff" d="M0 0h5v1H0z"/>
            <path data-name="사각형 460736" transform="translate(2.004 7.076)" style="fill:#fff" d="M0 0h5v1H0z"/>
            <path data-name="사각형 460737" transform="translate(2.004 4.076)" style="fill:#fff" d="M0 0h5v1H0z"/>
        </g>
    </g>
</svg>
