<svg xmlns="http://www.w3.org/2000/svg" width="24" height="24" viewBox="0 0 24 24">
    <g transform="translate(1 1)">
        <path data-name="패스 2464" d="M16.351 9.754 14.841 8.6c-.358-.207-.262-.946 0-1.208l1.512-1.151a.708.708 0 0 0 .179-.919l-1.57-2.646a.75.75 0 0 0-.908-.318l-1.782.7a.9.9 0 0 1-1.069-.6L10.93.614A.721.721 0 0 0 10.2 0H7.055a.72.72 0 0 0-.725.607l-.271 1.848a.8.8 0 0 1-1.068.605L3.2 2.361a.737.737 0 0 0-.9.313L.73 5.324a.7.7 0 0 0 .178.923L2.418 7.4c.245.245.327 1.018 0 1.208L.9 9.755a.709.709 0 0 0-.178.919L2.3 13.32a.751.751 0 0 0 .908.318l1.782-.7a.832.832 0 0 1 1.07.6l.271 1.84a.721.721 0 0 0 .724.622H10.2a.72.72 0 0 0 .725-.607l.272-1.847a.782.782 0 0 1 1.068-.605l1.787.7a.739.739 0 0 0 .9-.313l1.579-2.659a.708.708 0 0 0-.18-.915z" transform="translate(2.371 3)" style="stroke-linecap:round;fill:none;stroke:#fff;stroke-width:2px"/>
        <circle data-name="타원 101" cx="3" cy="3" r="3" transform="translate(8 8)" style="fill:none;stroke:#fff;stroke-width:2px"/>
    </g>
</svg>
