<svg xmlns="http://www.w3.org/2000/svg" width="40" height="40" viewBox="0 0 40 40">
    <defs>
        <clipPath id="qmnon91tga">
            <path data-name="사각형 460723" style="fill:none" d="M0 0h34v32H0z"/>
        </clipPath>
    </defs>
    <g data-name="그룹 625705" style="clip-path:url(#qmnon91tga)" transform="translate(3 4)">
        <path data-name="패스 2204" d="M22 7a7 7 0 1 1-7-7 7 7 0 0 1 7 7" style="fill:#479df0"/>
        <path data-name="패스 2205" d="M15.035 15.5C7.332 15.5.972 20.816.014 27.7a1.682 1.682 0 0 0 1.766 1.8h26.048a2.065 2.065 0 0 0 2.142-2.338C28.765 20.543 22.538 15.5 15.035 15.5" style="fill:#479df0"/>
        <path data-name="패스 2206" d="M34 25a7 7 0 1 1-7-7 7 7 0 0 1 7 7" style="fill:#ffbc00"/>
        <path data-name="패스 2207" d="M27 26a1 1 0 0 1-1-1v-3a1 1 0 0 1 2 0v3a1 1 0 0 1-1 1" style="fill:#fff"/>
        <path data-name="패스 2208" d="M28 28a1 1 0 1 1-1-1 1 1 0 0 1 1 1" style="fill:#fff"/>
    </g>
</svg>
