<svg xmlns="http://www.w3.org/2000/svg" width="18" height="18" viewBox="0 0 18 18">
    <defs>
        <clipPath id="ln7kj0qbca">
            <path transform="translate(76 227)" style="fill:rgba(255,191,191,.5)" d="M0 0h18v18H0z"/>
        </clipPath>
    </defs>
    <g data-name="마스크 그룹 21" style="clip-path:url(#ln7kj0qbca)" transform="translate(-76 -227)">
        <path data-name="패스 2541" d="M.145 6.553A4.19 4.19 0 0 1 1.3 2.311C2.822.868 5.646-.041 9.141 0s6.257 1.051 7.65 2.31 1.652 1.982 1.569 4.038-4.893 1.541-5.532.793-.035-2.836-.322-3.106a9.592 9.592 0 0 0-3.366-.4c-1.139.022-2.815-.014-3.3.4s.192 2.365-.279 2.911-1.072.748-2.361.834S.381 7.766.145 6.553z" transform="rotate(-135 95.05 105.031)" style="fill:#2dc49f"/>
    </g>
</svg>
