<svg xmlns="http://www.w3.org/2000/svg" width="32" height="32" viewBox="0 0 32 32">
  <defs>
    <style>
      .cls-1 {
        fill: #fda1a1;
        opacity: 0;
      }

      .cls-2, .cls-5, .cls-6, .cls-8 {
        fill: none;
      }

      .cls-2 {
        stroke: #707070;
        opacity: 0.001;
      }

      .cls-3 {
        fill: #9debda;
      }

      .cls-4 {
        fill: #18b5ef;
      }

      .cls-5 {
        stroke: #fff;
      }

      .cls-5, .cls-6 {
        stroke-linecap: round;
        stroke-linejoin: round;
        stroke-width: 1.5px;
      }

      .cls-6 {
        stroke: #0fa17a;
      }

      .cls-7 {
        stroke: none;
      }
    </style>
  </defs>
  <g id="ico_data" transform="translate(0 2)">
    <rect id="bg" class="cls-1" width="32" height="32" transform="translate(0 -2)"/>
    <g id="bg-2" data-name="bg" class="cls-2" transform="translate(3 1)">
      <rect class="cls-7" width="26" height="26"/>
      <rect class="cls-8" x="0.5" y="0.5" width="25" height="25"/>
    </g>
    <rect id="사각형_460970" data-name="사각형 460970" class="cls-3" width="24" height="23" rx="2" transform="translate(3 1)"/>
    <g id="_" data-name="=" transform="translate(15 12)">
      <path id="패스_2601" data-name="패스 2601" class="cls-4" d="M18,7a7,7,0,1,1-7-7,7,7,0,0,1,7,7" transform="translate(-4)"/>
      <line id="선_195" data-name="선 195" class="cls-5" x2="6" transform="translate(4 5.5)"/>
      <line id="선_196" data-name="선 196" class="cls-5" x2="6" transform="translate(4 8.5)"/>
    </g>
    <g id="_2" data-name="+" transform="translate(0 0.5)">
      <line id="선_197" data-name="선 197" class="cls-6" x2="6" transform="translate(7 7.5)"/>
      <line id="선_198" data-name="선 198" class="cls-6" x2="6" transform="translate(10 4.5) rotate(90)"/>
    </g>
    <g id="_3" data-name="+" transform="translate(10 0.5)">
      <line id="선_197-2" data-name="선 197" class="cls-6" x2="6" transform="translate(7 7.5)"/>
    </g>
    <g id="_4" data-name="+" transform="translate(8.232 5.626) rotate(45)">
      <line id="선_197-3" data-name="선 197" class="cls-6" x2="6" transform="translate(7 7.5)"/>
      <line id="선_198-2" data-name="선 198" class="cls-6" x2="6" transform="translate(10 4.5) rotate(90)"/>
    </g>
  </g>
</svg>
