<svg xmlns="http://www.w3.org/2000/svg" width="32" height="32" viewBox="0 0 32 32">
  <defs>
    <style>
      .cls-1 {
        fill: rgba(255,191,191,0.5);
        opacity: 0;
      }

      .cls-2 {
        fill: #479df0;
      }

      .cls-3 {
        fill: #dce6ff;
      }

      .cls-4 {
        fill: #707dff;
      }
    </style>
  </defs>
  <g id="ico_article" transform="translate(-40 -1487)">
    <rect id="area" class="cls-1" width="32" height="32" transform="translate(40 1487)"/>
    <g id="그룹_625706" data-name="그룹 625706" transform="translate(43 1487)">
      <path id="패스_2204" data-name="패스 2204" class="cls-2" d="M18.94,5.47A5.47,5.47,0,1,1,13.47,0a5.47,5.47,0,0,1,5.47,5.47" transform="translate(-2.033 3.497)"/>
      <path id="패스_2205" data-name="패스 2205" class="cls-2" d="M11.749,15.5C5.729,15.5.76,19.654.011,25.03a1.315,1.315,0,0,0,1.38,1.41H21.745a1.614,1.614,0,0,0,1.674-1.827c-.942-5.172-5.808-9.113-11.671-9.113" transform="translate(-0.284 0.109)"/>
      <rect id="사각형_460966" data-name="사각형 460966" class="cls-3" width="14" height="14" rx="3" transform="translate(13 16)"/>
      <rect id="사각형_460967" data-name="사각형 460967" class="cls-4" width="2" height="5" transform="translate(19 16)"/>
    </g>
  </g>
</svg>
