<svg xmlns="http://www.w3.org/2000/svg" width="32" height="32" viewBox="0 0 32 32">
  <defs>
    <style>
      .cls-1 {
        fill: rgba(255,191,191,0.5);
      }

      .cls-1, .cls-2 {
        opacity: 0;
      }

      .cls-2, .cls-4 {
        fill: #fff;
      }

      .cls-3 {
        fill: #7041e5;
      }

      .cls-5 {
        fill: #c0b5ff;
      }
    </style>
  </defs>
  <g id="ico_easy" transform="translate(-40 -1487)">
    <rect id="area" class="cls-1" width="32" height="32" transform="translate(40 1487)"/>
    <g id="ico_pw" transform="translate(35 1480.705)">
      <rect id="사각형_460836" data-name="사각형 460836" class="cls-2" width="26" height="26" transform="translate(8 9.295)"/>
      <rect id="사각형_891" data-name="사각형 891" class="cls-3" width="23" height="14" rx="2" transform="translate(8 13.295)"/>
      <path id="패스_2605" data-name="패스 2605" class="cls-4" d="M1.306-5.059.511-5.675Q.89-6.1,1.3-6.49l.205-.2q-.132-.021-.752-.174-.447-.11-.589-.163l.31-.926a8.054,8.054,0,0,1,1.231.615,10.012,10.012,0,0,1-.126-1.4h.936a12.358,12.358,0,0,1-.142,1.41q.105-.042.452-.205Q3.3-7.747,3.7-7.9l.279.952q-.584.132-1.352.258l.631.71q.189.216.3.352l-.8.531-.71-1.173Q1.721-5.7,1.306-5.059Zm6.186,0L6.7-5.675q.379-.426.789-.815l.205-.2q-.132-.021-.752-.174-.447-.11-.589-.163l.31-.926a8.054,8.054,0,0,1,1.231.615,10.012,10.012,0,0,1-.126-1.4H8.7a12.358,12.358,0,0,1-.142,1.41q.105-.042.452-.205.473-.216.873-.368l.279.952q-.584.132-1.352.258l.631.71q.189.216.3.352l-.8.531-.71-1.173Q7.907-5.7,7.492-5.059Z" transform="translate(11.836 27.031)"/>
    </g>
    <path id="패스_2219" data-name="패스 2219" class="cls-5" d="M12,8.744C12,12.228,7.5,15,6,15S0,12.228,0,8.744V3.439A1.428,1.428,0,0,1,.841,2.122L5.474.11a1.316,1.316,0,0,1,1.052,0l4.632,2.013A1.427,1.427,0,0,1,12,3.439Z" transform="translate(57 1499)"/>
  </g>
</svg>
