<svg xmlns="http://www.w3.org/2000/svg" width="32" height="32" viewBox="0 0 32 32">
  <defs>
    <style>
      .cls-1 {
        fill: rgba(255,191,191,0.5);
        opacity: 0;
      }

      .cls-2 {
        fill: #f5bf41;
      }

      .cls-3 {
        fill: #fde2a2;
      }

      .cls-4, .cls-5 {
        fill: none;
      }

      .cls-4 {
        stroke: #fff;
        stroke-linecap: round;
        stroke-linejoin: round;
        stroke-width: 1.5px;
      }
    </style>
  </defs>
  <g id="ico_view" transform="translate(-40 -1487)">
    <rect id="area" class="cls-1" width="32" height="32" transform="translate(40 1487)"/>
    <g id="그룹_626005" data-name="그룹 626005">
      <path id="패스_2189" data-name="패스 2189" class="cls-2" d="M15.842,26H3.155A3.081,3.081,0,0,1,0,23V3A3.081,3.081,0,0,1,3.155,0H15.842A3.081,3.081,0,0,1,19,3V23a3.081,3.081,0,0,1-3.157,3" transform="translate(43 1490)"/>
      <rect id="사각형_460837" data-name="사각형 460837" class="cls-3" width="18" height="12" rx="2" transform="translate(49 1498)"/>
      <g id="그룹_625998" data-name="그룹 625998" transform="translate(-40 -2)">
        <path id="패스_2602" data-name="패스 2602" class="cls-4" d="M12,8.852l2.1,2.779L17.6,7" transform="translate(83.55 1496.25)"/>
      </g>
      <rect id="사각형_460717" data-name="사각형 460717" class="cls-5" width="26" height="26" transform="translate(43 1490)"/>
    </g>
  </g>
</svg>
