<svg xmlns="http://www.w3.org/2000/svg" width="40" height="40" viewBox="0 0 40 40">
    <g transform="translate(-40.373 -1473)">
        <g data-name="그룹 626074">
            <path data-name="사각형 460951" d="M3 0h19a3 3 0 0 1 3 3v29H3a3 3 0 0 1-3-3V3a3 3 0 0 1 3-3z" transform="translate(43.373 1476)" style="fill:#c5cfe0"/>
        </g>
        <g data-name="그룹 626075">
            <path data-name="사각형 460956" transform="translate(50.373 1482)" style="fill:#fff" d="M0 0h4v4H0z"/>
        </g>
        <g data-name="그룹 626080">
            <path data-name="사각형 460956" transform="translate(50.373 1488)" style="fill:#fff" d="M0 0h4v4H0z"/>
        </g>
        <g data-name="그룹 626082">
            <path data-name="사각형 460956" transform="translate(50.373 1494)" style="fill:#fff" d="M0 0h4v4H0z"/>
        </g>
        <g data-name="그룹 626078">
            <path data-name="사각형 460956" transform="translate(57.373 1482)" style="fill:#fff" d="M0 0h4v4H0z"/>
        </g>
        <g data-name="그룹 626079">
            <path data-name="사각형 460956" transform="translate(57.373 1488)" style="fill:#fff" d="M0 0h4v4H0z"/>
        </g>
        <g data-name="그룹 626081">
            <path data-name="사각형 460956" transform="translate(57.373 1494)" style="fill:#fff" d="M0 0h4v4H0z"/>
        </g>
        <circle data-name="타원 52" cx="9" cy="9" r="9" transform="translate(60.373 1491)" style="fill:#f5c44f"/>
        <path data-name="패스 2203" d="m10.5 9 1.887 5 1.887-4.167L16.16 14l1.887-5" transform="translate(54.914 1489.142)" style="fill:none;stroke:#fff;stroke-linecap:round;stroke-linejoin:round;stroke-width:1.5px"/>
        <path data-name="선 9" transform="translate(64.335 1499.967)" style="fill:none;stroke:#fff;stroke-linecap:round;stroke-linejoin:round;stroke-width:1.5px" d="M0 0h1.44"/>
        <path data-name="선 10" transform="translate(72.895 1499.967)" style="fill:none;stroke:#fff;stroke-linecap:round;stroke-linejoin:round;stroke-width:1.5px" d="M0 0h1.44"/>
    </g>
</svg>
