<svg xmlns="http://www.w3.org/2000/svg" width="24" height="24" viewBox="0 0 24 24">
    <defs>
        <clipPath id="huxem15c0a">
            <path data-name="사각형 462512" transform="translate(2)" style="stroke:#707070;fill:#fff" d="M0 0h19v5H0z"/>
        </clipPath>
    </defs>
    <g data-name="마스크 그룹 6324" style="clip-path:url(#huxem15c0a)">
        <g data-name="그룹 630926">
            <g data-name="패스 2549" style="fill:none">
                <path d="M2.75 0C5.373 0 9.5 2.015 9.5 4.5A4.63 4.63 0 0 1 4.75 9 4.63 4.63 0 0 1 0 4.5C0 2.015.127 0 2.75 0z" style="stroke:none" transform="translate(3)"/>
                <path d="M2.75 1.5c-.8 0-.899.225-.987.424C1.52 2.474 1.5 3.498 1.5 4.5c0 1.654 1.458 3 3.25 3S8 6.154 8 4.5c0-.547-.652-1.29-1.662-1.895C5.235 1.944 3.793 1.5 2.75 1.5m0-1.5C5.373 0 9.5 2.015 9.5 4.5S7.373 9 4.75 9 0 6.985 0 4.5.127 0 2.75 0z" style="fill:#fff;stroke:none" transform="translate(3)"/>
            </g>
            <g data-name="패스 2548" style="fill:none">
                <path d="M6.75 0C9.373 0 9.5 2.015 9.5 4.5A4.63 4.63 0 0 1 4.75 9 4.63 4.63 0 0 1 0 4.5C0 2.015 4.127 0 6.75 0z" style="stroke:none" transform="translate(11)"/>
                <path d="M6.75 1.5c-1.043 0-2.485.444-3.588 1.105C2.152 3.21 1.5 3.953 1.5 4.5c0 1.654 1.458 3 3.25 3S8 6.154 8 4.5c0-1.002-.02-2.026-.263-2.576-.088-.199-.188-.424-.987-.424m0-1.5C9.373 0 9.5 2.015 9.5 4.5S7.373 9 4.75 9 0 6.985 0 4.5 4.127 0 6.75 0z" style="fill:#fff;stroke:none" transform="translate(11)"/>
            </g>
        </g>
    </g>
    <g data-name="사각형 460831" transform="translate(0 5)" style="stroke:#fff;stroke-width:1.5px;fill:none">
        <rect width="24" height="19" rx="2" style="stroke:none"/>
        <rect x=".75" y=".75" width="22.5" height="17.5" rx="1.25" style="fill:none"/>
    </g>
    <path data-name="패스 2757" d="M2.5-.38c1.709 0 2.522-.8 2.522-2.083 0-1.2-.669-1.649-1.781-1.955l-.659-.2c-.7-.188-.906-.415-.906-.948S2.089-6.4 2.83-6.4a4.7 4.7 0 0 1 1.8.336v-.948a3.764 3.764 0 0 0-1.821-.368c-1.6 0-2.368.78-2.368 1.925A1.825 1.825 0 0 0 2.047-3.53l.669.178c.772.227 1.029.444 1.029 1.007 0 .612-.4.987-1.349.987A5.152 5.152 0 0 1 .39-1.772v.958A4.656 4.656 0 0 0 2.5-.38zm6.825-.01a6.568 6.568 0 0 0 2.306-.41v-3.14H9.089v.908H10.4V-1.5a3.98 3.98 0 0 1-1.081.148c-1.657 0-2.038-1-2.038-2.4v-.306c0-1.274.494-2.34 2.151-2.34a4.489 4.489 0 0 1 1.9.375v-.968A4.245 4.245 0 0 0 9.4-7.38c-1.832 0-3.459.849-3.459 3.426v.207C5.939-1.367 7.256-.39 9.325-.39zm3.789-.11h1.276v-6.771h-1.276z" transform="translate(4.61 18.38)" style="fill:#fff"/>
</svg>
