<svg xmlns="http://www.w3.org/2000/svg" width="40" height="40" viewBox="0 0 40 40">
    <defs>
        <clipPath id="dvijbpbija">
            <path data-name="사각형 460729" transform="translate(0 .001)" style="fill:none" d="M0 0h36v36H0z"/>
        </clipPath>
    </defs>
    <g data-name="그룹 625715" style="clip-path:url(#dvijbpbija)" transform="translate(2 2)">
        <path data-name="패스 2226" d="m20.574 21.751 1.177-1.177a1.117 1.117 0 0 1 1.581 0l1.752 1.752a1.117 1.117 0 0 1 0 1.581l-1.177 1.177a1.117 1.117 0 0 1-1.581 0l-1.752-1.752a1.117 1.117 0 0 1 0-1.581" style="fill:#bfbfc7"/>
        <path data-name="패스 2227" d="m21.952 25.133 3.18-3.18a1.118 1.118 0 0 1 1.582 0l9.053 9.053a1.117 1.117 0 0 1 0 1.581l-3.18 3.181a1.12 1.12 0 0 1-1.582 0l-9.053-9.054a1.117 1.117 0 0 1 0-1.581" style="fill:#e6e6e6"/>
        <path data-name="패스 2228" d="M22.17 4.2a12.706 12.706 0 1 1-17.97 0 12.706 12.706 0 0 1 17.969 0" style="fill:#ffbc00"/>
        <path data-name="패스 2229" d="M19.55 6.823a9 9 0 1 1-12.728 0 9 9 0 0 1 12.728 0" style="fill:#fff"/>
        <path data-name="사각형 460728" transform="rotate(-45 44.952 -13.452)" style="fill:#479df0" d="M0 0h7.309v1.676H0z"/>
    </g>
</svg>
