<svg xmlns="http://www.w3.org/2000/svg" width="32" height="32" viewBox="0 0 32 32">
    <path data-name="패스 2634" d="M1 0h8a1 1 0 0 1 1 1v.7C10 3.907 7.262 7 5.052 7h-.515C2.328 7 0 3.907 0 1.7V1a1 1 0 0 1 1-1z" transform="translate(11 3)" style="fill:#9451fc"/>
    <path data-name="패스 2633" d="M13 0c7.18 0 13 5.8 13 11.648s-5.82 9.53-13 9.53S0 17.5 0 11.648 5.82 0 13 0z" transform="translate(3 7.822)" style="fill:#b68cf7"/>
    <g data-name="그룹 626105">
        <g data-name="타원 568" transform="translate(11 13)" style="stroke:#fff;stroke-width:1.5px;fill:none">
            <circle cx="2.5" cy="2.5" r="2.5" style="stroke:none"/>
            <circle cx="2.5" cy="2.5" r="1.75" style="fill:none"/>
        </g>
        <g data-name="타원 569" transform="translate(17 19)" style="stroke:#fff;stroke-width:1.5px;fill:none">
            <circle cx="2.5" cy="2.5" r="2.5" style="stroke:none"/>
            <circle cx="2.5" cy="2.5" r="1.75" style="fill:none"/>
        </g>
        <path data-name="선 199" transform="translate(12.777 14.777)" style="stroke-linecap:round;stroke:#fff;stroke-width:1.5px;fill:none" d="M7.446 0 0 7.446"/>
    </g>
</svg>
