<svg xmlns="http://www.w3.org/2000/svg" width="24" height="24" viewBox="0 0 24 24">
    <defs>
        <clipPath id="6nm6qaoxpa">
            <path data-name="사각형 3265" style="fill:none" d="M0 0h17.5v19.5H0z"/>
        </clipPath>
    </defs>
    <g data-name="그룹 806">
        <g data-name="그룹 805">
            <g data-name="그룹 804" style="clip-path:url(#6nm6qaoxpa)" transform="translate(3 2)">
                <path data-name="패스 605" d="M2.139 15.214a1.417 1.417 0 0 1-1.208-.66 1.24 1.24 0 0 1 .234-1.572l1.261-1.129v-4.56A6.6 6.6 0 0 1 8.75.75a6.6 6.6 0 0 1 6.323 6.543v4.56l1.261 1.129a1.24 1.24 0 0 1 .234 1.572 1.414 1.414 0 0 1-1.207.66z" style="fill:none"/>
                <path data-name="패스 606" d="M2.139 15.214a1.417 1.417 0 0 1-1.208-.66 1.24 1.24 0 0 1 .234-1.572l1.261-1.129v-4.56A6.6 6.6 0 0 1 8.75.75a6.6 6.6 0 0 1 6.323 6.543v4.56l1.261 1.129a1.24 1.24 0 0 1 .234 1.572 1.414 1.414 0 0 1-1.207.66z" style="stroke:#212121;stroke-linejoin:round;stroke-width:1.5px;fill:none"/>
                <path data-name="선 193" transform="translate(6.75 18.75)" style="stroke-linecap:round;stroke:#212121;stroke-linejoin:round;stroke-width:1.5px;fill:none" d="M0 0h4"/>
            </g>
        </g>
    </g>
</svg>
