<svg xmlns="http://www.w3.org/2000/svg" width="40" height="40" viewBox="0 0 40 40">
    <path data-name="패스 2614" d="M16.2.013C7.8.009 0 7.611 0 17a17 17 0 0 0 17 17c9.389 0 17.039-7.494 17-16.531a.647.647 0 0 0-.728-.659l-15.67.213a.7.7 0 0 1-.492-.267 1.121 1.121 0 0 1-.146-.623L16.986.565C16.982-.058 16.2.013 16.2.013z" transform="translate(3.003 5)" style="fill:#13d3a2"/>
    <path data-name="사각형 460855" d="M.81 0A16.19 16.19 0 0 1 17 16.19a.81.81 0 0 1-.81.81H.81a.81.81 0 0 1-.81-.81V.81A.81.81 0 0 1 .81 0z" transform="translate(22 3)" style="fill:#8ffade"/>
</svg>
