<svg xmlns="http://www.w3.org/2000/svg" width="40" height="40" viewBox="0 0 40 40">
    <defs>
        <clipPath id="1wk8n0gdma">
            <path data-name="사각형 460962" transform="translate(-3529.336 -15970)" style="fill:#fff;stroke:#707070" d="M0 0h14v11H0z"/>
        </clipPath>
    </defs>
    <g data-name="그룹 626083">
        <path data-name="사각형 460726" transform="translate(4 3)" style="fill:none" d="M0 0h32v34H0z"/>
        <g data-name="그룹 626085">
            <path data-name="패스 2635" d="M3.534 0h13.432a1.993 1.993 0 0 1 2.121 1.835L20.5 17.74a1.993 1.993 0 0 1-2.121 1.835H2.121A1.993 1.993 0 0 1 0 17.74l1.414-15.9A1.993 1.993 0 0 1 3.534 0z" transform="translate(17.5 17.425)" style="fill:#b2c0fa"/>
        </g>
        <g data-name="그룹 626084">
            <path data-name="패스 2635" d="M4.828 0h18.344a2.9 2.9 0 0 1 2.9 2.906L28 28.094A2.9 2.9 0 0 1 25.1 31H2.9A2.9 2.9 0 0 1 0 28.094L1.931 2.906A2.9 2.9 0 0 1 4.828 0z" transform="translate(3 6)" style="fill:#4a6cf7"/>
        </g>
        <g data-name="마스크 그룹 6324" transform="translate(3539.336 15982)" style="clip-path:url(#1wk8n0gdma)">
            <g data-name="사각형 460961" style="stroke:#fff;stroke-width:1.5px;fill:none">
                <path d="M0 0h12v6a6 6 0 0 1-6 6 6 6 0 0 1-6-6V0z" style="stroke:none" transform="translate(-3528.336 -15972)"/>
                <path d="M.75.75h10.5V6A5.25 5.25 0 0 1 6 11.25 5.25 5.25 0 0 1 .75 6V.75z" style="fill:none" transform="translate(-3528.336 -15972)"/>
            </g>
        </g>
    </g>
</svg>
