<svg xmlns="http://www.w3.org/2000/svg" width="143" height="192" viewBox="0 0 143 192">
    <g transform="translate(-718.553 -336)">
        <rect width="143" height="192" rx="8" transform="translate(718.553 336)" style="fill:#f3f4f6"/>
        <g data-name="사각형 460945" transform="translate(730.553 348)" style="stroke:#d9d9d9;stroke-width:2px;opacity:.5;fill:none">
            <rect width="119" height="168" rx="8" style="stroke:none"/>
            <rect x="1" y="1" width="117" height="166" rx="7" style="fill:none"/>
        </g>
        <rect data-name="사각형 924" width="38" height="5" rx="2.5" transform="translate(771.553 495)" style="fill:#d9d9d9"/>
        <g data-name="그룹 626065" transform="translate(746.553 407)">
            <rect data-name="사각형 920" width="16" height="5" rx="2.5" style="fill:#d9d9d9"/>
            <rect data-name="사각형 922" width="38" height="5" rx="2.5" transform="translate(22)" style="fill:#d9d9d9"/>
        </g>
        <g data-name="그룹 626066" transform="translate(746.553 420)">
            <rect data-name="사각형 920" width="16" height="5" rx="2.5" style="fill:#d9d9d9"/>
            <rect data-name="사각형 922" width="65" height="5" rx="2.5" transform="translate(22)" style="fill:#d9d9d9"/>
        </g>
        <g transform="translate(758.553 372)">
            <rect data-name="사각형 917" width="16" height="16" rx="8" transform="translate(0 3)" style="fill:#3942af"/>
            <path data-name="패스 2505" d="M3 0h10a3 3 0 0 1 3 3v10a3 3 0 0 1-3 3H3a3 3 0 0 1-3-3V3a3 3 0 0 1 3-3z" transform="translate(22 3)" style="fill:#2b6ff0"/>
            <path data-name="다각형 1" d="M7.874 4.751a3 3 0 0 1 5.251 0l5.414 9.8A3 3 0 0 1 15.914 19H5.086a3 3 0 0 1-2.626-4.451z" transform="translate(43)" style="fill:#b4bcff"/>
        </g>
    </g>
</svg>
