<svg xmlns="http://www.w3.org/2000/svg" width="24" height="24" viewBox="0 0 24 24">
    <g data-name="타원 525" transform="translate(7 1)" style="fill:#fff;stroke:#2b6ff0;stroke-width:1.5px">
        <circle cx="5" cy="5" r="5" style="stroke:none"/>
        <circle cx="5" cy="5" r="4.25" style="fill:none"/>
    </g>
    <g data-name="사각형 460830" style="fill:#fff;stroke:#2b6ff0;stroke-width:1.5px">
        <path d="M8.333 0h7.333A8.333 8.333 0 0 1 24 8.333 1.667 1.667 0 0 1 22.333 10H1.667A1.667 1.667 0 0 1 0 8.333 8.333 8.333 0 0 1 8.333 0z" style="stroke:none" transform="translate(0 14)"/>
        <path d="M8.238.75h7.524a7.488 7.488 0 0 1 7.488 7.488 1.012 1.012 0 0 1-1.012 1.012H1.762A1.012 1.012 0 0 1 .75 8.238 7.488 7.488 0 0 1 8.238.75z" style="fill:none" transform="translate(0 14)"/>
    </g>
</svg>
