<svg xmlns="http://www.w3.org/2000/svg" width="40" height="40" viewBox="0 0 40 40">
    <g transform="translate(-3074 -12001)">
        <path data-name="사각형 460731" transform="translate(3076 12003)" style="fill:none" d="M0 0h36v36H0z"/>
        <path data-name="사각형 278" d="M3 0h13a10 10 0 0 1 10 10v19a3 3 0 0 1-3 3H3a3 3 0 0 1-3-3V3a3 3 0 0 1 3-3z" transform="translate(3083 12006)" style="fill:#845ce8"/>
        <rect data-name="사각형 283" width="20" height="16" rx="4" transform="translate(3077 12017)" style="fill:#c0b5ff"/>
        <path data-name="패스 2635" d="m9 15.5 3 3 5-5" transform="translate(3074 12009)" style="stroke:#fff;stroke-linecap:round;stroke-linejoin:round;stroke-width:1.5px;fill:none"/>
    </g>
</svg>
