<svg xmlns="http://www.w3.org/2000/svg" width="24" height="24" viewBox="0 0 24 24">
    <g transform="translate(-276 -633)">
        <circle data-name="타원 534" cx="12" cy="12" r="12" transform="translate(276 633)" style="fill:#ffe529"/>
        <path data-name="패스 2506" d="M6.875 0C3.078 0 0 2.433 0 5.435a5.311 5.311 0 0 0 3.262 4.624c-.144.537-.521 1.945-.6 2.246-.093.374.137.369.288.269.118-.079 1.884-1.28 2.646-1.8a8.673 8.673 0 0 0 1.276.094c3.8 0 6.875-2.433 6.875-5.435S10.672 0 6.875 0" transform="translate(281 639.288)" style="fill:#3b1f1e"/>
    </g>
</svg>
