<svg xmlns="http://www.w3.org/2000/svg" width="48" height="48" viewBox="0 0 48 48">
  <g id="Ico_loan01" transform="translate(-231 -60)">
    <circle id="Ellipse_436" data-name="Ellipse 436" cx="24" cy="24" r="24" transform="translate(231 60)" fill="#f7f9ff"/>
    <g id="ico_excellence" transform="translate(243 72)">
      <path id="Path_2820" data-name="Path 2820" d="M-8436.5,650l-2.5-18.652,6.357,3.07L-8427,628l5.641,6.417,6.359-3.07L-8417.5,650Zm1.751-2h15.5l.2-1.5h-15.9Zm-.47-3.5h16.438l1.306-9.736-3.015,1.455-1.367.661-1-1.142-4.14-4.709-4.141,4.709-1,1.141-1.369-.66-3.012-1.455Zm11.22-3.625,1.25-1.874,1.25,1.874-1.25,1.875Zm-8.5,0,1.249-1.874,1.251,1.874-1.251,1.875ZM-8429,639l2-3,2,3-2,3Z" transform="translate(8439 -627)" fill="#5d88fb"/>
    </g>
  </g>
</svg>
