<svg xmlns="http://www.w3.org/2000/svg" width="48" height="48" viewBox="0 0 48 48">
    <g data-name="ico_ pin">
        <g data-name="그룹 418">
            <path data-name="패스 41" d="M1534.416 1441.841c9.708.125 17.713 6.437 19.557 15.488a14.922 14.922 0 0 1 .334 4.071 7.308 7.308 0 0 1-7.4 6.65 7.412 7.412 0 0 1-7.527-6.873c-.365-3.273-2.172-5.032-5.138-5a4.878 4.878 0 0 0-4.99 5.145c.094 6.558 4.671 12.479 11.3 14.663.941.31 2.323.746 1.973 1.881-.4 1.31-1.785.724-2.707.4-7.528-2.651-11.934-7.891-12.925-15.87a7.332 7.332 0 0 1 4.075-7.936 7.751 7.751 0 0 1 8.835 1.536 7.226 7.226 0 0 1 2 4.633c.264 3.2 2.6 5.256 5.517 4.961 3.1-.316 4.888-2.668 4.542-5.994a17.1 17.1 0 0 0-15.778-15.255c-9.154-.6-16.973 4.632-18.851 12.659a21.288 21.288 0 0 0 .586 10.8c.138.486.287.972.47 1.442.315.8.331 1.551-.586 1.9s-1.407-.2-1.7-1.025a24.885 24.885 0 0 1-1.543-11.191c1.165-9.969 9.683-17.218 19.956-17.085z" transform="translate(-1510.339 -1435.84)" style="fill:#7041e5"/>
            <path data-name="패스 42" d="M1818.349 1743.337v-.318a13.778 13.778 0 0 1 2.193-7.566 14 14 0 0 1 5.112-4.674 15.842 15.842 0 0 1 5.7-1.743 14.226 14.226 0 0 1 15.4 11.095 6.568 6.568 0 0 1 .163 2.34.872.872 0 0 1-.1.284 1.245 1.245 0 0 1-1.913.318 1.415 1.415 0 0 1-.364-.451 9.1 9.1 0 0 1-.244-2.014 11.748 11.748 0 0 0-12.647-9.062c-6.19.635-10.6 5.284-10.67 11.2a20.572 20.572 0 0 0 5.627 14.3c.35.392.718.768 1.088 1.139.638.641.976 1.452.132 1.993a1.984 1.984 0 0 1-1.863-.245 22.626 22.626 0 0 1-6.439-10.113 25.25 25.25 0 0 1-1.175-6.483z" transform="translate(-1808.402 -1717.578)" style="fill:#7041e5"/>
            <path data-name="패스 45" d="M2447.538 2331.187h-.1c-7.844-.054-13.824-5.545-14.109-12.576-.035-.889-.023-1.831 1.079-1.937 1.211-.117 1.357.851 1.455 1.8a10.838 10.838 0 0 0 11.9 10.156 6.753 6.753 0 0 1 1.872-.1 1.581 1.581 0 0 1 .328.123 1.243 1.243 0 0 1 .355 1.965 1.12 1.12 0 0 1-.443.311 8.493 8.493 0 0 1-2.337.258z" transform="translate(-2410.382 -2292.855)" style="fill:#7041e5"/>
        </g>
    </g>
</svg>
