<svg xmlns="http://www.w3.org/2000/svg" width="32" height="32" viewBox="0 0 32 32">
    <g transform="translate(4 3)" data-name="그룹 1486">
        <path data-name="사각형 459204" d="M0 0h21a3 3 0 0 1 3 3v12a3 3 0 0 1-3 3H3a3 3 0 0 1-3-3V0z" transform="translate(0 6)" style="fill:#9367ff"/>
        <path data-name="패스 2614" d="M3 0h6c1.657 0 3 3 3 3v2a3 3 0 0 1-3 3H3a3 3 0 0 1-3-3V3a3 3 0 0 1 3-3z" transform="translate(0 3)" style="fill:#9367ff"/>
        <rect data-name="사각형 460855" width="7" height="2" rx="1" transform="translate(13 18)" style="fill:#fff"/>
    </g>
</svg>
