<svg xmlns="http://www.w3.org/2000/svg" width="40" height="40" viewBox="0 0 40 40">
    <defs>
        <clipPath id="u93f6n64ha">
            <rect data-name="사각형 459196" width="16" height="12" rx="2" style="stroke-width:2px;stroke:#5070af;fill:#fff"/>
        </clipPath>
    </defs>
    <g transform="translate(-300 -790)">
        <circle data-name="타원 187" cx="20" cy="20" r="20" transform="translate(300 790)" style="fill:#2b6ff0"/>
        <g data-name="그룹 1475">
            <g data-name="사각형 459195" style="stroke:#2b6ff0;stroke-width:2px;fill:#fff" transform="translate(312 804)">
                <rect width="16" height="12" rx="2" style="stroke:none"/>
                <rect x="-1" y="-1" width="18" height="14" rx="3" style="fill:none"/>
            </g>
            <g data-name="마스크 그룹 19" style="clip-path:url(#u93f6n64ha)" transform="translate(312 804)">
                <g data-name="패스 2507" style="fill:#fff">
                    <path d="M17 7.362H-1V2.838l.579-.269 6.8-3.158A3.413 3.413 0 0 1 8.036-1c.6 0 1.187.146 1.658.412l6.732 3.159.575.27v4.521z" style="stroke:none" transform="rotate(180 8 3)"/>
                    <path d="M8.035 0c-.428 0-.857.1-1.194.3L0 3.475v2.886h16V3.476L9.23.3C8.892.1 8.464 0 8.035 0m0-2c.768 0 1.496.18 2.115.522L18 2.205v6.157H-2V2.2l7.925-3.68A4.373 4.373 0 0 1 8.035-2z" style="fill:#2b6ff0;stroke:none" transform="rotate(180 8 3)"/>
                </g>
            </g>
        </g>
    </g>
</svg>
