<svg xmlns="http://www.w3.org/2000/svg" width="24" height="24" viewBox="0 0 24 24">
    <g transform="translate(-128.857 -271.856)">
        <rect data-name="사각형 460856" width="18" height="18" rx="4" transform="translate(131.857 274.856)" style="fill:#7041e5"/>
        <path data-name="패스 2605" d="m2.062-5.736-.625-.5q.3-.348.621-.665l.161-.163q-.1-.017-.592-.142-.352-.09-.463-.133l.244-.761a6.248 6.248 0 0 1 .968.5 8.465 8.465 0 0 1-.1-1.142h.737A10.447 10.447 0 0 1 2.9-7.586q.083-.034.356-.167.372-.176.687-.3l.219.777Q3.7-7.17 3.1-7.067l.5.579q.149.176.236.288l-.636.434-.559-.957q-.252.463-.579.987z" transform="translate(133.693 291.593)" style="fill:#fff"/>
        <path data-name="패스 2627" d="m2.062-5.736-.625-.5q.3-.348.621-.665l.161-.163q-.1-.017-.592-.142-.352-.09-.463-.133l.244-.761a6.248 6.248 0 0 1 .968.5 8.465 8.465 0 0 1-.1-1.142h.737A10.447 10.447 0 0 1 2.9-7.586q.083-.034.356-.167.372-.176.687-.3l.219.777Q3.7-7.17 3.1-7.067l.5.579q.149.176.236.288l-.636.434-.559-.957q-.252.463-.579.987z" transform="translate(138.193 291.593)" style="fill:#fff"/>
        <path data-name="패스 2628" d="m2.062-5.736-.625-.5q.3-.348.621-.665l.161-.163q-.1-.017-.592-.142-.352-.09-.463-.133l.244-.761a6.248 6.248 0 0 1 .968.5 8.465 8.465 0 0 1-.1-1.142h.737A10.447 10.447 0 0 1 2.9-7.586q.083-.034.356-.167.372-.176.687-.3l.219.777Q3.7-7.17 3.1-7.067l.5.579q.149.176.236.288l-.636.434-.559-.957q-.252.463-.579.987z" transform="translate(142.693 291.593)" style="fill:#fff"/>
    </g>
</svg>
