<svg xmlns="http://www.w3.org/2000/svg" width="32" height="32" viewBox="0 0 32 32">
    <defs>
        <linearGradient id="u8yer0efba" x1=".112" y1=".067" x2=".866" y2=".853" gradientUnits="objectBoundingBox">
            <stop offset="0" stop-color="#009afa"/>
            <stop offset=".69" stop-color="#3978f0"/>
            <stop offset="1" stop-color="#502df0"/>
        </linearGradient>
    </defs>
    <g data-name="그룹 626065">
        <path data-name="합치기 2" d="M20955.219 19888.688a9.071 9.071 0 0 0 5.607-1.924l.494-.383.447-.457a9.2 9.2 0 1 0-6.549 2.764m11.367 4.16a.989.989 0 0 1-.705-.293l-3.537-3.535a1 1 0 0 1-.291-.676 11.107 11.107 0 0 1-6.834 2.344 11.286 11.286 0 1 1 7.979-3.365 1 1 0 0 1 .563.281l3.535 3.535a1 1 0 0 1-.709 1.709z" transform="translate(-20940 -19865)" style="fill:url(#u8yer0efba)"/>
    </g>
</svg>
