<svg xmlns="http://www.w3.org/2000/svg" width="176" height="207" viewBox="0 0 176 207">
    <g transform="translate(-701.553 -336)">
        <rect width="143" height="192" rx="8" transform="translate(718.553 336)" style="fill:#f3f4f6"/>
        <g data-name="사각형 460945" transform="translate(730.553 348)" style="stroke:#d9d9d9;stroke-width:2px;opacity:.5;fill:none">
            <rect width="119" height="168" rx="8" style="stroke:none"/>
            <rect x="1" y="1" width="117" height="166" rx="7" style="fill:none"/>
        </g>
        <rect data-name="사각형 924" width="38" height="5" rx="2.5" transform="translate(771.553 495)" style="fill:#d9d9d9"/>
        <g data-name="그룹 626065" transform="translate(746.553 407)">
            <rect data-name="사각형 920" width="16" height="5" rx="2.5" style="fill:#d9d9d9"/>
            <rect data-name="사각형 922" width="38" height="5" rx="2.5" transform="translate(22)" style="fill:#d9d9d9"/>
        </g>
        <g data-name="그룹 626066" transform="translate(746.553 420)">
            <rect data-name="사각형 920" width="16" height="5" rx="2.5" style="fill:#d9d9d9"/>
            <rect data-name="사각형 922" width="65" height="5" rx="2.5" transform="translate(22)" style="fill:#d9d9d9"/>
        </g>
        <g transform="translate(758.553 372)">
            <rect data-name="사각형 917" width="16" height="16" rx="8" transform="translate(0 3)" style="fill:#3942af"/>
            <path data-name="패스 2505" d="M3 0h10a3 3 0 0 1 3 3v10a3 3 0 0 1-3 3H3a3 3 0 0 1-3-3V3a3 3 0 0 1 3-3z" transform="translate(22 3)" style="fill:#2b6ff0"/>
            <path data-name="다각형 1" d="M7.874 4.751a3 3 0 0 1 5.251 0l5.414 9.8A3 3 0 0 1 15.914 19H5.086a3 3 0 0 1-2.626-4.451z" transform="translate(43)" style="fill:#b4bcff"/>
        </g>
    </g>
    <g data-name="그룹 626082">
        <path d="M4413-2423a4 4 0 0 1-4-4v-94a3.777 3.777 0 0 1 3.506-4h60.464c1.936 0 3.505 4 3.505 4l5.684 12H4581a4 4 0 0 1 4 4v78a4 4 0 0 1-4 4z" transform="translate(-4408.999 2630)" style="fill:#eaeaea"/>
        <g data-name="그룹 626081" transform="translate(16.001 183)">
            <rect data-name="사각형 922" width="65" height="5" rx="2.5" transform="translate(0 -13)" style="fill:#fff"/>
            <rect data-name="사각형 460963" width="35" height="5" rx="2.5" style="fill:#fff"/>
            <g data-name="다각형" transform="translate(0 -32.945)">
                <rect data-name="사각형 917" width="8" height="8" rx="4" transform="translate(0 1.945)" style="fill:#d4d6d9"/>
                <path data-name="패스 2505" d="M1.57 0H6.8a1.57 1.57 0 0 1 1.57 1.57V6.8A1.57 1.57 0 0 1 6.8 8.375H1.57A1.57 1.57 0 0 1 0 6.8V1.57A1.57 1.57 0 0 1 1.57 0z" transform="translate(11.515 1.57)" style="fill:#d4d6d9"/>
                <path data-name="다각형 1" d="M3.658 2.683a1.5 1.5 0 0 1 2.683 0l2.574 5.146A1.5 1.5 0 0 1 7.573 10H2.427a1.5 1.5 0 0 1-1.342-2.171z" transform="translate(23 -.055)" style="fill:#d4d6d9"/>
            </g>
        </g>
    </g>
</svg>
