<svg xmlns="http://www.w3.org/2000/svg" width="176" height="207" viewBox="0 0 176 207">
    <g data-name="그룹 626082">
        <path d="M4413-2423a4 4 0 0 1-4-4v-94a3.777 3.777 0 0 1 3.506-4h60.464c1.936 0 3.505 4 3.505 4l5.684 12H4581a4 4 0 0 1 4 4v78a4 4 0 0 1-4 4z" transform="translate(-4408.999 2630)" style="fill:#eaeaea"/>
        <g data-name="그룹 626081" transform="translate(16.001 183)">
            <rect data-name="사각형 922" width="65" height="5" rx="2.5" transform="translate(0 -13)" style="fill:#fff"/>
            <rect data-name="사각형 460963" width="35" height="5" rx="2.5" style="fill:#fff"/>
            <g data-name="다각형" transform="translate(0 -32.945)">
                <rect data-name="사각형 917" width="8" height="8" rx="4" transform="translate(0 1.945)" style="fill:#d4d6d9"/>
                <path data-name="패스 2505" d="M1.57 0H6.8a1.57 1.57 0 0 1 1.57 1.57V6.8A1.57 1.57 0 0 1 6.8 8.375H1.57A1.57 1.57 0 0 1 0 6.8V1.57A1.57 1.57 0 0 1 1.57 0z" transform="translate(11.515 1.57)" style="fill:#d4d6d9"/>
                <path data-name="다각형 1" d="M3.658 2.683a1.5 1.5 0 0 1 2.683 0l2.574 5.146A1.5 1.5 0 0 1 7.573 10H2.427a1.5 1.5 0 0 1-1.342-2.171z" transform="translate(23 -.055)" style="fill:#d4d6d9"/>
            </g>
        </g>
    </g>
</svg>
