<svg xmlns="http://www.w3.org/2000/svg" xmlns:xlink="http://www.w3.org/1999/xlink" width="32" height="32" viewBox="0 0 32 32">
  <defs>
    <style>
      .cls-1, .cls-6 {
        fill: none;
      }

      .cls-2 {
        fill: rgba(255,191,191,0.5);
        opacity: 0;
      }

      .cls-3 {
        clip-path: url(#clip-path);
      }

      .cls-4 {
        fill: #ffe9b5;
      }

      .cls-5 {
        fill: #f5bf41;
      }

      .cls-6 {
        stroke: #fff;
        stroke-linecap: round;
        stroke-linejoin: round;
        stroke-width: 1.5px;
      }
    </style>
    <clipPath id="clip-path">
      <rect id="사각형_460722" data-name="사각형 460722" class="cls-1" width="26" height="26"/>
    </clipPath>
  </defs>
  <g id="ico_account" transform="translate(-40 -1487)">
    <rect id="area" class="cls-2" width="32" height="32" transform="translate(40 1487)"/>
    <g id="그룹_625704" data-name="그룹 625704" transform="translate(43 1490)">
      <g id="그룹_625703" data-name="그룹 625703" class="cls-3">
        <path id="패스_2201" data-name="패스 2201" class="cls-4" d="M16,18a8,8,0,1,1-8-8,8,8,0,0,1,8,8"/>
        <path id="패스_2202" data-name="패스 2202" class="cls-5" d="M26,11A11,11,0,1,1,15,0,11,11,0,0,1,26,11"/>
        <path id="패스_2203" data-name="패스 2203" class="cls-6" d="M10.5,9l2.25,6L15,10l2.25,5L19.5,9"/>
        <line id="선_9" data-name="선 9" class="cls-6" x2="2" transform="translate(9 11)"/>
        <line id="선_10" data-name="선 10" class="cls-6" x2="2" transform="translate(19 11)"/>
      </g>
    </g>
  </g>
</svg>
