<svg xmlns="http://www.w3.org/2000/svg" width="48" height="48" viewBox="0 0 48 48">
    <path data-name="패스 2219" d="M38 24.483C38 34.239 23.75 42 19 42S0 34.239 0 24.483V9.628a4 4 0 0 1 2.664-3.685L17.334.307a4.669 4.669 0 0 1 3.331 0l14.669 5.636A4 4 0 0 1 38 9.628z" transform="translate(5.001 2.999)" style="fill:#952bf0"/>
    <g data-name="그룹 626062">
        <path data-name="패스 2605" d="M3.559-.736 1.892-2.075Q2.687-3 3.548-3.849q.342-.343.43-.435Q3.7-4.33 2.4-4.662q-.938-.24-1.236-.355l.651-2.014A16.662 16.662 0 0 1 4.4-5.692a22.572 22.572 0 0 1-.265-3.044H6.1a27.859 27.859 0 0 1-.3 3.067q.221-.092.949-.446.993-.469 1.832-.8l.585 2.072q-1.225.286-2.836.561l1.322 1.543q.4.469.629.767L6.593-.816 5.1-3.369Q4.43-2.133 3.559-.736z" transform="translate(7.836 28.738)" style="fill:#fff"/>
        <path data-name="패스 2627" d="M3.559-.736 1.892-2.075Q2.687-3 3.548-3.849q.342-.343.43-.435Q3.7-4.33 2.4-4.662q-.938-.24-1.236-.355l.651-2.014A16.662 16.662 0 0 1 4.4-5.692a22.572 22.572 0 0 1-.265-3.044H6.1a27.859 27.859 0 0 1-.3 3.067q.221-.092.949-.446.993-.469 1.832-.8l.585 2.072q-1.225.286-2.836.561l1.322 1.543q.4.469.629.767L6.593-.816 5.1-3.369Q4.43-2.133 3.559-.736z" transform="translate(18.836 28.738)" style="fill:#fff"/>
        <path data-name="패스 2628" d="M3.559-.736 1.892-2.075Q2.687-3 3.548-3.849q.342-.343.43-.435Q3.7-4.33 2.4-4.662q-.938-.24-1.236-.355l.651-2.014A16.662 16.662 0 0 1 4.4-5.692a22.572 22.572 0 0 1-.265-3.044H6.1a27.859 27.859 0 0 1-.3 3.067q.221-.092.949-.446.993-.469 1.832-.8l.585 2.072q-1.225.286-2.836.561l1.322 1.543q.4.469.629.767L6.593-.816 5.1-3.369Q4.43-2.133 3.559-.736z" transform="translate(29.836 28.738)" style="fill:#fff"/>
    </g>
</svg>
