<svg xmlns="http://www.w3.org/2000/svg" width="36" height="36" viewBox="0 0 36 36">
    <defs>
        <clipPath id="fqzcdgdjqa">
            <path data-name="사각형 460722" style="fill:none" d="M0 0h26v26H0z"/>
        </clipPath>
    </defs>
    <g data-name="그룹 625703" style="clip-path:url(#fqzcdgdjqa)" transform="translate(5 5)">
        <path data-name="패스 2201" d="M16 18a8 8 0 1 1-8-8 8 8 0 0 1 8 8" style="fill:#ebebf5"/>
        <path data-name="패스 2202" d="M26 11A11 11 0 1 1 15 0a11 11 0 0 1 11 11" style="fill:#f5bf41"/>
        <path data-name="패스 2203" d="m10.5 9 2.25 6L15 10l2.25 5 2.25-6" style="stroke:#fff;stroke-linecap:round;stroke-linejoin:round;stroke-width:2px;fill:none"/>
        <path data-name="선 9" transform="translate(9 11)" style="stroke:#fff;stroke-linecap:round;stroke-linejoin:round;stroke-width:2px;fill:none" d="M0 0h2"/>
        <path data-name="선 10" transform="translate(19 11)" style="stroke:#fff;stroke-linecap:round;stroke-linejoin:round;stroke-width:2px;fill:none" d="M0 0h2"/>
    </g>
</svg>
