<svg xmlns="http://www.w3.org/2000/svg" width="32" height="32" viewBox="0 0 32 32">
    <g data-name="ico_file list" transform="translate(1 -3)">
        <rect data-name="사각형 955" width="25" height="30" rx="2" transform="translate(-1 3)" style="fill:#fff"/>
        <circle data-name="타원 561" cx="8" cy="8" r="8" transform="translate(15 19)" style="fill:#cedfff"/>
        <path data-name="패스 2613" d="M1694.6-257.512v3.164c0 2.478-1.866 2.434-1.866 2.434h-1.866s-1.866.027-1.866-2.488v-4.354a1.18 1.18 0 0 1 1.244-1.244h1.244a1.237 1.237 0 0 1 1.244 1.244v4.354a.634.634 0 0 1-.622.622h-.622a.594.594 0 0 1-.622-.622v-3.11" transform="translate(-1668.5 282.5)" style="fill:none;stroke:#43495a;stroke-linecap:round"/>
        <rect data-name="사각형 459185" width="13" height="1.5" rx=".75" transform="translate(5 14)" style="fill:#43495a"/>
        <rect data-name="사각형 459186" width="6" height="1.5" rx=".75" transform="translate(5 10)" style="fill:#43495a"/>
    </g>
</svg>
