<svg xmlns="http://www.w3.org/2000/svg" width="24" height="24" viewBox="0 0 24 24">
    <g data-name="그룹 626048">
        <path data-name="패스 2493" d="M0 .124a29.758 29.758 0 0 1 7.887-2.1c1.817 0 7.642 1.723 7.887 2.1s-.008 9.823 0 9.871c-.5 3.282-6 6.034-7.887 6.034S.219 12.776 0 9.995C-.073 9.987-.22.462 0 .124z" transform="translate(4.115 4.972)" style="fill:#2b95f0"/>
        <g data-name="그룹 626030">
            <path data-name="패스 2605" d="m2.062-5.736-.625-.5q.3-.348.621-.665l.161-.163q-.1-.017-.592-.142-.352-.09-.463-.133l.244-.761a6.248 6.248 0 0 1 .968.5 8.465 8.465 0 0 1-.1-1.142h.737A10.447 10.447 0 0 1 2.9-7.586q.083-.034.356-.167.372-.176.687-.3l.219.777Q3.7-7.17 3.1-7.067l.5.579q.149.176.236.288l-.636.434-.559-.957q-.252.463-.579.987z" transform="translate(4.836 18.736)" style="fill:#fff"/>
            <path data-name="패스 2627" d="m2.062-5.736-.625-.5q.3-.348.621-.665l.161-.163q-.1-.017-.592-.142-.352-.09-.463-.133l.244-.761a6.248 6.248 0 0 1 .968.5 8.465 8.465 0 0 1-.1-1.142h.737A10.447 10.447 0 0 1 2.9-7.586q.083-.034.356-.167.372-.176.687-.3l.219.777Q3.7-7.17 3.1-7.067l.5.579q.149.176.236.288l-.636.434-.559-.957q-.252.463-.579.987z" transform="translate(9.336 18.736)" style="fill:#fff"/>
            <path data-name="패스 2628" d="m2.062-5.736-.625-.5q.3-.348.621-.665l.161-.163q-.1-.017-.592-.142-.352-.09-.463-.133l.244-.761a6.248 6.248 0 0 1 .968.5 8.465 8.465 0 0 1-.1-1.142h.737A10.447 10.447 0 0 1 2.9-7.586q.083-.034.356-.167.372-.176.687-.3l.219.777Q3.7-7.17 3.1-7.067l.5.579q.149.176.236.288l-.636.434-.559-.957q-.252.463-.579.987z" transform="translate(13.836 18.736)" style="fill:#fff"/>
        </g>
    </g>
</svg>
