<svg xmlns="http://www.w3.org/2000/svg" width="40" height="40" viewBox="0 0 40 40">
    <defs>
        <clipPath id="c02o7uzz6a">
            <path data-name="사각형 460724" style="fill:none" d="M0 0h34v34H0z"/>
        </clipPath>
    </defs>
    <g data-name="그룹 625707" style="clip-path:url(#c02o7uzz6a)" transform="translate(6 3)">
        <path data-name="패스 2209" d="M20.432 34H3.188A3.188 3.188 0 0 1 0 30.813V3.188A3.188 3.188 0 0 1 3.188 0h17.244a3.187 3.187 0 0 1 3.188 3.188v27.625A3.187 3.187 0 0 1 20.432 34" style="fill:#ebebf5"/>
        <path data-name="선 11" transform="translate(8.5 5.231)" style="stroke:#999db2;stroke-linecap:round;stroke-miterlimit:10;stroke-width:2px;fill:none" d="M0 0h6.375"/>
        <path data-name="패스 2210" d="M11.549 28.25a2.125 2.125 0 1 1 2.125-2.125 2.124 2.124 0 0 1-2.125 2.125" transform="translate(.589 1.5)" style="fill:#999db2"/>
        <path data-name="패스 2211" d="M32.236 7.454a3.251 3.251 0 0 1-.991 1.353L28.7 10.853l-4.09-5.085 2.543-2.045a3.261 3.261 0 0 1 5.083 3.731" transform="translate(1.538 .187)" style="fill:#d93772"/>
        <path data-name="패스 2212" d="M25.534 5.605 21.47 8.868l-9.264 7.45a1.244 1.244 0 0 0-.345.443L9.96 20.91a1.224 1.224 0 0 0 1.371 1.705l4.46-.971a1.2 1.2 0 0 0 .509-.244l13.325-10.71z" transform="translate(.615 .35)" style="fill:#ea5692"/>
    </g>
</svg>
