<svg xmlns="http://www.w3.org/2000/svg" width="32" height="32" viewBox="0 0 32 32">
    <defs>
        <clipPath id="ch6e4yx9oa">
            <path data-name="사각형 460723" transform="translate(.284 -.497)" style="fill:none" d="M0 0h26v26H0z"/>
        </clipPath>
    </defs>
    <g data-name="그룹 625706">
        <g data-name="그룹 625705" transform="translate(2.716 3.497)" style="clip-path:url(#ch6e4yx9oa)">
            <path data-name="패스 2204" d="M18.94 5.47A5.47 5.47 0 1 1 13.47 0a5.47 5.47 0 0 1 5.47 5.47" transform="translate(-.749)" style="fill:#6375ea"/>
            <path data-name="패스 2205" d="M11.749 15.5C5.729 15.5.76 19.654.011 25.03a1.315 1.315 0 0 0 1.38 1.41h20.354a1.614 1.614 0 0 0 1.674-1.827c-.942-5.172-5.808-9.113-11.671-9.113" transform="translate(1 -3.388)" style="fill:#6375ea"/>
            <g data-name="그룹 626042">
                <path data-name="패스 2601" d="M18 7a7 7 0 1 1-7-7 7 7 0 0 1 7 7" transform="translate(8.284 10.503)" style="fill:#f5bf41"/>
                <path data-name="패스 2602" d="m12 8.4 2.1 2.1L17.6 7" transform="translate(4.834 8.753)" style="stroke:#fff;stroke-linecap:round;stroke-linejoin:round;stroke-width:1.5px;fill:none"/>
            </g>
        </g>
    </g>
</svg>
