<svg xmlns="http://www.w3.org/2000/svg" width="24" height="24" viewBox="0 0 24 24">
    <defs>
        <clipPath id="noq9s4h1ma">
            <path data-name="사각형 460893" style="fill:none" d="M0 0h15.878v18.479H0z"/>
        </clipPath>
    </defs>
    <g data-name="그룹 626051" transform="translate(4.623 2.692)" style="clip-path:url(#noq9s4h1ma)">
        <path data-name="패스 2622" d="M15.878 15.35a13.294 13.294 0 0 1-1.2 2.241c-.779 1.187-1.878 2.665-3.239 2.678-1.21.011-1.521-.788-3.163-.779s-1.985.793-3.195.782c-1.362-.013-2.4-1.348-3.182-2.535-2.181-3.318-2.41-7.213-1.065-9.284A4.825 4.825 0 0 1 4.715 6.12c1.443 0 2.35.791 3.543.791 1.157 0 1.863-.793 3.531-.793a4.711 4.711 0 0 1 3.55 1.874 4.062 4.062 0 0 0 .539 7.357" transform="translate(0 -1.793)" style="fill:#fff"/>
        <path data-name="패스 2623" d="M13.687 3a4.052 4.052 0 0 0 .9-3 4.375 4.375 0 0 0-2.825 1.52 3.755 3.755 0 0 0-.923 2.926A3.693 3.693 0 0 0 13.687 3" transform="translate(-3.163)" style="fill:#fff"/>
    </g>
</svg>
