<svg xmlns="http://www.w3.org/2000/svg" width="36" height="38" viewBox="0 0 36 38">
    <defs>
        <clipPath id="z2uaord08a">
            <path data-name="사각형 460717" style="fill:none" d="M0 0h26v26H0z"/>
        </clipPath>
    </defs>
    <g data-name="그룹 625693" style="clip-path:url(#z2uaord08a)" transform="translate(8 7)">
        <path data-name="패스 2189" d="M15.061 26H3a3 3 0 0 1-3-3V3a3 3 0 0 1 3-3h12.061a3 3 0 0 1 3 3v20a3 3 0 0 1-3 3" style="fill:#ebebf5"/>
        <path data-name="선 8" transform="translate(7.031 4)" style="stroke:#999db2;stroke-linecap:round;stroke-miterlimit:10;stroke-width:2px;fill:none" d="M0 0h4"/>
        <path data-name="패스 2190" d="M9.282 23a1.5 1.5 0 1 1 1.5-1.5 1.5 1.5 0 0 1-1.5 1.5" style="fill:#999db2"/>
        <path data-name="패스 2191" d="M25.827 6.26a2.491 2.491 0 0 1-.758 1.04l-1.944 1.559L20 4.971l1.94-1.565a2.494 2.494 0 0 1 3.887 2.854" style="fill:#d93772"/>
        <path data-name="패스 2192" d="m20 4.971-3.112 2.495L9.8 13.163a.942.942 0 0 0-.264.339l-1.449 3.173a.935.935 0 0 0 1.048 1.3l3.411-.741a.939.939 0 0 0 .387-.185l10.192-8.19z" style="fill:#ea5692"/>
    </g>
</svg>
