<svg xmlns="http://www.w3.org/2000/svg" width="24" height="24" viewBox="0 0 24 24">
    <g data-name="합치기 1" style="fill:none">
        <path d="M3784.16-10414.75h-1.999c-.69 0-1.25-.56-1.25-1.25v-1.087l-.469-.19a7.26 7.26 0 0 1-1.742-1.006l-.398-.312-.438.253-.505.291a1.255 1.255 0 0 1-1.71-.459l-1-1.73a1.252 1.252 0 0 1 .459-1.707l.503-.291.438-.253-.07-.5a7.338 7.338 0 0 1 0-2.016l.07-.5-.438-.253-.503-.29a1.253 1.253 0 0 1-.46-1.71l1-1.73a1.258 1.258 0 0 1 1.71-.46l.506.292.438.253.398-.312a7.26 7.26 0 0 1 1.742-1.007l.469-.19V-10432c0-.69.56-1.25 1.25-1.25h1.998c.69 0 1.251.56 1.251 1.25v1.088l.469.19a7.205 7.205 0 0 1 1.741 1.006l.399.313.439-.254.505-.292a1.249 1.249 0 0 1 1.709.459l1 1.73a1.256 1.256 0 0 1-.459 1.71l-.503.29-.438.253.07.5a7.32 7.32 0 0 1 0 2.016l-.07.5.437.253.504.29c.596.345.802 1.112.458 1.709l-1 1.73a1.256 1.256 0 0 1-1.709.458l-.504-.292-.439-.254-.399.313a7.205 7.205 0 0 1-1.741 1.007l-.469.19v1.087c0 .69-.56 1.25-1.25 1.25z" style="stroke:none" transform="translate(-3771.16 10436)"/>
        <path d="M3784.16-10415.5c.276 0 .5-.225.5-.5v-1.593l.937-.38a6.44 6.44 0 0 0 1.561-.902l.798-.624 1.38.798a.497.497 0 0 0 .686-.185l1-1.727a.502.502 0 0 0-.184-.685l-1.378-.796.14-1a6.583 6.583 0 0 0 0-1.81l-.14-1 1.378-.796a.503.503 0 0 0 .185-.684l-1-1.73a.499.499 0 0 0-.685-.186l-1.382.799-.798-.624a6.44 6.44 0 0 0-1.561-.902l-.937-.38v-1.593c0-.275-.224-.5-.5-.5h-1.999c-.276 0-.5.225-.5.5v1.592l-.937.38a6.477 6.477 0 0 0-1.563.903l-.796.621-1.381-.795a.5.5 0 0 0-.686.185l-1 1.728a.502.502 0 0 0 .185.686l1.377.796-.138 1a6.608 6.608 0 0 0 0 1.81l.139 1-1.378.796a.5.5 0 0 0-.185.682l1.001 1.732a.496.496 0 0 0 .685.183l1.38-.795.797.621a6.477 6.477 0 0 0 1.563.903l.937.38v1.592c0 .275.224.5.5.5h1.998m0 1.5h-1.998a2 2 0 0 1-2-2v-.581a8.01 8.01 0 0 1-1.923-1.111l-.505.29a2 2 0 0 1-2.733-.733l-1-1.73a2 2 0 0 1 .732-2.732l.504-.29a8.078 8.078 0 0 1 0-2.223l-.504-.291a2.002 2.002 0 0 1-.733-2.734l1-1.73a2.002 2.002 0 0 1 2.734-.734l.505.291a8.01 8.01 0 0 1 1.923-1.11v-.582a2 2 0 0 1 2-2h1.998a2 2 0 0 1 2.001 2v.582c.694.281 1.34.656 1.922 1.111l.505-.292a2.003 2.003 0 0 1 2.734.734l1 1.73c.55.958.223 2.182-.733 2.734l-.503.29a8.05 8.05 0 0 1 0 2.223l.503.291a2.003 2.003 0 0 1 .734 2.732l-1 1.73a2 2 0 0 1-2.735.734l-.505-.292a7.979 7.979 0 0 1-1.922 1.111v.582a2 2 0 0 1-2 2z" style="fill:#212121;stroke:none" transform="translate(-3771.16 10436)"/>
    </g>
    <g data-name="타원 532" transform="translate(8 8)" style="stroke:#212121;stroke-width:1.5px;fill:none">
        <circle cx="4" cy="4" r="4" style="stroke:none"/>
        <circle cx="4" cy="4" r="3.25" style="fill:none"/>
    </g>
</svg>
