<svg xmlns="http://www.w3.org/2000/svg" width="24" height="24" viewBox="0 0 24 24">
    <path data-name="사각형 460860" d="M8 0h4a8 8 0 0 1 8 8v4a8 8 0 0 1-8 8H2a2 2 0 0 1-2-2V8a8 8 0 0 1 8-8z" transform="translate(2 2)" style="fill:#6a9dfd"/>
    <path data-name="패스 2631" d="M.615-7.335a2.471 2.471 0 0 1 .417-1.316 3.211 3.211 0 0 1 1.217-1.1 3.828 3.828 0 0 1 1.866-.437 3.984 3.984 0 0 1 1.75.366 2.838 2.838 0 0 1 1.172.995 2.439 2.439 0 0 1 .414 1.367 2.114 2.114 0 0 1-.236 1.019 3.117 3.117 0 0 1-.561.755q-.325.318-1.166 1.07a4.745 4.745 0 0 0-.373.373 1.513 1.513 0 0 0-.208.294 1.443 1.443 0 0 0-.106.267q-.038.133-.113.468a.761.761 0 0 1-.813.711.832.832 0 0 1-.6-.232.913.913 0 0 1-.243-.69 2.543 2.543 0 0 1 .178-.995 2.525 2.525 0 0 1 .472-.738 10.823 10.823 0 0 1 .793-.755q.44-.387.635-.587a1.961 1.961 0 0 0 .328-.434 1.05 1.05 0 0 0 .133-.52 1.208 1.208 0 0 0-.407-.923 1.485 1.485 0 0 0-1.049-.373 1.452 1.452 0 0 0-1.107.379 3.025 3.025 0 0 0-.6 1.118q-.232.772-.882.772a.867.867 0 0 1-.646-.27.826.826 0 0 1-.265-.584zM3.951.157a1.076 1.076 0 0 1-.728-.27.947.947 0 0 1-.311-.755.973.973 0 0 1 .3-.725 1.016 1.016 0 0 1 .738-.294.985.985 0 0 1 .725.294.985.985 0 0 1 .294.725.954.954 0 0 1-.308.752 1.038 1.038 0 0 1-.71.273z" transform="translate(7.967 17.019)" style="fill:#fff"/>
</svg>
