<svg xmlns="http://www.w3.org/2000/svg" width="24" height="24" viewBox="0 0 24 24">
    <g data-name="ico_ pin" transform="translate(1714 -15448)">
        <rect data-name="사각형 460857" width="18" height="18" rx="4" transform="translate(-1711 15451)" style="fill:#2b6ff0"/>
        <g data-name="그룹 418">
            <path data-name="패스 41" d="M1520.455 1441.839a6 6 0 0 1 5.958 4.719 4.541 4.541 0 0 1 .1 1.24 2.226 2.226 0 0 1-2.254 2.026 2.258 2.258 0 0 1-2.293-2.094 1.543 1.543 0 1 0-3.086.044 4.882 4.882 0 0 0 3.444 4.467c.287.095.708.227.6.573-.123.4-.544.22-.825.121a5.527 5.527 0 0 1-3.938-4.835 2.234 2.234 0 0 1 1.242-2.418 2.361 2.361 0 0 1 2.692.468 2.2 2.2 0 0 1 .609 1.411 1.546 1.546 0 1 0 3.065-.315 5.208 5.208 0 0 0-4.807-4.647 5.3 5.3 0 0 0-5.743 3.857 6.486 6.486 0 0 0 .179 3.291c.042.148.087.3.143.439.1.245.1.473-.179.578s-.429-.06-.517-.312a7.581 7.581 0 0 1-.47-3.409 5.925 5.925 0 0 1 6.08-5.204z" transform="translate(-3222.339 14012.661)" style="fill:#fff"/>
            <path data-name="패스 42" d="M1818.346 1733.174v-.094a4.043 4.043 0 0 1 .644-2.221 4.109 4.109 0 0 1 1.5-1.372 4.647 4.647 0 0 1 1.675-.512 4.177 4.177 0 0 1 4.521 3.257 1.926 1.926 0 0 1 .048.687.26.26 0 0 1-.03.083.365.365 0 0 1-.562.093.416.416 0 0 1-.107-.132 2.665 2.665 0 0 1-.072-.591 3.449 3.449 0 0 0-3.713-2.66 3.343 3.343 0 0 0-3.133 3.288 6.04 6.04 0 0 0 1.652 4.2c.1.115.211.226.319.335.187.188.287.426.039.585a.583.583 0 0 1-.547-.072 6.641 6.641 0 0 1-1.891-2.969 7.408 7.408 0 0 1-.343-1.905z" transform="translate(-3524.457 13727.335)" style="fill:#fff"/>
            <path data-name="패스 45" d="M2437.5 2320.929h-.028a3.974 3.974 0 0 1-4.143-3.692c-.01-.261-.007-.538.317-.569.355-.034.4.25.427.529a3.182 3.182 0 0 0 3.5 2.982 1.973 1.973 0 0 1 .55-.029.48.48 0 0 1 .1.036.365.365 0 0 1 .1.577.332.332 0 0 1-.13.091 2.505 2.505 0 0 1-.693.075z" transform="translate(-4135.619 13143.271)" style="fill:#fff"/>
        </g>
    </g>
</svg>
