<svg xmlns="http://www.w3.org/2000/svg" width="40" height="40" viewBox="0 0 40 40">
    <g data-name="그룹 626074" transform="translate(3 3)">
        <path data-name="사각형 460951" d="M3 0h15a3 3 0 0 1 3 3v31H3a3 3 0 0 1-3-3V3a3 3 0 0 1 3-3z" style="fill:#fff"/>
        <rect data-name="사각형 460953" width="13" height="1.5" rx=".75" transform="translate(4 5)" style="fill:#43495a"/>
        <rect data-name="사각형 460954" width="13" height="1.5" rx=".75" transform="translate(4 9)" style="fill:#43495a"/>
        <rect data-name="사각형 460955" width="13" height="1.5" rx=".75" transform="translate(4 13)" style="fill:#43495a"/>
    </g>
    <g data-name="그룹 626075">
        <path data-name="사각형 460952" d="M0 0h9a3 3 0 0 1 3 3v15a3 3 0 0 1-3 3H0V0z" style="fill:#fff" transform="translate(25 16)"/>
        <path data-name="사각형 460956" transform="translate(28 21)" style="fill:#43495a" d="M0 0h2v2H0z"/>
        <path data-name="사각형 460956" transform="translate(32 21)" style="fill:#43495a" d="M0 0h2v2H0z"/>
        <path data-name="사각형 460956" transform="translate(28 25)" style="fill:#43495a" d="M0 0h2v2H0z"/>
        <path data-name="사각형 460956" transform="translate(32 25)" style="fill:#43495a" d="M0 0h2v2H0z"/>
    </g>
</svg>
