<svg xmlns="http://www.w3.org/2000/svg" width="32" height="32" viewBox="0 0 32 32">
    <defs>
        <clipPath id="4uyd25a5pa">
            <path data-name="사각형 460717" style="fill:none" d="M0 0h26v26H0z"/>
        </clipPath>
    </defs>
    <g data-name="그룹 625997">
        <g data-name="그룹 625693" style="clip-path:url(#4uyd25a5pa)" transform="translate(3 3)">
            <path data-name="패스 2189" d="M15.061 26H3a3 3 0 0 1-3-3V3a3 3 0 0 1 3-3h12.061a3 3 0 0 1 3 3v20a3 3 0 0 1-3 3" style="fill:#ebebf5"/>
            <path data-name="선 8" transform="translate(7.031 4)" style="stroke-linecap:round;stroke:#999db2;stroke-miterlimit:10;stroke-width:2px;fill:none" d="M0 0h4"/>
            <path data-name="패스 2190" d="M9.282 23a1.5 1.5 0 1 1 1.5-1.5 1.5 1.5 0 0 1-1.5 1.5" style="fill:#999db2"/>
            <g data-name="그룹 625998">
                <path data-name="패스 2601" d="M18 7a7 7 0 1 1-7-7 7 7 0 0 1 7 7" transform="translate(8 11)" style="fill:#f5bf41"/>
                <path data-name="패스 2602" d="m12 8.4 2.1 2.1L17.6 7" transform="translate(4.55 9.25)" style="stroke:#fff;stroke-linejoin:round;stroke-width:1.5px;stroke-linecap:round;fill:none"/>
            </g>
        </g>
    </g>
</svg>
