<svg xmlns="http://www.w3.org/2000/svg" width="89.87" height="18" viewBox="0 0 89.87 18">
    <defs>
        <clipPath id="09ht4lt53a">
            <path data-name="사각형 459454" style="fill:none" d="M0 0h89.87v18H0z"/>
        </clipPath>
    </defs>
    <g data-name="그룹 622924" style="clip-path:url(#09ht4lt53a)">
        <path data-name="패스 1353" d="M0 18.76a11.231 11.231 0 0 0 4.2 1.713c3.158.663 6.835.448 6.854-2.182v-2.085H8.51v2.272c-1.646.145-3.108-.7-3.205-2.281A2.335 2.335 0 0 1 6.518 14a6.3 6.3 0 0 1 5.58.3 5.007 5.007 0 0 1 .165 8.932C8.1 25.574 1.512 23.9 0 23.236z" transform="translate(0 -6.729)" style="fill:#003174"/>
        <path data-name="패스 1354" d="M14.309 7.054C10.27 5.039 5.959 5.592 4.23 6.971a3.516 3.516 0 0 0-.565 5.329C-.295 10.952-.326 7.422.753 5.717c1.758-2.783 7.764-4.106 13.556-1.871z" transform="translate(-.074 -1.356)" style="fill:#e60c19"/>
        <path data-name="패스 1355" d="M42.01.3h-.547l-.9 1.465L39.666.3h-.736l1.3 2.121v1.542h.651V2.372c.031-.046 1.3-2.071 1.3-2.071z" transform="translate(-19.433 -.15)" style="fill:#003279"/>
        <path data-name="패스 1356" d="M45.092 2.3a1.574 1.574 0 0 0-.346 1.065 1.569 1.569 0 0 0 .346 1.064 1.209 1.209 0 0 0 .947.4 1.192 1.192 0 0 0 .941-.4 1.54 1.54 0 0 0 .352-1.064 1.546 1.546 0 0 0-.353-1.065 1.194 1.194 0 0 0-.941-.4 1.209 1.209 0 0 0-.947.4m.476 1.742a1.085 1.085 0 0 1-.176-.677 1.093 1.093 0 0 1 .174-.686.642.642 0 0 1 .945 0 1.1 1.1 0 0 1 .176.685 1.093 1.093 0 0 1-.178.679.628.628 0 0 1-.941 0" transform="translate(-22.336 -.949)" style="fill:#003279"/>
        <path data-name="패스 1357" d="M53.111 2.042h-.532v1.979a1.65 1.65 0 0 1-.322.191.864.864 0 0 1-.336.08.641.641 0 0 1-.254-.037.266.266 0 0 1-.12-.113.485.485 0 0 1-.067-.2l-.017-.325V2.042h-.63v1.782a1.135 1.135 0 0 0 .256.8.914.914 0 0 0 .71.281 1.162 1.162 0 0 0 .489-.1 2.332 2.332 0 0 0 .29-.181v.212h.622V2.042z" transform="translate(-25.374 -1.019)" style="fill:#003279"/>
        <path data-name="패스 1358" d="M57.663 2.139a2.188 2.188 0 0 0-.329.2v-.296h-.625v2.789h.625V2.947a1.748 1.748 0 0 1 .312-.2.819.819 0 0 1 .354-.076l.207.01.182.032.112.018.028-.111v-.535l-.239-.035-.179-.007a1.1 1.1 0 0 0-.446.1" transform="translate(-28.307 -1.02)" style="fill:#003279"/>
        <path data-name="패스 1359" d="M64.079.3h-.093v3.662h1.326a2.377 2.377 0 0 0 .618-.069 1.323 1.323 0 0 0 .463-.236 1.012 1.012 0 0 0 .289-.359 1.145 1.145 0 0 0 .107-.5.988.988 0 0 0-.222-.659 1.043 1.043 0 0 0-.435-.277 1.047 1.047 0 0 0 .221-.213.784.784 0 0 0 .143-.476.87.87 0 0 0-.1-.423.747.747 0 0 0-.314-.3 1.315 1.315 0 0 0-.392-.119L65.108.3zm1.014.592.375.015a.537.537 0 0 1 .232.067.228.228 0 0 1 .1.1.4.4 0 0 1 .033.168.544.544 0 0 1-.04.224.286.286 0 0 1-.116.135.613.613 0 0 1-.206.079l-.325.02h-.5V.9zm.172 1.4.379.018a.728.728 0 0 1 .238.064.433.433 0 0 1 .187.165.639.639 0 0 1 .05.285.52.52 0 0 1-.049.25.486.486 0 0 1-.158.17.706.706 0 0 1-.277.1l-.48.03h-.514V2.289z" transform="translate(-31.94 -.15)" style="fill:#003279"/>
        <path data-name="패스 1360" d="M70.683 2.307a1.526 1.526 0 0 0-.374 1.077 1.424 1.424 0 0 0 .391 1.062 1.488 1.488 0 0 0 1.073.377 1.886 1.886 0 0 0 .506-.068l.529-.181-.008-.065V3.82l-.182.142a1.2 1.2 0 0 1-.35.188 1.351 1.351 0 0 1-.5.1 1.074 1.074 0 0 1-.328-.05.707.707 0 0 1-.249-.146.687.687 0 0 1-.172-.256 1.05 1.05 0 0 1-.048-.28h1.888v-.337a1.343 1.343 0 0 0-.312-.941 1.141 1.141 0 0 0-.879-.34 1.289 1.289 0 0 0-.985.406m.966.142a.567.567 0 0 1 .445.159.705.705 0 0 1 .135.378h-1.248a.68.68 0 0 1 .181-.357.64.64 0 0 1 .486-.18" transform="translate(-35.096 -.949)" style="fill:#003279"/>
        <path data-name="패스 1361" d="M77.028 1.97a1.063 1.063 0 0 0-.365.192.8.8 0 0 0-.228.287.818.818 0 0 0-.075.342.757.757 0 0 0 .163.493.986.986 0 0 0 .533.3l.279.063.239.047a.68.68 0 0 1 .294.114.211.211 0 0 1 .056.162.227.227 0 0 1-.113.216.824.824 0 0 1-.4.081 1.283 1.283 0 0 1-.449-.088 1.648 1.648 0 0 1-.432-.239l-.156-.119-.021.2v.557l.051.019.423.157a2.016 2.016 0 0 0 .553.073 1.366 1.366 0 0 0 .858-.249.8.8 0 0 0 .334-.66.724.724 0 0 0-.192-.524 1.01 1.01 0 0 0-.514-.267l-.518-.106a.719.719 0 0 1-.278-.121.234.234 0 0 1 .051-.365.711.711 0 0 1 .356-.082 1.305 1.305 0 0 1 .438.082 1.585 1.585 0 0 1 .382.2l.15.118.027-.193v-.53l-.055-.027A1.933 1.933 0 0 0 78 1.961a2.138 2.138 0 0 0-.494-.06 1.6 1.6 0 0 0-.479.069" transform="translate(-38.111 -.949)" style="fill:#003279"/>
        <path data-name="패스 1362" d="M82.212.552h-.532V1.3h-.293v.556h.293v1.291a1.054 1.054 0 0 0 .237.759.911.911 0 0 0 .677.243l.276-.021.361-.071v-.593l-.153.038-.162.047-.2.027a.563.563 0 0 1-.237-.035.215.215 0 0 1-.1-.1.427.427 0 0 1-.055-.179l-.009-.314v-1.1h.918V1.3h-.918V.552z" transform="translate(-40.625 -.276)" style="fill:#003279"/>
        <path data-name="패스 1363" d="M89.827.286a1.568 1.568 0 0 0-.567.369 1.669 1.669 0 0 0-.373.608 2.467 2.467 0 0 0-.124.8 2.393 2.393 0 0 0 .132.831 1.577 1.577 0 0 0 .374.6 1.459 1.459 0 0 0 .569.358 2.229 2.229 0 0 0 .717.112l.385-.035.318-.077.284-.107.286-.13v-.7h-.164l-.029.026a1.7 1.7 0 0 1-.514.322 1.6 1.6 0 0 1-.591.107 1.178 1.178 0 0 1-.423-.077.888.888 0 0 1-.344-.233 1.135 1.135 0 0 1-.235-.4 1.712 1.712 0 0 1-.092-.6 1.861 1.861 0 0 1 .085-.587 1.108 1.108 0 0 1 .229-.408.92.92 0 0 1 .343-.241 1.147 1.147 0 0 1 .435-.079 1.545 1.545 0 0 1 .569.1 1.939 1.939 0 0 1 .539.328l.029.024h.164V.5l-.054-.022a3.143 3.143 0 0 0-.637-.246 2.54 2.54 0 0 0-.582-.069 2.056 2.056 0 0 0-.729.124" transform="translate(-44.307 -.081)" style="fill:#003279"/>
        <path data-name="패스 1364" d="M96.732 2.139a2.055 2.055 0 0 0-.331.2v-.296h-.626v2.789h.625V2.947a1.845 1.845 0 0 1 .312-.2.814.814 0 0 1 .353-.08l.207.01.181.032.113.018.028-.111v-.531l-.237-.035-.178-.007a1.08 1.08 0 0 0-.447.1" transform="translate(-47.808 -1.02)" style="fill:#003279"/>
        <path data-name="패스 1365" d="M100.184 2.307a1.533 1.533 0 0 0-.371 1.077 1.422 1.422 0 0 0 .389 1.063 1.5 1.5 0 0 0 1.074.377 1.935 1.935 0 0 0 .51-.068l.527-.181-.006-.065v-.69l-.182.142a1.2 1.2 0 0 1-.351.188 1.343 1.343 0 0 1-.5.1 1.04 1.04 0 0 1-.33-.051.682.682 0 0 1-.251-.146.672.672 0 0 1-.172-.256.931.931 0 0 1-.049-.28h1.887v-.336a1.338 1.338 0 0 0-.311-.941 1.145 1.145 0 0 0-.881-.34 1.288 1.288 0 0 0-.985.406m.968.142a.564.564 0 0 1 .444.159.66.66 0 0 1 .133.378h-1.247a.7.7 0 0 1 .183-.357.647.647 0 0 1 .487-.18" transform="translate(-49.823 -.949)" style="fill:#003279"/>
        <path data-name="패스 1366" d="M108.184 0h-.532v1.085c-.1-.042-.215-.087-.215-.087a1.52 1.52 0 0 0-.389-.047 1.189 1.189 0 0 0-.881.395 1.466 1.466 0 0 0-.275.47 1.818 1.818 0 0 0-.1.621 1.677 1.677 0 0 0 .3 1.05.976.976 0 0 0 .818.4 1.216 1.216 0 0 0 .484-.1 1.7 1.7 0 0 0 .262-.168v.2h.626V0zm-1.6 3.078a1.177 1.177 0 0 1-.142-.646 1.037 1.037 0 0 1 .182-.66.613.613 0 0 1 .5-.218l.286.027.243.084v1.357a1.562 1.562 0 0 1-.3.178.88.88 0 0 1-.341.073.477.477 0 0 1-.431-.2" transform="translate(-52.808)" style="fill:#003279"/>
        <path data-name="패스 1367" d="M112.716.268h-.583v.645h.68V.268zm-.026.888h-.53v2.79h.625v-2.79z" transform="translate(-55.973 -.134)" style="fill:#003279"/>
        <path data-name="패스 1368" d="M115.2.552h-.53V1.3h-.3v.556h.3v1.291a1.068 1.068 0 0 0 .234.759.912.912 0 0 0 .678.243l.278-.021.358-.071v-.593l-.154.038-.16.047-.2.027a.559.559 0 0 1-.237-.035.219.219 0 0 1-.1-.1.457.457 0 0 1-.055-.179l-.01-.314v-1.1h.918V1.3h-.918V.552z" transform="translate(-57.091 -.276)" style="fill:#003279"/>
        <path data-name="패스 1369" d="M122.121.3h-.095v3.663h.654v-1.29h.365a1.951 1.951 0 0 0 .651-.1 1.269 1.269 0 0 0 .458-.292 1.076 1.076 0 0 0 .245-.373 1.226 1.226 0 0 0 .09-.464 1.138 1.138 0 0 0-.122-.544 1.068 1.068 0 0 0-.339-.366 1.282 1.282 0 0 0-.414-.178 2.4 2.4 0 0 0-.551-.056zm.921.592.339.03a.629.629 0 0 1 .225.091.409.409 0 0 1 .154.174.6.6 0 0 1 .054.27.648.648 0 0 1-.04.242.562.562 0 0 1-.134.2.555.555 0 0 1-.24.134 1.641 1.641 0 0 1-.426.045h-.293V.894z" transform="translate(-60.911 -.151)" style="fill:#003279"/>
        <path data-name="패스 1370" d="m128.142 1.945-.454.094V2.687l.156-.04.419-.129.365-.042.259.018.188.059a.3.3 0 0 1 .112.117.432.432 0 0 1 .037.182l-.621.049a2.047 2.047 0 0 0-.6.149.913.913 0 0 0-.4.323.933.933 0 0 0-.143.534.879.879 0 0 0 .272.664.932.932 0 0 0 .663.261l.355-.04.268-.1.205-.121h.005v.191h.628V2.9a1.1 1.1 0 0 0-.086-.46.757.757 0 0 0-.254-.316.991.991 0 0 0-.385-.172 2.4 2.4 0 0 0-.5-.047zm.065 2.2a.322.322 0 0 1-.1-.265.322.322 0 0 1 .086-.241.615.615 0 0 1 .264-.143l.411-.065.364-.028v.569l-.295.183a.893.893 0 0 1-.382.081.547.547 0 0 1-.348-.09" transform="translate(-63.625 -.95)" style="fill:#003279"/>
        <path data-name="패스 1371" d="M134.342 2.139a2.056 2.056 0 0 0-.331.2v-.296h-.627v2.789h.627V2.947a1.739 1.739 0 0 1 .313-.2.79.79 0 0 1 .352-.08l.206.01.295.05.027-.111v-.531l-.24-.035-.175-.007a1.081 1.081 0 0 0-.447.1" transform="translate(-66.581 -1.02)" style="fill:#003279"/>
        <path data-name="패스 1372" d="M138.414.552h-.532V1.3h-.3v.556h.3v1.291a1.066 1.066 0 0 0 .234.759.917.917 0 0 0 .678.243l.277-.021.358-.071-.005-.078v-.515l-.153.038-.162.047-.2.027a.561.561 0 0 1-.236-.035.207.207 0 0 1-.1-.1.422.422 0 0 1-.054-.179l-.012-.314v-1.1h.918V1.3h-.918V.552z" transform="translate(-68.678 -.276)" style="fill:#003279"/>
        <path data-name="패스 1373" d="M143.308 2a1.916 1.916 0 0 0-.29.183v-.211h-.627v2.789h.627v-1.98a1.769 1.769 0 0 1 .322-.19.8.8 0 0 1 .337-.081.6.6 0 0 1 .246.041.239.239 0 0 1 .124.106.477.477 0 0 1 .066.208l.022.322v1.574h.626v-1.78a1.158 1.158 0 0 0-.246-.794.906.906 0 0 0-.715-.287 1.243 1.243 0 0 0-.489.1" transform="translate(-71.077 -.949)" style="fill:#003279"/>
        <path data-name="패스 1374" d="M148.38 2.307a1.527 1.527 0 0 0-.375 1.077 1.416 1.416 0 0 0 .392 1.063 1.494 1.494 0 0 0 1.073.377 1.94 1.94 0 0 0 .511-.068l.524-.181V3.82l-.182.142a1.255 1.255 0 0 1-.35.188 1.353 1.353 0 0 1-.5.1 1.064 1.064 0 0 1-.334-.051.7.7 0 0 1-.252-.146.684.684 0 0 1-.17-.256.943.943 0 0 1-.049-.28h1.887v-.336a1.336 1.336 0 0 0-.312-.941 1.138 1.138 0 0 0-.88-.34 1.283 1.283 0 0 0-.983.406m.964.142a.563.563 0 0 1 .445.159.67.67 0 0 1 .133.378h-1.243a.683.683 0 0 1 .178-.357.645.645 0 0 1 .487-.18" transform="translate(-73.879 -.949)" style="fill:#003279"/>
        <path data-name="패스 1375" d="M154.918 2.139a1.846 1.846 0 0 0-.328.2v-.296h-.629v2.789h.629V2.947a1.707 1.707 0 0 1 .308-.2.819.819 0 0 1 .354-.08l.209.01.179.032.112.018.028-.111v-.531l-.237-.035-.179-.007a1.075 1.075 0 0 0-.446.1" transform="translate(-76.852 -1.02)" style="fill:#003279"/>
        <path data-name="사각형 459452" transform="translate(41.618 6.631)" style="fill:#0e1b45" d="M0 0h1.847v10.552H0z"/>
        <path data-name="패스 1376" d="M64.812 19.143h1.917v2.794l-.026.014a5.746 5.746 0 0 1-2.1.423h-.008c-2.263 0-3.447-1.828-3.45-4.067 0-2.689 1.862-3.953 4.151-3.953a9.883 9.883 0 0 1 2.888.459v-1.375a10.87 10.87 0 0 0-3.284-.508c-3.817 0-6.006 2.3-6.011 5.444a5.186 5.186 0 0 0 5.467 5.414 19.652 19.652 0 0 0 4.217-.526V17.97h-3.761z" transform="translate(-29.397 -6.454)" style="fill:#0e1b45"/>
        <path data-name="패스 1377" d="M44.34 17.334c-1.729-.612-2.957-.942-2.957-1.767s1.405-1.215 2.584-1.215a12.963 12.963 0 0 1 2.956.443V13.38a13.523 13.523 0 0 0-3.256-.416c-2.49 0-4.559 1.055-4.559 2.971 0 1.468 1.265 2.135 3.381 2.849 1.752.593 3.209 1.01 3.209 2.033 0 .945-1.443 1.556-2.853 1.556a11.973 11.973 0 0 1-3.453-.642v1.576a18.077 18.077 0 0 0 3.887.483c2.852 0 4.623-1.471 4.623-3.276 0-1.771-1.389-2.41-3.561-3.18" transform="translate(-19.522 -6.471)" style="fill:#0e1b45"/>
        <path data-name="패스 1378" d="M107.7 23.792V13.24h-1.66v2.454h-2.24v1.166h2.24v6.932z" transform="translate(-51.813 -6.609)" style="fill:#0e1b45"/>
        <path data-name="패스 1379" d="M93.5 18.215a3.272 3.272 0 0 1-.8.932 2.783 2.783 0 0 1-1.52.621v1.2a4.778 4.778 0 0 0 2.8-1.129 5.1 5.1 0 0 0 .78-.994l.039-.064.039.064a4.813 4.813 0 0 0 .779.994 4.77 4.77 0 0 0 2.8 1.131v-1.2a2.794 2.794 0 0 1-1.522-.621 3.251 3.251 0 0 1-.8-.932 3.367 3.367 0 0 1-.421-1.008 4.556 4.556 0 0 1-.129-1.091v-2.671h-1.498v2.668a4.636 4.636 0 0 1-.127 1.091 3.534 3.534 0 0 1-.423 1.008" transform="translate(-45.511 -6.712)" style="fill:#0e1b45"/>
        <path data-name="사각형 459453" transform="translate(80.146 11.609)" style="fill:#0e1b45" d="M0 0h9.724v1.165H0z"/>
        <path data-name="패스 1380" d="m165.385 16.289.03-.027.03.027c1.25 1.159 3.7 1.232 4.218 1.229h.057v-1.031c-.9-.11-2.939-.279-3.553-1.8l-.029-.073h3.607v-1.166h-8.661v1.166h3.6l-.026.073c-.616 1.522-2.655 1.69-3.55 1.8v1.031h.051c.522 0 2.969-.07 4.222-1.229" transform="translate(-80.408 -6.713)" style="fill:#0e1b45"/>
        <path data-name="패스 1381" d="M138.966 13.594v5.214a1.161 1.161 0 0 0 1.332 1.28h1.929v2.57H138.2v1.166h9.72v-1.166h-4.086v-2.57h3.246v-6.494h-1.6v2.32h-4.91v-2.32zm1.6 3.469h4.9v1.876h-4.368a.536.536 0 0 1-.419-.13.688.688 0 0 1-.117-.466z" transform="translate(-68.983 -6.786)" style="fill:#0e1b45"/>
        <path data-name="패스 1382" d="M125.156 22.77V21.6h-9.722v1.17h4.032v.589h-3.43v1.15h6.86v.591h-6.857v1.589a1.16 1.16 0 0 0 1.326 1.281h7.183v-1.152h-6.591a.259.259 0 0 1-.206-.064.338.338 0 0 1-.056-.229v-.279h6.86v-2.887h-3.43v-.589z" transform="translate(-57.621 -10.785)" style="fill:#0e1b45"/>
        <path data-name="패스 1383" d="M121.259 12.017c-2.462 0-3.908 1-3.908 2.258s1.446 2.258 3.908 2.258 3.91-1 3.91-2.258-1.445-2.258-3.91-2.258m0 3.443c-1.423 0-2.26-.53-2.26-1.185s.837-1.184 2.26-1.184 2.26.53 2.26 1.184-.836 1.185-2.26 1.185" transform="translate(-58.578 -5.999)" style="fill:#0e1b45"/>
        <path data-name="패스 1384" d="M165.833 26.652c-2.463 0-3.909 1.032-3.909 2.325s1.446 2.326 3.909 2.326 3.91-1.034 3.91-2.326-1.446-2.325-3.91-2.325m0 3.576c-1.422 0-2.261-.559-2.261-1.251s.839-1.252 2.261-1.252 2.26.56 2.26 1.252-.836 1.251-2.26 1.251" transform="translate(-80.827 -13.304)" style="fill:#0e1b45"/>
    </g>
</svg>
