<svg xmlns="http://www.w3.org/2000/svg" width="104.846" height="21" viewBox="0 0 104.846 21">
    <defs>
        <clipPath id="tbzi4t2lia">
            <path data-name="사각형 459454" style="fill:none" d="M0 0h104.846v21H0z"/>
        </clipPath>
    </defs>
    <g data-name="그룹 622924" style="clip-path:url(#tbzi4t2lia)">
        <path data-name="패스 1353" d="M0 19.64a13.1 13.1 0 0 0 4.9 2c3.684.773 7.974.523 8-2.545V16.66H9.928v2.65c-1.921.17-3.628-.81-3.74-2.661A2.724 2.724 0 0 1 7.6 14.083c1.545-.89 4.338-.814 6.51.354a5.841 5.841 0 0 1 .192 10.42c-4.861 2.732-12.543.777-14.306 0z" transform="translate(0 -5.604)" style="fill:#003174"/>
        <path data-name="패스 1354" d="M16.669 7.776c-4.712-2.35-9.741-1.706-11.759-.1-2.248 1.794-2.294 4.764-.659 6.214C-.368 12.325-.405 8.206.854 6.217 2.9 2.97 9.911 1.427 16.669 4.035z" transform="translate(-.062 -1.13)" style="fill:#e60c19"/>
        <path data-name="패스 1355" d="M42.523.3h-.638l-1.049 1.71L39.789.3h-.859l1.522 2.474v1.8h.76V2.717C41.247 2.664 42.724.3 42.724.3z" transform="translate(-16.183 -.125)" style="fill:#003279"/>
        <path data-name="패스 1356" d="M45.149 2.368a1.836 1.836 0 0 0-.4 1.243 1.831 1.831 0 0 0 .4 1.242 1.41 1.41 0 0 0 1.1.467 1.391 1.391 0 0 0 1.1-.467 1.8 1.8 0 0 0 .41-1.242 1.8 1.8 0 0 0-.41-1.243 1.393 1.393 0 0 0-1.1-.467 1.411 1.411 0 0 0-1.1.467M45.7 4.4a1.266 1.266 0 0 1-.205-.789 1.275 1.275 0 0 1 .2-.8.749.749 0 0 1 1.1 0 1.286 1.286 0 0 1 .205.8 1.275 1.275 0 0 1-.2.789.733.733 0 0 1-1.1 0" transform="translate(-18.601 -.79)" style="fill:#003279"/>
        <path data-name="패스 1357" d="M53.49 2.042h-.621v2.309a1.925 1.925 0 0 1-.375.223 1.008 1.008 0 0 1-.392.093.748.748 0 0 1-.3-.043.31.31 0 0 1-.14-.132.566.566 0 0 1-.078-.235l-.02-.379V2.042h-.734v2.079a1.324 1.324 0 0 0 .3.93 1.067 1.067 0 0 0 .829.328 1.356 1.356 0 0 0 .57-.119 2.721 2.721 0 0 0 .338-.212V5.3h.73V2.042z" transform="translate(-21.131 -.849)" style="fill:#003279"/>
        <path data-name="패스 1358" d="M57.821 2.155a2.552 2.552 0 0 0-.384.229v-.341h-.729V5.3h.729V3.1a2.039 2.039 0 0 1 .363-.229.956.956 0 0 1 .412-.093l.241.012.212.037.131.021.033-.13v-.627l-.279-.041-.209-.008a1.279 1.279 0 0 0-.521.112" transform="translate(-23.574 -.85)" style="fill:#003279"/>
        <path data-name="패스 1359" d="M64.094.3h-.108v4.272h1.547a2.773 2.773 0 0 0 .721-.08 1.544 1.544 0 0 0 .54-.275 1.181 1.181 0 0 0 .338-.418 1.335 1.335 0 0 0 .125-.581A1.153 1.153 0 0 0 67 2.449a1.217 1.217 0 0 0-.507-.323 1.221 1.221 0 0 0 .258-.248.914.914 0 0 0 .167-.556A1.015 1.015 0 0 0 66.8.829a.872.872 0 0 0-.366-.346 1.534 1.534 0 0 0-.459-.146L65.295.3zm1.183.691.438.018a.626.626 0 0 1 .267.077.266.266 0 0 1 .118.114.466.466 0 0 1 .038.2.635.635 0 0 1-.047.261.334.334 0 0 1-.135.158.715.715 0 0 1-.24.092l-.379.023h-.584V.992zm.2 1.628.442.021a.849.849 0 0 1 .278.074.505.505 0 0 1 .218.192.745.745 0 0 1 .058.333.607.607 0 0 1-.057.292.567.567 0 0 1-.185.2.823.823 0 0 1-.324.116l-.56.035h-.6V2.62z" transform="translate(-26.599 -.125)" style="fill:#003279"/>
        <path data-name="패스 1360" d="M70.745 2.374a1.78 1.78 0 0 0-.436 1.256 1.661 1.661 0 0 0 .457 1.24 1.736 1.736 0 0 0 1.252.44 2.2 2.2 0 0 0 .59-.079l.618-.212-.006-.076v-.8l-.213.166a1.4 1.4 0 0 1-.408.219 1.577 1.577 0 0 1-.581.116 1.253 1.253 0 0 1-.39-.059.824.824 0 0 1-.291-.17.8.8 0 0 1-.2-.3 1.225 1.225 0 0 1-.056-.327h2.2v-.394a1.567 1.567 0 0 0-.363-1.1 1.331 1.331 0 0 0-1.026-.4 1.5 1.5 0 0 0-1.149.473m1.127.166a.662.662 0 0 1 .519.185.823.823 0 0 1 .158.441h-1.454a.793.793 0 0 1 .207-.409.747.747 0 0 1 .567-.21" transform="translate(-29.228 -.79)" style="fill:#003279"/>
        <path data-name="패스 1361" d="M77.141 1.981a1.241 1.241 0 0 0-.426.224.939.939 0 0 0-.266.335.955.955 0 0 0-.087.4.883.883 0 0 0 .19.576 1.15 1.15 0 0 0 .622.349l.325.074.279.054a.793.793 0 0 1 .343.133.246.246 0 0 1 .065.189.265.265 0 0 1-.132.252.962.962 0 0 1-.471.095 1.5 1.5 0 0 1-.524-.1 1.923 1.923 0 0 1-.5-.279l-.182-.138-.025.228v.65l.06.022.494.183a2.352 2.352 0 0 0 .646.085 1.593 1.593 0 0 0 1-.29.936.936 0 0 0 .39-.77.845.845 0 0 0-.224-.612 1.178 1.178 0 0 0-.6-.311l-.6-.124a.839.839 0 0 1-.322-.133.242.242 0 0 1-.077-.2.242.242 0 0 1 .136-.228.83.83 0 0 1 .415-.1 1.523 1.523 0 0 1 .511.1 1.849 1.849 0 0 1 .445.234l.175.138.032-.225v-.619l-.064-.031a2.255 2.255 0 0 0-.487-.172 2.494 2.494 0 0 0-.582-.07 1.866 1.866 0 0 0-.559.08" transform="translate(-31.739 -.79)" style="fill:#003279"/>
        <path data-name="패스 1362" d="M82.349.552h-.621v.871h-.342v.649h.342V3.58a1.23 1.23 0 0 0 .272.885 1.062 1.062 0 0 0 .789.283l.322-.025.421-.082-.005-.091v-.6l-.179.044-.189.054-.235.032a.656.656 0 0 1-.276-.04.251.251 0 0 1-.116-.112.5.5 0 0 1-.064-.209l-.011-.366V2.072h1.07v-.649h-1.07V.552z" transform="translate(-33.832 -.23)" style="fill:#003279"/>
        <path data-name="패스 1363" d="M90 .307a1.829 1.829 0 0 0-.661.43 1.947 1.947 0 0 0-.435.709 2.878 2.878 0 0 0-.145.935 2.792 2.792 0 0 0 .154.969 1.839 1.839 0 0 0 .436.7 1.7 1.7 0 0 0 .664.417 2.6 2.6 0 0 0 .836.13l.449-.04.37-.09.332-.124.334-.151v-.815h-.192l-.033.03a1.986 1.986 0 0 1-.6.375 1.871 1.871 0 0 1-.689.125 1.375 1.375 0 0 1-.494-.089 1.036 1.036 0 0 1-.4-.272 1.324 1.324 0 0 1-.275-.465 2 2 0 0 1-.108-.7 2.171 2.171 0 0 1 .1-.685 1.293 1.293 0 0 1 .267-.476 1.073 1.073 0 0 1 .4-.281 1.339 1.339 0 0 1 .51-.088 1.8 1.8 0 0 1 .664.12 2.262 2.262 0 0 1 .629.383l.033.027h.192v-.82L92.276.53a3.666 3.666 0 0 0-.743-.287 2.963 2.963 0 0 0-.679-.081A2.4 2.4 0 0 0 90 .307" transform="translate(-36.899 -.068)" style="fill:#003279"/>
        <path data-name="패스 1364" d="M96.891 2.155a2.4 2.4 0 0 0-.386.229v-.341h-.73V5.3h.73V3.1a2.153 2.153 0 0 1 .363-.229.95.95 0 0 1 .412-.093l.241.012.211.037.132.021.032-.13v-.627l-.276-.041-.208-.008a1.26 1.26 0 0 0-.522.112" transform="translate(-39.814 -.85)" style="fill:#003279"/>
        <path data-name="패스 1365" d="M100.245 2.374a1.789 1.789 0 0 0-.432 1.256 1.659 1.659 0 0 0 .454 1.24 1.745 1.745 0 0 0 1.253.44 2.257 2.257 0 0 0 .595-.079l.615-.212-.006-.076v-.8l-.213.166a1.4 1.4 0 0 1-.41.219 1.567 1.567 0 0 1-.581.116 1.213 1.213 0 0 1-.385-.059.8.8 0 0 1-.293-.17.784.784 0 0 1-.2-.3 1.086 1.086 0 0 1-.057-.327h2.2v-.394a1.561 1.561 0 0 0-.362-1.1 1.336 1.336 0 0 0-1.028-.4 1.5 1.5 0 0 0-1.149.473m1.129.166a.658.658 0 0 1 .518.185.77.77 0 0 1 .155.441h-1.455a.813.813 0 0 1 .213-.417.754.754 0 0 1 .569-.21" transform="translate(-41.493 -.79)" style="fill:#003279"/>
        <path data-name="패스 1366" d="M108.583 0h-.621v1.266c-.118-.049-.251-.1-.251-.1a1.773 1.773 0 0 0-.453-.054 1.387 1.387 0 0 0-1.028.46 1.71 1.71 0 0 0-.321.548 2.122 2.122 0 0 0-.117.725 1.956 1.956 0 0 0 .345 1.225 1.139 1.139 0 0 0 .955.462 1.419 1.419 0 0 0 .564-.115 1.979 1.979 0 0 0 .306-.2v.228h.73V0zm-1.871 3.59a1.374 1.374 0 0 1-.166-.753 1.21 1.21 0 0 1 .213-.77.715.715 0 0 1 .585-.254l.334.031.284.1v1.582a1.822 1.822 0 0 1-.349.208 1.026 1.026 0 0 1-.4.085.556.556 0 0 1-.5-.228" transform="translate(-43.978)" style="fill:#003279"/>
        <path data-name="패스 1367" d="M112.813.268h-.68v.752h.793V.268zm-.03 1.037h-.618v3.253h.729V1.3z" transform="translate(-46.614 -.112)" style="fill:#003279"/>
        <path data-name="패스 1368" d="M115.336.552h-.618v.871h-.345v.649h.345V3.58a1.246 1.246 0 0 0 .273.885 1.064 1.064 0 0 0 .791.283l.324-.025.417-.082V3.95l-.18.044-.186.054-.237.032a.652.652 0 0 1-.276-.04.255.255 0 0 1-.116-.112.533.533 0 0 1-.064-.209l-.012-.366V2.072h1.071v-.649h-1.071V.552z" transform="translate(-47.545 -.23)" style="fill:#003279"/>
        <path data-name="패스 1369" d="M122.136.3h-.11v4.273h.763v-1.5h.425a2.276 2.276 0 0 0 .759-.111 1.481 1.481 0 0 0 .534-.341 1.255 1.255 0 0 0 .286-.435 1.431 1.431 0 0 0 .1-.541 1.328 1.328 0 0 0-.136-.645 1.247 1.247 0 0 0-.395-.427 1.5 1.5 0 0 0-.483-.207 2.8 2.8 0 0 0-.644-.066zm1.074.691.4.034a.734.734 0 0 1 .263.106.477.477 0 0 1 .18.2.7.7 0 0 1 .063.316.756.756 0 0 1-.047.283.656.656 0 0 1-.156.234.648.648 0 0 1-.28.157 1.915 1.915 0 0 1-.5.053h-.342V.993z" transform="translate(-50.727 -.126)" style="fill:#003279"/>
        <path data-name="패스 1370" d="m128.255 1.952-.53.11.005.089v.667l.182-.047.488-.151.426-.049.3.021.219.069a.346.346 0 0 1 .131.137.5.5 0 0 1 .043.213l-.725.057a2.389 2.389 0 0 0-.7.174 1.065 1.065 0 0 0-.471.377 1.089 1.089 0 0 0-.167.623 1.025 1.025 0 0 0 .317.775 1.088 1.088 0 0 0 .773.3l.414-.046.313-.114.24-.141h.006v.223h.733V3.063a1.283 1.283 0 0 0-.1-.537.883.883 0 0 0-.3-.368 1.156 1.156 0 0 0-.449-.2 2.8 2.8 0 0 0-.582-.055zm.076 2.563a.376.376 0 0 1-.116-.309.376.376 0 0 1 .1-.282.717.717 0 0 1 .308-.167l.479-.075.425-.032v.664l-.344.213a1.042 1.042 0 0 1-.445.094.638.638 0 0 1-.405-.105" transform="translate(-52.987 -.791)" style="fill:#003279"/>
        <path data-name="패스 1371" d="M134.5 2.155a2.4 2.4 0 0 0-.386.229v-.341h-.731V5.3h.731V3.1a2.029 2.029 0 0 1 .365-.229.922.922 0 0 1 .41-.093l.241.012.344.058.032-.13v-.627l-.28-.041-.2-.008a1.261 1.261 0 0 0-.522.112" transform="translate(-55.449 -.85)" style="fill:#003279"/>
        <path data-name="패스 1372" d="M138.552.552h-.621v.871h-.345v.649h.345V3.58a1.244 1.244 0 0 0 .273.885 1.07 1.07 0 0 0 .791.283l.324-.025.417-.082-.006-.091v-.6l-.178.044-.189.054-.234.032a.655.655 0 0 1-.276-.04.242.242 0 0 1-.117-.112.492.492 0 0 1-.062-.209l-.013-.366V2.072h1.071v-.649h-1.072V.552z" transform="translate(-57.195 -.23)" style="fill:#003279"/>
        <path data-name="패스 1373" d="M143.461 2.02a2.236 2.236 0 0 0-.339.213v-.25h-.731v3.254h.731V2.928a2.064 2.064 0 0 1 .375-.222.938.938 0 0 1 .393-.094.7.7 0 0 1 .287.047.279.279 0 0 1 .145.124.556.556 0 0 1 .077.243l.026.376v1.835h.73V3.161a1.35 1.35 0 0 0-.287-.927 1.057 1.057 0 0 0-.836-.333 1.451 1.451 0 0 0-.57.119" transform="translate(-59.192 -.79)" style="fill:#003279"/>
        <path data-name="패스 1374" d="M148.443 2.374a1.782 1.782 0 0 0-.438 1.256 1.652 1.652 0 0 0 .458 1.24 1.743 1.743 0 0 0 1.252.44 2.263 2.263 0 0 0 .6-.079l.612-.212v-.876l-.213.166a1.465 1.465 0 0 1-.408.219 1.578 1.578 0 0 1-.58.116 1.242 1.242 0 0 1-.389-.059.817.817 0 0 1-.294-.17.8.8 0 0 1-.2-.3 1.1 1.1 0 0 1-.057-.327h2.2v-.394a1.559 1.559 0 0 0-.363-1.1 1.327 1.327 0 0 0-1.027-.4 1.5 1.5 0 0 0-1.147.473m1.125.166a.657.657 0 0 1 .519.185.782.782 0 0 1 .155.441h-1.45A.8.8 0 0 1 149 2.75a.752.752 0 0 1 .568-.21" transform="translate(-61.526 -.79)" style="fill:#003279"/>
        <path data-name="패스 1375" d="M155.077 2.155a2.154 2.154 0 0 0-.383.229v-.341h-.733V5.3h.733V3.1a1.992 1.992 0 0 1 .359-.229.955.955 0 0 1 .413-.093l.244.012.209.037.131.021.033-.13v-.627l-.277-.041-.209-.008a1.255 1.255 0 0 0-.52.112" transform="translate(-64.002 -.85)" style="fill:#003279"/>
        <path data-name="사각형 459452" transform="translate(48.554 7.736)" style="fill:#0e1b45" d="M0 0h2.154v12.31H0z"/>
        <path data-name="패스 1376" d="M65.8 20.178h2.236v3.259l-.03.016a6.7 6.7 0 0 1-2.452.493h-.009c-2.64 0-4.021-2.132-4.025-4.745 0-3.138 2.172-4.611 4.843-4.611a11.53 11.53 0 0 1 3.37.536v-1.6a12.681 12.681 0 0 0-3.833-.596c-4.453 0-7.007 2.689-7.013 6.351A6.051 6.051 0 0 0 65.27 25.6a22.927 22.927 0 0 0 4.92-.614V18.81H65.8z" transform="translate(-24.482 -5.375)" style="fill:#0e1b45"/>
        <path data-name="패스 1377" d="M45.212 18.063c-2.018-.714-3.45-1.1-3.45-2.062s1.64-1.418 3.015-1.418a15.123 15.123 0 0 1 3.449.517v-1.651a15.777 15.777 0 0 0-3.8-.485c-2.905 0-5.318 1.231-5.318 3.466 0 1.713 1.476 2.491 3.944 3.324 2.044.692 3.744 1.178 3.744 2.372 0 1.1-1.683 1.815-3.329 1.815a13.968 13.968 0 0 1-4.029-.748v1.839a21.09 21.09 0 0 0 4.535.563c3.327 0 5.393-1.716 5.393-3.822 0-2.067-1.621-2.811-4.155-3.71" transform="translate(-16.258 -5.389)" style="fill:#0e1b45"/>
        <path data-name="패스 1378" d="M108.347 25.55V13.24h-1.933v2.86H103.8v1.36h2.614v8.09z" transform="translate(-43.15 -5.504)" style="fill:#0e1b45"/>
        <path data-name="패스 1379" d="M93.885 19.009a3.818 3.818 0 0 1-.938 1.087 3.247 3.247 0 0 1-1.773.725v1.4a5.574 5.574 0 0 0 3.262-1.321 5.945 5.945 0 0 0 .91-1.16l.045-.075.045.075a5.615 5.615 0 0 0 .909 1.16 5.565 5.565 0 0 0 3.261 1.32v-1.4a3.26 3.26 0 0 1-1.776-.72 3.793 3.793 0 0 1-.934-1.087 3.928 3.928 0 0 1-.491-1.176 5.315 5.315 0 0 1-.15-1.273v-3.117h-1.729v3.113a5.408 5.408 0 0 1-.148 1.273 4.123 4.123 0 0 1-.493 1.176" transform="translate(-37.901 -5.59)" style="fill:#0e1b45"/>
        <path data-name="사각형 459453" transform="translate(93.501 13.543)" style="fill:#0e1b45" d="M0 0h11.345v1.36H0z"/>
        <path data-name="패스 1380" d="m166.1 16.762.035-.031.034.031c1.458 1.353 4.314 1.437 4.921 1.434h.066v-1.2c-1.052-.129-3.429-.325-4.145-2.1l-.033-.085h4.208v-1.363h-10.1v1.36h4.205l-.03.085c-.718 1.775-3.1 1.972-4.141 2.1v1.2h.06c.609 0 3.464-.081 4.925-1.434" transform="translate(-66.963 -5.591)" style="fill:#0e1b45"/>
        <path data-name="패스 1381" d="M139.094 13.594v6.083a1.354 1.354 0 0 0 1.554 1.493h2.252v3h-4.7v1.36h11.34v-1.36h-4.77v-3h3.787v-7.576h-1.868V16.3h-5.723v-2.706zm1.872 4.047h5.721v2.189h-5.1a.625.625 0 0 1-.488-.152.8.8 0 0 1-.137-.544z" transform="translate(-57.449 -5.651)" style="fill:#0e1b45"/>
        <path data-name="패스 1382" d="M126.776 22.965V21.6h-11.342v1.36h4.7v.687h-4v1.342h8v.685h-8v1.854a1.353 1.353 0 0 0 1.547 1.495h8.381v-1.34h-7.689a.3.3 0 0 1-.241-.074.394.394 0 0 1-.065-.268v-.321h8v-3.368h-4v-.687z" transform="translate(-47.986 -8.982)" style="fill:#0e1b45"/>
        <path data-name="패스 1383" d="M121.91 12.017c-2.872 0-4.559 1.17-4.559 2.635s1.687 2.634 4.559 2.634 4.562-1.17 4.562-2.634-1.686-2.635-4.562-2.635m0 4.017c-1.66 0-2.637-.618-2.637-1.382s.977-1.382 2.637-1.382 2.637.618 2.637 1.382-.975 1.382-2.637 1.382" transform="translate(-48.783 -4.996)" style="fill:#0e1b45"/>
        <path data-name="패스 1384" d="M166.484 26.652c-2.874 0-4.56 1.2-4.56 2.713s1.687 2.714 4.56 2.714 4.562-1.207 4.562-2.714-1.687-2.713-4.562-2.713m0 4.172c-1.659 0-2.638-.652-2.638-1.46s.979-1.461 2.638-1.461 2.637.653 2.637 1.461-.976 1.46-2.637 1.46" transform="translate(-67.312 -11.08)" style="fill:#0e1b45"/>
    </g>
</svg>
