<svg xmlns="http://www.w3.org/2000/svg" width="60" height="60" viewBox="0 0 60 60">
    <path style="fill:#e22c24;opacity:.002" d="M0 0h60v60H0z"/>
    <g transform="translate(-270 -909)">
        <rect data-name="사각형 460900" width="39" height="49" rx="4" transform="translate(277 916)" style="fill:#6375ea"/>
        <rect data-name="사각형 460904" width="25" height="2" rx="1" transform="translate(284 937)" style="fill:#fff"/>
        <rect data-name="사각형 460905" width="8" height="2" rx="1" transform="translate(284 930)" style="fill:#fff"/>
        <rect data-name="사각형 460913" width="11.72" height="2" rx="1" transform="translate(284 944)" style="fill:#fff"/>
        <rect data-name="사각형 460914" width="12" height="2" rx="1" transform="translate(284 951)" style="fill:#fff"/>
        <g data-name="사각형 460915" transform="translate(287 912)" style="fill:#5160bf;stroke:#f6f4ff;stroke-width:2px">
            <rect width="19" height="10" rx="4" style="stroke:none"/>
            <rect x="1" y="1" width="17" height="8" rx="3" style="fill:none"/>
        </g>
    </g>
    <path data-name="합치기 9" d="M4 20a4 4 0 0 1-4-4V-3.544L4.741 0H20a4 4 0 0 1 4 4v12a4 4 0 0 1-4 4z" transform="translate(29 38.215)" style="fill:#b7b4ff"/>
    <path data-name="패스 2527" d="M6.768-4.868a2.115 2.115 0 0 1-.21.968 3.438 3.438 0 0 1-.515.752 6.145 6.145 0 0 1-.653.625 5.7 5.7 0 0 0-.625.6 1.982 1.982 0 0 0-.42.653 2.031 2.031 0 0 0-.1.907H2.231a2.91 2.91 0 0 1 .194-1.461 3.627 3.627 0 0 1 .758-1.1 5.33 5.33 0 0 1 .5-.443q.271-.21.509-.426a2.614 2.614 0 0 0 .4-.448.86.86 0 0 0 .16-.5 1.181 1.181 0 0 0-.26-.758.991.991 0 0 0-.822-.321 1.344 1.344 0 0 0-.918.31 1.251 1.251 0 0 0-.332 1.029H.35a3.456 3.456 0 0 1 .271-1.444 2.635 2.635 0 0 1 .725-.963 2.856 2.856 0 0 1 1.035-.537 4.389 4.389 0 0 1 1.211-.165 4.162 4.162 0 0 1 1.383.21 2.854 2.854 0 0 1 1 .575 2.332 2.332 0 0 1 .6.863 2.863 2.863 0 0 1 .193 1.074zM4.278 2.38H2.165V.444h2.113z" transform="translate(37.44 50.317)" style="fill:#fff"/>
</svg>
