<svg xmlns="http://www.w3.org/2000/svg" width="22.433" height="28.853" viewBox="0 0 22.433 28.853">
    <path d="M-52.64-3.952a10.064 10.064 0 0 0 3.285-.448 3.174 3.174 0 0 0 2.393-3.17 2.341 2.341 0 0 0-1.187-2.1 12.77 12.77 0 0 0-3.729-1.28l-2.895-.649a18.291 18.291 0 0 1-5.9-2.1 6.669 6.669 0 0 1-2.765-5.919 7.9 7.9 0 0 1 2.672-6.1q2.672-2.431 7.849-2.431a11.933 11.933 0 0 1 7.375 2.292 8.182 8.182 0 0 1 3.2 6.652h-5.492a3.923 3.923 0 0 0-2.152-3.507 7.218 7.218 0 0 0-3.321-.687 6.2 6.2 0 0 0-3.525.891 2.836 2.836 0 0 0-1.317 2.486 2.353 2.353 0 0 0 1.3 2.189 15.9 15.9 0 0 0 3.56 1.133l4.713 1.132a12.185 12.185 0 0 1 4.676 1.986A6.687 6.687 0 0 1-41.451-8a7.882 7.882 0 0 1-2.867 6.225q-2.867 2.48-8.099 2.48-5.344 0-8.405-2.44a8.108 8.108 0 0 1-3.062-6.708h5.455a5.616 5.616 0 0 0 1.021 2.8q1.391 1.691 4.768 1.691z" transform="translate(63.884 28.147)" style="fill:#2b6ff0"/>
</svg>
