<svg xmlns="http://www.w3.org/2000/svg" width="25.42" height="28.778" viewBox="0 0 25.42 28.778">
    <path d="M-20.447-.668A10.441 10.441 0 0 1-26.014.724a11.566 11.566 0 0 1-8.906-3.767q-3.618-3.785-3.618-10.357 0-6.643 3.655-10.65a12.457 12.457 0 0 1 9.667-4.008 12.636 12.636 0 0 1 8.377 2.644 9.831 9.831 0 0 1 3.627 6.6h-5.622a5.355 5.355 0 0 0-3.173-3.915 7.793 7.793 0 0 0-3.136-.612 6.81 6.81 0 0 0-5.427 2.5q-2.125 2.5-2.125 7.505 0 5.047 2.3 7.144A7.555 7.555 0 0 0-25.16-4.1a6.759 6.759 0 0 0 4.713-1.661 7.179 7.179 0 0 0 2.264-4.351h-6.327v-4.564h11.393V0H-16.9l-.575-3.414a13.1 13.1 0 0 1-2.972 2.746z" transform="translate(38.538 28.055)" style="fill:#2b6ff0"/>
</svg>
