<svg xmlns="http://www.w3.org/2000/svg" width="80" height="80" viewBox="0 0 80 80">
    <g transform="translate(0 24)">
        <circle data-name="타원 183" cx="40" cy="40" r="40" transform="translate(0 -24)" style="fill:#ffeb00"/>
        <g data-name="그룹 626091">
            <path data-name="패스 2644" d="M32.212 19.294c-4.973 0-9 3.184-9 7.113a6.934 6.934 0 0 0 4.178 6.005l-.848 3.167a.262.262 0 0 0 .065.271.249.249 0 0 0 .34.016L30.59 33.4a11.469 11.469 0 0 0 1.621.119c4.973 0 9.005-3.184 9.005-7.113s-4.032-7.113-9.005-7.113" transform="translate(-13.681 -11.374)" style="fill-rule:evenodd"/>
            <path data-name="패스 2645" d="M35.124 20.942v4.593h-3.268V8.596h2.3l.4 1.075a4.645 4.645 0 0 1 3.451-1.434c3.2 0 4.728 2.4 4.705 6.273.007 4.06-2.345 6.66-5.706 6.66a7.165 7.165 0 0 1-1.882-.224m0-9.612v7.326a9.418 9.418 0 0 0 1.053.067c2.33 0 3.227-1.636 3.227-4.212 0-2.263-.605-3.63-2.465-3.63a4.254 4.254 0 0 0-1.815.448"/>
            <path data-name="패스 2646" d="M49.844 13.37h1.86v-.4c0-1.344-.762-1.972-2.084-1.972a8.193 8.193 0 0 0-3.361.807l-.9-2.2a8.562 8.562 0 0 1 4.548-1.367c3.137 0 4.839 1.658 4.839 4.817v7.775h-2.307l-.336-1.031a6.184 6.184 0 0 1-3.63 1.367c-2.4 0-3.742-1.434-3.742-3.854 0-2.577 1.793-3.943 5.109-3.943m1.86 4.324v-2.24h-1.5c-1.681 0-2.532.605-2.532 1.815 0 .919.471 1.367 1.434 1.367a4.507 4.507 0 0 0 2.6-.941"/>
            <path data-name="패스 2647" d="M64.653 19.575c-1.143 3.047-2.509 5.265-4.5 6.5l-2.017-1.86a11.313 11.313 0 0 0 2.711-3.316L56.5 9.047l3.249-.874 2.778 9.612 2.756-9.657 3.2.9z"/>
        </g>
    </g>
</svg>
