<svg xmlns="http://www.w3.org/2000/svg" width="51" height="59" viewBox="0 0 51 59">
    <g transform="translate(-211 -508.573)">
        <rect data-name="사각형 460931" width="42" height="54" rx="4" transform="translate(211 508.573)" style="fill:#7a6fff"/>
        <g data-name="그룹 626056" transform="translate(0 -4)">
            <rect data-name="사각형 460932" width="3" height="28" rx="1.5" transform="rotate(90 -138.787 384.786)" style="fill:#fff"/>
            <rect data-name="사각형 460933" width="3" height="28" rx="1.5" transform="rotate(90 -143.787 389.786)" style="fill:#fff"/>
            <rect data-name="사각형 460934" width="3" height="13" rx="1.5" transform="rotate(90 -156.287 387.286)" style="fill:#fff"/>
            <rect data-name="사각형 460935" width="3" height="9" rx="1.5" transform="rotate(90 -163.287 390.286)" style="fill:#fff"/>
        </g>
    </g>
    <g data-name="그룹 626058" transform="translate(-167 -566)">
        <rect data-name="사각형 460937" width="3" height="9" rx="1.5" transform="rotate(135 -25.42 349.25)" style="fill:#fff"/>
        <rect data-name="사각형 460938" width="3" height="12" rx="1.5" transform="rotate(-135 228.36 266.432)" style="fill:#fff"/>
    </g>
    <g data-name="그룹 626063" transform="translate(22 29.383)">
        <circle data-name="타원 567" cx="15.5" cy="15.5" r="15.5" transform="translate(-2 -1.383)" style="fill:#ffbc00"/>
        <path data-name="합치기 1" d="M2 16a2 2 0 0 1-2-2V4.667a2 2 0 0 1 2-2h2.675L5.1.889C5.225.382 5.481 0 5.95 0h5.1c.469 0 .749.441.85.889l.425 1.778H15a2 2 0 0 1 2 2V14a2 2 0 0 1-2 2z" transform="translate(5 5.617)" style="fill:#fff"/>
        <circle data-name="타원 33" cx="3.5" cy="3.5" r="3.5" transform="translate(10 11.617)" style="fill:#ffbc00"/>
    </g>
</svg>
