<svg xmlns="http://www.w3.org/2000/svg" width="80" height="80" viewBox="0 0 80 80">
    <g transform="translate(-127.795 -122)">
        <path transform="translate(127.795 122)" style="fill:#fff" d="M0 0h80v80H0z"/>
        <rect data-name="사각형 459461" width="80" height="60" rx="8" transform="translate(127.795 127)" style="fill:#2b6ff0"/>
        <path data-name="사각형 459461" d="M4 0h24a4 4 0 0 1 4 4v2H0V4a4 4 0 0 1 4-4z" transform="translate(152.795 191)" style="fill:#2b6ff0"/>
        <g data-name="그룹 625993" transform="translate(-167.368 67.92)">
            <path data-name="합치기 3" d="M15.511 34a4 4 0 0 1-4-4v-1.312A13.982 13.982 0 0 1 8.626 27.1l-1.4.752A4.161 4.161 0 0 1 1.773 26.5l-1.238-2A3.567 3.567 0 0 1 2 19.439l1.4-.751a12 12 0 0 1 .033-3.6l-1.385-.773A3.562 3.562 0 0 1 .679 9.232l1.274-1.971a4.168 4.168 0 0 1 5.476-1.269l1.385.773a14 14 0 0 1 2.7-1.456V4a4 4 0 0 1 4-4h2.976a4 4 0 0 1 4 4v1.31a13.973 13.973 0 0 1 2.885 1.59l1.4-.751A4.161 4.161 0 0 1 32.227 7.5l1.238 1.992A3.568 3.568 0 0 1 32 14.559l-1.4.751a12 12 0 0 1-.034 3.6l1.386.774a3.563 3.563 0 0 1 1.365 5.088l-1.274 1.97a4.166 4.166 0 0 1-5.476 1.269l-1.39-.776a13.987 13.987 0 0 1-2.692 1.452V30a4 4 0 0 1-4 4z" transform="translate(318.163 72.08)" style="fill:#fff"/>
            <circle data-name="타원 526" cx="7.337" cy="7.337" r="7.337" transform="translate(327.827 81.743)" style="fill:#2b6ff0"/>
        </g>
    </g>
</svg>
