<svg id="Drawing_scale" xmlns="http://www.w3.org/2000/svg" width="640" height="640" viewBox="0 0 640 640">
  <rect id="area" width="640" height="640" fill="#fff" opacity="0"/>
  <path id="drawing_scale-2" data-name="drawing_scale" d="M-1721.5,834v-8l1,0v8Zm5.027-8.026,1-.015.14,8-1,.016Zm-10.193,7.964.14-8,1,.019-.14,8Zm15.218-8.077,1-.033.279,7.995-1,.033Zm-20.382,7.926.279-7.995,1,.036-.279,7.995Zm25.4-8.125,1-.05.419,7.989-1,.05Zm-30.565,7.885.419-7.989,1,.053-.419,7.989Zm35.583-8.172,1-.067.558,7.981-1,.067Zm-40.739,7.843.558-7.981,1,.071-.558,7.981Zm45.752-8.217,1-.085.7,7.971-1,.084Zm-50.9,7.8.7-7.972,1,.088-.7,7.971Zm55.907-8.26.995-.1.837,7.96-.995.1Zm-61.048,7.754.837-7.961.994.105-.837,7.96Zm66.046-8.3.993-.119.976,7.947-.993.119Zm-71.177,7.706.976-7.948.993.123-.976,7.947Zm76.165-8.342.99-.137,1.115,7.933-.99.136Zm-81.285,7.658,1.115-7.933.99.14-1.115,7.933Zm86.26-8.38.989-.154,1.254,7.916-.989.153Zm-91.368,7.607,1.254-7.917.988.158-1.254,7.916Zm96.33-8.417.986-.172,1.393,7.9-.986.171Zm-101.423,7.555,1.393-7.9.985.175-1.393,7.9Zm106.372-8.452.981-.189,1.531,7.876-.982.188Zm-111.448,7.5,1.531-7.877.981.192-1.531,7.877Zm116.38-8.484.978-.206,1.669,7.852-.978.205Zm-121.439,7.442,1.669-7.853.977.209-1.669,7.853Zm126.352-8.513.975-.223,1.807,7.825-.975.223Zm-131.393,7.382,1.807-7.826.974.227-1.807,7.826Zm136.287-8.539.971-.24,1.944,7.8-.971.24Zm-141.307,7.32,1.944-7.8.97.244-1.944,7.8Zm146.18-8.563.966-.257,2.08,7.764-.966.257Zm-151.177,7.255,2.081-7.765.966.261-2.08,7.764Zm156.027-8.584.962-.274,2.217,7.73-.962.274Zm-161,7.189,2.217-7.731.96.278-2.217,7.73Zm165.827-8.6.956-.291,2.352,7.694-.956.29ZM-1808,820.851l2.353-7.7.955.294-2.352,7.695Zm175.576-8.621.951-.308,2.488,7.657-.952.307Zm-180.5,7.053,2.488-7.658.95.311-2.488,7.657Zm185.271-8.636.945-.325,2.623,7.617-.946.324Zm-190.163,6.983,2.623-7.618.944.328-2.623,7.617Zm194.909-8.65.94-.341,2.757,7.575-.94.34Zm-199.772,6.911,2.758-7.576.939.344-2.757,7.575Zm204.487-8.661.934-.358,2.891,7.531-.934.357Zm-209.319,6.837,2.891-7.532.933.361-2.891,7.531Zm214-8.67.927-.374,3.024,7.484-.927.373Zm-218.8,6.761,3.024-7.486.927.378-3.024,7.485Zm223.452-8.676.921-.391,3.156,7.435-.506.215-.415.175Zm-228.216,6.683,3.156-7.436.919.393-3.156,7.435Zm232.833-8.68.914-.407,3.287,7.382-.914.406Zm-237.56,6.6,3.287-7.383.912.409-3.287,7.383Zm242.14-8.68.906-.423,3.417,7.327-.906.422Zm-246.83,6.519,3.417-7.328.905.426-3.417,7.327Zm251.374-8.677.9-.438,3.546,7.269-.9.438Zm-256.026,6.435,3.546-7.27.9.441-3.546,7.27Zm260.531-8.671.891-.454,3.673,7.21-.891.453Zm-265.143,6.348,3.674-7.21.89.457-3.674,7.21Zm269.608-8.663.883-.47,3.8,7.147-.883.469Zm-274.177,6.261,3.8-7.148.882.472-3.8,7.148Zm278.6-8.654.875-.485,3.926,7.083-.875.484Zm-283.129,6.172,3.927-7.084.873.488-3.927,7.084Zm287.51-8.642.866-.5,4.052,7.018-.866.5Zm-291.993,6.082,4.052-7.018.865.5-4.052,7.018ZM-1573,785.287l.857-.515,4.176,6.95-.858.514Zm-300.769,5.99,4.176-6.95.856.518-4.176,6.949Zm305.062-8.612.848-.53,4.3,6.879-.848.529Zm-309.453,5.9,4.3-6.88.846.532-4.3,6.879Zm313.7-8.593.839-.545,4.42,6.807-.839.544Zm-318.042,5.8,4.421-6.807.837.547-4.42,6.806Zm322.241-8.572.829-.559,4.54,6.731-.112.076-.718.483ZM-1886,783.448l-.8-.542,4.54-6.731.828.562-4.54,6.731Zm329.885-9.089.819-.574,4.658,6.653-.82.573Zm-334.926,5.607,4.658-6.653.818.576-4.658,6.652Zm339.026-8.521.808-.587,4.775,6.572-.809.587Zm-343.216,5.506,4.775-6.572.807.59-4.775,6.572Zm347.265-8.49.8-.6,4.89,6.489-.8.6Zm-351.4,5.4,4.889-6.489.8.6-4.889,6.488Zm355.4-8.458.788-.616,5,6.4-.789.615Zm-359.479,5.3,5-6.4.786.617-5,6.4Zm363.422-8.424.777-.629,5.115,6.316-.778.629Zm-367.45,5.2,5.115-6.316.775.631-5.115,6.316Zm371.338-8.387.766-.642,5.225,6.227-.766.642Zm-375.309,5.091,5.225-6.227.765.644-5.225,6.227Zm379.141-8.348.755-.655,5.334,6.136-.755.655Zm-383.053,4.984,5.334-6.136.753.657-5.334,6.136Zm386.829-8.308.744-.669,5.441,6.043-.744.668Zm-390.683,4.876,5.441-6.043.742.671-5.441,6.043Zm394.4-8.264.732-.681,5.547,5.948-.732.681ZM-1923,753.89l5.547-5.948.73.683-5.547,5.948Zm401.853-8.22.72-.694,5.65,5.851-.72.694Zm-405.585,4.657,5.651-5.851.718.7-5.651,5.851Zm409.183-8.172.708-.706,5.752,5.752-.1.1-.6.6ZM-1929.8,747.3l-.6-.6,5.752-5.752.706.708-5.752,5.752Zm415.787-8.726.7-.718,5.851,5.65-.7.718Zm-420,4.431,5.851-5.65.693.72-5.851,5.65Zm423.47-8.069.683-.731,5.948,5.547-.683.731Zm-427.011,4.316,5.948-5.547.682.732-5.948,5.547Zm430.422-8.014.671-.742,6.043,5.441-.67.743Zm-433.9,4.2,6.043-5.441.669.743-6.043,5.441Zm437.244-7.957.658-.754,6.136,5.334-.658.754Zm-440.653,4.083,6.136-5.334.656.755-6.136,5.334Zm443.934-7.9.644-.765,6.227,5.225-.644.765Zm-447.276,3.967,6.227-5.225.643.766-6.227,5.225Zm450.49-7.837.631-.776,6.316,5.114-.63.776Zm-453.763,3.849,6.316-5.114.629.777-6.316,5.115Zm456.91-7.775.617-.786,6.4,5-.617.787Zm-460.114,3.73,6.4-5q.307.395.616.788l-6.4,5Zm463.193-7.71c.2-.266.4-.53.6-.8l6.488,4.889-.6.8Zm-466.326,3.611,6.488-4.889.6.8-6.489,4.889Zm469.335-7.643.59-.808,6.572,4.775-.589.808Zm-472.4,3.491,6.572-4.775q.294.406.588.809l-6.572,4.775Zm475.335-7.576c.193-.273.384-.544.576-.818l6.653,4.658c-.191.273-.383.546-.575.818Zm-478.325,3.37,6.652-4.658c.191.274.382.546.574.819l-6.653,4.658C-1963.059,707.694-1963.249,707.422-1963.44,707.148Zm481.192-7.5c.188-.276.375-.552.562-.828l6.731,4.54-.1.142-.466.687Zm-483.7,3.853-.408-.605,6.731-4.54c.187.277.372.552.56.829l-6.731,4.54Zm486.494-8.038c.183-.28.364-.557.547-.837l6.806,4.42q-.272.419-.546.838Zm-489.742,3.126,6.806-4.42c.182.281.362.558.545.838l-6.807,4.42Q-1968.924,699-1969.2,698.584Zm492.464-7.358c.174-.275.359-.571.532-.847l6.879,4.3q-.265.424-.531.847Zm-495.228,3,6.879-4.3c.177.284.352.564.531.848l-6.88,4.3Q-1971.7,694.652-1971.96,694.228Zm497.876-7.282c.174-.286.345-.57.518-.857l6.949,4.176q-.258.429-.517.857Zm-500.564,2.878,6.949-4.176c.172.287.342.57.515.856l-6.95,4.176C-1974.305,690.4-1974.476,690.11-1974.647,689.824Zm503.137-7.2c.169-.29.334-.575.5-.865l7.017,4.052q-.25.434-.5.865Zm-505.748,2.754,7.017-4.052c.167.29.332.575.5.865l-7.018,4.052C-1976.926,685.951-1977.092,685.663-1977.258,685.374Zm508.245-7.124c.164-.293.324-.58.487-.873l7.084,3.927c-.161.291-.324.583-.486.874Zm-510.778,2.629,7.083-3.927c.162.294.322.582.486.875l-7.084,3.927Q-1979.55,681.316-1979.792,680.879Zm513.2-7.042c.159-.3.314-.585.472-.882l7.148,3.8q-.235.442-.471.882Zm-515.653,2.5,7.148-3.8c.153.289.316.594.47.883l-7.148,3.8Q-1982.012,676.783-1982.246,676.341Zm518-6.959c.154-.3.3-.59.456-.89l7.209,3.673q-.227.446-.455.89Zm-520.371,2.379,7.21-3.674c.152.3.3.592.455.891l-7.21,3.674Q-1984.395,672.207-1984.621,671.761Zm522.636-6.874c.149-.3.293-.6.441-.9l7.269,3.545q-.219.449-.44.9Zm-524.931,2.253,7.27-3.546c.147.3.291.6.439.9l-7.27,3.546Q-1986.7,667.59-1986.916,667.14Zm527.117-6.788c.144-.3.282-.6.425-.906l7.327,3.417c-.141.3-.282.6-.424.906Zm-529.331,2.128,7.327-3.417c.138.3.284.609.423.906l-7.328,3.417Q-1988.919,662.934-1989.13,662.48Zm531.436-6.7c.138-.308.271-.6.409-.913l7.382,3.287c-.136.305-.271.608-.408.913Zm-533.569,2,7.383-3.287c.137.308.27.606.408.914l-7.383,3.287C-1990.991,658.391-1991.127,658.085-1991.262,657.781Zm535.594-6.611c.133-.31.26-.609.393-.92l7.435,3.156q-.2.461-.392.92Zm-537.571,2.047-.072-.17,7.435-3.156c.128.3.262.618.391.921l-7.436,3.156Zm539.514-6.69c.128-.313.25-.613.377-.927l7.484,3.024c-.125.31-.25.618-.376.927Zm-541.551,1.749,7.484-3.024c.123.305.251.623.375.927l-7.485,3.024C-1995.026,648.895-1995.152,648.584-1995.276,648.276Zm543.413-6.428c.119-.307.242-.625.36-.933l7.531,2.891q-.179.467-.359.933Zm-545.294,1.623,7.531-2.891c.118.308.24.626.359.933l-7.532,2.891C-1996.918,644.093-1997.037,643.783-1997.156,643.471Zm547.073-6.333c.114-.31.231-.629.344-.939l7.575,2.757q-.17.47-.342.939Zm-548.869,1.5,7.575-2.757c.113.311.229.629.342.939l-7.576,2.757Q-1998.781,639.1-1998.951,638.634Zm550.565-6.237c.109-.312.219-.632.327-.945l7.616,2.623q-.162.473-.326.945Zm-552.275,1.369,7.617-2.623c.11.322.215.625.326.946l-7.618,2.623Q-2000.5,634.24-2000.662,633.767Zm553.887-6.139c.1-.315.208-.636.31-.951l7.656,2.488q-.154.476-.309.951Zm-555.513,1.242,7.657-2.488c.1.315.206.636.309.951l-7.657,2.488Q-2002.134,629.346-2002.287,628.87Zm557.041-6.04c.1-.317.2-.639.294-.956l7.694,2.352q-.145.478-.293.957Zm-558.58,1.116,7.695-2.352c.1.318.195.639.292.957l-7.7,2.353C-2003.632,624.583-2003.729,624.266-2003.826,623.946ZM-1443.8,618c.093-.32.185-.641.276-.961l7.73,2.216q-.137.481-.276.961Zm-561.476.991,7.73-2.217c.091.32.183.641.276.961l-7.731,2.217Q-2005.142,619.477-2005.278,619Zm562.833-5.84c.085-.313.176-.652.259-.966l7.764,2.08q-.129.483-.259.966Zm-564.2.865,7.765-2.081q.129.484.258.966l-7.765,2.081Q-2006.516,614.5-2006.645,614.021Zm565.472-5.737c.079-.315.164-.655.242-.97l7.8,1.944q-.12.485-.242.97Zm-566.75.738,7.8-1.944c.08.325.16.646.242.97l-7.8,1.944Q-2007.8,609.508-2007.923,609.022Zm567.937-5.632c.076-.326.15-.648.225-.975l7.825,1.807c-.075.326-.149.649-.225.975Zm-569.127.613,7.826-1.807c.075.327.149.648.224.975l-7.826,1.807C-2008.965,604.654-2009.04,604.328-2009.114,604Zm570.227-5.527c.07-.328.139-.649.208-.978l7.852,1.669q-.1.489-.207.978Zm-571.328.487,7.853-1.669c.069.329.137.65.207.978l-7.854,1.669C-2010.078,599.615-2010.147,599.29-2010.216,598.963Zm572.341-5.42c.065-.33.127-.65.191-.981l7.876,1.531q-.094.491-.19.981Zm-573.354.362,7.877-1.531c.063.331.125.651.19.981l-7.877,1.531Q-2011.134,594.4-2011.228,593.906Zm574.279-5.311c.057-.323.117-.662.174-.986l7.9,1.392c-.057.328-.115.658-.173.986Zm-575.2.236,7.9-1.393c.056.323.116.662.173.985l-7.9,1.393C-2012.037,589.486-2012.094,589.159-2012.151,588.83Zm576.041-5.2c.053-.334.1-.654.156-.988l7.915,1.254c-.051.329-.1.66-.155.988Zm-576.875.111,7.916-1.254c.051.325.1.664.156.988l-7.917,1.254C-2012.882,584.4-2012.934,584.068-2012.985,583.74Zm577.626-5.09c.046-.327.094-.664.139-.991l7.932,1.115c-.045.33-.092.661-.138.991Zm-578.371-.014,7.932-1.115c.045.327.092.664.138.991l-7.933,1.115C-2013.639,579.3-2013.685,578.965-2013.73,578.635Zm579.035-4.977c.041-.328.082-.664.121-.993l7.947.976q-.06.5-.121.993Zm-579.691-.138,7.947-.976c.04.329.08.664.121.993l-7.948.976Q-2014.327,574.016-2014.387,573.52Zm580.267-4.865c.035-.33.07-.664.1-.995l7.959.837c-.034.331-.069.664-.1.995Zm-580.835-.262,7.96-.837c.034.33.069.664.1.995l-7.961.837C-2014.886,569.056-2014.921,568.725-2014.954,568.393Zm581.323-4.75q.044-.5.087-1l7.971.7c-.028.333-.057.664-.086,1Zm-581.8-.386,7.972-.7q.042.5.086,1l-7.972.7C-2015.377,563.923-2015.405,563.589-2015.433,563.258Zm582.2-4.634c.024-.333.047-.664.069-1l7.981.558q-.034.5-.069,1Zm-582.594-.509,7.981-.558c.022.334.045.664.069,1l-7.982.558Q-2015.79,558.614-2015.824,558.115Zm582.907-4.516c.018-.335.035-.664.052-1l7.989.419q-.025.5-.052,1Zm-583.209-.633,7.99-.419c.017.335.034.664.052,1l-7.99.419C-2016.092,553.632-2016.109,553.3-2016.126,552.966Zm583.435-4.4c.012-.336.024-.663.035-1l7.995.279q-.016.5-.035,1Zm-583.649-.756,8-.279c.011.337.022.664.034,1l-8,.279C-2016.317,548.479-2016.328,548.147-2016.339,547.813Zm583.788-4.278c.006-.338.012-.662.017-1l8,.14q-.008.5-.017,1Zm-583.912-.878,8-.14c.005.328.011.672.017,1l-8,.14Q-2016.456,543.158-2016.464,542.658ZM-1432.5,538.5c0-.165,0-.335,0-.5s0-.336,0-.5h8q0,.25,0,.5c0,.167,0,.333,0,.5Zm-584,0c0-.167,0-.333,0-.5s0-.334,0-.5h8c0,.165,0,.336,0,.5s0,.335,0,.5Zm.036-5.157q.008-.5.017-1l8,.14c-.006.328-.012.671-.017,1Zm583.912-.878,8-.14q.01.5.017,1l-8,.14C-1432.54,533.127-1432.545,532.8-1432.552,532.465Zm-583.788-4.279q.016-.5.034-1l8,.279c-.012.336-.023.662-.034,1Zm583.649-.755,7.995-.279q.018.5.035,1l-7.995.279C-1432.667,528.094-1432.679,527.768-1432.691,527.432Zm-583.435-4.4q.025-.5.052-1l7.99.419c-.018.335-.035.663-.052,1Zm583.209-.632,7.989-.419q.027.5.052,1l-7.989.419C-1432.882,523.065-1432.9,522.737-1432.917,522.4Zm-582.907-4.516c.022-.332.045-.666.069-1l7.982.558c-.024.333-.047.664-.069,1Zm582.594-.51,7.981-.558c.024.332.047.666.069,1l-7.981.558C-1433.183,518.04-1433.206,517.709-1433.23,517.376Zm-582.2-4.633c.028-.332.057-.665.086-1l7.972.7q-.044.5-.086,1Zm581.8-.386,7.971-.7c.029.333.058.663.086,1l-7.971.7Q-1433.587,512.854-1433.631,512.357Zm-581.323-4.75c.034-.332.068-.663.1-.995l7.961.837c-.035.33-.07.664-.1.995Zm580.835-.262,7.96-.837c.035.331.07.664.1.995l-7.959.837C-1434.049,508.009-1434.084,507.675-1434.119,507.345Zm-580.267-4.865q.059-.5.12-.993l7.948.976c-.041.328-.081.664-.121.993Zm579.691-.138,7.947-.976q.061.5.121.993l-7.947.976C-1434.614,503.007-1434.655,502.671-1434.7,502.343Zm-579.035-4.978q.068-.5.137-.99l7.933,1.115c-.046.327-.093.663-.138.99Zm578.371-.013,7.932-1.115q.07.495.138.99l-7.932,1.115C-1435.266,498.014-1435.313,497.678-1435.359,497.351Zm-577.626-5.091c.051-.329.1-.659.155-.988l7.917,1.254c-.052.325-.1.662-.156.988Zm576.875.111,7.916-1.254c.052.329.1.659.155.988l-7.915,1.254C-1436.006,493.025-1436.057,492.706-1436.11,492.372Zm-576.041-5.2q.085-.493.172-.986l7.9,1.393c-.057.323-.117.662-.173.986Zm575.2.236,7.9-1.393c.058.327.116.657.172.985l-7.9,1.392C-1436.832,488.068-1436.891,487.729-1436.949,487.406Zm-574.279-5.311q.094-.491.189-.982l7.878,1.531c-.065.33-.127.651-.19.982Zm573.354.362,7.877-1.531q.1.49.19.982l-7.876,1.531C-1437.747,483.108-1437.81,482.787-1437.874,482.457Zm-572.341-5.42c.068-.327.137-.652.207-.978l7.854,1.669c-.07.328-.138.65-.207.978Zm571.328.487,7.853-1.669c.07.325.139.653.207.978l-7.852,1.669C-1438.748,478.173-1438.817,477.852-1438.887,477.524ZM-2009.114,472c.074-.325.149-.651.224-.975l7.827,1.807c-.076.326-.15.648-.224.975Zm569.127.613,7.826-1.807q.113.487.224.974l-7.825,1.807C-1439.836,473.257-1439.911,472.936-1439.987,472.61Zm-567.936-5.633q.12-.485.241-.971l7.8,1.944c-.081.324-.161.646-.242.97Zm566.75.739,7.8-1.944q.122.485.242.97l-7.8,1.944C-1441.009,468.371-1441.094,468.031-1441.173,467.716Zm-565.472-5.736q.128-.483.258-.966l7.765,2.081q-.13.483-.258.966Zm564.2.864,7.765-2.081q.13.483.259.967l-7.764,2.08C-1442.274,463.479-1442.356,463.174-1442.445,462.843ZM-2005.279,457q.137-.481.275-.962l7.731,2.217c-.092.32-.185.642-.276.962ZM-1443.8,458l7.731-2.217q.139.48.276.961l-7.73,2.217C-1443.618,458.637-1443.71,458.315-1443.8,458Zm-560.023-5.941q.145-.479.292-.957l7.7,2.353c-.1.317-.2.639-.292.957Zm558.58,1.116,7.695-2.353q.147.478.293.956l-7.694,2.352C-1445.05,453.809-1445.148,453.488-1445.246,453.171Zm-557.041-6.04q.153-.476.308-.951l7.658,2.488c-.1.315-.207.636-.309.951Zm555.513,1.243,7.657-2.488q.155.475.309.951l-7.656,2.488C-1446.566,449.009-1446.671,448.688-1446.774,448.373Zm-553.887-6.139q.161-.473.325-.946l7.618,2.623c-.111.321-.216.624-.326.946Zm552.275,1.369,7.618-2.623q.164.472.326.946l-7.616,2.623C-1448.167,444.236-1448.278,443.916-1448.387,443.6Zm-550.565-6.237q.17-.47.341-.94l7.576,2.757c-.114.31-.23.629-.342.94Zm548.869,1.5,7.576-2.757q.172.469.343.939l-7.575,2.757C-1449.852,439.491-1449.969,439.173-1450.083,438.863Zm-547.073-6.333c.119-.312.238-.622.358-.934l7.532,2.891c-.119.308-.241.625-.359.933Zm545.294,1.623,7.532-2.891q.18.466.359.933l-7.531,2.891C-1451.621,434.777-1451.743,434.46-1451.862,434.153Zm-543.413-6.427c.124-.309.249-.62.375-.928l7.485,3.024c-.124.3-.252.622-.375.928Zm541.551,1.749,7.485-3.024q.189.464.376.928l-7.484,3.024C-1453.475,430.088-1453.6,429.787-1453.725,429.474Zm-539.586-6.52.072-.171q.159-.376.319-.751l7.436,3.156c-.129.3-.263.618-.391.921Zm537.643,1.876,7.436-3.156q.2.46.392.921l-7.435,3.156C-1455.408,425.44-1455.535,425.141-1455.668,424.83Zm-535.594-6.611c.135-.3.271-.61.407-.913l7.383,3.287c-.138.308-.271.6-.407.913Zm533.568,2,7.383-3.287c.137.3.272.608.408.913l-7.382,3.287C-1457.422,420.826-1457.555,420.529-1457.694,420.221Zm-531.436-6.7c.141-.3.281-.6.423-.906l7.328,3.417c-.139.3-.285.609-.423.906Zm529.331,2.128,7.328-3.417c.142.3.283.6.424.906l-7.327,3.417C-1459.517,416.249-1459.656,415.953-1459.8,415.649Zm-527.117-6.788q.218-.45.439-.9l7.27,3.546c-.148.3-.292.6-.439.9Zm524.931,2.253,7.27-3.546q.221.449.44.9l-7.269,3.546C-1461.692,411.709-1461.837,411.415-1461.985,411.113Zm-522.636-6.874q.226-.446.454-.891l7.21,3.674c-.153.3-.3.591-.455.891Zm520.371,2.379,7.21-3.674q.229.445.455.89l-7.21,3.673C-1463.947,407.209-1464.1,406.917-1464.25,406.618Zm-518-6.959q.234-.442.469-.883l7.148,3.8c-.154.288-.317.594-.47.882Zm515.653,2.5,7.148-3.8q.237.441.471.882l-7.147,3.8C-1466.279,402.749-1466.434,402.459-1466.593,402.163Zm-513.2-7.042q.242-.438.485-.875l7.084,3.927c-.163.293-.323.581-.486.874Zm510.778,2.629,7.084-3.927c.162.29.325.583.486.874l-7.084,3.927C-1468.689,398.33-1468.85,398.042-1469.013,397.75Zm-508.245-7.123c.166-.289.332-.577.5-.866l7.018,4.052c-.168.29-.333.575-.5.865Zm505.748,2.753,7.018-4.052q.252.433.5.865l-7.018,4.052C-1471.176,393.955-1471.342,393.669-1471.51,393.38Zm-503.137-7.2q.257-.43.515-.857l6.95,4.176c-.173.287-.344.57-.516.857Zm500.564,2.878,6.95-4.176q.259.428.517.857l-6.949,4.176C-1473.739,389.624-1473.91,389.341-1474.083,389.054Zm-497.876-7.282q.264-.425.53-.848l6.88,4.3c-.178.283-.353.564-.53.848Zm495.228,3,6.88-4.3c.178.282.354.564.531.847l-6.879,4.3C-1476.372,385.345-1476.558,385.05-1476.731,384.775Zm-492.464-7.358q.272-.42.544-.838l6.807,4.42c-.183.28-.363.557-.545.838Zm489.742,3.126,6.807-4.421q.274.419.546.838l-6.806,4.42C-1479.089,381.1-1479.27,380.822-1479.453,380.542Zm-486.9-7.433.408-.605.151-.224,6.731,4.54c-.187.277-.373.552-.56.829Zm484.107,3.248,6.731-4.54.466.687.1.142-6.731,4.54C-1481.874,376.908-1482.061,376.633-1482.249,376.357Zm-481.192-7.5q.287-.411.574-.82l6.653,4.658q-.288.41-.574.82Zm478.325,3.37,6.653-4.658.575.818-6.653,4.658C-1484.732,372.766-1484.923,372.495-1485.116,372.222Zm-475.335-7.576.588-.809,6.572,4.775q-.3.4-.588.809Zm472.4,3.491,6.572-4.775.589.808-6.572,4.775Zm-469.335-7.643.6-.8,6.489,4.89-.6.8Zm466.326,3.611,6.489-4.89.6.8-6.488,4.889Zm-463.193-7.71.616-.788,6.4,5q-.309.394-.616.788Zm460.114,3.73,6.4-5,.617.787-6.4,5Zm-456.91-7.774.629-.777,6.316,5.115-.629.777Zm453.763,3.849,6.316-5.115.63.776-6.316,5.114Q-1496.973,356.587-1497.289,356.2Zm-450.491-7.837.643-.767,6.227,5.225-.643.766Zm447.276,3.967,6.227-5.225.644.765-6.227,5.225Zm-443.934-7.9.656-.756,6.136,5.334-.656.755Zm440.653,4.084,6.136-5.334.657.754-6.136,5.334Zm-437.244-7.957.668-.744,6.043,5.441-.669.743Zm433.9,4.2,6.043-5.441.67.743-6.043,5.441Zm-430.422-8.014.682-.732,5.948,5.547-.682.732Zm427.012,4.317,5.948-5.547.683.731-5.948,5.547Zm-423.47-8.07.694-.72,5.852,5.651-.694.72Zm420,4.432,5.851-5.651.7.718-5.851,5.651Zm-416.39-8.122.6-.6.1-.1,5.752,5.752-.707.708Zm412.853,4.544,5.752-5.752.6.6.1.1-5.752,5.752Zm-409.184-8.171.719-.7,5.651,5.852-.719.7Zm405.586,4.657,5.651-5.851.721.694-5.651,5.851ZM-1923,322.111l.731-.683,5.547,5.948-.731.683Zm398.2,4.767,5.547-5.948.733.681-5.547,5.948Zm-394.4-8.265.742-.67,5.441,6.043-.741.67Zm390.683,4.876,5.441-6.043.744.668-5.441,6.043Zm-386.83-8.308.753-.657,5.334,6.136-.753.657Zm383.054,4.984,5.334-6.136.756.656-5.334,6.136Zm-379.142-8.348.766-.645,5.225,6.227-.765.645Zm375.31,5.091,5.225-6.227.766.642-5.225,6.227Zm-371.339-8.387.776-.631,5.115,6.316-.775.631Zm367.45,5.2,5.115-6.316.778.629-5.115,6.316Zm-363.423-8.424.787-.618,5,6.4-.787.618Zm359.48,5.3,5-6.4.788.615-5,6.4Zm-355.4-8.458.8-.6,4.889,6.489-.8.6Zm351.4,5.4,4.889-6.488.8.6-4.89,6.489Zm-347.265-8.491.808-.59,4.775,6.572-.807.59Zm343.216,5.507,4.775-6.572.809.587-4.775,6.572Zm-339.027-8.521.818-.576,4.658,6.653-.818.576Zm334.927,5.607,4.658-6.652.82.574-4.658,6.653Zm-330.684-8.548.8-.542.029-.02,4.54,6.731-.828.562Zm326.535,5.706,4.54-6.731.717.483.112.076-4.54,6.731Zm-322.242-8.572.838-.547,4.42,6.806-.837.547Zm318.042,5.8,4.42-6.806.839.544-4.42,6.807Zm-313.7-8.593.847-.532,4.3,6.879-.846.533Zm309.453,5.9,4.3-6.879.848.529-4.3,6.879Zm-305.063-8.612.856-.517,4.176,6.95-.856.518Zm300.77,5.99,4.175-6.949.858.515-4.176,6.95Zm-296.331-8.628.865-.5,4.052,7.018-.864.5Zm291.994,6.082,4.051-7.017.867.5-4.052,7.018Zm-287.51-8.642.873-.487,3.927,7.084-.873.488Zm283.129,6.172,3.926-7.083.875.484-3.927,7.084Zm-278.6-8.654.882-.472,3.8,7.148-.882.472Zm274.178,6.262,3.8-7.147.883.469-3.8,7.148Zm-269.608-8.664.89-.456,3.674,7.21-.89.457Zm265.142,6.349,3.673-7.209.891.454-3.673,7.21Zm-260.531-8.672.9-.441,3.546,7.27-.9.441Zm256.025,6.435,3.545-7.269.9.438-3.546,7.27Zm-251.374-8.677.905-.425,3.417,7.328-.905.426Zm246.831,6.52,3.417-7.327.907.422-3.417,7.327Zm-242.141-8.68.913-.409,3.287,7.383-.912.409Zm237.56,6.6,3.287-7.382.914.406-3.287,7.383Zm-232.832-8.68.92-.393,3.156,7.435-.92.394Zm228.215,6.683,3.156-7.434.415.175.506.215-3.156,7.435Zm-223.452-8.676.926-.376,3.024,7.485-.926.377Zm218.8,6.761,3.024-7.484.928.373-3.024,7.484Zm-214-8.67.933-.36,2.891,7.531-.933.361Zm209.319,6.837,2.891-7.53.934.357-2.891,7.531Zm-204.487-8.661.94-.344,2.757,7.575-.939.345Zm199.772,6.911,2.757-7.574.94.34-2.757,7.575Zm-194.909-8.65.945-.327,2.623,7.617-.944.328Zm190.163,6.983,2.622-7.616.946.324-2.623,7.617Zm-185.27-8.637.95-.31,2.488,7.657-.95.311Zm180.5,7.053,2.487-7.656.952.307-2.488,7.657ZM-1808,255.15l.956-.294,2.352,7.694-.956.295Zm170.775,7.122,2.352-7.694.957.29-2.352,7.694Zm-165.827-8.6.961-.277,2.217,7.73-.961.278Zm161,7.189,2.216-7.729.962.274-2.217,7.73Zm-156.027-8.584.965-.26,2.08,7.764-.965.261Zm151.175,7.255,2.08-7.763.967.257-2.08,7.764Zm-146.179-8.563.971-.243,1.944,7.8-.971.244Zm141.307,7.32,1.944-7.8.971.24-1.944,7.8Zm-136.287-8.539.974-.226,1.807,7.826-.974.227Zm131.393,7.382,1.807-7.825.975.223-1.807,7.825Zm-126.353-8.513.978-.209,1.669,7.853-.978.209Zm121.44,7.442,1.669-7.852.979.205-1.669,7.852Zm-116.381-8.484.982-.191,1.531,7.876-.982.192Zm111.449,7.5,1.531-7.876.982.188-1.531,7.876Zm-106.372-8.452.985-.174,1.392,7.9-.985.175Zm101.423,7.555,1.392-7.9.986.171-1.393,7.9Zm-96.33-8.417.988-.157,1.254,7.916-.988.158Zm91.368,7.607,1.254-7.915.989.153-1.254,7.916Zm-86.26-8.38.99-.139,1.115,7.933-.99.14Zm81.285,7.658,1.115-7.932.99.136-1.115,7.933Zm-76.165-8.342.993-.122.976,7.947-.993.123Zm71.177,7.706.976-7.947.993.119-.976,7.947Zm-66.046-8.3.994-.1.837,7.96-.994.105Zm61.048,7.753.837-7.96.995.1-.837,7.96Zm-55.907-8.26,1-.088.7,7.971-1,.088Zm50.9,7.8.7-7.971,1,.084-.7,7.971Zm-45.751-8.217,1-.071.558,7.981-1,.071Zm40.738,7.843.558-7.981,1,.067-.558,7.981Zm-35.583-8.172,1-.053.419,7.989-1,.053Zm30.564,7.885.419-7.989,1,.05-.419,7.989Zm-25.4-8.125,1-.036.279,7.995-1,.036Zm20.382,7.926.279-7.995,1,.033-.279,7.995Zm-15.218-8.077,1-.019.14,8-1,.019Zm10.192,7.964.14-8,1,.016-.14,8ZM-1721.5,242l1,0v8l-1,0Z" transform="translate(2040.5 -218.999)" fill="#fff" opacity="0.3"/>
</svg>
