<svg xmlns="http://www.w3.org/2000/svg" width="640" height="640.001" viewBox="0 0 640 640.001">
  <g id="Graph" transform="translate(132 -195.999)">
    <rect id="area" width="640" height="640" transform="translate(-132 195.999)" fill="#fff" opacity="0"/>
    <path id="BG" d="M-1721,829a322.367,322.367,0,0,1-64.491-6.5,318.387,318.387,0,0,1-60.067-18.646,320.031,320.031,0,0,1-54.357-29.5,322.289,322.289,0,0,1-47.359-39.075,322.3,322.3,0,0,1-39.075-47.359,320.029,320.029,0,0,1-29.5-54.357,318.4,318.4,0,0,1-18.646-60.067A322.37,322.37,0,0,1-2041,509a322.372,322.372,0,0,1,6.5-64.491,318.4,318.4,0,0,1,18.646-60.067,320.031,320.031,0,0,1,29.5-54.357,322.3,322.3,0,0,1,39.075-47.359,322.3,322.3,0,0,1,47.359-39.075,320.033,320.033,0,0,1,54.357-29.5,318.388,318.388,0,0,1,60.067-18.646A322.365,322.365,0,0,1-1721,189a322.363,322.363,0,0,1,64.491,6.5,318.378,318.378,0,0,1,60.067,18.646,320.034,320.034,0,0,1,54.357,29.5,322.3,322.3,0,0,1,47.359,39.075,322.293,322.293,0,0,1,39.075,47.359,320.033,320.033,0,0,1,29.5,54.357,318.372,318.372,0,0,1,18.646,60.067A322.367,322.367,0,0,1-1401,509a322.365,322.365,0,0,1-6.5,64.491,318.37,318.37,0,0,1-18.646,60.067,320.022,320.022,0,0,1-29.5,54.357,322.289,322.289,0,0,1-39.075,47.359,322.29,322.29,0,0,1-47.359,39.075,320.035,320.035,0,0,1-54.357,29.5,318.376,318.376,0,0,1-60.067,18.646A322.364,322.364,0,0,1-1721,829Zm0-624c-167.626,0-304,136.374-304,304s136.374,304,304,304,304-136.373,304-304S-1553.374,205-1721,205Z" transform="translate(1909 7)" fill="#fff" opacity="0.2"/>
    <path id="Point" d="M4188.509,960.5a318.272,318.272,0,0,1-114.424-48.149,320.932,320.932,0,0,1-115.938-140.791,318.449,318.449,0,0,1-18.647-60.067,323.157,323.157,0,0,1,0-128.982,318.256,318.256,0,0,1,48.151-114.424,320.941,320.941,0,0,1,140.79-115.938,318.461,318.461,0,0,1,60.068-18.647A322.389,322.389,0,0,1,4253,327h0a8,8,0,1,1,0,16c-81.072,0-157.378,31.657-214.86,89.139S3949,565.929,3949,647c0,167.625,136.374,304,304,304v16h0A322.4,322.4,0,0,1,4188.509,960.5Z" transform="translate(-4065 -131)" fill="#fff" opacity="0.7"/>
    <circle id="Point_dott" cx="3" cy="3" r="3" transform="translate(185 201)" fill="#fff"/>
  </g>
</svg>
