<svg xmlns="http://www.w3.org/2000/svg" width="444" height="228" viewBox="0 0 444 228">
    <g transform="translate(38.5 38.85)">
        <circle data-name="타원 565" cx="42" cy="42" r="42" transform="translate(300.5 -38.85)" style="fill:#dcf5fb"/>
        <circle data-name="타원 560" cx="30.5" cy="30.5" r="30.5" transform="translate(-13.5 46.15)" style="fill:#fbf0e3"/>
        <circle data-name="타원 1260" cx="15.5" cy="15.5" r="15.5" transform="translate(47.5 -27.85)" style="fill:#ecfbec"/>
    </g>
    <path data-name="패스 3263" d="M56.557 184.471V4.589a3 3 0 0 1 2.92-3.089l12.094.078L177.423 1.5l20.072 21.934v160.638" style="fill:#fff" transform="translate(99 31.85)"/>
    <path data-name="패스 3264" d="M56.557 184.471V4.4a2.9 2.9 0 0 1 2.92-2.9l12.094.073L177.423 1.5l20.072 20.624v162.347" style="stroke-linejoin:round;stroke:#222;stroke-linecap:round;stroke-width:3px;fill:none" transform="translate(99 31.85)"/>
    <path data-name="선 193" transform="translate(178.615 165.737)" style="stroke-linejoin:round;stroke:#222;stroke-linecap:round;stroke-width:3px;fill:none" d="M0 0h90.391"/>
    <path data-name="선 194" transform="translate(178.615 147.737)" style="stroke-linejoin:round;stroke:#222;stroke-linecap:round;stroke-width:3px;fill:none" d="M0 0h96.712"/>
    <path data-name="선 195" transform="translate(178.615 183.736)" style="stroke-linejoin:round;stroke:#222;stroke-linecap:round;stroke-width:3px;fill:none" d="M0 0h62.161"/>
    <path data-name="패스 3265" d="m176.34 2.441-.013 18.023a3.006 3.006 0 0 0 2.963 3.048h18.11" style="stroke-linejoin:round;stroke:#222;stroke-linecap:round;stroke-width:3px;fill:none" transform="translate(99 31.85)"/>
    <g data-name="그룹 626274">
        <path data-name="패스 2654" d="M319.978 135.464v22.056l-11-7.785-11 7.785v-22.056" transform="translate(-56.126 -37.988)" style="fill:#f2ac58"/>
        <path data-name="패스 2655" d="M319.978 135.464v22.056l-11-7.785-11 7.785v-22.056" transform="translate(-56.126 -37.988)" style="stroke-linejoin:round;stroke:#222;stroke-linecap:round;stroke-width:3px;fill:none"/>
        <path data-name="패스 2656" d="M312 148.611a22.056 22.056 0 1 1 22.008-22.054A22.053 22.053 0 0 1 312 148.611" transform="translate(-59.118 -49.611)" style="fill:#fff"/>
        <path data-name="패스 2657" d="M312 148.611a22.056 22.056 0 1 1 22.008-22.054A22.053 22.053 0 0 1 312 148.611z" transform="translate(-59.118 -49.611)" style="stroke-linejoin:round;stroke:#222;stroke-linecap:round;stroke-width:3px;fill:none"/>
        <path data-name="패스 2658" d="M309.91 138.821a14.365 14.365 0 1 1 14.334-14.364 14.364 14.364 0 0 1-14.334 14.364" transform="translate(-57.024 -47.512)" style="fill:#f2ac58"/>
        <path data-name="패스 2659" d="M309.91 138.821a14.365 14.365 0 1 1 14.334-14.364 14.364 14.364 0 0 1-14.334 14.364z" transform="translate(-57.024 -47.512)" style="fill:none"/>
    </g>
    <path data-name="패스 8639" d="M360 0H0" transform="translate(42.5 217.737)" style="stroke:#222;stroke-linecap:round;stroke-width:3px;fill:none"/>
    <g>
        <path data-name="패스 3271" d="M271.927 156.133H194.2a1.993 1.993 0 0 1-1.993-1.993v-9.965a69.8 69.8 0 0 1 4.815-25.907 1.247 1.247 0 0 1 2.38.27l4.193 24.321a3.986 3.986 0 0 0 3.928 3.309h21.187a3.986 3.986 0 0 0 3.928-3.309l7.835-45.442a51.819 51.819 0 0 0-43.75-.429v-.006c-.039.018-.955.475-.955.475a51.788 51.788 0 0 0-29.468 46.718v11.958h-2a1.993 1.993 0 0 0-1.993 1.993v2.541a1.986 1.986 0 0 0 1.358 1.9c14.255 4.661 33.393 7.517 54.446 7.517s40.191-2.856 54.445-7.517a1.986 1.986 0 0 0 1.359-1.9v-2.541a1.993 1.993 0 0 0-1.993-1.993" transform="translate(-76.225 55.568)" style="fill:#fcf28d"/>
        <path data-name="패스 3275" d="m226.084 141.389-1.219-49.825c-.055-2.254 1.227-4.123 2.828-4.123h-4.683a3.986 3.986 0 0 0-3.983 4.123l1.718 49.825a3.986 3.986 0 0 0 3.983 3.849h4.185c-1.526 0-2.776-1.7-2.829-3.849" transform="translate(-86.958 56.498)" style="fill:#fcf28d"/>
        <path data-name="패스 3270" d="M219.046 92.357a51.819 51.819 0 0 0-51.818 51.818v11.958h103.637v-11.958a51.819 51.819 0 0 0-51.818-51.818" transform="translate(-77.155 55.568)" style="fill:#fcf28d"/>
        <path data-name="패스 3272" d="M219.046 92.357a51.819 51.819 0 0 0-51.818 51.818v11.958h103.637v-11.958a51.819 51.819 0 0 0-51.819-51.818z" transform="translate(-77.155 55.568)" style="stroke-linejoin:round;stroke:#222;stroke-linecap:round;stroke-width:3px;fill:none"/>
        <path data-name="패스 3273" d="M232.97 145.238h-8.242a3.986 3.986 0 0 1-3.983-3.849l-1.718-49.825a3.986 3.986 0 0 1 3.983-4.123h11.678a3.987 3.987 0 0 1 3.984 4.123l-1.719 49.825a3.986 3.986 0 0 1-3.983 3.849" transform="translate(-86.958 56.498)" style="fill:#fcf28d"/>
        <path data-name="패스 3274" d="M272.562 174c-14.255 3.33-33.393 5.37-54.445 5.37s-40.191-2.04-54.446-5.37a1.706 1.706 0 0 1-1.28-1 1.94 1.94 0 0 0-.078.388v2.541a1.986 1.986 0 0 0 1.358 1.9c14.255 4.662 33.393 7.518 54.446 7.518s40.19-2.856 54.445-7.517a1.987 1.987 0 0 0 1.359-1.9v-2.54a1.887 1.887 0 0 0-.079-.388 1.705 1.705 0 0 1-1.28 1" transform="translate(-76.225 40.307)" style="fill:#fcf28d"/>
        <path data-name="패스 3276" d="M232.97 145.238h-8.242a3.986 3.986 0 0 1-3.983-3.849l-1.718-49.825a3.986 3.986 0 0 1 3.983-4.123h11.678a3.987 3.987 0 0 1 3.984 4.123l-1.719 49.825a3.986 3.986 0 0 1-3.983 3.849z" transform="translate(-86.958 56.498)" style="stroke-linejoin:round;stroke:#222;stroke-linecap:round;stroke-width:3px;fill:none"/>
        <path data-name="패스 3277" d="M166.3 171.02h-1.993a1.994 1.994 0 0 0-1.994 1.993v2.541a1.986 1.986 0 0 0 1.359 1.9c14.255 4.661 33.392 7.517 54.446 7.517s40.19-2.856 54.445-7.517a1.986 1.986 0 0 0 1.359-1.9v-2.541a1.993 1.993 0 0 0-1.993-1.993h-2.869" transform="translate(-76.225 40.681)" style="stroke-linejoin:round;stroke:#222;stroke-linecap:round;stroke-width:3px;fill:none"/>
        <path data-name="선 197" transform="translate(157.879 153.695)" style="stroke-linejoin:round;stroke:#222;stroke-linecap:round;stroke-width:3px;fill:none" d="M6.075 0 0 35.234"/>
        <path data-name="선 198" transform="translate(120.156 153.695)" style="stroke-linejoin:round;stroke:#222;stroke-linecap:round;stroke-width:3px;fill:none" d="M6.075 35.234 0 0"/>
    </g>
    <g data-name="그룹 626305" transform="translate(265 113.918)">
        <path data-name="패스 3256" d="M61.536 93.925 43.613 4.87c-.809-5.4-13.607-5.1-14.281.618L11.5 93.925z" transform="translate(-3.367 -1.589)" style="fill:#fff"/>
        <path data-name="패스 3258" d="M58.114 76.728 24.921 92.323H46.1l13.848-6.506z" transform="translate(-3.083 .013)" style="fill:#f2ac58"/>
        <path data-name="패스 3259" d="M53.307 52.215 16.118 69.69 13.9 80.679 55.137 61.3z" transform="translate(-3.316 -.505)" style="fill:#f2ac58"/>
        <path data-name="패스 3260" d="M48.143 27.7 22.094 39.942 19.878 50.93l30.1-14.142z" transform="translate(-3.19 -1.024)" style="fill:#f2ac58"/>
        <path data-name="패스 3261" d="M43.309 4.824c-.086-.563-.2-1.107-.324-1.638l-14.913 7.006-2.216 10.991 18.954-8.9z" transform="translate(-3.063 -1.543)" style="fill:#f2ac58"/>
        <path data-name="패스 3262" d="M70.438 100.935H3.042A2.042 2.042 0 0 1 1 98.893v-4.85A2.042 2.042 0 0 1 3.042 92h67.4a2.042 2.042 0 0 1 2.042 2.042v4.85a2.042 2.042 0 0 1-2.042 2.042" transform="translate(-3.589 1.337)" style="fill:#fff"/>
        <path data-name="패스 3257" d="M61.536 93.925 43.613 4.87c-.809-5.4-13.607-5.1-14.281.618L11.5 93.925z" transform="translate(-3.367 -1.589)" style="stroke-linejoin:round;stroke:#222;stroke-linecap:round;stroke-width:3px;fill:none"/>
        <rect data-name="사각형 461086" width="71.48" height="11.418" rx="2" transform="translate(-2.589 92.337)" style="stroke-linejoin:round;stroke:#222;stroke-linecap:round;stroke-width:3px;fill:none"/>
    </g>
</svg>
