<svg xmlns="http://www.w3.org/2000/svg" width="444" height="221" viewBox="0 0 444 221">
  <defs>
    <style>
      .cls-1 {
        fill: rgba(255,191,191,0.5);
        opacity: 0;
      }

      .cls-2 {
        fill: #dcf5fb;
      }

      .cls-3 {
        fill: #fbf0e3;
      }

      .cls-4 {
        fill: #ecfbec;
        opacity: 0.602;
      }

      .cls-5 {
        fill: #3bc9cc;
      }

      .cls-6 {
        fill: #afece9;
      }

      .cls-10, .cls-11, .cls-13, .cls-14, .cls-15, .cls-16, .cls-19, .cls-20, .cls-6, .cls-9 {
        stroke: #222;
        stroke-width: 3px;
      }

      .cls-7, .cls-9 {
        fill: #e8eef3;
      }

      .cls-16, .cls-20, .cls-8 {
        fill: #fff;
      }

      .cls-10, .cls-13, .cls-15, .cls-24 {
        fill: none;
      }

      .cls-10, .cls-13, .cls-14, .cls-15, .cls-16 {
        stroke-linecap: round;
      }

      .cls-11, .cls-18 {
        fill: #727272;
      }

      .cls-12, .cls-14 {
        fill: #fcf28d;
      }

      .cls-13, .cls-14, .cls-16 {
        stroke-linejoin: round;
      }

      .cls-15, .cls-19, .cls-20 {
        stroke-miterlimit: 10;
      }

      .cls-17 {
        fill: #222;
      }

      .cls-19 {
        fill: #afdae9;
      }

      .cls-21 {
        fill: #333;
      }

      .cls-22, .cls-23 {
        stroke: none;
      }

      .cls-23 {
        fill: #222;
      }
    </style>
  </defs>
  <g id="SWKDIFDT3700_1" transform="translate(39 33.282)">
    <g id="deco">
      <rect id="BG" class="cls-1" width="444" height="221" transform="translate(-39 -33.282)"/>
      <circle id="타원_561" data-name="타원 561" class="cls-2" cx="16" cy="16" r="16" transform="translate(14.822 16.842) rotate(-45)"/>
      <circle id="타원_562" data-name="타원 562" class="cls-3" cx="24" cy="24" r="24" transform="translate(80.454 61.668) rotate(-45)"/>
      <circle id="deco-2" data-name="deco" class="cls-4" cx="61" cy="61" r="61" transform="translate(228.683 25.728)"/>
    </g>
    <g id="img" transform="translate(-10.45)">
      <g id="레미콘" transform="translate(183 76.218)">
        <g id="패스_10599" data-name="패스 10599" class="cls-5" transform="matrix(-0.966, -0.259, 0.259, -0.966, 109.176, 109.368)">
          <path class="cls-22" d="M 25.4341983795166 81.44080352783203 L 1.500020265579224 58.01721572875977 L 1.500035047531128 24.92365074157715 L 25.43423080444336 1.500032424926758 L 85.24449157714844 1.500017285346985 L 111.5268478393555 24.96445655822754 L 111.5268173217773 57.97634506225586 L 85.24443054199219 81.44078826904297 L 25.4341983795166 81.44080352783203 Z"/>
          <path class="cls-23" d="M 26.04607772827148 79.94080352783203 L 84.67225646972656 79.94078826904297 L 110.0268325805664 57.30469512939453 L 110.0268478393555 25.63608741760254 L 84.67234039306641 3.000002384185791 L 26.04611206054688 3.000034332275391 L 3.000034809112549 25.55447006225586 L 3.000019311904907 57.38638305664062 L 26.04607772827148 79.94080352783203 M 24.82233619689941 82.94080352783203 L 1.869710285973269e-05 58.64801788330078 L 3.536376971169375e-05 24.2928352355957 L 24.82236862182617 3.50972477463074e-05 L 85.81666564941406 1.763915975061536e-06 L 113.02685546875 24.29280090332031 L 113.0268325805664 58.64798355102539 L 85.81658172607422 82.94078826904297 L 24.82233619689941 82.94080352783203 Z"/>
        </g>
        <g id="사각형_462996" data-name="사각형 462996" class="cls-6" transform="matrix(-0.966, -0.259, 0.259, -0.966, 70.439, 99.386)">
          <rect class="cls-22" width="34" height="83"/>
          <rect class="cls-24" x="1.5" y="1.5" width="31" height="80"/>
        </g>
        <g id="패스_10596" data-name="패스 10596" class="cls-7" transform="translate(121.946 48.628)">
          <path class="cls-22" d="M 43.71849060058594 54.15327453613281 L 1.500001430511475 54.15327453613281 L 1.500001430511475 1.50000536441803 L 26.92813873291016 1.50000536441803 L 43.71849060058594 26.72722625732422 L 43.71849060058594 54.15327453613281 Z"/>
          <path class="cls-23" d="M 2.999992370605469 2.999996185302734 L 2.999992370605469 52.65326690673828 L 42.21848297119141 52.65326690673828 L 42.21848297119141 27.18075752258301 L 26.12462997436523 2.999996185302734 L 2.999992370605469 2.999996185302734 M -7.62939453125e-06 -3.814697265625e-06 L 27.73165130615234 -3.814697265625e-06 L 45.21848297119141 26.27368545532227 L 45.21848297119141 55.65326690673828 L -7.62939453125e-06 55.65326690673828 L -7.62939453125e-06 -3.814697265625e-06 Z"/>
        </g>
        <g id="패스_10597" data-name="패스 10597" class="cls-8" transform="translate(123.642 44.715)">
          <path class="cls-22" d="M 30.71455192565918 25.89164352416992 L 8.500004768371582 25.89164352416992 L 8.500004768371582 11.50000381469727 L 20.89540672302246 11.50000381469727 L 30.71455192565918 25.89164352416992 Z"/>
          <path class="cls-23" d="M 9.999994277954102 13.00000381469727 L 9.999994277954102 24.39164352416992 L 27.87524795532227 24.39164352416992 L 20.10295295715332 13.00000381469727 L 9.999994277954102 13.00000381469727 M 6.999996185302734 10.00000381469727 L 21.6878547668457 10.00000381469727 L 33.08758544921875 26.70827484130859 L 33.08758544921875 27.39164352416992 L 6.999996185302734 27.39164352416992 L 6.999996185302734 10.00000381469727 Z"/>
        </g>
        <g id="사각형_462427" data-name="사각형 462427" class="cls-9" transform="translate(10.378 83.801)">
          <rect class="cls-22" width="114.785" height="20.438"/>
          <rect class="cls-24" x="1.5" y="1.5" width="111.785" height="17.438"/>
        </g>
        <line id="선_1604" data-name="선 1604" class="cls-10" x1="7.391" y2="0.042" transform="translate(133.251 78.628)"/>
        <g id="타원_1047" data-name="타원 1047" class="cls-11" transform="translate(112.935 87.356)">
          <ellipse class="cls-22" cx="12.006" cy="12.006" rx="12.006" ry="12.006"/>
          <ellipse class="cls-24" cx="12.006" cy="12.006" rx="10.506" ry="10.506"/>
        </g>
        <g id="타원_1219" data-name="타원 1219" class="cls-11" transform="translate(24.514 87.356)">
          <circle class="cls-22" cx="12.006" cy="12.006" r="12.006"/>
          <circle class="cls-24" cx="12.006" cy="12.006" r="10.506"/>
        </g>
        <g id="타원_1222" data-name="타원 1222" class="cls-11" transform="translate(50.639 87.356)">
          <circle class="cls-22" cx="12.006" cy="12.006" r="12.006"/>
          <circle class="cls-24" cx="12.006" cy="12.006" r="10.506"/>
        </g>
      </g>
      <g id="포크레인" transform="translate(-165.633 -239.509)">
        <g id="그룹_628201" data-name="그룹 628201" transform="translate(207.465 335.859)">
          <g id="그룹_628193" data-name="그룹 628193" transform="translate(10.817 0.395)">
            <g id="그룹_628192" data-name="그룹 628192" transform="translate(0 0)">
              <path id="패스_7222" data-name="패스 7222" class="cls-12" d="M238.786,346.228a1.753,1.753,0,0,0-1.755-1.75H205.013a1.752,1.752,0,0,0-1.757,1.75v18.579l7.278,1.585V355.668a1.033,1.033,0,0,1,1.035-1.034h18.9a1.035,1.035,0,0,1,1.035,1.034v15.3l7.278,1.585Z" transform="translate(-203.256 -344.477)"/>
            </g>
            <path id="패스_7223" data-name="패스 7223" class="cls-13" d="M210.026,366.372V355.02a1.065,1.065,0,0,1,1.035-1.095h18.9A1.066,1.066,0,0,1,231,355.02v16.192" transform="translate(-202.748 -344.725)"/>
            <path id="패스_7224" data-name="패스 7224" class="cls-13" d="M238.786,372.548V346.228a1.753,1.753,0,0,0-1.755-1.75H205.013a1.752,1.752,0,0,0-1.757,1.75v18.579" transform="translate(-203.256 -344.477)"/>
          </g>
          <path id="패스_7225" data-name="패스 7225" class="cls-14" d="M259.793,378.157l24.584-32.844a2.724,2.724,0,0,1,2.512-1.187,2.14,2.14,0,0,1,.229-.016H310.5a2.772,2.772,0,0,1,2.771,2.765v26.79a2.774,2.774,0,0,1-2.771,2.768l-5.488-3.443a2.773,2.773,0,0,1-2.771-2.767v-15.1H288.7L263.711,388.51" transform="translate(-188.197 -344.11)"/>
          <g id="그룹_628194" data-name="그룹 628194" transform="translate(92.849 41.219)">
            <line id="선_996" data-name="선 996" class="cls-13" x1="6.305" y1="8.135" transform="translate(0 0)"/>
          </g>
          <path id="패스_7226" data-name="패스 7226" class="cls-12" d="M267.958,402.354a1.907,1.907,0,0,1-1.908,1.906H195.9a1.907,1.907,0,0,1-1.908-1.906V364.11a1.906,1.906,0,0,1,1.908-1.9l70.147,15.246a1.906,1.906,0,0,1,1.908,1.905Z" transform="translate(-193.133 -342.752)"/>
          <g id="그룹_628195" data-name="그룹 628195" transform="translate(0 18.592)">
            <path id="패스_7227" data-name="패스 7227" class="cls-13" d="M266.11,405.182H195.963a2.772,2.772,0,0,1-2.77-2.767V364.17a2.77,2.77,0,0,1,2.77-2.765l.183.02,70.064,15.228a2.772,2.772,0,0,1,2.669,2.765v23A2.772,2.772,0,0,1,266.11,405.182Z" transform="translate(-193.193 -361.405)"/>
          </g>
          <g id="그룹_628197" data-name="그룹 628197" transform="translate(98.538 27.158)">
            <g id="그룹_628196" data-name="그룹 628196">
              <path id="패스_7228" data-name="패스 7228" class="cls-14" d="M308.621,392.773h-21a2.771,2.771,0,0,1-2.77-2.767.858.858,0,0,1,.135-.464l11.427-17.831a3.669,3.669,0,0,1,3.454-2.339l10.675.211a.861.861,0,0,1,.845.86v19.563A2.769,2.769,0,0,1,308.621,392.773Z" transform="translate(-284.855 -369.372)"/>
            </g>
          </g>
          <g id="그룹_628198" data-name="그룹 628198" transform="translate(0.065 53.983)">
            <line id="선_997" data-name="선 997" class="cls-13" x1="74.759"/>
          </g>
          <g id="그룹_628199" data-name="그룹 628199" transform="translate(33.668 26.356)">
            <line id="선_998" data-name="선 998" class="cls-15" y1="26.766" transform="translate(0 0)"/>
          </g>
          <g id="그룹_628200" data-name="그룹 628200" transform="translate(20.819 37.307)">
            <line id="선_999" data-name="선 999" class="cls-13" x1="5.925"/>
          </g>
        </g>
        <path id="패스_7229" data-name="패스 7229" class="cls-16" d="M263.3,427.174H199.121a10.007,10.007,0,0,1-10-9.988v-5.071a10.007,10.007,0,0,1,10-9.988H263.3a10.008,10.008,0,0,1,10.005,9.988v5.071A10.008,10.008,0,0,1,263.3,427.174Z" transform="translate(13.965 -1.749)"/>
        <path id="패스_7230" data-name="패스 7230" class="cls-15" d="M247.569,407.4h5.172m-15.518,0H242.4m-15.517,0h5.172m-15.518,0h5.172m-15.518,0h5.173" transform="translate(15.246 0.317)"/>
        <path id="패스_7231" data-name="패스 7231" class="cls-15" d="M247.569,420.462h5.172m-15.518,0H242.4m-15.517,0h5.172m-15.518,0h5.172m-15.518,0h5.173" transform="translate(15.246 -1.854)"/>
        <g id="그룹_628204" data-name="그룹 628204" transform="translate(264.106 405.37)">
          <g id="그룹_628202" data-name="그룹 628202">
            <path id="패스_7232" data-name="패스 7232" class="cls-17" d="M253.641,422.264a7.747,7.747,0,1,1,7.758-7.747A7.762,7.762,0,0,1,253.641,422.264Z" transform="translate(-245.882 -406.77)"/>
          </g>
          <g id="그룹_628203" data-name="그룹 628203" transform="translate(3.448 3.443)">
            <path id="패스_7233" data-name="패스 7233" class="cls-18" d="M253.4,418.581a4.3,4.3,0,1,1,4.31-4.3A4.313,4.313,0,0,1,253.4,418.581Z" transform="translate(-249.09 -409.973)"/>
          </g>
        </g>
        <g id="그룹_628207" data-name="그룹 628207" transform="translate(208.933 405.37)">
          <g id="그룹_628205" data-name="그룹 628205">
            <path id="패스_7234" data-name="패스 7234" class="cls-17" d="M202.318,422.264a7.747,7.747,0,1,1,7.759-7.747A7.761,7.761,0,0,1,202.318,422.264Z" transform="translate(-194.56 -406.77)"/>
          </g>
          <g id="그룹_628206" data-name="그룹 628206" transform="translate(3.448 3.443)">
            <path id="패스_7235" data-name="패스 7235" class="cls-18" d="M202.077,418.581a4.3,4.3,0,1,1,4.311-4.3A4.312,4.312,0,0,1,202.077,418.581Z" transform="translate(-197.768 -409.973)"/>
          </g>
        </g>
      </g>
      <g id="렌트" transform="translate(-1480.385 -2238.658)">
        <rect id="사각형_68" data-name="사각형 68" class="cls-19" width="105" height="68" rx="3" transform="translate(1610.885 2235)"/>
        <rect id="사각형_69" data-name="사각형 69" class="cls-20" width="84" height="48" rx="1.989" transform="translate(1621.885 2244.876)"/>
        <path id="패스_582" data-name="패스 582" class="cls-13" d="M1633.411,2234l29.776-26,30.172,26"/>
        <path id="패스_583" data-name="패스 583" class="cls-20" d="M1662.385,2226a4,4,0,1,1,4-4A4,4,0,0,1,1662.385,2226Z"/>
        <g id="그룹_631381" data-name="그룹 631381" transform="translate(779.809 1909.597)">
          <path id="패스_6942" data-name="패스 6942" class="cls-21" d="M863.719,351.779c3.681,0,5.523,2.213,5.523,4.942a4.545,4.545,0,0,1-3.341,4.539l1.916,3.433a1.854,1.854,0,0,1-1.531,2.784h0a1.763,1.763,0,0,1-1.552-.958l-2.62-4.968h-.878v4.074a1.813,1.813,0,0,1-1.772,1.852h-.116a1.813,1.813,0,0,1-1.771-1.852V353.63a1.813,1.813,0,0,1,1.771-1.851Zm-.214,3.175h-2.268v3.891h2.268a1.947,1.947,0,1,0,0-3.891Z"/>
          <path id="패스_6943" data-name="패스 6943" class="cls-21" d="M879.319,354.842h-4.131v3.176h3.489a1.445,1.445,0,0,1,1.413,1.476h0a1.445,1.445,0,0,1-1.413,1.476h-3.489v3.443h4.131a1.445,1.445,0,0,1,1.413,1.476V366a1.445,1.445,0,0,1-1.413,1.476h-6.378A1.446,1.446,0,0,1,871.528,366V353.255a1.446,1.446,0,0,1,1.413-1.476h6.378a1.445,1.445,0,0,1,1.413,1.476v.111A1.445,1.445,0,0,1,879.319,354.842Z"/>
          <path id="패스_6944" data-name="패스 6944" class="cls-21" d="M896.546,353.691v11.873a1.874,1.874,0,0,1-1.831,1.913h-.846a1.812,1.812,0,0,1-1.527-.859l-5.579-8.824v7.77a1.873,1.873,0,0,1-1.83,1.913h0a1.873,1.873,0,0,1-1.831-1.913V353.691a1.873,1.873,0,0,1,1.831-1.912h.843a1.814,1.814,0,0,1,1.53.861l5.579,8.866v-7.815a1.872,1.872,0,0,1,1.83-1.912h0A1.873,1.873,0,0,1,896.546,353.691Z"/>
          <path id="패스_6945" data-name="패스 6945" class="cls-21" d="M899.847,351.779h8.691A1.5,1.5,0,0,1,910,353.311h0a1.5,1.5,0,0,1-1.466,1.531h-2.515v11.1a1.5,1.5,0,0,1-1.466,1.532h-.728a1.5,1.5,0,0,1-1.466-1.532v-11.1h-2.516a1.5,1.5,0,0,1-1.466-1.531h0A1.5,1.5,0,0,1,899.847,351.779Z"/>
        </g>
      </g>
      <line id="선_223" data-name="선 223" class="cls-13" x2="360" transform="translate(13.95 186.03)"/>
    </g>
  </g>
</svg>
