<svg xmlns="http://www.w3.org/2000/svg" width="444" height="227" viewBox="0 0 444 227">
    <g transform="translate(-622 -2040)">
        <circle data-name="Ellipse 2" cx="45" cy="45" r="45" transform="translate(960 2040)" style="fill:#dcf5fb"/>
        <circle data-name="Ellipse 2" cx="19.75" cy="19.75" r="19.75" transform="translate(633 2169)" style="fill:#fbf0e3"/>
    </g>
    <g data-name="그룹 631935">
        <g data-name="그룹 631926">
            <path data-name="패스 11506" d="M165.862 169.12v-28.695s-16.433 14.171-21.4 18.5c-3.223 2.807-6.6 6.92-6.6 15.758v55.765h62.222v-12.419s15.556-3.1 15.556-27.937V153.6z" style="stroke-width:2.997px;stroke-linecap:round;stroke-linejoin:round;stroke:#222;fill:#fff" transform="translate(-33.156 -31.27)"/>
            <g data-name="그룹 631923" transform="translate(-33.156 -31.27)">
                <path data-name="패스 11507" d="M165.862 203.173h120V55.27h-98.823L165.862 76.4z" style="stroke-width:2.997px;stroke-linecap:round;stroke-linejoin:round;stroke:#222;fill:#fff"/>
                <rect data-name="사각형 463336" width="83.95" height="25.138" rx="2.266" transform="translate(184.401 119.03)" style="fill:#f0f2f5"/>
                <rect data-name="사각형 463337" width="83.95" height="25.138" rx="2.266" transform="translate(184.401 153.553)" style="fill:#f0f2f5"/>
                <rect data-name="사각형 463338" width="83.95" height="25.138" rx="2.266" transform="translate(184.401 84.506)" style="fill:#f0f2f5"/>
                <g data-name="그룹 631922">
                    <path data-name="패스 11508" d="m167.122 77.513 21.439.438-.477-21.386z" style="fill:#f0f2f5"/>
                    <path data-name="패스 11509" d="M166.654 77.951H189.7v-22.21" style="fill:#f0f2f5;stroke-width:2.997px;stroke-linecap:round;stroke-linejoin:round;stroke:#222"/>
                </g>
            </g>
            <g data-name="그룹 631924">
                <path data-name="패스 11510" d="M197 151.259a9.346 9.346 0 0 0-13.2 0l-27.687 27.623-9.334 9.312 30.355 25.76c7.9-17.943.732-24.808-2.323-25.705l-.8-.886L197 164.427a9.3 9.3 0 0 0 0-13.168z" style="fill:#fff" transform="translate(-33.156 -31.27)"/>
                <path data-name="패스 11511" d="M177.14 213.954c11.8-13.126.535-22.5-2.736-26.163l-.387-.428L197 164.427a9.322 9.322 0 0 0-13.2-13.168l-37.021 36.935" style="fill:none;stroke-width:2.997px;stroke-linecap:round;stroke-linejoin:round;stroke:#222" transform="translate(-33.156 -31.27)"/>
            </g>
            <g data-name="그룹 631925" transform="translate(-33.156 -31.27)">
                <path data-name="사각형 463339" transform="translate(131.64 230.445)" style="fill:#afdae9" d="M0 0h74.667v24.833H0z"/>
                <path data-name="패스 11512" d="M131.64 255.279v-24.834h74.667v24.833" style="fill:none;stroke-width:2.997px;stroke-linecap:round;stroke-linejoin:round;stroke:#222"/>
                <ellipse data-name="타원 1280" cx="3.111" cy="3.104" rx="3.111" ry="3.104" transform="translate(140.973 239.758)" style="fill:#222"/>
            </g>
        </g>
        <g data-name="그룹 631931">
            <path data-name="패스 11513" d="M274.227 173.573v-13.3h88.889v13.3" style="stroke-width:2.997px;stroke-linecap:round;stroke-linejoin:round;stroke:#222;fill:#fff" transform="translate(-33.156 -31.27)"/>
            <path data-name="패스 11514" d="M269.783 184.881v-13.3h97.778v13.656" style="stroke-width:2.997px;stroke-linecap:round;stroke-linejoin:round;stroke:#222;fill:#fff" transform="translate(-33.156 -31.27)"/>
            <path data-name="패스 11515" d="M265.338 196.189v-13.3h106.667v12.306" style="stroke-width:2.997px;stroke-linecap:round;stroke-linejoin:round;stroke:#222;fill:#fff" transform="translate(-33.156 -31.27)"/>
            <path data-name="사각형 463340" transform="translate(225.516 162.923)" style="stroke-width:2.997px;stroke-linecap:round;stroke-linejoin:round;stroke:#222;fill:#fff" d="M0 0h120v62.083H0z"/>
            <g data-name="그룹 631930">
                <g data-name="그룹 631927">
                    <path data-name="패스 11516" d="M368.213 235.706v-19.755a9.892 9.892 0 0 1-9.9-9.878h-79.2a9.892 9.892 0 0 1-9.9 9.878v19.756a9.891 9.891 0 0 1 9.9 9.878h79.2a9.892 9.892 0 0 1 9.9-9.879z" style="fill:#fcf28d;stroke-width:2.997px;stroke-linecap:round;stroke-linejoin:round;stroke:#222" transform="translate(-33.156 -31.27)"/>
                </g>
                <g data-name="그룹 631929" transform="translate(-33.156 -31.27)">
                    <ellipse data-name="타원 1281" cx="13.398" cy="13.368" rx="13.398" ry="13.368" transform="translate(306.987 212.591)" style="stroke-miterlimit:10;stroke-width:2.997px;stroke:#222;fill:#fff"/>
                    <g data-name="그룹 631928">
                        <path data-name="패스 11517" d="m313.96 223.095 2.723 7.123a.639.639 0 0 0 1.21-.052l1.972-6.907a.639.639 0 0 1 1.224-.011l2.1 6.873a.638.638 0 0 0 1.214.019l2.4-7.045" style="stroke-width:1.998px;fill:none;stroke-linecap:round;stroke-linejoin:round;stroke:#222"/>
                        <path data-name="선 2095" transform="translate(312.729 226.38)" style="stroke-width:2px;fill:none;stroke-linecap:round;stroke-linejoin:round;stroke:#222" d="M0 0h15.312"/>
                    </g>
                </g>
            </g>
        </g>
        <g data-name="그룹 631934">
            <path data-name="패스 11518" d="M311.472 102.088v25.027h14.4v-25.027h10.8l-18-17.877-18 17.877z" style="fill:#f2ac58;stroke-width:2.997px;stroke-linecap:round;stroke-linejoin:round;stroke:#222" transform="translate(-33.156 -31.27)"/>
            <g data-name="그룹 631932">
                <path data-name="사각형 463341" transform="translate(278.316 101.432)" style="fill:#f2ac58" d="M0 0h14.4v6.984H0z"/>
                <path data-name="패스 11519" d="M325.872 132.7v6.984h-14.4V132.7" style="fill:none;stroke-width:2.997px;stroke-linecap:round;stroke-linejoin:round;stroke:#222" transform="translate(-33.156 -31.27)"/>
            </g>
            <g data-name="그룹 631933">
                <path data-name="사각형 463342" transform="translate(278.316 113.406)" style="fill:#f2ac58" d="M0 0h14.4v3.991H0z"/>
                <path data-name="패스 11520" d="M325.872 144.676v3.991h-14.4v-3.991" style="fill:none;stroke-width:2.997px;stroke-linecap:round;stroke-linejoin:round;stroke:#222" transform="translate(-33.156 -31.27)"/>
            </g>
        </g>
    </g>
    <path data-name="선 2096" transform="translate(42 224.848)" style="stroke-width:3px;fill:none;stroke-linecap:round;stroke-linejoin:round;stroke:#222" d="M0 0h360"/>
</svg>
