<svg xmlns="http://www.w3.org/2000/svg" width="444" height="228" viewBox="0 0 444 228">
  <defs>
    <style>
      .cls-1 {
        fill: rgba(255,191,191,0.5);
        opacity: 0;
      }

      .cls-2 {
        fill: #dcf5fb;
      }

      .cls-3 {
        fill: #e3e6fb;
      }

      .cls-4 {
        fill: #fff;
      }

      .cls-4, .cls-6, .cls-7, .cls-9 {
        stroke: #222;
        stroke-linecap: round;
        stroke-linejoin: round;
        stroke-width: 3px;
      }

      .cls-5, .cls-6 {
        fill: #f0f2f5;
      }

      .cls-7 {
        fill: #f2ac58;
      }

      .cls-8 {
        fill: #fcf28d;
      }

      .cls-9 {
        fill: none;
      }

      .cls-10 {
        fill: #afdae9;
      }
    </style>
  </defs>
  <g id="SWKDIFDT5000_3" transform="translate(-436 -767)">
    <g id="deco">
      <rect id="BG" class="cls-1" width="444" height="228" transform="translate(436 767)"/>
      <circle id="Ellipse_2" data-name="Ellipse 2" class="cls-2" cx="53.5" cy="53.5" r="53.5" transform="translate(436 767)"/>
      <circle id="Ellipse_2-2" data-name="Ellipse 2" class="cls-3" cx="19.75" cy="19.75" r="19.75" transform="translate(823 881)"/>
    </g>
    <g id="img" transform="translate(408 754.4)">
      <g id="그룹_632604" data-name="그룹 632604">
        <g id="그룹_632603" data-name="그룹 632603">
          <g id="그룹_632592" data-name="그룹 632592">
            <g id="그룹_632589" data-name="그룹 632589">
              <g id="그룹_632587" data-name="그룹 632587">
                <path id="패스_12593" data-name="패스 12593" class="cls-4" d="M362.155,79.867V64.383a15.151,15.151,0,0,1,10.077-14.26H259.388c-27.293,0-24.562,30.441-24.562,30.441v71.718H342.167a19.987,19.987,0,0,0,19.988-19.987V80.563S362.149,80.311,362.155,79.867Z"/>
              </g>
              <path id="사각형_463664" data-name="사각형 463664" class="cls-5" d="M24.685,0H94.757a0,0,0,0,1,0,0V45.3A22.807,22.807,0,0,1,71.949,68.106H0a0,0,0,0,1,0,0V24.685A24.685,24.685,0,0,1,24.685,0Z" transform="translate(251.112 66.409)"/>
              <path id="패스_12594" data-name="패스 12594" class="cls-6" d="M388.8,81.215V62.428c0-7.064-6-12.789-13.325-12.789s-13.325,5.725-13.325,12.789V81.215Z"/>
              <path id="패스_12595" data-name="패스 12595" class="cls-6" d="M320.7,132.295V103.884c0-7.064-6-12.789-13.325-12.789s-13.325,5.725-13.325,12.789v1.02H203.734v27.391a19.987,19.987,0,0,0,19.988,19.987H340.687A19.987,19.987,0,0,1,320.7,132.295Z"/>
              <g id="그룹_632588" data-name="그룹 632588">
                <path id="패스_12596" data-name="패스 12596" class="cls-4" d="M294.049,121.323V105.839a15.15,15.15,0,0,1,10.076-14.26H191.282c-27.293,0-24.562,30.441-24.562,30.441V238.155H274.061a19.987,19.987,0,0,0,19.988-19.987V122.019S294.043,121.767,294.049,121.323Z"/>
              </g>
            </g>
            <rect id="사각형_463665" data-name="사각형 463665" class="cls-5" width="94.757" height="22.209" transform="translate(183.006 146.36)"/>
            <path id="사각형_463666" data-name="사각형 463666" class="cls-5" d="M0,0H94.757a0,0,0,0,1,0,0V15.437a27.5,27.5,0,0,1-27.5,27.5H0a0,0,0,0,1,0,0V0A0,0,0,0,1,0,0Z" transform="translate(183.006 177.452)"/>
            <g id="그룹_632590" data-name="그룹 632590">
              <path id="패스_12597" data-name="패스 12597" class="cls-6" d="M274.061,238.155a19.987,19.987,0,0,1-19.988-19.987V189.3H137.108v28.871A19.987,19.987,0,0,0,157.1,238.155"/>
            </g>
          </g>
          <g id="그룹_632597" data-name="그룹 632597">
            <path id="패스_12602" data-name="패스 12602" class="cls-4" d="M314.274,238.275V141.24h74.167v97.035"/>
            <rect id="사각형_463667" data-name="사각형 463667" class="cls-7" width="46.972" height="19.778" transform="translate(327.872 154.837)"/>
            <g id="그룹_632593" data-name="그룹 632593">
              <line id="선_2365" data-name="선 2365" class="cls-4" x2="14.833" transform="translate(328.026 193.466)"/>
              <line id="선_2366" data-name="선 2366" class="cls-4" y1="14.833" transform="translate(335.443 186.049)"/>
            </g>
            <g id="그룹_632594" data-name="그룹 632594">
              <line id="선_2367" data-name="선 2367" class="cls-4" x2="14.833" transform="translate(360.165 193.466)"/>
            </g>
            <g id="그룹_632595" data-name="그룹 632595">
              <line id="선_2368" data-name="선 2368" class="cls-4" x2="10.489" y2="10.489" transform="translate(330.044 213.252)"/>
              <line id="선_2369" data-name="선 2369" class="cls-4" y1="10.489" x2="10.489" transform="translate(330.044 213.252)"/>
            </g>
            <g id="그룹_632596" data-name="그룹 632596">
              <line id="선_2370" data-name="선 2370" class="cls-4" x2="14.833" transform="translate(360.011 218.806)"/>
              <line id="선_2371" data-name="선 2371" class="cls-4" x1="3.09" transform="translate(365.882 213.861)"/>
              <line id="선_2372" data-name="선 2372" class="cls-4" x1="3.09" transform="translate(365.882 223.75)"/>
            </g>
          </g>
          <g id="그룹_632602" data-name="그룹 632602">
            <g id="그룹_632599" data-name="그룹 632599">
              <circle id="타원_1330" data-name="타원 1330" class="cls-4" cx="27.458" cy="27.458" r="27.458" transform="translate(103.433 208.985) rotate(-77.278)"/>
              <circle id="타원_1331" data-name="타원 1331" class="cls-8" cx="21" cy="21" r="21" transform="translate(115.594 167.175)"/>
              <g id="그룹_632598" data-name="그룹 632598">
                <path id="패스_12603" data-name="패스 12603" class="cls-9" d="M126.524,183.675l4.267,11.19a1,1,0,0,0,1.9-.082l3.092-10.849a1,1,0,0,1,1.918-.018l3.295,10.8a1,1,0,0,0,1.9.031l3.769-11.068"/>
                <line id="선_2373" data-name="선 2373" class="cls-9" x2="24" transform="translate(124.594 188.836)"/>
              </g>
            </g>
            <g id="그룹_632600" data-name="그룹 632600">
              <path id="패스_12604" data-name="패스 12604" class="cls-4" d="M108.805,238.588V227.147h54.916v11.441"/>
              <line id="선_2374" data-name="선 2374" class="cls-9" y2="5.72" transform="translate(121.39 227.147)"/>
            </g>
            <g id="그룹_632601" data-name="그룹 632601">
              <rect id="사각형_463668" data-name="사각형 463668" class="cls-4" width="54.916" height="11.441" transform="translate(108.805 215.706)"/>
              <line id="선_2375" data-name="선 2375" class="cls-9" y2="5.72" transform="translate(121.39 215.706)"/>
            </g>
          </g>
        </g>
        <line id="선_2376" data-name="선 2376" class="cls-9" x2="360" transform="translate(70 238.789)"/>
      </g>
      <g id="그룹_632605" data-name="그룹 632605">
        <path id="패스_12605" data-name="패스 12605" class="cls-10" d="M207.48,117.464h-4.45a2.739,2.739,0,0,1-1.7-.511,1.827,1.827,0,0,1-.678-1.562,1.8,1.8,0,0,1,.678-1.535,2.745,2.745,0,0,1,1.7-.511h13.491a2.762,2.762,0,0,1,1.686.511,1.79,1.79,0,0,1,.691,1.535,1.817,1.817,0,0,1-.691,1.562,2.756,2.756,0,0,1-1.686.511h-4.479v14.21a2.34,2.34,0,0,1-.608,1.687,2.187,2.187,0,0,1-1.659.636,2.232,2.232,0,0,1-1.672-.636,2.308,2.308,0,0,1-.623-1.687Z"/>
        <path id="패스_12606" data-name="패스 12606" class="cls-10" d="M227.551,113.179a2.972,2.972,0,0,1,1.742.484,3.017,3.017,0,0,1,1.05,1.341l6.636,16.09a1.968,1.968,0,0,1,0,1.7,2.137,2.137,0,0,1-1.355,1.092,2.082,2.082,0,0,1-1.728-.138,2.693,2.693,0,0,1-1.175-1.41l-1.244-3.262H223.6l-1.217,3.262a2.691,2.691,0,0,1-1.174,1.41,2.141,2.141,0,0,1-1.756.138,2.085,2.085,0,0,1-1.341-1.092,2,2,0,0,1,.014-1.7L224.759,115a3.019,3.019,0,0,1,1.051-1.341A2.966,2.966,0,0,1,227.551,113.179Zm-2.488,12.026h4.977l-2.434-6.441h-.11Z"/>
        <path id="패스_12607" data-name="패스 12607" class="cls-10" d="M247.981,127l-4.727,6.165a2.105,2.105,0,0,1-.719.595,2.4,2.4,0,0,1-.87.248,2.48,2.48,0,0,1-.9-.082,1.88,1.88,0,0,1-.774-.429,2.107,2.107,0,0,1-.733-1.4,2.155,2.155,0,0,1,.512-1.617l5.446-7.133-5.059-6.635a2.209,2.209,0,0,1-.484-1.617,2.152,2.152,0,0,1,.705-1.4,2.11,2.11,0,0,1,.8-.429,2.475,2.475,0,0,1,.9-.083,2.311,2.311,0,0,1,.857.249,2.145,2.145,0,0,1,.705.6l4.34,5.694,4.341-5.694a2.109,2.109,0,0,1,.691-.581,2.284,2.284,0,0,1,.871-.263,2.477,2.477,0,0,1,.9.083,1.89,1.89,0,0,1,.775.429,2.062,2.062,0,0,1,.718,1.4,2.344,2.344,0,0,1-.469,1.622l-5.06,6.654,5.446,7.085a2.259,2.259,0,0,1,.5,1.613,2.041,2.041,0,0,1-.719,1.392,1.886,1.886,0,0,1-.774.429,2.477,2.477,0,0,1-.9.083,2.552,2.552,0,0,1-.885-.249,1.835,1.835,0,0,1-.705-.593Z"/>
      </g>
    </g>
  </g>
</svg>
