<svg xmlns="http://www.w3.org/2000/svg" width="444" height="201" viewBox="0 0 444 201">
    <g transform="translate(-622 -2040)">
        <circle data-name="Ellipse 2" cx="48" cy="48" r="48" transform="translate(905 2049)" style="fill:#e4ffe1"/>
        <circle data-name="Ellipse 2" cx="19.75" cy="19.75" r="19.75" transform="translate(1009 2040)" style="fill:#e3e6fb"/>
    </g>
    <g data-name="그룹 632031">
        <g data-name="그룹 632016">
            <g data-name="그룹 632013" transform="translate(-28.5 -79.794)">
                <path data-name="패스 11637" d="M225.3 220.478v-98.46h38.571v98.46" style="stroke-width:3.031px;stroke-linecap:round;stroke-linejoin:round;stroke:#222;fill:#fff"/>
                <rect data-name="사각형 463384" width="6.429" height="6.564" rx=".866" transform="translate(247.795 167.966)" style="fill:#ddd"/>
                <rect data-name="사각형 463385" width="6.429" height="6.564" rx=".866" transform="translate(247.795 135.146)" style="fill:#ddd"/>
                <rect data-name="사각형 463386" width="6.429" height="6.564" rx=".866" transform="translate(247.795 151.556)" style="fill:#ddd"/>
                <rect data-name="사각형 463387" width="6.429" height="6.564" rx=".866" transform="translate(247.795 184.376)" style="fill:#ddd"/>
                <rect data-name="사각형 463388" width="6.429" height="6.564" rx=".866" transform="translate(247.795 200.786)" style="fill:#ddd"/>
            </g>
            <g data-name="그룹 632014">
                <path data-name="패스 11638" d="M161.01 220.478V125.3l38.571-22.974h6.429v118.152" style="fill:#f2ac58;stroke-width:3.031px;stroke-linecap:round;stroke-linejoin:round;stroke:#222" transform="translate(-28.5 -79.794)"/>
                <path data-name="선 2122" transform="translate(138.938 81.608)" style="stroke-width:3px;fill:none;stroke-linecap:round;stroke-linejoin:round;stroke:#222" d="M0 0h12.857"/>
                <path data-name="선 2123" transform="translate(138.938 68.48)" style="stroke-width:3px;fill:none;stroke-linecap:round;stroke-linejoin:round;stroke:#222" d="M0 0h12.857"/>
                <path data-name="선 2124" transform="translate(138.938 94.736)" style="stroke-width:3px;fill:none;stroke-linecap:round;stroke-linejoin:round;stroke:#222" d="M0 0h12.857"/>
                <path data-name="선 2125" transform="translate(138.938 107.864)" style="stroke-width:3px;fill:none;stroke-linecap:round;stroke-linejoin:round;stroke:#222" d="M0 0h12.857"/>
                <path data-name="선 2126" transform="translate(138.938 120.992)" style="stroke-width:3px;fill:none;stroke-linecap:round;stroke-linejoin:round;stroke:#222" d="M0 0h12.857"/>
            </g>
            <g data-name="그룹 632015">
                <path data-name="패스 11639" d="M196.367 220.478v-72.2h45v72.2" style="stroke-width:3.031px;stroke-linecap:round;stroke-linejoin:round;stroke:#222;fill:#fff" transform="translate(-28.5 -79.794)"/>
                <path data-name="선 2127" transform="translate(177.51 111.146)" style="stroke-width:3px;stroke-linecap:round;stroke-linejoin:round;stroke:#222;fill:#fff" d="M0 0h25.714"/>
                <path data-name="선 2128" transform="translate(177.51 98.018)" style="stroke-width:3px;stroke-linecap:round;stroke-linejoin:round;stroke:#222;fill:#fff" d="M0 0h25.714"/>
                <path data-name="선 2129" transform="translate(177.51 124.274)" style="stroke-width:3px;stroke-linecap:round;stroke-linejoin:round;stroke:#222;fill:#fff" d="M0 0h25.714"/>
                <path data-name="선 2130" transform="translate(177.51 84.89)" style="stroke-width:3px;stroke-linecap:round;stroke-linejoin:round;stroke:#222;fill:#fff" d="M0 0h25.714"/>
                <path data-name="사각형 463389" transform="translate(177.51 55.352)" style="stroke-width:3.031px;stroke-linecap:round;stroke-linejoin:round;stroke:#222;fill:#fff" d="M0 0h25.714v13.128H0z"/>
            </g>
            <path data-name="선 2131" transform="translate(124.5 141.559)" style="stroke-width:3px;fill:none;stroke-linecap:round;stroke-linejoin:round;stroke:#222" d="M0 0h120"/>
        </g>
        <g data-name="그룹 632028">
            <g data-name="그룹 632027">
                <g data-name="그룹 632021">
                    <g data-name="그룹 632020">
                        <g data-name="그룹 632019">
                            <path data-name="패스 11640" d="m222.062 277.422-.024-22.318 46.286.066v22.251" style="fill:#afdae9;stroke-miterlimit:10;stroke-width:1.01px;stroke:#222" transform="translate(-28.5 -79.794)"/>
                            <path data-name="패스 11641" d="m222.334 278.716-.024-22.878 46.988.068v22.81" style="fill:none;stroke-width:3.031px;stroke-linecap:round;stroke-linejoin:round;stroke:#222" transform="translate(-28.5 -79.794)"/>
                            <g data-name="그룹 632018">
                                <path data-name="패스 11642" d="M300.818 160.594a7.649 7.649 0 0 0-11.147.245 8.776 8.776 0 0 0-2.392 6.443l-.588 30.013s-.888-.829-1.427-1.4a7.637 7.637 0 0 0-11.147.245l-15.511 16.234a7.774 7.774 0 0 0-8.977 1.777l-15.175 15.879a8.791 8.791 0 0 0-2.406 5.858l-.421 19.966 28.494.043 39.779-41.609a8.768 8.768 0 0 0 2.379-6.467l.721-41.4a8.086 8.086 0 0 0-2.182-5.827z" style="stroke-width:3.031px;stroke-linecap:round;stroke-linejoin:round;stroke:#222;fill:#fff" transform="translate(-28.5 -79.794)"/>
                                <g data-name="그룹 632017">
                                    <path data-name="패스 11643" d="M285.376 195.922a8.525 8.525 0 0 1-.227 11.663h0l-17.727 18.545" style="stroke-width:3.031px;stroke-linecap:round;stroke-linejoin:round;stroke:#222;fill:#fff" transform="translate(-28.5 -79.794)"/>
                                </g>
                            </g>
                        </g>
                        <path data-name="패스 11644" d="M233.639 265.509a2.931 2.931 0 0 1 .009 4.023 2.629 2.629 0 0 1-3.84-.018 2.937 2.937 0 0 1-.009-4.017 2.634 2.634 0 0 1 3.84.012z" style="fill:#222" transform="translate(-28.5 -79.794)"/>
                    </g>
                </g>
                <g data-name="그룹 632026">
                    <g data-name="그룹 632025">
                        <g data-name="그룹 632024">
                            <path data-name="패스 11645" d="M202.753 277.422V255.1l-46.286.066v22.251" style="fill:#afdae9;stroke-miterlimit:10;stroke-width:1.01px;stroke:#222" transform="translate(-28.5 -79.794)"/>
                            <path data-name="패스 11646" d="M203.69 278.716v-22.878l-46.988.068v22.81" style="fill:none;stroke-width:3.031px;stroke-linecap:round;stroke-linejoin:round;stroke:#222" transform="translate(-28.5 -79.794)"/>
                            <g data-name="그룹 632023">
                                <path data-name="패스 11647" d="M125.182 160.594a7.649 7.649 0 0 1 11.147.245 8.776 8.776 0 0 1 2.392 6.443l.588 30.013s.888-.829 1.427-1.4a7.637 7.637 0 0 1 11.147.245l15.511 16.234a7.776 7.776 0 0 1 8.977 1.777l15.175 15.875a8.791 8.791 0 0 1 2.406 5.858l.421 19.966-28.494.043-39.779-41.605a8.768 8.768 0 0 1-2.379-6.467l-.721-41.4a8.086 8.086 0 0 1 2.182-5.827z" style="stroke-width:3.031px;stroke-linecap:round;stroke-linejoin:round;stroke:#222;fill:#fff" transform="translate(-28.5 -79.794)"/>
                                <g data-name="그룹 632022">
                                    <path data-name="패스 11648" d="M140.624 195.922a8.524 8.524 0 0 0 .227 11.663h0l17.727 18.546" style="stroke-width:3.031px;stroke-linecap:round;stroke-linejoin:round;stroke:#222;fill:#fff" transform="translate(-28.5 -79.794)"/>
                                </g>
                            </g>
                        </g>
                        <path data-name="패스 11649" d="M192.358 265.509a2.934 2.934 0 0 0-.006 4.023 2.629 2.629 0 0 0 3.84-.018 2.941 2.941 0 0 0 .009-4.017 2.637 2.637 0 0 0-3.843.012z" style="fill:#222" transform="translate(-28.5 -79.794)"/>
                    </g>
                </g>
            </g>
        </g>
        <g data-name="그룹 632030">
            <path data-name="패스 11650" d="M299 278.752v-40.843h80v40.843" style="fill:#fcf28d;stroke-width:3.031px;stroke-linecap:round;stroke-linejoin:round;stroke:#222" transform="translate(-28.5 -79.794)"/>
            <g data-name="그룹 632029">
                <path data-name="선 2132" transform="translate(270.5 191.811)" style="stroke-width:3px;fill:none;stroke-linecap:round;stroke-linejoin:round;stroke:#222" d="M0 0h80"/>
                <path data-name="선 2133" transform="translate(270.5 183.642)" style="stroke-width:3px;fill:none;stroke-linecap:round;stroke-linejoin:round;stroke:#222" d="M0 0h80"/>
                <path data-name="선 2134" transform="translate(270.5 175.473)" style="stroke-width:3px;fill:none;stroke-linecap:round;stroke-linejoin:round;stroke:#222" d="M0 0h80"/>
                <path data-name="선 2135" transform="translate(270.5 167.305)" style="stroke-width:3px;fill:none;stroke-linecap:round;stroke-linejoin:round;stroke:#222" d="M0 0h80"/>
            </g>
            <path data-name="패스 11651" d="M379 237.909h-80l7.193-10.211h65.615z" style="fill:#fcf28d;stroke-width:3.031px;stroke-linecap:round;stroke-linejoin:round;stroke:#222" transform="translate(-28.5 -79.794)"/>
            <path data-name="패스 11652" d="m332.264 237.286 1.216-9.588h11.081l1.213 9.588" style="stroke-width:3.031px;stroke-linecap:round;stroke-linejoin:round;stroke:#222;fill:#fff" transform="translate(-28.5 -79.794)"/>
            <path data-name="패스 11653" d="M332.5 278.752v-40.843h13v40.843" style="stroke-width:3.031px;stroke-linecap:round;stroke-linejoin:round;stroke:#222;fill:#fff" transform="translate(-28.5 -79.794)"/>
        </g>
    </g>
    <path data-name="선 2136" transform="translate(42.5 199.469)" style="stroke-width:3px;fill:none;stroke-linecap:round;stroke-linejoin:round;stroke:#222" d="M0 0h360"/>
</svg>
