<svg xmlns="http://www.w3.org/2000/svg" width="444" height="221" viewBox="0 0 444 221">
    <defs>
        <clipPath id="qsj18v4xfa">
            <path style="fill:none" d="M0 0h131v13.896H0z"/>
        </clipPath>
    </defs>
    <g transform="translate(39 21.281)">
        <circle data-name="Ellipse 2" cx="48.5" cy="48.5" r="48.5" transform="translate(3 -21.281)" style="fill:#fbf0e3"/>
        <circle data-name="Ellipse 2" cx="19.508" cy="19.508" r="19.508" transform="translate(265.967 18.717)" style="fill:#e4ffe1"/>
        <circle data-name="Ellipse 2" cx="30.875" cy="30.875" r="30.875" transform="translate(321.125 84.969)" style="fill:#dcf5fb"/>
        <path data-name="선 223" transform="translate(3.5 193.719)" style="stroke-width:3px;stroke-linejoin:round;stroke-linecap:round;stroke:#222;fill:none" d="M0 0h360"/>
    </g>
    <g data-name="그룹 632364">
        <g data-name="패스 10596" style="fill:#fff">
            <path d="M72.121 79.264H1.5V38.582L26.18 1.5h45.941v77.764z" style="stroke:none" transform="translate(59 125.301)"/>
            <path d="M26.984 3 3 39.036v38.728h67.621V3H26.984m-1.607-3H73.62v80.764H0V38.13L25.377 0z" style="fill:#222;stroke:none" transform="translate(59 125.301)"/>
        </g>
        <g data-name="패스 10597" style="fill:#e9f6fd">
            <path d="M43.358 33.739H9.163L24.336 11.5h19.022v22.239z" style="stroke:none" transform="translate(67.144 124.133)"/>
            <path d="M25.128 13 12.002 32.239h29.856V13h-16.73m-1.585-3h21.315v25.239H7v-.992L23.543 10z" style="fill:#222;stroke:none" transform="translate(67.144 124.133)"/>
        </g>
        <path data-name="선 1604" transform="translate(97.489 168.838)" style="stroke-width:3px;stroke-linecap:round;stroke:#222;fill:none" d="m0 0 10.727.06"/>
    </g>
    <g data-name="패스 10608" style="fill:#61be8d">
        <path d="M136.978 136.24 9.415 135.195 1.59 1.5h143.213l-7.825 134.74z" style="stroke:none" transform="translate(120.329 69.383)"/>
        <path d="m3.18 3 7.65 130.707 124.733 1.022L143.213 3H3.181M0 0h146.393l-8 137.752L8 136.684 0 0z" style="fill:#222;stroke:none" transform="translate(120.329 69.383)"/>
    </g>
    <g data-name="그룹 631386">
        <g data-name="사각형 463017" transform="translate(173.025 38.897)" style="stroke-width:3px;stroke:#222;fill:none">
            <rect width="41" height="22" rx="8" style="stroke:none"/>
            <rect x="1.5" y="1.5" width="38" height="19" rx="6.5" style="fill:none"/>
        </g>
        <g data-name="패스 12232" style="fill:#61be8d">
            <path d="M154 20.396H5c-.827 0-1.5-.673-1.5-1.5v-.094l-.012-.093L1.502 2.922C1.542 2.13 2.199 1.5 3 1.5h153c.8 0 1.457.631 1.498 1.422l-1.986 15.787-.012.093v.094c0 .827-.673 1.5-1.5 1.5z" style="stroke:none" transform="translate(114.025 52.486)"/>
            <path d="M3.024 3 5 18.712v.184h149v-.188L155.976 3H3.024M3 0h153a3 3 0 0 1 3 3l-2 15.896a3 3 0 0 1-3 3H5a3 3 0 0 1-3-3L0 3a3 3 0 0 1 3-3z" style="fill:#222;stroke:none" transform="translate(114.025 52.486)"/>
        </g>
        <g data-name="반복 그리드 1" transform="translate(128.025 56.486)" style="clip-path:url(#qsj18v4xfa)">
            <rect data-name="사각형 463047" width="5" height="13.896" rx="2.5" style="opacity:.204"/>
            <rect data-name="사각형 463047" width="5" height="13.896" rx="2.5" transform="translate(21)" style="opacity:.204"/>
            <rect data-name="사각형 463047" width="5" height="13.896" rx="2.5" transform="translate(42)" style="opacity:.204"/>
            <rect data-name="사각형 463047" width="5" height="13.896" rx="2.5" transform="translate(63)" style="opacity:.204"/>
            <rect data-name="사각형 463047" width="5" height="13.896" rx="2.5" transform="translate(84)" style="opacity:.204"/>
            <rect data-name="사각형 463047" width="5" height="13.896" rx="2.5" transform="translate(105)" style="opacity:.204"/>
            <rect data-name="사각형 463047" width="5" height="13.896" rx="2.5" transform="translate(126)" style="opacity:.204"/>
        </g>
    </g>
    <g data-name="타원 1047" transform="translate(99 171.897)" style="fill:#727272;stroke-width:3px;stroke:#222">
        <circle cx="21.5" cy="21.5" r="21.5" style="stroke:none"/>
        <circle cx="21.5" cy="21.5" r="20" style="fill:none"/>
    </g>
    <g data-name="타원 1219" transform="translate(223.993 171.991)" style="fill:#727272;stroke-width:3px;stroke:#222">
        <circle cx="21.453" cy="21.453" r="21.453" style="stroke:none"/>
        <circle cx="21.453" cy="21.453" r="19.953" style="fill:none"/>
    </g>
    <g data-name="그룹 631373">
        <path data-name="선 1894" style="stroke-width:3px;stroke-linejoin:round;stroke-linecap:round;stroke:#222;fill:none" d="M0 0h42.275" transform="translate(244.03 100.787)"/>
        <path data-name="선 1895" transform="translate(254.757 111.198)" style="stroke-width:3px;stroke-linejoin:round;stroke-linecap:round;stroke:#222;fill:none" d="M0 0h40.686"/>
        <path data-name="선 1896" transform="translate(245.292 122.556)" style="stroke-width:3px;stroke-linejoin:round;stroke-linecap:round;stroke:#222;fill:none" d="M0 0h42.275"/>
        <path data-name="선 1897" transform="translate(268.013 132.967)" style="stroke-width:3px;stroke-linejoin:round;stroke-linecap:round;stroke:#222;fill:none" d="M0 0h27.126"/>
    </g>
    <g data-name="그룹 631390">
        <g data-name="그룹 626534">
            <g data-name="그룹 626533">
                <g data-name="그룹 626530">
                    <path data-name="패스 3743" d="M281.559 183.278a3 3 0 0 0-5.376-.365l-10.537 18.251L281.3 210.2l7.913-13.712s-7.589-13.057-7.654-13.21z" transform="translate(-95.925 -93.424)" style="stroke-miterlimit:10;fill:#fff;stroke-width:3px;stroke:#222"/>
                    <path data-name="패스 3744" d="m311.514 193.825-5.842 3.371-8.09-14.016a3.016 3.016 0 0 0-2.738-1.766h-20.889a3.021 3.021 0 0 1 2.6 1.49l13.46 23.327-5.665 3.273.269.346L306 215.58l5.732-21.382z" transform="translate(-91.108 -93.424)" style="stroke-miterlimit:10;fill:#fff;stroke-width:3px;stroke:#222"/>
                </g>
                <g data-name="그룹 626531">
                    <path data-name="패스 3745" d="M314.87 227.2a3 3 0 0 0 3-4.474l-10.535-18.25-15.653 9.036 7.916 13.712s15.102-.046 15.272-.024z" transform="translate(-80.829 -80.054)" style="stroke-miterlimit:10;fill:#fff;stroke-width:3px;stroke:#222"/>
                    <path data-name="패스 3746" d="M295.477 246.1v-6.746h16.182a3 3 0 0 0 2.9-1.487L325 219.774a3.02 3.02 0 0 1-2.591 1.507h-26.932v-6.547l-.431.062-15.652 15.651 15.651 15.653z" transform="translate(-87.955 -74.108)" style="stroke-miterlimit:10;fill:#fff;stroke-width:3px;stroke:#222"/>
                </g>
                <g data-name="그룹 626532">
                    <path data-name="패스 3747" d="M258.717 232.083a3.005 3.005 0 0 0 2.374 4.84h21.076v-18.072h-15.833s-7.513 13.101-7.617 13.232z" transform="translate(-100.304 -71.719)" style="stroke-miterlimit:10;fill:#fff;stroke-width:3px;stroke:#222"/>
                    <path data-name="패스 3748" d="m254.3 207.065 5.844 3.376-8.09 14.014a3.009 3.009 0 0 0-.166 3.253l10.443 18.092a3.023 3.023 0 0 1-.013-3l13.466-23.321 5.671 3.273.163-.406-5.73-21.381-21.379 5.728z" transform="translate(-104.136 -82.089)" style="stroke-miterlimit:10;fill:#fff;stroke-width:3px;stroke:#222"/>
                </g>
            </g>
        </g>
    </g>
    <g>
        <g data-name="그룹 631447">
            <g data-name="패스 10627" style="fill:none">
                <path d="M2.671 0h12.6c2.275.015 3.3 1.762 3.781 3.781l1.89 8.191H-3l1.89-8.191C-.673 1.86.583 0 2.671 0z" style="stroke:none" transform="translate(341.373 130.134)"/>
                <path d="M2.67 3c-.059 0-.12 0-.27.168-.247.276-.465.753-.584 1.278l-.003.01L.771 8.971h16.402l-1.04-4.507c-.212-.887-.462-1.245-.56-1.357-.06-.07-.091-.106-.312-.108H2.67m0-3h12.602c2.275.015 3.302 1.762 3.78 3.78l1.89 8.192H-3l1.89-8.191C-.673 1.86.583 0 2.67 0z" style="fill:#222;stroke:none" transform="translate(341.373 130.134)"/>
            </g>
            <g data-name="패스 10609" style="fill:#ddd">
                <path d="M54.01 75.775H12.324c-2.656 0-4.817-1.76-4.817-3.923v-.067l-.006-.068-6-66.355C1.54 3.227 3.686 1.5 6.318 1.5h53.699c2.631 0 4.777 1.727 4.817 3.862l-6 66.355-.006.068v.067c0 2.163-2.161 3.923-4.818 3.923z" style="stroke:none" transform="translate(316.949 143.275)"/>
                <path d="M6.318 3C4.566 3 3.079 4.053 3.003 5.321l6.004 66.396v.135c0 1.314 1.519 2.423 3.317 2.423H54.01c1.799 0 3.318-1.11 3.318-2.423v-.135L63.33 5.32C63.255 4.053 61.77 3 60.017 3h-53.7m0-3h53.7c3.489 0 6.317 2.428 6.317 5.423l-6.006 66.43c0 2.994-2.829 5.422-6.318 5.422H12.324c-3.489 0-6.317-2.428-6.317-5.423L0 5.422C0 2.429 2.828 0 6.318 0z" style="fill:#222;stroke:none" transform="translate(316.949 143.275)"/>
            </g>
            <g data-name="사각형 463019" style="fill:#ddd;stroke-width:3px;stroke:#222">
                <path d="M6 0h57.311a6 6 0 0 1 6 6v2a2 2 0 0 1-2 2H2a2 2 0 0 1-2-2V6a6 6 0 0 1 6-6z" style="stroke:none" transform="translate(315.689 138.741)"/>
                <path d="M6 1.5h57.311a4.5 4.5 0 0 1 4.5 4.5v2a.5.5 0 0 1-.5.5H2a.5.5 0 0 1-.5-.5V6A4.5 4.5 0 0 1 6 1.5z" style="fill:none" transform="translate(315.689 138.741)"/>
            </g>
            <path data-name="선 1904" transform="translate(350.03 163.424)" style="stroke:#727272;stroke-width:3px;stroke-linecap:round;fill:none" d="M0 0v43.037"/>
            <path data-name="선 1905" transform="rotate(3 -2938.58 7019.958)" style="stroke:#727272;stroke-width:3px;stroke-linecap:round;fill:none" d="M.781 0 0 43.065"/>
            <path data-name="선 1906" transform="rotate(-3 3289.003 -6332.234)" style="stroke:#727272;stroke-width:3px;stroke-linecap:round;fill:none" d="m0 0 .781 43.065"/>
        </g>
    </g>
    <g data-name="휴지통">
        <g data-name="그룹 631447">
            <g data-name="패스 10627" style="fill:none">
                <path d="M1.331 0h9.625c1.738.011 2.522 1.346 2.888 2.888l1.444 6.256H-3l1.444-6.256C-1.223 1.42-.263 0 1.331 0z" style="stroke:none" transform="translate(299.731 151.658)"/>
                <path d="M1.576 3c-.066.114-.15.302-.207.553l-.002.01-.596 2.58h10.745l-.593-2.57A3.243 3.243 0 0 0 10.739 3H1.576m-.245-3h9.625c1.738.011 2.522 1.346 2.888 2.888l1.444 6.256H-3l1.444-6.256C-1.223 1.42-.263 0 1.33 0z" style="fill:#222;stroke:none" transform="translate(299.731 151.658)"/>
            </g>
            <g data-name="패스 10609" style="fill:#fff">
                <path d="M41.251 57.52H9.413c-.93 0-1.796-.302-2.435-.851-.574-.493-.89-1.129-.89-1.79v-.068l-.006-.068L1.5 4.083c.018-.64.332-1.253.89-1.732.639-.549 1.504-.851 2.434-.851H45.84c.93 0 1.795.302 2.435.851.557.479.871 1.091.89 1.732l-4.582 50.66-.006.068v.067c0 .662-.316 1.298-.89 1.79-.64.55-1.504.852-2.435.852z" style="stroke:none" transform="translate(280.369 161.695)"/>
                <path d="M4.825 3c-.995 0-1.75.547-1.82 1.064l4.583 50.679v.135c0 .54.78 1.142 1.825 1.142H41.25c1.045 0 1.825-.603 1.825-1.142v-.135L47.66 4.064C47.589 3.547 46.834 3 45.839 3H4.825m0-3H45.84c2.665 0 4.825 1.854 4.825 4.142l-4.588 50.736c0 2.288-2.16 4.142-4.825 4.142H9.413c-2.665 0-4.825-1.854-4.825-4.142L0 4.142C0 1.854 2.16 0 4.825 0z" style="fill:#222;stroke:none" transform="translate(280.369 161.695)"/>
            </g>
            <g data-name="사각형 463019" style="fill:#fff;stroke-width:3px;stroke:#222">
                <path d="M6 0h40.938a6 6 0 0 1 6 6v2a2 2 0 0 1-2 2H2a2 2 0 0 1-2-2V6a6 6 0 0 1 6-6z" style="stroke:none" transform="translate(279.406 158.232)"/>
                <path d="M6 1.5h40.938a4.5 4.5 0 0 1 4.5 4.5v2a.5.5 0 0 1-.5.5H2a.5.5 0 0 1-.5-.5V6A4.5 4.5 0 0 1 6 1.5z" style="fill:none" transform="translate(279.406 158.232)"/>
            </g>
            <path data-name="선 1904" transform="translate(305.634 177.084)" style="stroke:#e9e9e9;stroke-width:3px;stroke-linecap:round;fill:none" d="M0 0v32.87"/>
            <path data-name="선 1905" transform="rotate(3 -3223.219 6118.916)" style="stroke:#e9e9e9;stroke-width:3px;stroke-linecap:round;fill:none" d="M.597 0 0 32.892"/>
            <path data-name="선 1906" transform="rotate(-3 3529.147 -5541.4)" style="stroke:#e9e9e9;stroke-width:3px;stroke-linecap:round;fill:none" d="m0 0 .597 32.892"/>
        </g>
    </g>
</svg>
