<svg xmlns="http://www.w3.org/2000/svg" width="444" height="259" viewBox="0 0 444 259">
  <defs>
    <style>
      .cls-1 {
        fill: rgba(255,191,191,0.5);
        opacity: 0;
      }

      .cls-2 {
        fill: #fbf0e3;
      }

      .cls-3 {
        fill: #dcf5fb;
      }

      .cls-12, .cls-4, .cls-5 {
        fill: #fff;
      }

      .cls-12, .cls-13, .cls-5, .cls-6, .cls-7, .cls-8, .cls-9 {
        stroke: #222;
      }

      .cls-10, .cls-12, .cls-13, .cls-5, .cls-6, .cls-8, .cls-9 {
        stroke-linecap: round;
        stroke-linejoin: round;
      }

      .cls-5, .cls-6, .cls-7, .cls-8, .cls-9 {
        stroke-width: 3px;
      }

      .cls-10, .cls-13, .cls-6 {
        fill: none;
      }

      .cls-7 {
        fill: #afdae9;
        stroke-miterlimit: 10;
      }

      .cls-8 {
        fill: #fcf28d;
      }

      .cls-9 {
        fill: #e6e6e6;
      }

      .cls-10 {
        stroke: #e4e4e4;
        stroke-width: 4px;
      }

      .cls-11 {
        fill: #f2ac58;
      }

      .cls-12, .cls-13 {
        stroke-width: 2.4px;
      }
    </style>
  </defs>
  <g id="SWKDIFDT8100_1" transform="translate(-436 -767)">
    <g id="deco">
      <rect id="BG" class="cls-1" width="444" height="259" transform="translate(436 767)"/>
      <circle id="Ellipse_2" data-name="Ellipse 2" class="cls-2" cx="53.5" cy="53.5" r="53.5" transform="translate(756 807)"/>
      <circle id="Ellipse_2-2" data-name="Ellipse 2" class="cls-3" cx="19.75" cy="19.75" r="19.75" transform="translate(451 767)"/>
    </g>
    <g id="img" transform="translate(-184.036 -785.029)">
      <g id="그룹_633998" data-name="그룹 633998">
        <g id="그룹_633997" data-name="그룹 633997">
          <path id="패스_15839" data-name="패스 15839" class="cls-4" d="M0,0H48l8,36H-8Z" transform="translate(789.036 1770.957)"/>
          <path id="패스_15357" data-name="패스 15357" class="cls-5" d="M909.833,1625.4a1.967,1.967,0,0,1,1.961,1.961v141.7a1.763,1.763,0,0,1-1.763,1.763H713.684a1.966,1.966,0,0,1-1.961-1.961v-141.5a1.967,1.967,0,0,1,1.961-1.961Z"/>
          <line id="선_2970" data-name="선 2970" class="cls-6" x1="8.814" y2="36.136" transform="translate(781.351 1770.826)"/>
          <line id="선_2971" data-name="선 2971" class="cls-6" x2="8.814" y2="36.136" transform="translate(835.996 1770.826)"/>
          <line id="선_2972" data-name="선 2972" class="cls-5" x2="198.308" transform="translate(712.604 1748.898)"/>
        </g>
      </g>
      <line id="선_2973" data-name="선 2973" class="cls-6" x2="360" transform="translate(662.036 1807.434)"/>
      <g id="그룹_634001" data-name="그룹 634001">
        <path id="패스_15358" data-name="패스 15358" class="cls-7" d="M941.1,1804.318a1.956,1.956,0,0,1-.707-.132,72.778,72.778,0,0,1-30.383-21.513,79.309,79.309,0,0,1-14.385-27.038,96.622,96.622,0,0,1-4.421-32.9,1.968,1.968,0,0,1,1.7-1.8c15.156-2.052,27.006-9.172,34.279-14.784a72.5,72.5,0,0,0,12.352-11.891,1.968,1.968,0,0,1,1.567-.778h0a1.967,1.967,0,0,1,1.568.779,72.444,72.444,0,0,0,12.35,11.89c7.273,5.612,19.124,12.732,34.28,14.784a1.968,1.968,0,0,1,1.7,1.8,96.593,96.593,0,0,1-4.421,32.9,79.309,79.309,0,0,1-14.385,27.038,72.774,72.774,0,0,1-30.382,21.513A1.965,1.965,0,0,1,941.1,1804.318Z"/>
        <g id="그룹_634000" data-name="그룹 634000">
          <g id="그룹_633999" data-name="그룹 633999">
            <circle id="타원_1429" data-name="타원 1429" class="cls-4" cx="21" cy="21" r="21" transform="translate(918.978 1731.593)"/>
            <path id="패스_15359" data-name="패스 15359" class="cls-6" d="M960.644,1748.837a21,21,0,1,1-20.666-17.245,20.906,20.906,0,0,1,11.271,3.279"/>
          </g>
          <path id="패스_15360" data-name="패스 15360" class="cls-8" d="M963.228,1740.144l-5.048-4.8-18,17.282-7.8-7.425-5.145,4.9,12.828,12.243.022-.018.015.018Z"/>
        </g>
      </g>
      <path id="패스_15361" data-name="패스 15361" class="cls-9" d="M876.758,1704.944s-1.628,21.442-24.123,21.442-15.977-28.949-15.977-28.949l40.1-8.494Z"/>
      <path id="패스_15362" data-name="패스 15362" class="cls-5" d="M857.241,1710.368l.609,5.03a9.809,9.809,0,0,1-9.737,10.988H749.758a3,3,0,0,1-3-3V1573.58a3,3,0,0,1,3-3h124a3,3,0,0,1,3,3v123.638a10.934,10.934,0,0,1-13.334,10.668l-2.752-.62A2.83,2.83,0,0,0,857.241,1710.368Z"/>
      <line id="선_2974" data-name="선 2974" class="cls-10" x2="39.328" transform="translate(813.307 1603.039)"/>
      <line id="선_2975" data-name="선 2975" class="cls-10" x2="23.351" transform="translate(813.307 1616.023)"/>
      <line id="선_2976" data-name="선 2976" class="cls-10" x2="30.725" transform="translate(813.307 1629.007)"/>
      <g id="그룹_634002" data-name="그룹 634002">
        <path id="패스_15363" data-name="패스 15363" class="cls-11" d="M796.118,1634.23v-16.864c0-3.1-3.839-5.637-8.531-5.637H773.368c-4.692,0-8.531,2.537-8.531,5.637v16.864Z"/>
        <ellipse id="타원_1430" data-name="타원 1430" class="cls-12" cx="6.517" cy="6.923" rx="6.517" ry="6.923" transform="translate(774.773 1594.23)"/>
        <path id="패스_15364" data-name="패스 15364" class="cls-13" d="M796.5,1633.365v-14.671c0-3.831-3.839-6.965-8.531-6.965H773.746c-4.692,0-8.531,3.134-8.531,6.965v14.671"/>
        <line id="선_2977" data-name="선 2977" class="cls-13" y1="7.789" transform="translate(790.414 1625.576)"/>
        <line id="선_2978" data-name="선 2978" class="cls-13" y2="7.789" transform="translate(772.166 1625.576)"/>
      </g>
      <line id="선_2979" data-name="선 2979" class="cls-6" x2="60" transform="translate(764.452 1651.741)"/>
      <line id="선_2980" data-name="선 2980" class="cls-6" x2="60" transform="translate(790.664 1680.675)"/>
      <line id="선_2981" data-name="선 2981" class="cls-6" x2="16" transform="translate(834.664 1651.659)"/>
      <line id="선_2982" data-name="선 2982" class="cls-6" x2="16" transform="translate(764.166 1680.675)"/>
      <line id="선_2983" data-name="선 2983" class="cls-6" x2="39.365" transform="translate(764.452 1666.208)"/>
      <line id="선_2984" data-name="선 2984" class="cls-6" x2="35.741" transform="translate(814.923 1666.208)"/>
    </g>
  </g>
</svg>
