<svg xmlns="http://www.w3.org/2000/svg" width="187" height="406" viewBox="0 0 187 406">
    <defs>
        <filter id="e0b9qt7gla" x="0" y="0" width="187" height="86" filterUnits="userSpaceOnUse">
            <feOffset dy="1"/>
            <feGaussianBlur stdDeviation="1" result="blur"/>
            <feFlood flood-opacity=".161"/>
            <feComposite operator="in" in2="blur"/>
            <feComposite in="SourceGraphic"/>
        </filter>
        <filter id="idc7cl35qb" x="0" y="149" width="187" height="97" filterUnits="userSpaceOnUse">
            <feOffset dy="1"/>
            <feGaussianBlur stdDeviation="1" result="blur-2"/>
            <feFlood flood-opacity=".161"/>
            <feComposite operator="in" in2="blur-2"/>
            <feComposite in="SourceGraphic"/>
        </filter>
        <filter id="ladebj9jgc" x="0" y="309" width="187" height="97" filterUnits="userSpaceOnUse">
            <feOffset dy="1"/>
            <feGaussianBlur stdDeviation="1" result="blur-3"/>
            <feFlood flood-opacity=".161"/>
            <feComposite operator="in" in2="blur-3"/>
            <feComposite in="SourceGraphic"/>
        </filter>
    </defs>
    <g data-name="중앙 줄">
        <path data-name="&gt;" d="m0 11 8-5V5L0 0z" transform="rotate(-90 81 13)" style="fill:#c3c3c7"/>
        <path data-name="&gt;" d="m0 0 8 5v1l-8 5z" transform="rotate(90 -9.5 129.5)" style="fill:#c3c3c7"/>
        <g data-name="그룹 626081">
            <g data-name="그룹 626087">
                <path data-name="line" transform="rotate(-90 112 39)" style="fill:#c3c3c7" d="M0 0h65v1H0z"/>
                <path data-name="line" transform="rotate(-90 130.5 16.5)" style="fill:#c3c3c7" d="M0 0h65v1H0z"/>
            </g>
        </g>
        <g>
            <g transform="translate(63 106)">
                <circle data-name="타원 551" cx="10.5" cy="10.5" r="10.5" style="fill:#999fa7"/>
                <text data-name="3" transform="translate(11 16)" style="font-weight:700;font-family:Lato-Bold,Lato;font-size:14px;fill:#fff"><tspan x="-4.06" y="0">3</tspan></text>
            </g>
            <g data-name="no" transform="translate(104 106)">
                <circle data-name="타원 551" cx="10.5" cy="10.5" r="10.5" style="fill:#999fa7"/>
                <text data-name="4" transform="translate(11 16)" style="font-weight:700;font-family:Lato-Bold,Lato;font-size:14px;fill:#fff"><tspan x="-4.06" y="0">4</tspan></text>
            </g>
        </g>
    </g>
    <g style="filter:url(#e0b9qt7gla)">
        <rect data-name="사각형 460866" width="181" height="80" rx="8" transform="translate(3 2)" style="fill:#4bacff"/>
    </g>
    <g data-name="그룹 626070">
        <text data-name="SGI 서울보증" transform="translate(94 64)" style="font-family:AppleSDGothicNeo-Bold,Apple SD Gothic Neo;font-weight:700;font-size:14px;fill:#fff"><tspan x="-36.442" y="0">SGI 서울보증</tspan></text>
        <path data-name="패스 1353" d="M0 21.77a18.293 18.293 0 0 0 6.75 2.69c5.078 1.04 10.99.7 11.022-3.426V17.76h-4.089v3.567c-2.647.228-5-1.094-5.154-3.582a3.649 3.649 0 0 1 1.952-3.454c2.13-1.2 5.979-1.1 8.972.476 6.257 3.285 5.778 11 .265 14.025C13.018 32.47 2.43 29.838 0 28.8z" transform="translate(82 12.315)" style="fill:#003174"/>
        <path data-name="패스 1354" d="M22.91 9.793c-6.492-3.287-13.422-2.385-16.2-.136-3.1 2.509-3.161 6.662-.907 8.69-6.367-2.194-6.417-7.953-4.682-10.735C3.946 3.071 13.6.913 22.91 4.56z" transform="translate(81.972 14.283)" style="fill:#e60c19"/>
    </g>
    <g style="filter:url(#idc7cl35qb)">
        <rect data-name="area" width="181" height="91" rx="8" transform="translate(3 151)" style="fill:#e6f2ff"/>
    </g>
    <g style="filter:url(#ladebj9jgc)">
        <rect data-name="area" width="181" height="91" rx="8" transform="translate(3 311)" style="fill:#e7f8f4"/>
    </g>
    <g data-name="그룹 626077">
        <text data-name="법원" transform="translate(94 384)" style="font-family:AppleSDGothicNeo-Bold,Apple SD Gothic Neo;font-weight:700;font-size:14px"><tspan x="-12.11" y="0">법원</tspan></text>
        <g data-name="그룹 626091" transform="translate(-3895 -3573.531)">
            <path data-name="합치기 12" d="M6 33V12H3a1 1 0 0 1-1-1V9c0-.553.514-.7 1-1l14.8-7L33 8c.648.344 1 .447 1 1v2a1 1 0 0 1-1 1h-3v21z" transform="translate(3971 3899.531)" style="fill:#00c8d0"/>
            <g data-name="그룹 626099">
                <path data-name="사각형 460969" transform="translate(3981 3914.531)" style="fill:#e7f8f4" d="M0 0h3v12H0z"/>
                <path data-name="사각형 460969" transform="translate(3987.5 3914.531)" style="fill:#e7f8f4" d="M0 0h3v12H0z"/>
                <path data-name="사각형 460969" transform="translate(3994 3914.531)" style="fill:#e7f8f4" d="M0 0h3v12H0z"/>
            </g>
            <circle data-name="타원 554" cx="3" cy="3" r="3" transform="translate(3986 3904.531)" style="opacity:.2"/>
            <rect data-name="사각형 460970" width="32" height="4" rx="1" transform="translate(3973 3928.531)" style="fill:#00a0a7"/>
        </g>
    </g>
    <g data-name="그룹 626090">
        <g data-name="중앙 줄">
            <g data-name="line">
                <path data-name="&gt;" d="m0 11 8-5V5L0 0z" transform="rotate(-90 171.5 82.5)" style="fill:#c3c3c7"/>
                <path data-name="&gt;" d="m0 0 8 5v1l-8 5z" transform="rotate(90 -120 179)" style="fill:#43495a"/>
            </g>
            <g data-name="그룹 626081">
                <g data-name="그룹 626087">
                    <path data-name="line" transform="rotate(-90 180 127)" style="fill:#43495a" d="M0 0h65v1H0z"/>
                    <path data-name="line" transform="rotate(-90 202.5 108.5)" style="fill:#c3c3c7" d="M0 0h65v1H0z"/>
                    <path data-name="line" transform="rotate(-90 221 86)" style="fill:#c3c3c7" d="M0 0h65v1H0z"/>
                    <text transform="translate(1 281)" style="font-family:AppleSDGothicNeo-Regular,Apple SD Gothic Neo;fill:#43495a;font-size:14px"><tspan x="0" y="0">START</tspan></text>
                </g>
            </g>
        </g>
        <g data-name="중앙 줄">
            <g data-name="line">
                <path data-name="&gt;" d="m0 0 8 5v1l-8 5z" transform="rotate(90 -79 220)" style="fill:#c3c3c7"/>
            </g>
            <g data-name="no_set">
                <g data-name="no" transform="translate(125 266)">
                    <circle data-name="타원 551" cx="10.5" cy="10.5" r="10.5" style="fill:#999fa7"/>
                    <text data-name="5" transform="translate(11 16)" style="font-weight:700;font-family:Lato-Bold,Lato;font-size:14px;fill:#fff"><tspan x="-4.06" y="0">5</tspan></text>
                </g>
                <g data-name="no" transform="translate(43 266)">
                    <circle data-name="타원 551" cx="10.5" cy="10.5" r="10.5" style="fill:#999fa7"/>
                    <text data-name="1" transform="translate(11 16)" style="font-weight:700;font-family:Lato-Bold,Lato;font-size:14px;fill:#fff"><tspan x="-4.06" y="0">1</tspan></text>
                </g>
                <g data-name="no" transform="translate(84 266)">
                    <circle data-name="타원 551" cx="10.5" cy="10.5" r="10.5" style="fill:#999fa7"/>
                    <text data-name="2" transform="translate(11 16)" style="font-weight:700;font-family:Lato-Bold,Lato;font-size:14px;fill:#fff"><tspan x="-4.06" y="0">2</tspan></text>
                </g>
            </g>
        </g>
    </g>
    <g data-name="그룹 626077">
        <g data-name="그룹 626098">
            <g data-name="그룹 626095" transform="translate(2575 -6602)" style="opacity:.998">
                <path data-name="사각형 460951" d="M3 0h13a10 10 0 0 1 10 10v18a3 3 0 0 1-3 3H3a3 3 0 0 1-3-3V3a3 3 0 0 1 3-3z" transform="translate(-2497 6772)" style="fill:#635aef"/>
                <rect data-name="사각형 460953" width="13" height="1.5" rx=".75" transform="translate(-2493 6789)" style="fill:#fff"/>
                <rect data-name="사각형 460971" width="9" height="1.5" rx=".75" transform="translate(-2493 6793)" style="fill:#fff"/>
                <g data-name="그룹 626093">
                    <path data-name="패스 2203" d="m11.5 9 1.2 5.762 2.161-4.8 2.161 4.8L18.223 9" transform="translate(-2501.861 6769.119)" style="fill:none;stroke:#fff;stroke-linecap:round;stroke-linejoin:round;stroke-width:1.5px"/>
                    <path data-name="선 9" transform="translate(-2492 6780)" style="fill:none;stroke:#fff;stroke-linecap:round;stroke-linejoin:round;stroke-width:1.5px" d="M0 0h2"/>
                    <path data-name="선 10" transform="translate(-2484 6780)" style="fill:none;stroke:#fff;stroke-linecap:round;stroke-linejoin:round;stroke-width:1.5px" d="M0 0h2"/>
                </g>
            </g>
            <g data-name="그룹 626097">
                <path data-name="패스 2204" d="M16 4a4 4 0 1 1-4-4 4 4 0 0 1 4 4" transform="translate(91 184)" style="fill:#c0b5ff"/>
                <path data-name="사각형 459205" d="M4 0h6a4 4 0 0 1 4 4v3a1 1 0 0 1-1 1H1a1 1 0 0 1-1-1V4a4 4 0 0 1 4-4z" transform="translate(96 193)" style="fill:#c0b5ff"/>
            </g>
        </g>
        <text transform="translate(94 224)" style="font-family:AppleSDGothicNeo-Bold,Apple SD Gothic Neo;font-weight:700;font-size:14px"><tspan x="-18.165" y="0">신청인</tspan></text>
    </g>
</svg>
