<svg xmlns="http://www.w3.org/2000/svg" width="444" height="260" viewBox="0 0 444 260">
  <defs>
    <style>
      .cls-1 {
        fill: rgba(255,191,191,0.5);
        opacity: 0;
      }

      .cls-2 {
        fill: #fbf0e3;
      }

      .cls-3 {
        fill: #ecfbec;
      }

      .cls-4 {
        fill: #e3e6fb;
      }

      .cls-13, .cls-5 {
        fill: #f2ac58;
      }

      .cls-10, .cls-6 {
        fill: none;
      }

      .cls-10, .cls-12, .cls-13, .cls-6, .cls-7 {
        stroke: #222;
        stroke-linecap: round;
        stroke-linejoin: round;
      }

      .cls-12, .cls-13, .cls-6, .cls-7 {
        stroke-width: 3px;
      }

      .cls-11, .cls-7 {
        fill: #fff;
      }

      .cls-8 {
        fill: #333;
      }

      .cls-9 {
        fill: #fcf28d;
      }

      .cls-10 {
        stroke-width: 2.4px;
      }

      .cls-12 {
        fill: #e6eaed;
      }
    </style>
  </defs>
  <g id="SWKDIFDT3600_2" transform="translate(-622 -2009)">
    <g id="deco">
      <rect id="BG" class="cls-1" width="444" height="260" transform="translate(622 2009)"/>
      <ellipse id="타원_559" data-name="타원 559" class="cls-2" cx="45.5" cy="46.5" rx="45.5" ry="46.5" transform="translate(697 2029)"/>
      <circle id="타원_560" data-name="타원 560" class="cls-3" cx="20" cy="20" r="20" transform="translate(964 2009)"/>
      <circle id="Ellipse_2" data-name="Ellipse 2" class="cls-4" cx="19.75" cy="19.75" r="19.75" transform="translate(1004.25 2084)"/>
    </g>
    <g id="img" transform="translate(-10.087 -5)">
      <g id="그룹_2443" data-name="그룹 2443" transform="translate(771.132 2047.003)">
        <path id="패스_4038" data-name="패스 4038" class="cls-5" d="M242.484,226.083h-140v-180l140,10Z" transform="translate(-102.484 -13.917)"/>
        <path id="패스_4039" data-name="패스 4039" class="cls-6" d="M102.484,226.083v-180l140,10v170" transform="translate(-102.484 -13.917)"/>
        <rect id="사각형_1210" data-name="사각형 1210" class="cls-7" width="120" height="150" transform="translate(10 52.165)"/>
        <path id="패스_4040" data-name="패스 4040" class="cls-7" d="M242.484,56.083H112.523a10,10,0,1,1,0-20H242.484v20" transform="translate(-102.484 -13.917)"/>
        <g id="그룹_2442" data-name="그룹 2442" transform="translate(42.503 85.584)">
          <path id="패스_4041" data-name="패스 4041" class="cls-8" d="M149.608,101.31v13.821h4.243a1.809,1.809,0,0,1,1.81,1.809h0a1.81,1.81,0,0,1-1.81,1.81H146.8a1.81,1.81,0,0,1-1.81-1.81V101.31A1.809,1.809,0,0,1,146.8,99.5h1A1.809,1.809,0,0,1,149.608,101.31Z" transform="translate(-144.987 -99.501)"/>
          <path id="패스_4042" data-name="패스 4042" class="cls-8" d="M169.687,115.349h-7.08l-.619,1.855a2.262,2.262,0,0,1-2.145,1.546h0a2.262,2.262,0,0,1-2.13-3.021L162.963,101a2.261,2.261,0,0,1,2.131-1.5h2.161a2.261,2.261,0,0,1,2.13,1.5l5.251,14.726a2.261,2.261,0,0,1-2.13,3.021h-.054a2.262,2.262,0,0,1-2.146-1.546Zm-3.54-10.666-2.324,7.047H168.5Z" transform="translate(-144.987 -99.501)"/>
          <path id="패스_4043" data-name="패스 4043" class="cls-8" d="M176.564,99.5h0a2.349,2.349,0,0,1,2.306,1.9l2.359,12.111,2.945-12.212a2.348,2.348,0,0,1,2.284-1.8h1.361a2.35,2.35,0,0,1,2.29,1.82l2.822,12.191,2.382-12.115a2.35,2.35,0,0,1,2.306-1.9h.01a2.349,2.349,0,0,1,2.276,2.934l-3.738,14.55a2.35,2.35,0,0,1-2.276,1.765h-1.917a2.35,2.35,0,0,1-2.285-1.8l-2.6-10.864L184.4,116.964a2.351,2.351,0,0,1-2.281,1.786H180.2a2.351,2.351,0,0,1-2.28-1.78l-3.635-14.55A2.349,2.349,0,0,1,176.564,99.5Z" transform="translate(-144.987 -99.501)"/>
        </g>
        <path id="패스_4044" data-name="패스 4044" class="cls-9" d="M149.1,45.3h-28V15.135a1.216,1.216,0,0,1,1.69-1.12L135.1,19.23l12.309-5.215a1.216,1.216,0,0,1,1.691,1.12Z" transform="translate(-102.484 -13.917)"/>
        <path id="패스_4045" data-name="패스 4045" class="cls-10" d="M121.1,45.3V15.135a1.216,1.216,0,0,1,1.69-1.12L135.1,19.23l12.309-5.215a1.216,1.216,0,0,1,1.691,1.12V45.3" transform="translate(-102.484 -13.917)"/>
        <line id="선_1120" data-name="선 1120" class="cls-7" x2="80" transform="translate(30 127.648)"/>
        <line id="선_1121" data-name="선 1121" class="cls-7" x2="50" transform="translate(30 143.947)"/>
        <line id="선_1122" data-name="선 1122" class="cls-7" x2="50" transform="translate(59.613 160.246)"/>
        <line id="선_1123" data-name="선 1123" class="cls-7" x2="20" transform="translate(90 143.947)"/>
        <line id="선_1124" data-name="선 1124" class="cls-7" x2="20" transform="translate(30 160.246)"/>
        <line id="선_1125" data-name="선 1125" class="cls-7" x2="130" transform="translate(10.04 31.381)"/>
      </g>
      <line id="선_1227" data-name="선 1227" class="cls-6" x2="360" transform="translate(674.087 2257.802)"/>
      <g id="그룹_1819" data-name="그룹 1819" transform="translate(888 2138)">
        <g id="그룹_1817" data-name="그룹 1817">
          <g id="그룹_1814" data-name="그룹 1814" transform="translate(13.982)">
            <path id="패스_7378" data-name="패스 7378" class="cls-11" d="M405.2,640.759v64.3s.566,11.29-10.841,13.384-76.069,0-76.069,0V648.379Z" transform="translate(-316.65 -585.77)"/>
            <path id="패스_2948" data-name="패스 2948" class="cls-7" d="M408.209,180.148V142.931s0-.156,0-.432v-9.63A9.427,9.427,0,0,1,414.516,124H334.6c-17.087,0-15.377,18.933-15.377,18.933V223.15" transform="translate(-319.18 -124)"/>
            <path id="패스_2949" data-name="패스 2949" class="cls-6" d="M379.18,231.868a11.44,11.44,0,0,0,11.44-11.44v-6.7" transform="translate(-302.911 -99.669)"/>
          </g>
          <g id="그룹_1815" data-name="그룹 1815" transform="translate(0 100.421)">
            <path id="패스_2950" data-name="패스 2950" class="cls-12" d="M320.628,234.779h76.532a12.376,12.376,0,0,1-12.448-12.3V203H308.18v19.475A12.376,12.376,0,0,0,320.628,234.779Z" transform="translate(-308.18 -203)"/>
          </g>
          <g id="그룹_1816" data-name="그룹 1816" transform="translate(33.05 31.779)">
            <line id="선_815" data-name="선 815" class="cls-6" x2="50.846" transform="translate(0 12.712)"/>
            <line id="선_816" data-name="선 816" class="cls-6" x2="50.846"/>
            <line id="선_817" data-name="선 817" class="cls-6" x2="36.863" transform="translate(0 26.694)"/>
          </g>
          <path id="패스_2951" data-name="패스 2951" class="cls-12" d="M405.7,150.694V131.862a8.273,8.273,0,0,0-16.525,0v18.832Z" transform="translate(-286.217 -124)"/>
        </g>
        <g id="그룹_1818" data-name="그룹 1818" transform="translate(82.625 58.473)">
          <path id="패스_2952" data-name="패스 2952" class="cls-13" d="M401.49,200.964v20.384l-10.169-7.194-10.169,7.194V200.964" transform="translate(-371.018 -161.604)"/>
          <path id="패스_2953" data-name="패스 2953" class="cls-7" d="M393.517,210.768a20.384,20.384,0,1,1,20.34-20.383A20.382,20.382,0,0,1,393.517,210.768Z" transform="translate(-373.18 -170)"/>
          <path id="패스_2954" data-name="패스 2954" class="cls-5" d="M392,202.144a13.276,13.276,0,1,1,13.248-13.275A13.274,13.274,0,0,1,392,202.144Z" transform="translate(-371.667 -168.484)"/>
        </g>
      </g>
      <g id="cap" transform="translate(534.775 2102.498)">
        <path id="패스_3271" data-name="패스 3271" class="cls-9" d="M271.927,156.133H194.2a1.993,1.993,0,0,1-1.993-1.993v-9.965a69.8,69.8,0,0,1,4.815-25.907,1.247,1.247,0,0,1,2.38.27l4.193,24.321a3.986,3.986,0,0,0,3.928,3.309h21.187a3.986,3.986,0,0,0,3.928-3.309l7.835-45.442a51.819,51.819,0,0,0-43.75-.429l0-.006c-.039.018-.955.475-.955.475A51.788,51.788,0,0,0,166.3,144.175v11.958H164.3a1.993,1.993,0,0,0-1.993,1.993v2.541a1.986,1.986,0,0,0,1.358,1.9c14.255,4.661,33.393,7.517,54.446,7.517s40.191-2.856,54.445-7.517a1.986,1.986,0,0,0,1.359-1.9v-2.541a1.993,1.993,0,0,0-1.993-1.993" transform="translate(0 -0.93)"/>
        <path id="패스_3275" data-name="패스 3275" class="cls-9" d="M226.084,141.389l-1.219-49.825c-.055-2.254,1.227-4.123,2.828-4.123H223.01a3.986,3.986,0,0,0-3.983,4.123l1.718,49.825a3.986,3.986,0,0,0,3.983,3.849h4.185c-1.526,0-2.776-1.7-2.829-3.849" transform="translate(-10.733 0)"/>
        <path id="패스_3270" data-name="패스 3270" class="cls-9" d="M219.046,92.357a51.819,51.819,0,0,0-51.818,51.818v11.958H270.865V144.175a51.819,51.819,0,0,0-51.818-51.818" transform="translate(-0.93 -0.93)"/>
        <path id="패스_3272" data-name="패스 3272" class="cls-6" d="M219.046,92.357a51.819,51.819,0,0,0-51.818,51.818v11.958H270.865V144.175A51.819,51.819,0,0,0,219.046,92.357Z" transform="translate(-0.93 -0.93)"/>
        <path id="패스_3273" data-name="패스 3273" class="cls-9" d="M232.97,145.238h-8.242a3.986,3.986,0,0,1-3.983-3.849l-1.718-49.825a3.986,3.986,0,0,1,3.983-4.123h11.678a3.987,3.987,0,0,1,3.984,4.123l-1.719,49.825a3.986,3.986,0,0,1-3.983,3.849" transform="translate(-10.733 0)"/>
        <path id="패스_3274" data-name="패스 3274" class="cls-9" d="M272.562,174c-14.255,3.33-33.393,5.37-54.445,5.37s-40.191-2.04-54.446-5.37a1.706,1.706,0,0,1-1.28-1,1.94,1.94,0,0,0-.078.388v2.541a1.986,1.986,0,0,0,1.358,1.9c14.255,4.662,33.393,7.518,54.446,7.518s40.19-2.856,54.445-7.517a1.987,1.987,0,0,0,1.359-1.9v-2.54a1.887,1.887,0,0,0-.079-.388,1.705,1.705,0,0,1-1.28,1" transform="translate(0 -16.191)"/>
        <path id="패스_3276" data-name="패스 3276" class="cls-6" d="M232.97,145.238h-8.242a3.986,3.986,0,0,1-3.983-3.849l-1.718-49.825a3.986,3.986,0,0,1,3.983-4.123h11.678a3.987,3.987,0,0,1,3.984,4.123l-1.719,49.825A3.986,3.986,0,0,1,232.97,145.238Z" transform="translate(-10.733 0)"/>
        <path id="패스_3277" data-name="패스 3277" class="cls-6" d="M166.3,171.02h-1.993a1.994,1.994,0,0,0-1.994,1.993v2.541a1.986,1.986,0,0,0,1.359,1.9c14.255,4.661,33.392,7.517,54.446,7.517s40.19-2.856,54.445-7.517a1.986,1.986,0,0,0,1.359-1.9v-2.541a1.993,1.993,0,0,0-1.993-1.993H269.06" transform="translate(0 -15.817)"/>
        <line id="선_197" data-name="선 197" class="cls-6" x1="6.075" y2="35.234" transform="translate(234.104 97.197)"/>
        <line id="선_198" data-name="선 198" class="cls-6" x1="6.075" y1="35.234" transform="translate(196.381 97.197)"/>
      </g>
    </g>
  </g>
</svg>
