<svg xmlns="http://www.w3.org/2000/svg" width="444" height="226" viewBox="0 0 444 226">
  <defs>
    <style>
      .cls-1 {
        fill: rgba(255,191,191,0.5);
        opacity: 0;
      }

      .cls-2 {
        fill: #dcf5fb;
      }

      .cls-3 {
        fill: #fbf0e3;
      }

      .cls-11, .cls-4, .cls-7 {
        fill: #fff;
      }

      .cls-5, .cls-8, .cls-9 {
        fill: none;
      }

      .cls-11, .cls-13, .cls-14, .cls-5, .cls-7, .cls-8, .cls-9 {
        stroke: #222;
      }

      .cls-11, .cls-14, .cls-5, .cls-7, .cls-8, .cls-9 {
        stroke-linecap: round;
        stroke-linejoin: round;
      }

      .cls-5 {
        stroke-width: 3px;
      }

      .cls-6 {
        fill: #7dd3cf;
      }

      .cls-13, .cls-14, .cls-7, .cls-8 {
        stroke-width: 2.994px;
      }

      .cls-9 {
        stroke-width: 2.988px;
      }

      .cls-10 {
        fill: #222;
      }

      .cls-11 {
        stroke-width: 2.994px;
      }

      .cls-12, .cls-14 {
        fill: #fcf28d;
      }

      .cls-13 {
        fill: #afdae9;
        stroke-miterlimit: 10;
      }
    </style>
  </defs>
  <g id="SWKDIFDT2200_1" transform="translate(-54.5 -45.456)">
    <g id="deco">
      <rect id="BG" class="cls-1" width="444" height="226" transform="translate(54.5 45.456)"/>
      <circle id="Ellipse_2" data-name="Ellipse 2" class="cls-2" cx="53.5" cy="53.5" r="53.5" transform="translate(83.5 73.456)"/>
      <circle id="Ellipse_2-2" data-name="Ellipse 2" class="cls-3" cx="19.75" cy="19.75" r="19.75" transform="translate(372.5 45.456)"/>
    </g>
    <g id="img">
      <g id="문서">
        <g id="그룹_626273" data-name="그룹 626273" transform="translate(146.047 80.97)">
          <path id="패스_3263" data-name="패스 3263" class="cls-4" d="M56.557,181.253V4.534a2.958,2.958,0,0,1,2.9-3.032l12,.076L176.439,1.5l19.909,21.548V180.86"/>
          <path id="패스_3264" data-name="패스 3264" class="cls-5" d="M56.557,182.982V4.38a2.879,2.879,0,0,1,2.9-2.878l12,.072L176.439,1.5l19.909,20.456V182.982"/>
          <path id="패스_3265" data-name="패스 3265" class="cls-5" d="M176.34,2.441l-.013,17.876a2.981,2.981,0,0,0,2.939,3.023h17.962" transform="translate(-0.975 -0.008)"/>
        </g>
        <g id="그룹_842" data-name="그룹 842" transform="translate(0.548 -15.905)">
          <path id="패스_1448" data-name="패스 1448" class="cls-6" d="M262.723,163.719V141.966c0-4-4.952-7.272-11-7.272H233.383c-6.051,0-11,3.272-11,7.272v21.752Z" transform="translate(-0.07 -2.573)"/>
          <ellipse id="타원_71" data-name="타원 71" class="cls-7" cx="8.405" cy="8.931" rx="8.405" ry="8.931" transform="translate(234.077 111.469)"/>
          <path id="패스_1449" data-name="패스 1449" class="cls-8" d="M262.093,163.23V144.306c0-4.942-4.952-8.985-11-8.985H232.753c-6.051,0-11,4.043-11,8.985V163.23" transform="translate(0 -2.643)"/>
          <line id="선_337" data-name="선 337" class="cls-9" y1="10.047" transform="translate(254.249 150.54)"/>
          <line id="선_338" data-name="선 338" class="cls-9" y2="10.047" transform="translate(230.715 150.54)"/>
        </g>
        <path id="패스_15857" data-name="패스 15857" class="cls-10" d="M8.18.28a6.969,6.969,0,0,0,4.8-1.78V-8.18H7.72v2.42h2.62v2.92a2.964,2.964,0,0,1-1.84.56c-2.92,0-4.4-1.94-4.4-5.16,0-3.18,1.72-5.1,4.18-5.1A3.967,3.967,0,0,1,11.2-11.3l1.56-1.88a6.228,6.228,0,0,0-4.58-1.9c-3.94,0-7.1,2.86-7.1,7.74C1.08-2.4,4.16.28,8.18.28Zm10.04-8c.44-1.54.88-3.22,1.26-4.84h.1c.42,1.6.82,3.3,1.28,4.84L21.3-6.1H17.78ZM13.1,0h3l1.04-3.8h4.8L22.98,0h3.1L21.32-14.82H17.84ZM5.24,19.38h7.88v2.58H5.24Zm5.26,8.06V24.06h5.22V14.44h-2.6V17.3H5.24V14.44H2.62v9.62H7.86v3.38h-7v2.14H17.54V27.44ZM29.08,14.92H25V13.16H22.36v1.76H18.3v2.06H29.08ZM21.8,20.9c0-.88.78-1.36,1.9-1.36s1.9.48,1.9,1.36c0,.9-.78,1.38-1.9,1.38S21.8,21.8,21.8,20.9Zm6.32,0c0-1.96-1.84-3.3-4.42-3.3s-4.42,1.34-4.42,3.3,1.84,3.32,4.42,3.32S28.12,22.86,28.12,20.9ZM24,27.28h7.08v2.16H24ZM21.4,31.5H33.66V25.2H21.4Zm9.62-18.2v5.38h-2.3v2.14h2.3v3.6h2.64V13.3Zm17.4,9.36h2.64V13.3H48.42V16H45.06v2.1h3.36Zm-1.76-2.24a5.353,5.353,0,0,1-4.14-5.2V13.9H39.86v1.32a5.6,5.6,0,0,1-4.34,5.52l1.36,2.06a7.014,7.014,0,0,0,4.36-3.74,6.72,6.72,0,0,0,4.08,3.38Zm-5.12,9.04V28.38h9.52V23.44H38.92v2.02h9.54v1.02H38.94V31.5H51.58V29.46Zm21.08-11.3H60.84A22.982,22.982,0,0,0,61,15.48H53.84v2.1h4.54c-.34,3.6-1.94,6.26-5.58,8.48l1.5,1.84a12.38,12.38,0,0,0,6.1-7.64h2.22v2.5H60.06v2.12h2.56v6.04h2.46V13.7H62.62Zm3.78-4.88V31.72h2.5V13.28Zm10.84,1.44H74.58V17.4c0,3.42-1.4,6.94-4.5,8.4l1.58,2.14a8.784,8.784,0,0,0,4.26-5.3A8.388,8.388,0,0,0,79.9,27.6l1.6-2.08c-2.96-1.46-4.26-4.8-4.26-8.12Zm10.32,5.66H84.88V13.3H82.24V31.72h2.64V22.58h2.68ZM6.84,46.18c1.36,0,2.3.64,2.3,1.8,0,1.12-.94,1.76-2.3,1.76-1.34,0-2.3-.64-2.3-1.76C4.54,46.82,5.5,46.18,6.84,46.18Zm0,5.72c2.78,0,4.82-1.64,4.82-3.92,0-2.32-2.04-3.94-4.82-3.94S2,45.66,2,47.98C2,50.26,4.06,51.9,6.84,51.9Zm5.76.46a83.889,83.889,0,0,1-11.68.62l.3,2.16c1.3,0,2.8-.02,4.38-.08v6.1H8.24V54.9a43.062,43.062,0,0,0,4.52-.62Zm1.04-9.06V61.7h2.64V43.3Zm6.1,8.46c3.38-.24,5.68-1.2,6.84-2.66,1.14,1.46,3.42,2.42,6.8,2.66l.78-1.96c-4.04-.26-5.82-1.46-6.08-2.76H33.3V44.98H27.88V43.32H25.24v1.66h-5.4v2.06h5.22c-.26,1.3-2.08,2.5-6.1,2.76Zm.36,6.44H30.26v3.54H32.9V56.12H20.1Zm7.78-5.38V50.94H25.24v1.88H18.26v2.1H34.9v-2.1Zm20.88-4.66H46.98a22.982,22.982,0,0,0,.16-2.68H39.98v2.1h4.54c-.34,3.6-1.94,6.26-5.58,8.48l1.5,1.84a12.38,12.38,0,0,0,6.1-7.64h2.22v2.5H46.2v2.12h2.56v6.04h2.46V43.7H48.76Zm3.78-4.88V61.72h2.5V43.28Zm6.78,5.54a2.424,2.424,0,1,1,2.42,2.28A2.211,2.211,0,0,1,59.32,48.82Zm7.4,0c0-2.62-2.16-4.52-4.98-4.52-2.84,0-5,1.9-5,4.52s2.16,4.5,5,4.5C64.56,53.32,66.72,51.44,66.72,48.82Zm-7.9,8.2h9.64v4.72H71.1V54.9H58.82Zm14.64-9.18V45.7H71.1V43.3H68.46V54.16H71.1V51.84h2.36V49.68H71.1V47.84Zm7.46-3.12H78.26v2.66c0,3.5-1.4,7.08-4.52,8.52l1.64,2.12a8.865,8.865,0,0,0,4.24-5.32,8.273,8.273,0,0,0,4.12,5l1.56-2.1c-3.04-1.36-4.38-4.74-4.38-8.22Zm5.9-1.44v5.78H83.28v2.12h3.54V61.76h2.64V43.28Z" transform="translate(219.202 175.335)"/>
      </g>
      <g id="동전탑" transform="translate(2 1)">
        <g id="그룹_849" data-name="그룹 849">
          <ellipse id="타원_73" data-name="타원 73" class="cls-11" cx="27.357" cy="27.453" rx="27.357" ry="27.453" transform="matrix(0.221, -0.975, 0.976, 0.219, 145.371, 232.68)"/>
          <ellipse id="타원_74" data-name="타원 74" class="cls-12" cx="21" cy="20.919" rx="21" ry="20.919" transform="translate(157.532 191.031)"/>
          <g id="그룹_848" data-name="그룹 848">
            <path id="패스_1453" data-name="패스 1453" class="cls-8" d="M168.462,207.467l4.268,11.147a1,1,0,0,0,1.9-.082l3.091-10.806a1,1,0,0,1,1.918-.018l3.3,10.753a1,1,0,0,0,1.9.031l3.769-11.025"/>
            <line id="선_340" data-name="선 340" class="cls-5" x2="24" transform="translate(166.532 212.609)"/>
          </g>
        </g>
        <g id="그룹_850" data-name="그룹 850">
          <path id="패스_1454" data-name="패스 1454" class="cls-7" d="M150.744,251.031V239.077h54.916v11.954"/>
          <line id="선_341" data-name="선 341" class="cls-9" y2="5.698" transform="translate(164 239.375)"/>
        </g>
        <g id="그룹_851" data-name="그룹 851">
          <path id="패스_1455" data-name="패스 1455" class="cls-7" d="M150.744,262.169v-11.4h54.916v11.4"/>
          <line id="선_342" data-name="선 342" class="cls-9" y2="5.698" transform="translate(164 250.772)"/>
        </g>
      </g>
      <line id="선_78" data-name="선 78" class="cls-5" x2="360" transform="translate(96.5 263.956)"/>
      <g id="그룹_847" data-name="그룹 847" transform="translate(18)">
        <g id="그룹_844" data-name="그룹 844">
          <path id="패스_1450" data-name="패스 1450" class="cls-13" d="M352,268.962a1.971,1.971,0,0,1-.708-.13,72.761,72.761,0,0,1-30.382-21.268,78.121,78.121,0,0,1-14.385-26.729,94.463,94.463,0,0,1-4.421-32.526,1.955,1.955,0,0,1,1.7-1.783c15.156-2.028,27.007-9.067,34.28-14.616a72.091,72.091,0,0,0,12.352-11.756,1.975,1.975,0,0,1,1.567-.769h0a1.971,1.971,0,0,1,1.567.771,72.138,72.138,0,0,0,12.351,11.754c7.273,5.549,19.124,12.587,34.279,14.616a1.955,1.955,0,0,1,1.7,1.783,94.492,94.492,0,0,1-4.421,32.526,78.121,78.121,0,0,1-14.385,26.729,72.758,72.758,0,0,1-30.383,21.268A1.962,1.962,0,0,1,352,268.962Z"/>
        </g>
        <g id="그룹_846" data-name="그룹 846">
          <g id="그룹_845" data-name="그룹 845">
            <ellipse id="타원_72" data-name="타원 72" class="cls-4" cx="21" cy="20.919" rx="21" ry="20.919" transform="translate(330.077 197.216)"/>
            <path id="패스_1451" data-name="패스 1451" class="cls-8" d="M371.743,214.393a20.988,20.988,0,1,1-9.4-13.912"/>
          </g>
          <path id="패스_1452" data-name="패스 1452" class="cls-14" d="M374.327,205.735l-5.048-4.783-18,17.216-7.8-7.4-5.145,4.881,12.828,12.2.022-.017.015.017Z"/>
        </g>
      </g>
    </g>
  </g>
</svg>
