<svg xmlns="http://www.w3.org/2000/svg" width="285" height="328" viewBox="0 0 285 328">
    <defs>
        <filter id="f3hiqruxfa" x="76" y="0" width="134" height="106" filterUnits="userSpaceOnUse">
            <feOffset dy="1"/>
            <feGaussianBlur stdDeviation="1" result="blur"/>
            <feFlood flood-opacity=".161"/>
            <feComposite operator="in" in2="blur"/>
            <feComposite in="SourceGraphic"/>
        </filter>
        <filter id="9zn4ty15fb" x="0" y="197" width="86" height="131" filterUnits="userSpaceOnUse">
            <feOffset dy="1"/>
            <feGaussianBlur stdDeviation="1" result="blur-2"/>
            <feFlood flood-opacity=".161"/>
            <feComposite operator="in" in2="blur-2"/>
            <feComposite in="SourceGraphic"/>
        </filter>
        <filter id="uho230qu2c" x="199" y="197" width="86" height="131" filterUnits="userSpaceOnUse">
            <feOffset dy="1"/>
            <feGaussianBlur stdDeviation="1" result="blur-3"/>
            <feFlood flood-opacity=".161"/>
            <feComposite operator="in" in2="blur-3"/>
            <feComposite in="SourceGraphic"/>
        </filter>
    </defs>
    <g data-name="왼 줄">
        <path data-name="line" transform="translate(43 52)" style="fill:#c3c3c7" d="M0 0h36v1H0z"/>
        <path data-name="&gt;" d="m0 0 8 5v1l-8 5z" transform="rotate(90 -69 118)" style="fill:#c3c3c7"/>
        <path data-name="line" transform="translate(64 73)" style="fill:#c3c3c7" d="M0 0h15v1H0z"/>
        <path data-name="&gt;" d="m0 0 8 5v1l-8 5z" transform="rotate(90 -58.5 128.5)" style="fill:#c3c3c7"/>
        <g data-name="line">
            <path data-name="line" transform="translate(22 31)" style="fill:#43495a" d="M0 0h52v1H0z"/>
            <path data-name="&gt;" d="m0 0 8 5v1l-8 5z" transform="translate(67 26)" style="fill:#43495a"/>
            <text transform="translate(25 27)" style="font-family:AppleSDGothicNeo-Regular,Apple SD Gothic Neo;font-size:14px;fill:#43495a"><tspan x="0" y="0">START</tspan></text>
        </g>
        <g data-name="그룹 626081">
            <path data-name="line" transform="rotate(-90 119 76)" style="fill:#c3c3c7" d="M0 0h143v1H0z"/>
            <path data-name="line" transform="rotate(-90 110.5 88.5)" style="fill:#43495a" d="M0 0h168v1H0z"/>
            <path data-name="line" transform="rotate(-90 129.5 65.5)" style="fill:#c3c3c7" d="M0 0h122v1H0z"/>
        </g>
        <g>
            <g transform="translate(11 102.255)">
                <circle data-name="타원 551" cx="10.5" cy="10.5" r="10.5" transform="translate(1 .745)" style="fill:#999fa7"/>
                <text data-name="1" transform="translate(12 16.745)" style="font-weight:700;font-family:Lato-Bold,Lato;fill:#fff;font-size:14px"><tspan x="-4.06" y="0">1</tspan></text>
            </g>
            <g data-name="no" transform="translate(33 123.255)">
                <circle data-name="타원 551" cx="10.5" cy="10.5" r="10.5" transform="translate(0 .745)" style="fill:#999fa7"/>
                <text data-name="2" transform="translate(11 16.745)" style="font-weight:700;font-family:Lato-Bold,Lato;fill:#fff;font-size:14px"><tspan x="-4.06" y="0">2</tspan></text>
            </g>
            <g data-name="no" transform="translate(54 144.255)">
                <circle data-name="타원 551" cx="10.5" cy="10.5" r="10.5" transform="translate(0 .745)" style="fill:#999fa7"/>
                <text data-name="8" transform="translate(11 16.745)" style="font-weight:700;font-family:Lato-Bold,Lato;fill:#fff;font-size:14px"><tspan x="-4.06" y="0">8</tspan></text>
            </g>
        </g>
    </g>
    <g data-name="오른 줄">
        <g data-name="line">
            <path data-name="&gt;" d="m0 0 8 5v1l-8 5z" transform="rotate(90 20.5 207.5)" style="fill:#c3c3c7"/>
            <path d="M11 1.9h15.5v113.5" transform="translate(196 71.598)" style="stroke:#c3c3c7;stroke-dasharray:3 3;fill:none"/>
        </g>
        <g data-name="line">
            <path data-name="&gt;" d="m0 0 8 5v1l-8 5z" transform="rotate(180 109.5 29)" style="fill:#c3c3c7"/>
            <path data-name="dot" d="M11 1.9h31.5v146.45" transform="translate(200 50.598)" style="stroke:#c3c3c7;stroke-dasharray:3 3;fill:none"/>
        </g>
        <g data-name="line">
            <path data-name="line" transform="translate(207 32)" style="fill:#c3c3c7" d="M0 0h56v1H0z"/>
            <path data-name="line" transform="rotate(-90 229 -34)" style="fill:#c3c3c7" d="M0 0h163v1H0z"/>
            <path data-name="&gt;" d="m0 0 8 5v1l-8 5z" transform="rotate(90 41 228)" style="fill:#c3c3c7"/>
        </g>
        <g data-name="no_set">
            <g data-name="no" transform="translate(212 102.255)">
                <circle data-name="타원 551" cx="10.5" cy="10.5" r="10.5" transform="translate(0 .745)" style="fill:#999fa7"/>
                <text data-name="4" transform="translate(11 16.745)" style="font-weight:700;font-family:Lato-Bold,Lato;fill:#fff;font-size:14px"><tspan x="-4.06" y="0">4</tspan></text>
            </g>
            <g data-name="no" transform="translate(233 123.255)">
                <circle data-name="타원 551" cx="10.5" cy="10.5" r="10.5" transform="translate(0 .745)" style="fill:#999fa7"/>
                <text data-name="6" transform="translate(11 16.745)" style="font-weight:700;font-family:Lato-Bold,Lato;fill:#fff;font-size:14px"><tspan x="-4.06" y="0">6</tspan></text>
            </g>
            <g data-name="no" transform="translate(254 144.255)">
                <circle data-name="타원 551" cx="10.5" cy="10.5" r="10.5" transform="translate(0 .745)" style="fill:#999fa7"/>
                <text data-name="7" transform="translate(11 16.745)" style="opacity:.9;font-weight:700;font-family:Lato-Bold,Lato;fill:#fff;font-size:14px"><tspan x="-4.06" y="0">7</tspan></text>
            </g>
        </g>
    </g>
    <g data-name="아래 줄">
        <g data-name="line">
            <path data-name="line" transform="rotate(180 99 126)" style="fill:#c3c3c7" d="M0 0h111v1H0z"/>
            <path data-name="&gt;" d="m0 0 8 5v1l-8 5z" transform="translate(190 246)" style="fill:#c3c3c7"/>
            <path data-name="&gt;" d="M8 0 0 5v1l8 5z" transform="translate(87 246)" style="fill:#c3c3c7"/>
            <path data-name="&gt;" d="m0 0 8 5v1l-8 5z" transform="translate(190 267)" style="fill:#c3c3c7"/>
            <path data-name="dot" d="M11 1.9h108.1" transform="translate(72 270.599)" style="stroke:#c3c3c7;stroke-dasharray:3 3;fill:none"/>
        </g>
        <g data-name="no_set">
            <g data-name="no" transform="translate(122 240.255)">
                <circle data-name="타원 551" cx="10.5" cy="10.5" r="10.5" transform="translate(0 .745)" style="fill:#999fa7"/>
                <text data-name="3" transform="translate(11 16.745)" style="font-weight:700;font-family:Lato-Bold,Lato;fill:#fff;font-size:14px"><tspan x="-4.06" y="0">3</tspan></text>
            </g>
            <g data-name="no" transform="translate(143 261.255)">
                <circle data-name="타원 551" cx="10.5" cy="10.5" r="10.5" transform="translate(0 .745)" style="fill:#999fa7"/>
                <text data-name="5" transform="translate(11 16.745)" style="font-weight:700;font-family:Lato-Bold,Lato;fill:#fff;font-size:14px"><tspan x="-4.06" y="0">5</tspan></text>
            </g>
        </g>
    </g>
    <g style="filter:url(#f3hiqruxfa)">
        <rect data-name="사각형 460866" width="128" height="100" rx="8" transform="translate(79 2)" style="fill:#4bacff"/>
    </g>
    <g data-name="그룹 626070">
        <text data-name="SGI 서울보증" transform="translate(143 66)" style="font-family:AppleSDGothicNeo-Bold,Apple SD Gothic Neo;font-weight:700;fill:#fff;font-size:14px"><tspan x="-36.442" y="0">SGI 서울보증</tspan></text>
        <path data-name="패스 1353" d="M0 21.77a18.293 18.293 0 0 0 6.75 2.69c5.078 1.04 10.99.7 11.022-3.426V17.76h-4.089v3.567c-2.647.228-5-1.094-5.154-3.582a3.649 3.649 0 0 1 1.952-3.454c2.13-1.2 5.979-1.1 8.972.476 6.257 3.285 5.778 11 .265 14.025C13.018 32.47 2.43 29.838 0 28.8z" transform="translate(131 10.315)" style="fill:#003174"/>
        <path data-name="패스 1354" d="M22.91 9.793c-6.492-3.287-13.422-2.385-16.2-.136-3.1 2.509-3.161 6.662-.907 8.69-6.367-2.194-6.417-7.953-4.682-10.735C3.946 3.071 13.6.913 22.91 4.56z" transform="translate(130.972 12.283)" style="fill:#e60c19"/>
        <text data-name="(보험자)" transform="translate(143 85)" style="font-size:12px;fill:#fff;font-family:AppleSDGothicNeo-Regular,Apple SD Gothic Neo"><tspan x="-19.374" y="0">(보험자)</tspan></text>
    </g>
    <g style="filter:url(#9zn4ty15fb)">
        <rect data-name="area" width="80" height="125" rx="8" transform="translate(3 199)" style="fill:#e7f8f4"/>
    </g>
    <g data-name="그룹 626076">
        <g data-name="그룹 626094">
            <path data-name="패스 2640" d="M1.573.655s9.783-7.7 13.5-10.479a1.64 1.64 0 0 1 .9-.318 1.709 1.709 0 0 1 .916.318C20.239-7.442 30.446.655 30.446.655 31.862 1.842 32 2.007 32 3.76v16.925a3.09 3.09 0 0 1-3 3.173H3a3.09 3.09 0 0 1-3-3.173V3.76C0 2.007.747 1.5 1.573.655z" transform="translate(27 233.142)" style="fill:#00c8d0"/>
            <g data-name="그룹 626100">
                <path data-name="사각형 460956" transform="translate(36 235)" style="fill:#00a0a6" d="M0 0h6v6H0z"/>
                <path data-name="사각형 460956" transform="translate(36 243)" style="fill:#00a0a6" d="M0 0h6v6H0z"/>
                <path data-name="사각형 460956" transform="translate(45 235)" style="fill:#00a0a6" d="M0 0h6v6H0z"/>
                <path data-name="사각형 460956" transform="translate(45 243)" style="fill:#00a0a6" d="M0 0h6v6H0z"/>
            </g>
        </g>
        <g data-name="그룹 626105">
            <path data-name="패스 2202" d="M22 9a9 9 0 1 1-9-9 9 9 0 0 1 9 9" transform="translate(41 240)" style="fill:#ffc02c"/>
            <path data-name="패스 2203" d="m11.5 9 1.25 6L15 10l2.25 5 1.25-6" style="stroke:#fff;stroke-linecap:round;stroke-linejoin:round;stroke-width:1.5px;fill:none" transform="translate(39 238)"/>
            <path data-name="선 9" transform="translate(49 249)" style="stroke:#fff;stroke-linecap:round;stroke-linejoin:round;stroke-width:1.5px;fill:none" d="M0 0h2"/>
            <path data-name="선 10" transform="translate(57 249)" style="stroke:#fff;stroke-linecap:round;stroke-linejoin:round;stroke-width:1.5px;fill:none" d="M0 0h2"/>
        </g>
        <text transform="translate(43 281)" style="font-family:AppleSDGothicNeo-Bold,Apple SD Gothic Neo;font-weight:700;font-size:14px"><tspan x="-30.275" y="0">보험계약자</tspan></text>
        <text data-name="(임대사업자)" transform="translate(43 300)" style="font-size:12px;font-family:AppleSDGothicNeo-Regular,Apple SD Gothic Neo"><tspan x="-29.754" y="0">(임대사업자)</tspan></text>
    </g>
    <g>
        <g style="filter:url(#uho230qu2c)">
            <rect data-name="area" width="80" height="125" rx="8" transform="translate(202 199)" style="fill:#e6f2ff"/>
        </g>
        <g data-name="그룹 626077">
            <g data-name="그룹 626098">
                <g data-name="그룹 626095" transform="translate(2723 -6554)" style="opacity:.998">
                    <path data-name="사각형 460951" d="M3 0h13a10 10 0 0 1 10 10v18a3 3 0 0 1-3 3H3a3 3 0 0 1-3-3V3a3 3 0 0 1 3-3z" transform="translate(-2497 6772)" style="fill:#635aef"/>
                    <rect data-name="사각형 460953" width="13" height="1.5" rx=".75" transform="translate(-2493 6789)" style="fill:#fff"/>
                    <path data-name="패스 2641" d="M.295-8.237S2.129-9.6 2.826-10.086A.319.319 0 0 1 3-10.142a.332.332 0 0 1 .172.056c.628.42 2.542 1.849 2.542 1.849.26.21.286.237.286.548V-4.7a.561.561 0 0 1-.562.56H.563A.561.561 0 0 1 0-4.7v-2.989a.643.643 0 0 1 .295-.548z" transform="translate(-2493 6789.142)" style="fill:#fff"/>
                    <rect data-name="사각형 460971" width="9" height="1.5" rx=".75" transform="translate(-2493 6793)" style="fill:#fff"/>
                </g>
                <g data-name="그룹 626097">
                    <path data-name="패스 2204" d="M16 4a4 4 0 1 1-4-4 4 4 0 0 1 4 4" transform="translate(239 232)" style="fill:#c0b5ff"/>
                    <path data-name="사각형 459205" d="M4 0h6a4 4 0 0 1 4 4v3a1 1 0 0 1-1 1H1a1 1 0 0 1-1-1V4a4 4 0 0 1 4-4z" transform="translate(244 241)" style="fill:#c0b5ff"/>
                </g>
            </g>
            <text transform="translate(242 272)" style="font-family:AppleSDGothicNeo-Bold,Apple SD Gothic Neo;font-weight:700;font-size:14px"><tspan x="-24.22" y="0">피보험자</tspan></text>
            <text data-name="(임대주택 임차인)" transform="translate(242 291)" style="font-size:12px;font-family:AppleSDGothicNeo-Regular,Apple SD Gothic Neo"><tspan x="-22.662" y="0">(임대주택</tspan><tspan x="-17.472" y="18">임차인)</tspan></text>
        </g>
    </g>
</svg>
