<svg xmlns="http://www.w3.org/2000/svg" xmlns:xlink="http://www.w3.org/1999/xlink" width="444" height="220" viewBox="0 0 444 220">
  <defs>
    <style>
      .cls-1, .cls-10, .cls-7 {
        fill: none;
      }

      .cls-2 {
        fill: rgba(255,191,191,0.5);
        opacity: 0;
      }

      .cls-3 {
        fill: #dcf5fb;
      }

      .cls-4 {
        fill: #e4ffe1;
      }

      .cls-5 {
        clip-path: url(#clip-path);
      }

      .cls-6, .cls-8 {
        fill: #fff;
      }

      .cls-10, .cls-13, .cls-6, .cls-7, .cls-8, .cls-9 {
        stroke: #222;
        stroke-width: 3px;
      }

      .cls-13, .cls-6, .cls-7 {
        stroke-linecap: round;
        stroke-linejoin: round;
      }

      .cls-10, .cls-8, .cls-9 {
        stroke-miterlimit: 10;
      }

      .cls-9 {
        fill: #afdae9;
      }

      .cls-11 {
        fill: #555;
      }

      .cls-12 {
        fill: #fcf28d;
      }

      .cls-13 {
        fill: #f2ac58;
      }

      .cls-14 {
        fill: #2d2d2d;
      }
    </style>
    <clipPath id="clip-path">
      <rect id="사각형_463521" data-name="사각형 463521" class="cls-1" width="360" height="165" transform="translate(70 67.5)"/>
    </clipPath>
  </defs>
  <g id="SWKDIFDT0800_2" transform="translate(39 32.282)">
    <g id="deco">
      <rect id="BG" class="cls-2" width="444" height="220" transform="translate(-39 -32.282)"/>
      <circle id="Ellipse_2" data-name="Ellipse 2" class="cls-3" cx="53.5" cy="53.5" r="53.5" transform="translate(295 12.718)"/>
      <circle id="Ellipse_2-2" data-name="Ellipse 2" class="cls-4" cx="19.75" cy="19.75" r="19.75" transform="translate(-31 -32.282)"/>
    </g>
    <g id="img" transform="translate(-67 -46.782)">
      <g id="그룹_632358" data-name="그룹 632358">
        <g id="그룹_632357" data-name="그룹 632357" class="cls-5">
          <g id="그룹_632356" data-name="그룹 632356">
            <g id="그룹_632348" data-name="그룹 632348">
              <path id="패스_12203" data-name="패스 12203" class="cls-6" d="M226.19,209.927,307.313,94.071l5.638-8.051,5.321-7.6a2.755,2.755,0,0,1,3.85-.667l9.364,6.641,95.7,66.905a2.754,2.754,0,0,1,.678,3.837L351.588,264.065,334.828,288"/>
              <line id="선_2236" data-name="선 2236" class="cls-7" x2="60.161" y2="42.125" transform="translate(274.743 209.182)"/>
              <line id="선_2237" data-name="선 2237" class="cls-7" x2="45.12" y2="31.594" transform="translate(278.726 235.505)"/>
              <line id="선_2238" data-name="선 2238" class="cls-7" x2="75.201" y2="52.656" transform="translate(271.814 181.354)"/>
              <g id="그룹_632346" data-name="그룹 632346">
                <g id="그룹_632345" data-name="그룹 632345">
                  <g id="그룹_632344" data-name="그룹 632344">
                    <g id="그룹_632342" data-name="그룹 632342">
                      <g id="그룹_632341" data-name="그룹 632341">
                        <path id="패스_12204" data-name="패스 12204" class="cls-8" d="M334.411,191.19l-34.968-24.485,18.429-26.32a.92.92,0,0,1,1.279-.226l33.464,23.432a.918.918,0,0,1,.226,1.279Z"/>
                        <path id="패스_12205" data-name="패스 12205" class="cls-9" d="M357.875,200.9h0l2.369-3.384a4.142,4.142,0,0,0-1.014-5.753l-1.128-.79,1.2-8.1a7.337,7.337,0,0,0-2.778-6.456l-7.9-5.529-6.319,9.024-4.739,6.768-3.159,4.512,20.3,14.217a1.381,1.381,0,0,0,1.918-.338l1.58-2.256A1.382,1.382,0,0,0,357.875,200.9Z"/>
                        <path id="패스_12206" data-name="패스 12206" class="cls-8" d="M353.59,187.809l-6.768-4.739,3.159-4.512,4.512,3.159Z"/>
                      </g>
                      <circle id="타원_1305" data-name="타원 1305" class="cls-8" cx="5.508" cy="5.508" r="5.508" transform="translate(337.927 192.001)"/>
                      <circle id="타원_1306" data-name="타원 1306" class="cls-8" cx="5.508" cy="5.508" r="5.508" transform="translate(304.087 168.306)"/>
                    </g>
                    <g id="그룹_632343" data-name="그룹 632343">
                      <rect id="사각형_463519" data-name="사각형 463519" class="cls-8" width="22.033" height="30.295" rx="0.918" transform="matrix(0.574, -0.819, 0.819, 0.574, 291.771, 168.058)"/>
                      <rect id="사각형_463520" data-name="사각형 463520" class="cls-9" width="5.229" height="7.907" transform="matrix(0.574, -0.819, 0.819, 0.574, 310.579, 160.713)"/>
                      <line id="선_2239" data-name="선 2239" class="cls-10" x2="4.512" y2="3.159" transform="translate(296.397 166.254)"/>
                    </g>
                  </g>
                </g>
              </g>
              <g id="그룹_632347" data-name="그룹 632347">
                <path id="패스_12207" data-name="패스 12207" class="cls-11" d="M332.568,114.237a.2.2,0,0,0,.041.311l.4.281q.816.571,1.718,1.092t1.62.863a1.292,1.292,0,0,1,.615.531.823.823,0,0,1-.038.78,1.063,1.063,0,0,1-.631.617,1.133,1.133,0,0,1-.881-.081q-.96-.451-1.924-1.025t-1.821-1.174l-1.191-.834a1.43,1.43,0,0,1-.395-2.254l2.275-3.249a1.128,1.128,0,0,1,.8-.519,1.461,1.461,0,0,1,1.5,1.05,1.126,1.126,0,0,1-.213.93Zm-3.691,3.448a1.1,1.1,0,0,1,.8-.536,1.718,1.718,0,0,1,1.564,1.1,1.116,1.116,0,0,1-.234.946l-.364.519,4.256,2.98.363-.519a1.115,1.115,0,0,1,.81-.543,1.445,1.445,0,0,1,.95.309,1.463,1.463,0,0,1,.617.785,1.1,1.1,0,0,1-.23.939l-2.322,3.317a1.544,1.544,0,0,1-.93.73,1.566,1.566,0,0,1-1.118-.368l-6.115-4.282a1.594,1.594,0,0,1-.743-.934,1.551,1.551,0,0,1,.369-1.124Zm.15,4.342a.154.154,0,0,0,.03.243l3.988,2.792c.089.062.168.044.238-.055l.578-.826-4.255-2.98Zm11.138-6.849a1.083,1.083,0,0,1,.809-.513,1.595,1.595,0,0,1,1.538,1.077,1.084,1.084,0,0,1-.206.935l-.863,1.232.924.647a1.307,1.307,0,0,1,.544.7,1.208,1.208,0,0,1-.948,1.354,1.308,1.308,0,0,1-.847-.271l-.924-.647-.976,1.4a1.11,1.11,0,0,1-.813.52,1.563,1.563,0,0,1-1.539-1.077,1.109,1.109,0,0,1,.211-.943Z"/>
                <path id="패스_12208" data-name="패스 12208" class="cls-11" d="M340.895,125.414a1.776,1.776,0,0,1-.612-.65,1.027,1.027,0,0,1,.854-1.218,1.76,1.76,0,0,1,.82.352l10.009,7.008a1.785,1.785,0,0,1,.612.651,1.027,1.027,0,0,1-.854,1.218,1.767,1.767,0,0,1-.82-.352l-3.974-2.783-.616.88,2.262,1.583a1.456,1.456,0,0,1,.681.892,1.492,1.492,0,0,1-.346,1.079l-1.242,1.773a1.5,1.5,0,0,1-.9.7,1.455,1.455,0,0,1-1.071-.336l-6.584-4.611a1.451,1.451,0,0,1-.682-.891,1.494,1.494,0,0,1,.347-1.079l1.241-1.773a1.5,1.5,0,0,1,.9-.695,1.453,1.453,0,0,1,1.07.336l2.262,1.584.616-.88Zm5.363-4.84a1.516,1.516,0,0,1-.572-.663,1.007,1.007,0,0,1,.853-1.218,1.517,1.517,0,0,1,.819.311l7.36,5.153a1.519,1.519,0,0,1,.572.664,1.01,1.01,0,0,1-.853,1.218,1.512,1.512,0,0,1-.819-.311Zm-2.436,3.621a1.522,1.522,0,0,1-.572-.663,1.01,1.01,0,0,1,.853-1.218,1.517,1.517,0,0,1,.819.311l.535.375a2.786,2.786,0,0,1,.162-.26l.2-.292.151-.216a1.23,1.23,0,0,1,.741-.531,1.444,1.444,0,0,1,1.506,1.055,1.212,1.212,0,0,1-.239.882l-.152.216-.379.542,2.154,1.508c.072-.084.139-.168.2-.254l.194-.278.152-.216a1.111,1.111,0,0,1,1.686-.273,1.191,1.191,0,0,1,.566.8,1.223,1.223,0,0,1-.245.877l-.151.217-.2.291a2.916,2.916,0,0,1-.189.241l.535.375a1.525,1.525,0,0,1,.573.663,1.009,1.009,0,0,1-.854,1.218,1.517,1.517,0,0,1-.819-.311Zm2.824,9.04a.159.159,0,0,0-.042-.252l-4.764-3.336a.16.16,0,0,0-.252.046l-.54.772a.159.159,0,0,0,.043.251l4.764,3.336a.159.159,0,0,0,.251-.046Z"/>
                <path id="패스_12209" data-name="패스 12209" class="cls-11" d="M358.623,143.416a1.1,1.1,0,0,1-.732.517,1.452,1.452,0,0,1-1.4-.984,1.1,1.1,0,0,1,.236-.864L359,138.836l-1-.7a1.342,1.342,0,0,1-.567-.7,1.21,1.21,0,0,1,.929-1.326,1.354,1.354,0,0,1,.851.293l1,.7,1.422-2.031-1.3-.909a10.141,10.141,0,0,1-1.528,1.171,10.543,10.543,0,0,1-1.781.891,10.459,10.459,0,0,1-4.07.7,1.175,1.175,0,0,1-.854-.376,1.155,1.155,0,0,1-.325-.874,1.243,1.243,0,0,1,.364-.833,1.343,1.343,0,0,1,.929-.359,10.682,10.682,0,0,0,3.637-.722,5.648,5.648,0,0,0,2.518-2.03l.256-.365a.5.5,0,0,0,.122-.288c-.007-.066-.078-.146-.212-.239l-1.993-1.4a1.088,1.088,0,0,1-.5-.7,1.315,1.315,0,0,1,.939-1.341,1.089,1.089,0,0,1,.828.227l3.024,2.118a1.431,1.431,0,0,1,.419,2.25l-.389.555,1.124.787,1.014-1.448a1.1,1.1,0,0,1,.731-.517,1.448,1.448,0,0,1,1.406.984,1.1,1.1,0,0,1-.236.863Zm2.4,2.244a1.112,1.112,0,0,1-.743.519,1.441,1.441,0,0,1-1.418-.993,1.108,1.108,0,0,1,.234-.876l7.489-10.695a1.105,1.105,0,0,1,.742-.519,1.438,1.438,0,0,1,1.419.993,1.1,1.1,0,0,1-.234.875Z"/>
                <path id="패스_12210" data-name="패스 12210" class="cls-11" d="M368.324,138.446a4.183,4.183,0,0,1,1.2-1.176,3.423,3.423,0,0,1,1.411-.505,3.848,3.848,0,0,1,1.52.136,5.483,5.483,0,0,1,2.756,1.931,3.829,3.829,0,0,1,.649,1.381,3.427,3.427,0,0,1,.007,1.5,4.553,4.553,0,0,1-1.9,2.707,3.412,3.412,0,0,1-1.41.506,3.853,3.853,0,0,1-1.521-.136,5.483,5.483,0,0,1-2.756-1.931,3.83,3.83,0,0,1-.648-1.382,3.407,3.407,0,0,1-.008-1.5A4.184,4.184,0,0,1,368.324,138.446Zm3.881,11.716a.3.3,0,0,0,.066-.136c0-.027-.037-.065-.109-.115l-5.593-3.917a1.214,1.214,0,0,1-.5-.694,1.147,1.147,0,0,1,.929-1.327,1.219,1.219,0,0,1,.823.234l6.691,4.685a1.64,1.64,0,0,1,.755.9,1.558,1.558,0,0,1-.389,1.11l-2.057,2.937a1.11,1.11,0,0,1-.813.521,1.565,1.565,0,0,1-1.539-1.078,1.113,1.113,0,0,1,.211-.942ZM370.4,139.9a2.145,2.145,0,0,0-.43,1.368,1.632,1.632,0,0,0,1.99,1.4,2.4,2.4,0,0,0,1.577-2.254,1.639,1.639,0,0,0-1.994-1.4A2.137,2.137,0,0,0,370.4,139.9Zm7.7,1.843a1.086,1.086,0,0,1,.808-.514,1.595,1.595,0,0,1,1.539,1.077,1.087,1.087,0,0,1-.207.936l-.293.419.964.675a1.329,1.329,0,0,1,.542.663,1.105,1.105,0,0,1-.872,1.245,1.32,1.32,0,0,1-.808-.283l-.964-.675-.5.718.963.674a1.321,1.321,0,0,1,.543.663,1.107,1.107,0,0,1-.872,1.246,1.328,1.328,0,0,1-.808-.284l-.964-.675-.3.433a1.112,1.112,0,0,1-.813.521,1.562,1.562,0,0,1-1.539-1.078,1.11,1.11,0,0,1,.211-.942Z"/>
                <path id="패스_12211" data-name="패스 12211" class="cls-11" d="M386.663,147.03a1.307,1.307,0,0,1,.6.835,1.087,1.087,0,0,1-.176.835l-1.242,1.774a5.516,5.516,0,0,0-1.022,2.684,9.157,9.157,0,0,0,.368,3.233,1.271,1.271,0,0,1-.476,1.564.83.83,0,0,1-.439.157,1.209,1.209,0,0,1-.471-.068,1.507,1.507,0,0,1-.437-.245,1.242,1.242,0,0,1-.325-.39,6.047,6.047,0,0,1-.394-.961,8.374,8.374,0,0,1-.263-1.063,10.435,10.435,0,0,1-.139-1.055c-.027-.341-.037-.658-.032-.95q-.419.169-.919.345a8.234,8.234,0,0,1-1.037.283,9.514,9.514,0,0,1-1.087.157,4.959,4.959,0,0,1-1.045-.016,1.5,1.5,0,0,1-.48-.155,1.382,1.382,0,0,1-.386-.29,1.21,1.21,0,0,1-.241-.381.918.918,0,0,1-.054-.451,1.12,1.12,0,0,1,.407-.765,1.562,1.562,0,0,1,.893-.322,8.453,8.453,0,0,0,3.227-.848,6.157,6.157,0,0,0,2.211-1.962l1.242-1.774a1.084,1.084,0,0,1,.725-.451A1.3,1.3,0,0,1,386.663,147.03ZM391.3,151a1.111,1.111,0,0,1,.813-.52,1.557,1.557,0,0,1,1.538,1.077,1.111,1.111,0,0,1-.21.943l-7.413,10.586a1.112,1.112,0,0,1-.813.521,1.562,1.562,0,0,1-1.539-1.078,1.109,1.109,0,0,1,.211-.942l4.5-6.43-1.754-1.228a1.283,1.283,0,0,1-.539-.711,1.229,1.229,0,0,1,.957-1.367,1.283,1.283,0,0,1,.853.264l1.753,1.227Z"/>
              </g>
            </g>
            <g id="그룹_632351" data-name="그룹 632351">
              <path id="패스_12212" data-name="패스 12212" class="cls-6" d="M139.747,280.883,79.974,152.7l-4.153-8.907L71.9,135.385a2.754,2.754,0,0,1,1.348-3.667l10.433-4.789,105.79-49.423a2.754,2.754,0,0,1,3.661,1.331l56.2,120.518,12.349,26.482"/>
              <line id="선_2240" data-name="선 2240" class="cls-7" y1="31.038" x2="66.562" transform="translate(146.738 215.184)"/>
              <line id="선_2241" data-name="선 2241" class="cls-7" y1="23.279" x2="49.921" transform="translate(154.885 240.416)"/>
              <line id="선_2242" data-name="선 2242" class="cls-7" y1="38.798" x2="83.202" transform="translate(137.814 188.288)"/>
              <g id="그룹_632349" data-name="그룹 632349">
                <path id="패스_12213" data-name="패스 12213" class="cls-12" d="M188.241,182.975l-8.36-17.93c-1.538-3.3-6.9-4.08-11.912-1.742l-15.2,7.086c-5.014,2.338-7.859,6.948-6.322,10.245l8.361,17.929Z"/>
                <ellipse id="타원_1307" data-name="타원 1307" class="cls-6" cx="7.904" cy="7.936" rx="7.904" ry="7.936" transform="translate(145.384 152.312) rotate(-25)"/>
                <path id="패스_12214" data-name="패스 12214" class="cls-7" d="M188,182.453l-7.443-15.962c-1.908-4.092-7.572-5.526-12.586-3.188l-15.2,7.086c-5.014,2.338-7.555,7.6-5.647,11.691l7.443,15.961"/>
                <line id="선_2243" data-name="선 2243" class="cls-7" x1="4.204" y1="9.016" transform="translate(176.63 176.777)"/>
                <line id="선_2244" data-name="선 2244" class="cls-7" x2="4.204" y2="9.016" transform="translate(157.528 185.685)"/>
              </g>
              <g id="그룹_632350" data-name="그룹 632350">
                <path id="패스_12215" data-name="패스 12215" class="cls-11" d="M112.249,135.664a16.487,16.487,0,0,1,1.69-.7,6.772,6.772,0,0,1,1.729-.376,3.15,3.15,0,0,1,1.516.236,2.115,2.115,0,0,1,1.067,1.137,2.206,2.206,0,0,1,.177,1.51,3.262,3.262,0,0,1-.708,1.3l.719,1.587,2.041-.983a1.46,1.46,0,0,1,.858-.173.863.863,0,0,1,.6.576.881.881,0,0,1,.039.839,1.553,1.553,0,0,1-.683.559l-10.751,5.175a1.507,1.507,0,0,1-.854.182c-.245-.037-.444-.226-.6-.57a.908.908,0,0,1-.042-.846,1.5,1.5,0,0,1,.68-.566l2.041-.983-.719-1.586a2.969,2.969,0,0,1-1.427-.271,2.141,2.141,0,0,1-1-1.113,2.2,2.2,0,0,1-.162-1.572,3.359,3.359,0,0,1,.8-1.35,6.943,6.943,0,0,1,1.382-1.122A16.443,16.443,0,0,1,112.249,135.664Zm3.924,8.658a14.3,14.3,0,0,1,1.98-.789,6.178,6.178,0,0,1,1.771-.3,2.893,2.893,0,0,1,1.426.328,2.229,2.229,0,0,1,.956,1.084,2.311,2.311,0,0,1,.194,1.451,3.093,3.093,0,0,1-.672,1.338,6.608,6.608,0,0,1-1.36,1.212,14.619,14.619,0,0,1-3.837,1.848,6.4,6.4,0,0,1-1.774.3,2.9,2.9,0,0,1-1.427-.328,2.223,2.223,0,0,1-.955-1.084,2.32,2.32,0,0,1-.194-1.452,3.1,3.1,0,0,1,.672-1.338,6.416,6.416,0,0,1,1.363-1.2A14.365,14.365,0,0,1,116.173,144.322Zm.816,1.8c-.373.18-.717.364-1.029.55a5.2,5.2,0,0,0-.78.557,1.8,1.8,0,0,0-.443.549.591.591,0,0,0-.017.524.563.563,0,0,0,.4.324,1.722,1.722,0,0,0,.693,0,5.117,5.117,0,0,0,.915-.26q.509-.19,1.069-.46t1.029-.55a5.208,5.208,0,0,0,.781-.557,1.8,1.8,0,0,0,.443-.548.593.593,0,0,0,.016-.525.562.562,0,0,0-.4-.323,1.7,1.7,0,0,0-.692,0,5.01,5.01,0,0,0-.916.259Q117.55,145.853,116.989,146.122Zm-3.938-8.687q-.546.263-1,.525a4.923,4.923,0,0,0-.751.526,1.726,1.726,0,0,0-.427.525.584.584,0,0,0-.011.517.557.557,0,0,0,.392.324,1.643,1.643,0,0,0,.665,0,4.826,4.826,0,0,0,.874-.256q.483-.187,1.03-.451.531-.255.989-.521a4.906,4.906,0,0,0,.758-.53,1.74,1.74,0,0,0,.427-.525.586.586,0,0,0,.011-.518.558.558,0,0,0-.392-.323,1.627,1.627,0,0,0-.665,0,4.779,4.779,0,0,0-.88.259Q113.583,137.179,113.051,137.435Zm1.578,3.481q-.6.291-1.242.543l.5,1.1,2.443-1.176-.5-1.1Q115.218,140.633,114.629,140.916Z"/>
                <path id="패스_12216" data-name="패스 12216" class="cls-11" d="M129.274,128.766a1.147,1.147,0,0,1-.044-.966,1.381,1.381,0,0,1,.7-.683,1.317,1.317,0,0,1,.956-.112,1.091,1.091,0,0,1,.691.654l2.414,5.327a1.14,1.14,0,0,1,.044.966,1.368,1.368,0,0,1-.7.682,1.312,1.312,0,0,1-.956.113,1.093,1.093,0,0,1-.691-.654l-.169-.375-2.487,1.2a3.7,3.7,0,0,1-.813,1.488,4.716,4.716,0,0,1-1.51,1.111,4.89,4.89,0,0,1-1.59.472,3.478,3.478,0,0,1-1.473-.14,3.357,3.357,0,0,1-1.251-.751,4.237,4.237,0,0,1-.942-1.365,4.348,4.348,0,0,1-.408-1.613,3.565,3.565,0,0,1,.241-1.478,3.692,3.692,0,0,1,.841-1.255,4.986,4.986,0,0,1,1.372-.952,4.643,4.643,0,0,1,1.852-.49,3.25,3.25,0,0,1,1.664.368l2.429-1.169Zm4.224,9.318a.154.154,0,0,0-.233-.089l-6.152,2.961a1.117,1.117,0,0,1-.82.084.994.994,0,0,1-.62-.6,1.04,1.04,0,0,1-.046-.874,1.171,1.171,0,0,1,.589-.594l7.329-3.529a1.159,1.159,0,0,1,1.871.69l1.476,3.256a1.144,1.144,0,0,1,.044.966,1.376,1.376,0,0,1-.7.682,1.318,1.318,0,0,1-.956.113,1.094,1.094,0,0,1-.691-.654Zm-6.957-4.8a2.234,2.234,0,0,0-.92-1.083,1.359,1.359,0,0,0-1.306.034,1.426,1.426,0,0,0-.864,1.01,2.315,2.315,0,0,0,.215,1.423,2.233,2.233,0,0,0,.92,1.083,1.36,1.36,0,0,0,1.306-.035,1.422,1.422,0,0,0,.864-1.01A2.312,2.312,0,0,0,126.541,133.281Zm2.184-1.052a4.46,4.46,0,0,1,.236.636l1.782-.858-.523-1.155-1.768.851c.05.085.1.172.144.259S128.684,132.139,128.725,132.229Z"/>
                <path id="패스_12217" data-name="패스 12217" class="cls-11" d="M147.81,133.7a1.133,1.133,0,0,1,.081.894,1.2,1.2,0,0,1-.639.618,1.143,1.143,0,0,1-.87.108,1.082,1.082,0,0,1-.613-.637l-1.632-3.6-1.078.519a1.275,1.275,0,0,1-.864.141.959.959,0,0,1-.606-.6,1.007,1.007,0,0,1-.061-.867,1.327,1.327,0,0,1,.66-.592l1.078-.519-1.02-2.25-1.394.671a10.383,10.383,0,0,1,.244,1.911,10.707,10.707,0,0,1-1.495,5.874,1.145,1.145,0,0,1-.73.553,1.094,1.094,0,0,1-.893-.155,1.248,1.248,0,0,1-.525-.734,1.379,1.379,0,0,1,.148-.986,10.945,10.945,0,0,0,1.155-3.517,5.825,5.825,0,0,0-.488-3.2l-.184-.4a.492.492,0,0,0-.183-.25c-.059-.027-.16,0-.3.064l-2.141,1.031a1.031,1.031,0,0,1-.831.08,1.1,1.1,0,0,1-.588-.622,1.15,1.15,0,0,1-.085-.864,1.074,1.074,0,0,1,.592-.605l3.248-1.564a1.376,1.376,0,0,1,2.1.764l.279.615,1.207-.581-.727-1.6a1.133,1.133,0,0,1-.081-.894,1.193,1.193,0,0,1,.639-.618,1.143,1.143,0,0,1,.87-.108,1.084,1.084,0,0,1,.613.637Zm3.05-.956a1.14,1.14,0,0,1,.077.9,1.2,1.2,0,0,1-.643.629,1.148,1.148,0,0,1-.88.1,1.089,1.089,0,0,1-.623-.641l-5.373-11.854a1.139,1.139,0,0,1-.077-.9,1.2,1.2,0,0,1,.642-.629,1.155,1.155,0,0,1,.881-.1,1.091,1.091,0,0,1,.624.641Z"/>
                <path id="패스_12218" data-name="패스 12218" class="cls-11" d="M148.329,122.792a4.279,4.279,0,0,1-.407-1.632,3.494,3.494,0,0,1,.258-1.477,3.843,3.843,0,0,1,.852-1.25,4.984,4.984,0,0,1,1.371-.953,4.884,4.884,0,0,1,1.589-.472,3.619,3.619,0,0,1,1.477.129,3.306,3.306,0,0,1,1.265.744,4.172,4.172,0,0,1,.953,1.369,4.3,4.3,0,0,1,.408,1.632,3.507,3.507,0,0,1-.259,1.477,3.829,3.829,0,0,1-.851,1.25,4.968,4.968,0,0,1-1.372.953,4.863,4.863,0,0,1-1.589.473,3.617,3.617,0,0,1-1.477-.13,3.281,3.281,0,0,1-1.265-.744A4.177,4.177,0,0,1,148.329,122.792Zm11.742,2.5a.288.288,0,0,0-.082-.125q-.036-.02-.15.036l-6.008,2.892a1.145,1.145,0,0,1-.827.087.981.981,0,0,1-.628-.593,1.028,1.028,0,0,1-.038-.878,1.2,1.2,0,0,1,.6-.6l7.186-3.459a1.147,1.147,0,0,1,1.87.69l1.476,3.255a1.144,1.144,0,0,1,.044.966,1.374,1.374,0,0,1-.7.683,1.323,1.323,0,0,1-.956.113,1.1,1.1,0,0,1-.691-.655Zm-9.514-3.572a2.126,2.126,0,0,0,.943,1.058,1.383,1.383,0,0,0,1.3-.016,1.46,1.46,0,0,0,.848-1.007,2.208,2.208,0,0,0-.185-1.433,2.124,2.124,0,0,0-.947-1.065,1.389,1.389,0,0,0-1.294.024,1.458,1.458,0,0,0-.848,1.007A2.2,2.2,0,0,0,150.557,121.72Zm5.284-5.761a1.123,1.123,0,0,1-.04-.959,1.4,1.4,0,0,1,.7-.675,1.341,1.341,0,0,1,.953-.12,1.066,1.066,0,0,1,.687.647l.211.465,1.035-.5a1.247,1.247,0,0,1,.821-.139.88.88,0,0,1,.578.562.923.923,0,0,1,.047.818,1.29,1.29,0,0,1-.63.559l-1.035.5.36.8,1.035-.5a1.261,1.261,0,0,1,.821-.139.886.886,0,0,1,.579.563.923.923,0,0,1,.047.818,1.3,1.3,0,0,1-.63.559l-1.036.5.218.48a1.144,1.144,0,0,1,.044.966,1.37,1.37,0,0,1-.7.683,1.317,1.317,0,0,1-.956.113,1.093,1.093,0,0,1-.691-.655Z"/>
                <path id="패스_12219" data-name="패스 12219" class="cls-11" d="M164.442,111.179a1.238,1.238,0,0,1,.995-.105,1.07,1.07,0,0,1,.617.571l.891,1.966a5.506,5.506,0,0,0,1.764,2.231,8.79,8.79,0,0,0,2.9,1.3,1.26,1.26,0,0,1,1.085,1.2.846.846,0,0,1-.08.459,1.212,1.212,0,0,1-.285.375,1.446,1.446,0,0,1-.419.256,1.161,1.161,0,0,1-.485.087,5.735,5.735,0,0,1-1-.14,7.853,7.853,0,0,1-1.022-.3,9.933,9.933,0,0,1-.955-.408c-.3-.148-.572-.3-.816-.448-.04.3-.092.623-.155.97a8.536,8.536,0,0,1-.264,1.041,9.7,9.7,0,0,1-.4,1.022,4.984,4.984,0,0,1-.52.9,1.443,1.443,0,0,1-.363.339,1.311,1.311,0,0,1-.431.189,1.139,1.139,0,0,1-.438.019.865.865,0,0,1-.4-.179,1.129,1.129,0,0,1-.447-.736,1.611,1.611,0,0,1,.162-.937,8.668,8.668,0,0,0,.85-3.223,6.346,6.346,0,0,0-.58-2.9l-.891-1.966a1.115,1.115,0,0,1-.028-.854A1.286,1.286,0,0,1,164.442,111.179Zm5.592-2.034a1.14,1.14,0,0,1-.044-.966,1.37,1.37,0,0,1,.7-.683,1.316,1.316,0,0,1,.956-.112,1.09,1.09,0,0,1,.69.654l5.319,11.733a1.146,1.146,0,0,1,.043.967,1.368,1.368,0,0,1-.7.682,1.315,1.315,0,0,1-.955.113,1.093,1.093,0,0,1-.691-.655l-3.23-7.127-1.883.907a1.213,1.213,0,0,1-.86.112,1.011,1.011,0,0,1-.631-.619,1.06,1.06,0,0,1-.056-.9,1.262,1.262,0,0,1,.635-.608l1.883-.906Z"/>
              </g>
            </g>
            <g id="그룹_632355" data-name="그룹 632355">
              <path id="패스_12220" data-name="패스 12220" class="cls-6" d="M178.239,232.4V71.863a2.754,2.754,0,0,1,2.77-2.754l11.48.069,100.47-.072,19.051,19.575V234.045"/>
              <g id="그룹_632352" data-name="그룹 632352">
                <line id="선_2245" data-name="선 2245" class="cls-7" x2="71" transform="translate(199.345 200)"/>
                <line id="선_2246" data-name="선 2246" class="cls-7" x2="90" transform="translate(199.345 182)"/>
                <line id="선_2247" data-name="선 2247" class="cls-7" x2="90" transform="translate(199.345 217)"/>
              </g>
              <g id="그룹_632353" data-name="그룹 632353">
                <path id="패스_12221" data-name="패스 12221" class="cls-13" d="M262.373,164.162v-25.1h8.982l-25.161-20.378a1.56,1.56,0,0,0-2.138,0L218.9,139.062h8.981v25.1Z"/>
                <path id="패스_12222" data-name="패스 12222" class="cls-6" d="M250.863,140.456a5.738,5.738,0,1,0-7.484,5.465l-3.992,9.98h11.476l-3.992-9.98A5.738,5.738,0,0,0,250.863,140.456Z"/>
              </g>
              <g id="그룹_632354" data-name="그룹 632354">
                <path id="패스_12223" data-name="패스 12223" class="cls-14" d="M220.374,94.8a1.487,1.487,0,0,1,.872.224,1.088,1.088,0,0,1,0,1.535,1.5,1.5,0,0,1-.872.224H208.189a1.489,1.489,0,0,1-.871-.224,1.085,1.085,0,0,1,0-1.535,1.482,1.482,0,0,1,.871-.224h3.763V93.186a1.045,1.045,0,0,1,.358-.864,1.694,1.694,0,0,1,1.89,0,1.042,1.042,0,0,1,.359.864V94.8Zm-6.092,2.8a13.956,13.956,0,0,1,2.248.168,6.293,6.293,0,0,1,1.759.528,3.125,3.125,0,0,1,1.148.911,2.346,2.346,0,0,1-.008,2.679,3.138,3.138,0,0,1-1.172.919,6.54,6.54,0,0,1-1.768.528,14.587,14.587,0,0,1-4.415,0,6.533,6.533,0,0,1-1.767-.528,3.134,3.134,0,0,1-1.173-.919,2.351,2.351,0,0,1-.008-2.679,3.141,3.141,0,0,1,1.148-.911,6.311,6.311,0,0,1,1.76-.528A13.947,13.947,0,0,1,214.282,97.6Zm-4.138-6.924a1.5,1.5,0,0,1-.872-.224,1.088,1.088,0,0,1,0-1.535,1.5,1.5,0,0,1,.872-.224h7.9a1.692,1.692,0,0,1,1.2.352,1.333,1.333,0,0,1,.367,1.007v.864c0,.128-.006.28-.016.456s-.025.359-.041.551-.036.379-.057.56-.044.341-.066.48a1.154,1.154,0,0,1-.456.719,1.346,1.346,0,0,1-.993.224,1.111,1.111,0,0,1-.848-.392,1.075,1.075,0,0,1-.179-.759c.022-.213.046-.448.074-.7a6.368,6.368,0,0,0,.04-.655v-.464q0-.175-.057-.216a.458.458,0,0,0-.236-.04Zm4.138,8.891a8.33,8.33,0,0,0-2.159.232c-.559.154-.839.4-.839.744s.28.589.839.743a10.157,10.157,0,0,0,4.317,0q.838-.231.839-.743c0-.341-.28-.59-.839-.744A8.322,8.322,0,0,0,214.282,99.566Z"/>
                <path id="패스_12224" data-name="패스 12224" class="cls-14" d="M226.988,89.092a1.323,1.323,0,0,1,.969.328,1.031,1.031,0,0,1,.334.759v2.1a5.22,5.22,0,0,0,.7,2.695,8.929,8.929,0,0,0,2.15,2.358,1.212,1.212,0,0,1,.505,1.5.811.811,0,0,1-.269.368,1.21,1.21,0,0,1-.423.207,1.516,1.516,0,0,1-.5.048,1.257,1.257,0,0,1-.489-.128,6.181,6.181,0,0,1-.872-.543,8.594,8.594,0,0,1-.822-.7,10.274,10.274,0,0,1-.717-.76q-.325-.383-.57-.735-.245.367-.554.783a7.745,7.745,0,0,1-.684.8,9.407,9.407,0,0,1-.8.728,4.886,4.886,0,0,1-.863.567,1.5,1.5,0,0,1-.48.144,1.425,1.425,0,0,1-.481-.016,1.233,1.233,0,0,1-.415-.168.875.875,0,0,1-.3-.328,1.051,1.051,0,0,1-.107-.831,1.523,1.523,0,0,1,.546-.752A8.245,8.245,0,0,0,225,95.057a5.812,5.812,0,0,0,.684-2.783v-2.1a1.031,1.031,0,0,1,.334-.759A1.323,1.323,0,0,1,226.988,89.092Zm5.571.576a1.059,1.059,0,0,1,.367-.864,1.594,1.594,0,0,1,1.873,0,1.059,1.059,0,0,1,.367.864v3.5h1.157a1.244,1.244,0,0,1,.838.271,1.037,1.037,0,0,1,.318.832,1.01,1.01,0,0,1-.318.815,1.239,1.239,0,0,1-.838.272h-1.157v6.813a1.055,1.055,0,0,1-.367.863,1.595,1.595,0,0,1-1.873,0,1.055,1.055,0,0,1-.367-.863Z"/>
                <path id="패스_12225" data-name="패스 12225" class="cls-14" d="M248.361,101.789a1.049,1.049,0,0,1-.3.816,1.486,1.486,0,0,1-1.711,0,1.045,1.045,0,0,1-.3-.816V97.951h-1.222a1.38,1.38,0,0,1-.864-.24,1.148,1.148,0,0,1,0-1.567,1.381,1.381,0,0,1,.864-.24h1.222V93.5h-1.581a9.508,9.508,0,0,1-.578,1.776,10,10,0,0,1-.945,1.694,10.138,10.138,0,0,1-1.295,1.528,10.421,10.421,0,0,1-1.629,1.287,1.2,1.2,0,0,1-.912.176,1.152,1.152,0,0,1-.766-.512,1.176,1.176,0,0,1-.179-.863,1.3,1.3,0,0,1,.554-.8,10.493,10.493,0,0,0,2.558-2.59,5.348,5.348,0,0,0,.9-3.007v-.431a.46.46,0,0,0-.065-.3.441.441,0,0,0-.309-.072h-2.427a1.106,1.106,0,0,1-.807-.28,1.242,1.242,0,0,1,0-1.583,1.1,1.1,0,0,1,.807-.28h3.681q1.629,0,1.629,1.551v.655h1.369v-1.71a1.043,1.043,0,0,1,.3-.816,1.481,1.481,0,0,1,1.711,0,1.046,1.046,0,0,1,.3.816Zm3.242.448a1.054,1.054,0,0,1-.31.823,1.471,1.471,0,0,1-1.727,0,1.053,1.053,0,0,1-.309-.823V89.6a1.056,1.056,0,0,1,.309-.824,1.471,1.471,0,0,1,1.727,0,1.056,1.056,0,0,1,.31.824Z"/>
                <path id="패스_12226" data-name="패스 12226" class="cls-14" d="M253.443,92.466a3.922,3.922,0,0,1,.31-1.6,3.309,3.309,0,0,1,.863-1.184,3.87,3.87,0,0,1,1.32-.735,5.624,5.624,0,0,1,3.355,0,3.87,3.87,0,0,1,1.32.735,3.309,3.309,0,0,1,.863,1.184,4.279,4.279,0,0,1,0,3.2,3.288,3.288,0,0,1-.863,1.183,3.839,3.839,0,0,1-1.32.736,5.624,5.624,0,0,1-3.355,0,3.839,3.839,0,0,1-1.32-.736,3.288,3.288,0,0,1-.863-1.183A3.922,3.922,0,0,1,253.443,92.466Zm9.872,7.132a.276.276,0,0,0-.024-.144c-.017-.021-.068-.032-.155-.032h-6.809a1.231,1.231,0,0,1-.807-.272,1.086,1.086,0,0,1,0-1.567,1.236,1.236,0,0,1,.807-.271h8.145a1.669,1.669,0,0,1,1.132.3,1.477,1.477,0,0,1,.317,1.1v3.47a1.058,1.058,0,0,1-.366.863,1.594,1.594,0,0,1-1.873,0,1.055,1.055,0,0,1-.367-.863Zm-7.347-7.132a2.032,2.032,0,0,0,.432,1.323,1.659,1.659,0,0,0,2.427.008,2.266,2.266,0,0,0,0-2.662,1.667,1.667,0,0,0-2.427,0A2.024,2.024,0,0,0,255.968,92.466Zm7.347-2.814a1.036,1.036,0,0,1,.367-.856,1.629,1.629,0,0,1,1.873,0,1.038,1.038,0,0,1,.366.856v.5H267.1a1.352,1.352,0,0,1,.822.224,1.049,1.049,0,0,1,0,1.471,1.346,1.346,0,0,1-.822.224h-1.174v.848H267.1a1.346,1.346,0,0,1,.822.224,1.049,1.049,0,0,1,0,1.471,1.352,1.352,0,0,1-.822.224h-1.174v.511a1.06,1.06,0,0,1-.366.864,1.594,1.594,0,0,1-1.873,0,1.057,1.057,0,0,1-.367-.864Z"/>
                <path id="패스_12227" data-name="패스 12227" class="cls-14" d="M273.333,89.092a1.327,1.327,0,0,1,.97.328,1.035,1.035,0,0,1,.334.759v2.1a5.219,5.219,0,0,0,.7,2.695,8.963,8.963,0,0,0,2.15,2.358,1.211,1.211,0,0,1,.505,1.5.809.809,0,0,1-.268.368,1.215,1.215,0,0,1-.424.207,1.51,1.51,0,0,1-.5.048,1.262,1.262,0,0,1-.489-.128,6.172,6.172,0,0,1-.871-.543,8.487,8.487,0,0,1-.823-.7q-.39-.376-.717-.76t-.57-.735q-.244.367-.553.783a7.881,7.881,0,0,1-.685.8,9.545,9.545,0,0,1-.8.728,4.885,4.885,0,0,1-.863.567,1.5,1.5,0,0,1-.481.144,1.426,1.426,0,0,1-.481-.016,1.233,1.233,0,0,1-.415-.168.883.883,0,0,1-.3-.328,1.051,1.051,0,0,1-.106-.831,1.51,1.51,0,0,1,.546-.752,8.241,8.241,0,0,0,2.15-2.462,5.812,5.812,0,0,0,.684-2.783v-2.1a1.035,1.035,0,0,1,.334-.759A1.326,1.326,0,0,1,273.333,89.092Zm6.061.576a1.061,1.061,0,0,1,.366-.864,1.594,1.594,0,0,1,1.873,0,1.059,1.059,0,0,1,.367.864v12.5a1.055,1.055,0,0,1-.367.863,1.594,1.594,0,0,1-1.873,0,1.058,1.058,0,0,1-.366-.863v-7.6h-2.135a1.306,1.306,0,0,1-.847-.264,1.163,1.163,0,0,1,0-1.615,1.306,1.306,0,0,1,.847-.264h2.135Z"/>
              </g>
              <path id="패스_12228" data-name="패스 12228" class="cls-7" d="M292.012,70,292,87.107A2.853,2.853,0,0,0,294.812,90H312"/>
            </g>
          </g>
        </g>
      </g>
      <line id="선_2248" data-name="선 2248" class="cls-7" x2="360" transform="translate(70 232.5)"/>
    </g>
  </g>
</svg>
