<svg xmlns="http://www.w3.org/2000/svg" width="444" height="222" viewBox="0 0 444 222">
    <defs>
        <clipPath id="a80sm5gf0a">
            <path data-name="사각형 462545" transform="translate(-.278 -.028)" style="stroke:#707070;fill:#fff" d="M0 0h35v32H0z"/>
        </clipPath>
    </defs>
    <path data-name="선 223" transform="translate(42 217.599)" style="stroke-width:3px;stroke-linejoin:round;stroke-linecap:round;stroke:#222;fill:none" d="M0 0h360"/>
    <path data-name="패스 9498" d="M1047.122 12275.712s-2.487 4.1-2.487 6.248-3.806 5.317-3.6 8.728-.135 9.945-6.022 14.336-7.119 9.635-3.772 11.815 13.27 2.1 13.395 3.25-7.614 4.037-6.588 5.756 5.571 1.574 9.076 4.154 3.963 4.275 6.338 3.9 6.465-6.412 8.789-5.972 5.723 7 8.424 5.972 6.806-7.5 9.024-5.972 7.341 4.069 6.814 5.972-4.132 3.548-3.145 6.961 6.639 2.883 5.877 6.352-1.4 7.022 0 9.766 3.674 4.793 2.033 5.738-6.275-4.282-11.579-3.66-11.188 1.931-11.892 5.657 1.5 10.116 9.386 13.866 1.175 10.343 2.506 12.636 6.1 2.258 6.814 6.789 2.589 7.483 0 8.758-4.9-1.271-6.814 1.508 1.353 7.211 0 9-6.783 2.881-6.4 4.825 4.121 3.087 3.89 6.124-5.024 8.6-3.89 11.9 7.627 6.745 6.4 9.324-3.955 8.493 2.006 9.308 10.746-8.6 16.122-9.308 9.845.626 14.58-4.469 5.179-11.149 10.942-12.128 25.156 1.131 28.307-1.778 6.906-8.389 7.7-5.378-.941 1.946 1.9 2.529 9.5-3.085 9.384-6.124-1.281-4.966 0-6.973 3.3-.652 4.647-2.687 7.007-13.92 6.361-17.337-.416-6.285-2.375-5.738-5.083 3.078-7.135 0 3.837-19.51 1.555-28.91-9.067-20.649-15.928-28.6-1.716-6.96-7.875-15.018-11.362-16.561-11.154-19.937-8.958-8.7-9.72-13.484-5.671-7.705-5.671-7.705z" transform="translate(-810.347 -12275.815)" style="fill:#e4e4e4"/>
    <path data-name="패스 9499" d="M1063.045 12477.823c1.155-.578 4.63-4.406 7.081-3.985s4.574 1.938 6.816 1.552 4.723-3.79 7.029-3.239 5.9 3.508 5.878 5.673-.758 6.562-2.763 7.676-6.425 4.247-11.572 4.389-4.639.763-8.38 0-6.916-.646-7.166-4.389 1.922-7.1 3.077-7.677z" transform="translate(-807.347 -12279.952)" style="fill:#e4e4e4"/>
    <path data-name="패스 9490" d="M279.908 12412.174s-5.952-44.973 30.095-72.643 91.619-12.729 91.619-12.729" transform="translate(-147.254 -12295.224)" style="stroke-dasharray:2 8;stroke-width:3px;stroke-linecap:round;stroke:#222;fill:none"/>
    <path data-name="패스 10570" d="M291.5 12424.249c8.676-97.687 105.029-108.474 105.029-108.474" transform="matrix(.829 .56 -.559 .83 6894.578 -10349.9)" style="stroke-dasharray:2 8;stroke-width:3px;stroke-linecap:round;stroke:#222;fill:none"/>
    <path data-name="패스 10571" d="M337.353 12381.64s79.4 4.339 78.862-62.232" transform="matrix(.829 .56 -.559 .83 6838.856 -10302.094)" style="stroke-dasharray:2 8;stroke-width:3px;stroke-linecap:round;stroke:#222;fill:none"/>
    <g data-name="그룹 626257" transform="translate(91.414 122.333)">
        <path data-name="패스 3225" d="M205.033 152.917H77.145a5.132 5.132 0 0 1-5.132-5.132v-80.4a5.132 5.132 0 0 1 5.132-5.132h127.888a5.132 5.132 0 0 1 5.132 5.132v80.4a5.132 5.132 0 0 1-5.132 5.132" transform="translate(-70.994 -62.255)" style="fill:#b1eceb"/>
        <rect data-name="사각형 461082" width="138.152" height="90.662" rx="6.444" transform="translate(1.018)" style="stroke-width:3px;stroke-linejoin:round;stroke:#222;fill:none"/>
        <path data-name="패스 3226" d="M202.775 150.045H82.712a2.569 2.569 0 0 1-2.568-2.569V74.9c0-1.419 1.15-2.569 2.568-3.433h120.063c1.418.863 2.569 2.013 2.569 3.433v72.572a2.569 2.569 0 0 1-2.569 2.569" transform="translate(-72.559 -64.131)" style="fill:#fff"/>
        <path data-name="패스 3227" d="M202.775 150.045H82.712a2.569 2.569 0 0 1-2.568-2.569V74.9c0-1.419 1.15-2.569 2.568-3.433h120.063c1.418.863 2.569 2.013 2.569 3.433v72.572a2.569 2.569 0 0 1-2.569 2.573z" transform="translate(-72.65 -64.131)" style="stroke-width:3px;stroke-linejoin:round;stroke:#222;fill:none"/>
        <path data-name="패스 3228" d="M215.549 171.8v3.608h-12.987V171.8a2.886 2.886 0 0 1 2.886-2.886h7.215a2.886 2.886 0 0 1 2.886 2.886" transform="translate(-180.351 -83.968)" style="fill:#d9f3ed"/>
        <path data-name="패스 3229" d="M215.549 171.8v3.608h-12.987V171.8a2.886 2.886 0 0 1 2.886-2.886h7.215a2.886 2.886 0 0 1 2.886 2.886z" transform="translate(-180.351 -83.968)" style="stroke-width:3px;stroke-linejoin:round;stroke:#222;fill:none"/>
        <path data-name="패스 3230" d="M101.4 171.8v3.608H88.413V171.8a2.886 2.886 0 0 1 2.886-2.886h7.215a2.886 2.886 0 0 1 2.886 2.886" transform="translate(24.709 -83.968)" style="fill:#d9f3ed"/>
        <path data-name="패스 3231" d="M101.4 171.8v3.608H88.413V171.8a2.886 2.886 0 0 1 2.886-2.886h7.215a2.886 2.886 0 0 1 2.886 2.886z" transform="translate(24.709 -83.968)" style="stroke-width:3px;stroke-linejoin:round;stroke:#222;fill:none"/>
        <path data-name="패스 3232" d="M139.382 182.277c-1.5 1.673 2.85.53-135.695.877a3.005 3.005 0 0 1 0-5.977h133.8c2.433 0 3.564 3.272 1.9 5.1" transform="translate(-1 -85.651)" style="stroke-width:3px;stroke:#222;fill:#fff"/>
        <text data-name="Job Find" transform="translate(69.585 33.143)" style="fill:#222;font-size:16px;font-family:ArialRoundedMTBold,Arial Rounded MT Bold;letter-spacing:-.05em"><tspan x="-30.345" y="0">Job Find</tspan></text>
        <g data-name="그룹 630700">
            <g data-name="마스크 그룹 626210" transform="translate(27.864 42.171)" style="clip-path:url(#a80sm5gf0a)">
                <g data-name="그룹 842" transform="translate(2.184 4.477)">
                    <path data-name="패스 1448" d="M253.116 156v-15.967c0-2.937-3.773-5.339-8.383-5.339h-13.97c-4.61 0-8.383 2.4-8.383 5.339V156z" transform="translate(-221.953 -117.807)" style="fill:#f2ac58"/>
                    <ellipse data-name="타원 71" cx="6.403" cy="6.556" rx="6.403" ry="6.556" transform="translate(9.391)" style="stroke-width:2.994px;stroke-linejoin:round;stroke-linecap:round;stroke:#222;fill:#fff"/>
                    <path data-name="패스 1449" d="M252.486 155.811v-13.893c0-3.628-3.773-6.6-8.383-6.6h-13.97c-4.61 0-8.383 2.968-8.383 6.6v13.893" transform="translate(-221.75 -118.024)" style="stroke-width:2.994px;stroke-linejoin:round;stroke-linecap:round;stroke:#222;fill:none"/>
                    <path data-name="선 337" transform="translate(24.759 30.41)" style="stroke-width:2.988px;stroke-linejoin:round;stroke-linecap:round;stroke:#222;fill:none" d="M0 7.376V0"/>
                    <path data-name="선 338" transform="translate(6.83 30.41)" style="stroke-width:2.988px;stroke-linejoin:round;stroke-linecap:round;stroke:#222;fill:none" d="M0 0v7.376"/>
                </g>
            </g>
            <path data-name="선 1607" transform="translate(77.981 63.926)" style="stroke-width:3px;stroke-linejoin:round;stroke-linecap:round;stroke:#222;fill:none" d="M0 0h33.748"/>
            <path data-name="선 1608" transform="translate(77.981 71.98)" style="stroke-width:3px;stroke-linejoin:round;stroke-linecap:round;stroke:#222;fill:none" d="M0 0h33.946"/>
            <path data-name="선 1836" transform="translate(77.981 51.643)" style="stroke-width:3px;stroke-linejoin:round;stroke-linecap:round;stroke:#222;fill:none" d="M0 .283 17.105 0"/>
        </g>
    </g>
    <g transform="translate(236.717 7.616)">
        <path data-name="패스 3581" d="M90.919 81A13.1 13.1 0 0 0 78 94.268a13.463 13.463 0 0 0 1.466 6.121L90 120.1a.945.945 0 0 0 .062.112.955.955 0 0 0 1.721 0l.062-.112 10.531-19.708a13.463 13.463 0 0 0 1.466-6.121A13.1 13.1 0 0 0 90.919 81z" transform="translate(-78 -81)" style="stroke-miterlimit:10;fill:#f2ac58;stroke-width:3px;stroke:#222"/>
        <circle data-name="타원 576" cx="4.241" cy="4.241" r="4.241" transform="translate(8.803 8.704)" style="fill:#fff"/>
    </g>
    <g data-name="위치" transform="translate(285.502 117.378)">
        <path data-name="패스 3581" d="M87.705 81A9.839 9.839 0 0 0 78 90.967a10.114 10.114 0 0 0 1.1 4.6l7.911 14.806a.709.709 0 0 0 .046.084.718.718 0 0 0 1.293 0l.046-.084 7.911-14.806a10.114 10.114 0 0 0 1.1-4.6A9.839 9.839 0 0 0 87.705 81z" transform="translate(-78 -81)" style="stroke-miterlimit:10;fill:#f2ac58;stroke-width:3px;stroke:#222"/>
        <circle data-name="타원 576" cx="3.186" cy="3.186" r="3.186" transform="translate(6.613 6.539)" style="fill:#fff"/>
    </g>
    <g data-name="위치" transform="translate(324.507 60.407)">
        <path data-name="패스 3581" d="M87.705 81A9.839 9.839 0 0 0 78 90.967a10.114 10.114 0 0 0 1.1 4.6l7.911 14.806a.709.709 0 0 0 .046.084.718.718 0 0 0 1.293 0l.046-.084 7.911-14.806a10.114 10.114 0 0 0 1.1-4.6A9.839 9.839 0 0 0 87.705 81z" transform="translate(-78 -81)" style="stroke-miterlimit:10;fill:#f2ac58;stroke-width:3px;stroke:#222"/>
        <circle data-name="타원 576" cx="3.186" cy="3.186" r="3.186" transform="translate(6.613 6.539)" style="fill:#fff"/>
    </g>
</svg>
