<svg xmlns="http://www.w3.org/2000/svg" width="444" height="220" viewBox="0 0 444 220">
    <g transform="translate(-467 -1670)">
        <circle data-name="Ellipse 2" cx="44" cy="44" r="44" transform="translate(789 1670)" style="fill:#fbf0e3"/>
        <circle data-name="Ellipse 2" cx="19.75" cy="19.75" r="19.75" transform="translate(520.25 1694.25)" style="fill:#e3e6fb"/>
        <circle data-name="Ellipse 2" cx="14.75" cy="14.75" r="14.75" transform="translate(593.25 1728.5)" style="fill:#dcf5fb"/>
    </g>
    <g data-name="그룹 322">
        <g data-name="사각형 462994" style="stroke:#222;stroke-width:3px;fill:#e9f6fd">
            <path style="stroke:none" d="M0 0h136.517v140.722H0z" transform="translate(225.599 71.973)"/>
            <path style="fill:none" d="M1.5 1.5h133.517v137.722H1.5z" transform="translate(225.599 71.973)"/>
        </g>
        <path data-name="패스 591" d="M199.829 103.129v13.429c0 3.12-3.995 5.65-8.922 5.65s-8.923-2.53-8.923-5.65v-13.429z" transform="translate(40.229 -36.611)" style="fill:#fcf28d;stroke:#222;stroke-width:3px"/>
        <path data-name="패스 592" d="M222.894 103.129v13.429c0 3.12-4 5.65-8.923 5.65s-8.923-2.53-8.923-5.65v-13.429z" transform="translate(35.01 -36.611)" style="fill:#f2ac58;stroke:#222;stroke-width:3px"/>
        <path data-name="패스 593" d="M269.024 103.129v13.429c0 3.12-3.995 5.65-8.923 5.65s-8.922-2.53-8.922-5.65v-13.429z" transform="translate(24.572 -36.611)" style="fill:#f2ac58;stroke:#222;stroke-width:3px"/>
        <path data-name="패스 594" d="M245.959 103.129v13.429c0 3.12-3.995 5.65-8.923 5.65s-8.922-2.53-8.922-5.65v-13.429z" transform="translate(29.791 -36.611)" style="fill:#fcf28d;stroke:#222;stroke-width:3px"/>
        <path data-name="패스 595" d="M315.153 103.129v13.429c0 3.12-3.995 5.65-8.923 5.65s-8.922-2.53-8.922-5.65v-13.429z" transform="translate(14.133 -36.611)" style="fill:#f2ac58;stroke:#222;stroke-width:3px"/>
        <path data-name="패스 596" d="M292.088 103.129v13.429c0 3.12-3.995 5.65-8.923 5.65s-8.922-2.53-8.922-5.65v-13.429z" transform="translate(19.352 -36.611)" style="fill:#fcf28d;stroke:#222;stroke-width:3px"/>
        <path data-name="패스 597" d="M361.282 103.129v13.429c0 3.12-3.995 5.65-8.922 5.65s-8.923-2.53-8.923-5.65v-13.429z" transform="translate(3.695 -36.611)" style="fill:#f2ac58;stroke:#222;stroke-width:3px"/>
        <path data-name="패스 598" d="M338.217 103.129v13.429c0 3.12-3.995 5.65-8.922 5.65s-8.923-2.53-8.923-5.65v-13.429z" transform="translate(8.914 -36.611)" style="fill:#fcf28d;stroke:#222;stroke-width:3px"/>
    </g>
    <g data-name="사각형 462317" transform="translate(217 53.974)" style="fill:#fff;stroke:#222;stroke-width:3px">
        <rect width="153.898" height="13.86" rx="3" style="stroke:none"/>
        <rect x="1.5" y="1.5" width="150.898" height="10.86" rx="1.5" style="fill:none"/>
    </g>
    <path data-name="선 223" transform="translate(42.5 211.5)" style="stroke-linejoin:round;stroke-linecap:round;fill:none;stroke:#222;stroke-width:3px" d="M0 0h360"/>
    <g data-name="패스 10596" style="fill:#fff">
        <path d="M50.5 62.5h-49V30.668L20.913 1.5H50.5v61z" style="stroke:none" transform="translate(73 141)"/>
        <path d="M21.716 3 3 31.121V61h46V3H21.716M20.11 0H52v64H0V30.214L20.11 0z" style="fill:#222;stroke:none" transform="translate(73 141)"/>
    </g>
    <g data-name="패스 10597" style="fill:#e9f6fd">
        <path d="M35.5 28.5H9.303l11.599-17H35.5v17z" style="stroke:none" transform="translate(78 138)"/>
        <path d="m21.694 13-9.552 14H34V13H21.694m-1.585-3H37v20H7v-.786L20.11 10z" style="fill:#222;stroke:none" transform="translate(78 138)"/>
    </g>
    <g data-name="사각형 462427" style="fill:#f2ac58;stroke:#222;stroke-width:3px">
        <path style="stroke:none" d="M0 0h132v95.952H0z" transform="translate(119 109)"/>
        <path style="fill:none" d="M1.5 1.5h129v92.952H1.5z" transform="translate(119 109)"/>
    </g>
    <path data-name="선 1604" transform="translate(103.5 175.5)" style="stroke-linecap:round;fill:none;stroke:#222;stroke-width:3px" d="m0 0 8.5.048"/>
    <g data-name="타원 1047" transform="translate(102 178)" style="fill:#727272;stroke:#222;stroke-width:3px">
        <circle cx="17" cy="17" r="17" style="stroke:none"/>
        <circle cx="17" cy="17" r="15.5" style="fill:none"/>
    </g>
    <g data-name="타원 1219" transform="translate(202.16 178)" style="fill:#727272;stroke:#222;stroke-width:3px">
        <circle cx="17" cy="17" r="17" style="stroke:none"/>
        <circle cx="17" cy="17" r="15.5" style="fill:none"/>
    </g>
    <g data-name="사각형 462990" style="fill:#afdae9;stroke:#222;stroke-width:3px">
        <path style="stroke:none" d="M0 0h28.321v16.228H0z" transform="translate(171 109.048)"/>
        <path style="fill:none" d="M1.5 1.5h25.321v13.228H1.5z" transform="translate(171 109.048)"/>
    </g>
    <g data-name="그룹 631373">
        <path data-name="선 1894" transform="translate(222 129.5)" style="stroke-linejoin:round;stroke-linecap:round;fill:none;stroke:#222;stroke-width:3px" d="M0 0h33.5"/>
        <path data-name="선 1895" transform="translate(230.5 137.75)" style="stroke-linejoin:round;stroke-linecap:round;fill:none;stroke:#222;stroke-width:3px" d="M0 0h32.241"/>
        <path data-name="선 1896" transform="translate(223 146.75)" style="stroke-linejoin:round;stroke-linecap:round;fill:none;stroke:#222;stroke-width:3px" d="M0 0h33.5"/>
        <path data-name="선 1897" transform="translate(241.005 155)" style="stroke-linejoin:round;stroke-linecap:round;fill:none;stroke:#222;stroke-width:3px" d="M0 0h21.495"/>
    </g>
    <g data-name="상자 셋트">
        <g data-name="그룹 628008">
            <g data-name="패스 3568" style="fill:#fff">
                <path d="M48.533 38.868H1.5V1.5h47.033v37.368z" style="stroke:none" transform="translate(274.25 179.143)"/>
                <path d="M3 3v34.368h44.033V3H3M0 0h50.033v40.368H0V0z" style="fill:#222;stroke:none" transform="translate(274.25 179.143)"/>
            </g>
            <g data-name="사각형 461158" style="fill:#afdae9;stroke:#222;stroke-width:3px">
                <path style="stroke:none" d="M0 0h21.928v14.639H0z" transform="translate(288.433 179.181)"/>
                <path style="fill:none" d="M1.5 1.5h18.928v11.639H1.5z" transform="translate(288.433 179.181)"/>
            </g>
        </g>
        <g data-name="그룹 628009">
            <g data-name="패스 3568" style="fill:#fff">
                <path d="M48.533 38.868H1.5V1.5h47.033v37.368z" style="stroke:none" transform="translate(299.266 142)"/>
                <path d="M3 3v34.368h44.033V3H3M0 0h50.033v40.368H0V0z" style="fill:#222;stroke:none" transform="translate(299.266 142)"/>
            </g>
            <g data-name="사각형 461158" style="fill:#afdae9;stroke:#222;stroke-width:3px">
                <path style="stroke:none" d="M0 0h21.928v14.639H0z" transform="translate(313.449 142.038)"/>
                <path style="fill:none" d="M1.5 1.5h18.928v11.639H1.5z" transform="translate(313.449 142.038)"/>
            </g>
        </g>
        <g data-name="그룹 628010">
            <g data-name="패스 3568" style="fill:#fff">
                <path d="M48.533 38.868H1.5V1.5h47.033v37.368z" style="stroke:none" transform="translate(321.865 179.144)"/>
                <path d="M3 3v34.368h44.033V3H3M0 0h50.033v40.368H0V0z" style="fill:#222;stroke:none" transform="translate(321.865 179.144)"/>
            </g>
            <g data-name="사각형 461158" style="fill:#afdae9;stroke:#222;stroke-width:3px">
                <path style="stroke:none" d="M0 0h21.928v14.639H0z" transform="translate(336.048 179.182)"/>
                <path style="fill:none" d="M1.5 1.5h18.928v11.639H1.5z" transform="translate(336.048 179.182)"/>
            </g>
        </g>
    </g>
</svg>
