<svg xmlns="http://www.w3.org/2000/svg" width="444" height="226" viewBox="0 0 444 226">
    <g transform="translate(39 38.282)">
        <circle data-name="타원 561" cx="16" cy="16" r="16" transform="translate(353 -38.282)" style="fill:#dcf5fb"/>
        <circle data-name="타원 562" cx="52" cy="52" r="52" transform="translate(-39 -10.282)" style="fill:#fbf0e3"/>
        <path data-name="패스 10642" d="M5.827 29.939a31.742 31.742 0 1 0 42.257-15.147A31.743 31.743 0 0 0 5.827 29.939" transform="translate(309.441 54.975)" style="fill:#fdf8c6"/>
    </g>
    <g data-name="그룹 1466">
        <path data-name="패스 2357" d="M207.448 237.29V58.317a2 2 0 0 1 1.994-2.011h111.692a2 2 0 0 1 1.995 2.011V237.29" style="fill:#fff" transform="translate(-33.264 -18.798)"/>
        <path data-name="패스 2358" d="M207.448 72.393V56.485a5.724 5.724 0 0 1 1.994-.179h111.692a5.719 5.719 0 0 1 1.995.179v15.908" style="fill:#f2ac58" transform="translate(-33.264 -18.798)"/>
        <path data-name="패스 2359" d="M207.448 237.29V58.317a2 2 0 0 1 1.994-2.011h111.692a2 2 0 0 1 1.995 2.011V237.29" style="stroke-width:3.004px;stroke-linejoin:round;stroke-linecap:round;stroke:#222;fill:none" transform="translate(-33.264 -18.798)"/>
        <path data-name="선 670" transform="translate(174.184 53.595)" style="stroke-width:2.992px;stroke-linejoin:round;stroke-linecap:round;stroke:#222;fill:#fff" d="M0 0h114.683"/>
    </g>
    <g data-name="그룹 1467" transform="translate(-33.264 -18.798)">
        <rect data-name="사각형 615" width="15.956" height="16.087" rx="2.289" transform="translate(258.46 90.492)" style="fill:#e4e4e4"/>
        <rect data-name="사각형 616" width="15.956" height="16.087" rx="2.289" transform="translate(288.377 90.492)" style="fill:#e4e4e4"/>
        <rect data-name="사각형 617" width="15.956" height="16.087" rx="2.289" transform="translate(228.542 120.656)" style="fill:#e4e4e4"/>
        <rect data-name="사각형 618" width="15.956" height="16.087" rx="2.289" transform="translate(258.46 120.656)" style="fill:#e4e4e4"/>
        <rect data-name="사각형 619" width="15.956" height="16.087" rx="2.289" transform="translate(288.377 120.656)" style="fill:#e4e4e4"/>
        <rect data-name="사각형 620" width="15.956" height="16.087" rx="2.289" transform="translate(228.542 150.82)" style="fill:#e4e4e4"/>
        <rect data-name="사각형 621" width="15.956" height="16.087" rx="2.289" transform="translate(258.46 150.82)" style="fill:#e4e4e4"/>
        <rect data-name="사각형 622" width="15.956" height="16.087" rx="2.289" transform="translate(288.377 150.82)" style="fill:#e4e4e4"/>
        <rect data-name="사각형 623" width="15.956" height="16.087" rx="2.289" transform="translate(228.542 90.492)" style="fill:#e4e4e4"/>
    </g>
    <g data-name="그룹 1468">
        <path data-name="선 671" transform="translate(232.024 168.218)" style="stroke-width:3.016px;stroke-linejoin:round;stroke-linecap:round;stroke:#222;fill:none" d="M0 0v48.262"/>
        <path data-name="패스 2360" d="M246.34 237.29a3 3 0 0 1-2.992-3.016v-47.258a2 2 0 0 1 1.994-2.011h39.89a2 2 0 0 1 1.994 2.011v47.257a3 3 0 0 1-2.992 3.016" style="stroke-width:3.004px;stroke-linejoin:round;stroke-linecap:round;stroke:#222;fill:none" transform="translate(-33.264 -18.798)"/>
    </g>
    <path data-name="선 78" transform="translate(42 218.5)" style="stroke-width:3px;stroke-linejoin:round;stroke-linecap:round;stroke:#222;fill:none" d="M0 0h360"/>
    <g data-name="그룹 626162">
        <path data-name="패스 2796" d="M258.5 185.218a1.965 1.965 0 0 1-.708-.131 72.762 72.762 0 0 1-30.382-21.35 78.517 78.517 0 0 1-14.385-26.837 95.2 95.2 0 0 1-4.421-32.652 1.959 1.959 0 0 1 1.7-1.79c15.155-2.036 27.006-9.1 34.279-14.672a72.224 72.224 0 0 0 12.352-11.8 1.972 1.972 0 0 1 1.567-.772 1.967 1.967 0 0 1 1.567.774 72.272 72.272 0 0 0 12.351 11.8c7.273 5.57 19.124 12.636 34.28 14.672a1.959 1.959 0 0 1 1.7 1.79 95.175 95.175 0 0 1-4.421 32.652 78.517 78.517 0 0 1-14.385 26.832 72.762 72.762 0 0 1-30.382 21.35 1.965 1.965 0 0 1-.708.131" style="fill:#afdae9" transform="translate(69 38.282)"/>
        <path data-name="패스 2797" d="M258.5 185.218a1.965 1.965 0 0 1-.708-.131 72.762 72.762 0 0 1-30.382-21.35 78.517 78.517 0 0 1-14.385-26.837 95.2 95.2 0 0 1-4.421-32.652 1.959 1.959 0 0 1 1.7-1.79c15.155-2.036 27.006-9.1 34.279-14.672a72.224 72.224 0 0 0 12.352-11.8 1.972 1.972 0 0 1 1.567-.772 1.967 1.967 0 0 1 1.567.774 72.272 72.272 0 0 0 12.351 11.8c7.273 5.57 19.124 12.636 34.28 14.672a1.959 1.959 0 0 1 1.7 1.79 95.175 95.175 0 0 1-4.421 32.652 78.517 78.517 0 0 1-14.385 26.832 72.762 72.762 0 0 1-30.382 21.35 1.965 1.965 0 0 1-.712.134z" style="stroke-miterlimit:10;stroke-width:3px;stroke:#222;fill:none" transform="translate(69 38.282)"/>
        <path data-name="패스 2798" d="M278.577 134.2a21 21 0 1 1-21-21 21.006 21.006 0 0 1 21 21" style="fill:#fff" transform="translate(69 38.282)"/>
        <path data-name="패스 2799" d="M278.243 130.439a21 21 0 1 1-20.666-17.244 20.913 20.913 0 0 1 11.271 3.278" style="stroke-width:3px;stroke-linejoin:round;stroke-linecap:round;stroke:#222;fill:none" transform="translate(69 38.282)"/>
        <path data-name="패스 2800" d="m280.827 121.747-5.048-4.8-18 17.282-7.8-7.425-5.145 4.9 12.828 12.243.022-.017.014.017z" style="fill:#fcf28d" transform="translate(69 38.282)"/>
        <path data-name="패스 2801" d="m280.827 121.747-5.048-4.8-18 17.282-7.8-7.425-5.145 4.9 12.828 12.243.022-.017.014.017z" style="stroke-width:3px;stroke-linejoin:round;stroke-linecap:round;stroke:#222;fill:none" transform="translate(69 38.282)"/>
    </g>
    <g data-name="Vector Smart Object">
        <g data-name="그룹 247">
            <g data-name="그룹 242" transform="translate(78.979 74.57)">
                <rect data-name="사각형 39" width="106.317" height="149.429" rx="1.664" style="fill:#7dd3cf;stroke-width:3px;stroke-linejoin:round;stroke-linecap:round;stroke:#222"/>
            </g>
            <g data-name="그룹 243">
                <path data-name="패스 494" d="M231.582 195.816h-82.053a1.774 1.774 0 0 1-1.772-1.816l-.278-123.355a1.774 1.774 0 0 1 1.793-1.737l80.66 1a1.773 1.773 0 0 1 1.75 1.75l1.672 122.358a1.773 1.773 0 0 1-1.772 1.8z" transform="translate(-59.601 16.354)" style="stroke-width:3px;stroke-linejoin:round;stroke-linecap:round;stroke:#222;fill:#fff"/>
            </g>
            <g data-name="그룹 244">
                <path data-name="패스 8637" d="M1.511 0H86.2a1.5 1.5 0 0 1 1.511 1.487s.727 57.37 1.686 82.765 3.315 33.148 3.315 33.148a1.5 1.5 0 0 1-1.511 1.487l-84.69 1.969A1.5 1.5 0 0 1 5 119.369L0 1.487A1.5 1.5 0 0 1 1.511 0z" style="stroke-width:3px;stroke-linecap:round;stroke:#222;fill:#fff" transform="translate(88.342 85.258)"/>
            </g>
            <g data-name="그룹 245">
                <path data-name="패스 495" d="M206.408 65.773a2.289 2.289 0 0 0-2.072-1.36h-7.36v-1.4a8.488 8.488 0 0 0-8.473-8.5h-.388a8.488 8.488 0 0 0-8.473 8.5v1.4h-7.875a2.289 2.289 0 0 0-2.072 1.36l-3.792 8.3h44.3z" transform="translate(-55.914 13.836)" style="fill:#e6e6e6;stroke-width:3px;stroke-linejoin:round;stroke-linecap:round;stroke:#222"/>
                <path data-name="패스 496" d="M185.332 58.9a2.416 2.416 0 1 0 2.407 2.416 2.411 2.411 0 0 0-2.407-2.416z" transform="translate(-52.937 14.603)" style="stroke-width:3px;stroke-linejoin:round;stroke-linecap:round;stroke:#222;fill:none"/>
            </g>
            <g data-name="그룹 246" transform="translate(98.316 125.347)">
                <rect data-name="사각형 45" width="71.95" height="4.611" rx=".756" transform="translate(0 21.156)" style="fill:#f5f5f5"/>
                <rect data-name="사각형 46" width="70.95" height="4.611" rx=".756" transform="translate(1 31.734)" style="fill:#f5f5f5"/>
                <rect data-name="사각형 47" width="24.964" height="4.611" rx=".756" transform="translate(2 42.312)" style="fill:#f5f5f5"/>
            </g>
        </g>
        <path data-name="패스 9493" d="M201.833 156.6s4.949 18.325 1.534 22.976-8.225-.258-8.734-6.706 10.732 2.055 10.732 2.055 7.448 6.453 9.5 2.209-1.514-7.558-3.982-5.428-4.445 9.5 3.982 9.928 8.429-9.883 5.959-9.928-6.438 5.6 0 8.877 7.238-2.877 6.432-3.449" transform="translate(-58.529 13.836)" style="stroke:#e4e4e4;fill:none"/>
        <text data-name="보험법인 위탁 계약서" transform="translate(132.304 113.244)" style="fill:#222;font-size:15px;font-family:NotoSansCJKkr-Bold,Noto Sans CJK KR;font-weight:700;letter-spacing:-.05em"><tspan x="-26.475" y="0">보험법인</tspan><tspan x="-34.327" y="21">위탁 계약서</tspan></text>
    </g>
</svg>
