<svg xmlns="http://www.w3.org/2000/svg" width="444" height="221" viewBox="0 0 444 221">
    <circle data-name="타원 562" cx="29.5" cy="29.5" r="29.5" transform="translate(54 134)" style="fill:#ecfbec"/>
    <path data-name="선 223" transform="translate(42.5 219.312)" style="stroke-width:3px;stroke-linecap:round;stroke-linejoin:round;stroke:#222;fill:none" d="M0 0h360"/>
    <path data-name="패스 5211" d="M0 0h19l6.343 76.991-31.736 1.117z" transform="translate(183 48)" style="fill:#afdae9"/>
    <g data-name="패스 9513" style="fill:#6ebbd6">
        <path d="M25.37 10.5H1.63l.75-9h22.24l.75 9z" style="stroke:none" transform="translate(179 65)"/>
        <path d="m3.76 3-.5 6h20.48l-.5-6H3.76M1 0h25l1 12H0L1 0z" style="fill:#222;stroke:none" transform="translate(179 65)"/>
    </g>
    <path data-name="패스 5210" d="m-6146.5 6228.265-36.653 19.973-1.789-2.62v-17.353l-36.863 19.973-1.856-2.62v-17.353l-37.6 19.973v98.121h114.761z" style="fill:#fff" transform="translate(6421 -6128)"/>
    <g data-name="그룹 626854">
        <path data-name="패스 4413" d="M663.293 970.876a1.7 1.7 0 0 1-1.695-1.562l-5.379-64.59h-15.782L635.577 965a1.686 1.686 0 0 1-1.834 1.562 1.7 1.7 0 0 1-1.562-1.834l4.859-60.279a3.428 3.428 0 0 1 3.4-3.134h15.78a3.424 3.424 0 0 1 3.393 3.124l5.379 64.59a1.7 1.7 0 0 1-1.555 1.838 1.354 1.354 0 0 1-.144.009z" transform="translate(-455.732 -854.998)" style="fill:#222"/>
        <path data-name="패스 4414" d="M664.855 1054.453h-40.4a3.411 3.411 0 0 1-3.406-3.406v-96.41a3.4 3.4 0 0 1 1.782-2.993l35.423-19.268a3.405 3.405 0 0 1 5.033 2.994v15.388l33.8-18.382a3.406 3.406 0 0 1 5.033 2.994v15.388l33.8-18.382a3.406 3.406 0 0 1 5.033 2.994v43.87a1.7 1.7 0 0 1-3.406 0v-43.87l-33.8 18.382a3.407 3.407 0 0 1-5.033-2.994v-15.389l-33.8 18.382a3.409 3.409 0 0 1-5.036-2.994v-15.388l-35.424 19.266v96.41h40.4a1.7 1.7 0 1 1 0 3.406z" transform="translate(-463.553 -833.453)" style="fill:#222"/>
        <path data-name="사각형 461210" transform="translate(197 146)" style="fill:#fff" d="M0 0h120v73H0z"/>
        <path data-name="패스 4415" d="M763.965 1035.635H646.478a3.412 3.412 0 0 1-3.406-3.406v-70.1a3.411 3.411 0 0 1 3.406-3.406h117.487a3.411 3.411 0 0 1 3.406 3.406v70.1a3.412 3.412 0 0 1-3.406 3.406zm0-3.406zm-117.487-70.1v70.1H763.96l.005-70.1z" transform="translate(-448.073 -814.635)" style="fill:#222"/>
        <g data-name="그룹 626856" transform="translate(-463.553 -854.998)">
            <rect data-name="사각형 461209" width="17" height="11" rx="2" transform="translate(676.053 1022.998)" style="fill:#e9f6fd;stroke-width:3px;stroke:#222"/>
            <rect data-name="사각형 461209" width="17" height="11" rx="2" transform="translate(700.053 1022.998)" style="fill:#e9f6fd;stroke-width:3px;stroke:#222"/>
            <rect data-name="사각형 461209" width="17" height="11" rx="2" transform="translate(724.053 1022.998)" style="fill:#e9f6fd;stroke-width:3px;stroke:#222"/>
            <rect data-name="사각형 461209" width="17" height="11" rx="2" transform="translate(748.053 1022.998)" style="fill:#e9f6fd;stroke-width:3px;stroke:#222"/>
            <rect data-name="사각형 461209" width="17" height="11" rx="2" transform="translate(676.053 1040.998)" style="fill:#e9f6fd;stroke-width:3px;stroke:#222"/>
            <rect data-name="사각형 461209" width="17" height="11" rx="2" transform="translate(700.053 1040.998)" style="fill:#e9f6fd;stroke-width:3px;stroke:#222"/>
            <rect data-name="사각형 461209" width="17" height="11" rx="2" transform="translate(724.053 1040.998)" style="fill:#e9f6fd;stroke-width:3px;stroke:#222"/>
            <rect data-name="사각형 461209" width="17" height="11" rx="2" transform="translate(748.053 1040.998)" style="fill:#e9f6fd;stroke-width:3px;stroke:#222"/>
        </g>
    </g>
    <path data-name="합치기 19" d="M6.81 16.088q0-.254.018-.5A7.815 7.815 0 0 1 7.807.019a7.891 7.891 0 0 1 .827.043 3.022 3.022 0 0 1 .51-.043h21.209a3 3 0 0 1 .9.137A6.785 6.785 0 0 1 32.7 0a6.285 6.285 0 0 1 6.44 6.117 6.285 6.285 0 0 1-6.44 6.116 6.8 6.8 0 0 1-1.3-.124 6.56 6.56 0 0 1-6.459 7.97 6.616 6.616 0 0 1-4.332-1.6 7.119 7.119 0 0 1-13.8-2.387z" transform="rotate(180 119.285 15.32)" style="fill:#e9f6fd;stroke-width:3px;stroke:#222"/>
    <path data-name="합치기 30" d="M6.81 16.088q0-.254.018-.5A7.815 7.815 0 0 1 7.807.019a7.891 7.891 0 0 1 .827.043 3.022 3.022 0 0 1 .51-.043h21.209a3 3 0 0 1 .9.137A6.785 6.785 0 0 1 32.7 0a6.285 6.285 0 0 1 6.44 6.117 6.285 6.285 0 0 1-6.44 6.116 6.8 6.8 0 0 1-1.3-.124 6.56 6.56 0 0 1-6.459 7.97 6.616 6.616 0 0 1-4.332-1.6 7.119 7.119 0 0 1-13.8-2.387z" transform="rotate(180 64.285 29.785)" style="fill:#e9f6fd;stroke-width:3px;stroke:#222"/>
    <g data-name="지도 셋트" transform="translate(223.423 -64.776)">
        <circle data-name="타원 575" cx="73.5" cy="73.5" r="73.5" transform="translate(36.577 64.776)" style="fill:#fbf0e3"/>
        <g data-name="그룹 630717">
            <path data-name="사각형 461164" transform="translate(70.577 141.118)" style="stroke-miterlimit:10;fill:#afdae9;stroke-width:3px;stroke:#222" d="M0 0h41v41H0z"/>
            <path data-name="패스 9512" d="m19.878 79.341 20.71 6.825v-6.825z" style="fill:#6ebbd6" transform="translate(70.312 94.777)"/>
            <g data-name="사각형 462571" style="fill:#fff;stroke-width:3px;stroke:#222">
                <path style="stroke:none" d="M0 0h69v50H0z" transform="translate(81.577 125.118)"/>
                <path style="fill:none" d="M1.5 1.5h66v47h-66z" transform="translate(81.577 125.118)"/>
            </g>
            <path data-name="패스 3580" d="M112.93 124.184V101h-5.841v17.343h-14.97L74.778 101H63.392l.014.311 12.444 12.444-5.659 5.659L62 111.222V122.9l12.778 12.778h14.968l12.048 12.048 11.694.011-17.9-17.9H80.619l-5.559-5.559 5.659-5.659 5.559 5.559h14.968l23.559 23.559 1.449-.011v-10.218z" transform="translate(21.713 26.24)" style="stroke:#e4e4e4;stroke-miterlimit:10;stroke-width:3px;fill:none"/>
            <path data-name="패스 3579" d="M91.293 140.183 62 133" transform="translate(20.713 40.982)" style="stroke-miterlimit:10;fill:#fff;stroke-width:3px;stroke:#222"/>
            <g data-name="사각형 462572" style="stroke-width:3px;stroke:#222;fill:none">
                <path style="stroke:none" d="M0 0h69v50H0z" transform="translate(81.577 125.118)"/>
                <path style="fill:none" d="M1.5 1.5h66v47h-66z" transform="translate(81.577 125.118)"/>
            </g>
            <g transform="translate(107.083 94.777)">
                <path data-name="패스 3581" d="M97.8 81C86.865 81 78 90.1 78 101.336a20.636 20.636 0 0 0 2.247 9.383l16.141 30.208a1.447 1.447 0 0 0 .094.172 1.464 1.464 0 0 0 2.638 0l.094-.172 16.141-30.208a20.636 20.636 0 0 0 2.247-9.383C117.6 90.1 108.738 81 97.8 81z" transform="translate(-78 -81)" style="fill:#f2ac58;stroke-miterlimit:10;stroke-width:3px;stroke:#222"/>
                <circle data-name="타원 576" cx="6.5" cy="6.5" r="6.5" transform="translate(13.493 13.341)" style="stroke-miterlimit:10;fill:#fff;stroke-width:3px;stroke:#222"/>
            </g>
        </g>
    </g>
    <g>
        <path data-name="패스 3320" d="M229.5 174.286v-40h80v40" style="fill:#fcf28d" transform="translate(-142 43.213)"/>
        <path data-name="패스 3321" d="M229.5 174.286v-40h80v40" style="stroke-width:3px;stroke-linecap:round;stroke-linejoin:round;stroke:#222;fill:none" transform="translate(-142 43.213)"/>
        <path data-name="선 219" transform="translate(87.5 210.499)" style="stroke-width:3px;stroke-linecap:round;stroke-linejoin:round;stroke:#222;fill:none" d="M0 0h80"/>
        <path data-name="선 220" transform="translate(87.5 202.499)" style="stroke-width:3px;stroke-linecap:round;stroke-linejoin:round;stroke:#222;fill:none" d="M0 0h80"/>
        <path data-name="선 221" transform="translate(87.5 194.499)" style="stroke-width:3px;stroke-linecap:round;stroke-linejoin:round;stroke:#222;fill:none" d="M0 0h80"/>
        <path data-name="선 222" transform="translate(87.5 186.499)" style="stroke-width:3px;stroke-linecap:round;stroke-linejoin:round;stroke:#222;fill:none" d="M0 0h80"/>
        <path data-name="패스 3322" d="M309.5 134.286h-80l7.193-10h65.614z" style="fill:#fcf28d" transform="translate(-142 43.213)"/>
        <path data-name="패스 3323" d="M309.5 134.286h-80l7.193-10h65.614z" style="stroke-width:3px;stroke-linecap:round;stroke-linejoin:round;stroke:#222;fill:none" transform="translate(-142 43.213)"/>
        <path data-name="패스 3324" d="m262.764 133.676 1.216-9.39h11.082l1.213 9.39" style="fill:#fff" transform="translate(-142 43.213)"/>
        <path data-name="패스 3325" d="m262.764 133.676 1.216-9.39h11.082l1.213 9.39" style="stroke-width:3px;stroke-linecap:round;stroke-linejoin:round;stroke:#222;fill:none" transform="translate(-142 43.213)"/>
        <path data-name="패스 3326" d="M263 174.286v-40h13v40" style="fill:#fff" transform="translate(-142 43.213)"/>
        <path data-name="패스 3327" d="M263 174.286v-40h13v40" style="stroke-width:3px;stroke-linecap:round;stroke-linejoin:round;stroke:#222;fill:none" transform="translate(-142 43.213)"/>
    </g>
</svg>
