<svg xmlns="http://www.w3.org/2000/svg" width="444" height="234" viewBox="0 0 444 234">
    <g transform="translate(-38 -455.875)">
        <circle data-name="Ellipse 2" cx="53.5" cy="53.5" r="53.5" transform="translate(342 536)" style="fill:#fbf0e3"/>
        <circle data-name="Ellipse 2" cx="19.75" cy="19.75" r="19.75" transform="translate(260 455.875)" style="fill:#dcf5fb"/>
        <path data-name="선 686" transform="translate(81.5 683.345)" style="stroke-linejoin:round;stroke-linecap:round;stroke:#222;stroke-width:3px;fill:none" d="M0 0h360"/>
        <circle data-name="Ellipse 2" cx="14.125" cy="14.125" r="14.125" transform="translate(67.375 481.25)" style="fill:#dcf5fb"/>
    </g>
    <g transform="translate(107.179 215.255)">
        <path data-name="패스 3225" d="M198.67 148.581H76.9a4.887 4.887 0 0 1-4.887-4.887V67.142a4.887 4.887 0 0 1 4.887-4.887h121.77a4.887 4.887 0 0 1 4.887 4.887v76.552a4.887 4.887 0 0 1-4.887 4.887" transform="translate(11.834 -143.045)" style="fill:#b1eceb"/>
        <rect data-name="사각형 461082" width="131.544" height="86.326" rx="6.444" transform="translate(83.847 -80.79)" style="stroke-linejoin:round;stroke:#222;stroke-width:3px;fill:none"/>
        <path data-name="패스 3226" d="M196.91 146.287H82.59a2.446 2.446 0 0 1-2.446-2.446v-69.1c0-1.351 1.1-2.446 2.446-3.268h114.32c1.351.822 2.446 1.917 2.446 3.268v69.1a2.447 2.447 0 0 1-2.446 2.446" transform="translate(9.869 -145.273)" style="fill:#fff"/>
        <path data-name="패스 3227" d="M196.91 146.287H82.59a2.446 2.446 0 0 1-2.446-2.446v-69.1c0-1.351 1.1-2.446 2.446-3.268h114.32c1.351.822 2.446 1.917 2.446 3.268v69.1a2.447 2.447 0 0 1-2.446 2.446z" transform="translate(9.869 -145.273)" style="stroke-linejoin:round;stroke:#222;stroke-width:3px;fill:none"/>
        <path data-name="패스 3228" d="M214.928 171.66v3.44h-12.366v-3.44a2.748 2.748 0 0 1 2.748-2.748h6.87a2.748 2.748 0 0 1 2.748 2.748" transform="translate(-98.536 -168.821)" style="fill:#d9f3ed"/>
        <path data-name="패스 3229" d="M214.928 171.66v3.44h-12.366v-3.44a2.748 2.748 0 0 1 2.748-2.748h6.87a2.748 2.748 0 0 1 2.748 2.748z" transform="translate(-98.536 -168.821)" style="stroke-linejoin:round;stroke:#222;stroke-width:3px;fill:none"/>
        <path data-name="패스 3230" d="M100.779 171.66v3.44H88.413v-3.44a2.748 2.748 0 0 1 2.748-2.748h6.87a2.748 2.748 0 0 1 2.748 2.748" transform="translate(102.175 -168.821)" style="fill:#d9f3ed"/>
        <path data-name="패스 3231" d="M100.779 171.66v3.44H88.413v-3.44a2.748 2.748 0 0 1 2.748-2.748h6.87a2.748 2.748 0 0 1 2.748 2.748z" transform="translate(102.175 -168.821)" style="stroke-linejoin:round;stroke:#222;stroke-width:3px;fill:none"/>
        <path data-name="패스 3232" d="M135.741 182.1c-1.465 1.616 2.775.512-132.124.847a2.9 2.9 0 0 1 0-5.775h130.274c2.369 0 3.47 3.162 1.849 4.927" transform="translate(81.877 -170.903)" style="fill:#fff"/>
        <path data-name="패스 3233" d="M135.741 182.728c-1.465 1.82 2.775.576-132.124.954-1.448 0-2.617-1.461-2.617-3.253s1.173-3.252 2.617-3.252h130.274c2.37 0 3.47 3.562 1.85 5.551z" transform="translate(81.877 -171.642)" style="stroke-linejoin:round;stroke:#222;stroke-width:3px;fill:none"/>
        <path data-name="사각형 461084" transform="translate(56.152 -128)" style="fill:none" d="M0 0h213.848v140.87H0z"/>
    </g>
    <path data-name="패스 9539" d="m2402.99 1056.451-.338 13.879h-19.971l-.338-13.879z" transform="translate(-2134.007 -896.546)" style="fill:#727272"/>
    <path data-name="패스 9540" d="M2231.492 359.547c0-9.382 8.8-18.554 8.8-18.554a26.824 26.824 0 1 0-38.362 0s8.8 9.172 8.8 18.554z" transform="translate(-1962.447 -199.289)" style="fill:#fcf28d;stroke:#222;stroke-width:3px"/>
    <path data-name="패스 9541" d="M2380.272 1026.282s2.129 0 2.129 2.647-2.129 2.647-2.129 2.647H2359.5s-2.129 0-2.129-2.647a2.4 2.4 0 0 1 2.129-2.647z" transform="translate(-2111.227 -869.024)" style="fill:#222"/>
    <path data-name="패스 9542" d="M2380.272 1118.2s2.129 0 2.129 2.647-2.129 2.647-2.129 2.647H2359.5s-2.129 0-2.129-2.647a2.4 2.4 0 0 1 2.129-2.647z" transform="translate(-2111.227 -952.873)" style="fill:#222"/>
    <path data-name="패스 9543" d="M2437.639 1214.627a6.636 6.636 0 1 1-13.272 0z" transform="translate(-2172.344 -1040.843)" style="fill:#222"/>
    <path data-name="패스 9544" d="M-3160.558 6252.775v-10.6" transform="translate(3419.557 -6165.347)" style="stroke-linecap:round;stroke:#222;stroke-width:3px;fill:none"/>
    <path data-name="패스 9545" d="M0 10.6V0" transform="rotate(30 -13.211 563.714)" style="stroke-linecap:round;stroke:#222;stroke-width:3px;fill:none"/>
    <path data-name="패스 9546" d="M0 0v10.6" transform="rotate(150 109.373 78.238)" style="stroke-linecap:round;stroke:#222;stroke-width:3px;fill:none"/>
    <path data-name="패스 9552" d="M-3069.971 6235.861s7.287 1.361 11.385 10.43" transform="rotate(5 68813.517 41372.854)" style="stroke-linecap:round;stroke:#222;stroke-width:3px;fill:none"/>
    <g>
        <g data-name="그룹 630749">
            <g data-name="그룹 630748">
                <g data-name="그룹 630747">
                    <path data-name="패스 9534" d="M310.306 724.071h-10.9c-21.493 0-32.937-20.943-22.8-38.533a38.287 38.287 0 0 1 6.038-8.285c3.381-3.337 7.374-6.413 10.009-10.517h25.417a44.038 44.038 0 0 0 8.341 9.014 37.737 37.737 0 0 1 7.713 9.788c10.131 17.59-1.308 38.533-22.795 38.533h-10.907" transform="translate(19.464 -492.611)" style="fill:#fff"/>
                </g>
                <path data-name="패스 9535" d="m312.156 674.573 7.786-12.537a3.448 3.448 0 0 0-3.451-3.445h-12.034l-4.864 6.654-4.457-6.654h-12.443a3.446 3.446 0 0 0-3.447 3.445l7.782 12.537" transform="translate(25.81 -500.902)" style="fill:#e5a067"/>
            </g>
        </g>
        <g data-name="그룹 630752">
            <path data-name="패스 9536" d="M310.306 724.071h-10.9c-21.493 0-32.937-20.943-22.8-38.533a38.287 38.287 0 0 1 6.038-8.285c3.381-3.337 7.374-6.413 10.009-10.517h25.417a44.038 44.038 0 0 0 8.341 9.014 37.737 37.737 0 0 1 7.713 9.788c10.131 17.59-1.308 38.533-22.795 38.533h-10.907" transform="translate(19.473 -492.811)" style="fill:#e5a067;stroke-linejoin:round;stroke-linecap:round;stroke:#222;stroke-width:3px"/>
            <path data-name="패스 9537" d="m312.156 674.573 7.786-12.537a3.448 3.448 0 0 0-3.451-3.445h-12.034l-4.743 5.121-4.578-5.121h-12.443a3.446 3.446 0 0 0-3.447 3.445l7.782 12.537" transform="translate(25.81 -500.902)" style="stroke-linejoin:round;stroke-linecap:round;stroke:#222;stroke-width:3px;fill:none"/>
            <g data-name="사각형 464762" transform="translate(307.577 169)" style="fill:#fff;stroke:#222;stroke-width:3px">
                <rect width="35" height="9" rx="4" style="stroke:none"/>
                <rect x="1.5" y="1.5" width="32" height="6" rx="2.5" style="fill:none"/>
            </g>
        </g>
        <g data-name="그룹 972">
            <path data-name="패스 1660" d="m331.491 176.659 4.988 13.078a1.168 1.168 0 0 0 2.216-.1l3.613-12.679a1.169 1.169 0 0 1 2.242-.021l3.852 12.617a1.169 1.169 0 0 0 2.224.036l4.405-12.935" transform="translate(-18.905 20.011)" style="stroke-linejoin:round;stroke-linecap:round;stroke:#222;stroke-width:3px;fill:none"/>
            <path data-name="선 394" transform="translate(310.331 202.702)" style="stroke-linejoin:round;stroke-linecap:round;stroke:#222;stroke-width:3px;fill:none" d="M0 0h28.05"/>
        </g>
    </g>
    <g>
        <path data-name="패스 9529" d="M11.909 0s12.123 14.06 12.123 28.119-12.123 28.12-12.123 28.12S0 43.43 0 29.37 11.909 0 11.909 0z" transform="rotate(61 -20.872 201.213)" style="fill:#7dd3cf"/>
        <g data-name="그룹 630744">
            <g data-name="패스 9523" style="fill:#e5a067">
                <path d="M62.666 64.44H16.507a6.42 6.42 0 0 1-6.413-6.412v-.085l-.01-.084L3.68 1.5h71.813l-6.405 56.359-.01.084v.085a6.42 6.42 0 0 1-6.412 6.413z" style="stroke:none" transform="translate(85.101 163.184)"/>
                <path d="m5.36 3 6.234 54.858v.17a4.918 4.918 0 0 0 4.913 4.913h46.159a4.918 4.918 0 0 0 4.913-4.913v-.17L73.812 3H5.36M2 0h75.173l-6.594 58.028a7.913 7.913 0 0 1-7.913 7.913H16.507a7.913 7.913 0 0 1-7.913-7.913L2 0z" style="fill:#222;stroke:none" transform="translate(85.101 163.184)"/>
            </g>
            <g data-name="사각형 462579" transform="translate(84.233 154.976)" style="fill:#e89b46;stroke:#222;stroke-width:3px">
                <rect width="80.227" height="17.018" rx="3" style="stroke:none"/>
                <rect x="1.5" y="1.5" width="77.227" height="14.018" rx="1.5" style="fill:none"/>
            </g>
        </g>
        <path data-name="패스 9531" d="M11.909 0s12.123 14.537 12.123 29.075S11.909 58.15 11.909 58.15 0 44.906 0 30.368 11.909 0 11.909 0z" transform="rotate(122 25.387 109.074)" style="fill:#7dd3cf"/>
        <g data-name="그룹 630759">
            <path data-name="패스 9530" d="M0 0h3.956v94H0z" transform="translate(122.709 63.335)" style="fill:#222"/>
            <path data-name="패스 9525" d="M0 16.576 17.457 0" transform="rotate(2 -3263.38 3628.063)" style="stroke:#222;stroke-width:3px;fill:none"/>
            <path data-name="패스 9526" d="m-2938.723 6235.3-19.759-15.5" transform="translate(3063.41 -6118.857)" style="stroke:#222;stroke-width:3px;fill:none"/>
            <g data-name="그룹 630739">
                <g data-name="타원 1204" transform="translate(98.82 17.943)" style="fill:#fcf28d;stroke:#222;stroke-width:3px">
                    <circle cx="26.742" cy="26.742" r="26.742" style="stroke:none"/>
                    <circle cx="26.742" cy="26.742" r="25.242" style="fill:none"/>
                </g>
                <path data-name="패스 9527" d="M399.612 793.4a8.814 8.814 0 0 0-3.938-2.267l-2.352-.756a2.687 2.687 0 0 1-1.131-.6.769.769 0 0 1-.2-.657.754.754 0 0 1 .378-.694 5.429 5.429 0 0 1 3.314-.2 8.667 8.667 0 0 1 1.546.5 1.586 1.586 0 0 0 1.365-.063 1.544 1.544 0 0 0 .734-.763l1.122-2.385-.837-.457a12.976 12.976 0 0 0-1.9-.839 8.623 8.623 0 0 0-1.411-.374v-2.778h-4.984v2.868a7.567 7.567 0 0 0-1.138.386 5.657 5.657 0 0 0-1.678 1.1 5.089 5.089 0 0 0-1.147 1.632 5.559 5.559 0 0 0-.076 4.048 4.677 4.677 0 0 0 1.018 1.555 5.939 5.939 0 0 0 1.557 1.118 13.637 13.637 0 0 0 1.927.8l2.429.791a2.986 2.986 0 0 1 1.381.789 1.48 1.48 0 0 1 .277 1.055 1.144 1.144 0 0 1-.144.54 1.341 1.341 0 0 1-.4.45 2.6 2.6 0 0 1-.712.358 6.754 6.754 0 0 1-3.453-.155 14.013 14.013 0 0 1-2.245-.789l-.9-.4-1.223 2.5a1.76 1.76 0 0 0-.151 1.311 1.567 1.567 0 0 0 .854.964 12.1 12.1 0 0 0 2.25.786c.491.114 1.018.212 1.568.284v2.735h3.377a1.5 1.5 0 0 0 1.606-1.564v-1.346a6.689 6.689 0 0 0 3-1.64 5.643 5.643 0 0 0 1.63-4 5.321 5.321 0 0 0-1.313-3.843z" transform="translate(-267.824 -748.07)" style="fill:#222"/>
            </g>
            <g data-name="그룹 630740">
                <g data-name="타원 1204" transform="translate(66 68.996)" style="fill:#fff;stroke:#222;stroke-width:3px">
                    <circle cx="22.488" cy="22.488" r="22.488" style="stroke:none"/>
                    <circle cx="22.488" cy="22.488" r="20.988" style="fill:none"/>
                </g>
                <path data-name="패스 9527" d="M397.593 791.494a7.45 7.45 0 0 0-3.328-1.916l-1.987-.639a2.27 2.27 0 0 1-.956-.511.65.65 0 0 1-.17-.555.637.637 0 0 1 .32-.586 4.588 4.588 0 0 1 2.8-.165 7.323 7.323 0 0 1 1.306.424 1.34 1.34 0 0 0 1.154-.053 1.305 1.305 0 0 0 .62-.645l.948-2.016-.708-.387a10.96 10.96 0 0 0-1.607-.709 7.286 7.286 0 0 0-1.193-.316v-2.348h-4.212v2.428a6.4 6.4 0 0 0-.962.326 4.784 4.784 0 0 0-1.419.926 4.3 4.3 0 0 0-.97 1.38 4.7 4.7 0 0 0-.064 3.422 3.951 3.951 0 0 0 .86 1.314 5.019 5.019 0 0 0 1.316.945 11.528 11.528 0 0 0 1.629.677l2.053.669a2.524 2.524 0 0 1 1.167.667 1.251 1.251 0 0 1 .234.892.969.969 0 0 1-.122.457 1.132 1.132 0 0 1-.335.38 2.2 2.2 0 0 1-.6.3 5.707 5.707 0 0 1-2.918-.131 11.831 11.831 0 0 1-1.9-.667l-.759-.341-1.034 2.111a1.487 1.487 0 0 0-.128 1.108 1.324 1.324 0 0 0 .722.815 10.22 10.22 0 0 0 1.9.664c.415.1.86.179 1.325.24v2.312h2.854a1.268 1.268 0 0 0 1.358-1.322V799.5a5.654 5.654 0 0 0 2.533-1.386 4.77 4.77 0 0 0 1.378-3.383 4.5 4.5 0 0 0-1.105-3.237z" transform="translate(-303.857 -700.202)" style="fill:#222"/>
            </g>
            <g data-name="그룹 630741">
                <g data-name="타원 1204" transform="translate(66 68.996)" style="fill:#fcf28d;stroke:#222;stroke-width:3px">
                    <circle cx="22.488" cy="22.488" r="22.488" style="stroke:none"/>
                    <circle cx="22.488" cy="22.488" r="20.988" style="fill:none"/>
                </g>
                <path data-name="패스 9527" d="M397.593 791.494a7.45 7.45 0 0 0-3.328-1.916l-1.987-.639a2.27 2.27 0 0 1-.956-.511.65.65 0 0 1-.17-.555.637.637 0 0 1 .32-.586 4.588 4.588 0 0 1 2.8-.165 7.323 7.323 0 0 1 1.306.424 1.34 1.34 0 0 0 1.154-.053 1.305 1.305 0 0 0 .62-.645l.948-2.016-.708-.387a10.96 10.96 0 0 0-1.607-.709 7.286 7.286 0 0 0-1.193-.316v-2.348h-4.212v2.428a6.4 6.4 0 0 0-.962.326 4.784 4.784 0 0 0-1.419.926 4.3 4.3 0 0 0-.97 1.38 4.7 4.7 0 0 0-.064 3.422 3.951 3.951 0 0 0 .86 1.314 5.019 5.019 0 0 0 1.316.945 11.528 11.528 0 0 0 1.629.677l2.053.669a2.524 2.524 0 0 1 1.167.667 1.251 1.251 0 0 1 .234.892.969.969 0 0 1-.122.457 1.132 1.132 0 0 1-.335.38 2.2 2.2 0 0 1-.6.3 5.707 5.707 0 0 1-2.918-.131 11.831 11.831 0 0 1-1.9-.667l-.759-.341-1.034 2.111a1.487 1.487 0 0 0-.128 1.108 1.324 1.324 0 0 0 .722.815 10.22 10.22 0 0 0 1.9.664c.415.1.86.179 1.325.24v2.312h2.854a1.268 1.268 0 0 0 1.358-1.322V799.5a5.654 5.654 0 0 0 2.533-1.386 4.77 4.77 0 0 0 1.378-3.383 4.5 4.5 0 0 0-1.105-3.237z" transform="translate(-303.857 -700.202)" style="fill:#222"/>
            </g>
            <g data-name="그룹 630742">
                <g data-name="타원 1204" transform="translate(136.856 84.084)" style="fill:#fcf28d;stroke:#222;stroke-width:3px">
                    <circle cx="19.453" cy="19.453" r="19.453" style="stroke:none"/>
                    <circle cx="19.453" cy="19.453" r="17.953" style="fill:none"/>
                </g>
                <path data-name="패스 9527" d="M396.107 790.088a6.445 6.445 0 0 0-2.879-1.657l-1.719-.553a1.964 1.964 0 0 1-.827-.442.562.562 0 0 1-.147-.48.552.552 0 0 1 .276-.507 3.97 3.97 0 0 1 2.423-.143 6.337 6.337 0 0 1 1.13.367 1.159 1.159 0 0 0 1-.046 1.129 1.129 0 0 0 .537-.558l.82-1.743-.612-.334a9.475 9.475 0 0 0-1.39-.614 6.3 6.3 0 0 0-1.032-.274v-2.031h-3.643v2.1a5.538 5.538 0 0 0-.832.282 4.138 4.138 0 0 0-1.227.8 3.72 3.72 0 0 0-.839 1.193 4.063 4.063 0 0 0-.055 2.96 3.417 3.417 0 0 0 .744 1.137 4.341 4.341 0 0 0 1.138.817 9.978 9.978 0 0 0 1.409.585l1.776.579a2.183 2.183 0 0 1 1.01.577 1.082 1.082 0 0 1 .2.771.838.838 0 0 1-.105.4.978.978 0 0 1-.29.329 1.9 1.9 0 0 1-.521.262 4.936 4.936 0 0 1-2.524-.113 10.234 10.234 0 0 1-1.641-.577l-.657-.3-.894 1.826a1.286 1.286 0 0 0-.111.959 1.145 1.145 0 0 0 .624.705 8.842 8.842 0 0 0 1.645.574c.359.084.744.155 1.146.208v2h2.469a1.1 1.1 0 0 0 1.176-1.147v-.984a4.891 4.891 0 0 0 2.191-1.2 4.126 4.126 0 0 0 1.192-2.926 3.89 3.89 0 0 0-.961-2.802z" transform="translate(-234.908 -686.606)" style="fill:#222"/>
            </g>
        </g>
    </g>
</svg>
