<svg xmlns="http://www.w3.org/2000/svg" width="444" height="220.001" viewBox="0 0 444 220.001">
  <defs>
    <style>
      .cls-1 {
        fill: rgba(255,191,191,0.5);
        opacity: 0;
      }

      .cls-2 {
        fill: #dcf5fb;
      }

      .cls-3 {
        fill: #e4ffe1;
      }

      .cls-10, .cls-4 {
        fill: #fff;
      }

      .cls-12, .cls-4, .cls-7, .cls-8 {
        stroke: #222;
        stroke-width: 3px;
      }

      .cls-4, .cls-7, .cls-8 {
        stroke-linecap: round;
        stroke-linejoin: round;
      }

      .cls-5 {
        fill: #f2ac58;
      }

      .cls-6 {
        fill: #222;
      }

      .cls-7 {
        fill: none;
      }

      .cls-8, .cls-9 {
        fill: #f0f2f5;
      }

      .cls-11 {
        fill: #afdae9;
      }

      .cls-12 {
        fill: #fcf28d;
        stroke-miterlimit: 10;
      }
    </style>
  </defs>
  <g id="SWKDIFDT0100_2" transform="translate(39 32.282)">
    <g id="deco">
      <rect id="BG" class="cls-1" width="444" height="220" transform="translate(-39 -32.282)"/>
      <circle id="Ellipse_2" data-name="Ellipse 2" class="cls-2" cx="53.5" cy="53.5" r="53.5" transform="translate(-27 -12.282)"/>
      <circle id="Ellipse_2-2" data-name="Ellipse 2" class="cls-3" cx="19.75" cy="19.75" r="19.75" transform="translate(336 -32.282)"/>
    </g>
    <g id="img" transform="translate(-1553.944 -2159.059)">
      <g id="그룹_1059" data-name="그룹 1059">
        <g id="그룹_1057" data-name="그룹 1057">
          <path id="패스_1789" data-name="패스 1789" class="cls-4" d="M1591.591,2322.935v-54.023h-30.718a2,2,0,0,1-1.447-3.38l74.678-78.279a3,3,0,0,1,4.341,0l71.771,75.231a3.8,3.8,0,0,1-2.752,6.428h-26.509v54.273c0,2.1-1.161,0-3.261,0"/>
        </g>
        <circle id="타원_87" data-name="타원 87" class="cls-5" cx="31.021" cy="31.021" r="31.021" transform="translate(1605.227 2237.638)"/>
        <g id="그룹_1058" data-name="그룹 1058">
          <path id="패스_1790" data-name="패스 1790" class="cls-6" d="M1618.964,2261.256a3.635,3.635,0,0,1-1.832-.405,1.588,1.588,0,0,1-.7-1.505,1.621,1.621,0,0,1,.7-1.519,3.531,3.531,0,0,1,1.832-.42h9.055a3.853,3.853,0,0,1,1.98.451,1.758,1.758,0,0,1,.759,1.648,2.319,2.319,0,0,1-.8,1.838l-5.57,4.869c.238-.058.486-.107.744-.145a5.365,5.365,0,0,1,.8-.059,6.679,6.679,0,0,1,2.458.438,5.521,5.521,0,0,1,1.906,1.224,5.577,5.577,0,0,1,1.236,1.91,6.609,6.609,0,0,1,.447,2.465,7.3,7.3,0,0,1-.655,3.178,6.828,6.828,0,0,1-1.787,2.318,7.672,7.672,0,0,1-2.681,1.429,11.321,11.321,0,0,1-3.365.481q-.894,0-1.833-.087a12.845,12.845,0,0,1-1.831-.306,9.23,9.23,0,0,1-1.728-.613,6.22,6.22,0,0,1-1.489-.977,2.2,2.2,0,0,1-.789-1.327,1.968,1.968,0,0,1,.372-1.5,2.021,2.021,0,0,1,1.355-.817,1.938,1.938,0,0,1,1.415.292,7.469,7.469,0,0,0,2.19.992,9.388,9.388,0,0,0,2.367.291,4.483,4.483,0,0,0,2.74-.773,2.731,2.731,0,0,0,1.043-2.347,2.85,2.85,0,0,0-.417-1.561,3.078,3.078,0,0,0-1.132-1.05,5.526,5.526,0,0,0-1.683-.567,8.933,8.933,0,0,0-2.07-.118l-2.174.088a1.449,1.449,0,0,1-1.578-1.522,1.971,1.971,0,0,1,.342-1.215,5.541,5.541,0,0,1,.819-.863l4.646-4.215Z"/>
          <path id="패스_1791" data-name="패스 1791" class="cls-6" d="M1651.029,2257.728a1.93,1.93,0,0,1,.669-1.575,2.92,2.92,0,0,1,3.426,0,1.928,1.928,0,0,1,.67,1.575v10.351a1.927,1.927,0,0,1-.67,1.575,2.919,2.919,0,0,1-3.426,0,1.943,1.943,0,0,1-.669-1.583v-3.4h-3.813a6.129,6.129,0,0,1-2.517,3.725,8.244,8.244,0,0,1-4.78,1.32,9.653,9.653,0,0,1-3.067-.467,6.747,6.747,0,0,1-2.4-1.356,6.107,6.107,0,0,1-1.549-2.158,7.875,7.875,0,0,1,0-5.788,6.084,6.084,0,0,1,1.549-2.173,6.744,6.744,0,0,1,2.4-1.355,9.646,9.646,0,0,1,3.067-.467,8.454,8.454,0,0,1,4.736,1.268,5.889,5.889,0,0,1,2.532,3.6h3.842Zm0,18.108a.286.286,0,0,0-.328-.32h-12.747a2.209,2.209,0,0,1-1.46-.5,2.011,2.011,0,0,1,0-2.858,2.208,2.208,0,0,1,1.46-.5h15.189a3.005,3.005,0,0,1,2.055.553,2.65,2.65,0,0,1,.6,1.983v6.328a1.929,1.929,0,0,1-.67,1.575,2.926,2.926,0,0,1-3.426,0,1.931,1.931,0,0,1-.669-1.575Zm-8.132-13a3.879,3.879,0,0,0-.729-2.435,3.14,3.14,0,0,0-4.5,0,4.426,4.426,0,0,0,0,4.87,3.143,3.143,0,0,0,4.5,0A3.881,3.881,0,0,0,1642.9,2262.831Z"/>
        </g>
      </g>
      <line id="선_533" data-name="선 533" class="cls-7" x2="360" transform="translate(1557.444 2322.876)"/>
      <g id="그룹_1070" data-name="그룹 1070">
        <g id="그룹_1061" data-name="그룹 1061">
          <path id="패스_1792" data-name="패스 1792" class="cls-8" d="M1742.1,2165.277h-35.183c-8.114,0-14.78,6.892-14.78,15.3s6.666,15.306,14.78,15.306H1742.1Z"/>
          <g id="그룹_1060" data-name="그룹 1060">
            <path id="패스_1793" data-name="패스 1793" class="cls-4" d="M1709.387,2195.888c-10.9,0-16.529-7.17-17.253-15.306v123.7c0,21.353,23.815,19.216,23.815,19.216h178.412V2211.525a15.637,15.637,0,0,0-15.638-15.637H1709.387Z"/>
          </g>
        </g>
        <g id="그룹_1064" data-name="그룹 1064">
          <g id="그룹_1062" data-name="그룹 1062">
            <rect id="사각형_435" data-name="사각형 435" class="cls-9" width="99" height="4.5" transform="translate(1722.461 2272.413)"/>
            <rect id="사각형_436" data-name="사각형 436" class="cls-9" width="60.75" height="4.5" transform="translate(1722.359 2285.819)"/>
            <rect id="사각형_437" data-name="사각형 437" class="cls-9" width="78.75" height="4.5" transform="translate(1722.233 2299.225)"/>
          </g>
          <g id="그룹_1063" data-name="그룹 1063">
            <rect id="사각형_438" data-name="사각형 438" class="cls-9" width="13.5" height="13.5" transform="translate(1843.618 2249.735) rotate(180)"/>
            <rect id="사각형_439" data-name="사각형 439" class="cls-9" width="13.5" height="13.5" transform="translate(1822.758 2249.735) rotate(180)"/>
            <rect id="사각형_440" data-name="사각형 440" class="cls-9" width="13.5" height="13.5" transform="translate(1801.898 2249.735) rotate(180)"/>
          </g>
        </g>
        <g id="그룹_1065" data-name="그룹 1065">
          <path id="패스_1794" data-name="패스 1794" class="cls-8" d="M1894.361,2329.639V2212.684a15.637,15.637,0,0,1-15.638,15.637H1858.4v116.956h20.327A15.638,15.638,0,0,0,1894.361,2329.639Z"/>
        </g>
        <g id="그룹_1066" data-name="그룹 1066">
          <path id="패스_1795" data-name="패스 1795" class="cls-4" d="M1704.207,2308.933l-7.894-1.973c-7.809-1.952-13.242,2.689-16.055,5.353a31.916,31.916,0,0,1-6.373,4.725l-7.385,3.255a3.1,3.1,0,0,0-.192,5.3l8.385,4.491a32.29,32.29,0,0,1,4.843,3.826c2.916,2.84,8.3,7.73,16.3,6.043l8.371-1.765"/>
          <path id="패스_1796" data-name="패스 1796" class="cls-10" d="M1704.207,2308.764h73.17a3.245,3.245,0,0,1,3.235,3.235v22.787a3.245,3.245,0,0,1-3.235,3.235h-73.17Z"/>
          <path id="패스_1797" data-name="패스 1797" class="cls-11" d="M1704.207,2308.764h5.67a3.245,3.245,0,0,1,3.235,3.235v22.787a3.245,3.245,0,0,1-3.235,3.235h-5.67Z"/>
          <path id="패스_1798" data-name="패스 1798" class="cls-11" d="M1762.707,2308.764h14.67a3.245,3.245,0,0,1,3.235,3.235v22.787a3.245,3.245,0,0,1-3.235,3.235h-14.67Z"/>
          <path id="패스_1799" data-name="패스 1799" class="cls-7" d="M1704.207,2308.764h73.17a3.245,3.245,0,0,1,3.235,3.235v22.787a3.245,3.245,0,0,1-3.235,3.235h-73.17Z"/>
          <line id="선_534" data-name="선 534" class="cls-4" y1="29.257" transform="translate(1713.514 2308.764)"/>
          <line id="선_535" data-name="선 535" class="cls-4" x1="22.677" transform="translate(1666.17 2323.134)"/>
          <path id="패스_1800" data-name="패스 1800" class="cls-4" d="M1691.045,2321.393a1.552,1.552,0,1,0,1.552,1.551A1.552,1.552,0,0,0,1691.045,2321.393Z"/>
          <line id="선_536" data-name="선 536" class="cls-7" y1="28.137" transform="translate(1763.262 2309.153)"/>
        </g>
        <g id="그룹_1068" data-name="그룹 1068">
          <circle id="타원_88" data-name="타원 88" class="cls-12" cx="21" cy="21" r="21" transform="translate(1723.977 2218.12)"/>
          <g id="그룹_1067" data-name="그룹 1067">
            <path id="패스_1801" data-name="패스 1801" class="cls-7" d="M1734.907,2234.62l4.267,11.189a1,1,0,0,0,1.9-.082l3.092-10.848a1,1,0,0,1,1.918-.018l3.3,10.8a1,1,0,0,0,1.9.03l3.769-11.067"/>
            <line id="선_537" data-name="선 537" class="cls-7" x2="24" transform="translate(1732.977 2239.781)"/>
          </g>
        </g>
      </g>
    </g>
  </g>
</svg>
