<svg xmlns="http://www.w3.org/2000/svg" width="444" height="210" viewBox="0 0 444 210">
    <defs>
        <clipPath id="mm0phcfyoa">
            <path data-name="사각형 463093" d="M22.646 0a7.549 7.549 0 0 1 7.549 7.549v21.306a7.549 7.549 0 0 1-7.549 7.545H7.549A7.549 7.549 0 0 1 0 28.855v-6.209A22.646 22.646 0 0 1 22.646 0z" transform="translate(0 2)" style="stroke:#222;stroke-width:3px;fill:#3bc9cc"/>
        </clipPath>
    </defs>
    <g data-name="합치기 44" style="fill:#e4e4e4">
        <path d="M102.06 53.054H5.684A4.187 4.187 0 0 1 1.5 48.87c0-4.153 1.617-8.058 4.554-10.994a15.446 15.446 0 0 1 10.994-4.554h4.339l.273-1.155a39.562 39.562 0 0 1 5.163-12.208 39.988 39.988 0 0 1 8.727-9.72 39.714 39.714 0 0 1 11.48-6.421A39.766 39.766 0 0 1 60.465 1.5h6.364a39.62 39.62 0 0 1 15.519 3.133 39.74 39.74 0 0 1 12.673 8.545 39.738 39.738 0 0 1 8.545 12.673 39.618 39.618 0 0 1 3.133 15.518c0 .99-.108 2.394-.2 3.403l-.255.014v4.085a4.187 4.187 0 0 1-4.182 4.183z" style="stroke:none" transform="translate(49 97.585)"/>
        <path d="M102.06 51.554a2.686 2.686 0 0 0 2.683-2.683v-5.506l.366-.02c.051-.71.089-1.427.089-1.976A38.246 38.246 0 0 0 93.96 14.238 38.246 38.246 0 0 0 66.828 3h-6.364c-4.44 0-8.79.75-12.928 2.231-4 1.431-7.717 3.51-11.048 6.18a38.49 38.49 0 0 0-8.4 9.356 38.065 38.065 0 0 0-4.968 11.746l-.546 2.31h-5.526c-3.752 0-7.28 1.461-9.933 4.114A13.956 13.956 0 0 0 3 48.871a2.686 2.686 0 0 0 2.683 2.683h96.378m0 3H5.683A5.683 5.683 0 0 1 0 48.87c0-9.416 7.633-17.048 17.048-17.048H20.2C24.51 13.578 40.901 0 60.464 0h6.364c22.848 0 41.37 18.522 41.37 41.37 0 1.805-.334 4.83-.334 4.83l-.12.007v2.664a5.683 5.683 0 0 1-5.683 5.683z" style="fill:#e4e4e4;stroke:none" transform="translate(49 97.585)"/>
    </g>
    <g data-name="그룹 631494">
        <path data-name="빼기 4" d="M71.777 22.843H0A35.549 35.549 0 0 1 33.237 0h5.3a35.629 35.629 0 0 1 33.24 22.842z" transform="translate(76.529 103.837)" style="fill:#fff"/>
        <path data-name="사각형 463089" transform="translate(109.463 102.586)" style="fill:#e4e4e4" d="M0 0h6.365v26.822H0z"/>
    </g>
    <path data-name="패스 11673" d="M3.125 0h1.648a3.41 3.41 0 1 1 0 6.819H-.966A27.081 27.081 0 0 1 .487 2.28C1.32.513 1.87 0 3.125 0z" transform="translate(50.11 137.136)" style="fill:#727272"/>
    <g data-name="그룹 631497" transform="translate(69.23 136)">
        <circle data-name="타원 596" cx="13.199" cy="13.199" r="13.199" style="fill:#727272"/>
        <circle data-name="타원 597" cx="5.323" cy="5.323" r="5.323" transform="translate(7.728 7.728)" style="fill:#fff"/>
    </g>
    <g data-name="그룹 631498" transform="translate(120.909 136)">
        <circle data-name="타원 596" cx="13.199" cy="13.199" r="13.199" style="fill:#727272"/>
        <circle data-name="타원 597" cx="5.323" cy="5.323" r="5.323" transform="translate(7.876 7.728)" style="fill:#fff"/>
    </g>
    <path data-name="사각형 463091" d="M4.546 0H5v9.092h-.454A4.546 4.546 0 0 1 0 4.546 4.546 4.546 0 0 1 4.546 0z" transform="translate(152.197 136)" style="fill:#727272"/>
    <g data-name="car">
        <g data-name="합치기 44" style="fill:#e4e4e4">
            <path d="M102.06 53.054H5.684A4.187 4.187 0 0 1 1.5 48.87c0-4.153 1.617-8.058 4.554-10.994a15.446 15.446 0 0 1 10.994-4.554h4.339l.273-1.155a39.562 39.562 0 0 1 5.163-12.208 39.988 39.988 0 0 1 8.727-9.72 39.714 39.714 0 0 1 11.48-6.421A39.766 39.766 0 0 1 60.465 1.5h6.364a39.62 39.62 0 0 1 15.519 3.133 39.74 39.74 0 0 1 12.673 8.545 39.738 39.738 0 0 1 8.545 12.673 39.618 39.618 0 0 1 3.133 15.518c0 .99-.108 2.394-.2 3.403l-.255.014v4.085a4.187 4.187 0 0 1-4.182 4.183z" style="stroke:none" transform="translate(285.933 97.585)"/>
            <path d="M102.06 51.554a2.686 2.686 0 0 0 2.683-2.683v-5.506l.366-.02c.051-.71.089-1.427.089-1.976A38.246 38.246 0 0 0 93.96 14.238 38.246 38.246 0 0 0 66.828 3h-6.364c-4.44 0-8.79.75-12.928 2.231-4 1.431-7.717 3.51-11.048 6.18a38.49 38.49 0 0 0-8.4 9.356 38.065 38.065 0 0 0-4.968 11.746l-.546 2.31h-5.526c-3.752 0-7.28 1.461-9.933 4.114A13.956 13.956 0 0 0 3 48.871a2.686 2.686 0 0 0 2.683 2.683h96.378m0 3H5.683A5.683 5.683 0 0 1 0 48.87c0-9.416 7.633-17.048 17.048-17.048H20.2C24.51 13.578 40.901 0 60.464 0h6.364c22.848 0 41.37 18.522 41.37 41.37 0 1.805-.334 4.83-.334 4.83l-.12.007v2.664a5.683 5.683 0 0 1-5.683 5.683z" style="fill:#e4e4e4;stroke:none" transform="translate(285.933 97.585)"/>
        </g>
        <g data-name="그룹 631494">
            <path data-name="빼기 4" d="M71.777 22.843H0A35.549 35.549 0 0 1 33.237 0h5.3a35.629 35.629 0 0 1 33.24 22.842z" transform="translate(313.462 103.837)" style="fill:#fff"/>
            <path data-name="사각형 463089" transform="translate(346.396 102.586)" style="fill:#e4e4e4" d="M0 0h6.365v26.822H0z"/>
        </g>
        <path data-name="패스 11673" d="M3.125 0h1.648a3.41 3.41 0 1 1 0 6.819H-.966A27.081 27.081 0 0 1 .487 2.28C1.32.513 1.87 0 3.125 0z" transform="translate(287.043 137.136)" style="fill:#727272"/>
        <g data-name="그룹 631497" transform="translate(306.163 136)">
            <circle data-name="타원 596" cx="13.199" cy="13.199" r="13.199" style="fill:#727272"/>
            <circle data-name="타원 597" cx="5.323" cy="5.323" r="5.323" transform="translate(7.728 7.728)" style="fill:#fff"/>
        </g>
        <g data-name="그룹 631498" transform="translate(357.842 136)">
            <circle data-name="타원 596" cx="13.199" cy="13.199" r="13.199" style="fill:#727272"/>
            <circle data-name="타원 597" cx="5.323" cy="5.323" r="5.323" transform="translate(7.876 7.728)" style="fill:#fff"/>
        </g>
        <path data-name="사각형 463091" d="M4.546 0H5v9.092h-.454A4.546 4.546 0 0 1 0 4.546 4.546 4.546 0 0 1 4.546 0z" transform="translate(389.13 136)" style="fill:#727272"/>
    </g>
    <g data-name="car">
        <g data-name="합치기 44" style="fill:#e4e4e4">
            <path d="M102.06 53.054H5.684A4.187 4.187 0 0 1 1.5 48.87c0-4.153 1.617-8.058 4.554-10.994a15.446 15.446 0 0 1 10.994-4.554h4.339l.273-1.155a39.562 39.562 0 0 1 5.163-12.208 39.988 39.988 0 0 1 8.727-9.72 39.714 39.714 0 0 1 11.48-6.421A39.766 39.766 0 0 1 60.465 1.5h6.364a39.62 39.62 0 0 1 15.519 3.133 39.74 39.74 0 0 1 12.673 8.545 39.738 39.738 0 0 1 8.545 12.673 39.618 39.618 0 0 1 3.133 15.518c0 .99-.108 2.394-.2 3.403l-.255.014v4.085a4.187 4.187 0 0 1-4.182 4.183z" style="stroke:none" transform="translate(232 .509)"/>
            <path d="M102.06 51.554a2.686 2.686 0 0 0 2.683-2.683v-5.506l.366-.02c.051-.71.089-1.427.089-1.976A38.246 38.246 0 0 0 93.96 14.238 38.246 38.246 0 0 0 66.828 3h-6.364c-4.44 0-8.79.75-12.928 2.231-4 1.431-7.717 3.51-11.048 6.18a38.49 38.49 0 0 0-8.4 9.356 38.065 38.065 0 0 0-4.968 11.746l-.546 2.31h-5.526c-3.752 0-7.28 1.461-9.933 4.114A13.956 13.956 0 0 0 3 48.871a2.686 2.686 0 0 0 2.683 2.683h96.378m0 3H5.683A5.683 5.683 0 0 1 0 48.87c0-9.416 7.633-17.048 17.048-17.048H20.2C24.51 13.578 40.901 0 60.464 0h6.364c22.848 0 41.37 18.522 41.37 41.37 0 1.805-.334 4.83-.334 4.83l-.12.007v2.664a5.683 5.683 0 0 1-5.683 5.683z" style="fill:#e4e4e4;stroke:none" transform="translate(232 .509)"/>
        </g>
        <g data-name="그룹 631494">
            <path data-name="빼기 4" d="M71.777 22.843H0A35.549 35.549 0 0 1 33.237 0h5.3a35.629 35.629 0 0 1 33.24 22.842z" transform="translate(259.529 6.761)" style="fill:#fff"/>
            <path data-name="사각형 463089" transform="translate(292.463 5.51)" style="fill:#e4e4e4" d="M0 0h6.365v26.822H0z"/>
        </g>
        <path data-name="패스 11673" d="M3.125 0h1.648a3.41 3.41 0 1 1 0 6.819H-.966A27.081 27.081 0 0 1 .487 2.28C1.32.513 1.87 0 3.125 0z" transform="translate(233.11 40.06)" style="fill:#727272"/>
        <g data-name="그룹 631497" transform="translate(252.23 38.924)">
            <circle data-name="타원 596" cx="13.199" cy="13.199" r="13.199" style="fill:#727272"/>
            <circle data-name="타원 597" cx="5.323" cy="5.323" r="5.323" transform="translate(7.728 7.728)" style="fill:#fff"/>
        </g>
        <g data-name="그룹 631498" transform="translate(303.909 38.924)">
            <circle data-name="타원 596" cx="13.199" cy="13.199" r="13.199" style="fill:#727272"/>
            <circle data-name="타원 597" cx="5.323" cy="5.323" r="5.323" transform="translate(7.876 7.728)" style="fill:#fff"/>
        </g>
        <path data-name="사각형 463091" d="M4.546 0H5v9.092h-.454A4.546 4.546 0 0 1 0 4.546 4.546 4.546 0 0 1 4.546 0z" transform="translate(335.197 38.924)" style="fill:#727272"/>
    </g>
    <g data-name="car">
        <g data-name="합치기 44" style="fill:#e4e4e4">
            <path d="M102.06 53.054H5.684A4.187 4.187 0 0 1 1.5 48.87c0-4.153 1.617-8.058 4.554-10.994a15.446 15.446 0 0 1 10.994-4.554h4.339l.273-1.155a39.562 39.562 0 0 1 5.163-12.208 39.988 39.988 0 0 1 8.727-9.72 39.714 39.714 0 0 1 11.48-6.421A39.766 39.766 0 0 1 60.465 1.5h6.364a39.62 39.62 0 0 1 15.519 3.133 39.74 39.74 0 0 1 12.673 8.545 39.738 39.738 0 0 1 8.545 12.673 39.618 39.618 0 0 1 3.133 15.518c0 .99-.108 2.394-.2 3.403l-.255.014v4.085a4.187 4.187 0 0 1-4.182 4.183z" style="stroke:none" transform="translate(103 .509)"/>
            <path d="M102.06 51.554a2.686 2.686 0 0 0 2.683-2.683v-5.506l.366-.02c.051-.71.089-1.427.089-1.976A38.246 38.246 0 0 0 93.96 14.238 38.246 38.246 0 0 0 66.828 3h-6.364c-4.44 0-8.79.75-12.928 2.231-4 1.431-7.717 3.51-11.048 6.18a38.49 38.49 0 0 0-8.4 9.356 38.065 38.065 0 0 0-4.968 11.746l-.546 2.31h-5.526c-3.752 0-7.28 1.461-9.933 4.114A13.956 13.956 0 0 0 3 48.871a2.686 2.686 0 0 0 2.683 2.683h96.378m0 3H5.683A5.683 5.683 0 0 1 0 48.87c0-9.416 7.633-17.048 17.048-17.048H20.2C24.51 13.578 40.901 0 60.464 0h6.364c22.848 0 41.37 18.522 41.37 41.37 0 1.805-.334 4.83-.334 4.83l-.12.007v2.664a5.683 5.683 0 0 1-5.683 5.683z" style="fill:#e4e4e4;stroke:none" transform="translate(103 .509)"/>
        </g>
        <g data-name="그룹 631494">
            <path data-name="빼기 4" d="M71.777 22.843H0A35.549 35.549 0 0 1 33.237 0h5.3a35.629 35.629 0 0 1 33.24 22.842z" transform="translate(130.529 6.761)" style="fill:#fff"/>
            <path data-name="사각형 463089" transform="translate(163.463 5.51)" style="fill:#e4e4e4" d="M0 0h6.365v26.822H0z"/>
        </g>
        <path data-name="패스 11673" d="M3.125 0h1.648a3.41 3.41 0 1 1 0 6.819H-.966A27.081 27.081 0 0 1 .487 2.28C1.32.513 1.87 0 3.125 0z" transform="translate(104.11 40.06)" style="fill:#727272"/>
        <g data-name="그룹 631497" transform="translate(123.23 38.924)">
            <circle data-name="타원 596" cx="13.199" cy="13.199" r="13.199" style="fill:#727272"/>
            <circle data-name="타원 597" cx="5.323" cy="5.323" r="5.323" transform="translate(7.728 7.728)" style="fill:#fff"/>
        </g>
        <g data-name="그룹 631498" transform="translate(174.909 38.924)">
            <circle data-name="타원 596" cx="13.199" cy="13.199" r="13.199" style="fill:#727272"/>
            <circle data-name="타원 597" cx="5.323" cy="5.323" r="5.323" transform="translate(7.876 7.728)" style="fill:#fff"/>
        </g>
        <path data-name="사각형 463091" d="M4.546 0H5v9.092h-.454A4.546 4.546 0 0 1 0 4.546 4.546 4.546 0 0 1 4.546 0z" transform="translate(206.197 38.924)" style="fill:#727272"/>
    </g>
    <g>
        <g data-name="합치기 44" style="fill:#7dd3cf">
            <path d="M174.031 90.668H8.001a6.507 6.507 0 0 1-6.501-6.5v-6.403a22.428 22.428 0 0 1 6.59-15.91A22.427 22.427 0 0 1 24 55.264h11.316l.273-1.156a67.872 67.872 0 0 1 8.857-20.944 68.587 68.587 0 0 1 14.97-16.672A68.125 68.125 0 0 1 79.11 5.478 68.217 68.217 0 0 1 102.153 1.5h10.753c8.286 0 16.383 1.465 24.067 4.354a68.144 68.144 0 0 1 20.321 12.004 68.49 68.49 0 0 1 14.99 18.07 67.772 67.772 0 0 1 8.066 22.54l.052.312.175.265c.692 1.05 1.058 2.17 1.058 3.238V83.71c0 1.65-.876 3.39-2.403 4.774-1.508 1.367-3.452 2.183-5.2 2.183z" style="stroke:none" transform="translate(119 98.649)"/>
            <path d="M174.031 89.168c2.91 0 6.104-2.856 6.104-5.457V62.283c0-.774-.28-1.608-.81-2.413l-.35-.529-.104-.624a66.276 66.276 0 0 0-7.888-22.043 66.996 66.996 0 0 0-14.663-17.675 66.649 66.649 0 0 0-19.875-11.741C128.931 4.433 121.011 3 112.905 3h-10.752a66.721 66.721 0 0 0-22.538 3.89 66.628 66.628 0 0 0-19.262 10.773 67.09 67.09 0 0 0-14.642 16.309 66.375 66.375 0 0 0-8.662 20.482l-.546 2.31H24a20.933 20.933 0 0 0-14.849 6.15A20.934 20.934 0 0 0 3 77.765v6.404c0 2.757 2.243 5 5 5h166.031m0 3H8.001a8 8 0 0 1-8.001-8v-6.404c0-13.255 10.745-24 24-24h10.13C41.41 22.938 69.101 0 102.152 0h10.753c34.624 0 63.368 25.174 68.923 58.22.814 1.235 1.306 2.632 1.306 4.063V83.71c0 4.418-4.686 8.457-9.104 8.457z" style="fill:#222;stroke:none" transform="translate(119 98.649)"/>
        </g>
        <g data-name="그룹 631494">
            <path data-name="빼기 4" d="M121.267 38.593H0A60.06 60.06 0 0 1 56.154 0h8.962a60.195 60.195 0 0 1 56.151 38.592z" transform="translate(165.511 109.212)" style="fill:#fff"/>
            <path data-name="사각형 463089" transform="translate(221.153 107.098)" style="fill:#7dd3cf" d="M0 0h10.753v45.316H0z"/>
        </g>
        <g data-name="마스크 그룹 626224" transform="translate(121.812 152.413)" style="clip-path:url(#mm0phcfyoa)">
            <g data-name="패스 11674" style="fill:#fec76f">
                <path d="M7.825 12.021H.166L1.479 4.25l.021-.124V4c0-1.378 1.121-2.5 2.5-2.5h3.825c2.481 0 4.5 2.019 4.5 4.5v1.521c0 2.481-2.019 4.5-4.5 4.5z" style="stroke:none" transform="translate(-.937 13.058)"/>
                <path d="M4 3c-.551 0-1 .449-1 1v.252L1.94 10.52h5.885c1.654 0 3-1.346 3-3V6c0-1.654-1.346-3-3-3H4m0-3h3.825a6 6 0 0 1 6 6v1.521a6 6 0 0 1-6 6h-9.434L0 4a4 4 0 0 1 4-4z" style="fill:#222;stroke:none" transform="translate(-.937 13.058)"/>
            </g>
        </g>
        <g data-name="그룹 631497" transform="translate(153.179 163.55)">
            <circle data-name="타원 596" cx="22.299" cy="22.299" r="22.299" style="stroke-miterlimit:10;fill:#727272;stroke:#222;stroke-width:3px"/>
            <circle data-name="타원 597" cx="8.993" cy="8.993" r="8.993" transform="translate(13.057 13.057)" style="fill:#fff"/>
        </g>
        <g data-name="그룹 631498" transform="translate(240.489 163.55)">
            <circle data-name="타원 596" cx="22.299" cy="22.299" r="22.299" style="stroke-miterlimit:10;fill:#727272;stroke:#222;stroke-width:3px"/>
            <circle data-name="타원 597" cx="8.993" cy="8.993" r="8.993" transform="translate(13.306 13.057)" style="fill:#fff"/>
        </g>
        <g data-name="패스 11671" style="fill:#e5570c">
            <path d="M7.949 13.861H6a4.505 4.505 0 0 1-4.5-4.5V6c0-2.481 2.019-4.5 4.5-4.5h1.949v12.361z" style="stroke:none" transform="translate(292.351 163.55)"/>
            <path d="M6 3C4.346 3 3 4.346 3 6v3.361c0 1.655 1.346 3 3 3h.449V3H6m0-3h3.449v15.361H6a6 6 0 0 1-6-6V6a6 6 0 0 1 6-6z" style="fill:#222;stroke:none" transform="translate(292.351 163.55)"/>
        </g>
    </g>
    <g transform="rotate(-66 212.851 -143.086)">
        <path data-name="패스 5735" d="M.4.4 0 23.193l30.752 30.836 23.129-23.192L23.129 0z" transform="translate(0 20.545)" style="stroke-linecap:round;stroke-linejoin:round;fill:#f59f75;stroke:#222;stroke-width:3px"/>
        <ellipse data-name="타원 675" cx="3.578" cy="3.587" rx="3.578" ry="3.587" transform="translate(7.743 27.738)" style="stroke-linecap:round;stroke-linejoin:round;fill:#fff;stroke:#222;stroke-width:3px"/>
        <path data-name="패스 5736" d="M0 1.969a15.617 15.617 0 0 1 23.208 13.694 15.641 15.641 0 0 1-15.62 15.662" transform="translate(3.732)" style="fill:none;stroke-linecap:round;stroke-linejoin:round;stroke:#222;stroke-width:3px"/>
    </g>
    <path data-name="선 2969" transform="translate(42 208.186)" style="fill:none;stroke-linecap:round;stroke-linejoin:round;stroke:#222;stroke-width:3px" d="M0 0h360"/>
</svg>
