<svg xmlns="http://www.w3.org/2000/svg" width="444" height="211" viewBox="0 0 444 211">
  <defs>
    <style>
      .cls-1 {
        fill: rgba(255,191,191,0.5);
        opacity: 0;
      }

      .cls-2 {
        fill: #dcf5fb;
      }

      .cls-3 {
        fill: #fbf0e3;
      }

      .cls-13, .cls-4, .cls-8 {
        fill: #fff;
      }

      .cls-10, .cls-11, .cls-12, .cls-14, .cls-4, .cls-8, .cls-9 {
        stroke: #222;
      }

      .cls-10, .cls-11, .cls-14, .cls-4, .cls-9 {
        stroke-linecap: round;
        stroke-linejoin: round;
      }

      .cls-10, .cls-12, .cls-14, .cls-4, .cls-8 {
        stroke-width: 3.004px;
      }

      .cls-14, .cls-5 {
        fill: #fcf28d;
      }

      .cls-6 {
        fill: #f2ac58;
      }

      .cls-7 {
        fill: #222;
      }

      .cls-12, .cls-8 {
        stroke-miterlimit: 10;
      }

      .cls-10, .cls-11, .cls-9 {
        fill: none;
      }

      .cls-9 {
        stroke-width: 3.016px;
      }

      .cls-11 {
        stroke-width: 2.991px;
      }

      .cls-12 {
        fill: #afdae9;
      }
    </style>
  </defs>
  <g id="SWKDIFDT4700_1" transform="translate(-436 -767)">
    <g id="deco">
      <rect id="BG" class="cls-1" width="444" height="211" transform="translate(436 767)"/>
      <circle id="Ellipse_2" data-name="Ellipse 2" class="cls-2" cx="53.5" cy="53.5" r="53.5" transform="translate(482 767)"/>
      <circle id="Ellipse_2-2" data-name="Ellipse 2" class="cls-3" cx="19.75" cy="19.75" r="19.75" transform="translate(830 834.949)"/>
    </g>
    <g id="img" transform="translate(385.305 728.549)">
      <g id="그룹_632163" data-name="그룹 632163">
        <g id="그룹_632158" data-name="그룹 632158">
          <path id="패스_11863" data-name="패스 11863" class="cls-4" d="M186.5,236.641V85.1a1.639,1.639,0,0,1,1.632-1.646h172.23A1.639,1.639,0,0,1,361.99,85.1V236.641"/>
          <g id="그룹_632157" data-name="그룹 632157">
            <path id="패스_11864" data-name="패스 11864" class="cls-5" d="M205.048,103.129v27.637a11.533,11.533,0,1,1-23.065,0V103.129Z"/>
            <path id="패스_11865" data-name="패스 11865" class="cls-6" d="M228.114,103.129v27.637a11.533,11.533,0,1,1-23.066,0V103.129Z"/>
            <path id="패스_11866" data-name="패스 11866" class="cls-6" d="M274.243,103.129v27.637a11.533,11.533,0,1,1-23.065,0V103.129Z"/>
            <path id="패스_11867" data-name="패스 11867" class="cls-5" d="M251.178,103.129v27.637a11.533,11.533,0,1,1-23.065,0V103.129Z"/>
            <path id="패스_11868" data-name="패스 11868" class="cls-6" d="M320.372,103.129v27.637a11.533,11.533,0,1,1-23.065,0V103.129Z"/>
            <path id="패스_11869" data-name="패스 11869" class="cls-5" d="M297.307,103.129v27.637a11.533,11.533,0,1,1-23.065,0V103.129Z"/>
            <path id="패스_11870" data-name="패스 11870" class="cls-6" d="M366.5,103.129v27.637a11.533,11.533,0,1,1-23.065,0V103.129Z"/>
            <path id="패스_11871" data-name="패스 11871" class="cls-5" d="M343.436,103.129v27.637a11.533,11.533,0,1,1-23.065,0V103.129Z"/>
          </g>
          <path id="패스_11872" data-name="패스 11872" class="cls-7" d="M230.361,197.7H203.106a1.653,1.653,0,0,1-1.646-1.659v-27a1.653,1.653,0,0,1,1.646-1.659h27.255a1.653,1.653,0,0,1,1.646,1.659v27A1.653,1.653,0,0,1,230.361,197.7Zm-25.61-3.319h23.965V170.7H204.751Z"/>
          <path id="패스_11873" data-name="패스 11873" class="cls-7" d="M268.938,197.7H241.682a1.652,1.652,0,0,1-1.645-1.659v-27a1.652,1.652,0,0,1,1.645-1.659h27.256a1.652,1.652,0,0,1,1.645,1.659v27A1.652,1.652,0,0,1,268.938,197.7Zm-25.61-3.319h23.964V170.7H243.328Z"/>
          <path id="패스_11874" data-name="패스 11874" class="cls-7" d="M344.557,237.937a1.653,1.653,0,0,1-1.646-1.66V169.69H288v66.588a1.646,1.646,0,1,1-3.292,0V168.03a1.652,1.652,0,0,1,1.645-1.659h58.2a1.653,1.653,0,0,1,1.645,1.659v68.248A1.653,1.653,0,0,1,344.557,237.937Z"/>
          <path id="패스_11875" data-name="패스 11875" class="cls-7" d="M315.457,237.937a1.653,1.653,0,0,1-1.646-1.66V168.03a1.646,1.646,0,1,1,3.292,0v68.248A1.653,1.653,0,0,1,315.457,237.937Z"/>
        </g>
        <g id="그룹_632160" data-name="그룹 632160">
          <path id="패스_11878" data-name="패스 11878" class="cls-8" d="M157.181,229.227a11.988,11.988,0,0,1-9.265-19.437,2.862,2.862,0,0,0,.652-2.152,8.841,8.841,0,0,1,3.057-7.94,8.693,8.693,0,0,1,14.086,4.791,8.956,8.956,0,0,1,.143,3.109h0a2.868,2.868,0,0,0,.629,2.168,12.046,12.046,0,0,1-1.372,16.429A11.862,11.862,0,0,1,157.181,229.227Z"/>
          <line id="선_2192" data-name="선 2192" class="cls-9" y1="7.819" transform="translate(157.208 229.462)"/>
        </g>
        <g id="그룹_632162" data-name="그룹 632162">
          <g id="그룹_632161" data-name="그룹 632161">
            <path id="패스_11879" data-name="패스 11879" class="cls-8" d="M125.307,223.521a16.451,16.451,0,0,1-5.437-.919h0a16.874,16.874,0,0,1-10.142-21.842.239.239,0,0,0-.014-.2,18.17,18.17,0,0,1-2.3-8.852,17.969,17.969,0,0,1,5.529-13.046.189.189,0,0,0,.049-.175,12.883,12.883,0,0,1,3.638-12.353,12.525,12.525,0,0,1,9.49-3.446,12.783,12.783,0,0,1,11.839,11.665,12.961,12.961,0,0,1-.316,4.145.181.181,0,0,0,.052.164A17.972,17.972,0,0,1,143.22,191.7a18.171,18.171,0,0,1-2.3,8.851.255.255,0,0,0-.011.214,16.879,16.879,0,0,1-3.81,17.818,16.563,16.563,0,0,1-10.268,4.865Q126.065,223.522,125.307,223.521Z"/>
          </g>
          <line id="선_2193" data-name="선 2193" class="cls-9" y2="48.689" transform="translate(125.317 188.2)"/>
          <line id="선_2194" data-name="선 2194" class="cls-10" x1="7.801" y2="12.88" transform="translate(125.317 188.379)"/>
          <line id="선_2195" data-name="선 2195" class="cls-10" x1="7.819" y1="12.869" transform="translate(117.04 198.045)"/>
        </g>
        <path id="패스_11880" data-name="패스 11880" class="cls-11" d="M361.99,237.282H105.7"/>
        <path id="패스_11881" data-name="패스 11881" class="cls-11" d="M435.112,237.282H361.99"/>
        <path id="패스_11882" data-name="패스 11882" class="cls-11" d="M373.956,102.554H174.53"/>
      </g>
      <g id="그룹_632166" data-name="그룹 632166" transform="translate(0 10)">
        <path id="패스_11883" data-name="패스 11883" class="cls-12" d="M389.848,236.872a1.946,1.946,0,0,1-.706-.133,72.577,72.577,0,0,1-30.295-21.63A79.957,79.957,0,0,1,344.5,187.925a97.882,97.882,0,0,1-4.408-33.08,1.972,1.972,0,0,1,1.692-1.813c15.112-2.063,26.929-9.222,34.182-14.864a72.555,72.555,0,0,0,12.316-11.956,1.957,1.957,0,0,1,1.563-.782h0a1.953,1.953,0,0,1,1.563.783,72.618,72.618,0,0,0,12.316,11.955c7.252,5.642,19.069,12.8,34.181,14.864a1.972,1.972,0,0,1,1.693,1.813,97.913,97.913,0,0,1-4.408,33.08,79.958,79.958,0,0,1-14.344,27.185,72.574,72.574,0,0,1-30.3,21.63A1.937,1.937,0,0,1,389.848,236.872Z"/>
        <g id="그룹_632165" data-name="그룹 632165">
          <g id="그룹_632164" data-name="그룹 632164">
            <ellipse id="타원_1291" data-name="타원 1291" class="cls-13" cx="20.94" cy="21.114" rx="20.94" ry="21.114" transform="translate(367.786 163.752)"/>
            <path id="패스_11884" data-name="패스 11884" class="cls-10" d="M409.333,181.089a21.429,21.429,0,0,1,.333,3.776,20.94,20.94,0,1,1-20.94-21.114,20.717,20.717,0,0,1,11.238,3.3"/>
          </g>
          <path id="패스_11885" data-name="패스 11885" class="cls-14" d="M411.909,172.35l-5.033-4.828L388.925,184.9l-7.782-7.466-5.13,4.927,12.791,12.31.022-.018.015.018Z"/>
        </g>
      </g>
    </g>
  </g>
</svg>
