<svg xmlns="http://www.w3.org/2000/svg" width="444" height="228" viewBox="0 0 444 228">
    <g transform="translate(-436 -767)">
        <circle data-name="Ellipse 2" cx="53.5" cy="53.5" r="53.5" transform="translate(489 767)" style="fill:#dcf5fb"/>
        <circle data-name="Ellipse 2" cx="19.75" cy="19.75" r="19.75" transform="translate(826 834.5)" style="fill:#fbf0e3"/>
        <circle data-name="Ellipse 2" cx="33.313" cy="33.313" r="33.313" transform="translate(698 847.688)" style="fill:#e4ffe1"/>
    </g>
    <g data-name="그룹 632620">
        <g data-name="패스 12949" style="fill:#fff">
            <path d="M106.5 85.5H.5V.645L82.008 21.67l24.492 6.317V85.5zm.407-57.424.231-.896.168.814-.399.082z" style="stroke:none" transform="translate(283 140)"/>
            <path d="M1 1.29V85h105V28.373L1 1.291M0 0a248645826.692 248645826.692 0 0 0 107 27.599V86H0V0zm107 27.599zm.029.007z" style="fill:#707070;stroke:none" transform="translate(283 140)"/>
        </g>
        <path data-name="사각형 463675" transform="translate(136.058 76.889)" style="stroke-width:3.005px;stroke-linecap:round;stroke-linejoin:round;stroke:#222;fill:#fff" d="M0 0h27.713v63.253H0z"/>
        <path data-name="패스 12623" d="m336.754 178.731-78.6-76.816-78.619 76.816v58.717h157.219v-58.717z" style="stroke-width:3.005px;stroke-linecap:round;stroke-linejoin:round;stroke:#222;fill:#fff" transform="translate(-52.738 -11.466)"/>
        <path data-name="패스 12624" d="M349.948 165.937 266.429 84.5l-8.235-8.029-7.721 7.546-84.018 81.925 13.081 12.793 78.664-76.726 78.665 76.722z" style="fill:#f2ac58;stroke-width:3.005px;stroke-linecap:round;stroke-linejoin:round;stroke:#222" transform="translate(-52.738 -11.466)"/>
        <path data-name="사각형 463676" transform="translate(154.546 162.717)" style="fill:#fcf28d;stroke-width:3.005px;stroke-linecap:round;stroke-linejoin:round;stroke:#222" d="M0 0h36.983v63.265H0z"/>
        <path data-name="사각형 463677" transform="translate(206.383 162.717)" style="stroke-width:3.005px;stroke-linecap:round;stroke-linejoin:round;stroke:#222;fill:#fff" d="M0 0h31.565v27.122H0z"/>
    </g>
    <g data-name="그룹 632621">
        <path data-name="패스 12625" d="M152.754 229.552a12 12 0 0 1-9.266-19.452 2.862 2.862 0 0 0 .652-2.153A8.851 8.851 0 0 1 147.2 200a8.692 8.692 0 0 1 14.089 4.794 8.966 8.966 0 0 1 .143 3.111 2.868 2.868 0 0 0 .629 2.169 12.059 12.059 0 0 1-1.372 16.44 11.862 11.862 0 0 1-7.935 3.038z" style="stroke-miterlimit:10;stroke-width:3.005px;stroke:#222;fill:#fff" transform="translate(-52.738 -11.466)"/>
        <path data-name="선 2383" transform="translate(100.339 218.627)" style="stroke-width:3.018px;fill:none;stroke-linecap:round;stroke-linejoin:round;stroke:#222" d="M0 7.043V0"/>
    </g>
    <g data-name="그룹 632622">
        <path data-name="패스 12626" d="M120.876 223.842a16.444 16.444 0 0 1-5.438-.92 16.892 16.892 0 0 1-10.138-21.858.24.24 0 0 0-.014-.2 18.187 18.187 0 0 1-2.3-8.857 17.987 17.987 0 0 1 5.53-13.056.19.19 0 0 0 .049-.176 12.9 12.9 0 0 1 3.638-12.36 12.523 12.523 0 0 1 9.491-3.448 12.788 12.788 0 0 1 11.84 11.673 12.973 12.973 0 0 1-.316 4.147.182.182 0 0 0 .052.165A17.986 17.986 0 0 1 138.792 192a18.181 18.181 0 0 1-2.3 8.856.261.261 0 0 0-.01.215 16.9 16.9 0 0 1-3.81 17.831 16.566 16.566 0 0 1-10.27 4.869q-.768.07-1.526.071z" style="stroke-miterlimit:10;stroke-width:3.005px;stroke:#222;fill:#fff" transform="translate(-52.738 -11.466)"/>
        <path data-name="선 2384" transform="translate(68.427 177.375)" style="stroke-width:3.018px;fill:none;stroke-linecap:round;stroke-linejoin:round;stroke:#222" d="M0 0v48.294"/>
        <path data-name="선 2385" transform="translate(68.148 177.209)" style="fill:none;stroke-width:3.005px;stroke-linecap:round;stroke-linejoin:round;stroke:#222" d="M7.802 0 0 12.889"/>
        <path data-name="선 2386" transform="translate(59.87 186.882)" style="fill:none;stroke-width:3.005px;stroke-linecap:round;stroke-linejoin:round;stroke:#222" d="M7.82 12.878 0 0"/>
    </g>
    <g data-name="그룹 632624">
        <g data-name="그룹 632623">
            <path data-name="패스 12627" d="M420.339 237.136V196.4a4.524 4.524 0 0 0-4.5-4.544H361.5a4.007 4.007 0 0 0-3.989 4.025v41.252" style="fill:#afdae9;stroke-width:3.005px;stroke-linecap:round;stroke-linejoin:round;stroke:#222" transform="translate(-52.738 -11.466)"/>
            <path data-name="선 2387" transform="translate(304.985 189.741)" style="stroke-width:2.992px;fill:none;stroke-linecap:round;stroke-linejoin:round;stroke:#222" d="M0 0h61.829"/>
            <path data-name="선 2388" transform="translate(304.985 198.796)" style="stroke-width:2.992px;fill:none;stroke-linecap:round;stroke-linejoin:round;stroke:#222" d="M0 0h61.829"/>
            <path data-name="선 2389" transform="translate(304.985 207.851)" style="stroke-width:2.992px;fill:none;stroke-linecap:round;stroke-linejoin:round;stroke:#222" d="M0 0h61.829"/>
            <path data-name="선 2390" transform="translate(304.985 216.907)" style="stroke-width:2.992px;fill:none;stroke-linecap:round;stroke-linejoin:round;stroke:#222" d="M0 0h61.829"/>
        </g>
        <path data-name="선 2391" transform="translate(282.029 139.645)" style="fill:none;stroke-width:3.005px;stroke-linecap:round;stroke-linejoin:round;stroke:#222" d="m0 0 115.221 29.314"/>
        <path data-name="선 2392" transform="translate(389.478 168.145)" style="stroke-width:3.018px;fill:none;stroke-linecap:round;stroke-linejoin:round;stroke:#222" d="M0 0v57.022"/>
    </g>
    <g data-name="그룹 632625">
        <path data-name="패스 12628" d="M454.738 237.448h-360" transform="translate(-52.738 -11.466)" style="stroke-width:2.992px;fill:none;stroke-linecap:round;stroke-linejoin:round;stroke:#222"/>
    </g>
</svg>
