<svg xmlns="http://www.w3.org/2000/svg" width="444" height="226" viewBox="0 0 444 226">
    <g transform="translate(-622 -2040)">
        <g data-name="그룹 629931">
            <path data-name="패스 2717" d="M114.5 181.5V3.5a2 2 0 0 1 2-2h112a2 2 0 0 1 2 2v178" transform="translate(672.5 2077)" style="fill:#fff"/>
            <path data-name="패스 2718" d="M114.5 17.5V1.678a5.78 5.78 0 0 1 2-.178h112a5.78 5.78 0 0 1 2 .178V17.5" transform="translate(672.5 2077)" style="fill:#f2ac58"/>
            <path data-name="패스 2719" d="M114.5 181.5V3.5a2 2 0 0 1 2-2h112a2 2 0 0 1 2 2v178" transform="translate(672.5 2077)" style="stroke:#222;stroke-linecap:round;stroke-linejoin:round;stroke-width:3px;fill:none"/>
            <path data-name="선 46" transform="translate(787 2094.5)" style="fill:#fff" d="M0 0h115"/>
            <path data-name="선 47" transform="translate(787 2094.5)" style="stroke:#222;stroke-linecap:round;stroke-linejoin:round;stroke-width:3px;fill:none" d="M0 0h115"/>
            <path data-name="패스 2720" d="M179.367 51.5h-11.429a2.285 2.285 0 0 1-2.285-2.286V37.786a2.285 2.285 0 0 1 2.285-2.286h11.429a2.286 2.286 0 0 1 2.286 2.286v11.428a2.286 2.286 0 0 1-2.286 2.286" transform="translate(672.5 2077)" style="fill:#e4e4e4"/>
            <path data-name="패스 2721" d="M209.367 51.5h-11.429a2.285 2.285 0 0 1-2.285-2.286V37.786a2.285 2.285 0 0 1 2.285-2.286h11.429a2.286 2.286 0 0 1 2.286 2.286v11.428a2.286 2.286 0 0 1-2.286 2.286" transform="translate(672.5 2077)" style="fill:#e4e4e4"/>
            <path data-name="패스 2722" d="M149.367 81.5h-11.429a2.285 2.285 0 0 1-2.285-2.286V67.786a2.285 2.285 0 0 1 2.285-2.286h11.429a2.286 2.286 0 0 1 2.286 2.286v11.428a2.286 2.286 0 0 1-2.286 2.286" transform="translate(671.347 2077)" style="fill:#e4e4e4"/>
            <path data-name="패스 2723" d="M179.367 81.5h-11.429a2.285 2.285 0 0 1-2.285-2.286V67.786a2.285 2.285 0 0 1 2.285-2.286h11.429a2.286 2.286 0 0 1 2.286 2.286v11.428a2.286 2.286 0 0 1-2.286 2.286" transform="translate(671.347 2077)" style="fill:#e4e4e4"/>
            <path data-name="패스 2724" d="M209.367 81.5h-11.429a2.285 2.285 0 0 1-2.285-2.286V67.786a2.285 2.285 0 0 1 2.285-2.286h11.429a2.286 2.286 0 0 1 2.286 2.286v11.428a2.286 2.286 0 0 1-2.286 2.286" transform="translate(671.347 2077)" style="fill:#e4e4e4"/>
            <path data-name="패스 2725" d="M149.367 111.5h-11.429a2.285 2.285 0 0 1-2.285-2.286V97.786a2.285 2.285 0 0 1 2.285-2.286h11.429a2.286 2.286 0 0 1 2.286 2.286v11.428a2.286 2.286 0 0 1-2.286 2.286" transform="translate(671.347 2077)" style="fill:#e4e4e4"/>
            <path data-name="패스 2726" d="M179.367 111.5h-11.429a2.285 2.285 0 0 1-2.285-2.286V97.786a2.285 2.285 0 0 1 2.285-2.286h11.429a2.286 2.286 0 0 1 2.286 2.286v11.428a2.286 2.286 0 0 1-2.286 2.286" transform="translate(671.347 2077)" style="fill:#e4e4e4"/>
            <path data-name="패스 2727" d="M209.367 111.5h-11.429a2.285 2.285 0 0 1-2.285-2.286V97.786a2.285 2.285 0 0 1 2.285-2.286h11.429a2.286 2.286 0 0 1 2.286 2.286v11.428a2.286 2.286 0 0 1-2.286 2.286" transform="translate(671.347 2077)" style="fill:#e4e4e4"/>
            <path data-name="패스 2728" d="M149.367 51.5h-11.429a2.285 2.285 0 0 1-2.285-2.286V37.786a2.285 2.285 0 0 1 2.285-2.286h11.429a2.286 2.286 0 0 1 2.286 2.286v11.428a2.286 2.286 0 0 1-2.286 2.286" transform="translate(672.5 2077)" style="fill:#e4e4e4"/>
            <path data-name="선 48" transform="translate(845 2208.5)" style="stroke:#222;stroke-linecap:round;stroke-linejoin:round;stroke-width:3px;fill:none" d="M0 0v48"/>
            <path data-name="패스 2729" d="M153.5 181.5a3 3 0 0 1-3-3v-47a2 2 0 0 1 2-2h40a2 2 0 0 1 2 2v47a3 3 0 0 1-3 3" transform="translate(672.5 2077)" style="stroke:#222;stroke-linecap:round;stroke-linejoin:round;stroke-width:3px;fill:none"/>
            <g data-name="그룹 626156">
                <path data-name="사각형 461027" transform="translate(793.978 2102.56)" style="stroke:#222;stroke-linecap:round;stroke-linejoin:round;stroke-width:3px;fill:#fff" d="M0 0h102.042v28.88H0z"/>
                <g data-name="그룹 626154">
                    <path data-name="패스 2911" d="M156.146 93.654a3.571 3.571 0 0 1-.407 1.746 2.942 2.942 0 0 1-1.15 1.164l1.515 3.047a1.361 1.361 0 0 1 .136.831.921.921 0 0 1-.522.686 1.169 1.169 0 0 1-.465.131 1.183 1.183 0 0 1-.443-.052 1.032 1.032 0 0 1-.379-.218 1.146 1.146 0 0 1-.271-.358l-1.916-3.587h-2.3v2.927a1.207 1.207 0 0 1-.336.893 1.188 1.188 0 0 1-.879.336 1.163 1.163 0 0 1-.872-.336 1.213 1.213 0 0 1-.329-.889V91.75a1.258 1.258 0 0 1 1.4-1.444h3.6a4.522 4.522 0 0 1 1.486.234 3.259 3.259 0 0 1 1.144.663 2.9 2.9 0 0 1 .729 1.047 3.629 3.629 0 0 1 .256 1.4m-6.2 1.465H152a2.242 2.242 0 0 0 1.3-.337 1.274 1.274 0 0 0 .486-1.128 1.225 1.225 0 0 0-.479-1.107 2.355 2.355 0 0 0-1.307-.312h-2.058z" transform="translate(690.189 2020.945)" style="fill:#222"/>
                    <path data-name="패스 2912" d="M163.051 90.205a1.512 1.512 0 0 1 .9.256 1.584 1.584 0 0 1 .543.707l3.431 8.489a1.057 1.057 0 0 1 0 .9 1.115 1.115 0 0 1-.7.576 1.056 1.056 0 0 1-.893-.074 1.411 1.411 0 0 1-.607-.744l-.643-1.72h-4.074l-.628 1.72a1.415 1.415 0 0 1-.607.744 1.2 1.2 0 0 1-1.6-.5 1.071 1.071 0 0 1 .007-.9l3.431-8.489a1.572 1.572 0 0 1 .543-.707 1.509 1.509 0 0 1 .9-.256m-1.286 6.345h2.572l-1.257-3.4h-.058z" transform="translate(690.051 2020.754)" style="fill:#222"/>
                    <path data-name="패스 2913" d="M170.587 91.912a2.052 2.052 0 0 1 .336-1.269 1.363 1.363 0 0 1 1.15-.438 1.794 1.794 0 0 1 .873.183 1.593 1.593 0 0 1 .571.576l3.7 6.636h.043v-6.141a1.3 1.3 0 0 1 .314-.9 1.225 1.225 0 0 1 1.715 0 1.3 1.3 0 0 1 .314.9v8.081a2.069 2.069 0 0 1-.307 1.217 1.238 1.238 0 0 1-1.079.431 2.155 2.155 0 0 1-.929-.183 1.514 1.514 0 0 1-.643-.605l-3.672-6.315h-.044v5.849a1.3 1.3 0 0 1-.314.9 1.225 1.225 0 0 1-1.715 0 1.3 1.3 0 0 1-.314-.9z" transform="translate(635.61 2020.972)" style="fill:#222"/>
                    <path data-name="패스 2920" d="M170.587 91.912a2.052 2.052 0 0 1 .336-1.269 1.363 1.363 0 0 1 1.15-.438 1.794 1.794 0 0 1 .873.183 1.593 1.593 0 0 1 .571.576l3.7 6.636h.043v-6.141a1.3 1.3 0 0 1 .314-.9 1.225 1.225 0 0 1 1.715 0 1.3 1.3 0 0 1 .314.9v8.081a2.069 2.069 0 0 1-.307 1.217 1.238 1.238 0 0 1-1.079.431 2.155 2.155 0 0 1-.929-.183 1.514 1.514 0 0 1-.643-.605l-3.672-6.315h-.044v5.849a1.3 1.3 0 0 1-.314.9 1.225 1.225 0 0 1-1.715 0 1.3 1.3 0 0 1-.314-.9z" transform="translate(689.17 2020.972)" style="fill:#222"/>
                    <path data-name="패스 2914" d="M182.28 95.67a6.861 6.861 0 0 1 .336-2.159 5.134 5.134 0 0 1 1-1.787 4.8 4.8 0 0 1 1.644-1.218 5.345 5.345 0 0 1 2.266-.453A5.093 5.093 0 0 1 190 90.6a4.387 4.387 0 0 1 1.544 1.335 1.392 1.392 0 0 1 .257.845.933.933 0 0 1-.358.73 1.213 1.213 0 0 1-.386.2 1.137 1.137 0 0 1-.443.043 1.188 1.188 0 0 1-.45-.138 1.157 1.157 0 0 1-.393-.35 3.1 3.1 0 0 0-.95-.816 2.658 2.658 0 0 0-1.293-.292 2.736 2.736 0 0 0-1.086.219 2.441 2.441 0 0 0-.9.664 3.355 3.355 0 0 0-.615 1.1 4.661 4.661 0 0 0-.228 1.531 4.724 4.724 0 0 0 .228 1.539 3.244 3.244 0 0 0 .615 1.1 2.541 2.541 0 0 0 .9.664 2.655 2.655 0 0 0 1.086.227 3.22 3.22 0 0 0 1.336-.255 2.61 2.61 0 0 0 .964-.751 1.788 1.788 0 0 1 .822-.613.923.923 0 0 1 .879.131.9.9 0 0 1 .458.766 1.657 1.657 0 0 1-.314.927 4.27 4.27 0 0 1-1.566 1.349 5.421 5.421 0 0 1-2.579.548 5.358 5.358 0 0 1-2.266-.453 4.819 4.819 0 0 1-1.644-1.217 5.134 5.134 0 0 1-1-1.8 6.934 6.934 0 0 1-.336-2.167" transform="translate(688.193 2020.776)" style="fill:#222"/>
                    <path data-name="패스 2916" d="M207.022 91.43a1.213 1.213 0 0 1 .329-.889 1.166 1.166 0 0 1 .872-.336 1.154 1.154 0 0 1 1.215 1.225v8.532a1.2 1.2 0 0 1-.336.889 1.184 1.184 0 0 1-.879.336 1.159 1.159 0 0 1-.872-.336 1.213 1.213 0 0 1-.329-.889z" transform="translate(595.095 2020.973)" style="fill:#222"/>
                    <path data-name="패스 2917" d="M219.227 91.337a1.739 1.739 0 0 1 .5.912.9.9 0 0 1-.3.854.89.89 0 0 1-.851.241 2.062 2.062 0 0 1-.908-.489 3.789 3.789 0 0 0-.957-.613 3.02 3.02 0 0 0-1.216-.22 3.427 3.427 0 0 0-.6.052 1.53 1.53 0 0 0-.5.175.961.961 0 0 0-.343.336.981.981 0 0 0-.129.518 1.036 1.036 0 0 0 .122.518 1.2 1.2 0 0 0 .329.364 1.957 1.957 0 0 0 .472.255q.264.1.564.189l1.987.554a6.518 6.518 0 0 1 1.186.453 3.131 3.131 0 0 1 .865.635 2.459 2.459 0 0 1 .529.876 3.509 3.509 0 0 1 .179 1.174 2.691 2.691 0 0 1-.3 1.261 3.044 3.044 0 0 1-.856 1.008 4.16 4.16 0 0 1-1.351.671 6.1 6.1 0 0 1-1.779.241 7.182 7.182 0 0 1-1.272-.11 5.842 5.842 0 0 1-1.158-.328 5.179 5.179 0 0 1-1-.533 3.208 3.208 0 0 1-.772-.736 1.788 1.788 0 0 1-.407-.934.868.868 0 0 1 .393-.817 1.027 1.027 0 0 1 .908-.212 1.838 1.838 0 0 1 .865.591 3.218 3.218 0 0 0 1.179.832 3.7 3.7 0 0 0 1.407.277 2.728 2.728 0 0 0 .665-.08 2.035 2.035 0 0 0 .571-.234 1.256 1.256 0 0 0 .4-.379.92.92 0 0 0 .151-.518 1.106 1.106 0 0 0-.243-.766 1.676 1.676 0 0 0-.771-.431l-2.359-.657a5.429 5.429 0 0 1-1.1-.43 3.635 3.635 0 0 1-.893-.649 2.77 2.77 0 0 1-.593-.883 3.193 3.193 0 0 1 .1-2.532 2.858 2.858 0 0 1 .851-.97 3.669 3.669 0 0 1 1.251-.569 6.067 6.067 0 0 1 1.5-.182 6.5 6.5 0 0 1 2.158.328 3.86 3.86 0 0 1 1.529.955" transform="translate(615.88 2020.905)" style="fill:#222"/>
                    <path data-name="패스 2918" d="M224.214 101.112a1.257 1.257 0 0 1-1.4-1.443V91.75a1.258 1.258 0 0 1 1.4-1.444h5a1.641 1.641 0 0 1 .88.212 1.041 1.041 0 0 1 0 1.531 1.625 1.625 0 0 1-.88.212h-3.988v2.333h3.731a1.369 1.369 0 0 1 .822.233 1.021 1.021 0 0 1 0 1.488 1.37 1.37 0 0 1-.822.234h-3.731v2.609h4.16a1.669 1.669 0 0 1 .879.2.813.813 0 0 1 .336.758.851.851 0 0 1-.336.772 1.582 1.582 0 0 1-.879.219z" transform="translate(659.029 2020.524)" style="fill:#222"/>
                    <path data-name="패스 2921" d="M816.722 2117.587v-5.1a1.408 1.408 0 0 1 .3-.976 1.284 1.284 0 0 1 .9-.325 1.086 1.086 0 0 1 .826.325 1.408 1.408 0 0 1 .3.976v5.212a6.219 6.219 0 0 0 .084 1.646 1.333 1.333 0 0 0 .678.769 2.787 2.787 0 0 0 1.466.3 2.082 2.082 0 0 0 1.767-.636 3.318 3.318 0 0 0 .381-2.028v-5.255a1.417 1.417 0 0 1 .293-.98 1.006 1.006 0 0 1 .783-.322 1.4 1.4 0 0 1 .939.322 1.383 1.383 0 0 1 .3.98v5.1a7.457 7.457 0 0 1-.245 2.075 3.2 3.2 0 0 1-.925 1.46 3.6 3.6 0 0 1-1.36.781 6.018 6.018 0 0 1-1.814.246 7.561 7.561 0 0 1-2.128-.264 3.416 3.416 0 0 1-1.455-.825 3.285 3.285 0 0 1-.826-1.417 7.127 7.127 0 0 1-.264-2.064z"/>
                </g>
            </g>
        </g>
        <g data-name="그룹 626153">
            <g data-name="그룹 629932">
                <path data-name="패스 2739" d="M41.479 180.5v-40h80v40" transform="translate(673 2077)" style="fill:#fcf28d"/>
                <path data-name="패스 2740" d="M41.479 180.5v-40h80v40" transform="translate(673 2077)" style="stroke:#222;stroke-linecap:round;stroke-linejoin:round;stroke-width:3px;fill:none"/>
                <path data-name="선 57" transform="translate(714.479 2250.5)" style="stroke:#222;stroke-linecap:round;stroke-linejoin:round;stroke-width:3px;fill:none" d="M0 0h80"/>
                <path data-name="선 58" transform="translate(714.479 2242.5)" style="stroke:#222;stroke-linecap:round;stroke-linejoin:round;stroke-width:3px;fill:none" d="M0 0h80"/>
                <path data-name="선 59" transform="translate(714.479 2234.5)" style="stroke:#222;stroke-linecap:round;stroke-linejoin:round;stroke-width:3px;fill:none" d="M0 0h80"/>
                <path data-name="선 60" transform="translate(714.479 2226.5)" style="stroke:#222;stroke-linecap:round;stroke-linejoin:round;stroke-width:3px;fill:none" d="M0 0h80"/>
                <path data-name="패스 2741" d="M121.479 140.5h-80l7.193-10h65.614z" transform="translate(673 2077)" style="fill:#fcf28d"/>
                <path data-name="패스 2742" d="M121.479 140.5h-80l7.193-10h65.614z" transform="translate(673 2077)" style="stroke:#222;stroke-linecap:round;stroke-linejoin:round;stroke-width:3px;fill:none"/>
                <path data-name="패스 2743" d="m74.743 139.89 1.216-9.39h11.082l1.213 9.39" transform="translate(673 2077)" style="fill:#fff"/>
                <path data-name="패스 2744" d="m74.743 139.89 1.216-9.39h11.082l1.213 9.39" transform="translate(673 2077)" style="stroke:#222;stroke-linecap:round;stroke-linejoin:round;stroke-width:3px;fill:none"/>
                <path data-name="패스 2745" d="M74.979 180.5v-40h13v40" transform="translate(673 2077)" style="fill:#fff"/>
                <path data-name="패스 2746" d="M74.979 180.5v-40h13v40" transform="translate(673 2077)" style="stroke:#222;stroke-linecap:round;stroke-linejoin:round;stroke-width:3px;fill:none"/>
            </g>
            <path transform="translate(664.5 2258.5)" style="stroke:#222;stroke-linecap:round;stroke-linejoin:round;stroke-width:3px;fill:none" d="M360 0H0"/>
            <g data-name="그룹 626149">
                <path data-name="패스 2909" d="M316.45 58.5s-6.185.693-6.687 6.464-1.275 92.54-1.275 92.54.083 10.519-8.985 10.3-11.391-4.959-11.857-9.306 0-17.355 0-17.355h-51.774V71.821s.612-8.351 4.157-10.636 4.328-2.778 11.717-2.684 64.704-.001 64.704-.001z" transform="translate(664.4 2096.589)" style="fill:#fff"/>
                <path data-name="패스 2648" d="M309.648 104.948V65.837a7.8 7.8 0 0 1 5.217-7.337h-66.1c-14.135 0-12.721 15.662-12.721 15.662v66.359" transform="translate(664.407 2096.59)" style="stroke:#222;stroke-linecap:round;stroke-linejoin:round;stroke-width:3px;fill:none"/>
                <path data-name="패스 2649" d="M296 163.235a9.463 9.463 0 0 0 9.464-9.464v-5.538" transform="translate(667.5 2101.215)" style="stroke:#222;stroke-linecap:round;stroke-linejoin:round;stroke-width:3px;fill:none"/>
                <path data-name="패스 2650" d="M235.3 163.789h63.31a10.238 10.238 0 0 1-10.3-10.178V137.5H225v16.111a10.238 10.238 0 0 0 10.3 10.178" transform="translate(663.84 2100.662)" style="fill:#e6eaed"/>
                <path data-name="패스 2651" d="M235.3 163.789h63.31a10.238 10.238 0 0 1-10.3-10.178V137.5H225v16.111a10.238 10.238 0 0 0 10.3 10.178z" transform="translate(663.84 2100.662)" style="stroke:#222;stroke-linecap:round;stroke-linejoin:round;stroke-width:3px;fill:none"/>
                <path data-name="선 16" transform="translate(916.18 2191.894)" style="stroke:#222;stroke-linecap:round;stroke-linejoin:round;stroke-width:3px;fill:none" d="M0 0h42.062"/>
                <path data-name="선 17" transform="translate(916.18 2181.378)" style="stroke:#222;stroke-linecap:round;stroke-linejoin:round;stroke-width:3px;fill:none" d="M0 0h42.062"/>
                <path data-name="선 18" transform="translate(916.18 2203.461)" style="stroke:#222;stroke-linecap:round;stroke-linejoin:round;stroke-width:3px;fill:none" d="M0 0h30.495"/>
                <path data-name="패스 2652" d="M319.67 80.582V65A6.843 6.843 0 0 0 306 65v15.582z" transform="translate(668.015 2096.59)" style="fill:#e6eaed"/>
                <path data-name="패스 2653" d="M319.67 80.582V65A6.843 6.843 0 0 0 306 65v15.582z" transform="translate(668.015 2096.59)" style="stroke:#222;stroke-linecap:round;stroke-linejoin:round;stroke-width:3px;fill:none"/>
            </g>
            <g data-name="그룹 626150">
                <path data-name="패스 2654" d="M314.8 135.464v16.863l-8.412-5.952-8.412 5.952v-16.863" transform="translate(667.602 2100.557)" style="fill:#f2ac58"/>
                <path data-name="패스 2655" d="M314.8 135.464v16.863l-8.412-5.952-8.412 5.952v-16.863" transform="translate(667.602 2100.557)" style="stroke:#222;stroke-linecap:round;stroke-linejoin:round;stroke-width:3px;fill:none"/>
                <path data-name="패스 2656" d="M306.824 138.225a16.863 16.863 0 1 1 16.826-16.862 16.861 16.861 0 0 1-16.826 16.862" transform="translate(667.191 2098.961)" style="fill:#fff"/>
                <path data-name="패스 2657" d="M306.824 138.225a16.863 16.863 0 1 1 16.826-16.862 16.861 16.861 0 0 1-16.826 16.862z" transform="translate(667.191 2098.961)" style="stroke:#222;stroke-linecap:round;stroke-linejoin:round;stroke-width:3px;fill:none"/>
                <path data-name="패스 2658" d="M306.536 132.057a10.983 10.983 0 1 1 10.964-10.983 10.982 10.982 0 0 1-10.959 10.982" transform="translate(667.479 2099.249)" style="fill:#f2ac58"/>
                <path data-name="패스 2659" d="M306.536 132.057a10.983 10.983 0 1 1 10.964-10.983 10.982 10.982 0 0 1-10.964 10.983z" transform="translate(667.479 2099.249)" style="fill:none"/>
            </g>
            <path data-name="사각형 460993" transform="translate(663 2077)" style="fill:none" d="M0 0h363v183H0z"/>
        </g>
        <ellipse data-name="타원 559" cx="47.5" cy="48.5" rx="47.5" ry="48.5" transform="translate(649 2074)" style="fill:#dcf5fb"/>
        <circle data-name="타원 560" cx="20" cy="20" r="20" transform="translate(993 2059)" style="fill:#fbf0e3"/>
    </g>
</svg>
