<svg xmlns="http://www.w3.org/2000/svg" width="444" height="240.142" viewBox="0 0 444 240.142">
  <defs>
    <style>
      .cls-1 {
        fill: rgba(255,191,191,0.5);
        opacity: 0;
      }

      .cls-2 {
        fill: #dcf5fb;
      }

      .cls-3 {
        fill: #e4ffe1;
      }

      .cls-4 {
        fill: #fbf0e3;
      }

      .cls-10, .cls-5, .cls-8 {
        fill: #fff;
      }

      .cls-10, .cls-11, .cls-13, .cls-14, .cls-15, .cls-5, .cls-6, .cls-8 {
        stroke: #222;
      }

      .cls-13, .cls-14, .cls-15, .cls-5, .cls-6, .cls-8 {
        stroke-width: 3px;
      }

      .cls-6 {
        fill: #7dd3cf;
      }

      .cls-7 {
        fill: #222;
      }

      .cls-13, .cls-15, .cls-8 {
        stroke-linecap: round;
      }

      .cls-14, .cls-15, .cls-8 {
        stroke-linejoin: round;
      }

      .cls-9 {
        fill: #f0f2f5;
      }

      .cls-10, .cls-11 {
        stroke-miterlimit: 10;
        stroke-width: 2px;
      }

      .cls-11 {
        fill: #9df4ef;
      }

      .cls-12 {
        fill: #727272;
      }

      .cls-13, .cls-14, .cls-15, .cls-17 {
        fill: none;
      }

      .cls-16, .cls-18 {
        stroke: none;
      }

      .cls-18 {
        fill: #222;
      }
    </style>
  </defs>
  <g id="SWKDIFDT3900_2" transform="translate(-1024.75 -1191.857)">
    <g id="deco">
      <rect id="BG" class="cls-1" width="444" height="240" transform="translate(1024.75 1191.857)"/>
      <circle id="Ellipse_2" data-name="Ellipse 2" class="cls-2" cx="71.441" cy="71.441" r="71.441" transform="translate(1067.25 1230.75)"/>
      <circle id="Ellipse_2-2" data-name="Ellipse 2" class="cls-3" cx="26.75" cy="26.75" r="26.75" transform="translate(1350.75 1192)"/>
      <circle id="Ellipse_2-3" data-name="Ellipse 2" class="cls-4" cx="18.816" cy="18.816" r="18.816" transform="translate(1427.117 1309)"/>
    </g>
    <g id="img" transform="translate(1041.024 1172.312)">
      <g id="그룹_631439" data-name="그룹 631439" transform="translate(11.115 1)">
        <g id="서류봉투" transform="translate(404.411 -118.92) rotate(90)">
          <g id="사각형_462981" data-name="사각형 462981" class="cls-5" transform="translate(230.156 73.27)">
            <rect class="cls-16" width="147" height="183" rx="8"/>
            <rect class="cls-17" x="1.5" y="1.5" width="144" height="180" rx="6.5"/>
          </g>
          <g id="사각형_462982" data-name="사각형 462982" class="cls-6" transform="translate(230.156 73.27)">
            <path class="cls-16" d="M7.5,0h132A7.5,7.5,0,0,1,147,7.5v0A22.5,22.5,0,0,1,124.5,30H22.5A22.5,22.5,0,0,1,0,7.5v0A7.5,7.5,0,0,1,7.5,0Z"/>
            <path class="cls-17" d="M7.552,1.5h131.9A6.052,6.052,0,0,1,145.5,7.552v0A20.948,20.948,0,0,1,124.552,28.5H22.448A20.948,20.948,0,0,1,1.5,7.552v0A6.052,6.052,0,0,1,7.552,1.5Z"/>
          </g>
          <g id="사각형_462983" data-name="사각형 462983" class="cls-6" transform="translate(230.156 226.27)">
            <path class="cls-16" d="M22.5,0h102A22.5,22.5,0,0,1,147,22.5v0a7.5,7.5,0,0,1-7.5,7.5H7.5A7.5,7.5,0,0,1,0,22.5v0A22.5,22.5,0,0,1,22.5,0Z"/>
            <path class="cls-17" d="M22.448,1.5h102.1A20.948,20.948,0,0,1,145.5,22.448v0a6.052,6.052,0,0,1-6.052,6.052H7.552A6.052,6.052,0,0,1,1.5,22.448v0A20.948,20.948,0,0,1,22.448,1.5Z"/>
          </g>
          <rect id="사각형_462984" data-name="사각형 462984" class="cls-7" width="3" height="126" transform="translate(302.156 103.27)"/>
          <g id="타원_1217" data-name="타원 1217" class="cls-5" transform="translate(296.156 81.27)">
            <circle class="cls-16" cx="7.5" cy="7.5" r="7.5"/>
            <circle class="cls-17" cx="7.5" cy="7.5" r="6"/>
          </g>
        </g>
        <g id="매출" transform="translate(130.111 258.415) rotate(-90)">
          <g id="사각형_1134" data-name="사각형 1134" class="cls-8" transform="matrix(0, -1, 1, 0, -0.178, 152)">
            <rect class="cls-16" width="172" height="125" rx="5.392"/>
            <rect class="cls-17" x="1.5" y="1.5" width="169" height="122" rx="3.892"/>
          </g>
          <g id="그룹_631411" data-name="그룹 631411" transform="translate(-0.5)">
            <g id="그룹_631410" data-name="그룹 631410" transform="translate(-5 -71)">
              <rect id="사각형_461403" data-name="사각형 461403" class="cls-9" width="54" height="6" rx="2.266" transform="translate(101.322 78.025) rotate(90)"/>
              <rect id="사각형_463039" data-name="사각형 463039" class="cls-9" width="54" height="6" rx="2.266" transform="translate(87.322 78.025) rotate(90)"/>
              <rect id="사각형_463040" data-name="사각형 463040" class="cls-9" width="54" height="6" rx="2.266" transform="translate(73.322 78.025) rotate(90)"/>
              <rect id="사각형_463041" data-name="사각형 463041" class="cls-9" width="54" height="6" rx="2.266" transform="translate(59.322 78.025) rotate(90)"/>
              <rect id="사각형_463042" data-name="사각형 463042" class="cls-9" width="54" height="6" rx="2.266" transform="translate(45.322 78.025) rotate(90)"/>
              <rect id="사각형_463043" data-name="사각형 463043" class="cls-9" width="54" height="6" rx="2.266" transform="translate(31.322 78.025) rotate(90)"/>
            </g>
            <g id="그룹_631409" data-name="그룹 631409" transform="translate(-47)">
              <rect id="사각형_463044" data-name="사각형 463044" class="cls-9" width="54" height="6" rx="2.266" transform="translate(101.322 76.025) rotate(90)"/>
              <rect id="사각형_463045" data-name="사각형 463045" class="cls-9" width="54" height="6" rx="2.266" transform="translate(87.322 76.025) rotate(90)"/>
              <rect id="사각형_463046" data-name="사각형 463046" class="cls-9" width="54" height="6" rx="2.266" transform="translate(73.322 76.025) rotate(90)"/>
              <g id="그룹_631408" data-name="그룹 631408" transform="translate(38 80.025)">
                <g id="사각형_461816" data-name="사각형 461816" class="cls-10" transform="translate(99.662 14) rotate(90)">
                  <rect class="cls-16" width="8" height="28.34"/>
                  <rect class="cls-17" x="1" y="1" width="6" height="26.34"/>
                </g>
                <g id="사각형_461817" data-name="사각형 461817" class="cls-10" transform="translate(90.322 3) rotate(90)">
                  <rect class="cls-16" width="8" height="19"/>
                  <rect class="cls-17" x="1" y="1" width="6" height="17"/>
                </g>
                <g id="사각형_461818" data-name="사각형 461818" class="cls-11" transform="translate(106.805 25) rotate(90)">
                  <rect class="cls-16" width="8" height="35.482"/>
                  <rect class="cls-17" x="1" y="1" width="6" height="33.482"/>
                </g>
                <g id="사각형_463038" data-name="사각형 463038" class="cls-10" transform="translate(84.322 36) rotate(90)">
                  <rect class="cls-16" width="8" height="13"/>
                  <rect class="cls-17" x="1" y="1" width="6" height="11"/>
                </g>
              </g>
            </g>
          </g>
        </g>
      </g>
      <g id="그룹_631431" data-name="그룹 631431" transform="translate(-91 688.768)">
        <g id="기술" transform="translate(-42.774 -696.572)">
          <g id="사각형_462427" data-name="사각형 462427" class="cls-5" transform="translate(226 177.348)">
            <rect class="cls-16" width="60" height="60" rx="6"/>
            <rect class="cls-17" x="1.5" y="1.5" width="57" height="57" rx="4.5"/>
          </g>
          <g id="패스_10619" data-name="패스 10619" class="cls-12" transform="translate(233 183.911)">
            <path class="cls-16" d="M 42.47557830810547 45.08611679077148 L 4.110538482666016 45.08611679077148 C 2.671078443527222 45.08611679077148 1.499998450279236 43.9150390625 1.499998450279236 42.47557830810547 L 1.499998450279236 4.110538482666016 C 1.499998450279236 2.671078443527222 2.671078443527222 1.499998450279236 4.110538482666016 1.499998450279236 L 36.51448440551758 1.499998450279236 C 38.53290939331055 3.526728391647339 39.8885498046875 4.947267055511475 41.20251846313477 6.324148178100586 C 42.400146484375 7.579108715057373 43.53696441650391 8.770354270935059 45.08611679077148 10.32828044891357 L 45.08611679077148 42.47557830810547 C 45.08611679077148 43.9150390625 43.9150390625 45.08611679077148 42.47557830810547 45.08611679077148 Z"/>
            <path class="cls-18" d="M 4.110538482666016 3 C 3.498188018798828 3 3 3.498188018798828 3 4.110538482666016 L 3 42.47557830810547 C 3 43.08792877197266 3.498188018798828 43.58611679077148 4.110538482666016 43.58611679077148 L 42.47557830810547 43.58611679077148 C 43.08792877197266 43.58611679077148 43.58611679077148 43.08792877197266 43.58611679077148 42.47557830810547 L 43.58611679077148 10.94584274291992 C 42.24386978149414 9.588039398193359 41.20565795898438 8.5001220703125 40.11735916137695 7.359729766845703 C 38.90667724609375 6.091079711914062 37.66032028198242 4.785053253173828 35.89039993286133 3 L 4.110538482666016 3 M 4.110538482666016 0 L 37.13669967651367 0 C 41.50652694702148 4.369827270507812 42.8962287902832 6.018306732177734 46.58611679077148 9.708187103271484 L 46.58611679077148 42.47557830810547 C 46.58611679077148 44.74576950073242 44.74576950073242 46.58611679077148 42.47557830810547 46.58611679077148 L 4.110538482666016 46.58611679077148 C 1.840347290039062 46.58611679077148 0 44.74576950073242 0 42.47557830810547 L 0 4.110538482666016 C 0 1.840347290039062 1.840347290039062 0 4.110538482666016 0 Z"/>
          </g>
          <line id="선_1604" data-name="선 1604" class="cls-13" x2="11.647" transform="translate(243.604 194.296)"/>
          <line id="선_1898" data-name="선 1898" class="cls-13" x2="16.308" transform="translate(243.604 201.832)"/>
          <g id="회선" transform="translate(-14 -73.652)">
            <g id="그룹_631418" data-name="그룹 631418">
              <rect id="사각형_463050" data-name="사각형 463050" class="cls-7" width="3" height="12" transform="translate(269 240)"/>
              <circle id="타원_1228" data-name="타원 1228" class="cls-7" cx="4.5" cy="4.5" r="4.5" transform="translate(266 236)"/>
            </g>
            <g id="그룹_631419" data-name="그룹 631419" transform="translate(-16 -6)">
              <rect id="사각형_463050-2" data-name="사각형 463050" class="cls-7" width="3" height="18" transform="translate(269 240)"/>
              <circle id="타원_1228-2" data-name="타원 1228" class="cls-7" cx="4.5" cy="4.5" r="4.5" transform="translate(266 236)"/>
            </g>
            <g id="그룹_631420" data-name="그룹 631420" transform="translate(16 -6)">
              <rect id="사각형_463050-3" data-name="사각형 463050" class="cls-7" width="3" height="18" transform="translate(269 240)"/>
              <circle id="타원_1228-3" data-name="타원 1228" class="cls-7" cx="4.5" cy="4.5" r="4.5" transform="translate(266 236)"/>
            </g>
            <g id="그룹_631421" data-name="그룹 631421">
              <path id="패스_10620" data-name="패스 10620" class="cls-14" d="M-5101.28,9177.365h-20.742V9197" transform="translate(5343 -8884)"/>
              <circle id="타원_1229" data-name="타원 1229" class="cls-7" cx="4.5" cy="4.5" r="4.5" transform="translate(216.5 309)"/>
            </g>
            <g id="그룹_631422" data-name="그룹 631422" transform="translate(297 293.365)">
              <path id="패스_10620-2" data-name="패스 10620" class="cls-14" d="M-5122.022,9177.365h20.742V9197" transform="translate(5122.022 -9177.365)"/>
              <circle id="타원_1229-2" data-name="타원 1229" class="cls-7" cx="4.5" cy="4.5" r="4.5" transform="translate(16.242 15.139)"/>
            </g>
            <g id="그룹_631426" data-name="그룹 631426">
              <g id="그룹_631424" data-name="그룹 631424" transform="translate(250 310)">
                <rect id="사각형_463050-4" data-name="사각형 463050" class="cls-7" width="3" height="12" transform="translate(3)"/>
                <circle id="타원_1228-4" data-name="타원 1228" class="cls-7" cx="4.5" cy="4.5" r="4.5" transform="translate(0 7)"/>
              </g>
              <g id="그룹_631425" data-name="그룹 631425" transform="translate(282 310)">
                <rect id="사각형_463050-5" data-name="사각형 463050" class="cls-7" width="3" height="12" transform="translate(3)"/>
                <circle id="타원_1228-5" data-name="타원 1228" class="cls-7" cx="4.5" cy="4.5" r="4.5" transform="translate(0 7)"/>
              </g>
            </g>
            <g id="그룹_631427" data-name="그룹 631427" transform="translate(-15 541.5) rotate(-90)">
              <rect id="사각형_463050-6" data-name="사각형 463050" class="cls-7" width="3" height="18" transform="translate(269 240)"/>
              <circle id="타원_1228-6" data-name="타원 1228" class="cls-7" cx="4.5" cy="4.5" r="4.5" transform="translate(266 236)"/>
            </g>
            <g id="그룹_631428" data-name="그룹 631428" transform="translate(297 275.5) rotate(-90)">
              <rect id="사각형_463050-7" data-name="사각형 463050" class="cls-7" width="3" height="18" transform="translate(3)"/>
              <circle id="타원_1228-7" data-name="타원 1228" class="cls-7" cx="4.5" cy="4.5" r="4.5" transform="translate(0 13)"/>
            </g>
          </g>
        </g>
      </g>
      <line id="선_198" data-name="선 198" class="cls-15" x2="360" transform="translate(26.226 258.236)"/>
    </g>
  </g>
</svg>
