<svg xmlns="http://www.w3.org/2000/svg" width="444" height="227" viewBox="0 0 444 227">
    <g transform="translate(39 21.281)">
        <circle data-name="Ellipse 2" cx="68.5" cy="68.5" r="68.5" transform="translate(-8.43 44.338)" style="fill:#fcf5bd"/>
        <circle data-name="Ellipse 2" cx="19.75" cy="19.75" r="19.75" transform="translate(319.25 2.469)" style="fill:#fbf0e3"/>
    </g>
    <path data-name="선 809" transform="translate(42.5 219.5)" style="stroke-width:3px;stroke-linecap:round;stroke-linejoin:round;stroke:#222;fill:none" d="M0 0h360"/>
    <g data-name="그룹 631399">
        <g data-name="사각형 463025" style="fill:#fff;stroke-width:3px;stroke:#222">
            <path d="M8 0h8.9a8 8 0 0 1 8 8v82.533H0V8a8 8 0 0 1 8-8z" style="stroke:none" transform="translate(116.558 106.703)"/>
            <path d="M8 1.5h8.9A6.5 6.5 0 0 1 23.4 8v81.033H1.5V8A6.5 6.5 0 0 1 8 1.5z" style="fill:none" transform="translate(116.558 106.703)"/>
        </g>
        <g data-name="사각형 463024" style="fill:#afdae9;stroke-width:3px;stroke:#222">
            <path d="M15 0h2.818a15 15 0 0 1 15 15v60.822H0V15A15 15 0 0 1 15 0z" style="stroke:none" transform="translate(122.216 121.415)"/>
            <path d="M15 1.5h2.818a13.5 13.5 0 0 1 13.5 13.5v59.322H1.5V15A13.5 13.5 0 0 1 15 1.5z" style="fill:none" transform="translate(122.216 121.415)"/>
        </g>
        <path data-name="패스 4435" d="M139.051 1067.812h-28.234a1.1 1.1 0 0 1 0-2.2h28.234a1.1 1.1 0 0 1 0 2.2z" transform="translate(13.661 -916.484)" style="fill:#222;stroke:#222"/>
        <path data-name="패스 4438" d="M139.051 1085.213h-28.234a1.1 1.1 0 0 1 0-2.2h28.234a1.1 1.1 0 0 1 0 2.2z" transform="translate(13.661 -914.739)" style="fill:#222;stroke:#222"/>
    </g>
    <g data-name="그룹 631400">
        <g data-name="사각형 463025" style="fill:#fff;stroke-width:3px;stroke:#222">
            <path d="M8 0h8.9a8 8 0 0 1 8 8v68.953H0V8a8 8 0 0 1 8-8z" style="stroke:none" transform="translate(70.686 120.283)"/>
            <path d="M8 1.5h8.9A6.5 6.5 0 0 1 23.4 8v67.453H1.5V8A6.5 6.5 0 0 1 8 1.5z" style="fill:none" transform="translate(70.686 120.283)"/>
        </g>
        <g data-name="사각형 463024" style="fill:#afdae9;stroke-width:3px;stroke:#222">
            <path d="M15 0h2.818a15 15 0 0 1 15 15v49.5H0V15A15 15 0 0 1 15 0z" style="stroke:none" transform="translate(76.344 132.731)"/>
            <path d="M15 1.5h2.818a13.5 13.5 0 0 1 13.5 13.5v48H1.5V15A13.5 13.5 0 0 1 15 1.5z" style="fill:none" transform="translate(76.344 132.731)"/>
        </g>
        <path data-name="패스 4435" d="M139.051 1067.656h-28.234a1.023 1.023 0 1 1 0-2.045h28.234a1.023 1.023 0 1 1 0 2.045z" transform="translate(-32.211 -907.973)" style="fill:#222;stroke:#222"/>
        <path data-name="패스 4438" d="M139.051 1085.057h-28.234a1.023 1.023 0 1 1 0-2.045h28.234a1.023 1.023 0 1 1 0 2.045z" transform="translate(-32.211 -906.904)" style="fill:#222;stroke:#222"/>
    </g>
    <g data-name="그룹 631455" transform="translate(59.009 195.382)">
        <path data-name="사각형 463076" transform="translate(3.961 3.748)" style="fill:#fff;stroke-width:3px;stroke:#222" d="M0 0h106.377v18.107H0z"/>
        <rect data-name="사각형 463074" width="112.807" height="6.224" rx="3" style="fill:#ddd;stroke-width:3px;stroke:#222"/>
        <rect data-name="사각형 463075" width="112.807" height="5.446" rx="2.723" transform="translate(0 18.672)" style="fill:#ddd;stroke-width:3px;stroke:#222"/>
        <path data-name="선 1907" transform="translate(34.989 6.578)" style="stroke-width:3px;stroke:#222;fill:none" d="M0 0v12.448"/>
        <path data-name="선 1909" transform="translate(73.177 6.578)" style="stroke-width:3px;stroke:#222;fill:none" d="M0 0v12.448"/>
    </g>
    <g data-name="큰 굴뚝">
        <g transform="translate(6400.5 -6071.94)">
            <g data-name="패스 12949" style="fill:#fff">
                <path d="M62.963 94.824H-3.213c-1.371 0-2.709-.16-3.766-.45-.807-.22-1.256-.462-1.464-.613L8.443 2.667l.008-.046c.163-.14.618-.42 1.539-.672 1.057-.29 2.394-.449 3.765-.449h32.24c1.371 0 2.708.16 3.765.45.921.252 1.376.53 1.539.67l.008.047L68.193 93.76c-.208.15-.657.393-1.464.614-1.057.29-2.395.45-3.766.45z" style="stroke:none" transform="translate(-6106 6173.999)"/>
                <path d="M13.755 3c-1.92 0-3.29.326-3.957.585L-6.754 92.88c.75.223 1.96.444 3.541.444h66.176c1.582 0 2.792-.221 3.541-.444L49.952 3.585C49.285 3.326 47.914 3 45.995 3h-32.24m0-3h32.24c3.748 0 6.787 1.071 6.787 2.393L69.75 93.931c0 1.322-3.039 2.393-6.787 2.393H-3.213c-3.748 0-6.787-1.071-6.787-2.393L6.968 2.393C6.968 1.071 10.007 0 13.755 0z" style="fill:#222;stroke:none" transform="translate(-6106 6173.999)"/>
            </g>
            <g data-name="패스 12950" style="fill:#e5570c">
                <path d="M56.154 12.244H1.45L3.47 1.5h50.904l1.779 10.744z" style="stroke:none" transform="translate(-6104.828 6197.676)"/>
                <path d="m4.716 3-1.457 7.744h51.126L53.103 3H4.716M2.227 0h53.42l2.275 13.744H-.358L2.228 0z" style="fill:#222;stroke:none" transform="translate(-6104.828 6197.676)"/>
            </g>
            <g data-name="패스 12951" style="fill:#e5570c">
                <path d="M62.117 12.244H.304L2.064 1.5H60.38l1.737 10.744z" style="stroke:none" transform="translate(-6106.854 6220.027)"/>
                <path d="M3.338 3 2.07 10.744h58.285L59.103 3H3.338M.789 0h60.868l2.222 13.744h-65.34L.789 0z" style="fill:#222;stroke:none" transform="translate(-6106.854 6220.027)"/>
            </g>
            <rect data-name="사각형 463806" width="54.435" height="9.336" rx="4.668" transform="translate(-6103.342 6169.33)" style="fill:#ddd;stroke-width:3px;stroke:#222"/>
        </g>
        <g data-name="그룹 632810" transform="translate(264.008 195.383)">
            <path data-name="사각형 463076" transform="translate(3.961 3.748)" style="fill:#fff;stroke-width:3px;stroke:#222" d="M0 0h106.377v18.107H0z"/>
            <rect data-name="사각형 463074" width="112.807" height="6.224" rx="3" style="fill:#ddd;stroke-width:3px;stroke:#222"/>
            <rect data-name="사각형 463075" width="112.807" height="5.446" rx="2.723" transform="translate(0 18.672)" style="fill:#ddd;stroke-width:3px;stroke:#222"/>
            <path data-name="선 1907" transform="translate(44.989 6.578)" style="stroke-width:3px;stroke:#222;fill:none" d="M0 0v12.448"/>
            <path data-name="선 1909" transform="translate(83.177 6.578)" style="stroke-width:3px;stroke:#222;fill:none" d="M0 0v12.448"/>
        </g>
    </g>
    <g data-name="굴뚝">
        <g data-name="패스 12949" style="fill:#fff">
            <path d="M33 159.5H-6a2.503 2.503 0 0 1-2.5-2.457L1.497 4.098l.003-.049V4c0-1.378 1.122-2.5 2.5-2.5h19c1.378 0 2.5 1.122 2.5 2.5v.049l.003.049L35.5 157.043A2.503 2.503 0 0 1 33 159.5z" style="stroke:none" transform="translate(194.5 65.001)"/>
            <path d="M4 3c-.551 0-1 .449-1 1v.098l-.006.098-9.992 152.87c.034.52.469.934.998.934h39c.53 0 .964-.414.998-.935L24 4.098V4c0-.551-.449-1-1-1H4m0-3h19a4 4 0 0 1 4 4l10 153a4 4 0 0 1-4 4H-6a4 4 0 0 1-4-4L0 4a4 4 0 0 1 4-4z" style="fill:#222;stroke:none" transform="translate(194.5 65.001)"/>
        </g>
        <g data-name="패스 12950" style="fill:#e5570c">
            <path d="M29.17 13.605H1.593L2.32 1.5h26.123l.727 12.105z" style="stroke:none" transform="translate(192.646 83.132)"/>
            <path d="m3.733 3-.547 9.105h24.391L27.031 3H3.733M.907 0h28.949l.907 15.105H0L.907 0z" style="fill:#222;stroke:none" transform="translate(192.646 83.132)"/>
        </g>
    </g>
    <g data-name="굴뚝">
        <g data-name="패스 12949" style="fill:#fff">
            <path d="M33 159.5H-6a2.503 2.503 0 0 1-2.5-2.457L1.497 4.098l.003-.049V4c0-1.378 1.122-2.5 2.5-2.5h19c1.378 0 2.5 1.122 2.5 2.5v.049l.003.049L35.5 157.043A2.503 2.503 0 0 1 33 159.5z" style="stroke:none" transform="translate(243.5 48.001)"/>
            <path d="M4 3c-.551 0-1 .449-1 1v.098l-.006.098-9.992 152.87c.034.52.469.934.998.934h39c.53 0 .964-.414.998-.935L24 4.098V4c0-.551-.449-1-1-1H4m0-3h19a4 4 0 0 1 4 4l10 153a4 4 0 0 1-4 4H-6a4 4 0 0 1-4-4L0 4a4 4 0 0 1 4-4z" style="fill:#222;stroke:none" transform="translate(243.5 48.001)"/>
        </g>
        <g data-name="패스 12950" style="fill:#e5570c">
            <path d="M29.17 13.605H1.593L2.32 1.5h26.123l.727 12.105z" style="stroke:none" transform="translate(241.646 66.132)"/>
            <path d="m3.733 3-.547 9.105h24.391L27.031 3H3.733M.907 0h28.949l.907 15.105H0L.907 0z" style="fill:#222;stroke:none" transform="translate(241.646 66.132)"/>
        </g>
    </g>
    <g data-name="그룹 632809">
        <path data-name="패스 5210" d="m-6146.5 6228.265-36.653 16.477-1.789-2.161v-14.315l-36.863 16.477-1.856-2.161v-14.315l-37.6 16.477v80.942h114.761z" style="fill:#fff" transform="translate(6426.5 -6111.998)"/>
        <g data-name="그룹 626854">
            <path data-name="패스 4414" d="M664.855 1034.453h-40.4a3.411 3.411 0 0 1-3.406-3.406v-76.41a3.4 3.4 0 0 1 1.782-2.993l35.423-19.268a3.405 3.405 0 0 1 5.033 2.994v15.388l33.8-18.382a3.406 3.406 0 0 1 5.033 2.994v15.388l33.8-18.382a3.406 3.406 0 0 1 5.033 2.994v93.871a1.7 1.7 0 0 1-3.406 0v-93.872l-33.8 18.382a3.407 3.407 0 0 1-5.033-2.994v-15.388l-33.8 18.382a3.409 3.409 0 0 1-5.036-2.994v-15.388l-35.424 19.266v76.41h40.4a1.7 1.7 0 1 1 0 3.406z" transform="translate(-459.053 -818.451)" style="fill:#222"/>
            <g data-name="사각형 463805" transform="translate(162 201.132)" style="fill:#ddd;stroke-width:3px;stroke:#222">
                <rect width="119.904" height="25" rx="3" style="stroke:none"/>
                <rect x="1.5" y="1.5" width="116.904" height="22" rx="1.5" style="fill:none"/>
            </g>
        </g>
    </g>
    <g data-name="그룹 632808" transform="translate(-499.053 -866.995)">
        <rect data-name="사각형 461209" width="17" height="11" rx="2" transform="translate(676.053 1022.998)" style="fill:#e9f6fd;stroke-width:3px;stroke:#222"/>
        <rect data-name="사각형 461209" width="17" height="11" rx="2" transform="translate(700.053 1022.998)" style="fill:#e9f6fd;stroke-width:3px;stroke:#222"/>
        <rect data-name="사각형 461209" width="17" height="11" rx="2" transform="translate(724.053 1022.998)" style="fill:#e9f6fd;stroke-width:3px;stroke:#222"/>
        <rect data-name="사각형 461209" width="17" height="11" rx="2" transform="translate(748.053 1022.998)" style="fill:#e9f6fd;stroke-width:3px;stroke:#222"/>
        <rect data-name="사각형 461209" width="17" height="11" rx="2" transform="translate(676.053 1040.998)" style="fill:#e9f6fd;stroke-width:3px;stroke:#222"/>
        <rect data-name="사각형 461209" width="17" height="11" rx="2" transform="translate(700.053 1040.998)" style="fill:#e9f6fd;stroke-width:3px;stroke:#222"/>
        <rect data-name="사각형 461209" width="17" height="11" rx="2" transform="translate(724.053 1040.998)" style="fill:#e9f6fd;stroke-width:3px;stroke:#222"/>
        <rect data-name="사각형 461209" width="17" height="11" rx="2" transform="translate(748.053 1040.998)" style="fill:#e9f6fd;stroke-width:3px;stroke:#222"/>
    </g>
    <path data-name="합치기 19" d="M31.25 22.984a3 3 0 0 1-.9.137H9.144a3.021 3.021 0 0 1-.511-.043 7.891 7.891 0 0 1-.827.043 7.815 7.815 0 0 1-.978-15.567q-.018-.249-.018-.5a7.119 7.119 0 0 1 13.8-2.387 6.623 6.623 0 0 1 10.945 4.954 6.535 6.535 0 0 1-.155 1.409 6.8 6.8 0 0 1 1.3-.124 6.285 6.285 0 0 1 6.44 6.117 6.285 6.285 0 0 1-6.44 6.117 6.786 6.786 0 0 1-1.45-.156z" transform="translate(109.43 56.428)" style="fill:#fff;stroke-width:3px;stroke:#222"/>
    <path data-name="합치기 30" d="M31.25 22.984a3 3 0 0 1-.9.137H9.144a3.021 3.021 0 0 1-.511-.043 7.891 7.891 0 0 1-.827.043 7.815 7.815 0 0 1-.978-15.567q-.018-.249-.018-.5a7.119 7.119 0 0 1 13.8-2.387 6.623 6.623 0 0 1 10.945 4.954 6.535 6.535 0 0 1-.155 1.409 6.8 6.8 0 0 1 1.3-.124 6.285 6.285 0 0 1 6.44 6.117 6.285 6.285 0 0 1-6.44 6.117 6.786 6.786 0 0 1-1.45-.156z" transform="translate(239.438 5.5)" style="fill:#fff;stroke-width:3px;stroke:#222"/>
    <path data-name="합치기 31" d="M58.594 43.1a3.023 3.023 0 0 1-.468.036H14.308a14.6 14.6 0 0 1-1.794-29.044q-.032-.464-.033-.937A13.014 13.014 0 0 1 37.775 8.7a12 12 0 0 1 7.939-2.992 12.178 12.178 0 0 1 12.117 12.241 12.4 12.4 0 0 1-.281 2.63 12.247 12.247 0 0 1 2.379-.232 11.613 11.613 0 0 1 11.8 11.412 11.614 11.614 0 0 1-11.8 11.413 12.333 12.333 0 0 1-1.335-.072z" transform="translate(314.267 36.43)" style="fill:#fff;stroke-width:3px;stroke:#222"/>
</svg>
