<svg xmlns="http://www.w3.org/2000/svg" width="444" height="228" viewBox="0 0 444 228">
  <defs>
    <style>
      .cls-1 {
        fill: rgba(255,191,191,0.5);
        opacity: 0;
      }

      .cls-2 {
        fill: #dcf5fb;
      }

      .cls-3 {
        fill: #fbf0e3;
      }

      .cls-12, .cls-4 {
        fill: #e4e4e4;
      }

      .cls-4, .cls-5, .cls-6, .cls-7 {
        fill-rule: evenodd;
      }

      .cls-11, .cls-15, .cls-17, .cls-5, .cls-9 {
        fill: none;
      }

      .cls-11, .cls-12, .cls-13, .cls-15, .cls-17, .cls-19, .cls-5, .cls-6, .cls-9 {
        stroke: #222;
        stroke-linecap: round;
        stroke-linejoin: round;
      }

      .cls-11, .cls-12, .cls-13, .cls-5, .cls-6 {
        stroke-width: 3.008px;
      }

      .cls-10, .cls-13, .cls-19, .cls-6, .cls-7 {
        fill: #fff;
      }

      .cls-8 {
        fill: #222;
      }

      .cls-9 {
        stroke-width: 3px;
      }

      .cls-14 {
        fill: #f2ac58;
      }

      .cls-15 {
        stroke-width: 2.406px;
      }

      .cls-16 {
        fill: #fcf28d;
      }

      .cls-17 {
        stroke-width: 3.015px;
      }

      .cls-18 {
        fill: #afdae9;
      }

      .cls-19 {
        stroke-width: 1.504px;
      }
    </style>
  </defs>
  <g id="SWKDIFDT5500_1" transform="translate(-436 -767)">
    <g id="deco">
      <rect id="BG" class="cls-1" width="444" height="228" transform="translate(436 767)"/>
      <circle id="Ellipse_2" data-name="Ellipse 2" class="cls-2" cx="53.5" cy="53.5" r="53.5" transform="translate(749 802)"/>
      <circle id="Ellipse_2-2" data-name="Ellipse 2" class="cls-3" cx="71" cy="71" r="71" transform="translate(460 767)"/>
    </g>
    <g id="img" transform="translate(438.5 753.734)">
      <g id="그룹_633871" data-name="그룹 633871">
        <g id="그룹_633859" data-name="그룹 633859">
          <g id="그룹_633855" data-name="그룹 633855">
            <path id="패스_15027" data-name="패스 15027" class="cls-4" d="M271.315,157.389h14.9v61.025h-14.9Z"/>
          </g>
          <g id="그룹_633856" data-name="그룹 633856">
            <path id="패스_15028" data-name="패스 15028" class="cls-5" d="M271.315,157.389h14.9v61.025h-14.9Z"/>
          </g>
          <g id="그룹_633857" data-name="그룹 633857">
            <path id="패스_15029" data-name="패스 15029" class="cls-6" d="M291.806,149.08H265.727v8.7c0,2.085,1.267,3.781,2.818,3.781h20.437c1.551,0,2.824-1.7,2.824-3.781v-8.7Z"/>
          </g>
          <g id="그룹_633858" data-name="그룹 633858">
            <path id="패스_15030" data-name="패스 15030" class="cls-6" d="M291.806,226.722v-8.7c0-2.084-1.273-3.78-2.824-3.78H268.545c-1.551,0-2.818,1.7-2.818,3.78v8.7Z"/>
          </g>
        </g>
        <g id="그룹_633864" data-name="그룹 633864">
          <g id="그룹_633860" data-name="그룹 633860">
            <path id="패스_15031" data-name="패스 15031" class="cls-4" d="M357.006,157.389h14.9v61.025h-14.9Z"/>
          </g>
          <g id="그룹_633861" data-name="그룹 633861">
            <path id="패스_15032" data-name="패스 15032" class="cls-5" d="M357.006,157.389h14.9v61.025h-14.9Z"/>
          </g>
          <g id="그룹_633862" data-name="그룹 633862">
            <path id="패스_15033" data-name="패스 15033" class="cls-6" d="M377.5,149.08h-26.08v8.7c0,2.085,1.268,3.781,2.819,3.781h20.436c1.552,0,2.825-1.7,2.825-3.781v-8.7Z"/>
          </g>
          <g id="그룹_633863" data-name="그룹 633863">
            <path id="패스_15034" data-name="패스 15034" class="cls-6" d="M377.5,226.722v-8.7c0-2.084-1.273-3.78-2.825-3.78H354.236c-1.551,0-2.819,1.7-2.819,3.78v8.7Z"/>
          </g>
        </g>
        <g id="그룹_633869" data-name="그룹 633869">
          <g id="그룹_633865" data-name="그룹 633865">
            <path id="패스_15035" data-name="패스 15035" class="cls-4" d="M314.646,157.389h14.9v61.025h-14.9Z"/>
          </g>
          <g id="그룹_633866" data-name="그룹 633866">
            <path id="패스_15036" data-name="패스 15036" class="cls-5" d="M314.646,157.389h14.9v61.025h-14.9Z"/>
          </g>
          <g id="그룹_633867" data-name="그룹 633867">
            <path id="패스_15037" data-name="패스 15037" class="cls-6" d="M335.137,149.08h-26.08v8.7c0,2.085,1.268,3.781,2.819,3.781h20.436c1.552,0,2.825-1.7,2.825-3.781v-8.7Z"/>
          </g>
          <g id="그룹_633868" data-name="그룹 633868">
            <path id="패스_15038" data-name="패스 15038" class="cls-6" d="M335.137,226.722v-8.7c0-2.084-1.273-3.78-2.825-3.78H311.876c-1.551,0-2.819,1.7-2.819,3.78v8.7Z"/>
          </g>
        </g>
        <path id="패스_15039" data-name="패스 15039" class="cls-7" d="M324.1,98.588a4.718,4.718,0,0,0-4.942,0l-58.568,35.975a2.22,2.22,0,0,0-1.056,1.892v10.409a2.212,2.212,0,0,0,2.206,2.217H381.517a2.212,2.212,0,0,0,2.206-2.217V136.454a2.22,2.22,0,0,0-1.056-1.892Z"/>
        <path id="패스_15041" data-name="패스 15041" class="cls-5" d="M324.1,98.588a4.718,4.718,0,0,0-4.942,0l-58.568,35.975a2.22,2.22,0,0,0-1.056,1.892v10.409a2.212,2.212,0,0,0,2.206,2.217H381.517a2.212,2.212,0,0,0,2.206-2.217V136.454a2.22,2.22,0,0,0-1.056-1.892Z"/>
        <g id="그룹_633870" data-name="그룹 633870">
          <path id="패스_15042" data-name="패스 15042" class="cls-8" d="M302.181,118.737a4.592,4.592,0,0,1,3.4,1.345,1.139,1.139,0,0,1-.835,1.922h-.006a1.119,1.119,0,0,1-.88-.42,2.089,2.089,0,0,0-1.705-.775,2.7,2.7,0,0,0,0,5.365,2.089,2.089,0,0,0,1.705-.775,1.119,1.119,0,0,1,.88-.42h0a1.139,1.139,0,0,1,.833,1.924,4.6,4.6,0,0,1-3.393,1.33,4.748,4.748,0,0,1,0-9.5Z"/>
          <path id="패스_15043" data-name="패스 15043" class="cls-8" d="M312.48,128.259a4.774,4.774,0,1,1,4.8-4.78A4.708,4.708,0,0,1,312.48,128.259Zm0-2.072a2.719,2.719,0,1,0-2.49-2.709A2.445,2.445,0,0,0,312.48,126.187Z"/>
          <path id="패스_15044" data-name="패스 15044" class="cls-8" d="M319.654,118.844h0a1.139,1.139,0,0,1,1.144,1.135v4.443a1.518,1.518,0,0,0,1.633,1.74,1.537,1.537,0,0,0,1.659-1.74v-4.443a1.139,1.139,0,0,1,1.144-1.135h0a1.139,1.139,0,0,1,1.144,1.135v4.428a3.677,3.677,0,0,1-3.988,3.852,3.589,3.589,0,0,1-3.88-3.852v-4.428A1.139,1.139,0,0,1,319.654,118.844Z"/>
          <path id="패스_15045" data-name="패스 15045" class="cls-8" d="M331.82,118.844c2.3,0,3.453,1.314,3.453,2.934a2.716,2.716,0,0,1-2.088,2.7l1.2,2.039a1.1,1.1,0,0,1-.957,1.653h0a1.108,1.108,0,0,1-.97-.569l-1.638-2.951h-.549v2.42a1.1,1.1,0,0,1-1.108,1.1h-.072a1.1,1.1,0,0,1-1.108-1.1v-7.123a1.1,1.1,0,0,1,1.108-1.1Zm-.134,1.885h-1.418v2.311h1.418c.857,0,1.258-.438,1.258-1.168C332.944,121.181,332.543,120.728,331.686,120.728Z"/>
          <path id="패스_15046" data-name="패스 15046" class="cls-8" d="M337.108,118.844h5.433a.913.913,0,0,1,.917.909h0a.913.913,0,0,1-.917.909h-1.572v6.595a.913.913,0,0,1-.916.91H339.6a.913.913,0,0,1-.916-.91v-6.595h-1.573a.912.912,0,0,1-.916-.909h0A.912.912,0,0,1,337.108,118.844Z"/>
        </g>
        <line id="선_2923" data-name="선 2923" class="cls-9" x2="122.35" transform="translate(260.646 135.937)"/>
        <rect id="사각형_464499" data-name="사각형 464499" class="cls-10" width="124.189" height="12.062" rx="1.281" transform="translate(258.341 226.697)"/>
        <rect id="사각형_464501" data-name="사각형 464501" class="cls-11" width="124.189" height="12.061" rx="1.542" transform="translate(258.341 226.697)"/>
      </g>
      <g id="그룹_633872" data-name="그룹 633872">
        <path id="패스_15047" data-name="패스 15047" class="cls-12" d="M82.929,73.566v33.576h25.782V73.566c0-5.959-5.773-10.792-12.891-10.792S82.929,67.606,82.929,73.566Z"/>
        <path id="패스_15048" data-name="패스 15048" class="cls-13" d="M243.479,238.758V75.045c0-7.305-6.66-12.166-14.323-12.166H96.136c7.118,0,12.891,5.45,12.891,12.171V238.758"/>
      </g>
      <g id="그룹_633873" data-name="그룹 633873">
        <line id="선_2925" data-name="선 2925" class="cls-9" x2="60" transform="translate(133.787 178.505)"/>
        <line id="선_2926" data-name="선 2926" class="cls-9" x2="60" transform="translate(160 207.587)"/>
        <line id="선_2927" data-name="선 2927" class="cls-9" x2="16" transform="translate(204 178.422)"/>
        <line id="선_2928" data-name="선 2928" class="cls-9" x2="16" transform="translate(133.502 207.587)"/>
        <line id="선_2929" data-name="선 2929" class="cls-9" x2="39.365" transform="translate(133.787 193.046)"/>
        <line id="선_2930" data-name="선 2930" class="cls-9" x2="35.741" transform="translate(184.259 193.046)"/>
      </g>
      <g id="그룹_633874" data-name="그룹 633874">
        <path id="패스_15049" data-name="패스 15049" class="cls-14" d="M204.894,64.375h20V84.663a.865.865,0,0,1-1.208.753l-8.792-3.508L206.1,85.416a.864.864,0,0,1-1.207-.753Z"/>
        <path id="패스_15050" data-name="패스 15050" class="cls-15" d="M224.894,64.375V84.663a.865.865,0,0,1-1.208.753l-8.252-3.292a1.456,1.456,0,0,0-1.081,0L206.1,85.416a.864.864,0,0,1-1.207-.753V64.375"/>
      </g>
      <g id="그룹_633879" data-name="그룹 633879">
        <g id="그룹_633876" data-name="그룹 633876">
          <ellipse id="타원_1422" data-name="타원 1422" class="cls-13" cx="27.458" cy="27.598" rx="27.458" ry="27.598" transform="matrix(0.22, -0.975, 0.975, 0.22, 63.305, 209.005)"/>
          <ellipse id="타원_1423" data-name="타원 1423" class="cls-16" cx="21" cy="21.107" rx="21" ry="21.107" transform="translate(75.466 166.981)"/>
          <g id="그룹_633875" data-name="그룹 633875">
            <path id="패스_15051" data-name="패스 15051" class="cls-11" d="M86.4,183.566l4.268,11.247a1,1,0,0,0,1.9-.083l3.091-10.9a1,1,0,0,1,1.918-.018l3.3,10.851a1,1,0,0,0,1.9.03l3.769-11.124"/>
            <line id="선_2931" data-name="선 2931" class="cls-9" x2="24" transform="translate(84.466 188.753)"/>
          </g>
        </g>
        <g id="그룹_633877" data-name="그룹 633877">
          <path id="패스_15052" data-name="패스 15052" class="cls-13" d="M68.678,238.758v-11.5h54.916v11.5"/>
          <line id="선_2932" data-name="선 2932" class="cls-17" y2="5.75" transform="translate(81.263 227.259)"/>
        </g>
        <g id="그룹_633878" data-name="그룹 633878">
          <rect id="사각형_464502" data-name="사각형 464502" class="cls-13" width="54.916" height="11.499" transform="translate(68.678 215.76)"/>
          <line id="선_2933" data-name="선 2933" class="cls-17" y2="5.75" transform="translate(81.263 215.76)"/>
        </g>
      </g>
      <line id="선_2934" data-name="선 2934" class="cls-9" x2="360" transform="translate(39.5 239.266)"/>
      <g id="그룹_633880" data-name="그룹 633880">
        <path id="패스_15053" data-name="패스 15053" class="cls-18" d="M161.7,127.949l-.416-4.455a5.311,5.311,0,0,0-5.777-4.809l-5.926.56-.252.023a5.325,5.325,0,0,0-4.785,5.807l.417,4.456a19.262,19.262,0,0,0-5.792,5.541l-5.249,6.368a1.951,1.951,0,0,0,.256,2.738l1.649,1.373a19.11,19.11,0,1,0,25.875-17.6Zm-5.57,30.751a12.839,12.839,0,1,1,11.524-13.984A12.807,12.807,0,0,1,156.131,158.7Z"/>
        <path id="패스_15054" data-name="패스 15054" class="cls-11" d="M161.7,127.949l-.416-4.455a5.311,5.311,0,0,0-5.777-4.809l-5.926.56-.252.023a5.325,5.325,0,0,0-4.785,5.807l.417,4.456a19.262,19.262,0,0,0-5.792,5.541l-5.249,6.368a1.951,1.951,0,0,0,.256,2.738l1.649,1.373a19.11,19.11,0,1,0,25.875-17.6Zm-5.57,30.751a12.839,12.839,0,1,1,11.524-13.984A12.807,12.807,0,0,1,156.131,158.7Z"/>
        <path id="패스_15055" data-name="패스 15055" class="cls-19" d="M150.982,126.419a2.173,2.173,0,1,0,1.961-2.379A2.177,2.177,0,0,0,150.982,126.419Z"/>
      </g>
      <g id="그룹_633881" data-name="그룹 633881">
        <path id="패스_15056" data-name="패스 15056" class="cls-18" d="M202.1,102.785l-2.169-3.907a5.29,5.29,0,0,0-7.217-2.056l-5.2,2.916-.22.124a5.346,5.346,0,0,0-2.046,7.254l2.17,3.908a19.394,19.394,0,0,0-3.074,7.419L182.1,126.4a1.947,1.947,0,0,0,1.334,2.4l2.06.587a19.129,19.129,0,1,0,16.6-26.6Zm7.254,30.394a12.756,12.756,0,0,1-17.381-4.953,12.888,12.888,0,0,1,4.928-17.469,12.753,12.753,0,0,1,17.38,4.952A12.888,12.888,0,0,1,209.35,133.18Z"/>
        <ellipse id="타원_1424" data-name="타원 1424" class="cls-19" cx="2.173" cy="2.184" rx="2.173" ry="2.184" transform="translate(191.184 102.098)"/>
        <path id="패스_15057" data-name="패스 15057" class="cls-11" d="M202.1,102.785l-2.169-3.907a5.29,5.29,0,0,0-7.217-2.056l-5.2,2.916-.22.124a5.346,5.346,0,0,0-2.046,7.254l2.17,3.908a19.394,19.394,0,0,0-3.074,7.419L182.1,126.4a1.947,1.947,0,0,0,1.334,2.4l2.06.587a19.129,19.129,0,1,0,16.6-26.6Zm7.254,30.394a12.756,12.756,0,0,1-17.381-4.953,12.888,12.888,0,0,1,4.928-17.469,12.753,12.753,0,0,1,17.38,4.952A12.888,12.888,0,0,1,209.35,133.18Z"/>
      </g>
      <path id="패스_15058" data-name="패스 15058" class="cls-11" d="M150.973,118.737s-5.271-24.375,6.984-33.255,28.4,7.079,32.85,12.407"/>
    </g>
  </g>
</svg>
