<svg xmlns="http://www.w3.org/2000/svg" width="444" height="215" viewBox="0 0 444 215">
    <g transform="translate(39 21.281)">
        <circle data-name="Ellipse 2" cx="54.5" cy="54.5" r="54.5" transform="translate(276 24.367)" style="fill:#fbf0e3"/>
        <circle data-name="Ellipse 2" cx="19.75" cy="19.75" r="19.75" transform="translate(205.75 -21.281)" style="fill:#dcf5fb"/>
    </g>
    <g data-name="그룹 631401" transform="translate(71.665 136.598)">
        <g data-name="그룹 631357">
            <path data-name="패스 10587" d="M202.8 180.9a30.669 30.669 0 0 1 15.006-5.969c1.551-5.416 5.274-10.354 10.729-14.155a42.455 42.455 0 0 1 24.127-7.129 46.847 46.847 0 0 1 5.994.385 36.5 36.5 0 0 1 5.721-6.94 35.084 35.084 0 0 1 24.128-9.641 34.54 34.54 0 0 1 11.313 1.879 35.72 35.72 0 0 1 2.538-2.831 35.051 35.051 0 0 1 24.934-10.415c19.666 0 35.669 16.415 35.669 36.588a37.431 37.431 0 0 1-.872 8.079c.182.127.354.268.532.4a25.834 25.834 0 0 1 12.75 4.338 16.439 16.439 0 0 1 6.665 8.794 19.053 19.053 0 0 1 9.321 3.707c3.192 2.476 5.134 3.413 5.134 6.856 0 1.352-1.284 2.477-3.064 2.477H199.032c-2.867 0-4.2.529-4.2-1.646 0-5.54 2.833-10.788 7.968-14.777z" transform="translate(-194.832 -126.089)" style="fill:#fafbfa"/>
        </g>
        <g data-name="그룹 631358">
            <path data-name="패스 10588" d="M324.538 169.845z" transform="translate(-324.537 -100.255)" style="stroke-width:1.999px;stroke-linejoin:round;stroke-linecap:round;stroke:#222;fill:#fff"/>
            <path data-name="패스 10589" d="M194.832 195.68c0-5.543 2.828-10.79 7.958-14.776a30.587 30.587 0 0 1 14.98-5.969c1.548-5.416 5.265-10.354 10.711-14.155a42.331 42.331 0 0 1 24.086-7.129 46.69 46.69 0 0 1 5.984.385 36.49 36.49 0 0 1 5.711-6.94 34.993 34.993 0 0 1 24.087-9.641 34.428 34.428 0 0 1 11.293 1.879 35.7 35.7 0 0 1 2.534-2.831 34.962 34.962 0 0 1 24.891-10.415c19.633 0 35.608 16.415 35.608 36.588a37.493 37.493 0 0 1-.871 8.079c.181.127.353.268.532.4a25.761 25.761 0 0 1 12.728 4.338 16.436 16.436 0 0 1 6.653 8.794 19 19 0 0 1 9.3 3.707 11.691 11.691 0 0 1 4.944 9.179" transform="translate(-194.832 -126.089)" style="stroke-width:3px;fill:#e6eaed;stroke-linejoin:round;stroke-linecap:round;stroke:#222"/>
        </g>
        <g data-name="그룹 631359">
            <path data-name="패스 10590" d="M284.538 153.581a5.325 5.325 0 0 0-9.244 4.688" transform="translate(-205.983 -110.982)" style="fill:none;stroke-width:3px;stroke-linejoin:round;stroke-linecap:round;stroke:#222"/>
        </g>
        <g data-name="그룹 631361">
            <path data-name="패스 10592" d="M257.529 143.1a5.318 5.318 0 0 0-10.347.492" transform="translate(-121.503 -119.332)" style="fill:none;stroke-width:3px;stroke-linejoin:round;stroke-linecap:round;stroke:#222"/>
        </g>
        <ellipse data-name="타원 1220" cx="5.758" cy="5.769" rx="5.758" ry="5.769" transform="translate(142.997 37.117)" style="fill:none;stroke-width:3px;stroke-linejoin:round;stroke-linecap:round;stroke:#222"/>
    </g>
    <g data-name="그룹 628201">
        <g data-name="그룹 628193">
            <g data-name="그룹 628192">
                <path data-name="패스 7222" d="M253.982 346.976a2.5 2.5 0 0 0-2.505-2.5h-45.713a2.5 2.5 0 0 0-2.508 2.5V373.5l10.39 2.263v-15.31a1.475 1.475 0 0 1 1.478-1.476h26.988a1.477 1.477 0 0 1 1.478 1.476v21.837l10.39 2.263z" transform="rotate(-4.01 -3955.463 1958.385)" style="fill:#fcf28d"/>
            </g>
            <path data-name="패스 7223" d="M210.026 371.7v-16.212a1.52 1.52 0 0 1 1.478-1.563h26.988a1.522 1.522 0 0 1 1.478 1.563V378.6" transform="rotate(-4.01 -3904.643 1904.853)" style="fill:none;stroke-width:3px;stroke-linejoin:round;stroke-linecap:round;stroke:#222"/>
            <path data-name="패스 7224" d="M253.982 384.555v-37.579a2.5 2.5 0 0 0-2.505-2.5h-45.713a2.5 2.5 0 0 0-2.508 2.5V373.5" transform="rotate(-4.01 -3955.463 1958.385)" style="fill:none;stroke-width:3px;stroke-linejoin:round;stroke-linecap:round;stroke:#222"/>
        </g>
        <path data-name="패스 7225" d="m259.793 392.719 35.1-46.892a3.889 3.889 0 0 1 3.586-1.695 3.048 3.048 0 0 1 .327-.022h33.384a3.957 3.957 0 0 1 3.957 3.948v38.248a3.96 3.96 0 0 1-3.957 3.952l-7.835-4.916a3.959 3.959 0 0 1-3.957-3.951v-21.56h-19.33L265.387 407.5" transform="rotate(-4.01 -3973.394 1526.846)" style="fill:#fcf28d;stroke-width:3px;stroke-linejoin:round;stroke-linecap:round;stroke:#222"/>
        <g data-name="그룹 628194">
            <path data-name="선 996" transform="matrix(.998 -.07 .07 .998 201.142 107.45)" style="fill:none;stroke-width:3px;stroke-linejoin:round;stroke-linecap:round;stroke:#222" d="M9.002 11.615 0 0"/>
        </g>
        <path data-name="패스 7226" d="M299.593 419.527a2.723 2.723 0 0 1-2.724 2.721h-100.15a2.723 2.723 0 0 1-2.724-2.721v-54.6a2.721 2.721 0 0 1 2.724-2.719l100.15 21.767a2.721 2.721 0 0 1 2.724 2.72z" transform="rotate(-4.01 -3817.649 2024.347)" style="fill:#fcf28d"/>
        <g data-name="그룹 628195">
            <path data-name="패스 7227" d="M297.3 423.906H197.148a3.957 3.957 0 0 1-3.954-3.951v-54.6a3.955 3.955 0 0 1 3.954-3.948l.262.028 100.032 21.742a3.957 3.957 0 0 1 3.81 3.947v32.833a3.957 3.957 0 0 1-3.952 3.949z" transform="rotate(-4.01 -3823.544 2030.67)" style="fill:none;stroke-width:3px;stroke-linejoin:round;stroke-linecap:round;stroke:#222"/>
        </g>
        <g data-name="그룹 628197">
            <g data-name="그룹 628196">
                <path data-name="패스 7228" d="M318.786 402.782h-29.977a3.957 3.957 0 0 1-3.954-3.951 1.226 1.226 0 0 1 .193-.662l16.315-25.458c1.16-2.278 2.729-3.339 4.932-3.339l15.241.3a1.229 1.229 0 0 1 1.207 1.228v27.93a3.954 3.954 0 0 1-3.957 3.952z" transform="rotate(-4.01 -3787.217 1328.753)" style="fill:#fcf28d;stroke-width:3px;stroke-linejoin:round;stroke-linecap:round;stroke:#222"/>
            </g>
        </g>
        <g data-name="그룹 628198">
            <path data-name="선 997" style="fill:none;stroke-width:3px;stroke-linejoin:round;stroke-linecap:round;stroke:#222" d="M106.734 0H0" transform="matrix(.998 -.07 .07 .998 70.213 134.91)"/>
        </g>
        <g data-name="그룹 628199">
            <path data-name="선 998" transform="matrix(.998 -.07 .07 .998 115.332 92.187)" style="stroke-miterlimit:10;fill:none;stroke-width:3px;stroke-linecap:round;stroke:#222" d="M0 38.215V0"/>
        </g>
        <g data-name="그룹 628200">
            <path data-name="선 999" style="fill:none;stroke-width:3px;stroke-linejoin:round;stroke-linecap:round;stroke:#222" d="M8.459 0H0" transform="matrix(.998 -.07 .07 .998 98.117 109.075)"/>
        </g>
    </g>
    <g data-name="그룹 628208">
        <path data-name="패스 7229" d="M295.032 437.887H203.4a14.287 14.287 0 0 1-14.282-14.26v-7.241a14.287 14.287 0 0 1 14.282-14.26h91.633a14.288 14.288 0 0 1 14.284 14.26v7.241a14.288 14.288 0 0 1-14.285 14.26z" transform="rotate(-4.01 -3467.743 2049.365)" style="stroke-width:3px;stroke-linejoin:round;stroke-linecap:round;stroke:#222;fill:#fff"/>
        <path data-name="패스 7230" d="M265.268 407.4h7.384m-22.155 0h7.385m-22.154 0h7.385m-22.155 0h7.384m-22.155 0h7.386" transform="rotate(-4.01 -3398.009 1916.434)" style="stroke-miterlimit:10;fill:none;stroke-width:3px;stroke-linecap:round;stroke:#222"/>
        <path data-name="패스 7231" d="M265.268 420.462h7.384m-22.155 0h7.385m-22.154 0h7.385m-22.155 0h7.384m-22.155 0h7.386" transform="rotate(-4.01 -3362.508 1915.19)" style="stroke-miterlimit:10;fill:none;stroke-width:3px;stroke-linecap:round;stroke:#222"/>
        <g data-name="그룹 628204">
            <g data-name="그룹 628202">
                <path data-name="패스 7232" d="M256.96 428.891a11.061 11.061 0 1 1 11.077-11.061 11.082 11.082 0 0 1-11.077 11.061z" transform="rotate(-4.01 -3447.465 1614.744)" style="fill:#222"/>
            </g>
            <g data-name="그룹 628203">
                <path data-name="패스 7233" d="M255.244 422.263a6.145 6.145 0 1 1 6.153-6.145 6.157 6.157 0 0 1-6.153 6.145z" transform="rotate(-4.01 -3423.87 1589.406)" style="fill:#727272"/>
            </g>
        </g>
        <g data-name="그룹 628207">
            <g data-name="그룹 628205">
                <path data-name="패스 7234" d="M205.637 428.891a11.061 11.061 0 1 1 11.078-11.061 11.081 11.081 0 0 1-11.078 11.061z" transform="rotate(-4.01 -3433.74 2006.583)" style="fill:#222"/>
            </g>
            <g data-name="그룹 628206">
                <path data-name="패스 7235" d="M203.921 422.263a6.145 6.145 0 1 1 6.155-6.145 6.156 6.156 0 0 1-6.155 6.145z" transform="rotate(-4.01 -3410.145 1981.246)" style="fill:#727272"/>
            </g>
        </g>
    </g>
    <g data-name="그룹 631362" transform="translate(101.682 173.392)">
        <g data-name="그룹 631357">
            <path data-name="패스 10587" d="M287.338 151.682a14.86 14.86 0 0 0-7.174-2.787 12.382 12.382 0 0 0-5.129-6.609 20.644 20.644 0 0 0-11.534-3.329 22.924 22.924 0 0 0-2.865.18 17 17 0 0 0-14.269-7.742 16.87 16.87 0 0 0-5.408.877 17.009 17.009 0 0 0-13.133-6.185 17.1 17.1 0 0 0-16.635 20.856c-.087.059-.169.125-.255.187a12.545 12.545 0 0 0-6.1 2.025 7.7 7.7 0 0 0-3.186 4.106 9.232 9.232 0 0 0-4.456 1.731 5.421 5.421 0 0 0-2.367 4.286c0 .631.692 1.143 1.543 1.143h92.291c1.371 0 2.483-.824 2.483-1.84a8.726 8.726 0 0 0-3.806-6.899z" transform="translate(-194.832 -126.088)" style="fill:#afdae9"/>
        </g>
        <g data-name="그룹 631358">
            <path data-name="패스 10588" d="M324.538 169.845z" transform="translate(-228.22 -137.352)" style="fill:none;stroke-width:1.999px;stroke-linejoin:round;stroke-linecap:round;stroke:#222"/>
            <path data-name="패스 10589" d="M291.149 158.582a8.726 8.726 0 0 0-3.811-6.9 14.86 14.86 0 0 0-7.174-2.787 12.382 12.382 0 0 0-5.129-6.609 20.644 20.644 0 0 0-11.534-3.329 22.924 22.924 0 0 0-2.865.18 17 17 0 0 0-14.269-7.742 16.87 16.87 0 0 0-5.408.877 17.009 17.009 0 0 0-13.133-6.185 17.1 17.1 0 0 0-16.635 20.856c-.087.059-.169.125-.255.187a12.545 12.545 0 0 0-6.1 2.025 7.7 7.7 0 0 0-3.186 4.106 9.232 9.232 0 0 0-4.456 1.731 5.421 5.421 0 0 0-2.367 4.286" transform="translate(-194.832 -126.088)" style="fill:none;stroke-width:3px;stroke-linejoin:round;stroke-linecap:round;stroke:#222"/>
        </g>
        <g data-name="그룹 631359">
            <path data-name="패스 10590" d="M275.144 152.565a2.486 2.486 0 0 1 4.316 2.189" transform="translate(-215.505 -132.675)" style="fill:none;stroke-width:3px;stroke-linejoin:round;stroke-linecap:round;stroke:#222"/>
        </g>
        <g data-name="그룹 631360">
            <path data-name="패스 10591" d="M210.238 165.611a2.483 2.483 0 0 1 4.831.229" transform="translate(-198.798 -135.796)" style="fill:none;stroke-width:3px;stroke-linejoin:round;stroke-linecap:round;stroke:#222"/>
        </g>
        <g data-name="그룹 631361">
            <path data-name="패스 10592" d="M247.182 141.036a2.483 2.483 0 0 1 4.831.23" transform="translate(-208.308 -129.471)" style="fill:none;stroke-width:3px;stroke-linejoin:round;stroke-linecap:round;stroke:#222"/>
        </g>
        <ellipse data-name="타원 1220" cx="2.689" cy="2.694" rx="2.689" ry="2.694" transform="translate(24.172 17.331)" style="fill:none;stroke-width:3px;stroke-linejoin:round;stroke-linecap:round;stroke:#222"/>
    </g>
    <g data-name="그룹 631354">
        <g data-name="그룹 631351">
            <path data-name="패스 10580" d="M145.144 190.988a7.991 7.991 0 0 0-4.174-1.883 8.328 8.328 0 0 0-2.984-4.468 10.831 10.831 0 0 0-6.711-2.251 11.293 11.293 0 0 0-3.147.439 9.09 9.09 0 0 0-.706-.661 10.758 10.758 0 0 0-6.936-2.431c-5.47 0-9.921 3.831-9.921 8.54a7.4 7.4 0 0 0 .242 1.886 6.457 6.457 0 0 0-3.325 5.494 1.356 1.356 0 0 0 1.445 1.244h36.989a1.356 1.356 0 0 0 1.445-1.244 6.2 6.2 0 0 0-2.218-4.664z" transform="translate(252.544 11.274)" style="fill:#afdae9;stroke-width:3px;stroke-linejoin:round;stroke-linecap:round;stroke:#222"/>
        </g>
        <g data-name="그룹 631352">
            <path data-name="패스 10581" d="M120.617 194.353a1.956 1.956 0 1 1 3.913 0" transform="translate(251.361 5.236)" style="fill:none;stroke-width:3px;stroke-linejoin:round;stroke-linecap:round;stroke:#222"/>
        </g>
        <g data-name="그룹 631353">
            <path data-name="패스 10582" d="M161.519 201.648a1.956 1.956 0 1 1 3.913 0" transform="translate(221.108 1.994)" style="fill:none;stroke-width:3px;stroke-linejoin:round;stroke-linecap:round;stroke:#222"/>
        </g>
    </g>
    <path data-name="선 223" transform="translate(42.5 208.186)" style="fill:none;stroke-width:3px;stroke-linejoin:round;stroke-linecap:round;stroke:#222" d="M0 0h360"/>
    <g>
        <g data-name="그룹 628201">
            <g data-name="그룹 628193">
                <g data-name="그룹 628192">
                    <path data-name="패스 7222" d="M10.126 1.712A1.714 1.714 0 0 1 11.841 0l29.146.031A1.713 1.713 0 0 1 42.7 1.742V19.91l-7.1 1.552V10.975a1.01 1.01 0 0 0-1.012-1.011H16.117A1.011 1.011 0 0 0 15.1 10.98v14.958L0 28.058z" style="fill:#f4c22d" transform="translate(307.527 125.944)"/>
                </g>
                <path data-name="패스 7224" d="M0 28.681 11.011 1.669c-.038 0 .94-1.649 1.886-1.649L42.153 0a1.713 1.713 0 0 1 1.717 1.711v18.168" transform="translate(306.36 125.975)" style="fill:none;stroke-width:3px;stroke-linejoin:round;stroke-linecap:round;stroke:#222"/>
            </g>
            <path data-name="패스 7226" d="M0 39.277a1.864 1.864 0 0 0 1.87 1.863l68.544-.014a1.864 1.864 0 0 0 1.864-1.864l-.008-37.4A1.863 1.863 0 0 0 70.4 0L1.864 14.924A1.863 1.863 0 0 0 0 16.787z" transform="translate(287.693 144.611)" style="fill:#f4c22d"/>
            <g data-name="그룹 628195">
                <path data-name="패스 7227" d="m2.712 42.824 68.544-.014a2.71 2.71 0 0 0 2.705-2.71l-.008-37.4A2.708 2.708 0 0 0 71.246 0l-.179.019-68.46 14.907A2.71 2.71 0 0 0 0 17.63v22.489a2.71 2.71 0 0 0 2.712 2.705z" style="fill:none;stroke-width:3px;stroke-linejoin:round;stroke-linecap:round;stroke:#222" transform="translate(286.851 143.768)"/>
            </g>
            <g data-name="그룹 628198">
                <path data-name="선 997" transform="translate(287.697 178.377)" style="fill:none;stroke-width:3px;stroke-linejoin:round;stroke-linecap:round;stroke:#222" d="M0 .015 73.05 0"/>
            </g>
            <g data-name="그룹 628199">
                <path data-name="선 998" transform="translate(327.907 151.367)" style="stroke-miterlimit:10;fill:none;stroke-width:3px;stroke-linecap:round;stroke:#222" d="M.005 26.175 0 0"/>
            </g>
            <g data-name="그룹 628200">
                <path data-name="선 999" transform="translate(334.675 162.074)" style="fill:none;stroke-width:3px;stroke-linejoin:round;stroke-linecap:round;stroke:#222" d="M0 .001 5.79 0"/>
            </g>
            <path data-name="패스 10631" d="M34.961 0 9.533.45 0 24.112l.312 18.151 34.649-.028z" transform="translate(311.155 130.029)" style="stroke-width:3px;stroke:#222;fill:#fff"/>
            <path data-name="패스 10630" d="M.133 0 0 43.826" transform="translate(333.798 128.829)" style="fill:none;stroke-width:3px;stroke:#222"/>
            <path data-name="패스 10632" d="M4.282 0H0v10.489c0 .29.136 6.58 5.878 8.861a52.184 52.184 0 0 0 6.675 2.3l.953-4.177a50.8 50.8 0 0 1-6.049-2.108c-3.047-1.21-3.173-4.766-3.177-4.917z" transform="rotate(178.999 149.605 79.69)" style="fill:#222"/>
        </g>
        <g data-name="그룹 628208">
            <path data-name="패스 7229" d="m9.78 24.508 62.715-.013a9.782 9.782 0 0 0 9.773-9.77V9.766A9.782 9.782 0 0 0 72.489 0L9.774.013A9.783 9.783 0 0 0 0 9.783v4.96a9.783 9.783 0 0 0 9.78 9.765z" transform="translate(282.831 188.682)" style="stroke-width:3px;stroke-linejoin:round;stroke-linecap:round;stroke:#222;fill:#fff"/>
            <path data-name="패스 7230" d="M5.054.008H0m15.163 0h-5.054M25.271 0h-5.054M35.38 0h-5.054m15.163 0h-5.055" transform="translate(301.675 195.862)" style="stroke-miterlimit:10;fill:none;stroke-width:3px;stroke-linecap:round;stroke:#222"/>
            <path data-name="패스 7231" d="M5.054.008H0m15.163 0h-5.054M25.271 0h-5.054M35.38 0h-5.054m15.163 0h-5.055" transform="translate(301.678 206.511)" style="stroke-miterlimit:10;fill:none;stroke-width:3px;stroke-linecap:round;stroke:#222"/>
            <g data-name="그룹 628204">
                <g data-name="그룹 628202">
                    <path data-name="패스 7232" d="M7.583 15.152A7.576 7.576 0 1 0 0 7.577a7.588 7.588 0 0 0 7.583 7.575z" transform="translate(290.306 193.576)" style="fill:#222"/>
                </g>
                <g data-name="그룹 628203">
                    <path data-name="패스 7233" d="M4.212 8.418A4.209 4.209 0 1 0 0 4.209a4.216 4.216 0 0 0 4.212 4.209z" transform="translate(293.676 196.943)" style="fill:#727272"/>
                </g>
            </g>
            <g data-name="그룹 628207">
                <g data-name="그룹 628205">
                    <path data-name="패스 7234" d="M7.583 15.152A7.576 7.576 0 1 0 0 7.577a7.587 7.587 0 0 0 7.583 7.575z" transform="translate(344.218 193.565)" style="fill:#222"/>
                </g>
                <g data-name="그룹 628206">
                    <path data-name="패스 7235" d="M4.213 8.418A4.209 4.209 0 1 0 0 4.209a4.215 4.215 0 0 0 4.213 4.209z" style="fill:#727272" transform="translate(347.588 196.932)"/>
                </g>
            </g>
        </g>
        <g data-name="그룹 631449">
            <g data-name="사각형 463065" style="fill:#222;stroke-width:3px;stroke:#222">
                <path style="stroke:none" d="M0 0h47.631v5.887H0z" transform="rotate(144.99 125.06 132.346)"/>
                <path style="fill:none" d="M1.5 1.5h44.631v2.887H1.5z" transform="rotate(144.99 125.06 132.346)"/>
            </g>
            <g data-name="사각형 463066" transform="rotate(144.99 125.468 133.638)" style="fill:#222;stroke-width:3px;stroke:#222">
                <rect width="24.495" height="11.054" rx="2" style="stroke:none"/>
                <rect x="1.5" y="1.5" width="21.495" height="8.054" rx=".5" style="fill:none"/>
            </g>
        </g>
        <path data-name="패스 10628" d="m33.181 0-7.213.275c-2.365 0 2.643 12.458-5.256 21.581S0 32.11 0 32.11a4.281 4.281 0 0 0 4.281 4.281h28.9a4.281 4.281 0 0 0 4.281-4.281V4.281A4.281 4.281 0 0 0 33.181 0z" transform="translate(236.619 176.214)" style="fill:#f4c22d;stroke-width:3px;stroke:#222"/>
    </g>
</svg>
