<svg xmlns="http://www.w3.org/2000/svg" width="444" height="225.002" viewBox="0 0 444 225.002">
    <g transform="translate(39 21.283)">
        <circle data-name="Ellipse 2" cx="57.501" cy="57.501" r="57.501" transform="translate(223.245 -21.283)" style="fill:#dcf5fb"/>
        <circle data-name="Ellipse 2" cx="19.75" cy="19.75" r="19.75" transform="translate(338.247 97.797)" style="fill:#fbf0e3"/>
        <circle data-name="Ellipse 2" cx="23.508" cy="23.508" r="23.508" transform="translate(11.967 117.545)" style="fill:#e4ffe1"/>
        <circle data-name="Ellipse 2" cx="36.254" cy="36.254" r="36.254" transform="translate(74.475 -.034)" style="fill:#e3e6fb"/>
    </g>
    <g data-name="그룹 626423">
        <g data-name="그룹 626422">
            <path data-name="패스 3630" d="M278 393.846 306.9 323h14.513l23.807 37.045h8.871l18.369 33.8z" transform="translate(-134.203 -174.423)" style="stroke-width:3px;stroke-miterlimit:10;stroke:#222;fill:#50ccc6"/>
            <path data-name="패스 3631" d="m258 399.717 18.634-45.912 12.9-.527L304.838 321h19.242l17.7 34.8h14.613l23.623 43.913z" transform="translate(-195.92 -180.295)" style="fill:#e6eaed;stroke-width:3px;stroke-miterlimit:10;stroke:#222"/>
            <path data-name="패스 3632" d="M267.875 335.643H284.6l11.1 21.086" transform="translate(-166.928 -137.306)" style="fill:none;stroke-width:3px;stroke-miterlimit:10;stroke:#222"/>
        </g>
    </g>
    <g transform="translate(245.258 175.582)">
        <g data-name="그룹 631357">
            <path data-name="패스 10587" d="M312.955 158.77a18.974 18.974 0 0 0-9.16-3.558 15.81 15.81 0 0 0-6.549-8.44 26.361 26.361 0 0 0-14.728-4.251 29.273 29.273 0 0 0-3.659.23 21.71 21.71 0 0 0-18.221-9.885 21.542 21.542 0 0 0-6.906 1.12 21.719 21.719 0 0 0-16.77-7.9 21.837 21.837 0 0 0-21.241 26.631c-.111.076-.216.159-.325.238a16.019 16.019 0 0 0-7.783 2.586 9.827 9.827 0 0 0-4.068 5.243 11.789 11.789 0 0 0-5.69 2.21 6.922 6.922 0 0 0-3.023 5.473c0 .806.883 1.459 1.97 1.459H314.65c1.75 0 3.171-1.052 3.171-2.349 0-3.303-1.73-6.431-4.866-8.807z" transform="translate(-194.832 -126.088)" style="fill:#afdae9"/>
        </g>
        <g data-name="그룹 631358">
            <path data-name="패스 10588" d="M324.538 169.845z" transform="translate(-201.549 -128.354)" style="stroke-width:1.999px;stroke-linecap:round;stroke-linejoin:round;fill:none;stroke:#222"/>
            <path data-name="패스 10589" d="M317.821 167.579c0-3.3-1.73-6.433-4.866-8.81a18.974 18.974 0 0 0-9.16-3.558 15.81 15.81 0 0 0-6.549-8.44 26.361 26.361 0 0 0-14.728-4.251 29.273 29.273 0 0 0-3.659.23 21.71 21.71 0 0 0-18.221-9.885 21.542 21.542 0 0 0-6.906 1.12 21.719 21.719 0 0 0-16.77-7.9 21.837 21.837 0 0 0-21.241 26.631c-.111.076-.216.159-.325.238a16.019 16.019 0 0 0-7.783 2.586 9.827 9.827 0 0 0-4.068 5.243 11.789 11.789 0 0 0-5.69 2.21 6.922 6.922 0 0 0-3.023 5.473" transform="translate(-194.832 -126.088)" style="stroke-linecap:round;stroke-linejoin:round;fill:none;stroke-width:3px;stroke:#222"/>
        </g>
        <g data-name="그룹 631359">
            <path data-name="패스 10590" d="M275.144 152.812a3.175 3.175 0 0 1 5.512 2.8" transform="translate(-198.99 -127.413)" style="stroke-linecap:round;stroke-linejoin:round;fill:none;stroke-width:3px;stroke:#222"/>
        </g>
        <g data-name="그룹 631360">
            <path data-name="패스 10591" d="M210.238 166.112a3.171 3.171 0 0 1 6.169.292" transform="translate(-195.63 -128.041)" style="stroke-linecap:round;stroke-linejoin:round;fill:none;stroke-width:3px;stroke:#222"/>
        </g>
        <g data-name="그룹 631361">
            <path data-name="패스 10592" d="M247.182 141.537a3.171 3.171 0 0 1 6.169.293" transform="translate(-197.543 -126.769)" style="stroke-linecap:round;stroke-linejoin:round;fill:none;stroke-width:3px;stroke:#222"/>
        </g>
        <ellipse data-name="타원 1220" cx="3.433" cy="3.44" rx="3.433" ry="3.44" transform="translate(30.865 22.13)" style="stroke-linecap:round;stroke-linejoin:round;fill:none;stroke-width:3px;stroke:#222"/>
    </g>
    <path data-name="선 223" transform="translate(42 220.002)" style="stroke-linecap:round;stroke-linejoin:round;fill:none;stroke-width:3px;stroke:#222" d="M0 0h360"/>
    <g transform="translate(51.519 -139.51)">
        <g data-name="그룹 631405">
            <g data-name="그룹 626423">
                <g data-name="그룹 626422">
                    <path data-name="패스 3630" d="M0 35.408 14.444 0H21.7l11.9 18.515h4.434l9.181 16.894z" transform="rotate(1 -12623.476 11797.359)" style="stroke-width:3px;stroke-miterlimit:10;stroke:#222;fill:#50ccc6"/>
                    <path data-name="패스 3631" d="m0 42.027 9.949-24.512 6.887-.281L25.007 0H35.28l9.448 18.582h7.8l12.614 23.445z" style="fill:#fff;stroke-width:3px;stroke-miterlimit:10;stroke:#222" transform="rotate(-8 1677.717 -1025.319)"/>
                    <path data-name="패스 3632" d="M0 0h8.931l5.926 11.258" transform="rotate(-8 1887.357 -1189.08)" style="fill:none;stroke-width:3px;stroke-miterlimit:10;stroke:#222"/>
                </g>
            </g>
        </g>
        <g data-name="그룹 630170">
            <path data-name="패스 10616" d="M209.491 307.836c-1.086-.813-57.161-51.85-57.161-51.85l115.57-13.961-10.425 43.885z" transform="translate(-5.652 5.636)" style="stroke-linejoin:bevel;fill:#fff;stroke-width:3px;stroke:#222"/>
        </g>
        <path data-name="패스 9062" d="m170.751 275.816 79.332-15.508 2.609-11.092-92.892 16.845z" transform="translate(6.008 12.788)" style="fill:#f4c22d;stroke-width:3px;stroke:#222"/>
        <g data-name="그룹 630178">
            <g data-name="그룹 630175" transform="translate(158.574 314.43)">
                <circle data-name="타원 1223" cx="24.5" cy="24.5" r="24.5" transform="translate(-.593 -.419)" style="fill:#727272;stroke-width:3px;stroke:#222"/>
            </g>
            <g data-name="그룹 631406" transform="translate(167.054 322.91)">
                <circle data-name="타원 1223" cx="12" cy="12" r="12" transform="translate(3.427 3.601)" style="fill:#fff"/>
            </g>
            <g data-name="그룹 631407" transform="translate(178.759 334.615)">
                <circle data-name="타원 1223" cx="5" cy="5" r="5" transform="translate(-1.278 -1.104)" style="fill:#727272"/>
            </g>
        </g>
        <rect data-name="사각형 463035" width="29" height="10" rx="5" transform="translate(280.481 252.513)" style="fill:#fff;stroke-width:3px;stroke:#222"/>
        <path data-name="사각형 463037" d="M0 0h12.855v21.62a6.428 6.428 0 0 1-6.428 6.428A6.428 6.428 0 0 1 0 21.62V0z" transform="rotate(-28 741.528 -310.425)" style="fill:#fff;stroke-width:3px;stroke:#222"/>
        <path data-name="패스 10617" d="m202.542 325.822 57.282-29.022 7.908-36.131 13.215-2.682" style="fill:none;stroke-width:3px;stroke:#222"/>
    </g>
</svg>
