<svg xmlns="http://www.w3.org/2000/svg" width="444" height="216" viewBox="0 0 444 216">
    <g transform="translate(39 33.343)">
        <circle data-name="Ellipse 2" cx="55.5" cy="55.5" r="55.5" transform="translate(-35.033 -33.343)" style="fill:#dcf5fb"/>
        <circle data-name="Ellipse 2" cx="19.517" cy="19.517" r="19.517" transform="translate(333.983 123.895)" style="fill:#fbf0e3"/>
    </g>
    <g data-name="그룹 629928">
        <path data-name="패스 3454" d="M275.277 31.729V16.245a15.15 15.15 0 0 1 10.076-14.26H172.51c-27.293 0-24.562 30.44-24.562 30.44v71.719h107.341a19.987 19.987 0 0 0 19.988-19.988V32.425s-.006-.253 0-.7" style="fill:#fff" transform="translate(41 23.552)"/>
        <path data-name="선 1834" transform="translate(205.234 48.661)" style="stroke-linecap:round;stroke:#f0f2f5;stroke-width:6px;fill:none" d="M0 0h94.756"/>
        <path data-name="선 1835" transform="translate(205.234 72.661)" style="stroke-linecap:round;stroke:#f0f2f5;stroke-width:6px;fill:none" d="M0 0h94.756"/>
        <path data-name="패스 3455" d="M275.277 31.729V16.245a15.15 15.15 0 0 1 10.076-14.26H172.51c-27.293 0-24.562 30.44-24.562 30.44v71.719h107.341a19.987 19.987 0 0 0 19.988-19.988V32.425s-.006-.253 0-.696z" style="stroke-width:3px;stroke-linejoin:round;stroke:#222;stroke-linecap:round;fill:none" transform="translate(41 23.552)"/>
        <path data-name="패스 3457" d="M301.927 33.076V14.289c0-7.064-6-12.789-13.325-12.789s-13.325 5.725-13.325 12.789v18.787z" style="fill:#f0f2f5" transform="translate(41 23.552)"/>
        <path data-name="패스 3458" d="M301.927 33.076V14.289c0-7.064-6-12.789-13.325-12.789s-13.325 5.725-13.325 12.789v18.787z" style="stroke-width:3px;stroke-linejoin:round;stroke:#222;stroke-linecap:round;fill:none" transform="translate(41 23.552)"/>
        <path data-name="패스 3459" d="M233.821 84.156V55.745c0-7.063-6-12.789-13.325-12.789s-13.325 5.726-13.325 12.789v1.02h-90.315v27.391a19.987 19.987 0 0 0 19.988 19.988h116.965a19.987 19.987 0 0 1-19.988-19.988" style="fill:#f0f2f5" transform="translate(41 23.552)"/>
        <path data-name="패스 3460" d="M233.821 84.156V55.745c0-7.063-6-12.789-13.325-12.789s-13.325 5.726-13.325 12.789v1.02h-90.315v27.391a19.987 19.987 0 0 0 19.988 19.988h116.965a19.987 19.987 0 0 1-19.988-19.988z" style="stroke-width:3px;stroke-linejoin:round;stroke:#222;stroke-linecap:round;fill:none" transform="translate(41 23.552)"/>
        <path data-name="패스 3461" d="M207.17 73.185V57.7a15.15 15.15 0 0 1 10.076-14.26H104.4c-27.293 0-24.562 30.44-24.562 30.44v116.137h107.344a19.987 19.987 0 0 0 19.988-19.988V73.881s-.006-.253 0-.7" style="fill:#fff" transform="translate(41 23.552)"/>
        <path data-name="패스 3462" d="M207.17 73.185V57.7a15.15 15.15 0 0 1 10.076-14.26H104.4c-27.293 0-24.562 30.44-24.562 30.44v114.767l107.341 1.37a19.987 19.987 0 0 0 19.988-19.988V73.881s-.003-.253.003-.696z" style="stroke-width:3px;stroke-linejoin:round;stroke:#222;stroke-linecap:round;fill:none" transform="translate(41 23.552)"/>
        <path data-name="패스 3464" d="M187.182 189.959a19.814 19.814 0 0 1-19.988-19.636v-28.364H50.229v28.364a19.814 19.814 0 0 0 19.988 19.636" style="fill:#f0f2f5" transform="translate(41 23.552)"/>
        <path data-name="패스 3465" d="M187.182 189.959a19.814 19.814 0 0 1-19.988-19.636v-28.364H50.229v28.364c0 10.845 9.521 19.636 20.56 19.636" style="stroke-width:3px;stroke-linejoin:round;stroke:#222;stroke-linecap:round;fill:none" transform="translate(41 23.552)"/>
        <path data-name="패스 3466" d="M124.32 100.534v18.424l-9.212-6.5-9.212 6.5v-18.424" style="fill:#f2ac58" transform="translate(41 23.552)"/>
        <path data-name="패스 3467" d="M124.32 100.534v18.424l-9.212-6.5-9.212 6.5v-18.424" style="stroke-width:3px;stroke-linejoin:round;stroke:#222;stroke-linecap:round;fill:none" transform="translate(41 23.552)"/>
        <path data-name="패스 3468" d="M115.139 101.807a18.424 18.424 0 1 1 18.426-18.423 18.443 18.443 0 0 1-18.426 18.423z" style="stroke-width:3px;stroke-linejoin:round;stroke:#222;stroke-linecap:round;fill:none" transform="translate(41 23.552)"/>
        <path data-name="패스 3469" d="M115.14 95.383a12 12 0 1 1 12-12 12.012 12.012 0 0 1-12 12" style="fill:#f2ac58" transform="translate(41 23.552)"/>
        <path data-name="선 1593" transform="translate(189.5 94.901)" style="stroke-linecap:round;stroke:#f0f2f5;stroke-width:6px;fill:none" d="M0 0h42"/>
        <path data-name="선 1832" transform="translate(189.5 119.086)" style="stroke-linecap:round;stroke:#f0f2f5;stroke-width:6px;fill:none" d="M0 0h42"/>
        <path data-name="선 1833" transform="translate(189.5 143.271)" style="stroke-linecap:round;stroke:#f0f2f5;stroke-width:6px;fill:none" d="M0 0h42"/>
    </g>
    <g data-name="그룹 632263">
        <g data-name="그룹 632262">
            <g data-name="그룹 632259" transform="translate(-35.359 -42.489)">
                <path data-name="사각형 463483" transform="translate(301.63 142.731)" style="fill:#fff" d="M0 0h87v43.5H0z"/>
                <path data-name="패스 12041" d="M324.286 186.231H301.63v-43.5h87v43.5h-12.849" style="stroke-width:3px;stroke-linejoin:round;stroke:#222;stroke-linecap:round;fill:none"/>
                <g data-name="그룹 632256">
                    <path data-name="패스 12042" d="M381.38 173.544v-18.125a5.44 5.44 0 0 1-5.438-5.438h-61.625a5.439 5.439 0 0 1-5.437 5.438v18.125a5.439 5.439 0 0 1 5.437 5.437h61.625a5.439 5.439 0 0 1 5.438-5.437z" style="fill:#fcf28d"/>
                </g>
                <g data-name="그룹 632257">
                    <path data-name="패스 12043" d="M366.648 178.981h9.294a5.439 5.439 0 0 1 5.438-5.437v-18.125a5.44 5.44 0 0 1-5.438-5.438h-61.625a5.439 5.439 0 0 1-5.437 5.438v18.125a5.439 5.439 0 0 1 5.437 5.437h10.036" style="stroke-width:3px;stroke-linejoin:round;stroke:#222;stroke-linecap:round;fill:none"/>
                </g>
                <circle data-name="타원 1298" cx="9.063" cy="9.063" r="9.063" transform="translate(336.067 155.419)" style="fill:#fff"/>
                <path data-name="패스 12044" d="M337.868 169.9a9.063 9.063 0 1 1 14.777-.358" style="stroke-width:3px;stroke-linejoin:round;stroke:#222;stroke-linecap:round;fill:none"/>
                <g data-name="그룹 632258">
                    <path data-name="패스 12045" d="m341.468 162.561 1.622 4.252a.38.38 0 0 0 .72-.031l1.175-4.122a.379.379 0 0 1 .728-.007l1.252 4.1a.38.38 0 0 0 .724.011l1.432-4.205" style="stroke-width:2px;stroke-linejoin:round;stroke:#222;stroke-linecap:round;fill:none"/>
                    <path data-name="선 2223" transform="translate(340.735 164.522)" style="stroke-width:2px;stroke-linejoin:round;stroke:#222;stroke-linecap:round;fill:none" d="M0 0h9.119"/>
                </g>
            </g>
            <g data-name="그룹 632261">
                <g data-name="그룹 632260">
                    <path data-name="사각형 463484" transform="translate(295.081 202.622)" style="fill:#afdae9" d="M0 0h38.252v9.995H0z"/>
                    <path data-name="패스 12046" d="M330.44 255.106v-10h38.252v10" style="stroke-width:3px;stroke-linejoin:round;stroke:#222;stroke-linecap:round;fill:none" transform="translate(-35.359 -42.489)"/>
                </g>
                <path data-name="패스 12047" d="M368.531 187.653a4.62 4.62 0 0 0-9.133 0h-.05v-5.266c0-.028.009-.057.009-.087a4.651 4.651 0 0 0-4.641-4.66c-2.563 0-4.613 1.52-4.613 4.094h0v-5.342a4.641 4.641 0 1 0-9.282 0h-.021v3.13a4.633 4.633 0 0 0-9.264.166v36.391l-2.609.8-5.705-14.131a.467.467 0 0 0-.026-.061l-.023-.049a4.633 4.633 0 0 0-4.223-2.983 4.838 4.838 0 0 0-4.633 5.024 5.37 5.37 0 0 0 .39 2.009l8.9 22.052c3 6.323 9.809 7.349 9.809 7.349l-.007 9.024h31.622l.014-9.165a7.493 7.493 0 0 0 3.49-6.243z" style="stroke-width:3px;stroke-linejoin:round;stroke:#222;stroke-linecap:round;fill:#fff" transform="translate(-35.359 -42.489)"/>
                <path data-name="선 2224" transform="translate(305.441 137.031)" style="stroke-width:3px;stroke-linejoin:round;stroke:#222;stroke-linecap:round;fill:#fff" d="M0 0v22.58"/>
                <path data-name="선 2225" transform="translate(314.755 139.245)" style="stroke-width:3px;stroke-linejoin:round;stroke:#222;stroke-linecap:round;fill:#fff" d="M0 0v22.185"/>
                <path data-name="선 2226" transform="translate(324.039 145.164)" style="stroke-width:3px;stroke-linejoin:round;stroke:#222;stroke-linecap:round;fill:#fff" d="M0 0v18.086"/>
            </g>
        </g>
    </g>
    <path data-name="패스 12229" d="M0 0h360" transform="translate(42 214.203)" style="stroke-width:3px;stroke:#222;stroke-linecap:round;fill:none"/>
</svg>
