<svg xmlns="http://www.w3.org/2000/svg" width="444" height="224" viewBox="0 0 444 224">
    <g transform="translate(39 56.281)">
        <path data-name="선 223" transform="translate(3 159.719)" style="stroke-width:3px;stroke-linecap:round;stroke-linejoin:round;stroke:#222;fill:none" d="M0 0h360"/>
        <circle data-name="Ellipse 2" cx="57.501" cy="57.501" r="57.501" transform="translate(197.248 -35.58)" style="fill:#dcf5fb"/>
        <circle data-name="Ellipse 2" cx="15.242" cy="15.242" r="15.242" transform="translate(-3.242 19.234)" style="fill:#fbf0e3"/>
        <circle data-name="Ellipse 2" cx="13.647" cy="13.647" r="13.647" transform="translate(323.25 65.774)" style="fill:rgba(228,255,225,.7)"/>
    </g>
    <path data-name="패스 3409" d="M235.893 498.625H82v-78.771h153.893z" transform="translate(42.742 -282.566)" style="fill:#fff;stroke-width:3px;stroke-linecap:round;stroke-linejoin:round;stroke:#222"/>
    <path data-name="패스 3412" d="M237.641 432.395v4.2H201v-4.2" transform="translate(48.322 -281.978)" style="fill:#50ccc6;stroke-width:3px;stroke-linecap:round;stroke-linejoin:round;stroke:#222"/>
    <path data-name="패스 3413" d="M112.594 432.395v4.2H77v-4.2" transform="translate(42.508 -281.978)" style="fill:#fec76f;stroke-width:3px;stroke-linecap:round;stroke-linejoin:round;stroke:#222"/>
    <path data-name="패스 3414" d="M243.455 435.249H77l14.665-86.123h136.481z" transform="translate(42.508 -285.882)" style="fill:#50ccc6;stroke-width:3px;stroke-linecap:round;stroke-linejoin:round;stroke:#222"/>
    <path data-name="패스 3415" d="M111 437.349V393.2l47.111-44.075 47.109 44.427v43.8" transform="translate(44.102 -285.882)" style="stroke-miterlimit:10;fill:#fff;stroke-width:3px;stroke:#222"/>
    <path data-name="패스 3417" d="M217.518 401.3 158.2 342.1l-6.738 6.722.476-.475-53.696 53.587L98 415.623l60.194-60.075 60.2 60.075z" transform="translate(43.493 -286.212)" style="fill:#50ccc6;stroke-width:3px;stroke-linecap:round;stroke-linejoin:round;stroke:#222"/>
    <g data-name="그룹 2090">
        <path data-name="패스 3420" d="M173.594 435.64v-30.615a17.8 17.8 0 1 0-35.594 0v30.615z" transform="translate(45.368 -284.098)" style="fill:#e4e4e4"/>
    </g>
    <path data-name="사각형 464766" transform="translate(277 156.06)" style="fill:#fff" d="M0 0h4v58.5H0z"/>
    <g data-name="80">
        <g data-name="그룹 398" transform="translate(60 85.205)">
            <path data-name="패스 742" d="M1587.405 2319.46v-61.112h-26.788a1.744 1.744 0 0 1-1.262-2.948l65.125-68.265a2.616 2.616 0 0 1 3.786 0l62.59 65.607a3.317 3.317 0 0 1-2.4 5.606h-23.118v61.33" transform="translate(-1558.869 -2186.324)" style="fill:#fff;stroke-width:3px;stroke-linecap:round;stroke-linejoin:round;stroke:#222"/>
            <rect data-name="사각형 464761" width="81" height="3" rx="1.5" transform="translate(27 132.164)" style="fill:#222"/>
        </g>
        <g data-name="그룹 634202" transform="translate(-1498.869 -2096.119)">
            <circle data-name="타원 37" cx="28.797" cy="28.797" r="28.797" transform="translate(1597.091 2230.035)" style="fill:#fcf28d"/>
            <g data-name="그룹 631477">
                <path data-name="패스 6619" d="M659.889 506.407a1.674 1.674 0 0 1-1.889-1.9V493.7a1.6 1.6 0 0 1 .434-1.169 1.565 1.565 0 0 1 1.167-.441 1.634 1.634 0 0 1 1.186.441 1.557 1.557 0 0 1 .453 1.169v9.8h5a1.839 1.839 0 0 1 1.2.391 1.416 1.416 0 0 1 0 2.129 1.834 1.834 0 0 1-1.2.393z" transform="translate(950.118 1750.772)" style="fill:#222"/>
                <path data-name="패스 6620" d="M670.468 495.037h-3.1a1.908 1.908 0 0 1-1.187-.356 1.262 1.262 0 0 1-.471-1.082 1.249 1.249 0 0 1 .471-1.065 1.931 1.931 0 0 1 1.187-.354h9.413a1.936 1.936 0 0 1 1.175.354 1.238 1.238 0 0 1 .483 1.065 1.251 1.251 0 0 1-.483 1.082 1.913 1.913 0 0 1-1.175.356h-3.125v9.855a1.614 1.614 0 0 1-.425 1.169 1.527 1.527 0 0 1-1.157.441 1.562 1.562 0 0 1-1.167-.441 1.593 1.593 0 0 1-.434-1.169z" transform="translate(951.749 1750.793)" style="fill:#222"/>
                <path data-name="패스 6621" d="m683.783 502.381 3.355-9.2a1.586 1.586 0 0 1 .83-1 1.806 1.806 0 0 1 1.272-.116 1.325 1.325 0 0 1 .917.757 1.573 1.573 0 0 1-.011 1.218l-4.378 11.254a1.971 1.971 0 0 1-.762.922 2.547 2.547 0 0 1-2.489 0 1.864 1.864 0 0 1-.742-.922l-4.4-11.254a1.539 1.539 0 0 1 0-1.218 1.352 1.352 0 0 1 .927-.757 1.778 1.778 0 0 1 1.263.116 1.6 1.6 0 0 1 .82 1l3.356 9.2z" transform="translate(954.194 1750.754)" style="fill:#222"/>
            </g>
            <g data-name="그룹 631478">
                <path data-name="패스 6622" d="M662.093 508a5.7 5.7 0 0 1 1.671.23 4.036 4.036 0 0 1 1.3.65 2.988 2.988 0 0 1 .846 1 2.889 2.889 0 0 1-.141 2.823 2.607 2.607 0 0 1-1.156.973 3.018 3.018 0 0 1 1.52 1.125 2.954 2.954 0 0 1 .554 1.737 3.1 3.1 0 0 1-.34 1.461 3.452 3.452 0 0 1-.95 1.125 4.432 4.432 0 0 1-1.45.727 6.933 6.933 0 0 1-3.705 0 4.409 4.409 0 0 1-1.45-.727 3.416 3.416 0 0 1-.95-1.125 3.1 3.1 0 0 1-.341-1.461 2.947 2.947 0 0 1 .555-1.737 3.01 3.01 0 0 1 1.52-1.125 2.6 2.6 0 0 1-1.156-.973 2.709 2.709 0 0 1-.444-1.537 2.765 2.765 0 0 1 .3-1.285 3.02 3.02 0 0 1 .848-1 4.028 4.028 0 0 1 1.305-.65 5.728 5.728 0 0 1 1.664-.231zm0 10.008a2.746 2.746 0 0 0 .792-.114 2.1 2.1 0 0 0 .665-.33 1.583 1.583 0 0 0 .452-.52 1.449 1.449 0 0 0 .166-.7 1.425 1.425 0 0 0-.166-.69 1.605 1.605 0 0 0-.452-.521 2.007 2.007 0 0 0-.665-.321 2.955 2.955 0 0 0-1.583 0 2.021 2.021 0 0 0-.667.321 1.628 1.628 0 0 0-.451.521 1.436 1.436 0 0 0-.166.69 1.46 1.46 0 0 0 .166.7 1.6 1.6 0 0 0 .451.52 2.119 2.119 0 0 0 .667.33 2.744 2.744 0 0 0 .791.114zm0-5.219a2.035 2.035 0 0 0 .625-.092 1.647 1.647 0 0 0 .515-.259 1.269 1.269 0 0 0 .357-.422 1.229 1.229 0 0 0 0-1.117 1.358 1.358 0 0 0-.357-.429 1.561 1.561 0 0 0-.515-.267 2.177 2.177 0 0 0-1.251 0 1.56 1.56 0 0 0-.515.267 1.359 1.359 0 0 0-.357.429 1.23 1.23 0 0 0 0 1.117 1.27 1.27 0 0 0 .357.422 1.646 1.646 0 0 0 .515.259 2.039 2.039 0 0 0 .626.093z" transform="translate(952.303 1754.887)" style="fill:#222"/>
                <path data-name="패스 6623" d="M672.454 519.951a4.469 4.469 0 0 1-2.124-.458 3.734 3.734 0 0 1-1.377-1.256 5.437 5.437 0 0 1-.753-1.874 11.644 11.644 0 0 1 0-4.606 5.535 5.535 0 0 1 .753-1.883 3.708 3.708 0 0 1 1.377-1.262 5.138 5.138 0 0 1 4.245 0 3.719 3.719 0 0 1 1.378 1.262 5.576 5.576 0 0 1 .753 1.883 11.692 11.692 0 0 1 0 4.606 5.477 5.477 0 0 1-.753 1.874 3.745 3.745 0 0 1-1.378 1.256 4.463 4.463 0 0 1-2.121.458zm0-2.173a1.427 1.427 0 0 0 .95-.306 2.027 2.027 0 0 0 .57-.827 4.569 4.569 0 0 0 .276-1.193 13.559 13.559 0 0 0 0-2.785 4.577 4.577 0 0 0-.276-1.193 2.091 2.091 0 0 0-.57-.833 1.592 1.592 0 0 0-1.9 0 2.074 2.074 0 0 0-.571.833 4.54 4.54 0 0 0-.277 1.193 13.582 13.582 0 0 0 0 2.785 4.532 4.532 0 0 0 .277 1.193 2.01 2.01 0 0 0 .571.827 1.421 1.421 0 0 0 .95.306z" transform="translate(952.395 1754.888)" style="fill:#222"/>
                <path data-name="패스 6624" d="M683.259 511.073a3.379 3.379 0 0 1-.166 1.079 2.3 2.3 0 0 1-.49.849 2.269 2.269 0 0 1-.793.551 2.7 2.7 0 0 1-1.068.2 2.759 2.759 0 0 1-1.077-.2 2.175 2.175 0 0 1-.792-.551 2.362 2.362 0 0 1-.483-.849 3.4 3.4 0 0 1-.167-1.079 3.33 3.33 0 0 1 .167-1.07 2.383 2.383 0 0 1 .483-.842 2.186 2.186 0 0 1 .792-.551 2.777 2.777 0 0 1 1.077-.2 2.713 2.713 0 0 1 1.068.2 2.281 2.281 0 0 1 .793.551 2.324 2.324 0 0 1 .49.842 3.3 3.3 0 0 1 .166 1.07zm-3.326 8.509a.852.852 0 0 1-.364-.711 1.374 1.374 0 0 1 .348-.865l7.413-9.212a1.279 1.279 0 0 1 .808-.5 1.064 1.064 0 0 1 .854.252.888.888 0 0 1 .364.719 1.36 1.36 0 0 1-.348.858l-7.412 9.213a1.248 1.248 0 0 1-.8.489 1.15 1.15 0 0 1-.863-.242zm1.569-8.509a1.706 1.706 0 0 0-.175-.765.664.664 0 0 0-1.172 0 1.707 1.707 0 0 0-.174.765 1.738 1.738 0 0 0 .174.781.664.664 0 0 0 1.172 0 1.737 1.737 0 0 0 .173-.781zm9.107 6.2a3.413 3.413 0 0 1-.166 1.079 2.332 2.332 0 0 1-.491.849 2.276 2.276 0 0 1-.791.551 2.722 2.722 0 0 1-1.069.2 2.783 2.783 0 0 1-1.078-.2 2.193 2.193 0 0 1-.791-.551 2.37 2.37 0 0 1-.482-.849 3.352 3.352 0 0 1-.166-1.079 3.292 3.292 0 0 1 .166-1.072 2.385 2.385 0 0 1 .482-.841 2.191 2.191 0 0 1 .791-.551 2.763 2.763 0 0 1 1.078-.2 2.7 2.7 0 0 1 1.069.2 2.274 2.274 0 0 1 .791.551 2.347 2.347 0 0 1 .491.841 3.352 3.352 0 0 1 .165 1.071zm-1.758 0a1.7 1.7 0 0 0-.174-.766.665.665 0 0 0-1.173 0 1.7 1.7 0 0 0-.173.766 1.743 1.743 0 0 0 .173.781.666.666 0 0 0 1.173 0 1.743 1.743 0 0 0 .173-.782z" transform="translate(952.486 1754.89)" style="fill:#222"/>
            </g>
        </g>
    </g>
    <g>
        <path data-name="패스 3406" d="M24.778 138.091a13.989 13.989 0 0 1-13.072-18.942.2.2 0 0 0-.011-.17 15.019 15.019 0 0 1 2.705-18.222.156.156 0 0 0 .04-.146 10.655 10.655 0 0 1 3.06-10.279 10.562 10.562 0 0 1 7.964-2.867 10.645 10.645 0 0 1 9.668 13.156.149.149 0 0 0 .044.137 15.019 15.019 0 0 1 2.708 18.221.21.21 0 0 0-.008.178 14 14 0 0 1-11.814 18.876q-.647.058-1.284.058z" transform="translate(330.293 66.99)" style="fill:#afece9;stroke-miterlimit:10;stroke-width:3px;stroke:#222"/>
        <path data-name="선 264" transform="translate(355.315 175.976)" style="stroke-width:3px;stroke-linecap:round;stroke-linejoin:round;stroke:#222;fill:none" d="M0 0v40.161"/>
        <path data-name="선 265" transform="translate(355.08 175.837)" style="stroke-width:3px;stroke-linecap:round;stroke-linejoin:round;stroke:#222;fill:none" d="M6.545 0 0 10.719"/>
        <path data-name="선 266" transform="translate(348.136 183.881)" style="stroke-width:3px;stroke-linecap:round;stroke-linejoin:round;stroke:#222;fill:none" d="M6.56 10.71 0 0"/>
    </g>
    <g>
        <g data-name="그룹 628681">
            <path data-name="패스 7685" d="M192 196.967a8.35 8.35 0 0 0 8.083 8.549 8.351 8.351 0 0 0 8.083-8.549v-3.421a8.351 8.351 0 0 0-8.083-8.546 8.349 8.349 0 0 0-8.083 8.547z" transform="translate(101.913 -57.122)" style="stroke-miterlimit:10;fill:#fff;stroke-width:3px;stroke:#222"/>
        </g>
        <g data-name="그룹 628680">
            <path data-name="패스 7682" d="M199.449 200.95c2.565-2.44 4.9-3.833 8.085-4.052h14.522c5.322 0 9.676 4.024 9.676 8.948v32.22h-8.062V270.4h-19.362v-60.972L186.421 228.8 180 222.585z" transform="translate(88.047 -47.374)" style="fill:#fff"/>
            <path data-name="패스 7683" d="M195.86 263.621v-60.91l-8.548 9.26" transform="translate(96.495 -40.657)" style="stroke-miterlimit:10;stroke-width:3px;stroke:#222;fill:none"/>
            <path data-name="패스 7684" d="m184.5 211.976 9.749-11.025c2.565-2.44 4.9-3.833 8.085-4.052h14.522c5.322 0 9.676 4.024 9.676 8.948v32.22h-8.062v32.305" transform="translate(93.247 -47.374)" style="stroke-miterlimit:10;stroke-width:3px;stroke:#222;fill:none"/>
            <path data-name="선 1382" transform="translate(311.717 158.795)" style="stroke-miterlimit:10;stroke-width:3px;stroke:#222;fill:none" d="M0 0v31.897"/>
            <g data-name="패스 15847" style="fill:#f2ac58">
                <path d="M219.585 249.536h-30.09l5.91-34.616h19.435l4.745 34.616z" style="stroke:none" transform="translate(96.965 -41.927)"/>
                <path d="m196.671 216.42-5.398 31.616h26.593l-4.334-31.616h-16.86m-2.532-3h22.009l5.156 37.616h-33.587l6.422-37.616z" style="fill:#222;stroke:none" transform="translate(96.965 -41.927)"/>
            </g>
        </g>
        <g>
            <g data-name="그룹 628685">
                <g data-name="그룹 628684">
                    <path data-name="패스 7691" d="m207.307 228.8 6.426-6.219-19.452-21.631c-2.565-2.44-4.9-3.833-8.085-4.052h-14.52c-5.324 0-9.676 4.024-9.676 8.948v32.22h27.422v-28.638z" transform="translate(67.248 -47.374)" style="fill:#f2ac58"/>
                    <path data-name="사각형 461825" transform="translate(237.31 190.692)" style="fill:#fff" d="M0 0h19.36v32.339H0z"/>
                    <path data-name="선 3052" transform="translate(301.876 206.467)" style="stroke:#383a3a;stroke-miterlimit:10;stroke-width:3px;fill:none" d="M0 16.565V0"/>
                </g>
                <path data-name="패스 7692" d="M189.422 270.4v-60.972l17.885 19.372 6.426-6.219-19.452-21.631c-2.565-2.44-4.9-3.833-8.085-4.052h-14.52c-5.324 0-9.676 4.024-9.676 8.948v32.22h8.062V270.4" transform="translate(67.248 -47.374)" style="stroke-miterlimit:10;stroke-width:3px;stroke:#222;fill:none"/>
                <path data-name="선 1383" transform="translate(237.31 158.795)" style="stroke-miterlimit:10;stroke-width:3px;stroke:#222;fill:none" d="M0 0v31.897"/>
                <path data-name="선 1384" transform="translate(246.989 190.692)" style="stroke-miterlimit:10;stroke-width:3px;stroke:#222;fill:none" d="M0 32.339V0"/>
            </g>
            <g data-name="그룹 628686">
                <path data-name="패스 7693" d="M182.665 196.967a8.351 8.351 0 0 1-8.083 8.549 8.35 8.35 0 0 1-8.083-8.549v-3.421a8.349 8.349 0 0 1 8.083-8.546 8.351 8.351 0 0 1 8.083 8.547z" transform="translate(72.447 -57.122)" style="stroke-miterlimit:10;fill:#fff;stroke-width:3px;stroke:#222"/>
            </g>
        </g>
    </g>
    <path data-name="합치기 19" d="M31.25 22.984a3 3 0 0 1-.9.137H9.144a3.021 3.021 0 0 1-.511-.043 7.891 7.891 0 0 1-.827.043 7.815 7.815 0 0 1-.978-15.567q-.018-.249-.018-.5a7.119 7.119 0 0 1 13.8-2.387 6.623 6.623 0 0 1 10.945 4.954 6.535 6.535 0 0 1-.155 1.409 6.8 6.8 0 0 1 1.3-.124 6.285 6.285 0 0 1 6.44 6.117 6.285 6.285 0 0 1-6.44 6.117 6.786 6.786 0 0 1-1.45-.156z" transform="translate(54.43 35.683)" style="fill:#fff;stroke-width:3px;stroke:#222"/>
    <path data-name="합치기 31" d="M58.594 43.1a3.023 3.023 0 0 1-.468.036H14.308a14.6 14.6 0 0 1-1.794-29.044q-.032-.464-.033-.937A13.014 13.014 0 0 1 37.775 8.7a12 12 0 0 1 7.939-2.992 12.178 12.178 0 0 1 12.117 12.241 12.4 12.4 0 0 1-.281 2.63 12.247 12.247 0 0 1 2.379-.232 11.613 11.613 0 0 1 11.8 11.412 11.614 11.614 0 0 1-11.8 11.413 12.333 12.333 0 0 1-1.335-.072z" transform="translate(325.057 4.09)" style="fill:#fff;stroke-width:3px;stroke:#222"/>
</svg>
