<svg xmlns="http://www.w3.org/2000/svg" width="444" height="236" viewBox="0 0 444 236">
  <defs>
    <style>
      .cls-1 {
        fill: rgba(255,191,191,0.5);
        opacity: 0;
      }

      .cls-2 {
        fill: #dcf5fb;
      }

      .cls-3 {
        fill: #fcf5bd;
      }

      .cls-4 {
        fill: #47bcbf;
      }

      .cls-11, .cls-12, .cls-5, .cls-8 {
        fill: #fff;
      }

      .cls-6 {
        fill: #f4f17a;
      }

      .cls-12, .cls-6, .cls-7, .cls-8, .cls-9 {
        stroke: #222;
        stroke-width: 3px;
      }

      .cls-15, .cls-7 {
        fill: none;
      }

      .cls-7, .cls-8, .cls-9 {
        stroke-linecap: round;
        stroke-linejoin: round;
      }

      .cls-9 {
        fill: #7dd3cf;
      }

      .cls-10 {
        fill: #fcf28d;
      }

      .cls-13, .cls-14 {
        stroke: none;
      }

      .cls-14 {
        fill: #222;
      }
    </style>
  </defs>
  <g id="SWKDIFDT2500_2" transform="translate(-622 -2035)">
    <rect id="BG" class="cls-1" width="444" height="236" transform="translate(622 2035)"/>
    <ellipse id="타원_559" data-name="타원 559" class="cls-2" cx="56" cy="57.5" rx="56" ry="57.5" transform="translate(637 2035)"/>
    <circle id="타원_560" data-name="타원 560" class="cls-3" cx="20" cy="20" r="20" transform="translate(998 2062)"/>
    <g id="그룹_626297" data-name="그룹 626297" transform="translate(674 2110)">
      <g id="그룹_626317" data-name="그룹 626317">
        <g id="풍차" transform="translate(-105.31 -187.736)">
          <g id="패스_7379" data-name="패스 7379" class="cls-4" transform="translate(127.23 280.68)">
            <path class="cls-13" d="M 18.35769462585449 65.89791107177734 L 1.634927272796631 65.89791107177734 L 7.205185413360596 1.308108329772949 L 12.03477573394775 1.308108329772949 L 18.35769462585449 65.89791107177734 Z"/>
            <path class="cls-14" d="M 8.581403732299805 2.80810546875 L 3.269859313964844 64.39791107177734 L 16.70368194580078 64.39791107177734 L 10.67444229125977 2.80810546875 L 8.581403732299805 2.80810546875 M 5.828985214233398 -0.19189453125 L 13.39510726928711 -0.19189453125 L 20.0117073059082 67.39791107177734 L -3.814697265625e-06 67.39791107177734 L 5.828985214233398 -0.19189453125 Z"/>
          </g>
          <g id="패스_7380" data-name="패스 7380" class="cls-5" transform="translate(132.49 232.143)">
            <path class="cls-13" d="M 9.262184143066406 40.90351486206055 L -0.4447174668312073 40.90351486206055 L 0.8482233881950378 5.183715343475342 L 0.84920334815979 5.156595706939697 L 0.84920334815979 5.12945556640625 C 0.84920334815979 3.128165483474731 2.446003437042236 1.500005483627319 4.408733367919922 1.500005483627319 C 6.371463298797607 1.500005483627319 7.968263149261475 3.128165483474731 7.968263149261475 5.12945556640625 L 7.968263149261475 5.156595706939697 L 7.96924352645874 5.183715343475342 L 9.262184143066406 40.90351486206055 Z"/>
            <path class="cls-14" d="M 4.408733367919922 2.999996185302734 C 3.2731032371521 2.999996185302734 2.349203586578369 3.955265045166016 2.349203586578369 5.12945556640625 L 2.347243309020996 5.23797607421875 L 1.110561847686768 39.40350723266602 L 7.706904888153076 39.40350723266602 L 6.468263626098633 5.12945556640625 C 6.468263626098633 3.955265045166016 5.544363021850586 2.999996185302734 4.408733367919922 2.999996185302734 M 4.408733367919922 -3.814697265625e-06 C 7.203033447265625 -3.814697265625e-06 9.468263626098633 2.296535491943359 9.468263626098633 5.12945556640625 L 10.81746292114258 42.40350723266602 L -1.999996185302734 42.40350723266602 L -0.6507968902587891 5.12945556640625 C -0.6507968902587891 2.296535491943359 1.614433288574219 -3.814697265625e-06 4.408733367919922 -3.814697265625e-06 Z"/>
          </g>
          <g id="패스_7382" data-name="패스 7382" class="cls-5" transform="matrix(0.574, 0.819, -0.819, 0.574, 131.391, 272.467)">
            <path class="cls-13" d="M 6.408876895904541 43.91774749755859 C 4.446126937866211 43.9177360534668 2.849316835403442 42.12599563598633 2.84930682182312 39.92365646362305 L 2.84930682182312 39.8983154296875 L 2.848446846008301 39.87298583984375 L 1.551545262336731 1.500009298324585 L 11.26597595214844 1.500032067298889 L 9.969256401062012 39.87301635742188 L 9.96839714050293 39.89834594726562 L 9.96839714050293 39.92367553710938 C 9.96839714050293 41.01366424560547 9.582966804504395 42.03247451782227 8.88310718536377 42.79244613647461 C 8.214837074279785 43.51811599731445 7.336136817932129 43.91774749755859 6.408876895904541 43.91774749755859 Z"/>
            <path class="cls-14" d="M 6.408886909484863 45.41774749755859 L 6.408886909484863 42.41774749755859 C 7.087536811828613 42.41774749755859 7.558996677398682 42.01582717895508 7.779636859893799 41.7762451171875 C 8.223786354064941 41.2939453125 8.46839714050293 40.63602447509766 8.46839714050293 39.92368698120117 L 8.470107078552246 39.82235717773438 L 9.714426040649414 3.000028371810913 L 3.103103399276733 3.000012874603271 L 4.349306583404541 39.92364501953125 C 4.349306583404541 41.29889678955078 5.273226737976074 42.41774749755859 6.408876895904541 42.41774749755859 L 6.408886909484863 45.41774749755859 M 6.408866882324219 45.41774749755859 C 3.614556789398193 45.4177360534668 1.349316716194153 42.95795440673828 1.349306702613831 39.92365646362305 L -3.267059355493984e-06 5.656127996189753e-06 L 12.8175163269043 3.565612860256806e-05 L 11.46839714050293 39.92367553710938 C 11.46840667724609 42.95797729492188 9.203176498413086 45.41775512695312 6.408866882324219 45.41774749755859 Z"/>
          </g>
          <g id="패스_7381" data-name="패스 7381" class="cls-5" transform="matrix(-0.574, 0.819, -0.819, -0.574, 178.545, 298.518)">
            <path class="cls-13" d="M 11.26591968536377 43.91764068603516 L 1.551547765731812 43.91764068603516 L 2.848343849182129 5.544732093811035 L 2.849203824996948 5.519412040710449 L 2.849203824996948 5.494072437286377 C 2.849203824996948 3.291732311248779 4.446003913879395 1.500002264976501 6.40873384475708 1.500002264976501 C 8.371463775634766 1.500002264976501 9.968263626098633 3.291732311248779 9.968263626098633 5.494072437286377 L 9.968263626098633 5.519412040710449 L 9.969123840332031 5.544732093811035 L 11.26591968536377 43.91764068603516 Z"/>
            <path class="cls-14" d="M 6.40873384475708 3.000003814697266 C 5.273103713989258 3.000003814697266 4.349204063415527 4.118843078613281 4.349204063415527 5.494071960449219 L 4.347494125366211 5.595401763916016 L 3.10310173034668 42.41764068603516 L 9.71436595916748 42.41764068603516 L 8.468263626098633 5.494071960449219 C 8.468263626098633 4.118843078613281 7.544363975524902 3.000003814697266 6.40873384475708 3.000003814697266 M 6.40873384475708 3.814697265625e-06 C 9.203033447265625 3.814697265625e-06 11.46826362609863 2.459774017333984 11.46826362609863 5.494071960449219 L 12.81746387481689 45.41764068603516 L 3.814697265625e-06 45.41764068603516 L 1.349204063415527 5.494071960449219 C 1.349204063415527 2.459774017333984 3.614434242248535 3.814697265625e-06 6.40873384475708 3.814697265625e-06 Z"/>
          </g>
          <g id="타원_852" data-name="타원 852" class="cls-6" transform="translate(128.466 269.561)">
            <circle class="cls-13" cx="8.095" cy="8.095" r="8.095"/>
            <circle class="cls-15" cx="8.095" cy="8.095" r="6.595"/>
          </g>
        </g>
        <line id="선_273" data-name="선 273" class="cls-7" x2="360" transform="translate(-10 159)"/>
        <g id="크레인" transform="translate(-189.633 -320.919)">
          <rect id="사각형_461736" data-name="사각형 461736" class="cls-8" width="31.912" height="16.994" rx="1.601" transform="translate(409.784 295.437)"/>
          <path id="패스_7236" data-name="패스 7236" class="cls-8" d="M336.943,310.926V317.3H318.86v-6.373" transform="translate(1.571 15.312)"/>
          <rect id="사각형_461737" data-name="사각형 461737" class="cls-8" width="127.647" height="4.248" rx="1.601" transform="translate(314.048 320.927)"/>
          <rect id="사각형_461738" data-name="사각형 461738" class="cls-8" width="9.574" height="9.559" transform="translate(324.686 370.725)"/>
          <path id="패스_7237" data-name="패스 7237" class="cls-8" d="M383.815,416.569v-7.435a2.126,2.126,0,0,1,2.127-2.124h31.912a2.126,2.126,0,0,1,2.127,2.124v7.435" transform="translate(22.777 46.681)"/>
          <path id="사각형_461739" data-name="사각형 461739" class="cls-8" d="M1.6,0H73.923a1.6,1.6,0,0,1,1.6,1.6V13.807a0,0,0,0,1,0,0H0a0,0,0,0,1,0,0V1.6A1.6,1.6,0,0,1,1.6,0Z" transform="translate(386.382 464.312)"/>
          <line id="선_1000" data-name="선 1000" class="cls-9" y2="127.453" transform="translate(409.784 326.238)"/>
          <line id="선_1001" data-name="선 1001" class="cls-9" y2="127.453" transform="translate(439.568 326.238)"/>
          <line id="선_1002" data-name="선 1002" class="cls-9" y1="22.017" x2="28.721" transform="translate(410.847 325.629)"/>
          <line id="선_1003" data-name="선 1003" class="cls-9" y1="22.017" x2="28.721" transform="translate(410.847 346.716)"/>
          <line id="선_1004" data-name="선 1004" class="cls-9" y1="22.017" x2="28.721" transform="translate(410.847 367.803)"/>
          <line id="선_1005" data-name="선 1005" class="cls-9" y1="22.017" x2="28.721" transform="translate(410.847 388.89)"/>
          <line id="선_1006" data-name="선 1006" class="cls-9" y1="22.017" x2="28.721" transform="translate(410.847 409.978)"/>
          <line id="선_1007" data-name="선 1007" class="cls-9" y1="22.017" x2="28.721" transform="translate(410.847 431.065)"/>
          <line id="선_1008" data-name="선 1008" class="cls-9" x2="28.721" transform="translate(410.847 347.48)"/>
          <line id="선_1009" data-name="선 1009" class="cls-9" x2="28.721" transform="translate(410.847 368.722)"/>
          <line id="선_1010" data-name="선 1010" class="cls-9" x2="28.721" transform="translate(410.847 389.964)"/>
          <line id="선_1011" data-name="선 1011" class="cls-9" x2="28.721" transform="translate(410.847 411.206)"/>
          <line id="선_1012" data-name="선 1012" class="cls-9" x2="28.721" transform="translate(410.847 432.449)"/>
          <line id="선_1013" data-name="선 1013" class="cls-9" y2="38.236" transform="translate(328.941 332.611)"/>
          <line id="선_1014" data-name="선 1014" class="cls-9" y2="3.186" transform="translate(328.941 382.53)"/>
          <path id="패스_7238" data-name="패스 7238" class="cls-7" d="M326.978,356.138a5.517,5.517,0,1,1-5.526,5.517" transform="translate(2.417 30.072)"/>
          <path id="패스_7239" data-name="패스 7239" class="cls-7" d="M314.661,321.307l109.753-57.28,16.568,31.956" transform="translate(0.227)"/>
          <line id="선_1015" data-name="선 1015" class="cls-7" y1="30.801" transform="translate(424.676 264.636)"/>
          <line id="선_1016" data-name="선 1016" class="cls-7" y2="7.435" transform="translate(417.23 313.493)"/>
          <line id="선_1017" data-name="선 1017" class="cls-7" y2="7.435" transform="translate(434.249 313.493)"/>
        </g>
        <g id="머니" transform="translate(-9.484 -14.803)">
          <path id="패스_3320" data-name="패스 3320" class="cls-10" d="M229.5,174.091V134.286h79.611v39.805" transform="translate(30 -0.049)"/>
          <path id="패스_3321" data-name="패스 3321" class="cls-7" d="M309.111,174.091H229.5V134.286h79.611v39.805" transform="translate(30 -0.049)"/>
          <line id="선_219" data-name="선 219" class="cls-7" x2="79.611" transform="translate(259.5 167.077)"/>
          <line id="선_220" data-name="선 220" class="cls-7" x2="79.611" transform="translate(259.5 159.116)"/>
          <line id="선_221" data-name="선 221" class="cls-7" x2="79.611" transform="translate(259.5 151.155)"/>
          <line id="선_222" data-name="선 222" class="cls-7" x2="79.611" transform="translate(259.5 143.194)"/>
          <path id="패스_3322" data-name="패스 3322" class="cls-10" d="M309.111,134.237H229.5l7.158-9.951h65.295Z" transform="translate(30 0)"/>
          <path id="패스_3323" data-name="패스 3323" class="cls-7" d="M309.111,134.237H229.5l7.158-9.951h65.295Z" transform="translate(30 0)"/>
          <path id="패스_3324" data-name="패스 3324" class="cls-11" d="M262.764,133.63l1.21-9.344H275l1.207,9.344" transform="translate(29.838)"/>
          <path id="패스_3325" data-name="패스 3325" class="cls-7" d="M262.764,133.63l1.21-9.344H275l1.207,9.344" transform="translate(29.838)"/>
          <path id="패스_3326" data-name="패스 3326" class="cls-11" d="M263,172.98V134.286h12.937V172.98" transform="translate(29.837 -0.049)"/>
          <path id="패스_3327" data-name="패스 3327" class="cls-7" d="M263,174.091V134.286h12.937v39.805" transform="translate(29.837 -0.049)"/>
        </g>
        <g id="풍차-2" data-name="풍차" transform="translate(-9.953 -154.729)">
          <g id="패스_7379-2" data-name="패스 7379" class="cls-4" transform="translate(117.822 266.916)">
            <path class="cls-13" d="M 12.66018962860107 46.65448760986328 L 1.634921908378601 46.65448760986328 L 5.545619964599609 1.308108448982239 L 8.221070289611816 1.308108448982239 L 12.66018962860107 46.65448760986328 Z"/>
            <path class="cls-14" d="M 6.89321756362915 3.139926910400391 L 3.269857406616211 45.15448760986328 L 11.0061731338501 45.15448760986328 L 6.89321756362915 3.139926910400391 M 4.169416427612305 -0.1918907165527344 L 9.581396102905273 -0.1918907165527344 L 14.31419658660889 48.15448760986328 L -3.814697265625e-06 48.15448760986328 L 4.169416427612305 -0.1918907165527344 Z"/>
          </g>
          <g id="패스_7380-2" data-name="패스 7380" class="cls-5" transform="translate(122.154 232.143)">
            <path class="cls-13" d="M 5.612939834594727 28.83085632324219 L -0.4447205066680908 28.83085632324219 L 0.464099794626236 3.723316192626953 L 0.4650797843933105 3.696196317672729 L 0.4650797843933105 3.669056177139282 C 0.4650797843933105 2.473036289215088 1.415669798851013 1.499996304512024 2.584109783172607 1.499996304512024 C 3.752549886703491 1.499996304512024 4.703139781951904 2.473036289215088 4.703139781951904 3.669056177139282 L 4.703139781951904 3.696196317672729 L 4.704119682312012 3.723316192626953 L 5.612939834594727 28.83085632324219 Z"/>
            <path class="cls-14" d="M 2.584109783172607 2.999996185302734 C 2.242779731750488 2.999996185302734 1.965079784393311 3.300136566162109 1.965079784393311 3.669055938720703 L 1.963119745254517 3.777576446533203 L 1.110558986663818 27.33085632324219 L 4.057660102844238 27.33085632324219 L 3.203139781951904 3.669055938720703 C 3.203139781951904 3.300136566162109 2.925439834594727 2.999996185302734 2.584109783172607 2.999996185302734 M 2.584109783172607 -3.814697265625e-06 C 4.582849979400635 -3.814697265625e-06 6.203139781951904 1.642696380615234 6.203139781951904 3.669055938720703 L 7.168219566345215 30.33085632324219 L -2 30.33085632324219 L -1.034920215606689 3.669055938720703 C -1.034920215606689 1.642696380615234 0.5853695869445801 -3.814697265625e-06 2.584109783172607 -3.814697265625e-06 Z"/>
          </g>
          <g id="패스_7382-2" data-name="패스 7382" class="cls-5" transform="matrix(0.574, 0.819, -0.819, 0.574, 120.799, 260.987)">
            <path class="cls-13" d="M 4.584216594696045 30.98690605163574 L 4.584206581115723 30.98690605163574 C 3.415756464004517 30.98690605163574 2.465156555175781 29.89686584472656 2.465146541595459 28.55702590942383 L 2.465146541595459 28.53169631958008 L 2.46428656578064 28.50636672973633 L 1.551545023918152 1.500000953674316 L 7.616716384887695 1.500020861625671 L 6.704106330871582 28.50639533996582 L 6.703246593475342 28.53171539306641 L 6.703246593475342 28.55705642700195 C 6.703246593475342 29.22921562194824 6.467646598815918 29.85522651672363 6.039856433868408 30.31975555419922 C 5.64366626739502 30.74997520446777 5.126706600189209 30.98690605163574 4.584216594696045 30.98690605163574 Z"/>
            <path class="cls-14" d="M 4.584226608276367 29.48690605163574 C 4.876436710357666 29.48690605163574 5.203246593475342 29.08924674987793 5.203246593475342 28.55705642700195 L 5.204956531524658 28.45573616027832 L 6.065165996551514 3.000015735626221 L 3.103103399276733 3.000005960464478 L 3.965146541595459 28.55702590942383 C 3.965146541595459 29.08923530578613 4.291986465454102 29.48690605163574 4.584206581115723 29.48690605163574 L 4.584226608276367 29.48690605163574 M 4.584206581115723 32.48690414428711 C 2.585466384887695 32.48690414428711 0.9651564955711365 30.72743606567383 0.9651464819908142 28.55703544616699 L -3.527526814650628e-06 -4.113159320695559e-06 L 9.168256759643555 2.588684037618805e-05 L 8.203246116638184 28.55705642700195 C 8.203246116638184 30.72745513916016 6.582956314086914 32.48691558837891 4.584206581115723 32.48690414428711 Z"/>
          </g>
          <g id="패스_7381-2" data-name="패스 7381" class="cls-5" transform="matrix(-0.574, 0.819, -0.819, -0.574, 154.527, 279.62)">
            <path class="cls-13" d="M 7.616675853729248 30.98683738708496 L 1.551544666290283 30.98683738708496 L 2.464220285415649 3.980517625808716 L 2.465080261230469 3.955197811126709 L 2.465080261230469 3.929857730865479 C 2.465080261230469 2.590027809143066 3.415670156478882 1.499997735023499 4.584110260009766 1.499997735023499 C 5.75255012512207 1.499997735023499 6.703140258789062 2.590027809143066 6.703140258789062 3.929857730865479 L 6.703140258789062 3.955197811126709 L 6.704000473022461 3.980517625808716 L 7.616675853729248 30.98683738708496 Z"/>
            <path class="cls-14" d="M 4.584110260009766 2.999998092651367 C 4.291900157928467 2.999998092651367 3.965080261230469 3.39765739440918 3.965080261230469 3.92985725402832 L 3.963370323181152 4.031187057495117 L 3.103099346160889 29.48683738708496 L 6.065121173858643 29.48683738708496 L 5.203140258789062 3.92985725402832 C 5.203140258789062 3.39765739440918 4.876320362091064 2.999998092651367 4.584110260009766 2.999998092651367 M 4.584110260009766 -3.814697265625e-06 C 6.582850456237793 -3.814697265625e-06 8.203140258789062 1.759458541870117 8.203140258789062 3.92985725402832 L 9.168220520019531 32.48683929443359 L 0 32.48683929443359 L 0.9650802612304688 3.92985725402832 C 0.9650802612304688 1.759458541870117 2.585370063781738 -3.814697265625e-06 4.584110260009766 -3.814697265625e-06 Z"/>
          </g>
          <g id="타원_852-2" data-name="타원 852" class="cls-6" transform="translate(118.706 258.908)">
            <circle class="cls-13" cx="5.79" cy="5.79" r="5.79"/>
            <circle class="cls-15" cx="5.79" cy="5.79" r="4.29"/>
          </g>
        </g>
      </g>
    </g>
    <path id="합치기_25" data-name="합치기 25" class="cls-12" d="M62.333,44.978a3.028,3.028,0,0,1-.412.028H14.959q-.1,0-.191-.006a15.212,15.212,0,0,1-1.477-30.3q-.034-.484-.035-.977A13.857,13.857,0,0,1,40.12,9.081a12.892,12.892,0,0,1,21.3,9.646,12.711,12.711,0,0,1-.3,2.744,13.235,13.235,0,0,1,2.526-.242c6.923,0,12.536,5.331,12.536,11.907S70.574,45.043,63.651,45.043Q62.983,45.043,62.333,44.978Z" transform="translate(959.813 2073)"/>
    <path id="합치기_26" data-name="합치기 26" class="cls-12" d="M31.25,22.984a3,3,0,0,1-.9.137H9.144a3.021,3.021,0,0,1-.511-.043,7.891,7.891,0,0,1-.827.043A7.815,7.815,0,0,1,6.828,7.554q-.018-.249-.018-.5a7.119,7.119,0,0,1,13.8-2.387A6.623,6.623,0,0,1,31.555,9.62a6.532,6.532,0,0,1-.153,1.41,6.8,6.8,0,0,1,1.3-.124,6.285,6.285,0,0,1,6.44,6.116A6.285,6.285,0,0,1,32.7,23.14,6.785,6.785,0,0,1,31.25,22.984Z" transform="translate(724.001 2126.43)"/>
  </g>
</svg>
