<svg xmlns="http://www.w3.org/2000/svg" width="444" height="221" viewBox="0 0 444 221">
    <g transform="translate(-622 -2020)">
        <circle data-name="Ellipse 2" cx="13.75" cy="13.75" r="13.75" transform="translate(656.25 2153.25)" style="fill:#dcf5fb"/>
        <circle data-name="Ellipse 2" cx="19.75" cy="19.75" r="19.75" transform="translate(700 2020)" style="fill:#dafdd6"/>
        <circle data-name="Ellipse 2" cx="21" cy="21" r="21" transform="translate(1003 2059.5)" style="fill:#dcf5fb"/>
    </g>
    <g transform="translate(49.144 2.474)">
        <g data-name="사각형 740" transform="translate(227 50.624)" style="stroke-width:3.004px;stroke-linejoin:round;stroke-linecap:round;stroke:#222;fill:#727272">
            <rect width="88" height="157.501" rx="14.718" style="stroke:none"/>
            <rect x="1.502" y="1.502" width="84.996" height="154.497" rx="13.216" style="fill:none"/>
        </g>
        <rect data-name="사각형 742" width="22.794" height="4.896" rx="2.448" transform="translate(259.97 59.193)" style="fill:#fff;stroke-width:3.004px;stroke-linejoin:round;stroke-linecap:round;stroke:#222"/>
        <g data-name="사각형 462995" style="stroke-width:3px;fill:#e9f6fd;stroke:#222">
            <path style="stroke:none" d="M0 0h88v119H0z" transform="translate(227 70.813)"/>
            <path style="fill:none" d="M1.5 1.5h85v116h-85z" transform="translate(227 70.813)"/>
        </g>
        <g data-name="그룹 1751">
            <path data-name="패스 2818" d="M240.126 268.481h34.744a10.975 10.975 0 0 0 10.719-11.214v-31.573h-24.431a10.73 10.73 0 1 0-21.439 0v31.573A10.975 10.975 0 0 1 229 268.481z" style="stroke-width:3px;fill:#fff;stroke-linejoin:round;stroke-linecap:round;stroke:#222" transform="translate(14.894 -124.208)"/>
            <path data-name="패스 2819" d="M318.812 224.686v43.141l-36.965 1.538v22.212h0a11.066 11.066 0 0 1-10 11.081l.027.028c-.127 0-.251-.006-.377-.01s-.245.01-.369.01l.026-.028a10.949 10.949 0 0 1-10-11.081v-43.414h0v-23.477" style="fill:#ededed;stroke-width:3px;stroke-linejoin:round;stroke-linecap:round;stroke:#222" transform="translate(14.894 -124.208)"/>
            <path data-name="패스 2820" d="M282.254 303H317c5.92 0 10.719-5.11 10.719-11.413v-32.136h-24.434c0-6.3-4.8-11.413-10.719-11.413s-10.719 5.11-10.719 11.413v32.136c0 6.3-4.8 11.413-10.719 11.413z" style="stroke-width:3px;fill:#fff;stroke-linejoin:round;stroke-linecap:round;stroke:#222" transform="translate(14.894 -124.208)"/>
            <path data-name="패스 2821" d="M303.285 259.451H347c0-6.3-4.8-11.413-10.719-11.413h-43.715c5.92 0 10.719 5.11 10.719 11.413z" style="stroke-width:3px;fill:#fff;stroke-linejoin:round;stroke-linecap:round;stroke:#222" transform="translate(14.894 -124.208)"/>
            <path data-name="패스 2822" d="M318.812 225.271a10.916 10.916 0 0 0-10.719-11.1h-57.657a10.916 10.916 0 0 1 10.719 11.1v.9" style="fill:#ededed;stroke-width:3px;stroke-linejoin:round;stroke-linecap:round;stroke:#222" transform="translate(14.894 -124.208)"/>
        </g>
        <g data-name="그룹 1752">
            <path data-name="선 784" transform="translate(284.894 103.792)" style="stroke-miterlimit:10;fill:none;stroke-width:3px;stroke-linecap:round;stroke:#222" d="M40 0H0"/>
            <path data-name="선 785" transform="translate(284.894 113.792)" style="stroke-miterlimit:10;fill:none;stroke-width:3px;stroke-linecap:round;stroke:#222" d="M40 0H0"/>
            <path data-name="선 786" transform="translate(284.894 123.792)" style="stroke-miterlimit:10;fill:none;stroke-width:3px;stroke-linecap:round;stroke:#222" d="M40 0H0"/>
            <path data-name="선 787" transform="translate(284.894 133.792)" style="stroke-miterlimit:10;fill:none;stroke-width:3px;stroke-linecap:round;stroke:#222" d="M12 0H0"/>
            <path data-name="선 788" transform="translate(284.894 143.792)" style="stroke-miterlimit:10;fill:none;stroke-width:3px;stroke-linecap:round;stroke:#222" d="M11.277 0H0"/>
            <path data-name="선 789" transform="translate(284.894 153.792)" style="stroke-miterlimit:10;fill:none;stroke-width:3px;stroke-linecap:round;stroke:#222" d="M11.277 0H0"/>
            <path data-name="선 790" transform="translate(284.894 163.792)" style="stroke-miterlimit:10;fill:none;stroke-width:3px;stroke-linecap:round;stroke:#222" d="M11.277 0H0"/>
        </g>
    </g>
    <path data-name="선 686" transform="translate(42 209.599)" style="fill:none;stroke-width:3px;stroke-linejoin:round;stroke-linecap:round;stroke:#222" d="M0 0h360"/>
    <g data-name="그룹 631347">
        <g transform="translate(-156.156 -45.52)">
            <g data-name="사각형 462981" transform="translate(230.156 73.27)" style="stroke-width:3px;fill:#fff;stroke:#222">
                <rect width="147" height="183" rx="8" style="stroke:none"/>
                <rect x="1.5" y="1.5" width="144" height="180" rx="6.5" style="fill:none"/>
            </g>
            <g data-name="사각형 462982" style="fill:#7dd3cf;stroke-width:3px;stroke:#222">
                <path d="M7.5 0h132a7.5 7.5 0 0 1 7.5 7.5A22.5 22.5 0 0 1 124.5 30h-102A22.5 22.5 0 0 1 0 7.5 7.5 7.5 0 0 1 7.5 0z" style="stroke:none" transform="translate(230.156 73.27)"/>
                <path d="M7.552 1.5h131.9a6.052 6.052 0 0 1 6.048 6.052A20.948 20.948 0 0 1 124.552 28.5H22.448A20.948 20.948 0 0 1 1.5 7.552 6.052 6.052 0 0 1 7.552 1.5z" style="fill:none" transform="translate(230.156 73.27)"/>
            </g>
            <g data-name="사각형 462983" style="fill:#7dd3cf;stroke-width:3px;stroke:#222">
                <path d="M22.5 0h102A22.5 22.5 0 0 1 147 22.5a7.5 7.5 0 0 1-7.5 7.5H7.5A7.5 7.5 0 0 1 0 22.5 22.5 22.5 0 0 1 22.5 0z" style="stroke:none" transform="translate(230.156 226.27)"/>
                <path d="M22.448 1.5h102.1A20.948 20.948 0 0 1 145.5 22.448a6.052 6.052 0 0 1-6.052 6.052H7.552A6.052 6.052 0 0 1 1.5 22.448 20.948 20.948 0 0 1 22.448 1.5z" style="fill:none" transform="translate(230.156 226.27)"/>
            </g>
            <path data-name="사각형 462984" transform="translate(302.156 103.27)" style="fill:#222" d="M0 0h3v126H0z"/>
            <g data-name="타원 1217" transform="translate(296.156 81.27)" style="stroke-width:3px;fill:#fff;stroke:#222">
                <circle cx="7.5" cy="7.5" r="7.5" style="stroke:none"/>
                <circle cx="7.5" cy="7.5" r="6" style="fill:none"/>
            </g>
            <rect data-name="사각형 462988" width="37.957" height="9" rx="1.003" transform="rotate(-90 231.191 -17.156)" style="fill:#f5f5f5"/>
        </g>
        <g transform="rotate(-90 165.965 51.965)">
            <rect data-name="사각형 1134" width="152" height="116" rx="5.392" transform="rotate(-90 76.09 75.91)" style="fill:#afdae9;stroke-width:3px;stroke-linejoin:round;stroke-linecap:round;stroke:#222"/>
            <path data-name="패스 3714" d="M327.5 120h-68.335a15.817 15.817 0 0 1-15.834 15.8v103.4a15.817 15.817 0 0 1 15.834 15.8H327.5a15.817 15.817 0 0 1 15.833-15.8V135.8A15.817 15.817 0 0 1 327.5 120z" transform="translate(-235.331 -112)" style="stroke-width:3px;fill:#fff;stroke-linejoin:round;stroke-linecap:round;stroke:#222"/>
            <g data-name="그룹 631344">
                <g data-name="그룹 2267">
                    <path data-name="선 957" transform="translate(57.168 30.5)" style="fill:none;stroke-width:3px;stroke-linejoin:round;stroke-linecap:round;stroke:#222" d="M0 0v42"/>
                    <path data-name="선 958" transform="rotate(90 24.332 54.836)" style="fill:none;stroke-width:3px;stroke-linejoin:round;stroke-linecap:round;stroke:#222" d="M0 0h19.248"/>
                    <path data-name="선 960" transform="rotate(90 18.834 49.334)" style="fill:none;stroke-width:3px;stroke-linejoin:round;stroke-linecap:round;stroke:#222" d="M0 0h32.615"/>
                    <path data-name="선 961" transform="rotate(90 7.834 38.334)" style="fill:none;stroke-width:3px;stroke-linejoin:round;stroke-linecap:round;stroke:#222" d="M0 0h36.998"/>
                    <path data-name="선 962" transform="rotate(90 -12.484 46.652)" style="fill:none;stroke-width:3px;stroke-linejoin:round;stroke-linecap:round;stroke:#222" d="M0 0h17.937"/>
                </g>
                <g data-name="그룹 631346" transform="rotate(90 170.596 -21.991)">
                    <path data-name="패스 3393" d="M272.138 98.631v19.74l9.239-5.7 9.275 5.7v-20" transform="translate(20)" style="fill:#f2ac58"/>
                    <path data-name="패스 3394" d="M272.138 98.631v19.74l9.239-5.7 9.275 5.7v-20" transform="translate(20)" style="fill:none;stroke-width:3px;stroke-linejoin:round;stroke-linecap:round;stroke:#222"/>
                    <circle data-name="타원 567" cx="20" cy="20" r="20" transform="translate(281 59.5)" style="fill:none;stroke-width:3px;stroke-linejoin:round;stroke-linecap:round;stroke:#222"/>
                    <path data-name="패스 3395" d="M281 66.8a12.7 12.7 0 1 0 12.7 12.7A12.712 12.712 0 0 0 281 66.8" transform="translate(20)" style="fill:#f2ac58"/>
                </g>
            </g>
        </g>
    </g>
</svg>
