<svg xmlns="http://www.w3.org/2000/svg" xmlns:xlink="http://www.w3.org/1999/xlink" width="444" height="226" viewBox="0 0 444 226">
  <defs>
    <style>
      .cls-1, .cls-16, .cls-6 {
        fill: none;
      }

      .cls-2 {
        fill: rgba(255,191,191,0.5);
        opacity: 0;
      }

      .cls-3 {
        fill: #dcf5fb;
      }

      .cls-4 {
        fill: #fbf0e3;
      }

      .cls-11, .cls-5 {
        fill: #fff;
      }

      .cls-11, .cls-12, .cls-13, .cls-16, .cls-6, .cls-9 {
        stroke: #222;
        stroke-width: 3px;
      }

      .cls-16, .cls-6 {
        stroke-linecap: round;
      }

      .cls-6 {
        stroke-linejoin: round;
      }

      .cls-7 {
        fill: #f2ac58;
      }

      .cls-15, .cls-8, .cls-9 {
        fill: #fcf28d;
      }

      .cls-10 {
        clip-path: url(#clip-path);
      }

      .cls-12 {
        fill: #afece9;
      }

      .cls-12, .cls-13 {
        stroke-miterlimit: 10;
      }

      .cls-13 {
        fill: #47bcbf;
      }

      .cls-14 {
        fill: #222;
      }

      .cls-17, .cls-18 {
        stroke: none;
      }

      .cls-18 {
        fill: #222;
      }
    </style>
    <clipPath id="clip-path">
      <rect id="사각형_461121" data-name="사각형 461121" class="cls-1" width="214" height="96" transform="translate(0 0.251)"/>
    </clipPath>
  </defs>
  <g id="SWKDIFDT2400_1" transform="translate(39 44.282)">
    <g id="deco">
      <rect id="BG" class="cls-2" width="444" height="226" transform="translate(-39 -44.282)"/>
      <circle id="타원_561" data-name="타원 561" class="cls-3" cx="27.5" cy="27.5" r="27.5" transform="translate(-4 33.718)"/>
      <circle id="타원_562" data-name="타원 562" class="cls-4" cx="49" cy="49" r="49" transform="translate(266 -44.282)"/>
    </g>
    <g id="img">
      <g id="문서" transform="translate(36.753 19.136)">
        <path id="패스_3263" data-name="패스 3263" class="cls-5" d="M56.557,160.263V4.18A2.679,2.679,0,0,1,59.252,1.5l11.16.067,97.681-.07,18.523,19.032V159.916"/>
        <path id="패스_3264" data-name="패스 3264" class="cls-6" d="M56.557,160.263V4.18A2.679,2.679,0,0,1,59.252,1.5l11.16.067,97.681-.07,18.523,19.032V159.916"/>
        <line id="선_193" data-name="선 193" class="cls-6" x2="66.911" transform="translate(77.836 123.668)"/>
        <line id="선_194" data-name="선 194" class="cls-6" x2="73.911" transform="translate(77.836 107.057)"/>
        <line id="선_195" data-name="선 195" class="cls-6" x2="57.363" transform="translate(77.836 140.278)"/>
        <path id="패스_3265" data-name="패스 3265" class="cls-6" d="M176.339,2.441l-.012,16.632a2.774,2.774,0,0,0,2.734,2.813h16.711" transform="translate(-9.245 -0.073)"/>
        <g id="그룹_626274" data-name="그룹 626274" transform="translate(77.836 21.813)">
          <path id="패스_2654" data-name="패스 2654" class="cls-7" d="M318.279,135.464v20.353l-10.154-7.184-10.154,7.184V135.464" transform="translate(-287.854 -96.164)"/>
          <path id="패스_2655" data-name="패스 2655" class="cls-6" d="M318.279,135.464v20.353l-10.154-7.184-10.154,7.184V135.464" transform="translate(-287.854 -96.164)"/>
          <path id="패스_2656" data-name="패스 2656" class="cls-5" d="M310.306,145.206a20.353,20.353,0,1,1,20.309-20.352,20.351,20.351,0,0,1-20.309,20.352" transform="translate(-290 -104.5)"/>
          <path id="패스_2657" data-name="패스 2657" class="cls-6" d="M310.306,145.206a20.353,20.353,0,1,1,20.309-20.352A20.351,20.351,0,0,1,310.306,145.206Z" transform="translate(-290 -104.5)"/>
          <path id="패스_2658" data-name="패스 2658" class="cls-7" d="M308.8,136.6a13.256,13.256,0,1,1,13.228-13.256A13.255,13.255,0,0,1,308.8,136.6" transform="translate(-288.498 -102.995)"/>
          <path id="패스_2659" data-name="패스 2659" class="cls-1" d="M308.8,136.6a13.256,13.256,0,1,1,13.228-13.256A13.255,13.255,0,0,1,308.8,136.6Z" transform="translate(-288.498 -102.995)"/>
        </g>
      </g>
      <g id="동전탑" transform="translate(-6.151 0.787)">
        <path id="패스_2802" data-name="패스 2802" class="cls-5" d="M112.311,128.134A27.534,27.534,0,1,1,84.776,100.6a27.534,27.534,0,0,1,27.534,27.533"/>
        <circle id="타원_557" data-name="타원 557" class="cls-6" cx="27.533" cy="27.533" r="27.533" transform="translate(57.244 100.601)"/>
        <path id="패스_2803" data-name="패스 2803" class="cls-8" d="M106.147,128.044A21.058,21.058,0,1,1,85.09,106.986a21.058,21.058,0,0,1,21.058,21.058" transform="translate(0.019 0.017)"/>
        <path id="패스_2804" data-name="패스 2804" class="cls-6" d="M74.962,123.487l4.28,11.221a1,1,0,0,0,1.9-.083l3.1-10.878a1,1,0,0,1,1.923-.018l3.305,10.826a1,1,0,0,0,1.908.03l3.779-11.1" transform="translate(0.049 0.061)"/>
        <line id="선_79" data-name="선 79" class="cls-6" x2="24.066" transform="translate(73.076 128.724)"/>
        <path id="패스_2805" data-name="패스 2805" class="cls-5" d="M57.244,167.251V155.218H112.31v12.033" transform="translate(0 0.15)"/>
        <path id="패스_2806" data-name="패스 2806" class="cls-6" d="M57.244,167.251V155.218H112.31v12.033" transform="translate(0 0.15)"/>
        <line id="선_80" data-name="선 80" class="cls-6" y2="5.736" transform="translate(70.536 155.668)"/>
        <path id="패스_2807" data-name="패스 2807" class="cls-5" d="M57.244,178.43V166.958H112.31V178.43" transform="translate(0 0.182)"/>
        <path id="패스_2808" data-name="패스 2808" class="cls-6" d="M57.244,178.43V166.958H112.31V178.43" transform="translate(0 0.182)"/>
        <line id="선_81" data-name="선 81" class="cls-6" y2="5.736" transform="translate(70.536 167.14)"/>
      </g>
      <g id="어린이집" transform="translate(145 99.799)">
        <g id="그룹_626341" data-name="그룹 626341" transform="translate(-3)">
          <path id="사각형_461155" data-name="사각형 461155" class="cls-9" d="M10.95,0h0A10.95,10.95,0,0,1,21.9,10.95v13.78a0,0,0,0,1,0,0H0a0,0,0,0,1,0,0V10.95A10.95,10.95,0,0,1,10.95,0Z" transform="translate(89.727 55.303)"/>
        </g>
        <path id="패스_3401" data-name="패스 3401" class="cls-5" d="M179.624,71.876,133.083,26.793,86.531,71.876l0,34.461h93.1Z" transform="translate(-35.434 -25.304)"/>
        <g id="그룹_626288" data-name="그룹 626288" transform="translate(0 -14.333)">
          <g id="그룹_626287" data-name="그룹 626287" class="cls-10">
            <path id="패스_3402" data-name="패스 3402" class="cls-6" d="M179.624,71.876,133.083,26.793,86.531,71.876l0,34.461h93.1Z" transform="translate(-35.434 -10.972)"/>
          </g>
        </g>
        <path id="패스_3403" data-name="패스 3403" class="cls-7" d="M182.066,54.01l-49.454-47.8L127.736,1.5l-4.572,4.429L73.415,54.01l7.746,7.508,46.58-45.028,46.58,45.028Z" transform="translate(-30.064 -14.947)"/>
        <g id="그룹_626290" data-name="그룹 626290" transform="translate(0 -14.333)">
          <g id="그룹_626289" data-name="그룹 626289" class="cls-10">
            <path id="패스_3404" data-name="패스 3404" class="cls-6" d="M182.066,54.01l-49.454-47.8L127.736,1.5l-4.572,4.429L73.415,54.01l7.746,7.508,46.58-45.028,46.58,45.028Z" transform="translate(-30.064 -0.614)"/>
            <g id="타원_572" data-name="타원 572" class="cls-9" transform="translate(87.526 31.344)">
              <circle class="cls-17" cx="10.038" cy="10.038" r="10.038"/>
              <circle class="cls-1" cx="10.038" cy="10.038" r="8.538"/>
            </g>
          </g>
        </g>
        <path id="사각형_461123" data-name="사각형 461123" class="cls-11" d="M10.95,0h0A10.95,10.95,0,0,1,21.9,10.95v13.78a0,0,0,0,1,0,0H0a0,0,0,0,1,0,0V10.95A10.95,10.95,0,0,1,10.95,0Z" transform="translate(86.727 55.303)"/>
        <g id="그룹_626294" data-name="그룹 626294" transform="translate(106.535 -17.421)">
          <g id="그룹_626339" data-name="그룹 626339" transform="translate(26.014 37.34)">
            <g id="나무">
              <path id="패스_3406" data-name="패스 3406" class="cls-12" d="M20.985,125.3a10.455,10.455,0,0,1-9.77-14.156.148.148,0,0,0-.008-.127,11.224,11.224,0,0,1,2.024-13.619.116.116,0,0,0,.03-.109A7.963,7.963,0,0,1,15.542,89.6a7.894,7.894,0,0,1,5.952-2.143,7.956,7.956,0,0,1,7.225,9.832.111.111,0,0,0,.033.1,11.224,11.224,0,0,1,2.024,13.618.157.157,0,0,0-.006.133,10.466,10.466,0,0,1-8.829,14.108Q21.461,125.3,20.985,125.3Z" transform="translate(-9.764 -87.444)"/>
              <line id="선_264" data-name="선 264" class="cls-6" y2="30.015" transform="translate(11.403 16.099)"/>
              <line id="선_265" data-name="선 265" class="cls-6" x1="4.892" y2="8.011" transform="translate(11.228 15.996)"/>
              <line id="선_266" data-name="선 266" class="cls-6" x1="4.903" y1="8.004" transform="translate(6.038 22.007)"/>
            </g>
            <g id="나무-2" data-name="나무" transform="translate(26.776 21.769)">
              <path id="패스_3405" data-name="패스 3405" class="cls-13" d="M55.221,141.888a7.559,7.559,0,0,1-.864-.049A7.447,7.447,0,0,1,49.41,129.8a1.766,1.766,0,0,0,.41-1.338,5.363,5.363,0,0,1-.051-.737,5.47,5.47,0,0,1,10.8-1.221,5.524,5.524,0,0,1,.089,1.933,1.771,1.771,0,0,0,.394,1.348,7.448,7.448,0,0,1-5.833,12.1Z" transform="translate(-47.786 -122.257)"/>
              <line id="선_263" data-name="선 263" class="cls-6" y1="4.377" transform="translate(7.637 19.968)"/>
            </g>
          </g>
        </g>
        <g id="그룹_626328" data-name="그룹 626328" transform="translate(95.842 -31)">
          <rect id="사각형_461154" data-name="사각형 461154" class="cls-14" width="3" height="17" transform="translate(0.158 -0.082)"/>
          <g id="다각형_1" data-name="다각형 1" class="cls-15" transform="translate(20.158 -4.082) rotate(90)">
            <path class="cls-17" d="M 15.6801233291626 18.49999809265137 L 2.319872617721558 18.49999809265137 L 9 3.655286073684692 L 15.6801233291626 18.49999809265137 Z"/>
            <path class="cls-18" d="M 8.999999046325684 7.310563087463379 L 4.639754295349121 16.99999809265137 L 13.36024856567383 16.99999809265137 L 8.999999046325684 7.310563087463379 M 9 0.7184314727783203 C 9.183757781982422 0.7184314727783203 9.367514610290527 0.8167037963867188 9.455960273742676 1.013248443603516 L 17.68267059326172 19.29481887817383 C 17.8315601348877 19.62568855285645 17.58954048156738 19.99999809265137 17.22670936584473 19.99999809265137 L 0.7732906341552734 19.99999809265137 C 0.4104595184326172 19.99999809265137 0.1684398651123047 19.62568855285645 0.3173294067382812 19.29481887817383 L 8.544039726257324 1.013248443603516 C 8.632485389709473 0.8167037963867188 8.816242218017578 0.7184314727783203 9 0.7184314727783203 Z"/>
          </g>
        </g>
        <g id="그룹_626340" data-name="그룹 626340" transform="translate(120.126 65.313)">
          <path id="패스_3561" data-name="패스 3561" class="cls-8" d="M89.48,149.9v-10.36c0-2.407-2.479-4.359-5.536-4.359s-5.536,1.952-5.536,4.359V149.9Z" transform="translate(-78.408 -135.186)"/>
          <path id="패스_3562" data-name="패스 3562" class="cls-7" d="M100.552,149.9v-10.36c0-2.407-2.479-4.359-5.536-4.359s-5.536,1.952-5.536,4.359V149.9Z" transform="translate(-78.408 -135.186)"/>
          <path id="패스_3563" data-name="패스 3563" class="cls-7" d="M122.7,149.9v-10.36c0-2.407-2.479-4.359-5.536-4.359s-5.536,1.952-5.536,4.359V149.9Z" transform="translate(-78.408 -135.186)"/>
          <path id="패스_3564" data-name="패스 3564" class="cls-8" d="M111.625,149.9v-10.36c0-2.407-2.479-4.359-5.536-4.359s-5.536,1.952-5.536,4.359V149.9Z" transform="translate(-78.408 -135.186)"/>
          <path id="패스_3565" data-name="패스 3565" class="cls-7" d="M144.842,149.9v-10.36c0-2.407-2.479-4.359-5.536-4.359s-5.536,1.952-5.536,4.359V149.9Z" transform="translate(-78.408 -135.186)"/>
          <path id="패스_3566" data-name="패스 3566" class="cls-8" d="M133.77,149.9v-10.36c0-2.407-2.479-4.359-5.536-4.359s-5.536,1.952-5.536,4.359V149.9Z" transform="translate(-78.408 -135.186)"/>
        </g>
        <g id="그룹_628325" data-name="그룹 628325" transform="translate(6.794 65.313)">
          <path id="패스_3562-2" data-name="패스 3562" class="cls-7" d="M100.552,149.9v-10.36c0-2.407-2.479-4.359-5.536-4.359s-5.536,1.952-5.536,4.359V149.9Z" transform="translate(-78.408 -135.186)"/>
          <path id="패스_3563-2" data-name="패스 3563" class="cls-7" d="M122.7,149.9v-10.36c0-2.407-2.479-4.359-5.536-4.359s-5.536,1.952-5.536,4.359V149.9Z" transform="translate(-78.408 -135.186)"/>
          <path id="패스_3564-2" data-name="패스 3564" class="cls-8" d="M111.625,149.9v-10.36c0-2.407-2.479-4.359-5.536-4.359s-5.536,1.952-5.536,4.359V149.9Z" transform="translate(-78.408 -135.186)"/>
          <path id="패스_3565-2" data-name="패스 3565" class="cls-7" d="M144.842,149.9v-10.36c0-2.407-2.479-4.359-5.536-4.359s-5.536,1.952-5.536,4.359V149.9Z" transform="translate(-78.408 -135.186)"/>
          <path id="패스_3566-2" data-name="패스 3566" class="cls-8" d="M133.77,149.9v-10.36c0-2.407-2.479-4.359-5.536-4.359s-5.536,1.952-5.536,4.359V149.9Z" transform="translate(-78.408 -135.186)"/>
        </g>
      </g>
      <path id="line" class="cls-16" d="M0,0H360" transform="translate(3 180.218)"/>
    </g>
  </g>
</svg>
