<svg xmlns="http://www.w3.org/2000/svg" width="444" height="221" viewBox="0 0 444 221">
  <defs>
    <style>
      .cls-1 {
        fill: rgba(255,191,191,0.5);
        opacity: 0;
      }

      .cls-2 {
        fill: #dcf5fb;
      }

      .cls-3 {
        fill: #fbf0e3;
      }

      .cls-4 {
        fill: #e3e6fb;
      }

      .cls-10, .cls-11, .cls-12, .cls-5 {
        fill: #fff;
      }

      .cls-10, .cls-14, .cls-15, .cls-16, .cls-18, .cls-21, .cls-5, .cls-6, .cls-7, .cls-8 {
        stroke: #222;
        stroke-width: 3px;
      }

      .cls-13, .cls-6 {
        fill: #e9f6fd;
      }

      .cls-7 {
        fill: #fcf28d;
      }

      .cls-8 {
        fill: #f2ac58;
      }

      .cls-9 {
        fill: #f8fafb;
      }

      .cls-10, .cls-14, .cls-21 {
        stroke-linecap: round;
      }

      .cls-10, .cls-21 {
        stroke-linejoin: round;
      }

      .cls-14, .cls-18, .cls-21, .cls-23 {
        fill: none;
      }

      .cls-15 {
        fill: #727272;
      }

      .cls-16 {
        fill: #afdae9;
      }

      .cls-17, .cls-19 {
        fill: #50ccc6;
      }

      .cls-20 {
        fill: #222;
      }

      .cls-22, .cls-24 {
        stroke: none;
      }

      .cls-24 {
        fill: #222;
      }
    </style>
  </defs>
  <g id="SWKDIFDT4000_1" transform="translate(38 33.282)">
    <g id="deco">
      <rect id="BG" class="cls-1" width="444" height="221" transform="translate(-38 -33.282)"/>
      <circle id="타원_561" data-name="타원 561" class="cls-2" cx="16" cy="16" r="16" transform="translate(347 -33.282)"/>
      <circle id="타원_562" data-name="타원 562" class="cls-3" cx="59" cy="59" r="59" transform="translate(-3 9.718)"/>
      <circle id="타원_561-2" data-name="타원 561" class="cls-4" cx="20.5" cy="20.5" r="20.5" transform="translate(306 48.718)"/>
    </g>
    <g id="img" transform="translate(49)">
      <g id="모니터" transform="translate(4871.979 -8575.135)">
        <g id="사각형_463000" data-name="사각형 463000" class="cls-5" transform="translate(-4706.979 8719.853)">
          <rect class="cls-22" width="32" height="35" rx="8"/>
          <rect class="cls-23" x="1.5" y="1.5" width="29" height="32" rx="6.5"/>
        </g>
        <g id="사각형_462998" data-name="사각형 462998" class="cls-6" transform="translate(-4779.979 8597.853)">
          <rect class="cls-22" width="178" height="134" rx="8"/>
          <rect class="cls-23" x="1.5" y="1.5" width="175" height="131" rx="6.5"/>
        </g>
        <g id="사각형_462999" data-name="사각형 462999" class="cls-5" transform="translate(-4732.979 8746.853)">
          <rect class="cls-22" width="85" height="16" rx="8"/>
          <rect class="cls-23" x="1.5" y="1.5" width="82" height="13" rx="6.5"/>
        </g>
        <g id="사각형_463003" data-name="사각형 463003" class="cls-5" transform="translate(-4779.979 8711.853)">
          <rect class="cls-22" width="178" height="3" rx="1.5"/>
          <rect class="cls-23" x="1.5" y="1.5" width="175"/>
        </g>
        <g id="지붕" transform="translate(-4942.174 8483.429)">
          <g id="사각형_463007" data-name="사각형 463007" class="cls-7" transform="translate(162.195 114.424)">
            <path class="cls-22" d="M5.25,0H28a0,0,0,0,1,0,0V18A14,14,0,0,1,14,32h0A14,14,0,0,1,0,18V5.25A5.25,5.25,0,0,1,5.25,0Z"/>
            <path class="cls-23" d="M5.379,1.5H26.5a0,0,0,0,1,0,0V18A12.5,12.5,0,0,1,14,30.5h0A12.5,12.5,0,0,1,1.5,18V5.379A3.879,3.879,0,0,1,5.379,1.5Z"/>
          </g>
          <g id="사각형_463008" data-name="사각형 463008" class="cls-8" transform="translate(187.195 114.424)">
            <path class="cls-22" d="M0,0H28a0,0,0,0,1,0,0V18A14,14,0,0,1,14,32h0A14,14,0,0,1,0,18V0A0,0,0,0,1,0,0Z"/>
            <path class="cls-23" d="M1.5,1.5h25a0,0,0,0,1,0,0V18A12.5,12.5,0,0,1,14,30.5h0A12.5,12.5,0,0,1,1.5,18V1.5A0,0,0,0,1,1.5,1.5Z"/>
          </g>
          <g id="사각형_463009" data-name="사각형 463009" class="cls-7" transform="translate(212.195 114.424)">
            <path class="cls-22" d="M0,0H28a0,0,0,0,1,0,0V18A14,14,0,0,1,14,32h0A14,14,0,0,1,0,18V0A0,0,0,0,1,0,0Z"/>
            <path class="cls-23" d="M1.5,1.5h25a0,0,0,0,1,0,0V18A12.5,12.5,0,0,1,14,30.5h0A12.5,12.5,0,0,1,1.5,18V1.5A0,0,0,0,1,1.5,1.5Z"/>
          </g>
          <g id="사각형_463027" data-name="사각형 463027" class="cls-8" transform="translate(237.195 114.424)">
            <path class="cls-22" d="M0,0H28a0,0,0,0,1,0,0V18A14,14,0,0,1,14,32h0A14,14,0,0,1,0,18V0A0,0,0,0,1,0,0Z"/>
            <path class="cls-23" d="M1.5,1.5h25a0,0,0,0,1,0,0V18A12.5,12.5,0,0,1,14,30.5h0A12.5,12.5,0,0,1,1.5,18V1.5A0,0,0,0,1,1.5,1.5Z"/>
          </g>
          <g id="사각형_463028" data-name="사각형 463028" class="cls-7" transform="translate(262.195 114.424)">
            <path class="cls-22" d="M0,0H28a0,0,0,0,1,0,0V18A14,14,0,0,1,14,32h0A14,14,0,0,1,0,18V0A0,0,0,0,1,0,0Z"/>
            <path class="cls-23" d="M1.5,1.5h25a0,0,0,0,1,0,0V18A12.5,12.5,0,0,1,14,30.5h0A12.5,12.5,0,0,1,1.5,18V1.5A0,0,0,0,1,1.5,1.5Z"/>
          </g>
          <g id="사각형_463030" data-name="사각형 463030" class="cls-8" transform="translate(287.195 114.424)">
            <path class="cls-22" d="M0,0H28a0,0,0,0,1,0,0V18A14,14,0,0,1,14,32h0A14,14,0,0,1,0,18V0A0,0,0,0,1,0,0Z"/>
            <path class="cls-23" d="M1.5,1.5h25a0,0,0,0,1,0,0V18A12.5,12.5,0,0,1,14,30.5h0A12.5,12.5,0,0,1,1.5,18V1.5A0,0,0,0,1,1.5,1.5Z"/>
          </g>
          <g id="사각형_463029" data-name="사각형 463029" class="cls-7" transform="translate(312.195 114.424)">
            <path class="cls-22" d="M0,0H22.75A5.25,5.25,0,0,1,28,5.25V18A14,14,0,0,1,14,32h0A14,14,0,0,1,0,18V0A0,0,0,0,1,0,0Z"/>
            <path class="cls-23" d="M1.5,1.5H22.621A3.879,3.879,0,0,1,26.5,5.379V18A12.5,12.5,0,0,1,14,30.5h0A12.5,12.5,0,0,1,1.5,18V1.5A0,0,0,0,1,1.5,1.5Z"/>
          </g>
        </g>
        <path id="사각형_463034" data-name="사각형 463034" class="cls-9" d="M10,0H20a0,0,0,0,1,0,0V20a0,0,0,0,1,0,0H0a0,0,0,0,1,0,0V10A10,10,0,0,1,10,0Z" transform="translate(-4615.979 8674.853)"/>
        <path id="패스_1661" data-name="패스 1661" class="cls-10" d="M312.005,227.491l23.268-.01-3,12.317,22.6-15.767-22.6-15.767,3,12.317-23.268,0Z" transform="matrix(-0.707, -0.707, 0.707, -0.708, -4613.09, 9063.119)"/>
        <rect id="사각형_463036" data-name="사각형 463036" class="cls-11" width="170" height="14" transform="translate(-4773.979 8714.853)"/>
      </g>
      <g id="트럭" transform="translate(-266 -153.643)">
        <g id="패스_10596" data-name="패스 10596" class="cls-12" transform="translate(230 274.06)">
          <path class="cls-22" d="M 47.42453384399414 58.71480178833008 L 1.500005006790161 58.71480178833008 L 1.500005006790161 28.88069152832031 L 19.72354316711426 1.500002861022949 L 47.42453384399414 1.500002861022949 L 47.42453384399414 58.71480178833008 Z"/>
          <path class="cls-24" d="M 20.52705764770508 3.000003814697266 L 3 29.3342399597168 L 3 57.21480178833008 L 45.92453002929688 57.21480178833008 L 45.92453002929688 3.000003814697266 L 20.52705764770508 3.000003814697266 M 18.9200325012207 3.814697265625e-06 L 48.92453002929688 3.814697265625e-06 L 48.92453002929688 60.21480178833008 L 0 60.21480178833008 L 0 28.42716979980469 L 18.9200325012207 3.814697265625e-06 Z"/>
        </g>
        <g id="패스_10597" data-name="패스 10597" class="cls-13" transform="translate(234.29 270.646)">
          <path class="cls-22" d="M 33.72569274902344 27.31712341308594 L 9.33482837677002 27.31712341308594 L 20.12648963928223 11.50000381469727 L 33.72569274902344 11.50000381469727 L 33.72569274902344 27.31712341308594 Z"/>
          <path class="cls-24" d="M 20.9189395904541 13.00000381469727 L 12.17410278320312 25.81712341308594 L 32.22568511962891 25.81712341308594 L 32.22568511962891 13.00000381469727 L 20.9189395904541 13.00000381469727 M 19.33403396606445 10.00000381469727 L 35.22568511962891 10.00000381469727 L 35.22568511962891 28.81712341308594 L 6.999996185302734 28.81712341308594 L 6.999996185302734 28.07774353027344 L 19.33403396606445 10.00000381469727 Z"/>
        </g>
        <g id="사각형_462427" data-name="사각형 462427" class="cls-8" transform="translate(273.279 243.952)">
          <rect class="cls-22" width="124.193" height="90.277"/>
          <rect class="cls-23" x="1.5" y="1.5" width="121.193" height="87.277"/>
        </g>
        <line id="선_1604" data-name="선 1604" class="cls-14" x2="7.997" y2="0.045" transform="translate(258.696 306.519)"/>
        <g id="타원_1047" data-name="타원 1047" class="cls-15" transform="translate(257.285 308.871)">
          <circle class="cls-22" cx="15.995" cy="15.995" r="15.995"/>
          <circle class="cls-23" cx="15.995" cy="15.995" r="14.495"/>
        </g>
        <g id="타원_1219" data-name="타원 1219" class="cls-15" transform="translate(351.521 308.871)">
          <circle class="cls-22" cx="15.995" cy="15.995" r="15.995"/>
          <circle class="cls-23" cx="15.995" cy="15.995" r="14.495"/>
        </g>
        <g id="사각형_462990" data-name="사각형 462990" class="cls-16" transform="translate(322.204 243.998)">
          <rect class="cls-22" width="26.646" height="15.268"/>
          <rect class="cls-23" x="1.5" y="1.5" width="23.646" height="12.268"/>
        </g>
      </g>
      <g id="쇼핑백" transform="translate(6 15.569)">
        <g id="패스_10615" data-name="패스 10615" class="cls-17" transform="translate(227 100.149)">
          <path class="cls-22" d="M 66.04762268066406 69.5 L 6.952377796173096 69.5 C 3.964088678359985 69.5 1.529579162597656 67.13003540039062 1.500267386436462 64.20600128173828 L 5.84095573425293 6.960733413696289 L 5.845244407653809 6.904110908508301 L 5.845244407653809 6.8473219871521 C 5.845244407653809 3.898799896240234 8.291166305541992 1.5 11.29762268066406 1.5 L 61.70238876342773 1.5 C 64.70884704589844 1.5 67.15476989746094 3.898799896240234 67.15476989746094 6.8473219871521 L 67.15476989746094 6.904110908508301 L 67.1590576171875 6.960733413696289 L 71.49973297119141 64.20600128173828 C 71.47042083740234 67.13003540039062 69.03591156005859 69.5 66.04762268066406 69.5 Z"/>
          <path class="cls-24" d="M 11.29761123657227 3 C 9.118259429931641 3 7.345237731933594 4.72589111328125 7.345237731933594 6.847320556640625 L 7.345237731933594 6.960891723632812 L 3.001243591308594 64.24984741210938 C 3.054420471191406 66.32653045654297 4.806419372558594 68 6.952384948730469 68 L 66.04762268066406 68 C 68.19358825683594 68 69.94557952880859 66.32653045654297 69.99875640869141 64.24984741210938 L 65.65476226806641 6.960891723632812 L 65.65476226806641 6.847320556640625 C 65.65476226806641 4.72589111328125 63.88174057006836 3 61.70238876342773 3 L 11.29761123657227 3 M 11.29761123657227 0 L 61.70238876342773 0 C 65.54208374023438 0 68.65476226806641 3.065643310546875 68.65476226806641 6.847320556640625 L 73 64.15267944335938 C 73 67.93435668945312 69.88731384277344 71 66.04762268066406 71 L 6.952384948730469 71 C 3.112686157226562 71 0 67.93435668945312 0 64.15267944335938 L 4.345237731933594 6.847320556640625 C 4.345237731933594 3.065643310546875 7.457916259765625 0 11.29761123657227 0 Z"/>
        </g>
        <g id="사각형_463032" data-name="사각형 463032" class="cls-18" transform="translate(248 82.742)">
          <rect class="cls-22" width="31.838" height="56.565" rx="15.919"/>
          <rect class="cls-23" x="1.5" y="1.5" width="28.838" height="53.565" rx="14.419"/>
        </g>
        <rect id="사각형_463033" data-name="사각형 463033" class="cls-19" width="41" height="26" transform="translate(245 115.149)"/>
        <circle id="타원_1228" data-name="타원 1228" class="cls-20" cx="4.5" cy="4.5" r="4.5" transform="translate(245 119.649) rotate(-90)"/>
        <circle id="타원_1234" data-name="타원 1234" class="cls-20" cx="4.5" cy="4.5" r="4.5" transform="translate(274 119.649) rotate(-90)"/>
      </g>
      <line id="선_223" data-name="선 223" class="cls-21" x2="390" transform="translate(-60.5 186.03)"/>
    </g>
  </g>
</svg>
