<svg xmlns="http://www.w3.org/2000/svg" width="444" height="192.002" viewBox="0 0 444 192.002">
    <g transform="translate(-622 -2040)">
        <circle data-name="Ellipse 2" cx="48" cy="48" r="48" transform="translate(969 2040)" style="fill:#dcf5fb"/>
        <circle data-name="Ellipse 2" cx="19.75" cy="19.75" r="19.75" transform="translate(627 2149)" style="fill:#fbf0e3"/>
    </g>
    <g data-name="그룹 631525" transform="translate(2.5 -99.175)">
        <path data-name="사각형 463101" transform="translate(202.5 220.549)" style="fill:#fcf28d" d="M0 0h39v12.985H0z"/>
        <path data-name="패스 10787" d="M96 289.472V135.538l92.246-22.8v43.771l72.029 18.668v114.3z" style="fill:#fff"/>
        <path data-name="사각형 464742" transform="translate(202.5 220.175)" style="fill:#fcf28d" d="M0 0h39v12H0z"/>
        <path data-name="선 1928" transform="translate(87 109.673)" style="stroke-width:2.998px;stroke-linecap:round;stroke-linejoin:round;stroke:#222;fill:none" d="M0 26.921 109.004 0"/>
        <path data-name="선 1929" transform="translate(96.156 134.333)" style="stroke-width:2.997px;stroke-linecap:round;stroke-linejoin:round;stroke:#222;fill:none" d="M0 155.139V0"/>
        <path data-name="선 1930" transform="translate(187.852 111.686)" style="stroke-width:2.998px;stroke-linecap:round;stroke-linejoin:round;stroke:#222;fill:none" d="M.172 177.786 0 0"/>
        <path data-name="선 1931" transform="translate(222 233.535)" style="stroke-width:2.997px;stroke-linecap:round;stroke-linejoin:round;stroke:#222;fill:none" d="M0 54.939V0"/>
        <path data-name="선 1932" transform="translate(97 209.561)" style="stroke-width:3px;stroke-linecap:round;stroke-linejoin:round;stroke:#222;fill:none" d="M0 0h90"/>
        <path data-name="선 1933" transform="translate(202 233.535)" style="stroke-width:3px;stroke-linecap:round;stroke-linejoin:round;stroke:#222;fill:none" d="M0 0h40"/>
        <path data-name="선 1934" transform="translate(187.852 156.899)" style="stroke-width:2.998px;stroke-linecap:round;stroke-linejoin:round;stroke:#222;fill:none" d="M81.148 19.996 0 0"/>
        <path data-name="선 1935" transform="translate(260.233 174.735)" style="stroke-width:2.997px;stroke-linecap:round;stroke-linejoin:round;stroke:#222;fill:none" d="M0 114.737V0"/>
        <path data-name="패스 10679" d="M202 288.473V219.55h40v68.923" style="stroke-width:2.998px;stroke-linecap:round;stroke-linejoin:round;stroke:#222;fill:none"/>
        <rect data-name="사각형 463102" width="14.23" height="38.743" rx="2.04" transform="translate(121.935 153.267)" style="fill:#e4e4e4"/>
        <rect data-name="사각형 463103" width="14.23" height="38.743" rx="2.04" transform="translate(149.831 153.267)" style="fill:#e4e4e4"/>
        <rect data-name="사각형 463104" width="14.23" height="38.743" rx="2.04" transform="translate(121.935 230.563)" style="fill:#e4e4e4"/>
        <rect data-name="사각형 463105" width="14.23" height="38.743" rx="2.04" transform="translate(149.831 230.563)" style="fill:#e4e4e4"/>
        <g data-name="Vector Smart Object">
            <g data-name="그룹 631527" transform="translate(-2.203 -2.547)">
                <rect data-name="사각형 463106" width="105.244" height="68.087" rx="3.005" transform="translate(251.081 202.258)" style="fill:#f2ac58;stroke-width:2.755px;stroke-linecap:round;stroke-linejoin:round;stroke:#222"/>
                <rect data-name="사각형 463107" width="84.195" height="48.061" rx="1.992" transform="translate(261.606 212.271)" style="stroke-width:3.005px;stroke-miterlimit:10;stroke:#222;fill:#fff"/>
                <path data-name="패스 10680" d="m273.659 201.257 29.841-26.034 30.242 26.033" style="stroke-width:3.005px;stroke-linecap:round;stroke-linejoin:round;stroke:#222;fill:none"/>
                <path data-name="패스 10681" d="M302.7 193.246a4.005 4.005 0 1 1 4.009-4.005 4.011 4.011 0 0 1-4.009 4.005z" style="stroke-width:3.005px;stroke-miterlimit:10;stroke:#222;fill:#fff"/>
                <g data-name="그룹 631526">
                    <path data-name="패스 10682" d="M280.108 244.738a7.1 7.1 0 0 1-5.177-1.85 1.971 1.971 0 0 1 1.454-3.31h.413a1.605 1.605 0 0 1 1.383.938 1.911 1.911 0 0 0 1.807.963c1.191 0 1.954-.595 1.954-1.57 0-3.09-8.357-1.426-8.309-7.346 0-3.163 2.6-4.923 6.094-4.923a6.663 6.663 0 0 1 4.953 1.771 1.958 1.958 0 0 1-1.523 3.223h-.2a1.827 1.827 0 0 1-1.611-.843 1.892 1.892 0 0 0-1.688-.894 1.481 1.481 0 0 0-1.714 1.522c0 2.9 8.26 1.6 8.26 7.182-.004 2.805-2.191 5.137-6.096 5.137z" style="fill:#252525"/>
                    <path data-name="패스 10683" d="M296.6 244.738a8.549 8.549 0 1 1 8.546-8.562 8.4 8.4 0 0 1-8.546 8.562zm0-3.71c2.666 0 4.4-1.927 4.4-4.852 0-2.973-1.737-4.852-4.4-4.852-2.715 0-4.428 1.879-4.428 4.852 0 2.924 1.713 4.852 4.428 4.852z" style="fill:#252525"/>
                    <path data-name="패스 10684" d="M311.471 229.447v11.984h3.762A1.571 1.571 0 0 1 316.8 243a1.571 1.571 0 0 1-1.572 1.57h-6.261A1.571 1.571 0 0 1 307.4 243v-13.553a1.57 1.57 0 0 1 1.571-1.569h.928a1.571 1.571 0 0 1 1.572 1.569z" style="fill:#252525"/>
                    <path data-name="패스 10685" d="M333.773 236.224c0 4.946-3.429 8.347-8.761 8.347H320.9a2.153 2.153 0 0 1-2.154-2.152v-12.39a2.153 2.153 0 0 1 2.154-2.152h4.107c5.337.001 8.766 3.376 8.766 8.347zm-9.022 4.827c3.073 0 4.883-1.764 4.879-4.837a4.9 4.9 0 0 0-4.906-4.865h-1.9v9.7z" style="fill:#252525"/>
                </g>
            </g>
        </g>
    </g>
    <path data-name="선 1936" transform="translate(42.5 190.502)" style="stroke-width:3px;stroke-linecap:round;stroke-linejoin:round;stroke:#222;fill:none" d="M0 0h360"/>
</svg>
