<svg xmlns="http://www.w3.org/2000/svg" width="444" height="230" viewBox="0 0 444 230">
    <g transform="translate(-622 -2035)">
        <ellipse data-name="타원 559" cx="49.5" cy="50" rx="49.5" ry="50" transform="translate(664 2085)" style="fill:#dcf5fb"/>
        <circle data-name="타원 560" cx="20" cy="20" r="20" transform="translate(844 2035)" style="fill:#fcf5bd"/>
        <circle data-name="타원 560" cx="14" cy="14" r="14" transform="translate(970 2093)" style="fill:#fbf0e3"/>
    </g>
    <g data-name="그룹 626317">
        <path data-name="패스 3409" d="M172.113 466.651h-88.8L82 419.854h91.425z" transform="translate(-.329 -249.151)" style="stroke-width:3px;stroke-linejoin:round;stroke-linecap:round;stroke:#222;fill:#fff"/>
        <path data-name="패스 3410" d="M100.414 439.784H83.061L83 437.913h17.414z" transform="translate(-.707 -255.978)" style="mix-blend-mode:multiply;isolation:isolate;fill:#d6d6d6"/>
        <path data-name="패스 3411" d="M201 437.411v2.5h17.345l.069-2.5z" transform="translate(-45.318 -255.788)" style="mix-blend-mode:multiply;isolation:isolate;fill:#d6d6d6"/>
        <path data-name="패스 3412" d="M222.768 432.395v2.5H201v-2.5" transform="translate(-45.318 -253.892)" style="fill:#b1eceb;stroke-width:3px;stroke-linejoin:round;stroke-linecap:round;stroke:#222"/>
        <path data-name="패스 3413" d="M98.146 432.395v2.5H77v-2.5" transform="translate(1.561 -253.892)" style="fill:#b1eceb;stroke-width:3px;stroke-linejoin:round;stroke-linecap:round;stroke:#222"/>
        <path data-name="패스 3414" d="M175.889 400.29H77l8.712-51.164h81.081z" transform="translate(1.561 -222.412)" style="fill:#47bcbf;stroke-width:3px;stroke-linejoin:round;stroke-linecap:round;stroke:#222"/>
        <path data-name="패스 3415" d="M111 402.162v-26.54l27.988-26.5 27.987 26.708v26.328" transform="translate(-11.293 -222.412)" style="stroke-miterlimit:10;stroke-width:3px;stroke:#222;fill:#fff"/>
        <path data-name="패스 3416" d="m166.975 378.069-27.89-27.94L111 378.263v8.056l28.083-28.134 27.892 27.94z" transform="translate(-11.293 -222.791)" style="fill:#e6e6e6;mix-blend-mode:multiply;isolation:isolate"/>
        <path data-name="패스 3417" d="M169 377.272 133.762 342.1l-4 3.994.283-.282-31.9 31.833L98 385.78l35.76-35.69 35.763 35.69z" transform="translate(-6.378 -219.757)" style="fill:#47bcbf;stroke-width:3px;stroke-linejoin:round;stroke-linecap:round;stroke:#222"/>
        <g data-name="그룹 2089">
            <path data-name="패스 3418" d="M109.414 471.154v-14.978a8.707 8.707 0 1 0-17.414 0v14.978z" transform="translate(-4.11 -259.581)" style="fill:#e9f6fd"/>
            <g data-name="패스 3419" style="fill:none;stroke-linejoin:round;stroke-linecap:round">
                <path d="M100.706 447.443A8.8 8.8 0 0 0 92 456.337v14.817h17.414v-14.817a8.8 8.8 0 0 0-8.708-8.894z" style="stroke:none" transform="translate(-4.11 -259.581)"/>
                <path d="M100.706 450.443c-3.146 0-5.706 2.644-5.706 5.894v11.817h11.414v-11.817c0-3.25-2.56-5.894-5.708-5.894m0-3c4.81 0 8.708 3.981 8.708 8.894v14.817H92v-14.817c0-4.913 3.898-8.894 8.706-8.894z" style="fill:#222;stroke:none" transform="translate(-4.11 -259.581)"/>
            </g>
            <path data-name="선 910" transform="translate(96.597 188.798)" style="fill:none;stroke-width:3px;stroke-linejoin:round;stroke-linecap:round;stroke:#222" d="M0 0v21.838"/>
            <path data-name="선 911" transform="translate(88.512 196.597)" style="fill:none;stroke-width:3px;stroke-linejoin:round;stroke:#222" d="M0 0h16.17"/>
            <path data-name="선 912" transform="translate(88.512 204.085)" style="fill:none;stroke-width:3px;stroke-linejoin:round;stroke:#222" d="M0 0h16.17"/>
        </g>
        <g data-name="그룹 2090">
            <path data-name="패스 3420" d="M159.146 415.968v-18.187a10.573 10.573 0 1 0-21.146 0v18.188z" transform="translate(-21.501 -236.797)" style="fill:#e9f6fd"/>
            <g data-name="패스 3421" style="fill:none;stroke-linejoin:round;stroke-linecap:round">
                <path d="M148.571 387.178A10.686 10.686 0 0 0 138 397.977v17.992h21.146v-17.992a10.687 10.687 0 0 0-10.575-10.799z" style="stroke:none" transform="translate(-21.501 -236.797)"/>
                <path d="M148.571 390.178c-4.175 0-7.571 3.498-7.571 7.799v14.991h15.146v-14.991c0-4.3-3.398-7.8-7.575-7.8m0-3c5.841 0 10.575 4.835 10.575 10.8v17.991H138v-17.991c0-5.965 4.733-10.8 10.571-10.8z" style="fill:#222;stroke:none" transform="translate(-21.501 -236.797)"/>
            </g>
            <path data-name="선 913" transform="translate(127.072 151.517)" style="fill:none;stroke-width:3px;stroke-linejoin:round;stroke:#222" d="M0 0v26.518"/>
            <path data-name="선 914" transform="translate(117.254 160.988)" style="fill:none;stroke-width:3px;stroke-linejoin:round;stroke:#222" d="M0 0h19.636"/>
            <path data-name="선 915" transform="translate(117.254 170.08)" style="fill:none;stroke-width:3px;stroke-linejoin:round;stroke:#222" d="M0 0h19.636"/>
        </g>
        <path data-name="패스 3424" d="M139 477.662v-26.206h21.768v26.206" transform="translate(-21.879 -261.098)" style="fill:none;stroke-width:3px;stroke-linejoin:round;stroke-linecap:round;stroke:#222"/>
        <path data-name="사각형 1006" transform="translate(118.365 190.982)" style="fill:#fff" d="M0 0h19.28v24.958H0z"/>
        <path data-name="선 919" transform="translate(127.694 190.67)" style="fill:none;stroke-width:3px;stroke-linejoin:round;stroke-linecap:round;stroke:#222" d="M0 0v25.582"/>
        <g data-name="손 돈">
            <path data-name="사각형 461143" transform="translate(289.999 104.625)" style="fill:#fff" d="M0 0h87v43.5H0z"/>
            <path data-name="패스 3470" d="M248.427 120.19h-22.656v-43.5h87v43.5h-12.849" style="fill:none;stroke-width:3px;stroke-linejoin:round;stroke-linecap:round;stroke:#222" transform="translate(64.229 27.935)"/>
            <path data-name="패스 3471" d="M305.52 107.5V89.377a5.438 5.438 0 0 1-5.437-5.437h-61.625a5.439 5.439 0 0 1-5.438 5.437V107.5a5.439 5.439 0 0 1 5.438 5.437h61.625a5.439 5.439 0 0 1 5.437-5.437" style="fill:#fcf28d" transform="translate(64.229 27.935)"/>
            <path data-name="패스 3472" d="M290.789 112.94h9.293a5.439 5.439 0 0 1 5.439-5.437V89.378a5.44 5.44 0 0 1-5.439-5.438h-61.624a5.439 5.439 0 0 1-5.437 5.438V107.5a5.438 5.438 0 0 1 5.437 5.437h10.036" style="fill:none;stroke-width:3px;stroke-linejoin:round;stroke-linecap:round;stroke:#222" transform="translate(64.229 27.935)"/>
            <path data-name="패스 3473" d="M278.333 98.44a9.063 9.063 0 1 1-9.063-9.063 9.062 9.062 0 0 1 9.063 9.063" style="fill:#fff" transform="translate(64.229 27.935)"/>
            <path data-name="패스 3474" d="M262.008 103.863a9.063 9.063 0 1 1 14.778-.358" style="fill:none;stroke-width:3px;stroke-linejoin:round;stroke-linecap:round;stroke:#222" transform="translate(64.229 27.935)"/>
            <path data-name="패스 3475" d="m265.608 96.52 1.622 4.252a.38.38 0 0 0 .72-.032l1.175-4.122a.379.379 0 0 1 .728-.006l1.252 4.1a.381.381 0 0 0 .724.011l1.432-4.205" style="stroke-width:2px;fill:none;stroke-linejoin:round;stroke-linecap:round;stroke:#222" transform="translate(64.229 27.935)"/>
            <path data-name="선 300" transform="translate(329.104 126.416)" style="stroke-width:2px;fill:none;stroke-linejoin:round;stroke-linecap:round;stroke:#222" d="M0 0h9.119"/>
            <path data-name="사각형 461144" transform="translate(318.81 207.005)" style="fill:#afdae9" d="M0 0h38.252v9.995H0z"/>
            <path data-name="패스 3476" d="M254.581 189.065v-9.995h38.252v9.995" style="fill:none;stroke-width:3px;stroke-linejoin:round;stroke-linecap:round;stroke:#222" transform="translate(64.229 27.935)"/>
            <path data-name="패스 3477" d="M292.672 121.611a4.62 4.62 0 0 0-9.133 0h-.05v-5.266c0-.028.009-.056.009-.086a4.651 4.651 0 0 0-4.642-4.661c-2.563 0-4.612 1.52-4.612 4.094v-5.342a4.641 4.641 0 1 0-9.282 0h-.018v3.13a4.633 4.633 0 0 0-9.264.166v36.392l-2.609.8-5.7-14.132a.324.324 0 0 0-.027-.06l-.023-.05a4.63 4.63 0 0 0-4.223-2.982 4.837 4.837 0 0 0-4.632 5.023 5.389 5.389 0 0 0 .389 2.009l8.9 22.053c3 6.322 9.809 7.349 9.809 7.349l-.007 9.023h31.621l.015-9.165a7.493 7.493 0 0 0 3.49-6.243z" style="fill:#fff" transform="translate(64.229 27.935)"/>
            <path data-name="패스 3478" d="M292.672 121.611a4.62 4.62 0 0 0-9.133 0h-.05v-5.266c0-.028.009-.056.009-.086a4.651 4.651 0 0 0-4.642-4.661c-2.563 0-4.612 1.52-4.612 4.094h0v-5.342a4.641 4.641 0 1 0-9.282 0h-.018v3.13a4.633 4.633 0 0 0-9.264.166v36.392l-2.609.8-5.7-14.132a.324.324 0 0 0-.027-.06l-.023-.05a4.63 4.63 0 0 0-4.223-2.982 4.837 4.837 0 0 0-4.632 5.023 5.389 5.389 0 0 0 .389 2.009l8.9 22.053c3 6.322 9.809 7.349 9.809 7.349l-.007 9.023h31.621l.015-9.165a7.493 7.493 0 0 0 3.49-6.243z" style="fill:none;stroke-width:3px;stroke-linejoin:round;stroke-linecap:round;stroke:#222" transform="translate(64.229 27.935)"/>
            <path data-name="선 301" transform="translate(329.17 141.413)" style="fill:#fff" d="M0 0v22.58"/>
            <path data-name="선 302" transform="translate(329.17 141.413)" style="fill:none;stroke-width:3px;stroke-linejoin:round;stroke-linecap:round;stroke:#222" d="M0 0v22.58"/>
            <path data-name="선 303" transform="translate(338.484 143.627)" style="fill:#fff" d="M0 0v22.185"/>
            <path data-name="선 304" transform="translate(338.484 143.627)" style="fill:none;stroke-width:3px;stroke-linejoin:round;stroke-linecap:round;stroke:#222" d="M0 0v22.185"/>
            <path data-name="선 305" transform="translate(347.768 149.546)" style="fill:#fff" d="M0 0v18.086"/>
            <path data-name="선 306" transform="translate(347.768 149.546)" style="fill:none;stroke-width:3px;stroke-linejoin:round;stroke-linecap:round;stroke:#222" d="M0 0v18.086"/>
        </g>
        <path data-name="선 273" transform="translate(42 218)" style="fill:none;stroke-width:3px;stroke-linejoin:round;stroke-linecap:round;stroke:#222" d="M0 0h360"/>
        <g data-name="앞 문서">
            <path data-name="패스 1645" d="M221.725 296.561s-1.577 20.774-23.373 20.774-15.48-28.048-15.48-28.048l38.853-8.231z" transform="translate(59.836 -89.237)" style="fill:#e6e6e6;stroke-width:3px;stroke-linejoin:round;stroke-linecap:round;stroke:#222"/>
            <path data-name="패스 1646" d="m200.045 298.134.591 4.875a9.5 9.5 0 0 1-9.435 10.645H95.907A2.906 2.906 0 0 1 93 310.747V165.6a2.907 2.907 0 0 1 2.907-2.907H216.05a2.907 2.907 0 0 1 2.907 2.907v119.793a10.594 10.594 0 0 1-12.919 10.336l-2.667-.6a2.742 2.742 0 0 0-3.326 3.005z" transform="translate(62.605 -85.556)" style="stroke-width:3px;stroke-linejoin:round;stroke-linecap:round;stroke:#222;fill:#fff"/>
            <path data-name="패스 1647" d="M173.9 170.08h-33.5a9.7 9.7 0 0 1-9.7-9.691h0a2.891 2.891 0 0 1 2.893-2.889h47.115a2.891 2.891 0 0 1 2.893 2.889h0a9.7 9.7 0 0 1-9.701 9.691z" transform="translate(61.432 -85.394)" style="fill:#f2ac58;stroke-width:3px;stroke-linejoin:round;stroke-linecap:round;stroke:#222"/>
            <path data-name="선 386" transform="translate(203.796 146.538)" style="fill:none;stroke-width:3px;stroke-linejoin:round;stroke-linecap:round;stroke:#222" d="M0 0h58.171"/>
            <path data-name="선 387" transform="translate(203.796 157.86)" style="fill:none;stroke-width:3px;stroke-linejoin:round;stroke-linecap:round;stroke:#222" d="M0 0h32.576"/>
            <path data-name="패스 1649" d="M128.114 256.615v3.006a1.946 1.946 0 0 1-1.947 1.945h-11.686a1.946 1.946 0 0 1-1.947-1.945V247.95a1.945 1.945 0 0 1 1.947-1.945h9.646" transform="translate(61.997 -101.775)" style="fill:none;stroke-width:3px;stroke-linejoin:round;stroke-linecap:round;stroke:#222"/>
            <path data-name="패스 1650" d="m119 251.854 3.876 3.866 6.782-7.72" transform="translate(61.796 -101.837)" style="fill:none;stroke-width:3px;stroke-linejoin:round;stroke-linecap:round;stroke:#222"/>
            <text data-name="부동산 계약서" transform="translate(214.962 119.853)" style="fill:#222;font-size:15px;font-family:NotoSansCJKkr-Bold,Noto Sans CJK KR;font-weight:700;letter-spacing:-.05em"><tspan x="-40.853" y="0">부동산 계약서</tspan></text>
            <path data-name="패스 9493" d="M201.173 156.6s4.5 16.649 1.394 20.874-7.472-.234-7.935-6.092 9.75 1.867 9.75 1.867 6.766 5.863 8.632 2.007-1.375-6.867-3.618-4.932-4.038 8.629 3.618 9.02 7.658-8.979 5.414-9.02-5.849 5.085 0 8.065 6.576-2.614 5.844-3.133" transform="translate(37.582 23.653)" style="stroke-width:2px;fill:none;stroke:#222"/>
        </g>
    </g>
</svg>
