<svg xmlns="http://www.w3.org/2000/svg" width="444" height="228" viewBox="0 0 444 228">
  <defs>
    <style>
      .cls-1 {
        fill: rgba(255,191,191,0.5);
        opacity: 0;
      }

      .cls-2 {
        fill: #dcf5fb;
      }

      .cls-3 {
        fill: #fbf0e3;
      }

      .cls-4 {
        fill: #e4ffe1;
      }

      .cls-5, .cls-6, .cls-9 {
        fill: #fff;
      }

      .cls-10, .cls-11, .cls-12, .cls-13, .cls-6, .cls-7, .cls-8, .cls-9 {
        stroke: #222;
      }

      .cls-10, .cls-11, .cls-12, .cls-13, .cls-6, .cls-7, .cls-8 {
        stroke-linecap: round;
        stroke-linejoin: round;
      }

      .cls-11, .cls-12, .cls-6, .cls-7, .cls-8, .cls-9 {
        stroke-width: 3.005px;
      }

      .cls-7 {
        fill: #f2ac58;
      }

      .cls-8 {
        fill: #fcf28d;
      }

      .cls-9 {
        stroke-miterlimit: 10;
      }

      .cls-10, .cls-11, .cls-13 {
        fill: none;
      }

      .cls-10 {
        stroke-width: 3.018px;
      }

      .cls-12 {
        fill: #afdae9;
      }

      .cls-13 {
        stroke-width: 2.992px;
      }

      .cls-14, .cls-15 {
        stroke: none;
      }

      .cls-15 {
        fill: #707070;
      }
    </style>
  </defs>
  <g id="SWKDIFDT5000_1" transform="translate(-436 -767)">
    <g id="deco">
      <rect id="BG" class="cls-1" width="444" height="228" transform="translate(436 767)"/>
      <circle id="Ellipse_2" data-name="Ellipse 2" class="cls-2" cx="53.5" cy="53.5" r="53.5" transform="translate(489 767)"/>
      <circle id="Ellipse_2-2" data-name="Ellipse 2" class="cls-3" cx="19.75" cy="19.75" r="19.75" transform="translate(810 800.75)"/>
      <circle id="Ellipse_2-3" data-name="Ellipse 2" class="cls-4" cx="33.313" cy="33.313" r="33.313" transform="translate(698 847.688)"/>
    </g>
    <g id="img" transform="translate(383.262 755.534)">
      <g id="그룹_632620" data-name="그룹 632620">
        <g id="패스_12949" data-name="패스 12949" class="cls-5" transform="translate(335.738 151.466)">
          <path class="cls-14" d="M 106.5000076293945 85.5 L 0.5000044703483582 85.5 L 0.5000044703483582 0.6453309655189514 L 82.00810241699219 21.66881370544434 L 106.5000076293945 27.98602867126465 L 106.5000076293945 85.5 Z M 106.9072418212891 28.07632446289062 L 107.1384048461914 27.18003463745117 L 107.3063507080078 27.99379920959473 L 106.9072418212891 28.07632446289062 Z"/>
          <path class="cls-15" d="M 1.000007629394531 1.290664672851562 L 1.000007629394531 85 L 106.0000076293945 85 L 106.0000076293945 28.37343215942383 L 1.000007629394531 1.290664672851562 M 7.62939453125e-06 0 C 7.62939453125e-06 0 55.38297653198242 14.28500366210938 82.13298034667969 21.18465423583984 C 103.931022644043 26.80705261230469 106.7159271240234 27.52536010742188 107.0000076293945 27.59862899780273 L 107.0000076293945 86 L 7.62939453125e-06 86 L 7.62939453125e-06 0 Z M 107.0000076293945 27.59862899780273 C 107.0000076293945 27.59862899780273 107.0280914306641 27.60587310791016 107.0286712646484 27.60602188110352 C 107.0283584594727 27.60594177246094 107.0210494995117 27.60405731201172 107.0000076293945 27.59862899780273 L 107.0000076293945 27.59862899780273 Z M 107.0286712646484 27.60602188110352 C 107.028678894043 27.60602569580078 107.028678894043 27.60602569580078 107.028678894043 27.60602569580078 C 107.028678894043 27.60602569580078 107.028678894043 27.60602569580078 107.0286712646484 27.60602188110352 Z"/>
        </g>
        <rect id="사각형_463675" data-name="사각형 463675" class="cls-6" width="27.713" height="63.253" transform="translate(188.796 88.355)"/>
        <path id="패스_12623" data-name="패스 12623" class="cls-6" d="M336.754,178.731l-78.6-76.816-78.619,76.816,0,58.717H336.754V178.731Z"/>
        <path id="패스_12624" data-name="패스 12624" class="cls-7" d="M349.948,165.937,266.429,84.5l-8.235-8.029-7.721,7.546-84.018,81.925,13.081,12.793L258.2,102.009l78.665,76.722Z"/>
        <rect id="사각형_463676" data-name="사각형 463676" class="cls-8" width="36.983" height="63.265" transform="translate(207.284 174.183)"/>
        <rect id="사각형_463677" data-name="사각형 463677" class="cls-6" width="31.565" height="27.122" transform="translate(259.121 174.183)"/>
      </g>
      <g id="그룹_632621" data-name="그룹 632621">
        <path id="패스_12625" data-name="패스 12625" class="cls-9" d="M152.754,229.552a12,12,0,0,1-9.266-19.452,2.862,2.862,0,0,0,.652-2.153A8.851,8.851,0,0,1,147.2,200a8.692,8.692,0,0,1,14.089,4.794,8.966,8.966,0,0,1,.143,3.111h0a2.868,2.868,0,0,0,.629,2.169,12.059,12.059,0,0,1-1.372,16.44A11.862,11.862,0,0,1,152.754,229.552Z"/>
        <line id="선_2383" data-name="선 2383" class="cls-10" y1="7.043" transform="translate(153.077 230.093)"/>
      </g>
      <g id="그룹_632622" data-name="그룹 632622">
        <path id="패스_12626" data-name="패스 12626" class="cls-9" d="M120.876,223.842a16.444,16.444,0,0,1-5.438-.92h0A16.892,16.892,0,0,1,105.3,201.064a.24.24,0,0,0-.014-.2,18.187,18.187,0,0,1-2.3-8.857,17.987,17.987,0,0,1,5.53-13.056.19.19,0,0,0,.049-.176,12.9,12.9,0,0,1,3.638-12.36,12.523,12.523,0,0,1,9.491-3.448,12.788,12.788,0,0,1,11.84,11.673,12.973,12.973,0,0,1-.316,4.147.182.182,0,0,0,.052.165A17.986,17.986,0,0,1,138.792,192a18.181,18.181,0,0,1-2.3,8.856.261.261,0,0,0-.01.215,16.9,16.9,0,0,1-3.81,17.831,16.566,16.566,0,0,1-10.27,4.869Q121.634,223.841,120.876,223.842Z"/>
        <line id="선_2384" data-name="선 2384" class="cls-10" y2="48.294" transform="translate(121.165 188.841)"/>
        <line id="선_2385" data-name="선 2385" class="cls-11" x1="7.802" y2="12.889" transform="translate(120.886 188.675)"/>
        <line id="선_2386" data-name="선 2386" class="cls-11" x1="7.82" y1="12.878" transform="translate(112.608 198.348)"/>
      </g>
      <g id="그룹_632624" data-name="그룹 632624">
        <g id="그룹_632623" data-name="그룹 632623">
          <path id="패스_12627" data-name="패스 12627" class="cls-12" d="M420.339,237.136V196.4a4.524,4.524,0,0,0-4.5-4.544H361.5a4.007,4.007,0,0,0-3.989,4.025v41.252"/>
          <line id="선_2387" data-name="선 2387" class="cls-13" x2="61.829" transform="translate(357.723 201.207)"/>
          <line id="선_2388" data-name="선 2388" class="cls-13" x2="61.829" transform="translate(357.723 210.262)"/>
          <line id="선_2389" data-name="선 2389" class="cls-13" x2="61.829" transform="translate(357.723 219.317)"/>
          <line id="선_2390" data-name="선 2390" class="cls-13" x2="61.829" transform="translate(357.723 228.373)"/>
        </g>
        <line id="선_2391" data-name="선 2391" class="cls-11" x2="115.221" y2="29.314" transform="translate(334.767 151.111)"/>
        <line id="선_2392" data-name="선 2392" class="cls-10" y2="57.022" transform="translate(442.216 179.611)"/>
      </g>
      <g id="그룹_632625" data-name="그룹 632625">
        <path id="패스_12628" data-name="패스 12628" class="cls-13" d="M454.738,237.448h-360" transform="translate(0 0)"/>
      </g>
    </g>
  </g>
</svg>
