<svg xmlns="http://www.w3.org/2000/svg" width="444" height="221" viewBox="0 0 444 221">
    <g transform="translate(-622 -2040)">
        <circle data-name="Ellipse 2" cx="45" cy="45" r="45" transform="translate(905 2040)" style="fill:#dcf5fb"/>
        <circle data-name="Ellipse 2" cx="19.75" cy="19.75" r="19.75" transform="translate(1015 2114)" style="fill:#fbf0e3"/>
    </g>
    <g data-name="그룹 632034">
        <path data-name="패스 11654" d="M154 240V70.619a2.9 2.9 0 0 1 2.92-2.906l12.094.073 105.852-.076 20.072 20.653v151.261" style="stroke-width:3.002px;stroke:#222;stroke-linecap:round;stroke-linejoin:round;fill:#fff" transform="translate(-56.943 -36.71)"/>
        <g data-name="그룹 632032">
            <path data-name="선 2137" transform="translate(120.115 163.577)" style="stroke-width:3px;fill:none;stroke:#222;stroke-linecap:round;stroke-linejoin:round" d="M0 0h94.268"/>
            <path data-name="선 2138" transform="translate(120.115 145.551)" style="stroke-width:3px;fill:none;stroke:#222;stroke-linecap:round;stroke-linejoin:round" d="M0 0h100.589"/>
            <path data-name="선 2139" transform="translate(120.115 181.603)" style="stroke-width:3px;fill:none;stroke:#222;stroke-linecap:round;stroke-linejoin:round" d="M0 0h62.161"/>
        </g>
        <path data-name="패스 11655" d="M273.783 68.653 273.77 86.7a3.008 3.008 0 0 0 2.963 3.052h18.108" style="fill:none;stroke-width:3.002px;stroke:#222;stroke-linecap:round;stroke-linejoin:round" transform="translate(-56.943 -36.71)"/>
        <g data-name="그룹 632033">
            <path data-name="패스 11656" d="M246.947 135.978a22.472 22.472 0 0 0-.055-10.727l7.465-5.5-5.657-9.7-8.456 3.811a23.041 23.041 0 0 0-9.3-5.331l-1.026-9.213-11.214.058-.931 9.223a23.032 23.032 0 0 0-9.248 5.427l-8.495-3.723-5.557 9.755 7.522 5.427a22.472 22.472 0 0 0 .055 10.727l-7.465 5.5 5.657 9.7 8.456-3.81a23.053 23.053 0 0 0 9.3 5.331l1.026 9.212 11.214-.058.931-9.223a23.032 23.032 0 0 0 9.248-5.427l8.495 3.723 5.557-9.754zm-7.513-4.83c0 .064-.005.129-.007.193a16.466 16.466 0 0 1-1.016 5.029 14.9 14.9 0 0 1-6.817 7.7c-7 3.3-13.912 1.371-18.092-3.131-.053-.059-.107-.115-.159-.174l-.036-.041a14.9 14.9 0 1 1 26.128-9.679l-.001.103z" style="fill:#afdae9;stroke-width:3.002px;stroke:#222;stroke-linecap:round;stroke-linejoin:round" transform="translate(-56.943 -36.71)"/>
            <path data-name="패스 11657" d="m230.243 116.6 8.082-8.094v-11.5l-6.73-6.741h-1.352v7.457a5.774 5.774 0 1 1-11.548 0v-7.456h-1.352l-6.73 6.741v11.5l8.087 8.093v24.841l-2.055 2.057a14.919 14.919 0 0 0 9.066 2.182 14.741 14.741 0 0 0 6.6-2.172l-2.065-2.067V116.6z" style="fill:#f2ac58;stroke-width:3.002px;stroke:#222;stroke-linecap:round;stroke-linejoin:round" transform="translate(-56.943 -36.71)"/>
        </g>
    </g>
    <path d="M458.943 240.345h-360" style="stroke-width:3px;fill:none;stroke:#222;stroke-linecap:round;stroke-linejoin:round" transform="translate(-56.943 -36.71)"/>
    <g data-name="그룹 632038">
        <path data-name="패스 11663" d="M328.585 158.7a63.96 63.96 0 0 0-63.913 64v14.77H392.5V222.7a63.96 63.96 0 0 0-63.915-64z" style="fill:#fcf28d" transform="translate(-56.943 -36.71)"/>
        <path data-name="패스 11664" d="M394.957 237.474h-95.871a2.46 2.46 0 0 1-2.458-2.462V222.7a86.325 86.325 0 0 1 5.939-32 1.538 1.538 0 0 1 2.935.333l5.172 30.041a4.919 4.919 0 0 0 4.845 4.088h26.132a4.919 4.919 0 0 0 4.845-4.088l9.664-56.129a63.827 63.827 0 0 0-53.962-.531v-.007c-.048.022-1.177.587-1.177.587a63.973 63.973 0 0 0-36.347 57.7v14.77h-2.459a2.46 2.46 0 0 0-2.458 2.462v3.139a2.455 2.455 0 0 0 1.675 2.347c17.583 5.756 41.188 9.285 67.155 9.285s49.572-3.529 67.154-9.285a2.455 2.455 0 0 0 1.676-2.347v-3.139a2.46 2.46 0 0 0-2.46-2.452z" style="fill:#fcf28d" transform="translate(-56.943 -36.71)"/>
        <path data-name="패스 11665" d="M328.585 158.7a63.96 63.96 0 0 0-63.913 64v14.77H392.5V222.7a63.96 63.96 0 0 0-63.915-64z" style="fill:none;stroke-width:3.002px;stroke:#222;stroke-linecap:round;stroke-linejoin:round" transform="translate(-56.943 -36.71)"/>
        <path data-name="패스 11666" d="M333.668 225.165H323.5a4.919 4.919 0 0 1-4.913-4.754l-2.119-61.543a4.92 4.92 0 0 1 4.913-5.093h14.4a4.921 4.921 0 0 1 4.914 5.093l-2.12 61.543a4.918 4.918 0 0 1-4.907 4.754z" style="fill:#fcf28d" transform="translate(-56.943 -36.71)"/>
        <g data-name="그룹 632037">
            <path data-name="패스 11667" d="M395.739 240.688c-17.582 4.112-41.187 6.633-67.154 6.633s-49.572-2.521-67.154-6.633a2.1 2.1 0 0 1-1.579-1.233 2.333 2.333 0 0 0-.1.48v3.139a2.453 2.453 0 0 0 1.676 2.346c17.582 5.757 41.187 9.286 67.154 9.286s49.572-3.529 67.154-9.285a2.455 2.455 0 0 0 1.676-2.347v-3.139a2.4 2.4 0 0 0-.1-.48 2.107 2.107 0 0 1-1.573 1.233z" style="fill:#fcf28d" transform="translate(-56.943 -36.71)"/>
            <path data-name="패스 11668" d="m325.175 220.411-1.5-61.543c-.068-2.784 1.514-5.093 3.489-5.093h-5.776a4.921 4.921 0 0 0-4.914 5.093l2.119 61.543a4.92 4.92 0 0 0 4.914 4.754h5.162c-1.886 0-3.429-2.102-3.494-4.754z" style="fill:#fcf28d" transform="translate(-56.943 -36.71)"/>
        </g>
        <path data-name="패스 11669" d="M333.668 225.165H323.5a4.919 4.919 0 0 1-4.913-4.754l-2.119-61.543a4.92 4.92 0 0 1 4.913-5.093h14.4a4.921 4.921 0 0 1 4.914 5.093l-2.12 61.543a4.918 4.918 0 0 1-4.907 4.754z" style="fill:none;stroke-width:3.002px;stroke:#222;stroke-linecap:round;stroke-linejoin:round" transform="translate(-56.943 -36.71)"/>
        <path data-name="패스 11670" d="M264.672 237.474h-2.459a2.46 2.46 0 0 0-2.458 2.462v3.139a2.455 2.455 0 0 0 1.675 2.347c17.583 5.756 41.188 9.285 67.155 9.285s49.572-3.529 67.154-9.285a2.455 2.455 0 0 0 1.676-2.347v-3.139a2.46 2.46 0 0 0-2.458-2.462h-3.537" style="fill:none;stroke-width:3.002px;stroke:#222;stroke-linecap:round;stroke-linejoin:round" transform="translate(-56.943 -36.71)"/>
        <path data-name="선 2140" transform="translate(291.362 129.116)" style="fill:none;stroke-width:3.002px;stroke:#222;stroke-linecap:round;stroke-linejoin:round" d="M7.493 0 0 43.521"/>
        <path data-name="선 2141" transform="translate(244.834 129.116)" style="fill:none;stroke-width:3.002px;stroke:#222;stroke-linecap:round;stroke-linejoin:round" d="M7.493 43.521 0 0"/>
    </g>
</svg>
