<svg xmlns="http://www.w3.org/2000/svg" width="444" height="258" viewBox="0 0 444 258">
    <circle data-name="Ellipse 2" cx="26.75" cy="26.75" r="26.75" transform="translate(326 .143)" style="fill:#e4ffe1"/>
    <g transform="translate(-1023 -1221)">
        <circle data-name="Ellipse 1" cx="90" cy="90" r="90" transform="translate(1282 1221)" style="fill:#e9f6fd"/>
        <path data-name="패스 15862" d="M-59.85-13.889v1.6h6c-.4 3.952-2.66 6.973-6.859 9.12l1.083 1.5c5.6-2.831 7.733-7.239 7.733-12.217zM-44.8-8.93h-2.6v-6.783h-1.957V1.444h1.957V-7.3h2.6zm12.825-6.764v9.215h1.957v-9.215zM-41.23-5.681v6.935h11.21v-6.935h-1.938v1.9h-7.334v-1.9zm1.938 3.42h7.334v1.938h-7.334zm.019-12.654c-2.622 0-4.56 1.634-4.56 3.99s1.938 3.99 4.56 3.99 4.541-1.634 4.541-3.99-1.919-3.99-4.541-3.99zm0 1.615a2.4 2.4 0 0 1 2.641 2.375 2.392 2.392 0 0 1-2.641 2.375 2.382 2.382 0 0 1-2.641-2.375 2.393 2.393 0 0 1 2.641-2.375zm14.136 1.235h4.427v-1.6h-6.346v11.043h1.14a30.951 30.951 0 0 0 6.251-.478l-.171-1.615a26.331 26.331 0 0 1-5.3.475zm10.279-3.648v6.783h-2.033v-6.422h-1.843V.608h1.843v-7.942h2.033v8.778H-13v-17.157zm13.737 7.866a5.482 5.482 0 0 1-4.009-5.13v-1.843h-1.976v1.691a6 6 0 0 1-4.161 5.738l1.045 1.558A7.055 7.055 0 0 0-6.08-9.9a6.756 6.756 0 0 0 3.933 3.592zM-3.23-.076c-2.394 0-3.781-.589-3.781-1.691 0-1.064 1.387-1.672 3.781-1.672S.551-2.831.551-1.767C.551-.665-.836-.076-3.23-.076zm0-4.9c-3.534 0-5.719 1.2-5.719 3.211 0 2.033 2.185 3.23 5.719 3.23 3.553 0 5.719-1.2 5.719-3.23 0-2.016-2.166-3.213-5.719-3.213zm5.53-6.481v-4.256H.342V-5.4H2.3v-4.442h2.431v-1.615zm18.639-4.218v9.766h1.957v-9.766zM11.666-5.054v6.308h11.229v-6.308zm9.31 1.554v3.2h-7.391v-3.2zm-7.334-11.339c-2.622 0-4.56 1.653-4.56 4.047s1.938 4.047 4.56 4.047 4.541-1.653 4.541-4.047-1.919-4.047-4.541-4.047zm0 1.615a2.434 2.434 0 0 1 2.641 2.432 2.424 2.424 0 0 1-2.641 2.432A2.413 2.413 0 0 1 11-10.792a2.424 2.424 0 0 1 2.642-2.432zm14.136 1.159H32.2v-1.6h-6.341v11.043H27a30.951 30.951 0 0 0 6.25-.478l-.171-1.615a26.331 26.331 0 0 1-5.3.475zm10.279-3.648v6.783h-2.033v-6.422h-1.843V.608h1.843v-7.942h2.033v8.778h1.862v-17.157zm9.69 4.484h3.629v-1.577h-3.629v-2.546H45.79v2.546H42.1v1.577h3.69v.988a7.8 7.8 0 0 1-4.218 6.954l1.083 1.5A8.348 8.348 0 0 0 46.8-6.8a7.977 7.977 0 0 0 3.911 4.71l1.083-1.5a7.517 7.517 0 0 1-4.047-6.65zm10.032 2.413H55.1v-6.9h-1.957V1.463H55.1V-7.2h2.679zm-92.606 21.758h-2.166a15.5 15.5 0 0 0 .19-2.527h-6.631v1.577h4.693c-.285 3.515-1.995 6.308-5.529 8.455l1.121 1.387a12.075 12.075 0 0 0 5.814-7.3h2.508v2.717h-2.812v1.6h2.812v5.776H-33V8.724h-1.824zm3.458-4.636v17.157h1.881V8.306zm5.871 5.111a2.442 2.442 0 0 1 2.641-2.47 2.448 2.448 0 0 1 2.66 2.47 2.448 2.448 0 0 1-2.66 2.47 2.442 2.442 0 0 1-2.643-2.47zm7.22 0c0-2.432-1.957-4.123-4.579-4.123-2.6 0-4.56 1.691-4.56 4.123s1.957 4.123 4.56 4.123c2.622 0 4.579-1.691 4.579-4.123zm-7.239 7.391h9.329v4.674h1.957v-6.251h-11.286zm13.661-8.436v-1.615h-2.375V8.306h-1.957v10.165h1.957v-2.413h2.375v-1.615h-2.375v-2.071zm12.9 5A10.206 10.206 0 0 0 1.2 15.6a9.452 9.452 0 0 0-.209-1.995H4.5v3.762zm-4.2 2.546c-1.463 0-2.489-1.615-2.489-4.313 0-2.66 1.026-4.275 2.489-4.275 1.482 0 2.489 1.615 2.489 4.275.002 2.695-1.005 4.31-2.487 4.31zM4.5 8.287v3.7H.456a4.007 4.007 0 0 0-3.61-2.427c-2.527 0-4.332 2.356-4.332 6.042 0 3.724 1.805 6.061 4.332 6.061a4.01 4.01 0 0 0 3.7-2.679H4.5V25.5h1.979V8.287zM20.425 14.9h-7.847v-2.186h7.847zm1.957-5.928h-1.957v2.166h-7.847V8.971h-1.957v7.505h11.761zm1.918 9.366H8.74v1.577h6.745v5.567h1.957v-5.567H24.3zm12.635-7.106h-9.67v3.857h11.913v-1.368h-9.994V12.5h9.69V8.724H27.227v1.349h9.709zm-7.884 11.381h9.88v-3.838H27.075v1.349h9.918v1.216h-9.88v3.933h12.331v-1.349H29.051zm-3.781-6.441v1.444h15.561v-1.444zM-43.453 33.75h-3.895v-1.6h-1.976v1.6h-3.933v1.425h9.8zm-7.147 4.522c0-.779.874-1.254 2.242-1.254s2.242.475 2.242 1.254c0 .76-.874 1.216-2.242 1.216s-2.242-.456-2.242-1.216zm7.619 3.154c-1.387.209-2.888.3-4.37.38v-1.064c1.9-.228 3.078-1.121 3.078-2.47 0-1.6-1.615-2.565-4.085-2.565s-4.085.969-4.085 2.565c0 1.349 1.178 2.261 3.116 2.47v1.14c-1.577.038-3.078.038-4.37.038l.228 1.558a64.688 64.688 0 0 0 10.64-.684zm-8.588 4.807h9.5v3.249h1.957v-4.807h-11.454zm13.813-8.854h-2.356v-5.054h-1.957v11.59h1.957v-4.921h2.356zm14.877-5.073h-1.957V44.77h1.957zM-34.77 37.74a2.5 2.5 0 0 1 2.641-2.6 2.514 2.514 0 0 1 2.641 2.6 2.524 2.524 0 0 1-2.641 2.6 2.514 2.514 0 0 1-2.641-2.6zm7.182 0a4.293 4.293 0 0 0-4.541-4.294 4.309 4.309 0 0 0-4.56 4.294 4.32 4.32 0 0 0 4.56 4.294 4.3 4.3 0 0 0 4.541-4.294zm-4.522 9.8v-4.024h-1.976v5.624h11.7v-1.6zm15.81-3.549c-1.159 0-1.976-.931-1.976-2.356s.817-2.375 1.976-2.375 1.976.95 1.976 2.375-.819 2.356-1.976 2.356zm0-6.346a3.7 3.7 0 0 0-3.724 3.99 3.708 3.708 0 0 0 3.724 3.99 3.708 3.708 0 0 0 3.724-3.99 3.7 3.7 0 0 0-3.724-3.99zm.969-4.845h-1.938v2.3h-3.251v1.577h8.4V35.1h-3.211zm7.6-.494v7.106h-1.826v-6.745h-1.824v16h1.824v-7.64h1.824v8.436h1.862V32.306zm5.339 8.4A8.314 8.314 0 0 0 3.8 36.98a8.353 8.353 0 0 0 6.213 3.72l.7-1.539c-3.268-.437-5.681-2.318-5.8-4.313H10.1v-1.573H-2.527v1.577H2.7c-.114 1.995-2.527 3.876-5.8 4.313zm13.965 1.254H-3.952v1.577h6.726v5.947h1.957v-5.949h6.821zm6.27-8.075h-1.9v3.1c0 2.926-1.178 6-3.61 7.448l1.2 1.482a8.268 8.268 0 0 0 3.382-4.921 7.827 7.827 0 0 0 3.173 4.541l1.1-1.52c-2.3-1.444-3.344-4.351-3.344-7.125zm4.028 4.427h-2.529v1.6h2.527v8.759h1.843V32.629h-1.843zm3.5-6v17.151h1.862V32.306zM34.7 42.04a9.837 9.837 0 0 0 2.166.228 8.8 8.8 0 0 0 2.166-.247v3.743h-4.338zm2.166-7.2c2.584 0 4.389 1.14 4.389 2.945 0 1.824-1.805 2.964-4.389 2.964-2.6 0-4.408-1.14-4.408-2.964-.006-1.812 1.799-2.952 4.402-2.952zm4.123 10.925v-4.472a3.967 3.967 0 0 0 2.185-3.515c0-2.736-2.66-4.484-6.308-4.484-3.667 0-6.308 1.748-6.308 4.484a3.945 3.945 0 0 0 2.185 3.515v4.465h-3.635v1.6H44.65v-1.6zm6.211-2.23h1.463l.3-7.6.076-2.261h-2.2l.057 2.261zm.722 4.712a1.458 1.458 0 0 0 1.482-1.52 1.479 1.479 0 0 0-1.482-1.558 1.461 1.461 0 0 0-1.444 1.558 1.439 1.439 0 0 0 1.44 1.52z" transform="translate(1373.69 1302.6)" style="fill:#4278d9"/>
        <g data-name="&quot;">
            <g data-name="그룹 632055">
                <g data-name="그룹 632053">
                    <path data-name="패스 11697" d="M188.119 360.286a4.327 4.327 0 0 0-4.315-4.336 4.074 4.074 0 0 0-.419.02 4.321 4.321 0 0 0-3.894 4.138 1.762 1.762 0 0 0-.006.178 4.22 4.22 0 0 0 .106.959 4.32 4.32 0 0 0 4.213 3.382 4.215 4.215 0 0 0 1.44-.25 4.335 4.335 0 0 0 2.875-4.091z" style="fill:#5e83da" transform="translate(1185.522 910.373)"/>
                    <path data-name="패스 11698" d="M179.5 360.607c0-.044-.006-.091-.006-.134a2.127 2.127 0 0 1 0-.232v-.076c-.148-3.932 2.56-7.54 5.719-7.54a4.667 4.667 0 0 1 .638.049 6.15 6.15 0 0 0-2.343 3.287c-.043.124-.078.248-.115.374a9.359 9.359 0 0 0-.131 4.13 9.161 9.161 0 0 0 1.755 3.988z" style="fill:#5e83da" transform="translate(1185.522 910.373)"/>
                </g>
                <g data-name="그룹 632054">
                    <path data-name="패스 11699" d="M198.478 360.286a4.326 4.326 0 0 0-4.315-4.336 4.068 4.068 0 0 0-.418.02 4.323 4.323 0 0 0-3.895 4.138 1.762 1.762 0 0 0-.006.178 4.336 4.336 0 0 0 4.319 4.34 4.209 4.209 0 0 0 1.44-.25 4.337 4.337 0 0 0 2.875-4.09z" style="fill:#5e83da" transform="translate(1185.522 910.373)"/>
                    <path data-name="패스 11700" d="M189.857 360.607c0-.044-.007-.091-.007-.134a2.127 2.127 0 0 1 0-.232v-.076c-.148-3.932 2.561-7.54 5.719-7.54a4.684 4.684 0 0 1 .639.049 6.16 6.16 0 0 0-2.345 3.287c-.041.124-.076.248-.112.374a9.376 9.376 0 0 0-.133 4.13 9.189 9.189 0 0 0 1.755 3.988z" style="fill:#5e83da" transform="translate(1185.522 910.373)"/>
                </g>
            </g>
        </g>
    </g>
    <g data-name="그룹 632060">
        <g data-name="그룹 632365" transform="translate(25.5 -33.175)">
            <path data-name="사각형 463101" transform="translate(202.5 220.549)" style="fill:#fcf28d" d="M0 0h39v12.985H0z"/>
            <path data-name="패스 10787" d="M96 289.472V135.538l92.246-22.8v43.771l72.029 18.668v114.3z" style="fill:#fff"/>
            <path data-name="사각형 463523" transform="translate(202.5 220.175)" style="fill:#f2ac58" d="M0 0h40v13H0z"/>
            <path data-name="선 1928" transform="translate(87 109.673)" style="stroke-width:2.998px;stroke-linecap:round;stroke-linejoin:round;stroke:#222;fill:none" d="M0 26.921 109.004 0"/>
            <path data-name="선 1929" transform="translate(96.156 134.333)" style="stroke-width:2.997px;stroke-linecap:round;stroke-linejoin:round;stroke:#222;fill:none" d="M0 155.139V0"/>
            <path data-name="선 1930" transform="translate(187.852 111.686)" style="stroke-width:2.998px;stroke-linecap:round;stroke-linejoin:round;stroke:#222;fill:none" d="M.172 177.786 0 0"/>
            <path data-name="선 1931" transform="translate(222 233.535)" style="stroke-width:2.997px;stroke-linecap:round;stroke-linejoin:round;stroke:#222;fill:none" d="M0 54.939V0"/>
            <path data-name="선 1932" transform="translate(97 209.561)" style="stroke-width:3px;stroke-linecap:round;stroke-linejoin:round;stroke:#222;fill:none" d="M0 0h90"/>
            <path data-name="선 1933" transform="translate(202 233.535)" style="stroke-width:3px;stroke-linecap:round;stroke-linejoin:round;stroke:#222;fill:none" d="M0 0h40"/>
            <path data-name="선 1934" transform="translate(187.852 156.899)" style="stroke-width:2.998px;stroke-linecap:round;stroke-linejoin:round;stroke:#222;fill:none" d="M81.148 19.996 0 0"/>
            <path data-name="선 1935" transform="translate(260.233 174.735)" style="stroke-width:2.997px;stroke-linecap:round;stroke-linejoin:round;stroke:#222;fill:none" d="M0 114.737V0"/>
            <path data-name="패스 10679" d="M202 288.473V219.55h40v68.923" style="stroke-width:2.998px;stroke-linecap:round;stroke-linejoin:round;stroke:#222;fill:none"/>
            <rect data-name="사각형 463102" width="14.23" height="38.743" rx="2.04" transform="translate(121.935 153.267)" style="fill:#e4e4e4"/>
            <rect data-name="사각형 463103" width="14.23" height="38.743" rx="2.04" transform="translate(149.831 153.267)" style="fill:#e4e4e4"/>
            <rect data-name="사각형 463104" width="14.23" height="38.743" rx="2.04" transform="translate(121.935 230.563)" style="fill:#e4e4e4"/>
            <rect data-name="사각형 463105" width="14.23" height="38.743" rx="2.04" transform="translate(149.831 230.563)" style="fill:#e4e4e4"/>
        </g>
        <g data-name="그룹 632058" transform="translate(-1576.34 -2066.376)">
            <rect data-name="사각형 463401" width="105" height="68" rx="3" transform="translate(1610.885 2235)" style="stroke-miterlimit:10;fill:#afdae9;stroke-width:3px;stroke:#222"/>
            <rect data-name="사각형 463402" width="84" height="48" rx="1.989" transform="translate(1621.385 2245)" style="stroke-miterlimit:10;stroke-width:3px;stroke:#222;fill:#fcf28d"/>
            <path data-name="패스 11702" d="m1633.411 2234 29.776-26 30.172 26" style="stroke-width:3px;stroke-linecap:round;stroke-linejoin:round;stroke:#222;fill:none"/>
            <path data-name="패스 11703" d="M1662.385 2226a4 4 0 1 1 4-4 4 4 0 0 1-4 4z" style="stroke-miterlimit:10;stroke-width:3px;stroke:#222;fill:#fff"/>
            <g data-name="그룹 632057">
                <path data-name="패스 11704" d="M1641.463 2274.218a1.819 1.819 0 0 1-.445 1.281 1.8 1.8 0 0 1-2.456 0 1.794 1.794 0 0 1-.455-1.281v-10.9h-1.354a2.063 2.063 0 0 1-1.253-.357 1.618 1.618 0 0 1 0-2.31 2.061 2.061 0 0 1 1.253-.356h2.769a1.919 1.919 0 0 1 1.486.5 2.3 2.3 0 0 1 .455 1.575z" style="fill:#222"/>
                <path data-name="패스 11705" d="M1652.9 2275.982a1.613 1.613 0 0 1-1.232-.494 1.8 1.8 0 0 1-.465-1.291v-4.388l-4.669-7.139a1.786 1.786 0 0 1-.263-.63 1.508 1.508 0 0 1 0-.6 1.583 1.583 0 0 1 .222-.535 1.473 1.473 0 0 1 .4-.421 1.56 1.56 0 0 1 1.2-.294 1.537 1.537 0 0 1 1.061.715l3.739 5.668 3.74-5.668a1.535 1.535 0 0 1 1.061-.715 1.6 1.6 0 0 1 1.819 1.26 1.6 1.6 0 0 1-.253 1.218l-4.669 7.139v4.388a1.806 1.806 0 0 1-.465 1.291 1.614 1.614 0 0 1-1.226.496z" style="fill:#222"/>
                <path data-name="패스 11706" d="M1668.264 2274.89a4.233 4.233 0 0 1-1.7.976 7.258 7.258 0 0 1-2.142.3 5.934 5.934 0 0 1-2.254-.4 4.505 4.505 0 0 1-1.647-1.123 4.809 4.809 0 0 1-1.011-1.732 6.8 6.8 0 0 1-.344-2.2 6.2 6.2 0 0 1 .354-2.131 5.023 5.023 0 0 1 1-1.691 4.5 4.5 0 0 1 1.566-1.113 5.117 5.117 0 0 1 2.051-.4 5.341 5.341 0 0 1 2.062.378 4.523 4.523 0 0 1 1.526 1.009 4.35 4.35 0 0 1 .94 1.437 4.508 4.508 0 0 1 .324 1.691 2.028 2.028 0 0 1-.324 1.28 1.442 1.442 0 0 1-1.172.4h-5.477a1.938 1.938 0 0 0 .181.83 2.267 2.267 0 0 0 1.274 1.165 2.662 2.662 0 0 0 .95.168 3.106 3.106 0 0 0 1.324-.252 4.438 4.438 0 0 0 1.02-.672 1.419 1.419 0 0 1 .97-.378 1.117 1.117 0 0 1 .91.462 1.025 1.025 0 0 1 .232 1 2.14 2.14 0 0 1-.613.996zm-2-5.4a1.417 1.417 0 0 0-.172-.693 1.767 1.767 0 0 0-.465-.546 2.361 2.361 0 0 0-.677-.367 2.455 2.455 0 0 0-1.617 0 2.361 2.361 0 0 0-.677.367 1.769 1.769 0 0 0-.465.546 1.417 1.417 0 0 0-.171.693z" style="fill:#222"/>
                <path data-name="패스 11707" d="M1680.9 2274.449a1.394 1.394 0 0 1-1.516 1.533 1.21 1.21 0 0 1-.97-.378 1.933 1.933 0 0 1-.424-.924 2.486 2.486 0 0 1-1.031 1.081 3.553 3.553 0 0 1-1.8.41 3.8 3.8 0 0 1-1.779-.421 4.109 4.109 0 0 1-1.38-1.15 5.549 5.549 0 0 1-.879-1.722 7.035 7.035 0 0 1-.314-2.141 6.931 6.931 0 0 1 .314-2.131 5.412 5.412 0 0 1 .869-1.691 4.081 4.081 0 0 1 1.334-1.123 3.652 3.652 0 0 1 1.728-.41 3.814 3.814 0 0 1 1.829.4 2.791 2.791 0 0 1 1.1 1.008 1.553 1.553 0 0 1 .424-.892 1.334 1.334 0 0 1 .991-.346 1.387 1.387 0 0 1 1.1.451 1.741 1.741 0 0 1 .393 1.186zm-7.094-3.674a3.309 3.309 0 0 0 .576 2.005 1.8 1.8 0 0 0 1.526.787 1.751 1.751 0 0 0 1.506-.787 3.9 3.9 0 0 0 0-4.011 1.751 1.751 0 0 0-1.506-.787 1.8 1.8 0 0 0-1.526.787 3.311 3.311 0 0 0-.582 2.006z" style="fill:#222"/>
                <path data-name="패스 11708" d="M1687.89 2268.024a1.116 1.116 0 0 0-.981.483 2.136 2.136 0 0 0-.333 1.239v4.64a1.631 1.631 0 0 1-.405 1.165 1.45 1.45 0 0 1-1.111.431 1.485 1.485 0 0 1-1.122-.431 1.61 1.61 0 0 1-.414-1.165v-7.223a1.7 1.7 0 0 1 .394-1.176 1.4 1.4 0 0 1 1.1-.44 1.445 1.445 0 0 1 1.021.346 1.728 1.728 0 0 1 .455 1.123 1.964 1.964 0 0 1 .768-1.186 2.3 2.3 0 0 1 1.415-.452 3.992 3.992 0 0 1 .788.074 3.421 3.421 0 0 1 .768.263 1.422 1.422 0 0 1 .677.671 1.222 1.222 0 0 1-.01 1.008 1.334 1.334 0 0 1-.687.777 1.565 1.565 0 0 1-1.051.063q-.3-.084-.617-.147a3.319 3.319 0 0 0-.655-.063z" style="fill:#222"/>
            </g>
        </g>
        <g data-name="그룹 632059">
            <path data-name="패스 11709" d="M1895.067 2308.769a14.539 14.539 0 0 1-4.774-.8h0a14.638 14.638 0 0 1-8.9-19.019.207.207 0 0 0-.012-.177 15.713 15.713 0 0 1 2.834-19.067.167.167 0 0 0 .042-.153 11.139 11.139 0 1 1 21.643.01.156.156 0 0 0 .045.143 15.716 15.716 0 0 1 2.834 19.066.217.217 0 0 0-.009.187 14.653 14.653 0 0 1-12.361 19.751q-.676.06-1.342.059z" style="stroke-width:3px;stroke-linecap:round;stroke-linejoin:round;stroke:#222;fill:#fff" transform="translate(-1576.34 -2066.376)"/>
            <path data-name="선 2156" transform="translate(318.736 210.39)" style="stroke-width:3px;stroke-linecap:round;stroke-linejoin:round;stroke:#222;fill:none" d="M0 0v44.285"/>
            <path data-name="선 2157" transform="translate(318.736 213.188)" style="stroke-width:3px;stroke-linecap:round;stroke-linejoin:round;stroke:#222;fill:none" d="M5.807 0 0 8.576"/>
            <path data-name="선 2158" transform="translate(312.041 218.465)" style="stroke-width:3px;stroke-linecap:round;stroke-linejoin:round;stroke:#222;fill:none" d="m0 0 6.694 11.061"/>
        </g>
    </g>
    <path transform="translate(42 256.5)" style="stroke-width:3px;stroke-linecap:round;stroke-linejoin:round;stroke:#222;fill:none" d="M0 0h360"/>
</svg>
