<svg xmlns="http://www.w3.org/2000/svg" width="444" height="210" viewBox="0 0 444 210">
  <defs>
    <style>
      .cls-1 {
        fill: rgba(255,191,191,0.5);
        opacity: 0;
      }

      .cls-2 {
        fill: #e4ffe1;
      }

      .cls-3 {
        fill: #e3e6fb;
      }

      .cls-4, .cls-9 {
        fill: #fff;
      }

      .cls-4, .cls-5, .cls-6, .cls-8, .cls-9 {
        stroke: #222;
        stroke-linejoin: round;
      }

      .cls-4, .cls-5, .cls-6, .cls-8 {
        stroke-linecap: round;
      }

      .cls-4, .cls-5, .cls-6, .cls-9 {
        stroke-width: 3.005px;
      }

      .cls-5, .cls-7 {
        fill: #f2ac58;
      }

      .cls-6, .cls-8 {
        fill: none;
      }

      .cls-8 {
        stroke-width: 3px;
      }

      .cls-10 {
        fill: #fcf28d;
      }

      .cls-11 {
        fill: #222;
      }
    </style>
  </defs>
  <g id="SWKDIFDT0900_2" transform="translate(39 32.282)">
    <g id="deco">
      <rect id="BG" class="cls-1" width="444" height="210" transform="translate(-39 -32.282)"/>
      <circle id="Ellipse_2" data-name="Ellipse 2" class="cls-2" cx="56" cy="56" r="56" transform="translate(-23 19.244)"/>
      <circle id="Ellipse_2-2" data-name="Ellipse 2" class="cls-3" cx="25.25" cy="25.25" r="25.25" transform="translate(337 -32.282)"/>
    </g>
    <g id="im_" data-name="imㅎ" transform="translate(-67 -49.542)">
      <g id="그룹_1542" data-name="그룹 1542">
        <g id="그룹_1541" data-name="그룹 1541">
          <path id="패스_2501" data-name="패스 2501" class="cls-4" d="M403.5,223.552V86.791a8.014,8.014,0,0,0-8-8.027H217.376a6.946,6.946,0,0,0-6.876,6.976V224.159"/>
          <g id="그룹_1540" data-name="그룹 1540">
            <path id="패스_2502" data-name="패스 2502" class="cls-4" d="M383.5,207.2h-153a2,2,0,0,1-2-2.007V98.832a2,2,0,0,1,2-2.007h153Z"/>
            <g id="그룹_1538" data-name="그룹 1538">
              <path id="패스_2503" data-name="패스 2503" class="cls-5" d="M340.638,176.222v19.807l9.239-5.724,9.275,5.724V175.961"/>
              <g id="그룹_1537" data-name="그룹 1537">
                <ellipse id="타원_112" data-name="타원 112" class="cls-6" cx="20" cy="20.067" rx="20" ry="20.067" transform="translate(329.5 136.96)"/>
                <path id="패스_2504" data-name="패스 2504" class="cls-7" d="M349.5,144.286a12.741,12.741,0,1,0,12.7,12.741A12.733,12.733,0,0,0,349.5,144.286Z"/>
              </g>
            </g>
            <g id="그룹_1539" data-name="그룹 1539">
              <line id="선_697" data-name="선 697" class="cls-8" x2="88" transform="translate(254.5 122.391)"/>
              <line id="선_698" data-name="선 698" class="cls-8" x2="41" transform="translate(254.5 138.445)"/>
              <line id="선_699" data-name="선 699" class="cls-8" x2="20" transform="translate(254.5 157.509)"/>
              <line id="선_700" data-name="선 700" class="cls-8" x2="32" transform="translate(254.5 170.553)"/>
              <line id="선_701" data-name="선 701" class="cls-8" x2="27" transform="translate(285.5 157.509)"/>
              <line id="선_702" data-name="선 702" class="cls-8" x2="17" transform="translate(296.5 170.553)"/>
              <line id="선_703" data-name="선 703" class="cls-8" x2="47" transform="translate(254.5 183.597)"/>
            </g>
          </g>
        </g>
      </g>
      <g id="그룹_1545" data-name="그룹 1545">
        <g id="그룹_1543" data-name="그룹 1543">
          <path id="패스_2505" data-name="패스 2505" class="cls-9" d="M121.722,226.422v-58.6H91a2.007,2.007,0,0,1-1.447-3.391l74.678-78.543a2.993,2.993,0,0,1,4.341,0l71.771,75.484a3.817,3.817,0,0,1-2.752,6.45H211.086v58.6"/>
        </g>
        <ellipse id="타원_113" data-name="타원 113" class="cls-10" cx="31.021" cy="31.126" rx="31.021" ry="31.126" transform="translate(135.358 136.44)"/>
        <g id="그룹_1544" data-name="그룹 1544">
          <path id="패스_2506" data-name="패스 2506" class="cls-11" d="M163.15,159.538a9.172,9.172,0,0,1-.42,2.828,6.146,6.146,0,0,1-1.24,2.228,5.733,5.733,0,0,1-2,1.444,6.6,6.6,0,0,1-2.7.523,6.734,6.734,0,0,1-2.72-.523,5.487,5.487,0,0,1-2-1.444,6.292,6.292,0,0,1-1.22-2.228,9.172,9.172,0,0,1-.42-2.828,8.994,8.994,0,0,1,.42-2.809,6.318,6.318,0,0,1,1.22-2.207,5.5,5.5,0,0,1,2-1.445,6.768,6.768,0,0,1,2.72-.522,6.629,6.629,0,0,1,2.7.522,5.748,5.748,0,0,1,2,1.445,6.17,6.17,0,0,1,1.24,2.207A8.994,8.994,0,0,1,163.15,159.538Zm-8.4,22.315a2.265,2.265,0,0,1-.92-1.866,3.662,3.662,0,0,1,.88-2.268l18.72-24.161a3.205,3.205,0,0,1,2.04-1.3,2.618,2.618,0,0,1,2.16.661,2.361,2.361,0,0,1,.92,1.887,3.644,3.644,0,0,1-.88,2.247l-18.72,24.162a3.125,3.125,0,0,1-2.02,1.284A2.835,2.835,0,0,1,154.75,181.853Zm3.96-22.315a4.607,4.607,0,0,0-.44-2.007,1.648,1.648,0,0,0-2.96,0,4.593,4.593,0,0,0-.44,2.007,4.685,4.685,0,0,0,.44,2.047,1.648,1.648,0,0,0,2.96,0A4.7,4.7,0,0,0,158.71,159.538Zm23,16.255a9.171,9.171,0,0,1-.42,2.828,6.138,6.138,0,0,1-1.24,2.228,5.774,5.774,0,0,1-2,1.445,6.629,6.629,0,0,1-2.7.522,6.767,6.767,0,0,1-2.72-.522,5.524,5.524,0,0,1-2-1.445,6.283,6.283,0,0,1-1.22-2.228,9.172,9.172,0,0,1-.42-2.828,9.005,9.005,0,0,1,.42-2.81,6.322,6.322,0,0,1,1.22-2.206,5.5,5.5,0,0,1,2-1.445,6.75,6.75,0,0,1,2.72-.522,6.613,6.613,0,0,1,2.7.522,5.748,5.748,0,0,1,2,1.445,6.174,6.174,0,0,1,1.24,2.206A9,9,0,0,1,181.71,175.793Zm-4.44,0a4.6,4.6,0,0,0-.44-2.007,1.648,1.648,0,0,0-2.96,0,4.59,4.59,0,0,0-.44,2.007,4.688,4.688,0,0,0,.44,2.047,1.648,1.648,0,0,0,2.96,0A4.7,4.7,0,0,0,177.27,175.793Z"/>
        </g>
      </g>
      <path id="line" class="cls-8" d="M121.63,224.754H70"/>
      <path id="line-2" data-name="line" class="cls-8" d="M430,224.754H211.234"/>
    </g>
  </g>
</svg>
