<svg xmlns="http://www.w3.org/2000/svg" width="444" height="228" viewBox="0 0 444 228">
    <g transform="translate(-436 -767)">
        <circle data-name="Ellipse 2" cx="49.25" cy="49.25" r="49.25" transform="translate(772 767)" style="fill:#e3e6fb"/>
        <circle data-name="Ellipse 2" cx="37" cy="37" r="37" transform="translate(447 877)" style="fill:#e4ffe1"/>
        <circle data-name="Ellipse 2" cx="17.5" cy="17.5" r="17.5" transform="translate(490 929)" style="fill:rgba(252,245,189,.7)"/>
    </g>
    <g data-name="그룹 633767">
        <g data-name="그룹 633758">
            <path data-name="패스 14852" d="M279.007 257.215H139.392V75.525l139.615 10.094z" style="fill:#f2ac58" transform="translate(-32.616 -32.432)"/>
            <path data-name="패스 14853" d="M139.392 257.215V75.525l139.615 10.094v171.6" style="stroke-width:3.01px;stroke:#222;stroke-linecap:round;stroke-linejoin:round;fill:none" transform="translate(-32.616 -32.432)"/>
            <path data-name="사각형 464429" transform="translate(116.749 63.281)" style="fill:#fff;stroke-width:3.01px;stroke:#222;stroke-linecap:round;stroke-linejoin:round" d="M0 0h119.669v151.408H0z"/>
            <path data-name="패스 14854" d="M279.006 85.619H149.4a10.094 10.094 0 0 1 0-20.188H279v20.188" style="fill:#fff;stroke-width:3.01px;stroke:#222;stroke-linecap:round;stroke-linejoin:round" transform="translate(-32.616 -32.432)"/>
            <g data-name="그룹 633756">
                <path data-name="패스 14855" d="M174.273 124.356h-4.751a2.906 2.906 0 0 1-1.816-.552 1.987 1.987 0 0 1-.722-1.688 1.955 1.955 0 0 1 .722-1.658 2.912 2.912 0 0 1 1.816-.552h14.4a2.928 2.928 0 0 1 1.8.552 1.944 1.944 0 0 1 .737 1.658 1.975 1.975 0 0 1-.737 1.688 2.921 2.921 0 0 1-1.8.552h-4.782v15.356a2.538 2.538 0 0 1-.649 1.822 2.317 2.317 0 0 1-1.77.687 2.365 2.365 0 0 1-1.785-.687 2.5 2.5 0 0 1-.665-1.822z" style="fill:#222" transform="translate(-32.616 -32.432)"/>
                <path data-name="패스 14856" d="M195.7 119.726a3.143 3.143 0 0 1 1.86.523 3.244 3.244 0 0 1 1.121 1.449l7.083 17.386a2.137 2.137 0 0 1 0 1.837 2.282 2.282 0 0 1-1.446 1.181 2.2 2.2 0 0 1-1.845-.15 2.9 2.9 0 0 1-1.255-1.523l-1.327-3.525h-8.412l-1.3 3.525a2.9 2.9 0 0 1-1.254 1.523 2.262 2.262 0 0 1-1.875.15 2.227 2.227 0 0 1-1.431-1.181 2.175 2.175 0 0 1 .014-1.837l7.083-17.386a3.244 3.244 0 0 1 1.121-1.449 3.143 3.143 0 0 1 1.863-.523zm-2.656 13h5.312l-2.6-6.961h-.118z" style="fill:#222" transform="translate(-32.616 -32.432)"/>
                <path data-name="패스 14857" d="m217.51 134.663-5.047 6.662a2.25 2.25 0 0 1-.768.642 2.545 2.545 0 0 1-.929.268 2.613 2.613 0 0 1-.959-.089 2.011 2.011 0 0 1-.826-.463 2.286 2.286 0 0 1-.783-1.508 2.355 2.355 0 0 1 .546-1.748l5.814-7.708-5.4-7.17a2.407 2.407 0 0 1-.518-1.747 2.341 2.341 0 0 1 .753-1.509 2.245 2.245 0 0 1 .856-.462 2.6 2.6 0 0 1 .96-.09 2.443 2.443 0 0 1 .914.27 2.293 2.293 0 0 1 .752.642l4.634 6.153 4.633-6.153a2.279 2.279 0 0 1 .738-.627 2.416 2.416 0 0 1 .929-.285 2.588 2.588 0 0 1 .959.09 2.006 2.006 0 0 1 .827.462 2.239 2.239 0 0 1 .767 1.514 2.542 2.542 0 0 1-.5 1.752l-5.4 7.19 5.815 7.656a2.458 2.458 0 0 1 .531 1.743 2.214 2.214 0 0 1-.767 1.5 2 2 0 0 1-.827.463 2.609 2.609 0 0 1-.958.09 2.693 2.693 0 0 1-.944-.269 1.974 1.974 0 0 1-.754-.641z" style="fill:#222" transform="translate(-32.616 -32.432)"/>
            </g>
            <g data-name="그룹 633757">
                <path data-name="패스 14858" d="M195 167.867q-2.682 0-2.681-2.74v-15.613a2.331 2.331 0 0 1 .615-1.689 2.194 2.194 0 0 1 1.654-.636 2.2 2.2 0 0 1 2.325 2.325v14.145H204a2.565 2.565 0 0 1 1.7.568 2.067 2.067 0 0 1 0 3.073 2.57 2.57 0 0 1-1.7.567z" style="fill:#222" transform="translate(-32.616 -32.432)"/>
                <path data-name="패스 14859" d="M217.4 147.19a2.917 2.917 0 0 1 1.723.483 3.006 3.006 0 0 1 1.038 1.343l6.564 16.11a1.987 1.987 0 0 1 0 1.7 2.119 2.119 0 0 1-1.339 1.093 2.038 2.038 0 0 1-1.709-.139 2.679 2.679 0 0 1-1.163-1.411l-1.231-3.266h-7.793l-1.2 3.266a2.691 2.691 0 0 1-1.162 1.411 2.1 2.1 0 0 1-1.737.139 2.069 2.069 0 0 1-1.326-1.093 2.021 2.021 0 0 1 .013-1.7l6.564-16.11a3.015 3.015 0 0 1 1.039-1.343 2.915 2.915 0 0 1 1.719-.483zm-2.461 12.041h4.922l-2.406-6.45h-.11z" style="fill:#222" transform="translate(-32.616 -32.432)"/>
                <path data-name="패스 14860" d="M236.458 165.735a2.66 2.66 0 0 1-2.817 2.3 3.209 3.209 0 0 1-1.86-.526 2.657 2.657 0 0 1-1.012-1.771l-3.227-16.083a2.03 2.03 0 0 1 .288-1.716 1.877 1.877 0 0 1 1.38-.747q1.832-.221 2.216 1.827L233.7 162h.055l3.089-12.789a2.684 2.684 0 0 1 .876-1.467 2.875 2.875 0 0 1 3.391 0 2.685 2.685 0 0 1 .877 1.467L245.072 162h.055l2.27-12.982q.383-2.049 2.215-1.827a1.878 1.878 0 0 1 1.381.747 2.033 2.033 0 0 1 .287 1.716l-3.227 16.083a2.656 2.656 0 0 1-1.011 1.771 3.211 3.211 0 0 1-1.86.526 2.66 2.66 0 0 1-2.817-2.3l-2.9-11.626h-.11z" style="fill:#222" transform="translate(-32.616 -32.432)"/>
            </g>
            <path data-name="선 2898" transform="translate(136.362 155.622)" style="stroke-width:2.992px;fill:#fff;stroke:#222;stroke-linecap:round;stroke-linejoin:round" d="M0 0h79.78"/>
            <path data-name="선 2899" transform="translate(136.694 172.074)" style="stroke-width:2.992px;fill:#fff;stroke:#222;stroke-linecap:round;stroke-linejoin:round" d="M0 0h49.862"/>
            <path data-name="선 2900" transform="translate(166.225 188.526)" style="stroke-width:2.992px;fill:#fff;stroke:#222;stroke-linecap:round;stroke-linejoin:round" d="M0 0h49.862"/>
            <path data-name="선 2901" transform="translate(196.528 172.074)" style="stroke-width:2.992px;fill:#fff;stroke:#222;stroke-linecap:round;stroke-linejoin:round" d="M0 0h19.945"/>
            <path data-name="선 2902" transform="translate(136.694 188.526)" style="stroke-width:2.992px;fill:#fff;stroke:#222;stroke-linecap:round;stroke-linejoin:round" d="M0 0h19.945"/>
            <path data-name="선 2903" transform="translate(116.788 42.302)" style="stroke-width:2.992px;fill:#fff;stroke:#222;stroke-linecap:round;stroke-linejoin:round" d="M0 0h129.642"/>
        </g>
        <g data-name="그룹 633766">
            <g data-name="그룹 633765">
                <g data-name="그룹 633762" transform="translate(-32.616 -31.432)">
                    <path data-name="사각형 464430" transform="translate(302.033 143.033)" style="fill:#fff" d="M0 0h86.76v43.908H0z"/>
                    <path data-name="패스 14861" d="M324.627 186.942h-22.594v-43.909h86.76v43.908H375.98" style="stroke-width:3.01px;stroke:#222;stroke-linecap:round;stroke-linejoin:round;fill:none"/>
                    <g data-name="그룹 633759">
                        <path data-name="패스 14862" d="M381.563 174.135v-18.3a5.457 5.457 0 0 1-5.422-5.489h-61.455a5.458 5.458 0 0 1-5.423 5.489v18.3a5.457 5.457 0 0 1 5.423 5.488h61.455a5.456 5.456 0 0 1 5.422-5.488z" style="fill:#fcf28d"/>
                    </g>
                    <g data-name="그룹 633760">
                        <path data-name="패스 14863" d="M366.872 179.623h9.269a5.456 5.456 0 0 1 5.422-5.488v-18.3a5.457 5.457 0 0 1-5.422-5.489h-61.455a5.458 5.458 0 0 1-5.423 5.489v18.3a5.457 5.457 0 0 1 5.423 5.488h10.008" style="stroke-width:3.01px;stroke:#222;stroke-linecap:round;stroke-linejoin:round;fill:none"/>
                    </g>
                    <ellipse data-name="타원 1416" cx="9.038" cy="9.148" rx="9.038" ry="9.148" transform="translate(336.376 155.84)" style="fill:#fff"/>
                    <path data-name="패스 14864" d="M338.171 170.462a9.04 9.04 0 1 1 14.737-.361" style="stroke-width:3.01px;stroke:#222;stroke-linecap:round;stroke-linejoin:round;fill:none"/>
                    <g data-name="그룹 633761">
                        <path data-name="패스 14865" d="m341.761 163.049 1.618 4.292a.377.377 0 0 0 .718-.031l1.172-4.161a.378.378 0 0 1 .727-.007l1.249 4.141a.377.377 0 0 0 .721.011l1.428-4.244" style="stroke-width:2.007px;stroke:#222;stroke-linecap:round;stroke-linejoin:round;fill:none"/>
                        <path data-name="선 2904" transform="translate(341.03 165.029)" style="stroke-width:1.994px;stroke:#222;stroke-linecap:round;stroke-linejoin:round;fill:none" d="M0 0h9.094"/>
                    </g>
                </g>
                <g data-name="그룹 633764">
                    <g data-name="그룹 633763">
                        <path data-name="사각형 464431" transform="translate(298.148 214.942)" style="fill:#afdae9" d="M0 0h38.147v10.089H0z"/>
                        <path data-name="패스 14866" d="M330.764 256.463v-10.089h38.147v10.089" style="stroke-width:3.01px;stroke:#222;stroke-linecap:round;stroke-linejoin:round;fill:none" transform="translate(-32.616 -31.432)"/>
                    </g>
                    <path data-name="패스 14867" d="M368.75 188.377a4.6 4.6 0 0 0-9.109 0h-.049v-5.315c0-.029.009-.058.009-.088a4.666 4.666 0 0 0-4.628-4.7c-2.556 0-4.6 1.534-4.6 4.132h0v-5.396a4.628 4.628 0 1 0-9.255 0h-.018v3.158a4.62 4.62 0 0 0-9.238.169v36.733l-2.6.808-5.688-14.265a.328.328 0 0 0-.027-.061l-.023-.049a4.623 4.623 0 0 0-4.211-3.011 4.858 4.858 0 0 0-4.619 5.071 5.481 5.481 0 0 0 .388 2.028l8.871 22.259c2.992 6.382 9.783 7.418 9.783 7.418l-.007 9.109h31.534l.014-9.251a7.571 7.571 0 0 0 3.481-6.3z" style="fill:#fff;stroke-width:3.01px;stroke:#222;stroke-linecap:round;stroke-linejoin:round" transform="translate(-32.616 -31.432)"/>
                    <path data-name="선 2905" transform="translate(308.479 148.735)" style="stroke-width:3.028px;fill:#fff;stroke:#222;stroke-linecap:round;stroke-linejoin:round" d="M0 0v22.792"/>
                    <path data-name="선 2906" transform="translate(317.768 150.97)" style="stroke-width:3.028px;fill:#fff;stroke:#222;stroke-linecap:round;stroke-linejoin:round" d="M0 0v22.394"/>
                    <path data-name="선 2907" transform="translate(327.026 156.944)" style="stroke-width:3.028px;fill:#fff;stroke:#222;stroke-linecap:round;stroke-linejoin:round" d="M0 0v18.256"/>
                </g>
            </g>
        </g>
    </g>
    <path data-name="패스 14868" d="M434.616 258.4h-360" style="stroke-width:2.992px;stroke:#222;stroke-linecap:round;stroke-linejoin:round;fill:none" transform="translate(-32.616 -32.432)"/>
</svg>
