<svg xmlns="http://www.w3.org/2000/svg" width="444" height="244.001" viewBox="0 0 444 244.001">
    <g transform="translate(-1024.75 -1191.857)">
        <circle data-name="Ellipse 2" cx="53.941" cy="53.941" r="53.941" transform="translate(1050.25 1245.5)" style="fill:#dcf5fb"/>
        <circle data-name="Ellipse 2" cx="21.25" cy="21.25" r="21.25" transform="translate(1394.75 1191.857)" style="fill:#e3e6fb"/>
        <circle data-name="Ellipse 2" cx="10.816" cy="10.816" r="10.816" transform="translate(1447.117 1264)" style="fill:#fbf0e3"/>
    </g>
    <g data-name="그룹 632041" transform="translate(-1515.444 -2102.776)">
        <g data-name="그룹 632039">
            <path data-name="패스 11682" d="M1591.591 2322.935v-54.023h-30.718a2 2 0 0 1-1.447-3.38l74.678-78.279a3 3 0 0 1 4.341 0l71.771 75.231a3.8 3.8 0 0 1-2.752 6.428h-26.509v54.273c0 2.1-1.344 1.047-3.444 1.047" style="stroke-linecap:round;stroke-linejoin:round;stroke:#222;stroke-width:3px;fill:#fff"/>
        </g>
        <circle data-name="타원 1282" cx="31.021" cy="31.021" r="31.021" transform="translate(1605.021 2238.447)" style="fill:#f2ac58"/>
        <g data-name="그룹 632040">
            <path data-name="패스 11683" d="M1621.544 2276.932a1.94 1.94 0 0 1-.5 1.4 2.1 2.1 0 0 1-2.787 0 1.91 1.91 0 0 1-.517-1.4v-11.9h-1.54a2.4 2.4 0 0 1-1.422-.39 1.72 1.72 0 0 1 0-2.523 2.4 2.4 0 0 1 1.422-.39h3.142a2.224 2.224 0 0 1 1.686.55 2.452 2.452 0 0 1 .516 1.721z" style="fill:#2d2d2d"/>
            <path data-name="패스 11684" d="M1631.431 2279.065a6.256 6.256 0 0 1-3.074-.688 5.475 5.475 0 0 1-2-1.881 8.328 8.328 0 0 1-1.09-2.81 18.111 18.111 0 0 1 0-6.9 8.45 8.45 0 0 1 1.09-2.822 5.437 5.437 0 0 1 2-1.892 7.207 7.207 0 0 1 6.147 0 5.437 5.437 0 0 1 2 1.892 8.447 8.447 0 0 1 1.09 2.822 18.111 18.111 0 0 1 0 6.9 8.326 8.326 0 0 1-1.09 2.81 5.476 5.476 0 0 1-2 1.881 6.255 6.255 0 0 1-3.073.688zm0-3.257a2.023 2.023 0 0 0 1.376-.459 3.035 3.035 0 0 0 .826-1.238 7.047 7.047 0 0 0 .4-1.79 21.225 21.225 0 0 0 0-4.175 7.06 7.06 0 0 0-.4-1.789 3.149 3.149 0 0 0-.826-1.25 2.251 2.251 0 0 0-2.753 0 3.148 3.148 0 0 0-.826 1.25 7.055 7.055 0 0 0-.4 1.789 21.2 21.2 0 0 0 0 4.175 7.041 7.041 0 0 0 .4 1.79 3.035 3.035 0 0 0 .826 1.238 2.024 2.024 0 0 0 1.377.459z" style="fill:#2d2d2d"/>
            <path data-name="패스 11685" d="M1652.557 2261.976a1.533 1.533 0 0 1 .516-1.239 2.217 2.217 0 0 1 2.638 0 1.533 1.533 0 0 1 .516 1.239v8.143a1.532 1.532 0 0 1-.516 1.239 2.209 2.209 0 0 1-2.638 0 1.544 1.544 0 0 1-.516-1.246v-2.674h-2.936a4.837 4.837 0 0 1-1.939 2.93 6.252 6.252 0 0 1-3.682 1.032 7.282 7.282 0 0 1-2.363-.367 5.181 5.181 0 0 1-1.847-1.067 4.794 4.794 0 0 1-1.192-1.7 6.311 6.311 0 0 1 0-4.554 4.776 4.776 0 0 1 1.192-1.708 5.177 5.177 0 0 1 1.847-1.067 7.276 7.276 0 0 1 2.363-.367 6.406 6.406 0 0 1 3.647 1 4.63 4.63 0 0 1 1.949 2.832h2.96zm0 14.245a.223.223 0 0 0-.253-.252h-9.817a1.673 1.673 0 0 1-1.124-.39 1.606 1.606 0 0 1 0-2.248 1.673 1.673 0 0 1 1.124-.39h11.7a2.283 2.283 0 0 1 1.583.435 2.113 2.113 0 0 1 .459 1.56v4.978a1.533 1.533 0 0 1-.516 1.239 2.213 2.213 0 0 1-2.638 0 1.533 1.533 0 0 1-.516-1.239zm-6.263-10.231a3.092 3.092 0 0 0-.562-1.915 2.385 2.385 0 0 0-3.463 0 3.545 3.545 0 0 0 0 3.831 2.385 2.385 0 0 0 3.463 0 3.1 3.1 0 0 0 .562-1.916z" style="fill:#2d2d2d"/>
        </g>
    </g>
    <path data-name="선 2142" transform="translate(42 220.1)" style="fill:none;stroke-linecap:round;stroke-linejoin:round;stroke:#222;stroke-width:3px" d="M0 0h360"/>
    <g data-name="그룹 632052">
        <g data-name="그룹 632043">
            <path data-name="패스 11686" d="M1742.1 2165.277h-35.183c-8.114 0-14.78 6.892-14.78 15.3s6.666 15.306 14.78 15.306h35.183z" style="fill:#f0f2f5;stroke-linecap:round;stroke-linejoin:round;stroke:#222;stroke-width:3px" transform="translate(-1515.444 -2102.776)"/>
            <g data-name="그룹 632042">
                <path data-name="패스 11687" d="M1709.387 2195.888c-10.9 0-16.529-7.17-17.253-15.306v123.7c0 21.353 23.815 19.216 23.815 19.216h178.412v-111.973a15.637 15.637 0 0 0-15.638-15.637h-169.336z" style="stroke-linecap:round;stroke-linejoin:round;stroke:#222;stroke-width:3px;fill:#fff" transform="translate(-1515.444 -2102.776)"/>
            </g>
        </g>
        <g data-name="그룹 632046">
            <g data-name="그룹 632044">
                <path data-name="사각형 463390" transform="translate(207.017 169.637)" style="fill:#f0f2f5" d="M0 0h99v4.5H0z"/>
                <path data-name="사각형 463391" transform="translate(206.915 183.043)" style="fill:#f0f2f5" d="M0 0h60.75v4.5H0z"/>
                <path data-name="사각형 463392" transform="translate(206.789 196.449)" style="fill:#f0f2f5" d="M0 0h78.75v4.5H0z"/>
            </g>
            <g data-name="그룹 632045">
                <path data-name="사각형 463393" transform="rotate(180 164.087 73.48)" style="fill:#f0f2f5" d="M0 0h13.5v13.5H0z"/>
                <path data-name="사각형 463394" transform="rotate(180 153.657 73.48)" style="fill:#f0f2f5" d="M0 0h13.5v13.5H0z"/>
                <path data-name="사각형 463395" transform="rotate(180 143.227 73.48)" style="fill:#f0f2f5" d="M0 0h13.5v13.5H0z"/>
            </g>
        </g>
        <g data-name="그룹 632047">
            <path data-name="패스 11688" d="M1894.361 2329.639v-116.955a15.637 15.637 0 0 1-15.638 15.637H1858.4v116.956h20.327a15.638 15.638 0 0 0 15.634-15.638z" style="fill:#f0f2f5;stroke-linecap:round;stroke-linejoin:round;stroke:#222;stroke-width:3px" transform="translate(-1515.444 -2102.776)"/>
        </g>
        <g data-name="그룹 632048">
            <path data-name="패스 11689" d="m1704.207 2308.933-7.894-1.973c-7.809-1.952-13.242 2.689-16.055 5.353a31.916 31.916 0 0 1-6.373 4.725l-7.385 3.255a3.1 3.1 0 0 0-.192 5.3l8.385 4.491a32.29 32.29 0 0 1 4.843 3.826c2.916 2.84 8.3 7.73 16.3 6.043l8.371-1.765" style="stroke-linecap:round;stroke-linejoin:round;stroke:#222;stroke-width:3px;fill:#fff" transform="translate(-1515.444 -2102.776)"/>
            <path data-name="패스 11690" d="M1704.207 2308.764h73.17a3.245 3.245 0 0 1 3.235 3.235v22.787a3.245 3.245 0 0 1-3.235 3.235h-73.17z" style="fill:#fff" transform="translate(-1515.444 -2102.776)"/>
            <path data-name="패스 11691" d="M1704.207 2308.764h5.67a3.245 3.245 0 0 1 3.235 3.235v22.787a3.245 3.245 0 0 1-3.235 3.235h-5.67z" style="fill:#afdae9" transform="translate(-1515.444 -2102.776)"/>
            <path data-name="패스 11692" d="M1762.707 2308.764h14.67a3.245 3.245 0 0 1 3.235 3.235v22.787a3.245 3.245 0 0 1-3.235 3.235h-14.67z" style="fill:#afdae9" transform="translate(-1515.444 -2102.776)"/>
            <path data-name="패스 11693" d="M1704.207 2308.764h73.17a3.245 3.245 0 0 1 3.235 3.235v22.787a3.245 3.245 0 0 1-3.235 3.235h-73.17z" style="fill:none;stroke-linecap:round;stroke-linejoin:round;stroke:#222;stroke-width:3px" transform="translate(-1515.444 -2102.776)"/>
            <path data-name="선 2143" transform="translate(198.07 205.988)" style="stroke-linecap:round;stroke-linejoin:round;stroke:#222;stroke-width:3px;fill:#fff" d="M0 29.257V0"/>
            <path data-name="선 2144" transform="translate(150.726 220.358)" style="stroke-linecap:round;stroke-linejoin:round;stroke:#222;stroke-width:3px;fill:#fff" d="M22.677 0H0"/>
            <path data-name="패스 11694" d="M1691.045 2321.393a1.552 1.552 0 1 0 1.552 1.551 1.552 1.552 0 0 0-1.552-1.551z" style="stroke-linecap:round;stroke-linejoin:round;stroke:#222;stroke-width:3px;fill:#fff" transform="translate(-1515.444 -2102.776)"/>
            <path data-name="선 2145" transform="translate(247.818 206.377)" style="fill:none;stroke-linecap:round;stroke-linejoin:round;stroke:#222;stroke-width:3px" d="M0 28.137V0"/>
        </g>
        <g data-name="그룹 632050" transform="translate(-1515.444 -2102.776)">
            <circle data-name="타원 1283" cx="21" cy="21" r="21" transform="translate(1723.977 2218.12)" style="fill:#fcf28d;stroke-miterlimit:10;stroke:#222;stroke-width:3px"/>
            <g data-name="그룹 632049">
                <path data-name="패스 11695" d="m1734.907 2234.62 4.267 11.189a1 1 0 0 0 1.9-.082l3.092-10.848a1 1 0 0 1 1.918-.018l3.3 10.8a1 1 0 0 0 1.9.03l3.769-11.067" style="fill:none;stroke-linecap:round;stroke-linejoin:round;stroke:#222;stroke-width:3px"/>
                <path data-name="선 2146" transform="translate(1732.977 2239.781)" style="fill:none;stroke-linecap:round;stroke-linejoin:round;stroke:#222;stroke-width:3px" d="M0 0h24"/>
            </g>
        </g>
    </g>
</svg>
