<svg xmlns="http://www.w3.org/2000/svg" width="444" height="221" viewBox="0 0 444 221">
    <g transform="translate(39 33.282)">
        <circle data-name="Ellipse 2" cx="53.5" cy="53.5" r="53.5" transform="translate(-12.033 -33.282)" style="fill:#e3e6fb"/>
        <circle data-name="Ellipse 2" cx="33.75" cy="33.75" r="33.75" transform="translate(315.5 84.718)" style="fill:#fbf0e3"/>
        <circle data-name="Ellipse 2" cx="21" cy="21" r="21" transform="translate(281.5 -21.782)" style="fill:#dcf5fb"/>
    </g>
    <path data-name="선 223" transform="translate(42 219.172)" style="stroke-width:3px;stroke-linecap:round;stroke-linejoin:round;stroke:#222;fill:none" d="M0 0h360"/>
    <g data-name="그룹 2465">
        <g data-name="그룹 2461">
            <path data-name="패스 4059" d="M78.8 131.085h16.238V197.3H78.8z" transform="translate(2.282 12.744)" style="fill-rule:evenodd;fill:#e8eef3"/>
        </g>
        <g data-name="그룹 2462">
            <path data-name="패스 4060" d="M78.8 131.085h16.238V197.3H78.8z" transform="translate(2.282 12.744)" style="fill-rule:evenodd;stroke-width:3px;stroke-linecap:round;stroke-linejoin:round;stroke:#222;fill:none"/>
        </g>
        <g data-name="그룹 2463">
            <path data-name="패스 4061" d="M99.113 119.089H70.7v9.442c0 2.261 1.381 4.1 3.071 4.1h22.265c1.69 0 3.077-1.841 3.077-4.1v-9.442z" transform="translate(4.294 15.724)" style="fill:#fff;fill-rule:evenodd;stroke-width:3px;stroke-linecap:round;stroke-linejoin:round;stroke:#222"/>
        </g>
        <g data-name="그룹 2464">
            <path data-name="패스 4062" d="M99.113 226.709v-9.441c0-2.262-1.387-4.1-3.077-4.1H73.775c-1.69 0-3.071 1.841-3.071 4.1v9.441z" transform="translate(4.294 -7.648)" style="fill:#fff;fill-rule:evenodd;stroke-width:3px;stroke-linecap:round;stroke-linejoin:round;stroke:#222"/>
        </g>
    </g>
    <g data-name="그룹 2470">
        <g data-name="그룹 2466">
            <path data-name="패스 4063" d="M203 131.085h16.234V197.3H203z" transform="translate(-28.574 12.744)" style="fill-rule:evenodd;fill:#e8eef3"/>
        </g>
        <g data-name="그룹 2467">
            <path data-name="패스 4064" d="M203 131.085h16.234V197.3H203z" transform="translate(-28.574 12.744)" style="fill-rule:evenodd;stroke-width:3px;stroke-linecap:round;stroke-linejoin:round;stroke:#222;fill:none"/>
        </g>
        <g data-name="그룹 2468">
            <path data-name="패스 4065" d="M223.313 119.089H194.9v9.442c0 2.261 1.381 4.1 3.071 4.1h22.261c1.69 0 3.077-1.841 3.077-4.1v-9.442z" transform="translate(-26.562 15.724)" style="fill:#fff;fill-rule:evenodd;stroke-width:3px;stroke-linecap:round;stroke-linejoin:round;stroke:#222"/>
        </g>
        <g data-name="그룹 2469">
            <path data-name="패스 4066" d="M223.313 226.709v-9.441c0-2.262-1.387-4.1-3.077-4.1h-22.261c-1.69 0-3.071 1.841-3.071 4.1v9.441z" transform="translate(-26.562 -7.648)" style="fill:#fff;fill-rule:evenodd;stroke-width:3px;stroke-linecap:round;stroke-linejoin:round;stroke:#222"/>
        </g>
    </g>
    <path data-name="패스 4067" d="M132.06 45.94a5.154 5.154 0 0 0-5.383 0l-63.8 39.035a2.408 2.408 0 0 0-1.15 2.053v11.294a2.4 2.4 0 0 0 2.4 2.406h130.479a2.4 2.4 0 0 0 2.4-2.406V87.028a2.408 2.408 0 0 0-1.15-2.053z" transform="translate(6.524 34.086)" style="fill:#fff;fill-rule:evenodd"/>
    <path data-name="패스 4069" d="M132.06 45.94a5.154 5.154 0 0 0-5.383 0l-63.8 39.035a2.408 2.408 0 0 0-1.15 2.053v11.294a2.4 2.4 0 0 0 2.4 2.406h130.479a2.4 2.4 0 0 0 2.4-2.406V87.028a2.408 2.408 0 0 0-1.15-2.053z" transform="translate(6.524 34.086)" style="fill-rule:evenodd;stroke-width:3px;stroke-linecap:round;stroke-linejoin:round;stroke:#222;fill:none"/>
    <g data-name="그룹 2471">
        <path data-name="패스 4070" d="M126.765 72.523a4.113 4.113 0 0 1 3.055 1.219 1.034 1.034 0 0 1-.75 1.743h-.006a1.006 1.006 0 0 1-.791-.382 1.868 1.868 0 0 0-1.532-.7 2.454 2.454 0 0 0 0 4.865 1.868 1.868 0 0 0 1.532-.7 1.006 1.006 0 0 1 .791-.382 1.034 1.034 0 0 1 .749 1.745 4.307 4.307 0 1 1-3.05-7.405z" transform="translate(-8.579 27.293)" style="fill:#333"/>
        <path data-name="패스 4071" d="M139.053 81.15a4.33 4.33 0 1 1 4.318-4.336 4.251 4.251 0 0 1-4.318 4.336zm0-1.879a2.468 2.468 0 1 0-2.238-2.458 2.209 2.209 0 0 0 2.238 2.458z" transform="translate(-11.608 27.301)" style="fill:#333"/>
        <path data-name="패스 4072" d="M148.731 72.651a1.029 1.029 0 0 1 1.028 1.029v4.029c0 1 .493 1.578 1.468 1.578a1.388 1.388 0 0 0 1.492-1.578v-4.028a1.028 1.028 0 0 1 1.028-1.029 1.029 1.029 0 0 1 1.029 1.029V77.7a3.32 3.32 0 0 1-3.586 3.493 3.24 3.24 0 0 1-3.49-3.493v-4.019a1.029 1.029 0 0 1 1.031-1.03z" transform="translate(-14.836 27.261)" style="fill:#333"/>
        <path data-name="패스 4073" d="M162.483 72.651c2.07 0 3.1 1.192 3.1 2.661a2.461 2.461 0 0 1-1.877 2.445l1.076 1.849a1 1 0 0 1-.861 1.5 1 1 0 0 1-.872-.516l-1.472-2.676h-.494v2.195a1 1 0 0 1-1 1h-.065a1 1 0 0 1-1-1v-6.461a1 1 0 0 1 1-1zm-.12 1.71h-1.275v2.1h1.275c.77 0 1.13-.4 1.13-1.059 0-.631-.361-1.041-1.131-1.041z" transform="translate(-17.65 27.261)" style="fill:#333"/>
        <path data-name="패스 4074" d="M169.677 72.651h4.884a.824.824 0 0 1 .824.825.825.825 0 0 1-.824.825h-1.413v5.981a.824.824 0 0 1-.824.825h-.41a.825.825 0 0 1-.824-.825V74.3h-1.414a.825.825 0 0 1-.824-.825.824.824 0 0 1 .825-.824z" transform="translate(-20.09 27.261)" style="fill:#333"/>
    </g>
    <path data-name="선 1137" transform="translate(68 120.551)" style="stroke-width:3px;stroke-linecap:round;stroke-linejoin:round;stroke:#222;fill:none" d="M0 0h123.5"/>
    <g data-name="그룹 630737" transform="translate(103.288 146.162)">
        <path data-name="사각형 1264" transform="translate(28.345 7.917)" style="fill:#fff;stroke-width:3px;stroke-linecap:round;stroke-linejoin:round;stroke:#222" d="M0 0h8.267v58.692H0z"/>
        <path data-name="선 1139" transform="translate(5.422 5.643)" style="stroke-width:3px;stroke-linecap:round;stroke-linejoin:round;stroke:#222;fill:none" d="M0 0h54.113"/>
        <ellipse data-name="타원 148" cx="5.637" cy="5.644" rx="5.637" ry="5.644" transform="translate(26.842)" style="fill:#fcf28d;stroke-width:3px;stroke-linecap:round;stroke-linejoin:round;stroke:#222"/>
        <path data-name="사각형 1265" d="M7.058 0H21.5a7.058 7.058 0 0 1 7.058 7.058v3.477h0H0h0V7.058A7.058 7.058 0 0 1 7.058 0z" transform="translate(18.199 62.338)" style="fill:#fff;stroke-width:3px;stroke-linecap:round;stroke-linejoin:round;stroke:#222"/>
        <g data-name="그룹 2472">
            <path data-name="선 1140" style="fill:#fff;stroke-width:3px;stroke-linecap:round;stroke-linejoin:round;stroke:#222" d="M0 14.602 7.445 0" transform="translate(3.684 6.468)"/>
            <path data-name="선 1141" transform="translate(11.129 6.468)" style="fill:#fff;stroke-width:3px;stroke-linecap:round;stroke-linejoin:round;stroke:#222" d="m0 0 7.445 14.602"/>
        </g>
        <path data-name="패스 4075" d="M119.475 172.855a11.136 11.136 0 0 0 11.13-11.143h-22.259a11.136 11.136 0 0 0 11.129 11.143z" transform="translate(-108.346 -141.027)" style="fill:#afdae9;stroke-miterlimit:10;fill-rule:evenodd;stroke-width:3px;stroke:#222"/>
        <g data-name="그룹 2473">
            <path data-name="선 1142" style="fill:#fff;stroke-width:3px;stroke-linecap:round;stroke-linejoin:round;stroke:#222" d="M0 14.602 7.445 0" transform="translate(47.455 6.468)"/>
            <path data-name="선 1143" transform="translate(54.9 6.468)" style="fill:#fff;stroke-width:3px;stroke-linecap:round;stroke-linejoin:round;stroke:#222" d="m0 0 7.445 14.602"/>
        </g>
        <path data-name="패스 4076" d="M177.714 172.855a11.136 11.136 0 0 0 11.13-11.143h-22.259a11.136 11.136 0 0 0 11.129 11.143z" transform="translate(-122.815 -141.027)" style="fill:#afdae9;stroke-miterlimit:10;fill-rule:evenodd;stroke-width:3px;stroke:#222"/>
    </g>
    <g>
        <path data-name="패스 4205" d="M108.711 73.566v33.576H82.929V73.566c0-5.959 5.773-10.792 12.891-10.792s12.891 4.832 12.891 10.792z" transform="translate(238.268 -20.726)" style="stroke-width:3.008px;fill:#e4e4e4;stroke-linecap:round;stroke-linejoin:round;stroke:#222"/>
        <path data-name="패스 4206" d="M96.136 238.758V75.045c0-7.305 6.66-12.166 14.323-12.166h133.02c-7.118 0-12.891 5.45-12.891 12.171v163.708" transform="translate(90.293 -20.726)" style="stroke-width:3.008px;fill:#fff;stroke-linecap:round;stroke-linejoin:round;stroke:#222"/>
        <g data-name="그룹 2553">
            <path data-name="선 1160" transform="translate(225.213 87.779)" style="stroke-width:3px;stroke-linecap:round;stroke-linejoin:round;stroke:#222;fill:none" d="M49.287 0H0"/>
            <path data-name="선 1161" transform="translate(199 116.86)" style="stroke-width:3px;stroke-linecap:round;stroke-linejoin:round;stroke:#222;fill:none" d="M60 0H0"/>
            <path data-name="선 1162" transform="translate(199 87.696)" style="stroke-width:3px;stroke-linecap:round;stroke-linejoin:round;stroke:#222;fill:none" d="M16 0H0"/>
            <path data-name="선 1163" transform="translate(269.498 116.86)" style="stroke-width:3px;stroke-linecap:round;stroke-linejoin:round;stroke:#222;fill:none" d="M25.002 0H0"/>
            <path data-name="선 1164" transform="translate(245.847 102.32)" style="stroke-width:3px;stroke-linecap:round;stroke-linejoin:round;stroke:#222;fill:none" d="M16.653 0H0"/>
            <path data-name="선 1165" transform="translate(199 102.32)" style="stroke-width:3px;stroke-linecap:round;stroke-linejoin:round;stroke:#222;fill:none" d="M35.741 0H0"/>
        </g>
        <path data-name="패스 3245" d="M143.024 127.017c-.111 0-.227-.005-.345-.015a2.2 2.2 0 0 1-1.9-1.64 6.244 6.244 0 0 1-.261-2.122c-3.927 2.689-5.727.13-5.981 0l.441.384-.022-.01c.02.008 1.866.735 5.77-2.342.607-3.442 2.448-7.558 4.583-9.525.995-.915 1.752-1.249 2.387-1.049a1.213 1.213 0 0 1 .8.946c.4 1.827-1.862 6.323-5.486 9.6q-.48.436-.935.811a6.586 6.586 0 0 0 .085 2.831c.211.618.512.644.641.655 1.113.1 1.548-.568 2.226-1.755.69-1.207 1.547-2.712 3.706-2.527a8.3 8.3 0 0 1 4.175 1.878c1.245.887 2.227 1.587 3.557 1.278.09-.021.6-.227 1.816-2.254.867-1.445 1.861-3.406 2.913-5.482 3.285-6.486 7.009-13.838 10.919-14.121a2.289 2.289 0 0 1 2.117.836c1.455 1.9.069 6.316-2.21 12.836-1.185 3.391-2.411 6.9-2.2 8.207l.028.151a18.548 18.548 0 0 0 1.2-1.531c1.468-2 3.3-4.483 5.45-3.919a14.668 14.668 0 0 1 6.174 3.775.731.731 0 0 1-1.067 1 13.391 13.391 0 0 0-5.476-3.361c-1.2-.311-2.826 1.9-3.9 3.371-1.125 1.531-1.869 2.543-2.811 2.316-.818-.2-.981-1.19-1.042-1.565-.276-1.678.9-5.037 2.258-8.926 1.483-4.241 3.513-10.049 2.429-11.464-.065-.085-.239-.312-.85-.268-3.085.224-6.921 7.8-9.72 13.323-2.707 5.343-4.189 8.147-5.7 8.5-1.974.46-3.379-.543-4.738-1.511a6.952 6.952 0 0 0-3.45-1.612c-1.17-.1-1.619.582-2.313 1.8-.64 1.121-1.429 2.5-3.276 2.5m4.067-14.806a4.527 4.527 0 0 0-.791.612 15.816 15.816 0 0 0-3.69 6.8c3.07-3.015 4.415-6.325 4.481-7.409" transform="translate(63.867 70.328)" style="fill:#161616;stroke:#151616;stroke-width:2px"/>
        <g transform="translate(-49 -159.968)">
            <g data-name="다각형 4" style="fill:#fcf28d">
                <path d="m33.202 52.176-5.096-2.248-.606-.268-.606.268-5.096 2.248-3.626-4.255-.428-.503-.66-.023-5.564-.202-1.435-5.426-.168-.634-.58-.307-4.934-2.617 1.046-5.523.122-.641-.387-.526L1.862 27l3.322-4.519.387-.526-.122-.641-1.046-5.523 4.935-2.617.58-.307.167-.634 1.435-5.426 5.565-.202.66-.023.427-.503 3.626-4.255 5.097 2.248.605.268.606-.268 5.096-2.248 3.626 4.255.428.503.66.023 5.564.202 1.435 5.426.168.634.58.307 4.934 2.617-1.046 5.523-.122.641.387.526L53.138 27l-3.322 4.519-.387.526.122.641 1.046 5.523-4.935 2.617-.58.307-.167.634-1.435 5.426-5.565.202-.66.023-.427.503-3.626 4.255z" style="stroke:none" transform="translate(305.5 311)"/>
                <path d="m22.215 3.647-3.757 4.41-5.772.208-1.486 5.62-5.117 2.713 1.083 5.72L3.724 27l3.442 4.682-1.083 5.72 5.117 2.713 1.486 5.62 5.772.208 3.757 4.41L27.5 48.02l5.285 2.332 3.757-4.41 5.772-.208 1.486-5.62 5.117-2.713-1.083-5.72L51.276 27l-3.442-4.682 1.083-5.72-5.117-2.713-1.486-5.62-5.772-.208-3.757-4.41L27.5 5.98l-5.285-2.332M21.38 0 27.5 2.7 33.62 0l4.35 5.106 6.676.242 1.72 6.501 5.91 3.135-1.252 6.609L55 27l-3.976 5.407 1.253 6.61-5.912 3.134-1.719 6.501-6.677.242L33.62 54 27.5 51.3 21.38 54l-4.35-5.106-6.676-.242-1.72-6.501-5.91-3.135 1.252-6.609L0 27l3.976-5.407-1.253-6.61 5.912-3.134 1.719-6.501 6.677-.242L21.38 0z" style="fill:#222;stroke:none" transform="translate(305.5 311)"/>
            </g>
            <circle data-name="타원 1205" cx="13" cy="13" r="13" transform="translate(320 325)" style="stroke:#fff;fill:#fcf28d;stroke-width:3px"/>
        </g>
    </g>
    <g>
        <path data-name="패스 3246" d="m110.328 66.716 9.16 14.422a2.168 2.168 0 0 1-.668 2.993l-67.012 42.561-11.485-18.083 67.012-42.561a2.168 2.168 0 0 1 2.993.668" transform="rotate(-29 327.706 -380.947)" style="fill:#50ccc6"/>
        <path data-name="패스 3247" d="m110.328 66.716 9.16 14.422a2.168 2.168 0 0 1-.668 2.993l-67.012 42.561-11.485-18.083 67.012-42.561a2.168 2.168 0 0 1 2.993.668z" transform="rotate(-29 327.706 -380.947)" style="stroke-width:3px;stroke-linecap:round;stroke-linejoin:round;stroke:#222;fill:none"/>
        <path data-name="패스 3248" d="m108.347 132.423 17.494-23.8 11.486 18.085z" transform="rotate(-29 370.47 -215.588)" style="fill:#fff"/>
        <path data-name="패스 3249" d="m108.347 132.423 17.494-23.8 11.486 18.085z" transform="rotate(-29 370.47 -215.588)" style="stroke:#050505;stroke-width:3px;stroke-linecap:round;stroke-linejoin:round;fill:none"/>
        <path data-name="선 189" transform="rotate(-29 438.54 -599.558)" style="fill:#ffba40" d="M0 11.242 17.607 0"/>
        <path data-name="선 190" transform="rotate(-29 438.54 -599.558)" style="stroke-width:3px;stroke-linecap:round;stroke-linejoin:round;stroke:#222;fill:none" d="M0 11.242 17.607 0"/>
    </g>
</svg>
