<svg xmlns="http://www.w3.org/2000/svg" width="444" height="203" viewBox="0 0 444 203">
    <g transform="translate(39 1.281)">
        <circle data-name="Ellipse 2" cx="40.5" cy="40.5" r="40.5" transform="translate(-8.75 22.219)" style="fill:#fcf5bd"/>
        <circle data-name="Ellipse 2" cx="38.375" cy="38.375" r="38.375" transform="translate(260.249 81.219)" style="fill:#fbf0e3"/>
        <circle data-name="Ellipse 2" cx="15.008" cy="15.008" r="15.008" transform="translate(120.967 56.717)" style="fill:#e4ffe1"/>
    </g>
    <g style="fill:#fff">
        <path d="M-25.519-202.217c2.452-3.532 7.341-10.628 12.664-18.654 10.175-15.342 17.006-26.593 20.303-33.442 1.192-2.477 2.384-5.127 3.645-7.933 3.424-7.616 7.304-16.247 11.956-22.735 2.474-3.45 4.92-5.986 7.478-7.751 2.816-1.944 5.676-2.889 8.742-2.889 4.039 0 7.182.445 9.607 1.36 2.024.762 3.223 1.722 4.382 2.65 1.567 1.255 3.188 2.552 6.225 2.552.493 0 1.024-.034 1.578-.101 2.371-.29 4.216-.882 6-1.456 2.224-.715 4.325-1.39 7.327-1.39 3.428 0 7.73.907 13.155 2.775 1.894.652 4.037 2.515 6.372 5.54 2.204 2.855 4.542 6.676 7.148 11.682 4.866 9.346 9.76 21.114 14.491 32.494 4.123 9.914 8.017 19.279 11.663 26.517 2.507 4.976 4.671 8.49 6.649 10.741-7.816-.05-23.245-.076-46.052-.076-43.06 0-99.985.093-113.333.116z" style="stroke:none" transform="translate(98.111 403.043)"/>
        <path d="M-22.653-203.722a76049.9 76049.9 0 0 1 110.467-.111c20.118 0 34.5.02 42.982.06-1.5-2.163-3.116-4.97-4.919-8.55-3.67-7.287-7.574-16.676-11.708-26.616-4.72-11.351-9.6-23.088-14.436-32.378-2.565-4.926-4.856-8.674-7.005-11.458-2.681-3.473-4.565-4.656-5.673-5.038-5.265-1.812-9.408-2.693-12.667-2.693-2.767 0-4.668.61-6.869 1.318-1.764.567-3.763 1.21-6.276 1.516-.615.075-1.207.113-1.76.113-3.563 0-5.476-1.53-7.163-2.881-1.117-.895-2.172-1.74-3.973-2.418-2.254-.85-5.223-1.263-9.078-1.263-2.752 0-5.332.858-7.89 2.623-2.413 1.666-4.74 4.084-7.11 7.39-4.565 6.367-8.413 14.926-11.808 22.477-1.265 2.815-2.46 5.474-3.662 7.969-3.326 6.91-10.191 18.222-20.403 33.62a1097.86 1097.86 0 0 1-11.05 16.32m161.024 3.01c-5.49-.091-25.852-.121-50.556-.121-49.413 0-116.21.12-116.21.12s26.614-37.884 34.492-54.25c7.879-16.367 16.53-42.158 33.173-42.158s13.472 7.463 21.61 6.472c8.14-.992 10.014-5.9 27.153 0 17.138 5.9 37.939 86.38 50.338 89.937z" style="fill:#222;stroke:none" transform="translate(98.111 403.043)"/>
    </g>
    <g data-name="산">
        <g data-name="패스 10612" style="stroke-linejoin:round;fill:#61be8d">
            <path d="M10.643-160.09c-19.716 0-31.918-.012-37.11-.036.566-2.616 2.615-6.858 6.116-12.652 3.992-6.61 9.383-14.493 15.09-22.839 9.73-14.229 19.791-28.942 24.711-39.896 1.606-3.575 3.213-7.406 4.914-11.46 4.635-11.049 9.888-23.571 16.205-33.015 3.38-5.052 6.728-8.769 10.236-11.364 1.878-1.389 3.817-2.451 5.764-3.157a18.423 18.423 0 0 1 6.295-1.112c5.504 0 9.796.653 13.122 1.997 2.804 1.133 4.454 2.55 6.05 3.919 2.146 1.84 4.171 3.578 8.115 3.578.65 0 1.35-.048 2.08-.144 2.231-.291 4.19-.713 6.084-1.121 2.822-.608 5.489-1.183 8.563-1.183 5.763 0 12.385 2.074 21.47 6.725 2.37 1.213 5.116 3.964 8.162 8.177 2.824 3.907 5.887 9.015 9.362 15.615 6.475 12.297 13.275 27.72 19.852 42.636 6.32 14.332 12.288 27.869 17.829 38.44 2.997 5.718 5.596 10.042 7.945 13.218 1.075 1.454 2.102 2.669 3.088 3.652-6.855-.019-18.985-.028-36.734-.028-21.321 0-48.428.013-74.642.025-25.644.013-52.162.026-72.567.026z" style="stroke:none" transform="translate(175 360.92)"/>
            <path d="M10.637-161.59c20.405 0 46.926-.012 72.573-.025 26.217-.012 53.326-.025 74.646-.025 15.158 0 26.218.006 33.395.02a45.15 45.15 0 0 1-.959-1.252c-2.395-3.239-5.034-7.627-8.068-13.414-5.564-10.616-11.543-24.175-17.872-38.53-6.567-14.893-13.357-30.293-19.807-42.543-3.442-6.537-6.468-11.586-9.25-15.435-2.906-4.02-5.473-6.617-7.63-7.721-8.863-4.537-15.274-6.56-20.787-6.56-2.915 0-5.386.533-8.247 1.15-1.924.414-3.913.842-6.205 1.142a17.67 17.67 0 0 1-2.275.156c-2.033 0-3.823-.423-5.47-1.293-1.4-.74-2.529-1.71-3.62-2.647-1.506-1.29-3.061-2.626-5.637-3.666-3.144-1.27-7.252-1.888-12.56-1.888-3.898 0-7.551 1.3-11.167 3.975-3.367 2.49-6.599 6.086-9.881 10.992-6.237 9.323-11.46 21.775-16.069 32.76-1.704 4.065-3.315 7.903-4.928 11.496-4.975 11.076-15.075 25.845-24.842 40.128-5.695 8.328-11.074 16.194-15.045 22.767-2.087 3.456-3.597 6.242-4.617 8.517a28.59 28.59 0 0 0-.765 1.867c6.006.02 17.584.03 35.087.03m0 3c-19.9 0-34.482-.012-38.763-.048-.358-10.906 35.572-53.811 46.208-77.49 10.636-23.68 22.315-60.994 44.782-60.994 22.467 0 18.187 10.798 29.173 9.363 10.987-1.435 15.821-6.266 36.995 4.572 21.173 10.839 53.66 119.448 70.398 124.594-16.082-.11-127.568.003-188.793.003z" style="fill:#222;stroke:none" transform="translate(175 360.92)"/>
        </g>
        <path data-name="패스 10614" d="M-773.557 16670.746s-24.53 9.289-22.393 22.607 31.93 17.98 32.684 38.248-67.322 42.662-67.322 42.662l9.72 11.586-47.535 8.164 125.091-.072s-19 1.547-19.954-8.092 38.3-20.258 41.66-40.346-59.343-39.395-63.1-52.15 11.149-22.607 11.149-22.607z" transform="translate(1035 -16594.674)" style="opacity:.407;fill:#fff"/>
    </g>
    <path data-name="패스 3405" d="M57.91 148.99a10.293 10.293 0 0 1-1.177-.067A10.141 10.141 0 0 1 50 132.528a2.4 2.4 0 0 0 .558-1.822 7.3 7.3 0 0 1-.069-1 7.448 7.448 0 0 1 14.709-1.662 7.523 7.523 0 0 1 .122 2.633 2.412 2.412 0 0 0 .536 1.836 10.142 10.142 0 0 1-7.946 16.477z" transform="translate(278.311 45.59)" style="stroke-miterlimit:10;stroke:#222;stroke-width:3px;fill:#f4c22d"/>
    <path data-name="선 263" transform="translate(336.497 195.039)" style="stroke-linecap:round;fill:none;stroke:#222;stroke-width:3px;stroke-linejoin:round" d="M0 5.961V0"/>
    <g data-name="나무">
        <path data-name="패스 3405" d="M60.435 155.657a12.86 12.86 0 0 1-1.47-.084 12.671 12.671 0 0 1-8.416-20.484 3.005 3.005 0 0 0 .7-2.277 9.123 9.123 0 0 1-.086-1.254 9.306 9.306 0 0 1 18.377-2.077 9.4 9.4 0 0 1 .152 3.289 3.013 3.013 0 0 0 .67 2.294 12.671 12.671 0 0 1-9.924 20.592z" transform="translate(51.311 37.323)" style="stroke-miterlimit:10;stroke:#222;stroke-width:3px;fill:#f4c22d"/>
        <path data-name="선 263" transform="translate(112.091 193.553)" style="stroke-linecap:round;fill:none;stroke:#222;stroke-width:3px;stroke-linejoin:round" d="M0 7.447V0"/>
    </g>
    <g data-name="나무">
        <path data-name="패스 5241" d="M1895.067 2308.769a14.539 14.539 0 0 1-4.774-.8h0a14.638 14.638 0 0 1-8.9-19.019.207.207 0 0 0-.012-.177 15.713 15.713 0 0 1 2.834-19.067.167.167 0 0 0 .042-.153 11.139 11.139 0 1 1 21.643.01.156.156 0 0 0 .045.143 15.716 15.716 0 0 1 2.834 19.066.217.217 0 0 0-.009.187 14.653 14.653 0 0 1-12.361 19.751q-.676.06-1.342.059z" style="fill:#50ccc6;stroke-linecap:round;stroke:#222;stroke-width:3px;stroke-linejoin:round" transform="translate(-1510.795 -2118.694)"/>
        <path data-name="선 440" transform="translate(384.281 158.072)" style="stroke-linecap:round;fill:none;stroke:#222;stroke-width:3px;stroke-linejoin:round" d="m0 0 .219 41.428"/>
        <path data-name="선 441" transform="translate(384.281 160.87)" style="stroke-linecap:round;fill:none;stroke:#222;stroke-width:3px;stroke-linejoin:round" d="M5.807 0 0 8.576"/>
        <path data-name="선 442" transform="translate(377.586 166.147)" style="stroke-linecap:round;fill:none;stroke:#222;stroke-width:3px;stroke-linejoin:round" d="m0 0 6.694 11.061"/>
    </g>
    <path data-name="합치기 30" d="M33.5 25.579a3 3 0 0 1-.867.127H9.564a3.022 3.022 0 0 1-.463-.036q-.375.035-.76.036A8.52 8.52 0 0 1 0 17.019 8.574 8.574 0 0 1 7.3 8.4q-.019-.277-.019-.559A7.721 7.721 0 0 1 14.872 0a7.618 7.618 0 0 1 7.15 5.188A6.909 6.909 0 0 1 26.65 3.4a7.181 7.181 0 0 1 7.064 7.3 7.546 7.546 0 0 1-.164 1.567 6.99 6.99 0 0 1 1.387-.138 6.8 6.8 0 1 1 0 13.6 6.983 6.983 0 0 1-1.437-.15z" transform="translate(352.182 12.892)" style="stroke:#222;stroke-width:3px;fill:#fff"/>
    <path data-name="합치기 31" d="M58.594 43.1a3.023 3.023 0 0 1-.468.036H14.308a14.6 14.6 0 0 1-1.794-29.044q-.032-.464-.033-.937A13.014 13.014 0 0 1 37.775 8.7a12 12 0 0 1 7.939-2.992 12.178 12.178 0 0 1 12.117 12.241 12.4 12.4 0 0 1-.281 2.63 12.247 12.247 0 0 1 2.379-.232 11.613 11.613 0 0 1 11.8 11.412 11.614 11.614 0 0 1-11.8 11.413 12.333 12.333 0 0 1-1.335-.072z" transform="translate(284.267 47.316)" style="stroke:#222;stroke-width:3px;fill:#fff"/>
    <path data-name="합치기 32" d="M46.348 35.057a3.011 3.011 0 0 1-.656.072H11.969q-.1 0-.2-.006c-.125 0-.25.006-.376.006A11.642 11.642 0 0 1 0 23.257a11.718 11.718 0 0 1 9.968-11.78q-.026-.378-.026-.763A10.551 10.551 0 0 1 20.321 0a10.408 10.408 0 0 1 9.769 7.088 9.442 9.442 0 0 1 6.324-2.437 9.813 9.813 0 0 1 9.653 9.966 10.311 10.311 0 0 1-.223 2.142 9.549 9.549 0 0 1 1.895-.189 9.294 9.294 0 1 1 0 18.588 9.59 9.59 0 0 1-1.391-.101z" transform="translate(77.705 2.612)" style="stroke:#222;stroke-width:3px;fill:#fff"/>
    <g data-name="나무">
        <path data-name="패스 5241" d="M1895.067 2308.769a14.539 14.539 0 0 1-4.774-.8h0a14.638 14.638 0 0 1-8.9-19.019.207.207 0 0 0-.012-.177 15.713 15.713 0 0 1 2.834-19.067.167.167 0 0 0 .042-.153 11.139 11.139 0 1 1 21.643.01.156.156 0 0 0 .045.143 15.716 15.716 0 0 1 2.834 19.066.217.217 0 0 0-.009.187 14.653 14.653 0 0 1-12.361 19.751q-.676.06-1.342.059z" style="fill:#50ccc6;stroke-linecap:round;stroke:#222;stroke-width:3px;stroke-linejoin:round" transform="translate(-1830.904 -2120.566)"/>
        <path data-name="선 440" transform="translate(64.172 156.2)" style="stroke-linecap:round;fill:none;stroke:#222;stroke-width:3px;stroke-linejoin:round" d="M0 0v44.285"/>
        <path data-name="선 441" transform="translate(64.172 158.998)" style="stroke-linecap:round;fill:none;stroke:#222;stroke-width:3px;stroke-linejoin:round" d="M5.807 0 0 8.576"/>
        <path data-name="선 442" transform="translate(57.477 164.275)" style="stroke-linecap:round;fill:none;stroke:#222;stroke-width:3px;stroke-linejoin:round" d="m0 0 6.694 11.061"/>
    </g>
    <g data-name="나무">
        <path data-name="패스 3405" d="M57.339 147.481a9.712 9.712 0 0 1-1.11-.063 9.569 9.569 0 0 1-6.356-15.469 2.269 2.269 0 0 0 .526-1.719 6.89 6.89 0 0 1-.065-.947 7.028 7.028 0 0 1 13.879-1.568 7.1 7.1 0 0 1 .115 2.484 2.276 2.276 0 0 0 .506 1.732 9.569 9.569 0 0 1-7.494 15.551z" transform="translate(91.075 47.462)" style="fill:#50ccc6;stroke-miterlimit:10;stroke:#222;stroke-width:3px"/>
        <path data-name="선 263" transform="translate(148.5 183.5)" style="stroke-linecap:round;fill:none;stroke:#222;stroke-width:3px;stroke-linejoin:round" d="M.174 17.501 0 0"/>
        <path data-name="선 1899" transform="translate(148.674 186.5)" style="stroke-linecap:round;fill:none;stroke:#222;stroke-width:3px;stroke-linejoin:round" d="M3.328 0 0 3.076"/>
        <path data-name="선 1900" transform="translate(143.674 186.5)" style="stroke-linecap:round;fill:none;stroke:#222;stroke-width:3px;stroke-linejoin:round" d="m0 0 4.826 3"/>
    </g>
    <path data-name="선 223" transform="translate(42 201)" style="stroke-linecap:round;fill:none;stroke:#222;stroke-width:3px;stroke-linejoin:round" d="M0 0h360"/>
</svg>
