<svg xmlns="http://www.w3.org/2000/svg" width="444" height="227" viewBox="0 0 444 227">
    <g transform="translate(41 33.282)">
        <circle data-name="타원 561" cx="22.857" cy="22.857" r="22.857" transform="translate(3.131 -33.282)" style="fill:#dcf5fb"/>
        <ellipse data-name="타원 562" cx="39.286" cy="39.786" rx="39.286" ry="39.786" transform="rotate(-45 51.313 -47.823)" style="fill:#fbf0e3"/>
        <circle data-name="타원 562" cx="62.5" cy="62.5" r="62.5" transform="translate(160.668 37.435)" style="fill:#b1eceb;opacity:.602"/>
        <path data-name="선 223" transform="translate(1 186.03)" style="stroke-width:3px;stroke-linejoin:round;stroke-linecap:round;stroke:#222;fill:none" d="M0 0h360"/>
    </g>
    <g data-name="그룹 632361">
        <g data-name="그룹 628201">
            <g data-name="그룹 628193">
                <g data-name="그룹 628192">
                    <path data-name="패스 7222" d="M235.772 346.079a1.6 1.6 0 0 0-1.606-1.6h-29.3a1.6 1.6 0 0 0-1.608 1.6v17l6.661 1.451v-9.814a.946.946 0 0 1 .948-.946h17.3a.947.947 0 0 1 .948.946v14l6.661 1.451z" transform="translate(-110.896 -206.836)" style="fill:#fcf28d"/>
                </g>
                <path data-name="패스 7223" d="M210.026 365.316v-10.389a.975.975 0 0 1 .948-1h17.3a.976.976 0 0 1 .948 1v14.819" transform="translate(-111.005 -207.865)" style="stroke-width:3px;stroke-linejoin:round;stroke-linecap:round;stroke:#222;fill:none"/>
                <path data-name="패스 7224" d="M235.772 370.168v-24.089a1.6 1.6 0 0 0-1.606-1.6h-29.3a1.6 1.6 0 0 0-1.608 1.6v17" transform="translate(-110.896 -206.836)" style="stroke-width:3px;stroke-linejoin:round;stroke-linecap:round;stroke:#222;fill:none"/>
            </g>
            <path data-name="패스 7225" d="m259.793 375.269 22.5-30.059a2.493 2.493 0 0 1 2.3-1.086 1.962 1.962 0 0 1 .21-.014h21.4a2.537 2.537 0 0 1 2.536 2.531v24.518a2.538 2.538 0 0 1-2.536 2.533l-5.022-3.151a2.538 2.538 0 0 1-2.536-2.532v-13.82h-12.393l-22.873 30.557" transform="translate(-111.808 -206.83)" style="fill:#fcf28d;stroke-width:3px;stroke-linejoin:round;stroke-linecap:round;stroke:#222"/>
            <g data-name="그룹 628194">
                <path data-name="선 996" transform="translate(167.435 175.004)" style="stroke-width:3px;stroke-linejoin:round;stroke-linecap:round;stroke:#222;fill:none" d="M5.77 7.445 0 0"/>
            </g>
            <path data-name="패스 7226" d="M261.686 398.95a1.745 1.745 0 0 1-1.746 1.744h-64.2a1.745 1.745 0 0 1-1.746-1.744v-35a1.744 1.744 0 0 1 1.746-1.743l64.2 13.953a1.744 1.744 0 0 1 1.746 1.744z" transform="translate(-110.746 -207.122)" style="fill:#fcf28d"/>
            <g data-name="그룹 628195">
                <path data-name="패스 7227" d="M259.926 401.469h-64.2a2.537 2.537 0 0 1-2.535-2.533v-35a2.535 2.535 0 0 1 2.535-2.531l.168.018 64.122 13.937a2.537 2.537 0 0 1 2.443 2.53v21.047a2.537 2.537 0 0 1-2.533 2.532z" transform="translate(-110.733 -207.109)" style="stroke-width:3px;stroke-linejoin:round;stroke-linecap:round;stroke:#222;fill:none"/>
            </g>
            <g data-name="그룹 628197">
                <g data-name="그룹 628196">
                    <path data-name="패스 7228" d="M306.605 390.788h-19.216a2.536 2.536 0 0 1-2.535-2.532.786.786 0 0 1 .124-.424l10.458-16.319a3.358 3.358 0 0 1 3.162-2.14l9.77.193a.788.788 0 0 1 .773.787v17.9a2.535 2.535 0 0 1-2.536 2.535z" transform="translate(-112.213 -207.237)" style="fill:#fcf28d;stroke-width:3px;stroke-linejoin:round;stroke-linecap:round;stroke:#222"/>
                </g>
            </g>
            <g data-name="그룹 628198">
                <path data-name="선 997" style="stroke-width:3px;stroke-linejoin:round;stroke-linecap:round;stroke:#222;fill:none" d="M68.419 0H0" transform="translate(82.52 186.685)"/>
            </g>
            <g data-name="그룹 628199">
                <path data-name="선 998" transform="translate(113.273 161.401)" style="stroke-miterlimit:10;stroke-width:3px;stroke-linecap:round;stroke:#222;fill:none" d="M0 24.496V0"/>
            </g>
            <g data-name="그룹 628200">
                <path data-name="선 999" style="stroke-width:3px;stroke-linejoin:round;stroke-linecap:round;stroke:#222;fill:none" d="M5.423 0H0" transform="translate(101.513 171.424)"/>
            </g>
        </g>
        <g data-name="그룹 628208">
            <path data-name="패스 7229" d="M257.011 425.05h-58.738a9.158 9.158 0 0 1-9.155-9.141v-4.641a9.158 9.158 0 0 1 9.155-9.141h58.738a9.159 9.159 0 0 1 9.157 9.141v4.641a9.159 9.159 0 0 1-9.157 9.141z" transform="translate(-110.668 -205.798)" style="fill:#fff;stroke-width:3px;stroke-linejoin:round;stroke-linecap:round;stroke:#222"/>
            <path data-name="패스 7230" d="M244.06 407.4h4.734m-14.2 0h4.734m-14.2 0h4.734m-14.2 0h4.734m-14.2 0h4.734" transform="translate(-110.943 -204.355)" style="stroke-miterlimit:10;stroke-width:3px;stroke-linecap:round;stroke:#222;fill:none"/>
            <path data-name="패스 7231" d="M244.06 420.462h4.734m-14.2 0h4.734m-14.2 0h4.734m-14.2 0h4.734m-14.2 0h4.734" transform="translate(-110.943 -207.45)" style="stroke-miterlimit:10;stroke-width:3px;stroke-linecap:round;stroke:#222;fill:none"/>
            <g data-name="그룹 628204">
                <g data-name="그룹 628202">
                    <path data-name="패스 7232" d="M252.983 420.95a7.09 7.09 0 1 1 7.1-7.09 7.1 7.1 0 0 1-7.1 7.09z" transform="translate(-111.584 -205.873)" style="fill:#222"/>
                </g>
                <g data-name="그룹 628203">
                    <path data-name="패스 7233" d="M253.035 417.851a3.939 3.939 0 1 1 3.944-3.939 3.947 3.947 0 0 1-3.944 3.939z" transform="translate(-111.636 -205.925)" style="fill:#727272"/>
                </g>
            </g>
            <g data-name="그룹 628207">
                <g data-name="그룹 628205">
                    <path data-name="패스 7234" d="M201.66 420.95a7.09 7.09 0 1 1 7.1-7.09 7.1 7.1 0 0 1-7.1 7.09z" transform="translate(-110.756 -205.873)" style="fill:#222"/>
                </g>
                <g data-name="그룹 628206">
                    <path data-name="패스 7235" d="M201.712 417.851a3.939 3.939 0 1 1 3.945-3.939 3.946 3.946 0 0 1-3.945 3.939z" transform="translate(-110.808 -205.925)" style="fill:#727272"/>
                </g>
            </g>
        </g>
        <g transform="translate(179.037 170.07)">
            <rect data-name="사각형 461740" width="18.161" height="9.067" rx="1.601" transform="translate(0 39.2)" style="fill:#fff;stroke-width:3px;stroke-linejoin:round;stroke-linecap:round;stroke:#222"/>
            <rect data-name="사각형 461741" width="18.161" height="9.067" rx="1.601" transform="translate(21.188 39.2)" style="fill:#fff;stroke-width:3px;stroke-linejoin:round;stroke-linecap:round;stroke:#222"/>
            <rect data-name="사각형 461742" width="18.161" height="9.067" rx="1.601" transform="translate(42.376 39.2)" style="fill:#fff;stroke-width:3px;stroke-linejoin:round;stroke-linecap:round;stroke:#222"/>
            <rect data-name="사각형 461743" width="18.161" height="9.067" rx="1.601" transform="translate(0 27.11)" style="fill:#fff;stroke-width:3px;stroke-linejoin:round;stroke-linecap:round;stroke:#222"/>
            <rect data-name="사각형 461744" width="18.161" height="9.067" rx="1.601" transform="translate(21.188 27.11)" style="fill:#fff;stroke-width:3px;stroke-linejoin:round;stroke-linecap:round;stroke:#222"/>
            <rect data-name="사각형 461745" width="18.158" height="9.069" rx="1.601" transform="rotate(20.77 -39.838 153.78) skewX(-.07)" style="fill:#50ccc6;stroke-width:3px;stroke-linejoin:round;stroke-linecap:round;stroke:#222"/>
            <rect data-name="사각형 461746" width="18.161" height="9.067" rx="1.601" transform="translate(0 15.021)" style="fill:#fff;stroke-width:3px;stroke-linejoin:round;stroke-linecap:round;stroke:#222"/>
            <rect data-name="사각형 461747" width="18.161" height="9.067" rx="1.601" transform="translate(21.188 15.021)" style="fill:#fff;stroke-width:3px;stroke-linejoin:round;stroke-linecap:round;stroke:#222"/>
            <rect data-name="사각형 461748" width="18.158" height="9.068" rx="1.601" transform="rotate(-18.91 75.39 -115.197) skewX(.05)" style="fill:#50ccc6;stroke-width:3px;stroke-linejoin:round;stroke-linecap:round;stroke:#222"/>
            <rect data-name="사각형 461749" width="18.158" height="9.069" rx="1.601" transform="matrix(.935 .356 -.357 .934 30.968 0)" style="fill:#50ccc6;stroke-width:3px;stroke-linejoin:round;stroke-linecap:round;stroke:#222"/>
        </g>
        <g>
            <g data-name="그룹 630236">
                <path data-name="사각형 462387" d="M4.121 0h17.41a4.123 4.123 0 0 1 4.123 4.123v5.811a4.123 4.123 0 0 1-4.123 4.123H4.121A4.121 4.121 0 0 1 0 9.936V4.121A4.121 4.121 0 0 1 4.121 0z" transform="translate(275.539 76.17)" style="fill:#50ccc6"/>
                <g data-name="그룹 630213">
                    <path data-name="패스 9098" d="M499.645 499.839h-23.791a.915.915 0 0 1-.915-.915V398.441a.916.916 0 0 1 .915-.915h23.791a.916.916 0 0 1 .915.915v100.483a.915.915 0 0 1-.915.915zm-22.875-1.83h21.96v-98.653h-21.96z" transform="translate(-199.383 -298.043)" style="fill:#222;stroke:#222"/>
                </g>
                <g data-name="그룹 630214">
                    <path data-name="패스 9099" d="M496.718 386.941h-18.109a4.693 4.693 0 0 1-4.689-4.688v-6.512a4.694 4.694 0 0 1 4.689-4.689h18.109a4.693 4.693 0 0 1 4.687 4.689v6.512a4.692 4.692 0 0 1-4.687 4.688zm-18.109-14.057a2.861 2.861 0 0 0-2.858 2.858v6.512a2.861 2.861 0 0 0 2.858 2.857h18.109a2.86 2.86 0 0 0 2.856-2.857v-6.512a2.86 2.86 0 0 0-2.856-2.858z" transform="translate(-199.297 -295.798)" style="fill:#222;stroke:#222"/>
                </g>
                <g data-name="그룹 630215">
                    <path data-name="사각형 462388" style="fill:#222;stroke:#222" d="M0 0h1.83v25.717H0z" transform="translate(287.45 50.454)"/>
                </g>
                <g data-name="그룹 630216">
                    <path data-name="사각형 462389" style="stroke:#222" d="M0 0h23.79v1.83H0z" transform="translate(276.472 116.335)"/>
                </g>
                <g data-name="그룹 630217">
                    <path data-name="사각형 462390" style="stroke:#222" d="M0 0h23.79v1.83H0z" transform="translate(276.472 133.061)"/>
                </g>
                <g data-name="그룹 630218">
                    <path data-name="사각형 462391" style="stroke:#222" d="M0 0h23.79v1.83H0z" transform="translate(276.472 149.788)"/>
                </g>
                <g data-name="그룹 630219">
                    <path data-name="사각형 462392" style="stroke:#222" d="M0 0h23.79v1.83H0z" transform="translate(276.472 166.513)"/>
                </g>
                <g data-name="그룹 630220">
                    <path data-name="사각형 462393" style="stroke:#222" d="M0 0h23.79v1.83H0z" transform="translate(276.472 183.239)"/>
                </g>
                <g data-name="그룹 630221">
                    <path data-name="사각형 462394" transform="rotate(-35.32 320.942 -375.114)" style="fill:#222;stroke:#222" d="M0 0h29.154v1.83H0z"/>
                </g>
                <g data-name="그룹 630222">
                    <path data-name="사각형 462395" transform="rotate(-35.31 347.479 -366.792)" style="fill:#222;stroke:#222" d="M0 0h29.153v1.831H0z"/>
                </g>
                <g data-name="그룹 630223">
                    <path data-name="사각형 462396" transform="rotate(-35.31 373.95 -358.364)" style="fill:#222;stroke:#222" d="M0 0h29.154v1.831H0z"/>
                </g>
                <g data-name="그룹 630224">
                    <path data-name="사각형 462397" transform="rotate(-35.31 400.422 -349.938)" style="fill:#222;stroke:#222" d="M0 0h29.153v1.831H0z"/>
                </g>
                <g data-name="그룹 630225">
                    <path data-name="사각형 462398" transform="rotate(-35.31 426.896 -341.509)" style="fill:#222;stroke:#222" d="M0 0h29.154v1.831H0z"/>
                </g>
                <g data-name="그룹 630226">
                    <path data-name="사각형 462399" transform="rotate(-34.015 464.524 -352.116)" style="fill:#222;stroke:#222" d="M0 0h28.092v1.831H0z"/>
                </g>
                <g data-name="그룹 630357">
                    <path data-name="사각형 462423" transform="translate(199 97.001)" style="fill:#fff" d="M0 0h102v3H0z"/>
                    <g data-name="그룹 630227">
                        <path data-name="패스 9100" d="M492.806 399h-98.839a2.814 2.814 0 1 1 0-5.628h98.839a2.814 2.814 0 1 1 0 5.628zm-98.839-3.8a.984.984 0 1 0 0 1.968h98.839a.984.984 0 1 0 0-1.968z" transform="translate(-193.546 -297.691)" style="fill:#222;stroke:#222"/>
                    </g>
                </g>
                <g data-name="그룹 630230">
                    <g data-name="그룹 630228">
                        <path data-name="사각형 462400" style="fill:#222;stroke:#222" d="M0 0h1.83v6.372H0z" transform="translate(294.745 90.227)"/>
                    </g>
                    <g data-name="그룹 630229">
                        <path data-name="사각형 462401" style="fill:#222;stroke:#222" d="M0 0h1.83v6.372H0z" transform="translate(280.157 90.227)"/>
                    </g>
                </g>
                <g data-name="그룹 630231">
                    <path data-name="패스 9101" d="M392.035 390.93a.915.915 0 0 1-.424-1.727l88.607-46.146a.915.915 0 0 1 1.26.443l11.9 27.011a.915.915 0 0 1-1.675.737l-11.5-26.117-87.739 45.695a.91.91 0 0 1-.429.104z" transform="translate(-192.275 -293.415)" style="fill:#222;stroke:#222"/>
                </g>
                <g data-name="그룹 630232">
                    <g data-name="패스 9102" style="fill:#fff">
                        <path d="M409.941 403.937h-9.998c-.437 0-.924-.547-.924-1.332v-2.246c0-.785.487-1.333.924-1.333h9.998c.438 0 .925.548.925 1.333v2.246c0 .541-.23.958-.726 1.307a.896.896 0 0 1-.199.025z" style="stroke:none" transform="translate(-192.817 -298.043)"/>
                        <path d="M409.366 402.437v-1.911h-8.847v1.911h8.847m.575 3h-9.998c-1.336 0-2.424-1.27-2.424-2.832v-2.246c0-1.562 1.088-2.833 2.424-2.833h9.998c1.338 0 2.425 1.27 2.425 2.833v2.246c0 1.035-.478 1.943-1.445 2.59-.107.098-.53.242-.98.242z" style="fill:#222;stroke:none" transform="translate(-192.817 -298.043)"/>
                    </g>
                </g>
                <g data-name="그룹 630233">
                    <path data-name="패스 9103" d="M405.546 434.093a.893.893 0 0 1-.915-.871v-29.43a.916.916 0 0 1 1.83 0v29.43a.893.893 0 0 1-.915.871z" transform="translate(-193.421 -296.903)" style="fill:#222;stroke:#222"/>
                </g>
                <g data-name="그룹 630234">
                    <path data-name="패스 9104" d="M407.289 446.041h-4.15a2.427 2.427 0 0 1-2.423-2.425v-4.15a2.427 2.427 0 0 1 2.423-2.425h4.15a2.428 2.428 0 0 1 2.424 2.425v4.15a2.428 2.428 0 0 1-2.424 2.425zm-4.15-7.17a.6.6 0 0 0-.593.595v4.15a.6.6 0 0 0 .593.595h4.15a.6.6 0 0 0 .594-.595v-4.15a.6.6 0 0 0-.594-.595z" transform="translate(-193.089 -301.394)" style="fill:#222;stroke:#222"/>
                </g>
                <g data-name="그룹 630235">
                    <path data-name="패스 9105" d="M405.22 457.719a4.442 4.442 0 0 1-4.437-4.436.915.915 0 0 1 1.83 0 2.606 2.606 0 1 0 2.607-2.606.914.914 0 0 1-.915-.915v-4a.915.915 0 0 1 1.83 0v3.183a4.437 4.437 0 0 1-.915 8.779z" transform="translate(-193.094 -302.056)" style="fill:#222;stroke:#222"/>
                </g>
            </g>
            <g data-name="그룹 630237">
                <g data-name="패스 9106" style="fill:#fff">
                    <path d="M512.814 527.514h-58.102a.924.924 0 0 1-.923-.924v-6.952c0-.509.414-.923.923-.923h58.102c.509 0 .923.414.923.923v6.952c0 .51-.414.924-.923.924z" style="stroke:none" transform="translate(-195.788 -308.193)"/>
                    <path d="M512.237 526.014v-5.799H455.29v5.799h56.948m.577 3h-58.102a2.426 2.426 0 0 1-2.423-2.424v-6.952a2.426 2.426 0 0 1 2.423-2.423h58.102a2.426 2.426 0 0 1 2.423 2.423v6.952a2.426 2.426 0 0 1-2.423 2.424z" style="fill:#222;stroke:none" transform="translate(-195.788 -308.193)"/>
                </g>
            </g>
            <g data-name="그룹 630238">
                <g data-name="패스 9107" style="fill:#fff">
                    <path d="M501.369 516.706h-27.635a.925.925 0 0 1-.924-.924v-6.038c0-.51.415-.924.924-.924h27.635c.51 0 .926.415.926.924v6.038c0 .51-.416.924-.926.924z" style="stroke:none" transform="translate(-199.25 -307.354)"/>
                    <path d="M500.795 515.206v-4.886H474.31v4.886h26.485m.574 3h-27.635a2.428 2.428 0 0 1-2.424-2.424v-6.038a2.428 2.428 0 0 1 2.424-2.424h27.635a2.428 2.428 0 0 1 2.426 2.424v6.038a2.428 2.428 0 0 1-2.426 2.424z" style="fill:#222;stroke:none" transform="translate(-199.25 -307.354)"/>
                </g>
            </g>
        </g>
    </g>
    <g data-name="사각형 463061" style="fill:#fff;stroke-width:3px;stroke:#222">
        <path style="stroke:none" d="M0 0h11v81H0z" transform="translate(353 144.001)"/>
        <path style="fill:none" d="M1.5 1.5h8v78h-8z" transform="translate(353 144.001)"/>
    </g>
    <g data-name="그룹 631441">
        <g data-name="타원 1235" transform="translate(310.902 96.429)" style="fill:#e5570c;stroke-width:3px;stroke:#222">
            <circle cx="47.607" cy="47.607" r="47.607" style="stroke:none"/>
            <circle cx="47.607" cy="47.607" r="46.107" style="fill:none"/>
        </g>
        <g data-name="그룹 631442">
            <g data-name="패스 10623" style="fill:#fff">
                <path d="m31.692 70.181-.02-.004-.033-.004a35.384 35.384 0 0 1-11.974-3.922 34.812 34.812 0 0 1-9.554-7.585 34.248 34.248 0 0 1-6.323-10.4A34.297 34.297 0 0 1 1.5 35.887c0-8.232 3.277-16.346 9.226-22.847a37.441 37.441 0 0 1 9.612-7.57c3.569-1.96 7.279-3.229 11.03-3.773.077-.005.15-.015.246-.03.039-.005.087-.011.144-.02.009 2.083-.006 6.118-.024 10.877-.024 6.416-.053 14.402-.053 23.363 0 10.278.004 19.37.008 26.007l.003 8.286z" style="stroke:none" transform="rotate(45 66.757 479.09)"/>
                <path d="M30.26 3.407C23.522 4.72 16.875 8.544 11.834 14.053 6.137 20.277 3 28.032 3 35.888c0 4.087.736 8.07 2.188 11.838a32.753 32.753 0 0 0 6.047 9.946 33.317 33.317 0 0 0 9.143 7.26 33.797 33.797 0 0 0 9.814 3.483l-.003-6.517c-.004-6.639-.008-15.73-.008-26.01 0-8.964.03-16.951.053-23.37.014-3.658.026-6.881.027-9.11M33.22 0c.11.079-.04 15.97-.04 35.888s.019 35.875.01 35.77c-.455.06-1.408.065-1.758 0C13.489 69.148 0 54.093 0 35.888 0 17.583 15.23 2.463 31.267.197c-.055.028.541-.104 1.953-.197z" style="fill:#222;stroke:none" transform="rotate(45 66.757 479.09)"/>
            </g>
            <g data-name="패스 10624" style="fill:#fff">
                <path d="m1.568 70.182.004-8.286c.003-6.638.008-15.73.008-26.007 0-8.961-.03-16.947-.054-23.364-.017-4.759-.032-8.794-.023-10.876l.143.02c.096.014.169.024.247.029 3.75.544 7.46 1.813 11.03 3.772a37.441 37.441 0 0 1 9.611 7.57c5.95 6.502 9.227 14.617 9.227 22.849 0 4.272-.77 8.436-2.288 12.377a34.25 34.25 0 0 1-6.324 10.4 34.813 34.813 0 0 1-9.553 7.586A35.384 35.384 0 0 1 1.62 70.174l-.032.005-.02.003z" style="stroke:none" transform="rotate(45 47.282 526.109)"/>
                <path d="M3 3.407c0 2.23.013 5.453.026 9.112.024 6.418.054 14.406.054 23.37 0 10.28-.005 19.371-.008 26.01l-.003 6.517a33.798 33.798 0 0 0 9.813-3.483 33.317 33.317 0 0 0 9.143-7.26 32.754 32.754 0 0 0 6.048-9.946 32.804 32.804 0 0 0 2.188-11.838c0-7.857-3.137-15.611-8.833-21.836C16.386 8.543 9.74 4.72 3 3.407M.04 0c1.412.093 2.008.225 1.953.197 16.038 2.266 31.268 17.386 31.268 35.692 0 18.205-13.49 33.26-31.432 35.77-.35.065-1.304.06-1.758 0v.001C.062 71.66.08 55.743.08 35.89.08 15.969-.07.079.04 0z" style="fill:#222;stroke:none" transform="rotate(45 47.282 526.109)"/>
            </g>
        </g>
    </g>
    <path data-name="사각형 463073" d="M8 0h27a8 8 0 0 1 8 8v9h0H0h0V8a8 8 0 0 1 8-8z" transform="translate(337.5 208.001)" style="fill:#fff;stroke-width:3px;stroke-linejoin:round;stroke-linecap:round;stroke:#222"/>
</svg>
