<svg xmlns="http://www.w3.org/2000/svg" width="444" height="231.392" viewBox="0 0 444 231.392">
    <g transform="translate(42 40.133)">
        <ellipse data-name="타원 559" cx="22" cy="22.5" rx="22" ry="22.5" transform="translate(257 107.867)" style="fill:#fbf0e3"/>
        <circle data-name="타원 560" cx="41.5" cy="41.5" r="41.5" transform="translate(-9 -40.133)" style="fill:#dcf5fb"/>
        <path data-name="패스 3253" d="M5.827 29.939a31.742 31.742 0 1 0 42.257-15.147A31.743 31.743 0 0 0 5.827 29.939" transform="translate(306.441 -32.476)" style="fill:#fdf8c6"/>
    </g>
    <g transform="translate(102 40.133)">
        <path data-name="패스 3225" d="M239.035 176.092H78.457a6.444 6.444 0 0 1-6.444-6.444V68.7a6.444 6.444 0 0 1 6.444-6.444h160.578a6.444 6.444 0 0 1 6.444 6.444v100.948a6.444 6.444 0 0 1-6.444 6.444" transform="translate(-35.492)" style="fill:#b1eceb"/>
        <rect data-name="사각형 461082" width="173.466" height="113.837" rx="6.444" transform="translate(36.521 62.256)" style="stroke-width:3px;stroke-linejoin:round;stroke:#222;fill:none"/>
        <path data-name="패스 3226" d="M234.122 170.13H83.369a3.225 3.225 0 0 1-3.225-3.226V75.781c0-1.782 1.444-3.226 3.225-4.31h150.753c1.781 1.084 3.226 2.528 3.226 4.31V166.9a3.226 3.226 0 0 1-3.226 3.226" transform="translate(-35.492)" style="fill:#fff"/>
        <path data-name="패스 3227" d="M234.122 170.13H83.369a3.225 3.225 0 0 1-3.225-3.226V75.781c0-1.782 1.444-3.226 3.225-4.31h150.753c1.781 1.084 3.226 2.528 3.226 4.31V166.9a3.226 3.226 0 0 1-3.226 3.23z" transform="translate(-35.492)" style="stroke-width:3px;stroke-linejoin:round;stroke:#222;fill:none"/>
        <path data-name="패스 3228" d="M218.869 172.536v4.53h-16.307v-4.53a3.623 3.623 0 0 1 3.624-3.624h9.059a3.623 3.623 0 0 1 3.624 3.624" transform="translate(-139.431)" style="fill:#d9f3ed"/>
        <path data-name="패스 3229" d="M218.869 172.536v4.53h-16.307v-4.53a3.623 3.623 0 0 1 3.624-3.624h9.059a3.623 3.623 0 0 1 3.624 3.624z" transform="translate(-139.431)" style="stroke-width:3px;stroke-linejoin:round;stroke:#222;fill:none"/>
        <path data-name="패스 3230" d="M104.72 172.536v4.53H88.413v-4.53a3.623 3.623 0 0 1 3.624-3.624h9.063a3.623 3.623 0 0 1 3.624 3.624" transform="translate(88.867)" style="fill:#d9f3ed"/>
        <path data-name="패스 3231" d="M104.72 172.536v4.53H88.413v-4.53a3.623 3.623 0 0 1 3.624-3.624h9.063a3.623 3.623 0 0 1 3.62 3.624z" transform="translate(88.867)" style="stroke-width:3px;stroke-linejoin:round;stroke:#222;fill:none"/>
        <path data-name="패스 3232" d="M178.682 183.675c-1.932 2.131 3.659.675-174.231 1.117a3.826 3.826 0 0 1 0-7.615h171.792c3.124 0 4.576 4.169 2.439 6.5" transform="translate(34.242 -.11)" style="fill:#fff"/>
        <path data-name="패스 3233" d="M178.682 184.5c-1.932 2.4 3.659.76-174.231 1.259-1.909 0-3.451-1.926-3.451-4.29s1.547-4.289 3.451-4.289h171.792c3.125-.003 4.576 4.694 2.439 7.32z" transform="translate(34.242 -1.085)" style="stroke-width:3px;stroke-linejoin:round;stroke:#222;fill:none"/>
        <g data-name="그룹 630695">
            <path data-name="패스 3237" d="M231.021 10.806V41.3h-23.649V10.806c0-5.413 5.294-9.8 11.824-9.8s11.825 4.389 11.825 9.8" transform="translate(-29.971)" style="fill:#e4e4e4"/>
            <path data-name="패스 3238" d="M231.021 10.806V41.3h-23.649V10.806c0-5.413 5.294-9.8 11.824-9.8s11.825 4.387 11.825 9.8z" transform="translate(-29.971)" style="stroke-width:3px;stroke-linejoin:round;stroke:#222;fill:none"/>
            <path data-name="패스 3239" d="M100.95 12.054c0-6.635 6.242-11.755 13.138-10.976V1H219.2c-6.529 0-11.824 4.95-11.824 11.054v138.78a5.093 5.093 0 0 1-5.256 4.913h-95.915a5.092 5.092 0 0 1-5.255-4.913V12.054z" transform="translate(-29.971)" style="fill:#fff"/>
            <path data-name="패스 3245" d="M144.733 131.818c-.133 0-.271-.006-.413-.018a2.629 2.629 0 0 1-2.272-1.962 7.47 7.47 0 0 1-.312-2.538c-4.7 3.217-7.118 2.172-7.422 2.017l.795-1.558-.026-.012c.024.01 2.232.879 6.9-2.8.726-4.117 2.928-9.041 5.482-11.394 1.19-1.1 2.1-1.494 2.855-1.255a1.451 1.451 0 0 1 .961 1.132c.478 2.186-2.227 7.564-6.563 11.489q-.574.522-1.118.97a7.878 7.878 0 0 0 .1 3.387c.252.739.613.77.767.783 1.331.117 1.852-.68 2.663-2.1.825-1.444 1.851-3.244 4.433-3.023a9.926 9.926 0 0 1 4.994 2.247c1.489 1.061 2.664 1.9 4.255 1.529.108-.025.717-.272 2.172-2.7 1.037-1.728 2.226-4.074 3.485-6.558 3.93-7.759 8.384-16.553 13.062-16.892a2.738 2.738 0 0 1 2.532 1c1.74 2.273.083 7.556-2.644 15.355-1.418 4.056-2.884 8.25-2.627 9.818l.034.181a22.187 22.187 0 0 0 1.441-1.832c1.756-2.388 3.942-5.363 6.52-4.688a17.546 17.546 0 0 1 7.386 4.516.875.875 0 1 1-1.276 1.2 16.019 16.019 0 0 0-6.551-4.021c-1.43-.372-3.38 2.278-4.67 4.032-1.346 1.831-2.236 3.042-3.363 2.77-.978-.235-1.173-1.424-1.246-1.872-.33-2.007 1.075-6.025 2.7-10.678 1.774-5.073 4.2-12.021 2.906-13.714-.078-.1-.286-.373-1.017-.32-3.69.268-8.279 9.325-11.628 15.938-3.238 6.391-5.011 9.746-6.819 10.167-2.361.55-4.042-.649-5.668-1.808a8.316 8.316 0 0 0-4.127-1.928c-1.4-.116-1.937.7-2.767 2.148-.766 1.341-1.71 2.992-3.919 2.992m4.865-17.712a5.415 5.415 0 0 0-.946.732c-1.91 1.76-3.518 5.039-4.414 8.131 3.673-3.607 5.282-7.566 5.36-8.863" transform="translate(-38.523 3)" style="fill:#161616;stroke:#151616"/>
            <path data-name="선 50" transform="translate(86.438 30.578)" style="stroke-linecap:round;stroke-width:3px;stroke-linejoin:round;stroke:#222;fill:none" d="M0 0h39.35"/>
            <path data-name="선 52" transform="translate(86.437 43.65)" style="stroke-linecap:round;stroke-width:3px;stroke-linejoin:round;stroke:#222;fill:none" d="M0 0h38.403"/>
            <path data-name="패스 3344" d="M-3.2 0h19.134" transform="translate(89.636 57.128)" style="stroke-linecap:round;stroke-width:3px;stroke:#222;fill:none"/>
            <path data-name="패스 3240" d="M100.95 12.054c0-6.635 6.242-11.755 13.138-10.976V1H219.2c-6.529 0-11.824 4.95-11.824 11.054v138.78a5.093 5.093 0 0 1-5.256 4.913h-95.915a5.092 5.092 0 0 1-5.255-4.913V12.054z" transform="translate(-29.971)" style="stroke-width:3px;stroke-linejoin:round;stroke:#222;fill:none"/>
        </g>
        <g data-name="그룹 630696">
            <path data-name="패스 3246" d="m110.328 66.716 9.16 14.422a2.168 2.168 0 0 1-.668 2.993l-67.012 42.561-11.485-18.083 67.012-42.561a2.168 2.168 0 0 1 2.993.668" transform="rotate(-14.98 124.364 -337.728)" style="fill:#50ccc6"/>
            <path data-name="패스 3247" d="m110.328 66.716 9.16 14.422a2.168 2.168 0 0 1-.668 2.993l-67.012 42.561-11.485-18.083 67.012-42.561a2.168 2.168 0 0 1 2.993.668z" transform="rotate(-14.98 124.364 -337.728)" style="stroke-linecap:round;stroke-width:3px;stroke-linejoin:round;stroke:#222;fill:none"/>
            <path data-name="패스 3248" d="m108.347 132.423 17.494-23.8 11.486 18.085z" transform="rotate(-14.98 167.276 -13.106)" style="fill:#fff"/>
            <path data-name="패스 3249" d="m108.347 132.423 17.494-23.8 11.486 18.085z" transform="rotate(-14.98 167.276 -13.106)" style="stroke:#050505;stroke-linecap:round;stroke-width:3px;stroke-linejoin:round;fill:none"/>
            <path data-name="선 189" transform="rotate(-14.98 386.132 -727.96)" style="fill:#ffba40" d="M0 11.242 17.607 0"/>
            <path data-name="선 190" transform="rotate(-14.98 386.132 -727.96)" style="stroke-linecap:round;stroke-width:3px;stroke-linejoin:round;stroke:#222;fill:none" d="M0 11.242 17.607 0"/>
        </g>
        <path data-name="사각형 461084" style="fill:none" d="M0 0h282v185.764H0z"/>
        <g data-name="그룹 626150">
            <path data-name="패스 2654" d="M297.972 135.464v16.863l8.412-5.952 8.412 5.952v-16.863" transform="translate(-155.527 -76.262)" style="fill:#f2ac58"/>
            <path data-name="패스 2655" d="M297.972 135.464v16.863l8.412-5.952 8.412 5.952v-16.863" transform="translate(-155.527 -76.262)" style="stroke-linecap:round;stroke-width:3px;stroke-linejoin:round;stroke:#222;fill:none"/>
            <path data-name="패스 2656" d="M306.826 138.225A16.863 16.863 0 1 0 290 121.364a16.861 16.861 0 0 0 16.826 16.862" transform="translate(-155.997 -77.858)" style="fill:#fff"/>
            <path data-name="패스 2657" d="M306.826 138.225A16.863 16.863 0 1 0 290 121.364a16.861 16.861 0 0 0 16.826 16.861z" transform="translate(-155.997 -77.858)" style="stroke-linecap:round;stroke-width:3px;stroke-linejoin:round;stroke:#222;fill:none"/>
            <path data-name="패스 2658" d="M306.538 132.057a10.983 10.983 0 1 0-10.959-10.982 10.982 10.982 0 0 0 10.959 10.982" transform="translate(-155.709 -77.57)" style="fill:#f2ac58"/>
            <path data-name="패스 2659" d="M306.538 132.057a10.983 10.983 0 1 0-10.959-10.982 10.982 10.982 0 0 0 10.959 10.982z" transform="translate(-155.709 -77.57)" style="fill:none"/>
        </g>
    </g>
    <path data-name="선 223" transform="translate(42.5 224.749)" style="stroke-linecap:round;stroke-width:3px;stroke-linejoin:round;stroke:#222;fill:none" d="M360 0H0"/>
    <g data-name="그룹 844">
        <path data-name="패스 1450" d="M339.513 241.6a1.479 1.479 0 0 1-.531-.1 54.589 54.589 0 0 1-22.794-15.956 58.611 58.611 0 0 1-10.793-20.054 70.872 70.872 0 0 1-3.317-24.4 1.467 1.467 0 0 1 1.273-1.338 55.015 55.015 0 0 0 25.719-10.965 54.087 54.087 0 0 0 9.267-8.82 1.482 1.482 0 0 1 1.176-.577 1.479 1.479 0 0 1 1.176.578 54.119 54.119 0 0 0 9.266 8.818 55.015 55.015 0 0 0 25.718 10.965 1.467 1.467 0 0 1 1.274 1.338 70.9 70.9 0 0 1-3.317 24.4 58.61 58.61 0 0 1-10.793 20.054 54.587 54.587 0 0 1-22.8 15.956 1.471 1.471 0 0 1-.524.101z" transform="translate(-215 -11.701)" style="stroke-width:2.994px;fill:#afdae9;stroke-miterlimit:10;stroke:#222"/>
    </g>
    <g data-name="그룹 846">
        <g data-name="그룹 845" transform="translate(108.065 176.067)">
            <ellipse data-name="타원 72" cx="15.755" cy="15.695" rx="15.755" ry="15.695" style="fill:#fff"/>
            <path data-name="패스 1451" d="M361.337 210.1a15.746 15.746 0 1 1-7.049-10.438" transform="translate(-330.077 -197.216)" style="stroke-width:2.994px;stroke-linecap:round;stroke-linejoin:round;stroke:#222;fill:none"/>
        </g>
        <path data-name="패스 1452" d="m365.336 204.54-3.787-3.589-13.507 12.916-5.856-5.549-3.86 3.662 9.624 9.15.016-.013.011.013z" transform="translate(-224.072 -22.082)" style="fill:#fcf28d;stroke-width:2.994px;stroke-linecap:round;stroke-linejoin:round;stroke:#222"/>
    </g>
</svg>
