<svg xmlns="http://www.w3.org/2000/svg" width="444" height="221" viewBox="0 0 444 221">
    <g transform="translate(-622 -2020)">
        <circle data-name="Ellipse 2" cx="13.75" cy="13.75" r="13.75" transform="translate(1014.5 2045.25)" style="fill:#dcf5fb"/>
        <circle data-name="Ellipse 2" cx="52.25" cy="52.25" r="52.25" transform="translate(684 2059)" style="fill:#dafdd6"/>
        <circle data-name="Ellipse 2" cx="32.293" cy="32.293" r="32.293" transform="translate(823 2020)" style="fill:#e3e6fb"/>
    </g>
    <path data-name="선 686" transform="translate(42.5 209.598)" style="stroke-linecap:round;stroke-linejoin:round;stroke:#222;stroke-width:3px;fill:none" d="M0 0h360"/>
    <g transform="translate(-64.639 -1.564)">
        <rect data-name="사각형 2082" width="198.638" height="123.218" rx="5.186" transform="translate(159.639 93.565)" style="fill:#afdae9;stroke-linecap:round;stroke-linejoin:round;stroke:#222;stroke-width:3px"/>
        <path data-name="패스 6798" d="M349.5 191.927v-72.411c-10.195 0-18.46-7.512-18.46-16.778H189.19c0 9.266-8.265 16.778-18.461 16.778v72.411c10.2 0 18.461 7.512 18.461 16.778h141.854c0-9.266 8.265-16.778 18.456-16.778z" transform="translate(-1.159 -.959)" style="fill:#fff;stroke-linecap:round;stroke-linejoin:round;stroke:#222;stroke-width:3px"/>
        <g data-name="그룹 4006">
            <g data-name="그룹 4005">
                <path data-name="패스 6799" d="M200.977 141.224a12.137 12.137 0 0 0 4.559 1.876c3.432.726 7.424.492 7.444-2.388v-2.282h-2.76v2.486c-1.789.159-3.377-.762-3.481-2.5a2.554 2.554 0 0 1 1.318-2.406 6.788 6.788 0 0 1 6.061.33 5.5 5.5 0 0 1 .18 9.777c-4.527 2.564-11.68.728-13.321 0z" transform="translate(-4.32 -5.727)" style="fill:#0055a1"/>
            </g>
            <path data-name="패스 6800" d="M216.467 132.579c-4.389-1.991-9.07-1.445-10.948-.081-2.093 1.519-2.134 4.035-.613 5.262-4.3-1.329-4.336-4.816-3.165-6.5 1.912-2.75 8.433-4.058 14.725-1.849z" transform="translate(-4.348 -3.901)" style="fill:#e7380d"/>
        </g>
        <g data-name="그룹 4011">
            <g data-name="그룹 4008">
                <path data-name="사각형 2083" transform="translate(240.968 126.914)" style="fill:#003476" d="M0 0h2.007v11.592H0z"/>
                <path data-name="패스 6822" d="M250.426 141.886h2.084v3.06l-.031.017a6.177 6.177 0 0 1-2.283.461h-.01c-2.456 0-3.741-2-3.746-4.455v-.005c0-2.946 2.023-4.328 4.51-4.329a10.615 10.615 0 0 1 3.137.5v-1.5a11.74 11.74 0 0 0-3.563-.555c-4.145 0-6.524 2.526-6.529 5.964a5.658 5.658 0 0 0 5.937 5.932 21.237 21.237 0 0 0 4.58-.578v-5.8h-4.088z" transform="translate(-16.198 -8.319)" style="fill:#003476"/>
                <path data-name="패스 6823" d="M235.229 139.893c-1.879-.672-3.213-1.032-3.213-1.937s1.529-1.331 2.808-1.331a13.955 13.955 0 0 1 3.211.484v-1.551a14.631 14.631 0 0 0-3.539-.454c-2.7 0-4.948 1.155-4.948 3.255 0 1.608 1.374 2.339 3.672 3.123 1.9.65 3.485 1.105 3.485 2.228 0 1.036-1.566 1.7-3.1 1.7a12.9 12.9 0 0 1-3.751-.7v1.727a19.428 19.428 0 0 0 4.221.529c3.1 0 5.023-1.611 5.023-3.59.002-1.941-1.509-2.639-3.869-3.483z" transform="translate(-12.509 -8.325)" style="fill:#003476"/>
            </g>
            <g data-name="그룹 4010">
                <path data-name="패스 6824" d="M281.034 146.878v-11.592h-1.8v2.7H276.8v1.28h2.435v7.616z" transform="translate(-24.571 -8.373)" style="fill:#003476"/>
                <path data-name="패스 6825" d="M270.1 140.136a3.271 3.271 0 0 1-.872.921 3.169 3.169 0 0 1-1.65.613v1.185a5.506 5.506 0 0 0 3.037-1.116 4.943 4.943 0 0 0 .846-.982l.041-.064.044.064a4.91 4.91 0 0 0 .845.982 5.5 5.5 0 0 0 3.037 1.118v-1.187a3.178 3.178 0 0 1-1.652-.613 3.312 3.312 0 0 1-.871-.921 3.264 3.264 0 0 1-.46-1 4.176 4.176 0 0 1-.138-1.08v-2.635H270.7v2.635a4.247 4.247 0 0 1-.136 1.08 3.271 3.271 0 0 1-.464 1z" transform="translate(-22.218 -8.408)" style="fill:#003476"/>
                <path data-name="사각형 2084" transform="translate(282.814 132.435)" style="fill:#003476" d="M0 0h10.561v1.151H0z"/>
                <path data-name="패스 6826" d="m323.316 138.232.032-.027.032.027c1.359 1.145 4.017 1.216 4.583 1.214h.059v-1.017c-.976-.11-3.19-.276-3.857-1.78l-.032-.072h3.917v-1.15h-9.405v1.151h3.917l-.031.072c-.667 1.5-2.883 1.67-3.857 1.78v1.017h.058c.568.001 3.225-.07 4.584-1.215z" transform="translate(-35.254 -8.408)" style="fill:#003476"/>
                <path data-name="패스 6827" d="M302.763 135.52v5.747a1.27 1.27 0 0 0 1.442 1.412h2.1v2.832h-4.377v1.285h10.56v-1.286h-4.441v-2.832h3.525v-7.158h-1.741v2.558H304.5v-2.558zm1.742 3.824h5.325v2.069h-4.745a.575.575 0 0 1-.454-.143.765.765 0 0 1-.126-.514z" transform="translate(-30.986 -8.432)" style="fill:#003476"/>
                <g data-name="그룹 4009">
                    <path data-name="패스 6828" d="M295.859 142v-1.151H285.3V142h4.38v.583h-3.725v1.137h7.45v.579h-7.45v1.571c0 .827.484 1.265 1.443 1.265h7.8V146h-7.158a.3.3 0 0 1-.224-.063.31.31 0 0 1-.061-.227v-.276h7.45v-2.854h-3.725V142z" transform="translate(-26.741 -8.627)" style="fill:#003476"/>
                </g>
                <path data-name="패스 6829" d="M290.945 134.474c-2.675 0-4.245.992-4.245 2.232s1.57 2.231 4.245 2.231 4.245-.992 4.245-2.231-1.57-2.232-4.245-2.232zm0 3.4c-1.547 0-2.455-.523-2.455-1.17s.909-1.171 2.455-1.171 2.455.524 2.455 1.171-.908 1.172-2.455 1.172z" transform="translate(-27.099 -8.165)" style="fill:#003476"/>
                <path data-name="패스 6830" d="M323.5 144.2c-2.674 0-4.245 1.021-4.245 2.3s1.571 2.3 4.245 2.3 4.246-1.021 4.246-2.3-1.566-2.3-4.246-2.3zm0 3.535c-1.546 0-2.455-.553-2.455-1.236s.909-1.237 2.455-1.237 2.455.554 2.455 1.237-.903 1.235-2.455 1.235z" transform="translate(-35.41 -9.483)" style="fill:#003476"/>
            </g>
        </g>
        <g data-name="그룹 4013">
            <path data-name="선 1535" transform="translate(198.159 180.639)" style="stroke-linecap:round;stroke-linejoin:round;stroke:#222;stroke-width:3px;fill:none" d="M0 0h45.145"/>
            <path data-name="선 1536" transform="translate(198.164 159.281)" style="stroke-linecap:round;stroke-linejoin:round;stroke:#222;stroke-width:3px;fill:none" d="M0 0h90.29"/>
            <path data-name="선 1537" transform="translate(198.159 169.96)" style="stroke-linecap:round;stroke-linejoin:round;stroke:#222;stroke-width:3px;fill:none" d="M0 0h72.232"/>
        </g>
        <g data-name="그룹 634204" transform="translate(297.298 132.229)">
            <path data-name="패스 3393" d="M0 .233V17.91l8.274-5.11 8.306 5.109V0" transform="translate(9.974 34.809)" style="fill:#50ccc6"/>
            <path data-name="패스 3394" d="M0 .233V17.91l8.274-5.11 8.306 5.109V0" transform="translate(9.974 34.809)" style="stroke-linecap:round;stroke-linejoin:round;stroke:#222;stroke-width:3px;fill:none"/>
            <circle data-name="타원 567" cx="17.91" cy="17.91" r="17.91" style="stroke-linecap:round;stroke-linejoin:round;stroke:#222;stroke-width:3px;fill:none"/>
            <path data-name="패스 3395" d="M11.37 0a11.371 11.371 0 1 0 11.371 11.371A11.383 11.383 0 0 0 11.37 0" transform="translate(6.54 6.539)" style="fill:#50ccc6"/>
        </g>
    </g>
    <path data-name="패스 9529" d="M10.593 0s10.784 12.506 10.784 25.013-10.784 25.012-10.784 25.012S0 38.632 0 26.125 10.593 0 10.593 0z" transform="rotate(61 90.813 388.027)" style="fill:#7dd3cf"/>
    <g data-name="그룹 630744">
        <g data-name="패스 9523" style="fill:#e5a067">
            <path d="M55.963 57.155H14.904a5.545 5.545 0 0 1-5.538-5.539v-.084l-.01-.085L3.68 1.5h63.507L61.51 51.447l-.01.085v.084a5.545 5.545 0 0 1-5.538 5.54z" style="stroke:none" transform="translate(314.77 157.195)"/>
            <path d="m5.36 3 5.506 48.447v.17a4.043 4.043 0 0 0 4.038 4.038h41.059A4.043 4.043 0 0 0 60 51.616v-.17L65.507 3H5.36M2 0h66.867L63 51.616a7.039 7.039 0 0 1-7.038 7.04H14.904a7.039 7.039 0 0 1-7.038-7.04L2 0z" style="fill:#222;stroke:none" transform="translate(314.77 157.195)"/>
        </g>
        <g data-name="사각형 462579" transform="translate(314.219 149.894)" style="fill:#e89b46;stroke:#222;stroke-width:3px">
            <rect width="71.362" height="15.137" rx="3" style="stroke:none"/>
            <rect x="1.5" y="1.5" width="68.362" height="12.137" rx="1.5" style="fill:none"/>
        </g>
    </g>
    <path data-name="패스 9531" d="M10.593 0s10.784 12.931 10.784 25.862-10.784 25.863-10.784 25.863S0 39.944 0 27.013 10.593 0 10.593 0z" transform="rotate(122 138.891 169.364)" style="fill:#7dd3cf"/>
    <g data-name="그룹 630759">
        <path data-name="패스 9530" d="M0 0h3.519v83.614H0z" transform="translate(348.443 68.377)" style="fill:#222"/>
        <path data-name="패스 9525" d="M0 14.744 15.528 0" transform="rotate(2 -3127.03 10068.047)" style="stroke:#222;stroke-width:3px;fill:none"/>
        <path data-name="패스 9526" d="m-2940.906 6233.588-17.576-13.787" transform="translate(3291.109 -6117.97)" style="stroke:#222;stroke-width:3px;fill:none"/>
        <g data-name="그룹 630739">
            <g data-name="타원 1204" transform="translate(327.194 28.001)" style="fill:#fcf28d;stroke:#222;stroke-width:3px">
                <circle cx="23.787" cy="23.787" r="23.787" style="stroke:none"/>
                <circle cx="23.787" cy="23.787" r="22.287" style="fill:none"/>
            </g>
            <path data-name="패스 9527" d="M398.171 792.041a7.841 7.841 0 0 0-3.5-2.016l-2.092-.673a2.391 2.391 0 0 1-1.006-.538.684.684 0 0 1-.179-.584.671.671 0 0 1 .336-.617 4.83 4.83 0 0 1 2.948-.174 7.711 7.711 0 0 1 1.375.446 1.41 1.41 0 0 0 1.214-.056 1.374 1.374 0 0 0 .653-.679l1-2.121-.745-.407a11.531 11.531 0 0 0-1.691-.747 7.66 7.66 0 0 0-1.255-.333v-2.471h-4.433v2.551a6.753 6.753 0 0 0-1.012.343 5.037 5.037 0 0 0-1.493.974 4.528 4.528 0 0 0-1.02 1.452 4.945 4.945 0 0 0-.067 3.6 4.16 4.16 0 0 0 .906 1.383 5.283 5.283 0 0 0 1.385.994 12.106 12.106 0 0 0 1.714.712l2.161.7a2.656 2.656 0 0 1 1.229.7 1.316 1.316 0 0 1 .246.938 1.017 1.017 0 0 1-.128.481 1.193 1.193 0 0 1-.353.4 2.316 2.316 0 0 1-.633.318 6.008 6.008 0 0 1-3.071-.138 12.47 12.47 0 0 1-2-.7l-.8-.359-1.088 2.221a1.565 1.565 0 0 0-.135 1.166 1.394 1.394 0 0 0 .76.858 10.762 10.762 0 0 0 2 .7c.436.1.906.189 1.395.253v2.433h3a1.335 1.335 0 0 0 1.429-1.391v-1.2a5.953 5.953 0 0 0 2.666-1.459 5.02 5.02 0 0 0 1.45-3.56 4.734 4.734 0 0 0-1.166-3.4z" transform="translate(-41.652 -739.676)" style="fill:#222"/>
        </g>
        <g data-name="그룹 630740">
            <g data-name="타원 1204" transform="translate(298 73.413)" style="fill:#fff;stroke:#222;stroke-width:3px">
                <circle cx="20.003" cy="20.003" r="20.003" style="stroke:none"/>
                <circle cx="20.003" cy="20.003" r="18.503" style="fill:none"/>
            </g>
            <path data-name="패스 9527" d="M396.376 790.343a6.629 6.629 0 0 0-2.96-1.7l-1.768-.569a2.021 2.021 0 0 1-.85-.455.579.579 0 0 1-.151-.494.567.567 0 0 1 .284-.521 4.082 4.082 0 0 1 2.492-.147 6.517 6.517 0 0 1 1.162.377 1.192 1.192 0 0 0 1.026-.047 1.16 1.16 0 0 0 .552-.574l.843-1.793-.63-.344a9.75 9.75 0 0 0-1.43-.631 6.483 6.483 0 0 0-1.061-.281v-2.088h-3.747v2.156a5.7 5.7 0 0 0-.855.29 4.256 4.256 0 0 0-1.262.824 3.826 3.826 0 0 0-.862 1.227 4.178 4.178 0 0 0-.057 3.044 3.515 3.515 0 0 0 .765 1.169 4.466 4.466 0 0 0 1.17.84 10.246 10.246 0 0 0 1.449.6l1.826.595a2.246 2.246 0 0 1 1.039.593 1.113 1.113 0 0 1 .208.793.861.861 0 0 1-.108.406 1.007 1.007 0 0 1-.3.338 1.955 1.955 0 0 1-.535.269 5.076 5.076 0 0 1-2.6-.116 10.527 10.527 0 0 1-1.688-.593l-.675-.3-.919 1.877a1.323 1.323 0 0 0-.114.986 1.177 1.177 0 0 0 .642.725 9.088 9.088 0 0 0 1.692.591c.369.086.765.159 1.179.213v2.057h2.539a1.128 1.128 0 0 0 1.208-1.176v-1.012a5.029 5.029 0 0 0 2.253-1.233 4.243 4.243 0 0 0 1.226-3.009 4 4 0 0 0-.983-2.887z" transform="translate(-73.705 -697.097)" style="fill:#222"/>
        </g>
        <g data-name="그룹 630741">
            <g data-name="타원 1204" transform="translate(298 73.413)" style="fill:#fcf28d;stroke:#222;stroke-width:3px">
                <circle cx="20.003" cy="20.003" r="20.003" style="stroke:none"/>
                <circle cx="20.003" cy="20.003" r="18.503" style="fill:none"/>
            </g>
            <path data-name="패스 9527" d="M396.376 790.343a6.629 6.629 0 0 0-2.96-1.7l-1.768-.569a2.021 2.021 0 0 1-.85-.455.579.579 0 0 1-.151-.494.567.567 0 0 1 .284-.521 4.082 4.082 0 0 1 2.492-.147 6.517 6.517 0 0 1 1.162.377 1.192 1.192 0 0 0 1.026-.047 1.16 1.16 0 0 0 .552-.574l.843-1.793-.63-.344a9.75 9.75 0 0 0-1.43-.631 6.483 6.483 0 0 0-1.061-.281v-2.088h-3.747v2.156a5.7 5.7 0 0 0-.855.29 4.256 4.256 0 0 0-1.262.824 3.826 3.826 0 0 0-.862 1.227 4.178 4.178 0 0 0-.057 3.044 3.515 3.515 0 0 0 .765 1.169 4.466 4.466 0 0 0 1.17.84 10.246 10.246 0 0 0 1.449.6l1.826.595a2.246 2.246 0 0 1 1.039.593 1.113 1.113 0 0 1 .208.793.861.861 0 0 1-.108.406 1.007 1.007 0 0 1-.3.338 1.955 1.955 0 0 1-.535.269 5.076 5.076 0 0 1-2.6-.116 10.527 10.527 0 0 1-1.688-.593l-.675-.3-.919 1.877a1.323 1.323 0 0 0-.114.986 1.177 1.177 0 0 0 .642.725 9.088 9.088 0 0 0 1.692.591c.369.086.765.159 1.179.213v2.057h2.539a1.128 1.128 0 0 0 1.208-1.176v-1.012a5.029 5.029 0 0 0 2.253-1.233 4.243 4.243 0 0 0 1.226-3.009 4 4 0 0 0-.983-2.887z" transform="translate(-73.705 -697.097)" style="fill:#222"/>
        </g>
        <g data-name="그룹 630742">
            <g data-name="타원 1204" transform="translate(361.027 86.834)" style="fill:#fcf28d;stroke:#222;stroke-width:3px">
                <circle cx="17.304" cy="17.304" r="17.304" style="stroke:none"/>
                <circle cx="17.304" cy="17.304" r="15.804" style="fill:none"/>
            </g>
            <path data-name="패스 9527" d="M395.054 789.092a5.734 5.734 0 0 0-2.561-1.474l-1.529-.492a1.748 1.748 0 0 1-.735-.393.5.5 0 0 1-.131-.427.49.49 0 0 1 .246-.451 3.531 3.531 0 0 1 2.156-.127 5.642 5.642 0 0 1 1.005.326 1.031 1.031 0 0 0 .888-.041 1 1 0 0 0 .477-.5l.729-1.551-.545-.3a8.424 8.424 0 0 0-1.237-.546 5.588 5.588 0 0 0-.918-.244v-1.806h-3.241v1.865a4.92 4.92 0 0 0-.74.251 3.682 3.682 0 0 0-1.092.712 3.309 3.309 0 0 0-.746 1.062 3.614 3.614 0 0 0-.049 2.633 3.039 3.039 0 0 0 .662 1.011 3.864 3.864 0 0 0 1.012.727 8.884 8.884 0 0 0 1.254.521l1.58.515a1.941 1.941 0 0 1 .9.513.962.962 0 0 1 .18.686.745.745 0 0 1-.094.351.87.87 0 0 1-.258.293 1.693 1.693 0 0 1-.463.233 4.392 4.392 0 0 1-2.245-.1 9.112 9.112 0 0 1-1.46-.513l-.584-.263-.8 1.624a1.144 1.144 0 0 0-.1.853 1.018 1.018 0 0 0 .555.627 7.864 7.864 0 0 0 1.463.511c.319.074.662.138 1.02.185v1.779h2.2a.976.976 0 0 0 1.045-1.017v-.875a4.349 4.349 0 0 0 1.949-1.067 3.67 3.67 0 0 0 1.06-2.6 3.46 3.46 0 0 0-.853-2.491z" transform="translate(-12.374 -685.003)" style="fill:#222"/>
        </g>
    </g>
    <g>
        <g data-name="그룹 630749">
            <g data-name="그룹 630748">
                <g data-name="그룹 630747">
                    <path data-name="패스 9534" d="M321.355 740.993h-14.117c-27.837 0-42.658-27.124-29.535-49.905a49.589 49.589 0 0 1 7.82-10.73c4.379-4.322 9.55-8.306 12.963-13.622h32.925c2.917 4.518 6.785 8.156 10.8 11.675a48.875 48.875 0 0 1 9.989 12.677c13.121 22.781-1.694 49.905-29.522 49.905h-14.123" transform="translate(-222.959 -523.779)" style="fill:#fff"/>
                </g>
                <path data-name="패스 9535" d="m321.868 679.29 10.084-16.237a4.466 4.466 0 0 0-4.469-4.461H311.9l-6.3 8.618-5.773-8.618H283.71a4.463 4.463 0 0 0-4.464 4.461l10.079 16.237" transform="translate(-212.857 -536.92)" style="fill:#50ccc6"/>
            </g>
        </g>
        <g data-name="그룹 630752">
            <path data-name="패스 9536" d="M321.355 740.993h-14.117c-27.837 0-42.658-27.124-29.535-49.905a49.589 49.589 0 0 1 7.82-10.73c4.379-4.322 9.55-8.306 12.963-13.622h32.925c2.917 4.518 6.785 8.156 10.8 11.675a48.875 48.875 0 0 1 9.989 12.677c13.121 22.781-1.694 49.905-29.522 49.905h-14.123" transform="translate(-222.947 -524.037)" style="fill:#50ccc6;stroke-linecap:round;stroke-linejoin:round;stroke:#222;stroke-width:3px"/>
            <path data-name="패스 9537" d="m321.868 679.29 10.084-16.237a4.466 4.466 0 0 0-4.469-4.461H311.9l-6.143 6.632-5.929-6.632H283.71a4.463 4.463 0 0 0-4.464 4.461l10.079 16.237" transform="translate(-212.856 -536.919)" style="stroke-linecap:round;stroke-linejoin:round;stroke:#222;stroke-width:3px;fill:none"/>
        </g>
        <g data-name="그룹 972">
            <path data-name="패스 1660" d="m331.491 176.82 6.46 16.938a1.513 1.513 0 0 0 2.87-.124l4.679-16.421a1.514 1.514 0 0 1 2.9-.027l4.988 16.341a1.513 1.513 0 0 0 2.88.047l5.706-16.753" transform="translate(-255.35 -4.663)" style="stroke-linecap:round;stroke-linejoin:round;stroke:#222;stroke-width:3px;fill:none"/>
            <path data-name="선 394" transform="translate(73.22 179.97)" style="stroke-linecap:round;stroke-linejoin:round;stroke:#222;stroke-width:3px;fill:none" d="M0 0h36.328"/>
        </g>
        <g data-name="사각형 464762" transform="translate(70.577 138.999)" style="fill:#fff;stroke:#222;stroke-width:3px">
            <rect width="43" height="9" rx="4" style="stroke:none"/>
            <rect x="1.5" y="1.5" width="40" height="6" rx="2.5" style="fill:none"/>
        </g>
    </g>
</svg>
