<svg xmlns="http://www.w3.org/2000/svg" width="444" height="219" viewBox="0 0 444 219">
    <defs>
        <clipPath id="teljd1572a">
            <path data-name="패스 11679" d="m187.707 164.174 5.591 16.842-20.052 5.721L171 175.489z" transform="translate(-171.001 -164.174)" style="stroke:#707070;fill:#fff"/>
        </clipPath>
        <clipPath id="zwer9jlmlb">
            <path data-name="패스 12196" d="m310.991 167.041 11.916 6.981c0 .283 1.357 6.612 1.357 6.612l-1.357 5.067-9.522-2.95-4.982-1.5z" transform="translate(-308.403 -167.041)" style="fill:none;stroke:#707070"/>
        </clipPath>
        <clipPath id="f8eho0klec">
            <path data-name="패스 11679" d="m184.573 161.476 2.24 11.524-14.49 4.462-1.323-6.625z" transform="translate(-171.001 -164.174)" style="stroke:#707070;fill:#fff"/>
        </clipPath>
        <clipPath id="ne12ns2e3d">
            <path data-name="패스 12196" d="m301.309 161.991 15.634 9.161c0 .166.8 3.893.8 3.893l-.8 2.983-5.607-1.737-11.473-1.88z" transform="translate(-308.403 -167.041)" style="fill:none;stroke:#707070"/>
        </clipPath>
        <clipPath id="qetiq9gjme">
            <path data-name="패스 11679" d="m185.6 161.477 2.409 12.391-15.584 4.8-1.425-7.125z" transform="translate(-171.001 -161.477)" style="stroke:#707070;fill:#fff"/>
        </clipPath>
        <clipPath id="trgkjmb97f">
            <path data-name="패스 12196" d="m301.419 161.991 16.815 9.853c0 .179.859 4.187.859 4.187l-.859 3.209-6.03-1.868-12.339-2.022z" transform="translate(-299.863 -161.991)" style="fill:none;stroke:#707070"/>
        </clipPath>
    </defs>
    <g transform="translate(39 21.282)">
        <circle data-name="Ellipse 2" cx="38" cy="38" r="38" transform="translate(-4 -21.282)" style="fill:#fcf5bd"/>
        <circle data-name="Ellipse 2" cx="29.751" cy="29.751" r="29.751" transform="translate(286.498 84.218)" style="fill:#fbf0e3"/>
        <circle data-name="타원 561" cx="15.357" cy="15.357" r="15.357" transform="translate(342.143 47.504)" style="fill:#dcf5fb"/>
    </g>
    <g data-name="그룹 2668">
        <path data-name="사각형 1336" transform="translate(165.329 121.025)" style="fill:#fff" d="M0 0h40.188v40.321H0z"/>
        <path data-name="사각형 1337" transform="translate(205.517 121.025)" style="fill:#fff" d="M0 0h80.376v40.321H0z"/>
        <g data-name="그룹 2663">
            <path data-name="패스 4493" d="M1224.789 2031.05v-40.321h40.188v40.321" transform="translate(-1035.93 -1910.025)" style="stroke-width:3.004px;stroke:#222;stroke-linecap:round;stroke-linejoin:round;fill:#fff"/>
            <path data-name="선 1190" transform="translate(188.859 113.056)" style="stroke-width:3px;stroke:#222;stroke-linecap:round;stroke-linejoin:round;fill:none" d="M0 0h40.188"/>
            <g data-name="그룹 2662">
                <path data-name="패스 4494" d="M1236.4 1992.191h18.085v17.44a.781.781 0 0 1-1.092.648l-7.951-3.016-7.951 3.016a.781.781 0 0 1-1.091-.648z" transform="translate(-1036.451 -1909.969)" style="fill:#afdae9"/>
                <path data-name="패스 4495" d="M1254.488 1992.191v17.44a.781.781 0 0 1-1.092.648l-7.462-2.831a1.386 1.386 0 0 0-.978 0l-7.462 2.831a.781.781 0 0 1-1.091-.648v-17.44" transform="translate(-1036.451 -1909.969)" style="stroke-width:3.004px;stroke:#222;stroke-linecap:round;stroke-linejoin:round;fill:none"/>
            </g>
        </g>
        <g data-name="그룹 632340">
            <path data-name="패스 4493" d="M1224.789 2031.05v-40.321h40.188v40.321" transform="translate(-995.742 -1910.025)" style="stroke-width:3.004px;stroke:#222;stroke-linecap:round;stroke-linejoin:round;fill:#fff"/>
            <path data-name="선 1190" transform="translate(229.047 113.056)" style="stroke-width:3px;stroke:#222;stroke-linecap:round;stroke-linejoin:round;fill:none" d="M0 0h40.188"/>
            <g data-name="그룹 2662">
                <path data-name="패스 4494" d="M1236.4 1992.191h18.085v17.44a.781.781 0 0 1-1.092.648l-7.951-3.016-7.951 3.016a.781.781 0 0 1-1.091-.648z" transform="translate(-996.263 -1909.969)" style="fill:#afdae9"/>
                <path data-name="패스 4495" d="M1254.488 1992.191v17.44a.781.781 0 0 1-1.092.648l-7.462-2.831a1.386 1.386 0 0 0-.978 0l-7.462 2.831a.781.781 0 0 1-1.091-.648v-17.44" transform="translate(-996.263 -1909.969)" style="stroke-width:3.004px;stroke:#222;stroke-linecap:round;stroke-linejoin:round;fill:none"/>
            </g>
        </g>
        <g data-name="그룹 2665">
            <path data-name="패스 4496" d="M1240.835 2029.57h40.188v40.321" transform="translate(-1035.318 -1908.545)" style="stroke-width:3.004px;stroke:#222;stroke-linecap:round;stroke-linejoin:round;fill:none"/>
            <path data-name="선 1191" transform="translate(205.517 153.377)" style="stroke-width:3px;stroke:#222;stroke-linecap:round;stroke-linejoin:round;fill:none" d="M0 0h40.188"/>
            <g data-name="그룹 2664">
                <path data-name="패스 4497" d="M1252.449 2031.032h18.085v17.44a.781.781 0 0 1-1.092.647l-7.95-3.015-7.951 3.015a.781.781 0 0 1-1.092-.647z" transform="translate(-1035.84 -1908.489)" style="fill:#afdae9"/>
                <path data-name="패스 4498" d="M1270.534 2031.032v17.44a.781.781 0 0 1-1.092.647l-7.462-2.83a1.375 1.375 0 0 0-.977 0l-7.462 2.83a.781.781 0 0 1-1.092-.647v-17.44" transform="translate(-1035.84 -1908.489)" style="stroke-width:3.004px;stroke:#222;stroke-linecap:round;stroke-linejoin:round;fill:none"/>
            </g>
        </g>
        <g data-name="그룹 2667">
            <path data-name="패스 4499" d="M1202.122 2069.891v-40.321h40.188v40.321" transform="translate(-1036.793 -1908.545)" style="stroke-width:3.004px;stroke:#222;stroke-linecap:round;stroke-linejoin:round;fill:none"/>
            <path data-name="선 1192" transform="translate(165.329 153.377)" style="stroke-width:3px;stroke:#222;stroke-linecap:round;stroke-linejoin:round;fill:none" d="M0 0h40.188"/>
            <g data-name="그룹 2666">
                <path data-name="패스 4500" d="M1213.736 2031.032h18.085v17.44a.781.781 0 0 1-1.092.647l-7.95-3.015-7.951 3.015a.781.781 0 0 1-1.092-.647z" transform="translate(-1037.315 -1908.489)" style="fill:#afdae9"/>
                <path data-name="패스 4501" d="M1231.821 2031.032v17.44a.781.781 0 0 1-1.092.647l-7.462-2.83a1.375 1.375 0 0 0-.977 0l-7.462 2.83a.781.781 0 0 1-1.092-.647v-17.44" transform="translate(-1037.315 -1908.489)" style="stroke-width:3.004px;stroke:#222;stroke-linecap:round;stroke-linejoin:round;fill:none"/>
            </g>
        </g>
        <g data-name="그룹 632339">
            <path data-name="패스 4496" d="M1240.835 2029.57h40.188v40.321" transform="translate(-995.13 -1908.545)" style="stroke-width:3.004px;stroke:#222;stroke-linecap:round;stroke-linejoin:round;fill:none"/>
            <path data-name="선 1191" transform="translate(245.705 153.377)" style="stroke-width:3px;stroke:#222;stroke-linecap:round;stroke-linejoin:round;fill:none" d="M0 0h40.188"/>
            <g data-name="그룹 2664">
                <path data-name="패스 4497" d="M1252.449 2031.032h18.085v17.44a.781.781 0 0 1-1.092.647l-7.95-3.015-7.951 3.015a.781.781 0 0 1-1.092-.647z" transform="translate(-995.652 -1908.489)" style="fill:#afdae9"/>
                <path data-name="패스 4498" d="M1270.534 2031.032v17.44a.781.781 0 0 1-1.092.647l-7.462-2.83a1.375 1.375 0 0 0-.977 0l-7.462 2.83a.781.781 0 0 1-1.092-.647v-17.44" transform="translate(-995.652 -1908.489)" style="stroke-width:3.004px;stroke:#222;stroke-linecap:round;stroke-linejoin:round;fill:none"/>
            </g>
        </g>
        <path data-name="패스 12198" d="m1314.145 2050.456-22.788 73.5h-150.7l-12.057-54.436h124.567l15.471-21.092a5.362 5.362 0 0 1 4.324-2.194h38.088a3.253 3.253 0 0 1 3.095 4.222z" transform="translate(-959.595 -1907.91)" style="fill:#fff"/>
        <path data-name="패스 4502" d="m1128.745 2050.456 22.788 73.5h150.7l12.057-54.433h-124.563l-15.471-21.092a5.362 5.362 0 0 0-4.324-2.194h-38.088a3.253 3.253 0 0 0-3.099 4.219z" transform="translate(-1039.595 -1907.91)" style="fill:#fff"/>
        <g data-name="패스 12199" style="fill:#e4e4e4">
            <path d="M.4 18.5-3.607.862l231.882-.06-4.931 17.425L.399 18.5z" style="stroke:none" transform="translate(109.607 197.06)"/>
            <path d="M227.615 1.303-2.98 1.362.798 17.999l222.168-.272 4.649-16.424m1.322-1-5.214 18.424L0 19-4.233.362l233.17-.06z" style="fill:#707070;stroke:none" transform="translate(109.607 197.06)"/>
        </g>
        <path data-name="합치기 46" d="M-1521.2-12285.924h-69.12l-22.787-73.5a3.254 3.254 0 0 1 3.1-4.223h38.088a5.358 5.358 0 0 1 4.322 2.2l15.471 21.091h143.436l15.471-21.091a5.369 5.369 0 0 1 4.325-2.2h38.088a3.255 3.255 0 0 1 3.1 4.223l-22.787 73.5z" transform="translate(1702.261 12501.968)" style="fill:transparent;stroke-width:3.004px;stroke:#222;stroke-linecap:round;stroke-linejoin:round"/>
        <path data-name="패스 4505" d="M1153.656 2061.93a5.2 5.2 0 1 1-4.078-4.089 5.208 5.208 0 0 1 4.078 4.089z" transform="translate(-1039.032 -1907.472)" style="stroke-width:3.004px;stroke:#222;stroke-linecap:round;stroke-linejoin:round;fill:#fff"/>
        <path data-name="패스 4506" d="M1170.316 2061.93a5.2 5.2 0 1 1-4.078-4.089 5.208 5.208 0 0 1 4.078 4.089z" transform="translate(-1038.398 -1907.472)" style="stroke-width:3.004px;stroke:#222;stroke-linecap:round;stroke-linejoin:round;fill:#fff"/>
        <path data-name="선 1193" transform="translate(106.539 196.716)" style="stroke-width:3px;stroke:#222;stroke-linecap:round;stroke-linejoin:round;fill:none" d="M0 0h229.569"/>
        <path data-name="패스 12200" d="M1153.656 2061.93a5.2 5.2 0 1 1-4.078-4.089 5.208 5.208 0 0 1 4.078 4.089z" transform="translate(-832.503 -1907.472)" style="stroke-width:3.004px;stroke:#222;stroke-linecap:round;stroke-linejoin:round;fill:#fff"/>
        <path data-name="패스 12201" d="M1170.316 2061.93a5.2 5.2 0 1 1-4.078-4.089 5.208 5.208 0 0 1 4.078 4.089z" transform="translate(-831.868 -1907.472)" style="stroke-width:3.004px;stroke:#222;stroke-linecap:round;stroke-linejoin:round;fill:#fff"/>
    </g>
    <g data-name="합치기 45" style="fill:#fff">
        <path d="M55.621 29.584c-1.51 0-2.937-.345-4.125-.999l-.103-.056-.111-.04c-.716-.259-1.285-.649-1.644-1.128-.538-.72-.831-1.73-1.171-2.897-.58-1.996-1.304-4.48-3.675-6.617-2.6-2.345-6.738-3.836-12.65-4.56a33.836 33.836 0 0 0-4.098-.247c-5.765 0-10.914 1.407-15.19 2.782-.9.29-1.756.575-2.583.852-2.864.959-5.338 1.786-6.94 1.786-1.045 0-1.47-.303-1.746-1.247-.343-1.171.428-2.541 1.134-3.484 2.118-2.827 6.664-5.908 12.162-8.242C20.937 2.916 27.426 1.5 33.152 1.5c1.022 0 2.029.046 2.991.136 3.415.32 6.8 1.08 10.062 2.26 3.072 1.11 5.9 2.542 8.407 4.253l.827.565.838-.547c5.454-3.558 12.209-5.938 18.534-6.531.962-.09 1.968-.136 2.99-.136 5.727 0 12.216 1.416 18.271 3.987 5.499 2.334 10.045 5.415 12.163 8.242.706.943 1.477 2.313 1.134 3.483-.277.945-.702 1.248-1.748 1.248-1.602 0-4.075-.827-6.94-1.785-.827-.277-1.683-.564-2.583-.853-4.276-1.375-9.425-2.782-15.19-2.782-1.38 0-2.759.084-4.097.247-5.524.676-9.192 1.95-11.544 4.01-2.18 1.909-2.816 4.133-3.377 6.096-.45 1.577-.84 2.938-1.967 4.008-.813.772-1.712 1.264-2.67 1.464l-.135.028-.128.052c-1.02.418-2.185.639-3.369.639z" style="stroke:none" transform="rotate(-17.06 144.23 -126.097) skewX(-.02)"/>
        <path d="M55.621 28.084c.991 0 1.96-.182 2.8-.527l.256-.104.27-.057c.691-.144 1.327-.498 1.944-1.084.791-.75 1.093-1.706 1.557-3.331.587-2.055 1.318-4.613 3.83-6.813 2.59-2.267 6.514-3.655 12.351-4.37a35.323 35.323 0 0 1 4.28-.258c5.972 0 11.262 1.443 15.648 2.854.909.292 1.769.58 2.6.858 2.627.879 5.107 1.709 6.464 1.708.112 0 .196-.006.255-.013.016-.04.034-.09.053-.156.094-.321-.084-1.08-.895-2.163-1.966-2.624-6.283-5.525-11.548-7.76C89.612 4.374 83.331 3 77.801 3c-.975 0-1.934.043-2.85.13-6.09.57-12.598 2.864-17.854 6.293l-1.677 1.094-1.654-1.129c-2.402-1.64-5.118-3.014-8.072-4.082a39.289 39.289 0 0 0-9.69-2.177A30.75 30.75 0 0 0 33.152 3c-5.53 0-11.81 1.374-17.685 3.868-5.265 2.235-9.581 5.136-11.547 7.76-.811 1.083-.99 1.842-.895 2.164.019.065.037.116.052.155.06.007.143.013.254.013 1.357 0 3.838-.83 6.464-1.708.832-.279 1.691-.566 2.599-.858 4.387-1.411 9.677-2.854 15.65-2.854 1.442 0 2.882.087 4.28.259 3.243.396 5.922 1.003 8.19 1.855 2.152.807 3.88 1.814 5.282 3.079 2.688 2.423 3.51 5.249 4.111 7.312.3 1.028.558 1.915.932 2.417.18.24.518.46.952.616l.221.08.206.113c.954.524 2.162.813 3.403.813m0 3c-1.816 0-3.494-.44-4.848-1.184-.973-.351-1.785-.905-2.336-1.64-2.839-3.799.222-11.44-16.477-13.484-7.059-.864-13.455.804-18.647 2.474-7.096 2.28-11.946 4.562-13.167.384C-1.973 10.399 19.475-1.43 36.283.142c7.324.686 14.103 3.305 19.175 6.768C60.723 3.475 67.619.803 74.67.142 91.477-1.43 112.927 10.4 110.808 17.634c-1.223 4.178-6.073 1.896-13.169-.384-5.192-1.67-11.588-3.338-18.645-2.474-16.699 2.044-11.477 9.387-16.039 13.713-1.043.99-2.189 1.593-3.396 1.844-1.167.478-2.51.75-3.938.75z" style="fill:#222;stroke:none" transform="rotate(-17.06 144.23 -126.097) skewX(-.02)"/>
    </g>
    <g data-name="마스크 그룹 626225" transform="matrix(.956 -.292 .292 .957 42.329 38.384)" style="clip-path:url(#teljd1572a)">
        <g data-name="패스 11678" style="fill:#727272">
            <path d="M14.169 61.993c-.132 0-.26-.004-.392-.013-2.146-.14-4.043-.795-5.64-1.95a9.53 9.53 0 0 1-3.131-3.825c-.908-2.036-.91-4.177-.004-5.328.557-.707 1.455-1.251 2.496-1.882 1.777-1.078 3.989-2.419 5.44-5.263 1.591-3.119 1.96-7.501 1.13-13.398-1.211-8.58-5.672-15.32-8.93-20.242C3.124 7.05 1.222 4.175 1.531 2.79c.05-.222.19-.563.836-.955.369-.225.805-.334 1.335-.334 1.464 0 3.48.865 5.678 2.437 2.317 1.656 4.757 4.019 7.058 6.834a52.715 52.715 0 0 1 6.251 9.648c1.848 3.699 3.081 7.32 3.667 10.764.879 5.167.742 10.567-.395 15.613-1.05 4.658-2.914 8.747-5.25 11.514-1.419 1.68-3.705 3.683-6.542 3.683z" style="stroke:none" transform="rotate(-74.99 11.693 8.419)"/>
            <path d="M3.702 3c-.243 0-.43.039-.555.115a1.792 1.792 0 0 0-.138.092c.03.214.157.734.688 1.742.635 1.207 1.588 2.647 2.692 4.315 3.336 5.04 7.906 11.944 9.163 20.86.457 3.235.564 5.98.329 8.391-.223 2.287-.749 4.217-1.607 5.899-1.645 3.224-4.161 4.75-5.999 5.863-.915.556-1.706 1.035-2.094 1.528-.474.603-.56 2.098.195 3.79a8.016 8.016 0 0 0 2.64 3.22c1.364.986 2.999 1.547 4.858 1.668.1.007.196.01.295.01 1.248 0 3.197-.547 5.395-3.15 2.184-2.587 3.936-6.45 4.934-10.876 1.094-4.858 1.226-10.056.38-15.033-.562-3.298-1.75-6.778-3.53-10.345a51.192 51.192 0 0 0-6.071-9.369c-2.218-2.713-4.559-4.983-6.77-6.563C5.786 3.21 4.24 3 3.703 3m0-3c7.442 0 21.573 15.88 24.133 30.931 2.83 16.642-4.919 33.146-14.155 32.546-9.237-.6-12.79-9.801-9.857-13.527 2.933-3.726 11.108-2.748 8.759-19.407C10.232 13.885-4.853 4.471 1.587.553 2.203.177 2.915 0 3.702 0z" style="fill:#222;stroke:none" transform="rotate(-74.99 11.693 8.419)"/>
        </g>
    </g>
    <g data-name="마스크 그룹 626226" transform="matrix(.956 -.292 .292 .957 135.857 11.94)" style="clip-path:url(#zwer9jlmlb)">
        <g data-name="패스 12195" style="fill:#727272">
            <path d="M3.702 62.267c-.53 0-.966-.11-1.335-.334-.645-.392-.786-.733-.836-.955-.31-1.386 1.593-4.26 3.607-7.303 3.258-4.921 7.72-11.661 8.93-20.242.776-5.511.495-9.384-.885-12.19-1.28-2.599-3.265-3.789-5.016-4.839-1.406-.843-2.62-1.57-3.362-2.936-.833-1.535-.952-3.081-.355-4.596.536-1.36 1.664-2.717 3.263-3.923 1.684-1.272 3.912-2.39 6.442-3.236a4.033 4.033 0 0 1 1.28-.213c2.045 0 3.84 1.619 4.987 2.977 1.142 1.352 2.189 3.074 3.112 5.118.942 2.085 1.707 4.402 2.276 6.887.59 2.58.943 5.241 1.05 7.907a39.639 39.639 0 0 1-.504 8.195c-.585 3.444-1.82 7.065-3.667 10.764a52.716 52.716 0 0 1-6.25 9.649c-2.302 2.814-4.742 5.178-7.059 6.834-2.197 1.57-4.214 2.436-5.678 2.436z" style="stroke:none" transform="rotate(-105.01 -10.581 33.542)"/>
            <path d="M3.702 60.767c.538 0 2.083-.21 4.807-2.157 2.21-1.58 4.55-3.85 6.768-6.563a51.195 51.195 0 0 0 6.07-9.37c1.782-3.566 2.97-7.046 3.53-10.344.83-4.883.643-10.394-.53-15.517-1.07-4.677-2.918-8.821-5.07-11.371C17.944 3.868 16.58 3 15.433 3c-.268 0-.53.044-.804.136-4.548 1.52-7.832 3.87-8.785 6.286-.439 1.114-.35 2.172.278 3.33.52.959 1.366 1.497 2.815 2.366 1.834 1.099 4.115 2.467 5.59 5.463 1.52 3.088 1.846 7.238 1.025 13.061-1.258 8.917-5.827 15.82-9.164 20.86-1.104 1.669-2.057 3.109-2.692 4.316-.53 1.008-.658 1.528-.688 1.742.034.025.079.056.138.092.125.076.312.115.555.115m0 3c-.787 0-1.5-.178-2.115-.552-6.44-3.919 8.646-13.333 10.995-29.991 2.35-16.659-6.096-13.516-9.095-19.04C.488 8.657 5.134 3.145 13.68.29c8.546-2.855 16.985 15.904 14.155 32.546-2.56 15.05-16.69 30.932-24.133 30.931z" style="fill:#222;stroke:none" transform="rotate(-105.01 -10.581 33.542)"/>
        </g>
    </g>
    <g data-name="갈매기">
        <g data-name="합치기 45" style="fill:#fff">
            <path d="M32.752 16.803c-.775 0-1.532-.181-2.132-.511l-.103-.057-.111-.04c-.308-.11-.544-.268-.683-.454-.25-.334-.408-.878-.592-1.508-.363-1.25-.816-2.806-2.343-4.182-1.628-1.469-4.175-2.397-7.786-2.839-.813-.1-1.65-.15-2.488-.15-3.48 0-6.57.843-9.134 1.668-.533.17-1.039.34-1.528.504-1.635.547-3.048 1.02-3.89 1.02-.246 0-.326-.044-.33-.045.002 0-.051-.056-.107-.246-.1-.343.108-.892.57-1.51 1.184-1.58 3.767-3.32 6.909-4.654C12.494 2.316 16.23 1.5 19.522 1.5c.582 0 1.155.026 1.703.077 3.827.359 7.586 1.684 10.585 3.73l.827.565.838-.547c3.13-2.042 7.006-3.408 10.634-3.748.548-.051 1.12-.077 1.703-.077 3.292 0 7.027.816 10.518 2.299 3.142 1.333 5.725 3.074 6.91 4.655.461.617.669 1.166.569 1.508-.056.191-.11.247-.11.249-.002 0-.083.043-.328.043-.842 0-2.254-.473-3.89-1.02-.489-.164-.994-.333-1.528-.505-2.563-.824-5.653-1.667-9.133-1.667-.838 0-1.675.05-2.488.15-3.38.414-5.646 1.211-7.129 2.51-1.42 1.243-1.839 2.707-2.175 3.883-.25.877-.448 1.569-.99 2.082-.4.38-.816.61-1.273.706l-.135.028-.128.052a4.658 4.658 0 0 1-1.75.33z" style="stroke:none" transform="matrix(.996 .087 -.087 .997 121.031 45.66)"/>
            <path d="M32.752 15.303c.425 0 .833-.075 1.181-.218l.256-.104.27-.056c.064-.014.261-.055.547-.326.233-.221.366-.656.58-1.406.37-1.294.876-3.065 2.63-4.6 1.719-1.506 4.24-2.418 7.934-2.87a22.039 22.039 0 0 1 2.67-.161c3.687 0 6.918.88 9.591 1.74.543.174 1.053.344 1.546.51l.807.268c-.969-.793-2.236-1.582-3.69-2.294C53.46 4.016 49.354 3 45.812 3c-.536 0-1.062.024-1.563.07-3.393.319-7.021 1.598-9.954 3.512l-1.677 1.094-1.654-1.13c-2.792-1.906-6.3-3.14-9.878-3.475A16.869 16.869 0 0 0 19.522 3C15.979 3 11.875 4.016 8.26 5.786c-1.453.712-2.72 1.5-3.69 2.293l.806-.268c.493-.165 1.003-.336 1.544-.51 2.675-.86 5.906-1.739 9.594-1.739.899 0 1.797.054 2.67.161 3.982.487 6.717 1.509 8.609 3.214 1.843 1.661 2.406 3.596 2.779 4.877.095.327.22.758.315.96a.763.763 0 0 0 .028.01l.221.08.207.113c.382.21.883.326 1.409.326m0 3c-1.07 0-2.057-.258-2.855-.697-.573-.206-1.05-.533-1.375-.966-1.672-2.236.13-6.736-9.703-7.94-4.156-.508-7.923.474-10.98 1.458C3.661 11.5.805 12.844.086 10.384-1.162 6.124 11.467-.842 21.365.084c4.313.404 8.304 1.946 11.29 3.985C35.757 2.046 39.818.473 43.97.084c9.896-.926 22.527 6.04 21.28 10.3-.721 2.46-3.577 1.116-7.755-.226-3.057-.984-6.824-1.966-10.98-1.457-9.832 1.203-6.757 5.527-9.443 8.075-.615.583-1.29.937-2 1.086a6.134 6.134 0 0 1-2.32.441z" style="fill:#222;stroke:none" transform="matrix(.996 .087 -.087 .997 121.031 45.66)"/>
        </g>
        <g data-name="마스크 그룹 626225" transform="matrix(.996 .087 -.087 .997 120.174 46.468)" style="clip-path:url(#f8eho0klec)">
            <g data-name="패스 11678" style="fill:#727272">
                <path d="M8.343 35.887a2.91 2.91 0 0 1-.19-.006c-1.146-.075-2.156-.422-3-1.032a4.987 4.987 0 0 1-1.642-2.004c-.51-1.144-.4-2.1-.08-2.505.258-.328.742-.622 1.304-.963 1.113-.675 2.499-1.515 3.433-3.346.996-1.953 1.234-4.653.726-8.255C8.162 12.585 5.49 8.549 3.54 5.602c-.712-1.075-1.327-2.004-1.701-2.764-.4-.81-.336-1.058-.335-1.063 0 0 .041-.066.21-.168A.88.88 0 0 1 2.18 1.5c1.322 0 4.083 1.637 7.022 5.233a30.415 30.415 0 0 1 3.606 5.566c1.061 2.124 1.769 4.198 2.103 6.166a23.323 23.323 0 0 1-.226 8.955c-.596 2.648-1.648 4.962-2.961 6.518-.751.889-1.947 1.95-3.38 1.95z" style="stroke:none" transform="rotate(-74.99 6.885 4.958)"/>
                <path d="M4.32 4.06c.161.247.322.49.47.714C6.82 7.84 9.6 12.04 10.38 17.566c.56 3.972.281 6.879-.876 9.147-1.128 2.21-2.851 3.256-3.992 3.947-.293.178-.68.413-.847.554-.03.228.033.837.497 1.525.382.564 1.29 1.528 3.088 1.645l.093.003c.903 0 1.788-.888 2.235-1.417 1.16-1.375 2.1-3.463 2.644-5.88.61-2.705.682-5.6.21-8.373-.31-1.823-.97-3.756-1.965-5.748A28.89 28.89 0 0 0 8.04 7.682C6.81 6.179 5.526 4.927 4.32 4.06M2.18 0c4.382 0 12.703 9.351 14.21 18.214 1.667 9.799-2.896 19.517-8.335 19.164-5.439-.354-7.53-5.772-5.804-7.966 1.727-2.194 6.541-1.618 5.158-11.427C6.025 8.176-2.858 2.633.935.325 1.297.105 1.717 0 2.18 0z" style="fill:#222;stroke:none" transform="rotate(-74.99 6.885 4.958)"/>
            </g>
        </g>
        <g data-name="마스크 그룹 626226" transform="matrix(.996 .087 -.087 .997 177.084 52.639)" style="clip-path:url(#ne12ns2e3d)">
            <g data-name="패스 12195" style="fill:#727272">
                <path d="M2.18 36.049a.881.881 0 0 1-.466-.107c-.172-.105-.21-.17-.211-.171 0 0-.065-.246.336-1.06.374-.76.989-1.69 1.7-2.765C5.49 29 8.163 24.964 8.895 19.773c.476-3.374.292-5.768-.578-7.536-.834-1.694-2.14-2.477-3.19-3.106-.781-.469-1.398-.839-1.754-1.495-.406-.746-.464-1.461-.178-2.186.59-1.495 2.585-2.937 5.337-3.856.188-.063.37-.094.557-.094.755 0 1.631.545 2.466 1.534 1.294 1.533 2.403 4.015 3.043 6.809.697 3.05.81 6.331.315 9.24-.335 1.968-1.043 4.043-2.103 6.167a30.415 30.415 0 0 1-3.607 5.566c-1.32 1.616-2.717 2.97-4.037 3.913-1.173.839-2.261 1.32-2.985 1.32z" style="stroke:none" transform="rotate(-105.01 -6.23 19.75)"/>
                <path d="M4.32 33.49c1.206-.868 2.492-2.12 3.72-3.623a28.892 28.892 0 0 0 3.427-5.288c.995-1.991 1.656-3.925 1.966-5.747.996-5.86-.755-12.142-3.025-14.83C9.714 3.18 9.22 3 9.088 3c-.009 0-.034 0-.082.016-2.754.92-4.1 2.183-4.416 2.985-.104.263-.123.508.1.92.153.282.539.522 1.208.923 1.154.692 2.735 1.64 3.764 3.73 1.009 2.051 1.237 4.723.717 8.408C9.6 25.51 6.82 29.708 4.791 32.774l-.472.715m-2.14 4.06c-.462 0-.882-.105-1.244-.325-3.793-2.308 5.09-7.852 6.474-17.66 1.383-9.81-3.59-7.959-5.356-11.212-1.766-3.254.97-6.5 6.002-8.181 5.032-1.682 10.002 9.365 8.335 19.164C14.883 28.198 6.562 37.55 2.18 37.55z" style="fill:#222;stroke:none" transform="rotate(-105.01 -6.23 19.75)"/>
            </g>
        </g>
    </g>
    <g data-name="갈매기">
        <g data-name="합치기 45" style="fill:#fff">
            <path d="M35.224 18.185c-.864 0-1.676-.195-2.347-.564l-.103-.057-.111-.04c-.352-.127-.624-.309-.787-.526-.28-.376-.454-.97-.654-1.659-.387-1.33-.87-2.987-2.487-4.445C27 9.33 24.282 8.34 20.422 7.869c-.87-.107-1.765-.16-2.662-.16-3.727 0-7.04.903-9.789 1.787-.572.184-1.116.366-1.64.542-1.77.592-3.297 1.103-4.221 1.103-.31 0-.408-.061-.418-.068-.03-.021-.098-.113-.16-.327-.12-.408.104-1.02.63-1.722 1.286-1.716 4.08-3.6 7.477-5.043 3.769-1.6 7.802-2.481 11.356-2.481.63 0 1.25.028 1.843.084 4.135.387 8.197 1.819 11.437 4.031l.827.565.839-.547c3.38-2.206 7.568-3.682 11.487-4.05a19.873 19.873 0 0 1 1.843-.083c3.554 0 7.587.881 11.356 2.481 3.396 1.442 6.192 3.327 7.477 5.043.526.702.75 1.314.63 1.722-.062.213-.13.305-.16.327-.046.031-.183.068-.419.068-.924 0-2.451-.511-4.22-1.103-.525-.176-1.069-.358-1.642-.542-2.748-.884-6.06-1.788-9.788-1.788-.896 0-1.792.054-2.661.16-7.637.935-9.007 3.631-9.912 6.796-.274.958-.49 1.716-1.095 2.29-.44.417-.92.682-1.425.787l-.135.029-.127.052a5.123 5.123 0 0 1-1.926.363z" style="stroke:none" transform="matrix(.99 -.14 .139 .991 322.324 31.875)"/>
            <path d="M35.224 16.685c.486 0 .955-.087 1.357-.251l.255-.105.27-.056c.232-.048.46-.182.699-.408.294-.278.437-.745.685-1.614.39-1.364.924-3.233 2.76-4.84 1.813-1.587 4.486-2.55 8.411-3.031.93-.114 1.887-.172 2.844-.172 3.935 0 7.388.94 10.247 1.86.582.187 1.13.37 1.66.548.62.207 1.275.427 1.875.609a9.799 9.799 0 0 0-.375-.354c-1.068-.957-2.553-1.92-4.295-2.785a31.215 31.215 0 0 0-5.982-2.22C53.407 3.293 51.266 3 49.27 3c-.584 0-1.157.026-1.703.077-3.685.345-7.624 1.735-10.808 3.812l-1.677 1.094-1.654-1.13c-3.034-2.07-6.845-3.412-10.73-3.776A18.373 18.373 0 0 0 20.994 3c-1.995 0-4.136.292-6.364.867a31.212 31.212 0 0 0-5.982 2.22C6.907 6.95 5.422 7.913 4.354 8.87a9.797 9.797 0 0 0-.374.353c.6-.182 1.255-.401 1.874-.609.53-.177 1.077-.36 1.658-.547 2.86-.92 6.314-1.86 10.248-1.86.958 0 1.915.058 2.844.172 2.141.262 3.92.667 5.44 1.237 1.494.56 2.703 1.268 3.695 2.162 1.935 1.745 2.53 3.788 2.923 5.14.117.402.273.94.39 1.14a.777.777 0 0 0 .12.054l.221.08.207.113c.444.245 1.02.38 1.624.38m0 3c-1.15 0-2.212-.28-3.07-.75-.616-.223-1.13-.574-1.479-1.04-1.798-2.405.14-7.244-10.435-8.538-4.47-.548-8.521.509-11.81 1.566-4.493 1.444-7.564 2.89-8.338.243C-1.25 6.586 12.333-.906 22.978.09c4.638.435 8.93 2.093 12.143 4.286C38.455 2.201 42.823.51 47.288.09c10.644-.996 24.228 6.496 22.886 11.077-.775 2.646-3.846 1.2-8.34-.243-3.288-1.057-7.339-2.114-11.808-1.566-10.575 1.294-7.268 5.944-10.157 8.684-.66.627-1.386 1.009-2.15 1.168a6.597 6.597 0 0 1-2.495.475z" style="fill:#222;stroke:none" transform="matrix(.99 -.14 .139 .991 322.324 31.875)"/>
        </g>
        <g data-name="마스크 그룹 626225" transform="matrix(.99 -.14 .139 .991 321.217 30.055)" style="clip-path:url(#qetiq9gjme)">
            <g data-name="패스 11678" style="fill:#727272">
                <path d="M8.973 38.71c-.071 0-.14-.003-.212-.007-1.254-.082-2.36-.463-3.285-1.132a5.485 5.485 0 0 1-1.803-2.2c-.487-1.091-.517-2.247-.073-2.81.29-.37.82-.69 1.433-1.063 1.186-.718 2.66-1.613 3.65-3.553 1.061-2.08 1.313-4.961.77-8.812-.783-5.557-3.648-9.885-5.74-13.045-.748-1.13-1.394-2.106-1.803-2.917-.455-.904-.416-1.23-.403-1.285.016-.073.154-.18.278-.255.145-.088.328-.131.56-.131.47 0 1.522.187 3.275 1.44C7.05 3.962 8.557 5.425 9.984 7.17a32.825 32.825 0 0 1 3.893 6.007c1.146 2.294 1.91 4.536 2.272 6.663.544 3.203.46 6.548-.245 9.675-.645 2.865-1.785 5.371-3.208 7.057-.824.975-2.137 2.137-3.723 2.137z" style="stroke:none" transform="rotate(-74.99 9.296 6.782)"/>
                <path d="M3.884 3.6c.31.499.676 1.051 1.08 1.66 2.17 3.28 5.144 7.771 5.975 13.664.3 2.136.37 3.959.213 5.574-.155 1.588-.525 2.939-1.132 4.129-1.184 2.32-3.004 3.424-4.209 4.154-.358.217-.84.509-1.002.673-.06.21-.051.91.47 1.752.427.688 1.459 1.862 3.58 2 .038.002.075.003.114.003 1.063 0 2.07-1.005 2.576-1.604 1.272-1.506 2.299-3.786 2.892-6.42.662-2.938.741-6.082.229-9.094-.337-1.981-1.055-4.082-2.135-6.244A31.302 31.302 0 0 0 8.823 8.12C7.479 6.474 6.07 5.106 4.748 4.16c-.316-.226-.604-.41-.864-.562M2.344 0c4.714 0 13.663 10.057 15.284 19.588C19.42 30.128 14.513 40.58 8.663 40.2c-5.85-.38-8.099-6.207-6.242-8.566 1.858-2.36 7.035-1.74 5.547-12.29C6.48 8.793-3.074 2.83 1.005.35c.39-.238.841-.35 1.34-.35z" style="fill:#222;stroke:none" transform="rotate(-74.99 9.296 6.782)"/>
            </g>
        </g>
        <g data-name="마스크 그룹 626226" transform="matrix(.99 -.14 .139 .991 372.9 21.487)" style="clip-path:url(#trgkjmb97f)">
            <g data-name="패스 12195" style="fill:#727272">
                <path d="M2.345 38.883c-.232 0-.415-.043-.56-.13-.124-.076-.262-.183-.278-.256-.013-.056-.052-.38.403-1.285.409-.811 1.055-1.787 1.803-2.916 2.092-3.16 4.957-7.489 5.74-13.046 1.075-7.62-1.175-9.64-3.998-11.333-.855-.513-1.53-.918-1.928-1.65-.453-.834-.517-1.634-.197-2.447.646-1.639 2.818-3.214 5.809-4.214.214-.071.422-.106.635-.106 1.084 0 2.088.92 2.739 1.69 1.403 1.662 2.605 4.348 3.296 7.37.754 3.295.874 6.84.34 9.983-.362 2.128-1.126 4.37-2.272 6.663a32.826 32.826 0 0 1-3.893 6.008c-1.426 1.746-2.935 3.208-4.363 4.229-.753.538-2.179 1.44-3.276 1.44z" style="stroke:none" transform="rotate(-105.01 -.025 20.434)"/>
                <path d="M3.884 36.784c.26-.15.549-.336.865-.562 1.321-.945 2.73-2.313 4.074-3.958a31.303 31.303 0 0 0 3.712-5.728c1.08-2.162 1.798-4.263 2.135-6.244 1.083-6.368-.83-13.204-3.303-16.134C10.645 3.303 10.058 3 9.774 3a.487.487 0 0 0-.16.03c-3.036 1.014-4.53 2.433-4.889 3.34-.114.29-.178.632.12 1.181.193.356.606.615 1.381 1.08 1.218.73 2.884 1.729 3.962 3.917 1.064 2.163 1.303 4.995.75 8.911-.83 5.893-3.804 10.385-5.975 13.664a74.504 74.504 0 0 0-1.08 1.661m-1.539 3.6c-.498 0-.949-.113-1.339-.35-4.079-2.482 5.475-8.444 6.963-18.994 1.488-10.55-3.86-8.559-5.76-12.058C.31 5.483 3.251 1.992 8.663.184c5.412-1.809 10.757 10.072 8.965 20.61-1.621 9.532-10.57 19.59-15.284 19.59z" style="fill:#222;stroke:none" transform="rotate(-105.01 -.025 20.434)"/>
            </g>
        </g>
    </g>
    <path data-name="선 223" transform="translate(42 217.194)" style="stroke-width:3px;stroke:#222;stroke-linecap:round;stroke-linejoin:round;fill:none" d="M0 0h360"/>
</svg>
