<svg xmlns="http://www.w3.org/2000/svg" width="444" height="206" viewBox="0 0 444 206">
    <g transform="translate(-622 -2040)">
        <circle data-name="Ellipse 2" cx="36" cy="36" r="36" transform="translate(647 2040)" style="fill:#dcf5fb"/>
        <circle data-name="Ellipse 2" cx="14.25" cy="14.25" r="14.25" transform="translate(641 2132.728)" style="fill:#fbf0e3"/>
        <circle data-name="Ellipse 2" cx="14.25" cy="14.25" r="14.25" transform="translate(1014 2076.285)" style="fill:#fbf0e3"/>
    </g>
    <path data-name="선 1994" transform="translate(42 195.5)" style="stroke-linejoin:round;stroke:#222;stroke-linecap:round;stroke-width:3px;fill:none" d="M0 0h360"/>
    <g data-name="그룹 631690">
        <g data-name="그룹 631680">
            <g data-name="그룹 631677">
                <path data-name="패스 11144" d="m322.824 209.8-35.272-.182L167.1 209a1.924 1.924 0 0 1-1.921-1.915V68.915A1.924 1.924 0 0 1 167.1 67h192.159a1.924 1.924 0 0 1 1.921 1.915v54.25" style="fill:#fff;stroke-linejoin:round;stroke:#222;stroke-linecap:round;stroke-width:3px" transform="translate(-42.68 -49.5)"/>
                <g data-name="그룹 631676">
                    <path data-name="패스 11469" d="M54.534-.344H8.3L.2 35.012l61.8-.19" transform="translate(190.5 160.5)" style="fill:#fff;stroke:#222;stroke-linecap:round;stroke-width:3px"/>
                    <path data-name="선 1996" transform="translate(244.5 160.5)" style="stroke-linejoin:round;stroke:#222;stroke-linecap:round;stroke-width:3px;fill:none" d="m0 0 8 34.827"/>
                </g>
                <path data-name="선 1997" transform="translate(123.363 138.471)" style="fill:#fff;stroke-linejoin:round;stroke:#222;stroke-linecap:round;stroke-width:3px" d="M0 0h152.889"/>
            </g>
        </g>
        <g data-name="그룹 631686">
            <g data-name="그룹 631684">
                <g data-name="그룹 631681">
                    <path data-name="패스 11147" d="m384.7 226.654 4.514-10.483v-85.194A7.416 7.416 0 0 1 394.18 124h-62.866c-13.442 0-12.1 14.894-12.1 14.894v88.921" style="fill:#fff;stroke-linejoin:round;stroke:#222;stroke-linecap:round;stroke-width:3px" transform="translate(-42.68 -49.5)"/>
                    <path data-name="패스 11148" d="M379.18 228c5.54 0 10.03-4.029 10.03-9v-5.267" style="fill:#fff;stroke-linejoin:round;stroke:#222;stroke-linecap:round;stroke-width:3px" transform="translate(-42.68 -49.5)"/>
                </g>
                <g data-name="그룹 631682">
                    <path data-name="패스 11149" d="M317.973 228h60.207a9.736 9.736 0 0 1-9.793-9.679V203H308.18v15.321a9.736 9.736 0 0 0 9.793 9.679z" style="fill:#e6eaed;stroke-linejoin:round;stroke:#222;stroke-linecap:round;stroke-width:3px" transform="translate(-42.68 -49.5)"/>
                </g>
                <g data-name="그룹 631683">
                    <path data-name="선 2000" transform="translate(291.5 109.5)" style="stroke-linejoin:round;stroke:#222;stroke-linecap:round;stroke-width:3px;fill:none" d="M0 0h40"/>
                    <path data-name="선 2001" transform="translate(291.5 99.5)" style="stroke-linejoin:round;stroke:#222;stroke-linecap:round;stroke-width:3px;fill:none" d="M0 0h40"/>
                    <path data-name="선 2002" transform="translate(291.5 120.5)" style="stroke-linejoin:round;stroke:#222;stroke-linecap:round;stroke-width:3px;fill:none" d="M0 0h29"/>
                </g>
                <path data-name="패스 11150" d="M402.18 145v-14.815a6.508 6.508 0 0 0-13 0V145z" style="fill:#e6eaed;stroke-linejoin:round;stroke:#222;stroke-linecap:round;stroke-width:3px" transform="translate(-42.68 -49.5)"/>
            </g>
            <g data-name="그룹 631685">
                <path data-name="패스 11151" d="M397.152 200.964V217l-8-5.66-8 5.66v-16.036" style="fill:#f2ac58;stroke-linejoin:round;stroke:#222;stroke-linecap:round;stroke-width:3px" transform="translate(-42.68 -49.5)"/>
                <path data-name="패스 11152" d="M389.179 202.072a16.036 16.036 0 1 1 16-16.035 16.034 16.034 0 0 1-16 16.035z" style="fill:#fff;stroke-linejoin:round;stroke:#222;stroke-linecap:round;stroke-width:3px" transform="translate(-42.68 -49.5)"/>
                <path data-name="패스 11153" d="M389.179 196.48a10.444 10.444 0 1 1 10.421-10.443 10.443 10.443 0 0 1-10.421 10.443z" style="fill:#f2ac58;stroke-linejoin:round;stroke:#222;stroke-linecap:round;stroke-width:3px" transform="translate(-42.68 -49.5)"/>
            </g>
        </g>
        <g data-name="그룹 631689">
            <path data-name="패스 11154" d="M164.18 145s-9.727 20.943-40 16.422v47.466c.787 2.756-2.7 25.062 40 36.112 42.7-11.05 39.213-33.356 40-36.112v-47.466c-30.273 4.521-40-16.422-40-16.422z" style="fill:#afdae9;stroke-linejoin:round;stroke:#222;stroke-linecap:round;stroke-width:3px" transform="translate(-42.68 -41.5)"/>
            <g data-name="그룹 631688" transform="translate(-42.68 -41.5)">
                <circle data-name="타원 1265" cx="24" cy="24" r="24" transform="translate(140.18 174)" style="fill:#fff;stroke-linejoin:round;stroke:#222;stroke-linecap:round;stroke-width:3px"/>
                <g data-name="그룹 631687">
                    <path data-name="패스 11155" d="M161.939 191.74a7.342 7.342 0 0 1-.322 2.219 4.836 4.836 0 0 1-.951 1.748 4.406 4.406 0 0 1-1.534 1.133 4.982 4.982 0 0 1-2.072.41 5.084 5.084 0 0 1-2.087-.41 4.216 4.216 0 0 1-1.535-1.133 4.982 4.982 0 0 1-.936-1.748 7.373 7.373 0 0 1-.322-2.219 7.238 7.238 0 0 1 .322-2.205 5.008 5.008 0 0 1 .936-1.731 4.238 4.238 0 0 1 1.535-1.133 5.083 5.083 0 0 1 2.087-.409 4.982 4.982 0 0 1 2.072.409 4.431 4.431 0 0 1 1.534 1.133 4.86 4.86 0 0 1 .951 1.731 7.208 7.208 0 0 1 .322 2.205zm-6.445 17.5a1.79 1.79 0 0 1-.705-1.463 2.909 2.909 0 0 1 .675-1.78l14.363-18.952a2.459 2.459 0 0 1 1.565-1.024 1.973 1.973 0 0 1 1.657.52 1.865 1.865 0 0 1 .707 1.479 2.9 2.9 0 0 1-.676 1.764l-14.363 18.953a2.393 2.393 0 0 1-1.55 1.008 2.141 2.141 0 0 1-1.673-.501zm3.039-17.5a3.676 3.676 0 0 0-.338-1.574 1.252 1.252 0 0 0-2.271 0 3.676 3.676 0 0 0-.337 1.574 3.759 3.759 0 0 0 .337 1.606 1.252 1.252 0 0 0 2.271 0 3.759 3.759 0 0 0 .338-1.606zm17.647 12.75a7.349 7.349 0 0 1-.322 2.22 4.853 4.853 0 0 1-.951 1.747 4.424 4.424 0 0 1-1.535 1.134 5 5 0 0 1-2.072.409 5.1 5.1 0 0 1-2.087-.409 4.226 4.226 0 0 1-1.534-1.134 4.937 4.937 0 0 1-.936-1.747 7.349 7.349 0 0 1-.322-2.22 7.19 7.19 0 0 1 .322-2.2 4.98 4.98 0 0 1 .936-1.732 4.235 4.235 0 0 1 1.534-1.133 5.087 5.087 0 0 1 2.087-.41 4.979 4.979 0 0 1 2.072.41 4.434 4.434 0 0 1 1.535 1.133 4.9 4.9 0 0 1 .951 1.732 7.19 7.19 0 0 1 .322 2.2zm-3.407 0a3.685 3.685 0 0 0-.337-1.574 1.252 1.252 0 0 0-2.271 0 3.671 3.671 0 0 0-.338 1.574 3.741 3.741 0 0 0 .338 1.606 1.252 1.252 0 0 0 2.271 0 3.756 3.756 0 0 0 .337-1.606z" style="fill:#222"/>
                </g>
            </g>
        </g>
    </g>
    <g data-name="그룹 631695">
        <g data-name="그룹 631694">
            <g data-name="그룹 631691" transform="translate(-42.68 -49.5)">
                <path data-name="패스 11156" d="M269 168v-65h26v65" style="fill:#fff;stroke-linejoin:round;stroke:#222;stroke-linecap:round;stroke-width:3px"/>
                <rect data-name="사각형 463174" width="4.375" height="4.375" rx=".583" transform="translate(285.063 133.75)" style="fill:#ddd"/>
                <rect data-name="사각형 463175" width="4.375" height="4.375" rx=".583" transform="translate(285.063 111.875)" style="fill:#ddd"/>
                <rect data-name="사각형 463176" width="4.375" height="4.375" rx=".583" transform="translate(285.063 122.813)" style="fill:#ddd"/>
                <rect data-name="사각형 463177" width="4.375" height="4.375" rx=".583" transform="translate(285.063 144.688)" style="fill:#ddd"/>
                <rect data-name="사각형 463178" width="4.375" height="4.375" rx=".583" transform="translate(285.063 155.625)" style="fill:#ddd"/>
            </g>
            <g data-name="그룹 631692">
                <path data-name="패스 11157" d="M226 168v-62.833L251.714 90H256v78" style="fill:#fcf28d;stroke-linejoin:round;stroke:#222;stroke-linecap:round;stroke-width:3px" transform="translate(-42.68 -49.5)"/>
                <path data-name="선 2003" transform="translate(189.32 78.5)" style="stroke-linejoin:round;stroke:#222;stroke-linecap:round;stroke-width:3px;fill:none" d="M0 0h8"/>
                <path data-name="선 2004" transform="translate(189.32 70.5)" style="stroke-linejoin:round;stroke:#222;stroke-linecap:round;stroke-width:3px;fill:none" d="M0 0h8"/>
                <path data-name="선 2005" transform="translate(189.32 87.5)" style="stroke-linejoin:round;stroke:#222;stroke-linecap:round;stroke-width:3px;fill:none" d="M0 0h8"/>
                <path data-name="선 2006" transform="translate(189.32 96.5)" style="stroke-linejoin:round;stroke:#222;stroke-linecap:round;stroke-width:3px;fill:none" d="M0 0h8"/>
                <path data-name="선 2007" transform="translate(189.32 105.5)" style="stroke-linejoin:round;stroke:#222;stroke-linecap:round;stroke-width:3px;fill:none" d="M0 0h8"/>
            </g>
            <g data-name="그룹 631693">
                <path data-name="패스 11158" d="M256 119v-8h17v8" style="fill:#fff;stroke-linejoin:round;stroke:#222;stroke-linecap:round;stroke-width:3px" transform="translate(-42.68 -49.5)"/>
                <path data-name="패스 11159" d="M250 168v-48h30v48" style="fill:#fff;stroke-linejoin:round;stroke:#222;stroke-linecap:round;stroke-width:3px" transform="translate(-42.68 -49.5)"/>
                <path data-name="선 2008" transform="translate(214.32 99.5)" style="fill:#fff;stroke-linejoin:round;stroke:#222;stroke-linecap:round;stroke-width:3px" d="M0 0h16"/>
                <path data-name="선 2009" transform="translate(214.32 90.5)" style="fill:#fff;stroke-linejoin:round;stroke:#222;stroke-linecap:round;stroke-width:3px" d="M0 0h16"/>
                <path data-name="선 2010" transform="translate(214.32 107.5)" style="fill:#fff;stroke-linejoin:round;stroke:#222;stroke-linecap:round;stroke-width:3px" d="M0 0h16"/>
                <path data-name="선 2011" transform="translate(214.32 81.5)" style="fill:#fff;stroke-linejoin:round;stroke:#222;stroke-linecap:round;stroke-width:3px" d="M0 0h16"/>
            </g>
        </g>
        <path data-name="선 2012" transform="translate(173.32 119.5)" style="fill:#fcf28d;stroke-linejoin:round;stroke:#222;stroke-linecap:round;stroke-width:3px" d="M0 0h90"/>
    </g>
</svg>
