<svg xmlns="http://www.w3.org/2000/svg" width="444" height="223" viewBox="0 0 444 223">
  <defs>
    <style>
      .cls-1 {
        fill: rgba(255,191,191,0.5);
        opacity: 0;
      }

      .cls-2 {
        fill: #dcf5fb;
      }

      .cls-3 {
        fill: #e3e6fb;
      }

      .cls-4 {
        fill: #fbf0e3;
      }

      .cls-5 {
        fill: #e4e4e4;
      }

      .cls-10, .cls-11, .cls-12, .cls-5, .cls-6, .cls-7, .cls-8, .cls-9 {
        stroke: #222;
      }

      .cls-10, .cls-5, .cls-6, .cls-7, .cls-8, .cls-9 {
        stroke-linecap: round;
        stroke-linejoin: round;
      }

      .cls-10, .cls-11, .cls-12, .cls-5, .cls-6, .cls-8 {
        stroke-width: 3.002px;
      }

      .cls-6 {
        fill: #fff;
      }

      .cls-7, .cls-9 {
        fill: none;
      }

      .cls-7 {
        stroke-width: 3px;
      }

      .cls-8 {
        fill: #f2ac58;
      }

      .cls-9 {
        stroke-width: 3.003px;
      }

      .cls-10, .cls-12 {
        fill: #afdae9;
      }

      .cls-11 {
        fill: #fcf28d;
      }

      .cls-11, .cls-12 {
        stroke-miterlimit: 10;
      }

      .cls-13 {
        fill: #222;
      }
    </style>
  </defs>
  <g id="SWKDIFDT4700_3" transform="translate(-1024.75 -1191.857)">
    <g id="deco">
      <rect id="BG" class="cls-1" width="444" height="223" transform="translate(1024.75 1191.857)"/>
      <circle id="Ellipse_2" data-name="Ellipse 2" class="cls-2" cx="48.941" cy="48.941" r="48.941" transform="translate(1049.25 1235.5)"/>
      <circle id="Ellipse_2-2" data-name="Ellipse 2" class="cls-3" cx="21.25" cy="21.25" r="21.25" transform="translate(1404.75 1192.857)"/>
      <circle id="Ellipse_2-3" data-name="Ellipse 2" class="cls-4" cx="10.816" cy="10.816" r="10.816" transform="translate(1383.117 1262.809)"/>
    </g>
    <g id="img" transform="translate(982.323 1173.291)">
      <g id="그룹_632148" data-name="그룹 632148">
        <g id="그룹_632144" data-name="그룹 632144">
          <g id="그룹_632141" data-name="그룹 632141">
            <path id="패스_11833" data-name="패스 11833" class="cls-5" d="M349.7,70.718v36.246H321.759V70.718c0-6.433,6.256-11.65,13.971-11.65S349.7,64.285,349.7,70.718Z"/>
            <path id="패스_11834" data-name="패스 11834" class="cls-6" d="M175.7,237.273V72.315c0-7.885,7.375-13.971,15.522-13.045v-.088H335.388c-7.715,0-13.971,5.884-13.971,13.138L320.3,237.273"/>
          </g>
          <line id="선_2172" data-name="선 2172" class="cls-7" x2="108" transform="translate(194.701 170.196)"/>
          <line id="선_2173" data-name="선 2173" class="cls-7" x2="76" transform="translate(226.701 193.222)"/>
          <line id="선_2174" data-name="선 2174" class="cls-7" x2="20" transform="translate(195.701 193.222)"/>
          <line id="선_2175" data-name="선 2175" class="cls-7" x2="64" transform="translate(195.701 214.247)"/>
          <line id="선_2176" data-name="선 2176" class="cls-7" x2="34" transform="translate(268.701 214.247)"/>
          <g id="그룹_632143" data-name="그룹 632143">
            <g id="그룹_632142" data-name="그룹 632142">
              <path id="패스_11835" data-name="패스 11835" class="cls-8" d="M269.743,147.169V116.511H280.7l-30.7-24.889a1.9,1.9,0,0,0-2.608,0l-30.7,24.889h10.958v30.658Z"/>
            </g>
            <path id="패스_11836" data-name="패스 11836" class="cls-6" d="M255.7,118.214a7,7,0,1,0-9.13,6.676l-4.87,12.19h14l-4.87-12.19A7.009,7.009,0,0,0,255.7,118.214Z"/>
          </g>
        </g>
        <g id="그룹_632145" data-name="그룹 632145">
          <path id="패스_11837" data-name="패스 11837" class="cls-6" d="M143.7,237.774V132.861l-6.89-14.225-7.11,14.225V237.774"/>
          <line id="선_2177" data-name="선 2177" class="cls-7" x2="13.125" transform="translate(130.139 133.529)"/>
          <line id="선_2178" data-name="선 2178" class="cls-9" y1="11.013" transform="translate(136.701 214.747)"/>
        </g>
        <g id="확정일자">
          <circle id="타원_1286" data-name="타원 1286" class="cls-10" cx="50" cy="50" r="50" transform="translate(298.927 120.067)"/>
          <circle id="타원_1287" data-name="타원 1287" class="cls-11" cx="40" cy="40" r="40" transform="translate(308.927 130.066)"/>
          <circle id="타원_1288" data-name="타원 1288" class="cls-12" cx="13.5" cy="13.5" r="13.5" transform="translate(335.927 157.067)"/>
          <path id="패스_11838" data-name="패스 11838" class="cls-13" d="M336.438,196.85a1.05,1.05,0,0,1-.455-.439.813.813,0,0,1-.006-.661c.091-.259.221-.409.39-.448a.82.82,0,0,1,.569.111l2.449,1.317a1.059,1.059,0,0,1,.454.439.813.813,0,0,1,.005.661c-.089.26-.221.409-.389.448a.813.813,0,0,1-.568-.111Z"/>
          <g id="그룹_632147" data-name="그룹 632147">
            <g id="그룹_632146" data-name="그룹 632146">
              <path id="패스_11839" data-name="패스 11839" class="cls-13" d="M326.114,147.258A.756.756,0,0,1,326.6,147a.76.76,0,0,1,.723.7.756.756,0,0,1-.242.5l-4.369,4.5a.744.744,0,0,1-.489.255.632.632,0,0,1-.494-.213.642.642,0,0,1-.227-.49.754.754,0,0,1,.242-.495l1.542-1.588-.275-.268a.822.822,0,0,1-.276-.6,1.027,1.027,0,0,1,.352-.694,1.04,1.04,0,0,1,.687-.375.808.808,0,0,1,.613.253l.275.268Zm-1.881,6.9a1.388,1.388,0,0,1-.419-.749,1.953,1.953,0,0,1,.06-.886,3.35,3.35,0,0,1,.46-.958,6.723,6.723,0,0,1,.8-.973,6.8,6.8,0,0,1,.948-.824,3.42,3.42,0,0,1,.945-.488,1.927,1.927,0,0,1,.883-.082,1.386,1.386,0,0,1,.761.4,1.44,1.44,0,0,1,.386.609,1.567,1.567,0,0,1,.052.7,2.557,2.557,0,0,1-.242.763,5.053,5.053,0,0,1-.484.795l.493.482q.387-.419.719-.827c.221-.27.441-.559.663-.862a1.538,1.538,0,0,1,.457-.443.474.474,0,0,1,.52.063.726.726,0,0,1,.34.442.745.745,0,0,1-.119.569,11.352,11.352,0,0,1-1.011,1.374q-.591.694-1.246,1.368l-2.208,2.273a1.451,1.451,0,0,1-.566.391.565.565,0,0,1-.574-.206.589.589,0,0,1-.229-.575,1.4,1.4,0,0,1,.372-.582l1.6-1.645-.5-.49a3.687,3.687,0,0,1-1.541.767A1.4,1.4,0,0,1,324.233,154.158ZM327.3,151a.476.476,0,0,0-.54-.062,2.12,2.12,0,0,0-.729.53,2.147,2.147,0,0,0-.509.744.446.446,0,0,0,.616.6,2.672,2.672,0,0,0,1.239-1.274A.479.479,0,0,0,327.3,151Zm-.027-4.558a.923.923,0,0,1-.328-.7,1.226,1.226,0,0,1,1.026-1.055.924.924,0,0,1,.707.309l1.577,1.535.655-.675a1.069,1.069,0,0,1,.632-.346.963.963,0,0,1,.95.925,1.074,1.074,0,0,1-.328.642l-.657.675,1.625,1.583a.927.927,0,0,1,.323.693,1.2,1.2,0,0,1-1.026,1.055.924.924,0,0,1-.7-.3Zm6.526,6.428a.22.22,0,0,0-.1-.068c-.022,0-.06.02-.107.071l-4.184,4.308a1.251,1.251,0,0,1-.568.353.773.773,0,0,1-.835-.813,1.232,1.232,0,0,1,.339-.577l4.9-5.049a1.341,1.341,0,0,1,.818-.491,1.24,1.24,0,0,1,.83.45l1.206,1.174a.906.906,0,0,1,.315.7,1.238,1.238,0,0,1-1.044,1.074.9.9,0,0,1-.711-.3Z"/>
              <path id="패스_11840" data-name="패스 11840" class="cls-13" d="M341.388,138.555a1.167,1.167,0,0,1,.728.02.884.884,0,0,1,.3,1.225,1.188,1.188,0,0,1-.636.352l-1.352.329.109.451a1.686,1.686,0,0,0,.372.743,2.392,2.392,0,0,0,.617.491,3.636,3.636,0,0,0,.781.322c.284.08.565.154.846.223a.941.941,0,0,1,.636.432.864.864,0,0,1,.038.714.72.72,0,0,1-.5.5,1.725,1.725,0,0,1-.8.037,6.55,6.55,0,0,1-1.271-.35,5.008,5.008,0,0,1-1.13-.606,5.509,5.509,0,0,1-.693,1.125,7.979,7.979,0,0,1-.955,1.011,1.358,1.358,0,0,1-.725.354.764.764,0,0,1-.676-.23.858.858,0,0,1-.295-.652.942.942,0,0,1,.367-.677,7.918,7.918,0,0,0,.641-.642,4.208,4.208,0,0,0,.521-.714,2.755,2.755,0,0,0,.309-.778,1.771,1.771,0,0,0-.012-.831l-.109-.451-1.416.345a1.167,1.167,0,0,1-.728-.021.88.88,0,0,1-.3-1.223,1.169,1.169,0,0,1,.636-.353Zm1.733,6.553a8.825,8.825,0,0,1,1.743-.255,4.563,4.563,0,0,1,1.45.159,2.515,2.515,0,0,1,1.06.6,2.392,2.392,0,0,1,.565,2.321,2.508,2.508,0,0,1-.665,1.021,4.549,4.549,0,0,1-1.214.809,8.779,8.779,0,0,1-1.666.578,8.94,8.94,0,0,1-1.745.255,4.567,4.567,0,0,1-1.45-.159,2.533,2.533,0,0,1-1.06-.6,2.4,2.4,0,0,1-.564-2.32,2.539,2.539,0,0,1,.664-1.023,4.569,4.569,0,0,1,1.215-.808A8.671,8.671,0,0,1,343.121,145.108Zm.89,3.66a6.323,6.323,0,0,0,.842-.266,2.722,2.722,0,0,0,.637-.354,1.2,1.2,0,0,0,.37-.439.791.791,0,0,0-.229-.94,1.2,1.2,0,0,0-.531-.218,2.728,2.728,0,0,0-.727-.021,6.048,6.048,0,0,0-.87.151,6.269,6.269,0,0,0-.841.266,2.7,2.7,0,0,0-.637.354,1.214,1.214,0,0,0-.372.438.791.791,0,0,0,.23.941,1.221,1.221,0,0,0,.53.218,2.735,2.735,0,0,0,.728.021A6.069,6.069,0,0,0,344.011,148.768Zm-.182-10.1a.89.89,0,0,1,.121-.767,1.28,1.28,0,0,1,1.479-.361.888.888,0,0,1,.46.626l1.145,4.7a.889.889,0,0,1-.12.767,1.281,1.281,0,0,1-1.481.36.887.887,0,0,1-.459-.626l-.448-1.842-1.339.326a1.24,1.24,0,0,1-.71,0,.806.806,0,0,1-.283-1.159,1.257,1.257,0,0,1,.63-.33l1.338-.327Z"/>
              <path id="패스_11841" data-name="패스 11841" class="cls-13" d="M353.933,145.863a.947.947,0,0,1-.527-.351.876.876,0,0,1,.35-1.086.941.941,0,0,1,.633.024l6.416,2.076a2.56,2.56,0,0,1,.491.206.707.707,0,0,1,.269.262.629.629,0,0,1,.065.362,2.486,2.486,0,0,1-.117.514l-.412,1.274a1.2,1.2,0,0,1-.5.763,1.309,1.309,0,0,1-.921-.053l-5.169-1.674a.083.083,0,0,0-.117.06l-.155.481a.082.082,0,0,0,.06.116l5.711,1.848a.953.953,0,0,1,.53.36.7.7,0,0,1,.031.616.687.687,0,0,1-.384.476.966.966,0,0,1-.637-.026l-6.619-2.141a1.284,1.284,0,0,1-.774-.495,1.241,1.241,0,0,1,.044-.912l.441-1.364a1.224,1.224,0,0,1,.489-.762,1.284,1.284,0,0,1,.908.057l5.181,1.678c.067.021.111,0,.13-.056l.118-.366c.018-.059-.006-.1-.074-.121Zm-.907-5.646a2.816,2.816,0,0,1,.638-1.111,2.69,2.69,0,0,1,.966-.643,3.124,3.124,0,0,1,1.193-.2,4.865,4.865,0,0,1,2.534.821,3.082,3.082,0,0,1,.849.86,2.689,2.689,0,0,1,.408,1.086,3.095,3.095,0,0,1-.77,2.385,2.609,2.609,0,0,1-.964.637,3.167,3.167,0,0,1-1.191.193,4.869,4.869,0,0,1-2.533-.82,3.161,3.161,0,0,1-.852-.855,2.619,2.619,0,0,1-.41-1.08A2.821,2.821,0,0,1,353.026,140.217Zm1.943.629a1.23,1.23,0,0,0,.067,1.017,1.526,1.526,0,0,0,1.853.6,1.235,1.235,0,0,0,.651-.786,1.257,1.257,0,0,0-.066-1.025,1.5,1.5,0,0,0-1.853-.6A1.249,1.249,0,0,0,354.969,140.846Zm6.585,0a.885.885,0,0,1,.5-.591,1.279,1.279,0,0,1,1.45.47.884.884,0,0,1,.063.773l-1.283,3.976a.882.882,0,0,1-.5.589,1.279,1.279,0,0,1-1.449-.468.889.889,0,0,1-.065-.775Z"/>
              <path id="패스_11842" data-name="패스 11842" class="cls-13" d="M369.626,147.314a1.033,1.033,0,0,1-.273-.681.929.929,0,0,1,1-.849,1.028,1.028,0,0,1,.626.381l3.186,3.765a1.035,1.035,0,0,1,.272.68.925.925,0,0,1-1,.849,1.038,1.038,0,0,1-.628-.381l-.881-1.041-.657.558a4.3,4.3,0,0,0-1.327,1.9,6.528,6.528,0,0,0-.3,2.5.967.967,0,0,1-.656,1.112.665.665,0,0,1-.374.03,1.055,1.055,0,0,1-.359-.148,1.084,1.084,0,0,1-.3-.278.9.9,0,0,1-.167-.38,5.768,5.768,0,0,1-.064-1.718,7.511,7.511,0,0,1,.355-1.674q-.4.08-.852.123a6.8,6.8,0,0,1-1.817-.076,3.973,3.973,0,0,1-.823-.233,1.088,1.088,0,0,1-.568-.569.813.813,0,0,1,0-.74.965.965,0,0,1,1.2-.464,6.162,6.162,0,0,0,2.565.076,4.673,4.673,0,0,0,2.14-1.041l.657-.558Zm5.631,4.438a.885.885,0,0,1,.738-.234,1.28,1.28,0,0,1,.984,1.163.886.886,0,0,1-.352.69l-2.093,1.775.607.719a1,1,0,0,1,.27.667.867.867,0,0,1-.359.643.845.845,0,0,1-.682.24,1,1,0,0,1-.613-.375l-.609-.718-4.427,3.754a.884.884,0,0,1-.739.235,1.284,1.284,0,0,1-.984-1.163.891.891,0,0,1,.353-.692Z"/>
              <path id="패스_11843" data-name="패스 11843" class="cls-13" d="M369.485,177.069a9.625,9.625,0,0,1,.542-1.451,4.184,4.184,0,0,1,.671-1.032,1.927,1.927,0,0,1,.8-.548,1.617,1.617,0,0,1,1.7.5,1.918,1.918,0,0,1,.378.89,4.174,4.174,0,0,1,.011,1.23,9.633,9.633,0,0,1-.322,1.517,9.732,9.732,0,0,1-.542,1.451,4.24,4.24,0,0,1-.671,1.033,1.94,1.94,0,0,1-.8.547,1.621,1.621,0,0,1-1.7-.5,1.944,1.944,0,0,1-.377-.89,4.212,4.212,0,0,1-.01-1.23A9.633,9.633,0,0,1,369.485,177.069Zm2.535.741a4.957,4.957,0,0,0,.256-1.49c-.013-.356-.127-.566-.344-.63s-.425.052-.628.346a6.74,6.74,0,0,0-.841,2.882c.014.357.129.567.345.631s.426-.052.629-.345A5.076,5.076,0,0,0,372.02,177.81Zm2.923-3.4a1.056,1.056,0,0,1,.3-.523.568.568,0,0,1,.548-.061.576.576,0,0,1,.433.348,1.027,1.027,0,0,1-.022.6l-2.286,7.843a1.007,1.007,0,0,1-.3.52.574.574,0,0,1-.553.06.56.56,0,0,1-.428-.345,1.068,1.068,0,0,1,.028-.6Zm1.517,1.967a1.081,1.081,0,0,1,.4-.658,1,1,0,0,1,.759,0l1.677.491a.993.993,0,0,1,.643.4,1.09,1.09,0,0,1-.02.769l-1.512,5.189a.925.925,0,0,1-.315.5.713.713,0,0,1-.986-.288.931.931,0,0,1,0-.591l1.28-4.392a.179.179,0,0,0,.01-.112.16.16,0,0,0-.089-.048l-.627-.183a.146.146,0,0,0-.1-.007c-.019.01-.036.043-.052.1l-1.31,4.5a.928.928,0,0,1-.316.5.6.6,0,0,1-.554.064.6.6,0,0,1-.43-.352.9.9,0,0,1,0-.591Z"/>
              <path id="패스_11844" data-name="패스 11844" class="cls-13" d="M369.913,184.4a.84.84,0,0,1,.523-.306.851.851,0,0,1,.829.743.837.837,0,0,1-.248.556l-5.46,6.1a.832.832,0,0,1-.522.308.851.851,0,0,1-.829-.744.834.834,0,0,1,.247-.556l2.147-2.4-1.64-1.473a.74.74,0,0,1-.29-.576,1.127,1.127,0,0,1,.851-.951.733.733,0,0,1,.6.224l1.641,1.473Zm.634,2.68a1.186,1.186,0,0,1,.733-.441,1,1,0,0,1,.774.312l2.1,1.88a.72.72,0,0,1,.272.559,1.007,1.007,0,0,1-.809.9.71.71,0,0,1-.583-.208l-.333-.3-2.6,2.9.333.3a.709.709,0,0,1,.27.557.9.9,0,0,1-.254.587.877.877,0,0,1-.55.313.731.731,0,0,1-.58-.212l-2.1-1.88a.942.942,0,0,1-.044-1.506Zm1.19,1.846-.506-.454c-.041-.038-.073-.057-.093-.055s-.05.023-.089.066l-2.425,2.709c-.039.043-.058.075-.057.1s.024.05.067.088l.5.454Z"/>
              <path id="패스_11845" data-name="패스 11845" class="cls-13" d="M360.639,193.72a.927.927,0,0,1-.668.041.768.768,0,0,1-.467-.468l-.491-1.179c-.032-.074-.061-.117-.088-.128a.236.236,0,0,0-.155.029l-4.288,1.791a.764.764,0,0,1-.575.039.825.825,0,0,1-.412-.987.766.766,0,0,1,.432-.382l5.174-2.161a1.088,1.088,0,0,1,.79-.092.989.989,0,0,1,.5.6l.748,1.794a.771.771,0,0,1,0,.661A.935.935,0,0,1,360.639,193.72Zm-1.989,6.772a.727.727,0,0,1,0,.638,1.051,1.051,0,0,1-1.158.484.732.732,0,0,1-.453-.449l-2.1-5.041a.736.736,0,0,1,0-.639.949.949,0,0,1,.5-.434.936.936,0,0,1,.659-.05.731.731,0,0,1,.455.452L357.612,198l1.369-.572-.366-.882a1.042,1.042,0,0,1-.08-.8,1.067,1.067,0,0,1,.621-.509l2.92-1.22a1.1,1.1,0,0,1,.8-.087,1.021,1.021,0,0,1,.515.613l1.345,3.227a.754.754,0,0,1,.023.623.994.994,0,0,1-1.108.463.76.76,0,0,1-.426-.455l-.311-.746-1.781.744.311.746a.769.769,0,0,1,.027.622.975.975,0,0,1-1.1.458.761.761,0,0,1-.42-.457l-.42-1.008-1.37.572Zm3.377-4.974c-.031-.074-.08-.1-.147-.068l-1.579.661c-.069.027-.086.078-.055.152l.411.987,1.781-.744Z"/>
              <path id="패스_11846" data-name="패스 11846" class="cls-13" d="M351.809,194.027a.87.87,0,0,1,.569.2.824.824,0,0,1-.054,1.091.865.865,0,0,1-.586.145l-3.214-.157-.036.73a5.306,5.306,0,0,1,1.043.253,3,3,0,0,1,.8.428,1.752,1.752,0,0,1,.505.6,1.564,1.564,0,0,1,.152.794,1.528,1.528,0,0,1-.307.887,1.985,1.985,0,0,1-.754.587,3.747,3.747,0,0,1-1.113.305,7.789,7.789,0,0,1-1.389.047,8.015,8.015,0,0,1-1.378-.182,3.771,3.771,0,0,1-1.077-.414,2.012,2.012,0,0,1-.695-.658,1.547,1.547,0,0,1-.218-.912,1.587,1.587,0,0,1,.231-.777,1.757,1.757,0,0,1,.561-.551,2.893,2.893,0,0,1,.837-.347,5.21,5.21,0,0,1,1.061-.151l.036-.73-3.214-.158a.873.873,0,0,1-.569-.2.819.819,0,0,1,.054-1.09.86.86,0,0,1,.586-.147Zm-1.12,6.342a.845.845,0,0,1,.564.2.614.614,0,0,1,.178.5.621.621,0,0,1-.225.481.851.851,0,0,1-.582.146l-2.408-.118-.03.632a.691.691,0,0,1-.256.518,1.074,1.074,0,0,1-1.285-.063.69.69,0,0,1-.2-.541l.031-.632-2.408-.119a.846.846,0,0,1-.563-.2.7.7,0,0,1,.049-.981.843.843,0,0,1,.579-.147Zm-4.912-2.506c-.011.232.137.417.444.553a4.59,4.59,0,0,0,2.549.125c.318-.1.483-.273.494-.506s-.135-.416-.442-.553a4.62,4.62,0,0,0-2.55-.125Q345.8,197.514,345.777,197.864Z"/>
              <path id="패스_11847" data-name="패스 11847" class="cls-13" d="M333.786,188.158a3,3,0,0,1,.88,1.213,2.617,2.617,0,0,1,.12,1.3,3.974,3.974,0,0,1-.494,1.348,8.634,8.634,0,0,1-2.173,2.465,4.015,4.015,0,0,1-1.276.665,2.591,2.591,0,0,1-1.306.048,3.427,3.427,0,0,1-2.193-1.936,2.583,2.583,0,0,1-.117-1.3,4.064,4.064,0,0,1,.5-1.351,8.614,8.614,0,0,1,2.171-2.466,3.953,3.953,0,0,1,1.274-.661,2.6,2.6,0,0,1,1.3-.043A2.975,2.975,0,0,1,333.786,188.158Zm-1.025,1.162a.97.97,0,0,0-.635-.268,1.441,1.441,0,0,0-.684.183,3.342,3.342,0,0,0-.707.512q-.352.329-.692.713a9.368,9.368,0,0,0-.619.779A3.265,3.265,0,0,0,329,192a1.49,1.49,0,0,0-.1.706.957.957,0,0,0,.343.6.945.945,0,0,0,.639.263,1.474,1.474,0,0,0,.688-.185,3.32,3.32,0,0,0,.706-.513c.235-.219.467-.457.692-.713a9.6,9.6,0,0,0,.621-.778,3.343,3.343,0,0,0,.419-.766,1.437,1.437,0,0,0,.1-.7A.96.96,0,0,0,332.761,189.32Z"/>
              <path id="패스_11848" data-name="패스 11848" class="cls-13" d="M329.233,182.664a2.988,2.988,0,0,1,.464,1.427,2.612,2.612,0,0,1-.284,1.273,3.964,3.964,0,0,1-.886,1.128,8.547,8.547,0,0,1-2.824,1.678,4.031,4.031,0,0,1-1.419.239,2.609,2.609,0,0,1-1.258-.357,3.435,3.435,0,0,1-1.491-2.518,2.568,2.568,0,0,1,.29-1.276,3.978,3.978,0,0,1,.89-1.131,8.556,8.556,0,0,1,2.823-1.678,3.948,3.948,0,0,1,1.414-.235,2.6,2.6,0,0,1,1.254.359A2.994,2.994,0,0,1,329.233,182.664Zm-1.333.792a.959.959,0,0,0-.521-.453,1.448,1.448,0,0,0-.706-.037,3.375,3.375,0,0,0-.829.269c-.293.136-.585.29-.88.465s-.571.359-.829.55a3.368,3.368,0,0,0-.634.6,1.5,1.5,0,0,0-.311.642,1.071,1.071,0,0,0,.667,1.126,1.476,1.476,0,0,0,.712.035,3.335,3.335,0,0,0,.829-.269c.292-.136.585-.29.88-.466a9.82,9.82,0,0,0,.828-.549,3.281,3.281,0,0,0,.635-.6,1.441,1.441,0,0,0,.306-.64A.959.959,0,0,0,327.9,183.456Z"/>
              <path id="패스_11849" data-name="패스 11849" class="cls-13" d="M326.612,176.055a3,3,0,0,1,0,1.5,2.62,2.62,0,0,1-.665,1.123,3.977,3.977,0,0,1-1.189.8,8.577,8.577,0,0,1-3.205.721,3.968,3.968,0,0,1-1.422-.211,2.588,2.588,0,0,1-1.086-.729,3.431,3.431,0,0,1-.642-2.856,2.585,2.585,0,0,1,.67-1.124,4.045,4.045,0,0,1,1.2-.8,8.619,8.619,0,0,1,3.2-.721,3.925,3.925,0,0,1,1.418.212,2.6,2.6,0,0,1,1.081.731A2.975,2.975,0,0,1,326.612,176.055Zm-1.513.339a.952.952,0,0,0-.356-.591,1.432,1.432,0,0,0-.66-.254,3.338,3.338,0,0,0-.872,0c-.32.039-.646.1-.98.17a9.732,9.732,0,0,0-.957.265,3.38,3.38,0,0,0-.789.373,1.488,1.488,0,0,0-.494.515,1.074,1.074,0,0,0,.287,1.278,1.477,1.477,0,0,0,.666.252,3.3,3.3,0,0,0,.873,0,9.658,9.658,0,0,0,.979-.17,9.5,9.5,0,0,0,.959-.265,3.3,3.3,0,0,0,.787-.373,1.439,1.439,0,0,0,.489-.513A.956.956,0,0,0,325.1,176.394Z"/>
            </g>
            <ellipse id="타원_1289" data-name="타원 1289" class="cls-13" cx="1.5" cy="1.502" rx="1.5" ry="1.502" transform="translate(375.65 163.952)"/>
            <ellipse id="타원_1290" data-name="타원 1290" class="cls-13" cx="1.5" cy="1.502" rx="1.5" ry="1.502" transform="translate(318.548 163.042)"/>
          </g>
        </g>
      </g>
      <line id="선_2179" data-name="선 2179" class="cls-7" x2="360" transform="translate(84.427 239.065)"/>
    </g>
  </g>
</svg>
