<svg xmlns="http://www.w3.org/2000/svg" width="444" height="246.14" viewBox="0 0 444 246.14">
  <defs>
    <style>
      .cls-1 {
        fill: rgba(255,191,191,0.5);
        opacity: 0;
      }

      .cls-2 {
        fill: #dcf5fb;
      }

      .cls-3 {
        fill: #e3e6fb;
      }

      .cls-4 {
        fill: #fbf0e3;
      }

      .cls-15, .cls-5, .cls-7 {
        fill: #fff;
      }

      .cls-6 {
        fill: #e4e4e4;
      }

      .cls-10, .cls-12, .cls-13, .cls-14, .cls-15, .cls-6, .cls-7, .cls-9 {
        stroke: #222;
        stroke-linecap: round;
      }

      .cls-10, .cls-12, .cls-13, .cls-14, .cls-15, .cls-6, .cls-7 {
        stroke-linejoin: round;
      }

      .cls-10, .cls-6, .cls-7 {
        stroke-width: 3.002px;
      }

      .cls-8 {
        fill: #333;
      }

      .cls-12, .cls-9 {
        fill: none;
      }

      .cls-12, .cls-13, .cls-14, .cls-15, .cls-9 {
        stroke-width: 3px;
      }

      .cls-10, .cls-11, .cls-13 {
        fill: #f2ac58;
      }

      .cls-14, .cls-16 {
        fill: #fcf28d;
      }
    </style>
  </defs>
  <g id="SWKDIFDT3700_2" transform="translate(-624 -2009)">
    <g id="deco">
      <rect id="BG" class="cls-1" width="444" height="246" transform="translate(624 2009)"/>
      <circle id="Ellipse_2" data-name="Ellipse 2" class="cls-2" cx="60.715" cy="60.715" r="60.715" transform="translate(764 2022.89)"/>
      <circle id="Ellipse_2-2" data-name="Ellipse 2" class="cls-3" cx="19.75" cy="19.75" r="19.75" transform="translate(641.25 2073)"/>
      <circle id="Ellipse_2-3" data-name="Ellipse 2" class="cls-4" cx="19.75" cy="19.75" r="19.75" transform="translate(1004.07 2009)"/>
    </g>
    <g id="img" transform="translate(645.57 2078.501)">
      <g id="렌트" transform="translate(180.43 -6.151)">
        <g id="그룹_2741" data-name="그룹 2741" transform="translate(0 8)">
          <rect id="사각형_461776" data-name="사각형 461776" class="cls-5" width="140" height="102" transform="translate(0 71.649)"/>
          <path id="패스_4620" data-name="패스 4620" class="cls-6" d="M947.254,1352.5v34.631h-26.69V1352.5c0-6.147,5.975-11.132,13.344-11.132S947.254,1346.351,947.254,1352.5Z" transform="translate(-781.044 -1341.366)"/>
          <path id="패스_4621" data-name="패스 4621" class="cls-7" d="M785.795,1504.336V1353.482c0-7.212,7.045-12.777,14.827-11.93v-.08H938.334c-7.37,0-13.345,5.38-13.345,12.015v161.163" transform="translate(-785.795 -1341.362)"/>
        </g>
        <g id="그룹_628323" data-name="그룹 628323" transform="translate(14.619 42.558)">
          <path id="패스_5745" data-name="패스 5745" class="cls-8" d="M863.936,351.779c3.811,0,5.718,2.291,5.718,5.116a4.706,4.706,0,0,1-3.458,4.7l1.983,3.554a1.919,1.919,0,0,1-1.585,2.882h0a1.825,1.825,0,0,1-1.607-.992l-2.712-5.143h-.909v4.218a1.877,1.877,0,0,1-1.835,1.917h-.12a1.877,1.877,0,0,1-1.834-1.917V353.7a1.877,1.877,0,0,1,1.834-1.916Zm-.222,3.287h-2.348v4.028h2.348a2.015,2.015,0,1,0,0-4.028Z" transform="translate(-857.577 -351.779)"/>
          <path id="패스_5746" data-name="패스 5746" class="cls-8" d="M879.594,354.95h-4.277v3.288h3.612a1.5,1.5,0,0,1,1.463,1.528h0a1.5,1.5,0,0,1-1.463,1.528h-3.612v3.564h4.277a1.5,1.5,0,0,1,1.463,1.528v.116a1.5,1.5,0,0,1-1.463,1.528h-6.6a1.5,1.5,0,0,1-1.463-1.528v-13.2a1.5,1.5,0,0,1,1.463-1.528h6.6a1.5,1.5,0,0,1,1.463,1.528v.115A1.5,1.5,0,0,1,879.594,354.95Z" transform="translate(-857.085 -351.779)"/>
          <path id="패스_5747" data-name="패스 5747" class="cls-8" d="M897.02,353.758V366.05a1.94,1.94,0,0,1-1.9,1.98h-.875a1.876,1.876,0,0,1-1.581-.889l-5.776-9.135v8.044A1.939,1.939,0,0,1,885,368.03h0a1.94,1.94,0,0,1-1.9-1.98V353.758a1.939,1.939,0,0,1,1.9-1.979h.872a1.878,1.878,0,0,1,1.584.891l5.776,9.179v-8.09a1.938,1.938,0,0,1,1.894-1.979h0A1.939,1.939,0,0,1,897.02,353.758Z" transform="translate(-856.677 -351.779)"/>
          <path id="패스_5748" data-name="패스 5748" class="cls-8" d="M899.9,351.779h9a1.553,1.553,0,0,1,1.518,1.586h0a1.552,1.552,0,0,1-1.518,1.585h-2.6v11.494a1.553,1.553,0,0,1-1.518,1.586h-.754a1.553,1.553,0,0,1-1.518-1.586V354.95h-2.6a1.552,1.552,0,0,1-1.518-1.585h0A1.553,1.553,0,0,1,899.9,351.779Z" transform="translate(-856.138 -351.779)"/>
        </g>
        <line id="선_1597" data-name="선 1597" class="cls-9" x2="51" transform="translate(15.5 94.149)"/>
        <line id="선_1598" data-name="선 1598" class="cls-9" x2="51" transform="translate(15.5 78.149)"/>
        <line id="선_1599" data-name="선 1599" class="cls-9" x2="102.95" transform="translate(15.5 129.149)"/>
        <line id="선_1600" data-name="선 1600" class="cls-9" x2="102.95" transform="translate(15.5 113.149)"/>
        <line id="선_1601" data-name="선 1601" class="cls-9" x2="102.95" transform="translate(15.5 160.149)"/>
        <line id="선_1602" data-name="선 1602" class="cls-9" x2="102.95" transform="translate(15.5 144.149)"/>
        <g id="그룹_2745" data-name="그룹 2745" transform="translate(83.105 31.537)">
          <path id="패스_4626" data-name="패스 4626" class="cls-10" d="M931.192,1460.648V1481.3l-10.313-7.289-10.312,7.289v-20.653" transform="translate(-900.291 -1420.767)"/>
          <path id="패스_4627" data-name="패스 4627" class="cls-7" d="M921.264,1463.432a20.654,20.654,0,1,1,20.626-20.652A20.66,20.66,0,0,1,921.264,1463.432Z" transform="translate(-900.641 -1422.125)"/>
          <path id="패스_4628" data-name="패스 4628" class="cls-11" d="M921.02,1455.986a13.452,13.452,0,1,1,13.433-13.451A13.455,13.455,0,0,1,921.02,1455.986Z" transform="translate(-900.396 -1421.88)"/>
        </g>
      </g>
      <line id="선_1226" data-name="선 1226" class="cls-12" x2="360" transform="translate(20.93 175.106)"/>
      <g id="그룹_979" data-name="그룹 979" transform="translate(-204.76 -91.288)">
        <g id="그룹_974" data-name="그룹 974">
          <path id="패스_1661" data-name="패스 1661" class="cls-13" d="M314.909,250.467h59.843V265.59l35.639-28.663-35.639-28.663v15.124H287.005"/>
        </g>
        <g id="그룹_975" data-name="그룹 975">
          <rect id="사각형_402" data-name="사각형 402" class="cls-14" width="74.959" height="14.047" transform="translate(261.399 209.023)"/>
          <line id="선_395" data-name="선 395" class="cls-12" y2="7.159" transform="translate(278.128 209.192)"/>
        </g>
        <g id="그룹_976" data-name="그룹 976">
          <rect id="사각형_403" data-name="사각형 403" class="cls-14" width="74.959" height="14.047" transform="translate(250.391 223.07)"/>
          <line id="선_396" data-name="선 396" class="cls-12" y2="7.159" transform="translate(262.563 223.545)"/>
        </g>
        <g id="그룹_977" data-name="그룹 977">
          <rect id="사각형_404" data-name="사각형 404" class="cls-14" width="74.959" height="14.047" transform="translate(264.606 237.117)"/>
          <line id="선_397" data-name="선 397" class="cls-12" y2="7.159" transform="translate(279.647 237.286)"/>
        </g>
        <g id="그룹_978" data-name="그룹 978">
          <path id="패스_1662" data-name="패스 1662" class="cls-14" d="M272.979,265.211V251.164h74.959v14.047"/>
          <line id="선_398" data-name="선 398" class="cls-12" y2="7.159" transform="translate(288.379 251.333)"/>
        </g>
        <g id="그룹_973" data-name="그룹 973" transform="translate(-35.741 4.188)">
          <circle id="타원_82" data-name="타원 82" class="cls-15" cx="34.392" cy="34.392" r="34.392" transform="translate(299.227 135.291)"/>
          <circle id="타원_83" data-name="타원 83" class="cls-16" cx="26.28" cy="26.28" r="26.28" transform="translate(307.754 143.311)"/>
          <g id="그룹_972" data-name="그룹 972" transform="translate(318.958 163.347)">
            <path id="패스_1660" data-name="패스 1660" class="cls-12" d="M331.491,176.7l5.361,14.055a1.256,1.256,0,0,0,2.381-.1l3.883-13.627a1.256,1.256,0,0,1,2.41-.022l4.139,13.56a1.256,1.256,0,0,0,2.39.039l4.735-13.9" transform="translate(-329.067 -176.114)"/>
            <line id="선_394" data-name="선 394" class="cls-12" x2="30.147" transform="translate(0 7.069)"/>
          </g>
        </g>
      </g>
    </g>
  </g>
</svg>
