<svg xmlns="http://www.w3.org/2000/svg" width="444" height="220.001" viewBox="0 0 444 220.001">
  <defs>
    <style>
      .cls-1 {
        fill: rgba(255,191,191,0.5);
        opacity: 0;
      }

      .cls-2 {
        fill: #dcf5fb;
      }

      .cls-3 {
        fill: #fbf0e3;
      }

      .cls-4 {
        fill: #f2ac58;
      }

      .cls-5 {
        fill: none;
      }

      .cls-10, .cls-5, .cls-9 {
        stroke: #222;
        stroke-linecap: round;
        stroke-linejoin: round;
        stroke-width: 3px;
      }

      .cls-10, .cls-6 {
        fill: #fff;
      }

      .cls-7 {
        fill: #222;
      }

      .cls-8 {
        fill: #fcf28d;
      }

      .cls-9 {
        fill: #afdae9;
      }
    </style>
  </defs>
  <g id="SWKDIFDT1200_2" transform="translate(39 32.282)">
    <rect id="BG" class="cls-1" width="444" height="220" transform="translate(-39 -32.282)"/>
    <circle id="타원_561" data-name="타원 561" class="cls-2" cx="21.5" cy="21.5" r="21.5" transform="translate(-9 34.718)"/>
    <circle id="타원_562" data-name="타원 562" class="cls-3" cx="41.5" cy="41.5" r="41.5" transform="translate(296 -13.282)"/>
    <g id="그룹_630517" data-name="그룹 630517" transform="translate(-17.243 6)">
      <g id="책" transform="translate(56.788 -3.997)">
        <path id="패스_2890" data-name="패스 2890" class="cls-4" d="M200.747,184.161H66.455V11.5l134.292,9.592Z" transform="translate(0 -0.408)"/>
        <g id="그룹_626142" data-name="그룹 626142" transform="translate(66.455 11.092)">
          <path id="패스_2891" data-name="패스 2891" class="cls-5" d="M66.455,184.161V11.5l134.292,9.592V184.161" transform="translate(-66.455 -11.5)"/>
        </g>
        <path id="패스_2922" data-name="패스 2922" class="cls-6" d="M0,0H115.108V143.885H0Z" transform="translate(76.047 30.277)"/>
        <rect id="사각형_461023" data-name="사각형 461023" class="cls-5" width="115.108" height="143.885" transform="translate(76.047 30.277)"/>
        <g id="그룹_626144" data-name="그룹 626144" transform="translate(66.455 1.5)">
          <g id="그룹_626161" data-name="그룹 626161">
            <path id="패스_2892" data-name="패스 2892" class="cls-6" d="M200.747,20.685H76.086a9.592,9.592,0,1,1,0-19.185H200.747Z" transform="translate(-66.455 -1.5)"/>
            <path id="패스_2893" data-name="패스 2893" class="cls-5" d="M200.747,20.685H76.086a9.592,9.592,0,1,1,0-19.185H200.747V20.685" transform="translate(-66.455 -1.5)"/>
            <path id="패스_2897" data-name="패스 2897" class="cls-7" d="M122.105,102.148a2.29,2.29,0,0,1-2.578-2.605V84.707a2.2,2.2,0,0,1,.592-1.6,2.125,2.125,0,0,1,1.591-.605,2.217,2.217,0,0,1,1.618.605,2.148,2.148,0,0,1,.618,1.6V98.149h6.813a2.487,2.487,0,0,1,1.631.54,1.949,1.949,0,0,1,0,2.92,2.491,2.491,0,0,1-1.631.539Z" transform="translate(-68.619 -4.802)"/>
            <path id="패스_2898" data-name="패스 2898" class="cls-7" d="M144.285,82.5a2.822,2.822,0,0,1,1.658.46,2.859,2.859,0,0,1,1,1.276l6.314,15.309a1.867,1.867,0,0,1,0,1.618,2.03,2.03,0,0,1-1.288,1.039,1.978,1.978,0,0,1-1.644-.132,2.546,2.546,0,0,1-1.118-1.341l-1.184-3.1h-7.5l-1.158,3.1a2.553,2.553,0,0,1-1.118,1.341,2.034,2.034,0,0,1-1.671.132,1.981,1.981,0,0,1-1.276-1.039,1.9,1.9,0,0,1,.012-1.618l6.314-15.309a2.867,2.867,0,0,1,1-1.276,2.822,2.822,0,0,1,1.658-.46m-2.367,11.443h4.736l-2.316-6.129h-.106Z" transform="translate(-69.255 -4.802)"/>
            <path id="패스_2899" data-name="패스 2899" class="cls-7" d="M163.421,100.121a2.551,2.551,0,0,1-2.709,2.183,3.11,3.11,0,0,1-1.789-.5,2.515,2.515,0,0,1-.974-1.683l-3.1-15.283a1.91,1.91,0,0,1,.276-1.631,1.814,1.814,0,0,1,1.329-.71q1.761-.21,2.13,1.736l2.183,12.337h.053l2.973-12.153a2.538,2.538,0,0,1,.841-1.394,2.794,2.794,0,0,1,3.262,0,2.54,2.54,0,0,1,.842,1.394l2.973,12.153h.052l2.183-12.337q.37-1.947,2.13-1.736a1.814,1.814,0,0,1,1.329.71,1.913,1.913,0,0,1,.275,1.631l-3.1,15.283a2.514,2.514,0,0,1-.973,1.683,3.114,3.114,0,0,1-1.789.5,2.551,2.551,0,0,1-2.709-2.183l-2.789-11.048h-.1Z" transform="translate(-70.056 -4.801)"/>
            <line id="선_114" data-name="선 114" class="cls-6" x2="76.738" transform="translate(28.458 116.529)"/>
            <line id="선_115" data-name="선 115" class="cls-5" x2="76.738" transform="translate(28.458 116.529)"/>
            <line id="선_116" data-name="선 116" class="cls-6" x2="47.962" transform="translate(28.777 132.164)"/>
            <line id="선_117" data-name="선 117" class="cls-5" x2="47.962" transform="translate(28.777 132.164)"/>
            <line id="선_118" data-name="선 118" class="cls-6" x2="47.962" transform="translate(57.183 147.798)"/>
            <line id="선_119" data-name="선 119" class="cls-5" x2="47.962" transform="translate(57.183 147.798)"/>
            <line id="선_120" data-name="선 120" class="cls-6" x2="19.185" transform="translate(86.331 132.164)"/>
            <line id="선_121" data-name="선 121" class="cls-5" x2="19.185" transform="translate(86.331 132.164)"/>
            <line id="선_122" data-name="선 122" class="cls-6" x2="19.185" transform="translate(28.777 147.798)"/>
            <line id="선_123" data-name="선 123" class="cls-5" x2="19.185" transform="translate(28.777 147.798)"/>
            <line id="선_124" data-name="선 124" class="cls-6" x2="124.7" transform="translate(9.63 8.84)"/>
            <line id="선_125" data-name="선 125" class="cls-5" x2="124.7" transform="translate(9.63 8.84)"/>
            <g id="그룹_626160" data-name="그룹 626160" transform="translate(24.375 49.668)">
              <path id="패스_2911" data-name="패스 2911" class="cls-7" d="M155.794,93.518a3.426,3.426,0,0,1-.39,1.674,2.822,2.822,0,0,1-1.1,1.117l1.453,2.923a1.306,1.306,0,0,1,.13.8.883.883,0,0,1-.5.658,1.122,1.122,0,0,1-.446.126,1.135,1.135,0,0,1-.425-.05.99.99,0,0,1-.363-.209,1.1,1.1,0,0,1-.26-.343l-1.838-3.441h-2.207v2.808a1.157,1.157,0,0,1-.322.856,1.139,1.139,0,0,1-.843.323,1.115,1.115,0,0,1-.836-.322,1.163,1.163,0,0,1-.316-.853v-7.89a1.207,1.207,0,0,1,1.344-1.386h3.454a4.338,4.338,0,0,1,1.425.224,3.126,3.126,0,0,1,1.1.636,2.786,2.786,0,0,1,.7,1,3.482,3.482,0,0,1,.246,1.347m-5.949,1.406h1.974a2.151,2.151,0,0,0,1.247-.324,1.223,1.223,0,0,0,.466-1.082,1.175,1.175,0,0,0-.459-1.062,2.259,2.259,0,0,0-1.254-.3h-1.974Z" transform="translate(-113.379 -89.903)"/>
              <path id="패스_2912" data-name="패스 2912" class="cls-7" d="M162.848,90.205a1.451,1.451,0,0,1,.864.246,1.52,1.52,0,0,1,.52.678l3.291,8.143a1.014,1.014,0,0,1,0,.86,1.069,1.069,0,0,1-.672.553,1.013,1.013,0,0,1-.856-.071,1.353,1.353,0,0,1-.583-.714l-.617-1.65h-3.908l-.6,1.65a1.357,1.357,0,0,1-.583.714,1.151,1.151,0,0,1-1.535-.482,1.027,1.027,0,0,1,.007-.86l3.291-8.143a1.508,1.508,0,0,1,.52-.678,1.447,1.447,0,0,1,.864-.246m-1.234,6.086h2.467l-1.205-3.259h-.055Z" transform="translate(-113.942 -90.081)"/>
              <path id="패스_2913" data-name="패스 2913" class="cls-7" d="M170.587,91.842a1.969,1.969,0,0,1,.322-1.217,1.308,1.308,0,0,1,1.1-.42,1.721,1.721,0,0,1,.837.175,1.528,1.528,0,0,1,.548.553l3.551,6.366h.041v-5.89a1.245,1.245,0,0,1,.3-.867,1.175,1.175,0,0,1,1.645,0,1.249,1.249,0,0,1,.3.867v7.751a1.985,1.985,0,0,1-.295,1.167,1.187,1.187,0,0,1-1.035.413,2.067,2.067,0,0,1-.892-.175,1.452,1.452,0,0,1-.617-.581l-3.522-6.058h-.042v5.611a1.246,1.246,0,0,1-.3.867,1.175,1.175,0,0,1-1.645,0,1.25,1.25,0,0,1-.3-.867Z" transform="translate(-166.673 -89.872)"/>
              <path id="패스_2920" data-name="패스 2920" class="cls-7" d="M170.587,91.842a1.969,1.969,0,0,1,.322-1.217,1.308,1.308,0,0,1,1.1-.42,1.721,1.721,0,0,1,.837.175,1.528,1.528,0,0,1,.548.553l3.551,6.366h.041v-5.89a1.245,1.245,0,0,1,.3-.867,1.175,1.175,0,0,1,1.645,0,1.249,1.249,0,0,1,.3.867v7.751a1.985,1.985,0,0,1-.295,1.167,1.187,1.187,0,0,1-1.035.413,2.067,2.067,0,0,1-.892-.175,1.452,1.452,0,0,1-.617-.581l-3.522-6.058h-.042v5.611a1.246,1.246,0,0,1-.3.867,1.175,1.175,0,0,1-1.645,0,1.25,1.25,0,0,1-.3-.867Z" transform="translate(-115.297 -89.872)"/>
              <path id="패스_2914" data-name="패스 2914" class="cls-7" d="M182.28,95.441a6.581,6.581,0,0,1,.322-2.071,4.925,4.925,0,0,1,.96-1.714,4.6,4.6,0,0,1,1.577-1.169,5.127,5.127,0,0,1,2.173-.434,4.886,4.886,0,0,1,2.371.525,4.208,4.208,0,0,1,1.481,1.281,1.335,1.335,0,0,1,.247.811.9.9,0,0,1-.343.7,1.163,1.163,0,0,1-.37.189,1.09,1.09,0,0,1-.425.041,1.14,1.14,0,0,1-.431-.133,1.11,1.11,0,0,1-.377-.336,2.969,2.969,0,0,0-.912-.783,2.55,2.55,0,0,0-1.241-.281,2.624,2.624,0,0,0-1.042.21,2.342,2.342,0,0,0-.864.637,3.219,3.219,0,0,0-.59,1.057,4.471,4.471,0,0,0-.219,1.469,4.532,4.532,0,0,0,.219,1.476,3.112,3.112,0,0,0,.59,1.057,2.438,2.438,0,0,0,.864.637,2.547,2.547,0,0,0,1.042.217,3.088,3.088,0,0,0,1.282-.245,2.5,2.5,0,0,0,.925-.72,1.715,1.715,0,0,1,.788-.588.886.886,0,0,1,.843.125.864.864,0,0,1,.439.734,1.589,1.589,0,0,1-.3.889,4.1,4.1,0,0,1-1.5,1.294,5.2,5.2,0,0,1-2.474.525,5.14,5.14,0,0,1-2.173-.434,4.623,4.623,0,0,1-1.577-1.168,4.925,4.925,0,0,1-.96-1.722,6.651,6.651,0,0,1-.322-2.078" transform="translate(-116.711 -90.054)"/>
              <path id="패스_2916" data-name="패스 2916" class="cls-7" d="M207.022,91.38a1.163,1.163,0,0,1,.316-.853,1.118,1.118,0,0,1,.836-.322,1.107,1.107,0,0,1,1.165,1.175v8.184a1.151,1.151,0,0,1-.322.853,1.135,1.135,0,0,1-.843.322,1.112,1.112,0,0,1-.836-.322,1.163,1.163,0,0,1-.316-.853Z" transform="translate(-207.022 -89.871)"/>
              <path id="패스_2917" data-name="패스 2917" class="cls-7" d="M218.9,91.285a1.668,1.668,0,0,1,.48.875.867.867,0,0,1-.288.819.854.854,0,0,1-.816.231,1.978,1.978,0,0,1-.871-.469,3.635,3.635,0,0,0-.918-.588,2.9,2.9,0,0,0-1.166-.211,3.287,3.287,0,0,0-.575.05,1.468,1.468,0,0,0-.48.168.922.922,0,0,0-.329.322.941.941,0,0,0-.123.5.994.994,0,0,0,.117.5,1.148,1.148,0,0,0,.316.349,1.877,1.877,0,0,0,.452.245q.253.1.541.182l1.906.531a6.253,6.253,0,0,1,1.137.434,3,3,0,0,1,.829.609,2.359,2.359,0,0,1,.507.84,3.366,3.366,0,0,1,.172,1.126,2.581,2.581,0,0,1-.288,1.21,2.92,2.92,0,0,1-.823.966,3.99,3.99,0,0,1-1.3.643,5.848,5.848,0,0,1-1.707.232,6.889,6.889,0,0,1-1.22-.105,5.6,5.6,0,0,1-1.111-.315,4.967,4.967,0,0,1-.96-.511,3.077,3.077,0,0,1-.74-.706,1.716,1.716,0,0,1-.39-.9.833.833,0,0,1,.377-.783.985.985,0,0,1,.871-.2,1.763,1.763,0,0,1,.829.567,3.087,3.087,0,0,0,1.131.8,3.546,3.546,0,0,0,1.35.266,2.617,2.617,0,0,0,.638-.077,1.952,1.952,0,0,0,.548-.224,1.2,1.2,0,0,0,.384-.364.882.882,0,0,0,.144-.5,1.061,1.061,0,0,0-.233-.735,1.607,1.607,0,0,0-.74-.413l-2.262-.63a5.207,5.207,0,0,1-1.056-.412,3.486,3.486,0,0,1-.856-.622,2.657,2.657,0,0,1-.569-.847,3.063,3.063,0,0,1,.1-2.428,2.741,2.741,0,0,1,.816-.93,3.519,3.519,0,0,1,1.2-.546,5.82,5.82,0,0,1,1.44-.174,6.233,6.233,0,0,1,2.07.315,3.7,3.7,0,0,1,1.467.916" transform="translate(-187.257 -89.93)"/>
              <path id="패스_2918" data-name="패스 2918" class="cls-7" d="M224.157,100.671a1.206,1.206,0,0,1-1.344-1.385v-7.6a1.206,1.206,0,0,1,1.344-1.385h4.8a1.574,1.574,0,0,1,.844.2,1,1,0,0,1,0,1.468,1.559,1.559,0,0,1-.844.2H225.13v2.238h3.579a1.314,1.314,0,0,1,.788.223.979.979,0,0,1,0,1.428,1.314,1.314,0,0,1-.788.224H225.13v2.5h3.99a1.6,1.6,0,0,1,.843.2.78.78,0,0,1,.322.728.816.816,0,0,1-.322.741,1.518,1.518,0,0,1-.843.21Z" transform="translate(-146.338 -90.306)"/>
              <path id="패스_2921" data-name="패스 2921" d="M-32.41-5.512V-10.4a1.35,1.35,0,0,1,.284-.936,1.232,1.232,0,0,1,.863-.312,1.042,1.042,0,0,1,.793.312,1.35,1.35,0,0,1,.284.936v5A5.966,5.966,0,0,0-30.1-3.826a1.278,1.278,0,0,0,.65.737,2.673,2.673,0,0,0,1.406.285,2,2,0,0,0,1.7-.61,3.183,3.183,0,0,0,.366-1.945V-10.4a1.359,1.359,0,0,1,.281-.94.965.965,0,0,1,.751-.309,1.338,1.338,0,0,1,.9.309,1.326,1.326,0,0,1,.291.94v4.889a7.153,7.153,0,0,1-.235,1.99,3.068,3.068,0,0,1-.888,1.4,3.457,3.457,0,0,1-1.3.749,5.773,5.773,0,0,1-1.74.236,7.253,7.253,0,0,1-2.042-.253,3.277,3.277,0,0,1-1.4-.784,3.151,3.151,0,0,1-.793-1.359A6.837,6.837,0,0,1-32.41-5.512Z" transform="translate(46.42 11.993)"/>
            </g>
          </g>
        </g>
      </g>
      <g id="동전탑" transform="translate(16 1)">
        <path id="패스_2802" data-name="패스 2802" class="cls-6" d="M112.16,128.059A27.459,27.459,0,1,1,84.7,100.6a27.458,27.458,0,0,1,27.459,27.458"/>
        <circle id="타원_557" data-name="타원 557" class="cls-5" cx="27.458" cy="27.458" r="27.458" transform="translate(57.244 100.601)"/>
        <path id="패스_2803" data-name="패스 2803" class="cls-8" d="M106.032,127.986a21,21,0,1,1-21-21,21,21,0,0,1,21,21"/>
        <path id="패스_2804" data-name="패스 2804" class="cls-5" d="M74.962,123.486l4.268,11.19a1,1,0,0,0,1.9-.083l3.091-10.848a1,1,0,0,1,1.918-.018l3.3,10.8a1,1,0,0,0,1.9.03L95.1,123.486"/>
        <line id="선_79" data-name="선 79" class="cls-5" x2="24" transform="translate(73.032 128.647)"/>
        <path id="패스_2805" data-name="패스 2805" class="cls-6" d="M57.244,167.218v-12H112.16v12"/>
        <path id="패스_2806" data-name="패스 2806" class="cls-5" d="M57.244,167.218v-12H112.16v12"/>
        <line id="선_80" data-name="선 80" class="cls-5" y2="5.72" transform="translate(70.5 155.517)"/>
        <path id="패스_2807" data-name="패스 2807" class="cls-6" d="M57.244,178.4V166.958H112.16V178.4"/>
        <path id="패스_2808" data-name="패스 2808" class="cls-5" d="M57.244,178.4V166.958H112.16V178.4"/>
        <line id="선_81" data-name="선 81" class="cls-5" y2="5.72" transform="translate(70.5 166.958)"/>
      </g>
      <g id="그룹_4133" data-name="그룹 4133" transform="translate(49.267 -30.997)">
        <path id="패스_4051" data-name="패스 4051" class="cls-9" d="M200,225v-6.71c0-5.131,4.5-9.29,10.06-9.29h69.877C285.5,209,290,213.159,290,218.29V225" transform="translate(-44.217 -13.918)"/>
        <g id="그룹_2448" data-name="그룹 2448" transform="translate(178.669 99.376)">
          <path id="패스_4052" data-name="패스 4052" class="cls-10" d="M354.762,211.8a6.645,6.645,0,0,1,2.19,9.137h0a6.649,6.649,0,0,1-9.225,1.794l-68.474-44.066a6.647,6.647,0,0,1-2.19-9.136h0a6.649,6.649,0,0,1,9.225-1.795Z" transform="translate(-222.886 -113.294)"/>
          <path id="패스_4053" data-name="패스 4053" class="cls-10" d="M288.9,161.093a5.66,5.66,0,0,1,1.621,7.84L282.1,182.024a5.659,5.659,0,0,1-7.808,1.773l-6.546-4.212a5.667,5.667,0,0,1-1.622-7.844l8.425-13.087a5.659,5.659,0,0,1,7.806-1.774Z" transform="translate(-222.886 -113.294)"/>
          <rect id="사각형_1213" data-name="사각형 1213" class="cls-10" width="66.999" height="32.998" transform="matrix(0.541, -0.841, 0.841, 0.541, 9.051, 65.839)"/>
          <g id="그룹_2447" data-name="그룹 2447">
            <path id="패스_4054" data-name="패스 4054" class="cls-10" d="M265.635,191.309A5.57,5.57,0,0,1,267.312,199l-3.179,4.937a5.567,5.567,0,0,1-7.7,1.664l-30.988-19.942a5.569,5.569,0,0,1-1.679-7.695l3.178-4.938a5.573,5.573,0,0,1,7.7-1.663Z" transform="translate(-222.886 -113.294)"/>
            <path id="패스_4055" data-name="패스 4055" class="cls-10" d="M302.432,134.125a5.565,5.565,0,0,1,1.678,7.694l-3.181,4.938a5.566,5.566,0,0,1-7.695,1.663l-30.989-19.943a5.567,5.567,0,0,1-1.676-7.694l3.176-4.938a5.573,5.573,0,0,1,7.7-1.663Z" transform="translate(-222.886 -113.294)"/>
          </g>
        </g>
      </g>
    </g>
    <line id="line" class="cls-5" x2="360" transform="translate(3 186.218)"/>
  </g>
</svg>
