<svg xmlns="http://www.w3.org/2000/svg" width="444" height="228" viewBox="0 0 444 228">
    <g transform="translate(-436 -767)">
        <circle data-name="Ellipse 2" cx="53.5" cy="53.5" r="53.5" transform="translate(750 807)" style="fill:#dcf5fb"/>
        <circle data-name="Ellipse 2" cx="19.75" cy="19.75" r="19.75" transform="translate(444 767)" style="fill:#fbf0e3"/>
    </g>
    <g data-name="그룹 632730">
        <g data-name="그룹 632723">
            <path data-name="패스 12948" d="M9 0h48l9 38H0z" transform="translate(146 187)" style="fill:#fff"/>
            <path data-name="패스 12799" d="M327.6 227.712H139.485a2.068 2.068 0 0 1-2.054-2.069V76.309a2.068 2.068 0 0 1 2.054-2.069H344.97a2.069 2.069 0 0 1 2.055 2.069v60.006" style="stroke-width:3.003px;stroke:#222;stroke-linecap:round;stroke-linejoin:round;fill:#fff" transform="translate(-64.858 -40.732)"/>
            <g data-name="그룹 632718">
                <path data-name="선 2440" transform="translate(145.515 186.98)" style="fill:none;stroke-width:3.003px;stroke:#222;stroke-linecap:round;stroke-linejoin:round" d="M9.233 0 0 38.136"/>
                <path data-name="선 2441" transform="translate(202.761 186.98)" style="fill:none;stroke-width:3.003px;stroke:#222;stroke-linecap:round;stroke-linejoin:round" d="m0 0 9.233 38.136"/>
            </g>
            <path data-name="선 2442" transform="translate(73.495 163.727)" style="stroke-width:2.992px;stroke:#222;stroke-linecap:round;stroke-linejoin:round;fill:#fff" d="M0 0h188.244"/>
            <g data-name="그룹 632722">
                <g data-name="그룹 632719">
                    <path data-name="패스 12800" d="M246.269 139.056a37.834 37.834 0 0 1-17.559 32.01c-2.864 1.817-4.523 9.452-7.841 10.441-3.378 1.006 3.907-5.007-12.049-5.007a37.621 37.621 0 1 1 37.449-37.444z" style="fill:#fcf28d;stroke-width:3.003px;stroke:#222;stroke-linecap:round;stroke-linejoin:round" transform="translate(-64.858 -40.732)"/>
                    <path data-name="패스 12801" d="M238.187 139.056a37.833 37.833 0 0 0 17.557 32.01c2.865 1.817 4.524 9.452 7.841 10.441 3.378 1.006-1.912-4.652 12.123-4.652a37.8 37.8 0 1 0-37.521-37.8z" style="fill:#afdae9;stroke-width:3.003px;stroke:#222;stroke-linecap:round;stroke-linejoin:round" transform="translate(-64.858 -40.732)"/>
                </g>
                <g data-name="그룹 632720">
                    <path data-name="패스 12802" d="M256.189 144.848a1.777 1.777 0 0 1-.455 1.273 1.892 1.892 0 0 1-2.517 0 1.75 1.75 0 0 1-.466-1.273V134.02h-1.388a2.159 2.159 0 0 1-1.284-.356 1.575 1.575 0 0 1 0-2.3 2.165 2.165 0 0 1 1.284-.354h2.837a2 2 0 0 1 1.522.5 2.235 2.235 0 0 1 .466 1.565z" style="fill:#222" transform="translate(-64.858 -40.732)"/>
                    <path data-name="패스 12803" d="M258.2 145.683a1.8 1.8 0 0 1 .539-1.316 1.839 1.839 0 0 1 2.609 0 1.875 1.875 0 0 1 0 2.63 1.839 1.839 0 0 1-2.609 0 1.8 1.8 0 0 1-.539-1.314z" style="fill:#222" transform="translate(-64.858 -40.732)"/>
                    <path data-name="패스 12804" d="M268.027 146.788a5.617 5.617 0 0 1-2.774-.626 4.964 4.964 0 0 1-1.8-1.711 7.589 7.589 0 0 1-.984-2.556 16.578 16.578 0 0 1 0-6.281 7.7 7.7 0 0 1 .984-2.566 4.928 4.928 0 0 1 1.8-1.722 6.466 6.466 0 0 1 5.551 0 4.918 4.918 0 0 1 1.8 1.722 7.717 7.717 0 0 1 .984 2.566 16.578 16.578 0 0 1 0 6.281 7.61 7.61 0 0 1-.984 2.556 4.953 4.953 0 0 1-1.8 1.711 5.623 5.623 0 0 1-2.777.626zm0-2.964a1.815 1.815 0 0 0 1.244-.416 2.77 2.77 0 0 0 .745-1.127 6.489 6.489 0 0 0 .363-1.627 19.489 19.489 0 0 0 0-3.8 6.489 6.489 0 0 0-.363-1.627 2.85 2.85 0 0 0-.745-1.137 2.016 2.016 0 0 0-2.484 0 2.843 2.843 0 0 0-.747 1.137 6.279 6.279 0 0 0-.362 1.627 19.076 19.076 0 0 0 0 3.8 6.279 6.279 0 0 0 .362 1.627 2.763 2.763 0 0 0 .747 1.127 1.812 1.812 0 0 0 1.24.416z" style="fill:#222" transform="translate(-64.858 -40.732)"/>
                    <path data-name="패스 12805" d="M284.757 143.491a2.157 2.157 0 0 1 1.265.377 1.264 1.264 0 0 1 .538 1.105 1.292 1.292 0 0 1-.538 1.116 2.122 2.122 0 0 1-1.265.387h-8.431a1.351 1.351 0 0 1-.87-.282.991.991 0 0 1-.351-.824 1.31 1.31 0 0 1 .227-.794 7.262 7.262 0 0 1 .539-.647l3.293-3.567q.519-.564 1.057-1.137a12.185 12.185 0 0 0 .972-1.168 6.815 6.815 0 0 0 .715-1.21 3.066 3.066 0 0 0 .279-1.284 1.727 1.727 0 0 0-.609-1.377 2.184 2.184 0 0 0-1.46-.521 2.967 2.967 0 0 0-2.2.9 3.341 3.341 0 0 1-.56.458 2.437 2.437 0 0 1-.579.281 1.294 1.294 0 0 1-.59.053 1.192 1.192 0 0 1-.569-.25 1.174 1.174 0 0 1-.5-.982 2.137 2.137 0 0 1 .415-1.211 4.7 4.7 0 0 1 2.07-1.669 7.064 7.064 0 0 1 2.776-.542 6.742 6.742 0 0 1 2.1.313 4.608 4.608 0 0 1 1.658.927 4.229 4.229 0 0 1 1.076 1.5 5.072 5.072 0 0 1 .384 2.034 4.53 4.53 0 0 1-.177 1.253 6.051 6.051 0 0 1-.488 1.188 8.541 8.541 0 0 1-.714 1.126c-.268.363-.556.716-.86 1.065l-2.982 3.38z" style="fill:#222" transform="translate(-64.858 -40.732)"/>
                    <path data-name="패스 12806" d="M293.823 134.687a4.773 4.773 0 0 1-.216 1.471 3.194 3.194 0 0 1-.643 1.158 2.948 2.948 0 0 1-1.035.75 3.4 3.4 0 0 1-1.4.272 3.477 3.477 0 0 1-1.409-.272 2.835 2.835 0 0 1-1.035-.75 3.3 3.3 0 0 1-.632-1.158 4.8 4.8 0 0 1-.217-1.471 4.706 4.706 0 0 1 .217-1.461 3.3 3.3 0 0 1 .632-1.147 2.849 2.849 0 0 1 1.035-.751 3.511 3.511 0 0 1 1.409-.271 3.428 3.428 0 0 1 1.4.271 2.963 2.963 0 0 1 1.035.751 3.2 3.2 0 0 1 .643 1.147 4.677 4.677 0 0 1 .216 1.461zm-4.349 11.6a1.18 1.18 0 0 1-.476-.969 1.915 1.915 0 0 1 .456-1.179l9.692-12.561a1.658 1.658 0 0 1 1.058-.677 1.347 1.347 0 0 1 1.118.344 1.233 1.233 0 0 1 .477.98 1.9 1.9 0 0 1-.457 1.168l-9.694 12.561a1.609 1.609 0 0 1-1.044.668 1.463 1.463 0 0 1-1.13-.335zm2.049-11.6a2.408 2.408 0 0 0-.225-1.044.853.853 0 0 0-1.534 0 2.409 2.409 0 0 0-.227 1.044 2.45 2.45 0 0 0 .227 1.064.852.852 0 0 0 1.534 0 2.45 2.45 0 0 0 .226-1.064zm11.91 8.45a4.774 4.774 0 0 1-.217 1.472 3.179 3.179 0 0 1-.642 1.157 2.959 2.959 0 0 1-1.034.751 3.434 3.434 0 0 1-1.4.271 3.5 3.5 0 0 1-1.408-.271 2.853 2.853 0 0 1-1.036-.751 3.264 3.264 0 0 1-.63-1.157 4.775 4.775 0 0 1-.219-1.472 4.669 4.669 0 0 1 .219-1.46 3.293 3.293 0 0 1 .63-1.148 2.862 2.862 0 0 1 1.036-.75 3.485 3.485 0 0 1 1.408-.272 3.418 3.418 0 0 1 1.4.272 2.969 2.969 0 0 1 1.034.75 3.206 3.206 0 0 1 .642 1.148 4.669 4.669 0 0 1 .218 1.459zm-2.3 0a2.408 2.408 0 0 0-.227-1.043.852.852 0 0 0-1.533 0 2.408 2.408 0 0 0-.228 1.043 2.458 2.458 0 0 0 .228 1.065.852.852 0 0 0 1.533 0 2.458 2.458 0 0 0 .229-1.066z" style="fill:#222" transform="translate(-64.858 -40.732)"/>
                </g>
                <g data-name="그룹 632721">
                    <path data-name="패스 12807" d="M191.773 146.8a5.572 5.572 0 0 1-2.749-.62 4.907 4.907 0 0 1-1.785-1.7 7.532 7.532 0 0 1-.975-2.533 16.435 16.435 0 0 1 0-6.223 7.647 7.647 0 0 1 .975-2.543 4.885 4.885 0 0 1 1.785-1.706 6.41 6.41 0 0 1 5.5 0 4.886 4.886 0 0 1 1.785 1.706 7.647 7.647 0 0 1 .975 2.543 16.435 16.435 0 0 1 0 6.223 7.532 7.532 0 0 1-.975 2.533 4.907 4.907 0 0 1-1.785 1.7 5.571 5.571 0 0 1-2.751.62zm0-2.936a1.8 1.8 0 0 0 1.232-.413 2.748 2.748 0 0 0 .739-1.116 6.327 6.327 0 0 0 .359-1.612 19.127 19.127 0 0 0 0-3.762 6.345 6.345 0 0 0-.359-1.613 2.843 2.843 0 0 0-.739-1.126 2 2 0 0 0-2.462 0 2.822 2.822 0 0 0-.739 1.126 6.345 6.345 0 0 0-.359 1.613 19.124 19.124 0 0 0 0 3.762 6.327 6.327 0 0 0 .359 1.612 2.728 2.728 0 0 0 .739 1.116 1.8 1.8 0 0 0 1.23.408z" style="fill:#222" transform="translate(-64.858 -40.732)"/>
                    <path data-name="패스 12808" d="M197.469 145.7a1.788 1.788 0 0 1 .534-1.3 1.824 1.824 0 0 1 2.586 0 1.858 1.858 0 0 1 0 2.606A1.824 1.824 0 0 1 198 147a1.783 1.783 0 0 1-.531-1.3z" style="fill:#222" transform="translate(-64.858 -40.732)"/>
                    <path data-name="패스 12809" d="m206.817 134.308-.041 2.44c.164-.027.314-.052.451-.072s.267-.034.39-.042l.39-.02c.137-.007.3-.011.493-.011a5.869 5.869 0 0 1 1.99.332 4.455 4.455 0 0 1 1.581.951 4.513 4.513 0 0 1 1.036 1.488 4.806 4.806 0 0 1 .38 1.944 6.1 6.1 0 0 1-.38 2.18 4.819 4.819 0 0 1-1.118 1.737 5.19 5.19 0 0 1-1.807 1.148 6.688 6.688 0 0 1-2.421.413 11.47 11.47 0 0 1-2.359-.237 4.883 4.883 0 0 1-1.991-.9 1.556 1.556 0 0 1-.585-.951 1.331 1.331 0 0 1 .277-1.1 1.236 1.236 0 0 1 .431-.372 1.513 1.513 0 0 1 .5-.155 1.56 1.56 0 0 1 .5.02 2.839 2.839 0 0 1 .451.135c.4.194.791.362 1.181.506a4.05 4.05 0 0 0 1.405.217 2.758 2.758 0 0 0 1.97-.674 2.4 2.4 0 0 0 .719-1.837 2.19 2.19 0 0 0-.257-1.11 2.064 2.064 0 0 0-.7-.727 3.085 3.085 0 0 0-1.026-.4 6.031 6.031 0 0 0-1.262-.126 7.671 7.671 0 0 0-1.282.125l-1.222.207a.761.761 0 0 1-.749-.176.989.989 0 0 1-.256-.775l.184-5.505a1.951 1.951 0 0 1 .442-1.36 1.864 1.864 0 0 1 1.384-.433h5.808a1.976 1.976 0 0 1 1.263.413 1.542 1.542 0 0 1 0 2.316 1.971 1.971 0 0 1-1.263.413z" style="fill:#222" transform="translate(-64.858 -40.732)"/>
                    <path data-name="패스 12810" d="M221.32 134.8a4.749 4.749 0 0 1-.215 1.458 3.16 3.16 0 0 1-.636 1.148 2.939 2.939 0 0 1-1.025.743 3.374 3.374 0 0 1-1.385.269 3.447 3.447 0 0 1-1.4-.269 2.816 2.816 0 0 1-1.025-.743 3.248 3.248 0 0 1-.626-1.148 4.749 4.749 0 0 1-.215-1.458 4.65 4.65 0 0 1 .215-1.447 3.258 3.258 0 0 1 .626-1.137 2.807 2.807 0 0 1 1.025-.744 3.464 3.464 0 0 1 1.4-.268 3.39 3.39 0 0 1 1.385.268 2.929 2.929 0 0 1 1.025.744 3.169 3.169 0 0 1 .636 1.137 4.65 4.65 0 0 1 .215 1.447zm-4.309 11.5a1.168 1.168 0 0 1-.472-.961 1.894 1.894 0 0 1 .452-1.168l9.6-12.445a1.643 1.643 0 0 1 1.047-.671 1.336 1.336 0 0 1 1.108.341 1.216 1.216 0 0 1 .472.971 1.877 1.877 0 0 1-.452 1.157l-9.6 12.446a1.6 1.6 0 0 1-1.036.662 1.453 1.453 0 0 1-1.119-.332zm2.031-11.495a2.381 2.381 0 0 0-.225-1.034.844.844 0 0 0-1.519 0 2.381 2.381 0 0 0-.225 1.034 2.416 2.416 0 0 0 .225 1.054.844.844 0 0 0 1.519 0 2.416 2.416 0 0 0 .225-1.059zm11.8 8.372a4.744 4.744 0 0 1-.215 1.458 3.166 3.166 0 0 1-.636 1.148 2.958 2.958 0 0 1-1.026.744 3.407 3.407 0 0 1-1.385.268 3.476 3.476 0 0 1-1.4-.268 2.834 2.834 0 0 1-1.026-.744 3.24 3.24 0 0 1-.626-1.148 4.744 4.744 0 0 1-.215-1.458 4.659 4.659 0 0 1 .215-1.447 3.259 3.259 0 0 1 .626-1.137 2.82 2.82 0 0 1 1.026-.743 3.442 3.442 0 0 1 1.4-.269 3.374 3.374 0 0 1 1.385.269 2.943 2.943 0 0 1 1.026.743 3.185 3.185 0 0 1 .636 1.137 4.659 4.659 0 0 1 .215 1.446zm-2.278 0a2.377 2.377 0 0 0-.226-1.033.843.843 0 0 0-1.518 0 2.363 2.363 0 0 0-.226 1.033 2.41 2.41 0 0 0 .226 1.055.844.844 0 0 0 1.518 0 2.424 2.424 0 0 0 .227-1.056z" style="fill:#222" transform="translate(-64.858 -40.732)"/>
                </g>
            </g>
        </g>
        <g data-name="그룹 1819">
            <g data-name="그룹 1817">
                <g data-name="그룹 1814">
                    <path data-name="패스 7378" d="M405.2 640.759v64.3s.566 11.29-10.841 13.384-76.069 0-76.069 0v-70.064z" transform="translate(-55.755 -491.77)" style="fill:#fff"/>
                    <path data-name="패스 2948" d="M408.209 180.148v-47.279a9.427 9.427 0 0 1 6.307-8.869H334.6c-17.087 0-15.377 18.933-15.377 18.933v80.217" transform="translate(-58.285 -30)" style="stroke-width:3px;stroke:#222;stroke-linecap:round;stroke-linejoin:round;fill:#fff"/>
                    <path data-name="패스 2949" d="M379.18 231.868a11.44 11.44 0 0 0 11.44-11.44v-6.7" transform="translate(-42.016 -5.669)" style="stroke-width:3px;fill:none;stroke:#222;stroke-linecap:round;stroke-linejoin:round"/>
                </g>
                <g data-name="그룹 1815">
                    <path data-name="패스 2950" d="M320.628 234.779h76.532a12.376 12.376 0 0 1-12.448-12.3V203H308.18v19.475a12.376 12.376 0 0 0 12.448 12.304z" transform="translate(-61.267 -8.579)" style="fill:#e6eaed;stroke-width:3px;stroke:#222;stroke-linecap:round;stroke-linejoin:round"/>
                </g>
                <g data-name="그룹 1816">
                    <path data-name="선 815" transform="translate(279.963 138.491)" style="stroke-width:3px;fill:none;stroke:#222;stroke-linecap:round;stroke-linejoin:round" d="M0 0h50.846"/>
                    <path data-name="선 816" style="stroke-width:3px;fill:none;stroke:#222;stroke-linecap:round;stroke-linejoin:round" d="M0 0h50.846" transform="translate(279.963 125.779)"/>
                    <path data-name="선 817" transform="translate(279.963 152.473)" style="stroke-width:3px;fill:none;stroke:#222;stroke-linecap:round;stroke-linejoin:round" d="M0 0h36.863"/>
                </g>
                <path data-name="패스 2951" d="M405.7 150.694v-18.832a8.273 8.273 0 0 0-16.525 0v18.832z" transform="translate(-39.304 -30)" style="fill:#e6eaed;stroke-width:3px;stroke:#222;stroke-linecap:round;stroke-linejoin:round"/>
            </g>
            <g data-name="그룹 1818">
                <path data-name="패스 2952" d="M401.49 200.964v20.384l-10.169-7.194-10.169 7.194v-20.384" transform="translate(-41.48 -9.131)" style="fill:#f2ac58;stroke-width:3px;stroke:#222;stroke-linecap:round;stroke-linejoin:round"/>
                <path data-name="패스 2953" d="M393.517 210.768a20.384 20.384 0 1 1 20.34-20.383 20.382 20.382 0 0 1-20.34 20.383z" transform="translate(-43.642 -17.527)" style="stroke-width:3px;stroke:#222;stroke-linecap:round;stroke-linejoin:round;fill:#fff"/>
                <path data-name="패스 2954" d="M392 202.144a13.276 13.276 0 1 1 13.248-13.275A13.274 13.274 0 0 1 392 202.144z" transform="translate(-42.129 -16.011)" style="fill:#f2ac58"/>
            </g>
        </g>
    </g>
    <path data-name="패스 12818" d="M466.858 267.225h-360" style="stroke-width:2.992px;fill:none;stroke:#222;stroke-linecap:round;stroke-linejoin:round" transform="translate(-64.858 -40.732)"/>
</svg>
