<svg xmlns="http://www.w3.org/2000/svg" width="444" height="228" viewBox="0 0 444 228">
    <g transform="translate(38.5 38.85)">
        <circle data-name="Ellipse 2" cx="35.25" cy="35.25" r="35.25" transform="translate(296.5 101.15)" style="fill:#e3e6fb"/>
        <circle data-name="Ellipse 2" cx="18.75" cy="18.75" r="18.75" transform="translate(348.25 -38.85)" style="fill:#dcf5fb"/>
    </g>
    <g data-name="그룹 837">
        <g data-name="그룹 828">
            <g data-name="그룹 827" transform="translate(-42.399 -98.5)">
                <path data-name="패스 1432" d="M280.793 325a3 3 0 0 1-3-3V135a10 10 0 0 1 10-10h97.361a10 10 0 0 1 10 10v187" style="stroke:#222;stroke-linecap:round;stroke-linejoin:round;stroke-width:3px;fill:#fff"/>
                <path data-name="선 327" transform="translate(277.793 297.47)" style="stroke:#222;stroke-linecap:round;stroke-linejoin:round;stroke-width:3px;fill:#fff" d="M0 0h117.36"/>
                <path data-name="패스 1433" d="M280.793 325a3 3 0 0 1-3-3V135a10 10 0 0 1 10-10h97.361a10 10 0 0 1 10 10v190" style="fill:#afdae9;stroke:#222;stroke-linecap:round;stroke-linejoin:round;stroke-width:3px"/>
                <path data-name="패스 1434" d="M277.793 152.53v144.94h117.36V152.53" style="stroke:#222;stroke-linecap:round;stroke-linejoin:round;stroke-width:3px;fill:#fff"/>
                <rect data-name="사각형 332" width="100" height="120" rx="10" transform="translate(286.399 164.5)" style="fill:#e9f6fd"/>
                <path data-name="선 328" transform="translate(277.793 153.349)" style="stroke:#222;stroke-linecap:round;stroke-linejoin:round;stroke-width:3px;fill:#fff" d="M117 0H0"/>
                <rect data-name="사각형 333" width="24" height="6" rx="3" transform="translate(323.601 136)" style="stroke:#222;stroke-linecap:round;stroke-linejoin:round;stroke-width:3px;fill:#fff"/>
                <g data-name="그룹 632363">
                    <path data-name="패스 15854" d="M-33.95-9h4.172v-1.5h-6.006v8.638h1.092a32.1 32.1 0 0 0 5.95-.42l-.182-1.526a32.051 32.051 0 0 1-5.026.408zm9.632 2.072h-1.876v-4.76h-1.848v12.92h1.848V-5.4h1.876zm9.044-4.774V1.232h1.848V-11.7zm-5.082.91c-1.946 0-3.388 1.764-3.388 4.592s1.442 4.62 3.388 4.62 3.388-1.778 3.388-4.62-1.442-4.594-3.388-4.594zm0 1.666c.952 0 1.61 1.022 1.61 2.926s-.658 2.94-1.61 2.94-1.61-1.022-1.61-2.94.658-2.928 1.61-2.928zm15.064 5.4h1.722v-7.7h-1.722v2.786H-6.44v1.484h1.148zm-.784-2.128a21.679 21.679 0 0 1-3.556.28V-6.8h2.758v-3.934h-4.55V-9.3h2.758v1.148h-2.744v4.032h.882a24.243 24.243 0 0 0 4.62-.294zM-9.73-1.666h6.944v2.884h1.848v-4.354H-9.73zm7.042-10.024v8.022h1.75v-8.022zm13.37 6.65H3.5v-1.442h6.79V-7.91H3.5v-1.358h7.084v-1.484h-8.96v7.168h9.058zM.252-1.778v1.5h11.676v-1.5zm19.782-8.554H17.15V-11.7h-1.862v1.372h-2.856v1.438h7.588zM14.826-5.95c0-.7.574-1.078 1.4-1.078s1.4.378 1.4 1.078-.588 1.092-1.4 1.092-1.4-.378-1.4-1.092zm4.564 0c0-1.456-1.316-2.478-3.164-2.478s-3.164 1.022-3.164 2.478c0 1.484 1.316 2.492 3.164 2.492S19.39-4.466 19.39-5.95zm-3.276 3.192h-1.848V.98h8.778V-.49h-6.93zm6.468-5v-3.932h-1.848v9.646h1.848V-6.23h1.708v-1.526zm8.778 5.994v-2.688h3.682v-1.484h-7.21v-3.388h7.112v-1.484H25.97v6.356h3.542v2.688h-4.9v1.512h11.676v-1.512z" transform="translate(336.399 200.5)" style="fill:#222"/>
                    <path data-name="패스 15856" d="M-29.44-11.856v1.712h4.816c-.384 3.264-2.208 5.6-5.632 7.36l1.184 1.616A11.072 11.072 0 0 0-22.5-11.856zm12.928 4.112h-2.064v-5.632h-2.112v14.72h2.112V-6h2.064zM-6.08-13.36v7.92h2.128v-7.92zm-7.664 8.56v6h9.792v-6h-2.1v1.376h-5.6V-4.8zm2.1 2.992h5.6V-.48h-5.6zm-.32-10.944c-2.288 0-4.016 1.456-4.016 3.472 0 2.032 1.728 3.488 4.016 3.488s4-1.456 4-3.488c-.004-2.02-1.716-3.472-4.004-3.472zm0 1.744a1.741 1.741 0 0 1 1.932 1.728 1.735 1.735 0 0 1-1.936 1.744A1.749 1.749 0 0 1-13.92-9.28a1.755 1.755 0 0 1 1.952-1.728zm10.364-.848v1.712h4.816c-.384 3.264-2.208 5.6-5.632 7.36l1.184 1.616a11.072 11.072 0 0 0 6.576-10.688zm12.928 4.112H9.264v-5.632H7.152v14.72h2.112V-6h2.064zM23.5-9.7h-8.06v-3.4h-2.112v5.088H23.5zM18.272-.272c-1.972 0-2.972-.352-2.972-1.12s1.008-1.12 2.976-1.12 2.976.352 2.976 1.12-1.012 1.12-2.98 1.12zm0-3.856c-3.184 0-5.1 1.008-5.1 2.736s1.92 2.736 5.1 2.736 5.12-1.008 5.12-2.736-1.936-2.736-5.12-2.736zm-6.608-2.64v1.68h13.328v-1.68zm15.408 2.736h1.536l.336-5.9.08-2.224h-2.368l.08 2.224zM27.84.224a1.483 1.483 0 0 0 1.472-1.536 1.474 1.474 0 0 0-1.472-1.536 1.461 1.461 0 0 0-1.456 1.536A1.47 1.47 0 0 0 27.84.224z" transform="translate(336.399 260.5)" style="fill:#222"/>
                    <path data-name="패스 15866" d="M-15.54 0h10.68v-2.856H-8.2v-14.928h-2.616a11.08 11.08 0 0 1-4.128 1.512v2.184h3.216v11.232h-3.812zM-.108-3.456h11.88v5.544h3.168v-8.04H-.108zm2.664-7.176a2.632 2.632 0 0 1-2.784-2.784 2.613 2.613 0 0 1 2.784-2.76 2.638 2.638 0 0 1 2.832 2.76 2.657 2.657 0 0 1-2.832 2.784zm9.216-9.408v5.352h-3.5a5.673 5.673 0 0 0-5.712-4.2 5.522 5.522 0 0 0-5.808 5.472 5.526 5.526 0 0 0 5.808 5.5 5.642 5.642 0 0 0 5.712-4.224h3.5v5.208h3.168v-13.1z" transform="translate(334.399 233.5)" style="fill:#0d7498"/>
                </g>
            </g>
        </g>
        <g data-name="그룹 830" transform="translate(-42.399 -98.5)">
            <circle data-name="타원 69" cx="50" cy="50" r="50" transform="rotate(-77.278 264.976 25.947)" style="stroke:#222;stroke-linecap:round;stroke-linejoin:round;stroke-width:3px;fill:#fff"/>
            <circle data-name="타원 70" cx="38.24" cy="38.24" r="38.24" transform="translate(203.458 202.569)" style="fill:#fcf28d"/>
            <g data-name="그룹 829">
                <path data-name="패스 1435" d="m223.377 232.835 7.469 20.014a1.739 1.739 0 0 0 3.318-.147l5.41-19.4a1.739 1.739 0 0 1 3.356-.031l5.767 19.309a1.739 1.739 0 0 0 3.331.054l6.595-19.795" style="fill:none;stroke:#222;stroke-linecap:round;stroke-linejoin:round;stroke-width:3px"/>
                <path data-name="선 329" transform="translate(220 242.066)" style="fill:none;stroke:#222;stroke-linecap:round;stroke-linejoin:round;stroke-width:3px" d="M0 0h42"/>
            </g>
        </g>
        <g data-name="그룹 836">
            <g data-name="그룹 831">
                <path data-name="패스 1436" d="M151 275v-15h84.283v15" style="stroke:#222;stroke-linecap:round;stroke-linejoin:round;stroke-width:3px;fill:#fff" transform="translate(-42.399 -98.5)"/>
                <path data-name="선 330" transform="translate(125.601 161.5)" style="fill:none;stroke:#222;stroke-linecap:round;stroke-linejoin:round;stroke-width:3px" d="M0 0v8"/>
            </g>
            <g data-name="그룹 832">
                <path data-name="패스 1437" d="M207.566 307.061h69.841V325L319 291l-41.593-34v17.939H175" style="fill:#f2ac58;stroke:#222;stroke-linecap:round;stroke-linejoin:round;stroke-width:3px" transform="translate(-42.399 -98.5)"/>
            </g>
            <g data-name="그룹 833">
                <path data-name="패스 1438" d="M152.761 291H138v-16h84.283v16" style="stroke:#222;stroke-linecap:round;stroke-linejoin:round;stroke-width:3px;fill:#fff" transform="translate(-42.399 -98.5)"/>
                <path data-name="선 331" transform="translate(108.601 176.5)" style="fill:none;stroke:#222;stroke-linecap:round;stroke-linejoin:round;stroke-width:3px" d="M0 0v8"/>
            </g>
            <g data-name="그룹 834">
                <path data-name="패스 1439" d="M163.043 306.987h-9.415v-15.795h84.283v15.794" style="stroke:#222;stroke-linecap:round;stroke-linejoin:round;stroke-width:3px;fill:#fff" transform="translate(-42.399 -98.5)"/>
                <path data-name="선 332" transform="translate(128.141 192.883)" style="fill:none;stroke:#222;stroke-linecap:round;stroke-linejoin:round;stroke-width:3px" d="M0 0v8.05"/>
            </g>
            <g data-name="그룹 835">
                <path data-name="패스 1440" d="M164 323v-16h84v16" style="stroke:#222;stroke-linecap:round;stroke-linejoin:round;stroke-width:3px;fill:#fff" transform="translate(-42.399 -98.5)"/>
                <path data-name="선 333" transform="translate(137.959 208.677)" style="fill:none;stroke:#222;stroke-linecap:round;stroke-linejoin:round;stroke-width:3px" d="M0 0v8.05"/>
            </g>
        </g>
    </g>
    <path data-name="패스 1441" d="M84.4 325h360" style="fill:none;stroke:#222;stroke-linecap:round;stroke-linejoin:round;stroke-width:3px" transform="translate(-42.399 -98.5)"/>
    <g transform="translate(-458 -1604)">
        <circle data-name="Ellipse 1" cx="67.5" cy="67.5" r="67.5" transform="translate(472 1606.5)" style="fill:#4278d9"/>
        <path data-name="패스 15865" d="M-34.419-6.594a7.245 7.245 0 0 0 4.7-3.906 7.225 7.225 0 0 0 4.7 3.717l.966-1.68c-2.793-.756-4.473-2.646-4.6-4.788h4.137v-1.743h-4.137v-2.184h-2.163v2.184h-4.116v1.743h4.1c-.1 2.226-1.764 4.2-4.578 4.977zm5.775-.609h-2.163v3.255c-1.827.063-3.612.063-5.1.063l.273 1.785a62.619 62.619 0 0 0 12.075-.861l-.168-1.575a46.359 46.359 0 0 1-4.914.483zm6.069-10.164V1.659h2.184v-19.026zm7.6 4.032h4.893V-15.1h-7.014v12.2h1.26a34.209 34.209 0 0 0 6.909-.525l-.189-1.785a29.1 29.1 0 0 1-5.859.525zm11.361-4.032v7.5h-2.245v-7.1H-7.9V.672h2.037v-8.778h2.247V1.6h2.058v-18.967zm15.374 2.184H7.245v-2.163H5.082v2.163H.567v1.722H11.76zM3.633-8.988c0-1.2 1.029-1.911 2.52-1.911 1.512 0 2.541.714 2.541 1.911S7.665-7.077 6.153-7.077c-1.491 0-2.52-.714-2.52-1.911zm7.119 0c0-2.142-1.869-3.591-4.6-3.591-2.709 0-4.6 1.449-4.6 3.591 0 2.163 1.89 3.591 4.6 3.591 2.731-.003 4.6-1.428 4.6-3.591zM5.523-4.221H3.339V1.26h12.768V-.5H5.523zm9.828-7.079v-6.048h-2.163v14.219h2.163v-6.384h2.688V-11.3zm13.1 8.862v-4.471h5.607v-1.743H23.079v-5.523h10.815v-1.743H20.916v9.009h5.376v4.473h-7.476v1.785h17.178v-1.785z" transform="translate(540 1662.3)" style="fill:#fff"/>
        <path data-name="패스 15864" d="M-17.948 0H-35v-3.384l8.049-8.579a19.858 19.858 0 0 0 2.451-3.162 5.079 5.079 0 0 0 .795-2.563 3.8 3.8 0 0 0-.837-2.606 3.023 3.023 0 0 0-2.393-.948 3.26 3.26 0 0 0-2.64 1.154 4.569 4.569 0 0 0-.966 3.033H-35.5a8.157 8.157 0 0 1 1.085-4.153 7.649 7.649 0 0 1 3.068-2.948 9.324 9.324 0 0 1 4.495-1.068 8.828 8.828 0 0 1 5.973 1.846 6.53 6.53 0 0 1 2.128 5.212 8.366 8.366 0 0 1-.957 3.76 20.894 20.894 0 0 1-3.281 4.46l-5.657 5.964h10.7zM.075-10.288q0 5.161-2.136 7.9A7.457 7.457 0 0 1-8.316.342a7.509 7.509 0 0 1-6.221-2.683q-2.153-2.683-2.2-7.69v-4.58q0-5.212 2.162-7.913a7.512 7.512 0 0 1 6.229-2.7A7.519 7.519 0 0 1-2.13-22.55q2.153 2.675 2.2 7.682zm-4.939-5.024a9.1 9.1 0 0 0-.846-4.5 2.859 2.859 0 0 0-2.64-1.41 2.809 2.809 0 0 0-2.572 1.342 8.512 8.512 0 0 0-.88 4.2v6.05a9.547 9.547 0 0 0 .829 4.52 2.822 2.822 0 0 0 2.657 1.47A2.774 2.774 0 0 0-5.7-5.059 9.319 9.319 0 0 0-4.864-9.4zM5.917-4.608h15.84v7.392h4.224v-10.72H5.917zm3.552-9.568a3.509 3.509 0 0 1-3.712-3.712 3.484 3.484 0 0 1 3.712-3.68 3.518 3.518 0 0 1 3.776 3.68 3.543 3.543 0 0 1-3.776 3.712zM21.757-26.72v7.136h-4.672a7.564 7.564 0 0 0-7.616-5.6c-4.352 0-7.744 3.072-7.744 7.3 0 4.256 3.392 7.328 7.744 7.328a7.522 7.522 0 0 0 7.616-5.632h4.672v6.944h4.224V-26.72z" transform="translate(540 1703.7)" style="fill:#fff"/>
    </g>
</svg>
