<svg xmlns="http://www.w3.org/2000/svg" width="444" height="229" viewBox="0 0 444 229">
  <defs>
    <style>
      .cls-1 {
        fill: rgba(255,191,191,0.5);
        opacity: 0;
      }

      .cls-2 {
        fill: #dcf5fb;
      }

      .cls-3 {
        fill: #e3e6fb;
      }

      .cls-4 {
        fill: #e9f6fd;
      }

      .cls-5 {
        fill: #e4e4e4;
      }

      .cls-10, .cls-11, .cls-13, .cls-14, .cls-5, .cls-6, .cls-7, .cls-8 {
        stroke: #222;
      }

      .cls-10, .cls-11, .cls-14, .cls-5, .cls-6 {
        stroke-linecap: round;
        stroke-linejoin: round;
      }

      .cls-5, .cls-6 {
        stroke-width: 3.002px;
      }

      .cls-11, .cls-13, .cls-6 {
        fill: #fff;
      }

      .cls-14, .cls-7 {
        fill: #f2ac58;
      }

      .cls-7, .cls-8 {
        stroke-miterlimit: 10;
      }

      .cls-10, .cls-11, .cls-13, .cls-14, .cls-7, .cls-8 {
        stroke-width: 3px;
      }

      .cls-8 {
        fill: #9df4ef;
      }

      .cls-9 {
        fill: #222;
      }

      .cls-10, .cls-17 {
        fill: none;
      }

      .cls-12 {
        fill: #fcf28d;
      }

      .cls-15, .cls-16 {
        stroke: none;
      }

      .cls-16 {
        fill: #222;
      }
    </style>
  </defs>
  <g id="SWKDIFDT4100_1" transform="translate(39 33.282)">
    <g id="deco">
      <rect id="BG" class="cls-1" width="444" height="229" transform="translate(-39 -33.282)"/>
      <circle id="Ellipse_2" data-name="Ellipse 2" class="cls-2" cx="53.5" cy="53.5" r="53.5" transform="translate(29.967 29.968)"/>
      <circle id="Ellipse_2-2" data-name="Ellipse 2" class="cls-3" cx="19.75" cy="19.75" r="19.75" transform="translate(-9.533 -9.532)"/>
      <circle id="타원_561" data-name="타원 561" class="cls-2" cx="16" cy="16" r="16" transform="translate(301 -33.282)"/>
    </g>
    <g id="img" transform="translate(7.167 -51.383)">
      <g id="그룹_631445" data-name="그룹 631445">
        <g id="다각형_9" data-name="다각형 9" class="cls-4" transform="translate(91.214 70.674)">
          <path class="cls-15" d="M 162.9225463867188 91.10492706298828 L 19.07745742797852 91.10492706298828 C 17.70886993408203 91.10492706298828 16.42171669006348 90.70973205566406 15.35515213012695 89.9620361328125 C 14.35480403900146 89.26077270507812 13.56917381286621 88.27753448486328 13.08317375183105 87.11857604980469 C 12.5971736907959 85.95964050292969 12.4465217590332 84.71012115478516 12.6474781036377 83.50511932373047 C 12.86173915863037 82.22032165527344 13.48202133178711 81.02525329589844 14.44126129150391 80.04910278320312 L 86.36380767822266 6.858078956604004 C 87.59577941894531 5.604361534118652 89.24227905273438 4.913926601409912 91 4.913926601409912 C 92.75772094726562 4.913926601409912 94.40422058105469 5.604361534118652 95.63619232177734 6.858078956604004 L 167.5587463378906 80.04910278320312 C 168.5179748535156 81.02525329589844 169.1382598876953 82.22032165527344 169.3525390625 83.50510406494141 C 169.5534973144531 84.71012115478516 169.4028472900391 85.95962524414062 168.9168548583984 87.11857604980469 C 168.4308471679688 88.27751159667969 167.6452178955078 89.26077270507812 166.6448669433594 89.9620361328125 C 165.5783081054688 90.70973205566406 164.2911376953125 91.10492706298828 162.9225463867188 91.10492706298828 Z"/>
          <path class="cls-16" d="M 90.99997711181641 6.413909912109375 C 89.64788055419922 6.413909912109375 88.38135528564453 6.945030212402344 87.43369293212891 7.909408569335938 L 15.51113891601562 81.10043334960938 C 14.75836181640625 81.86650085449219 14.29266357421875 82.75857543945312 14.12702941894531 83.75186157226562 C 13.97267150878906 84.67733764648438 14.09004211425781 85.64093017578125 14.46644592285156 86.53852844238281 C 14.84283447265625 87.43609619140625 15.4478759765625 88.19522094726562 16.21614074707031 88.73378753662109 C 17.04074096679688 89.31183624267578 18.00343322753906 89.60493469238281 19.07745361328125 89.60493469238281 L 162.9225463867188 89.60493469238281 C 163.9965667724609 89.60493469238281 164.9592437744141 89.31183624267578 165.7838287353516 88.73378753662109 C 166.5520935058594 88.19522094726562 167.1571350097656 87.43611907958984 167.5335235595703 86.53852844238281 C 167.9099273681641 85.64095306396484 168.0273132324219 84.67733764648438 167.8729553222656 83.75186157226562 C 167.7073059082031 82.75857543945312 167.2416229248047 81.86650085449219 166.4888305664062 81.10043334960938 L 94.5662841796875 7.909408569335938 C 93.61862182617188 6.945030212402344 92.35207366943359 6.413909912109375 90.99997711181641 6.413909912109375 M 90.99998474121094 3.413917541503906 C 93.06925201416016 3.413917541503906 95.13851165771484 4.211517333984375 96.70606994628906 5.806716918945312 L 168.6286163330078 78.99774169921875 C 173.6004943847656 84.05731201171875 170.01611328125 92.60493469238281 162.9225463867188 92.60493469238281 L 19.07745361328125 92.60493469238281 C 11.98385620117188 92.60493469238281 8.39947509765625 84.05731201171875 13.37135314941406 78.99774169921875 L 85.29390716552734 5.806716918945312 C 86.86146545410156 4.211517333984375 88.93072509765625 3.413917541503906 90.99998474121094 3.413917541503906 Z"/>
        </g>
        <g id="고지서" transform="translate(112.79 52.817)">
          <path id="패스_4620" data-name="패스 4620" class="cls-5" d="M947.254,1352.5v34.631h-26.69V1352.5c0-6.147,5.975-11.132,13.344-11.132S947.254,1346.351,947.254,1352.5Z" transform="translate(-781.044 -1334.366)"/>
          <path id="패스_4621" data-name="패스 4621" class="cls-6" d="M785.795,1511.631V1354.02c0-7.535,7.045-13.349,14.827-12.464v-.084H938.334c-7.37,0-13.345,5.621-13.345,12.553v157.605" transform="translate(-786.085 -1334.362)"/>
          <g id="그룹_631444" data-name="그룹 631444" transform="translate(1)">
            <g id="그룹_631408" data-name="그룹 631408" transform="translate(26.21 107.642) rotate(-90)">
              <g id="사각형_461816" data-name="사각형 461816" class="cls-7" transform="translate(25.316 22.851) rotate(90)">
                <rect class="cls-15" width="16" height="75"/>
                <rect class="cls-17" x="1.5" y="1.5" width="13" height="72"/>
              </g>
              <g id="사각형_461817" data-name="사각형 461817" class="cls-7" transform="translate(13.316) rotate(90)">
                <rect class="cls-15" width="16" height="63"/>
                <rect class="cls-17" x="1.5" y="1.5" width="13" height="60"/>
              </g>
              <g id="사각형_461818" data-name="사각형 461818" class="cls-8" transform="translate(35.316 45.702) rotate(90)">
                <rect class="cls-15" width="16" height="85"/>
                <rect class="cls-17" x="1.5" y="1.5" width="13" height="82"/>
              </g>
              <g id="사각형_463038" data-name="사각형 463038" class="cls-7" transform="translate(17.316 68.554) rotate(90)">
                <rect class="cls-15" width="16" height="67"/>
                <rect class="cls-17" x="1.5" y="1.5" width="13" height="64"/>
              </g>
            </g>
            <g id="그룹_624" data-name="그룹 624" transform="translate(-160.442 -81.775)">
              <path id="패스_1087" data-name="패스 1087" class="cls-9" d="M207.48,117.464h-4.45a2.739,2.739,0,0,1-1.7-.511,1.827,1.827,0,0,1-.678-1.562,1.8,1.8,0,0,1,.678-1.535,2.745,2.745,0,0,1,1.7-.511h13.491a2.762,2.762,0,0,1,1.686.511,1.79,1.79,0,0,1,.691,1.535,1.817,1.817,0,0,1-.691,1.562,2.756,2.756,0,0,1-1.686.511h-4.479v14.21a2.34,2.34,0,0,1-.608,1.687,2.187,2.187,0,0,1-1.659.636,2.232,2.232,0,0,1-1.672-.636,2.308,2.308,0,0,1-.623-1.687Z"/>
              <path id="패스_1088" data-name="패스 1088" class="cls-9" d="M227.551,113.179a2.972,2.972,0,0,1,1.742.484,3.017,3.017,0,0,1,1.05,1.341l6.636,16.09a1.968,1.968,0,0,1,0,1.7,2.137,2.137,0,0,1-1.355,1.092,2.082,2.082,0,0,1-1.728-.138,2.693,2.693,0,0,1-1.175-1.41l-1.244-3.262H223.6l-1.217,3.262a2.691,2.691,0,0,1-1.174,1.41,2.141,2.141,0,0,1-1.756.138,2.085,2.085,0,0,1-1.341-1.092,2,2,0,0,1,.014-1.7L224.759,115a3.019,3.019,0,0,1,1.051-1.341A2.966,2.966,0,0,1,227.551,113.179Zm-2.488,12.026h4.977l-2.434-6.441h-.11Z"/>
              <path id="패스_1089" data-name="패스 1089" class="cls-9" d="M247.981,127l-4.727,6.165a2.105,2.105,0,0,1-.719.595,2.4,2.4,0,0,1-.87.248,2.48,2.48,0,0,1-.9-.082,1.88,1.88,0,0,1-.774-.429,2.107,2.107,0,0,1-.733-1.4,2.155,2.155,0,0,1,.512-1.617l5.446-7.133-5.059-6.635a2.209,2.209,0,0,1-.484-1.617,2.152,2.152,0,0,1,.705-1.4,2.11,2.11,0,0,1,.8-.429,2.475,2.475,0,0,1,.9-.083,2.311,2.311,0,0,1,.857.249,2.145,2.145,0,0,1,.705.6l4.34,5.694,4.341-5.694a2.109,2.109,0,0,1,.691-.581,2.284,2.284,0,0,1,.871-.263,2.477,2.477,0,0,1,.9.083,1.89,1.89,0,0,1,.775.429,2.062,2.062,0,0,1,.718,1.4,2.344,2.344,0,0,1-.469,1.622l-5.06,6.654,5.446,7.085a2.259,2.259,0,0,1,.5,1.613,2.041,2.041,0,0,1-.719,1.392,1.886,1.886,0,0,1-.774.429,2.477,2.477,0,0,1-.9.083,2.552,2.552,0,0,1-.885-.249,1.835,1.835,0,0,1-.705-.593Z"/>
            </g>
          </g>
        </g>
        <g id="편지봉투" transform="translate(-20 -142.011)">
          <g id="다각형_6" data-name="다각형 6" class="cls-4" transform="translate(210 389) rotate(-90)">
            <path class="cls-15" d="M 88.35395812988281 70.5 L 86.85395812988281 70.5 L 15.64604949951172 70.5 C 13.15584945678711 70.5 10.992356300354 69.17632293701172 9.858689308166504 66.95913696289062 C 8.72502326965332 64.74197387695312 8.918649673461914 62.21306991577148 10.37662315368652 60.19432067871094 L 46.73058319091797 9.858068466186523 C 47.96722412109375 8.145801544189453 49.88784790039062 7.163761615753174 51.99999618530273 7.163761615753174 C 54.11214447021484 7.163761615753174 56.03276824951172 8.145801544189453 57.26942443847656 9.858068466186523 L 93.62338256835938 60.19432067871094 C 95.08120727539062 62.21285629272461 95.27470397949219 64.74168395996094 94.14099884033203 66.95894622802734 C 93.00726318359375 69.17623901367188 90.84388732910156 70.5 88.35396575927734 70.5 L 88.35395812988281 70.5 Z"/>
            <path class="cls-16" d="M 51.99999618530273 8.663742065429688 C 50.37526702880859 8.663742065429688 48.89786911010742 9.419158935546875 47.94660949707031 10.73630523681641 L 11.5926513671875 61.07254409790039 C 10.47112274169922 62.62543106079102 10.32218170166016 64.57075500488281 11.19422149658203 66.27627563476562 C 12.0662841796875 67.98178863525391 13.73050689697266 69 15.64604187011719 69 L 88.35395050048828 69 C 90.26948547363281 69 91.93370819091797 67.98178863525391 92.80577087402344 66.27627563476562 C 93.67782592773438 64.57075500488281 93.52888488769531 62.62543106079102 92.40735626220703 61.07254409790039 L 56.05338287353516 10.73630523681641 C 55.10212326049805 9.419158935546875 53.62472534179688 8.663742065429688 51.99999618530273 8.663742065429688 M 51.99999618530273 5.663749694824219 C 54.44439697265625 5.663749694824219 56.88879776000977 6.769111633300781 58.48542404174805 8.979827880859375 L 94.83939361572266 59.31607055664062 C 98.66038513183594 64.60670471191406 94.88011169433594 72 88.35395050048828 72 L 15.64604187011719 72 C 9.119880676269531 72 5.339607238769531 64.60670471191406 9.160614013671875 59.31607055664062 L 45.51456832885742 8.979827880859375 C 47.1111946105957 6.769111633300781 49.55559539794922 5.663749694824219 51.99999618530273 5.663749694824219 Z"/>
          </g>
          <g id="다각형_7" data-name="다각형 7" class="cls-4" transform="translate(194 285) rotate(90)">
            <path class="cls-15" d="M 88.35395812988281 70.5 L 86.85395812988281 70.5 L 15.64604949951172 70.5 C 13.15584945678711 70.5 10.992356300354 69.17632293701172 9.858689308166504 66.95913696289062 C 8.72502326965332 64.74197387695312 8.918649673461914 62.21306991577148 10.37662315368652 60.19432067871094 L 46.73058319091797 9.858068466186523 C 47.96722412109375 8.145801544189453 49.88784790039062 7.163761615753174 51.99999618530273 7.163761615753174 C 54.11214447021484 7.163761615753174 56.03276824951172 8.145801544189453 57.26942443847656 9.858068466186523 L 93.62338256835938 60.19432067871094 C 95.08120727539062 62.21285629272461 95.27470397949219 64.74168395996094 94.14099884033203 66.95894622802734 C 93.00726318359375 69.17623901367188 90.84388732910156 70.5 88.35396575927734 70.5 L 88.35395812988281 70.5 Z"/>
            <path class="cls-16" d="M 51.99999618530273 8.663742065429688 C 50.37526702880859 8.663742065429688 48.89786911010742 9.419158935546875 47.94660949707031 10.73630523681641 L 11.5926513671875 61.07254409790039 C 10.47112274169922 62.62543106079102 10.32218170166016 64.57075500488281 11.19422149658203 66.27627563476562 C 12.0662841796875 67.98178863525391 13.73050689697266 69 15.64604187011719 69 L 88.35395050048828 69 C 90.26948547363281 69 91.93370819091797 67.98178863525391 92.80577087402344 66.27627563476562 C 93.67782592773438 64.57075500488281 93.52888488769531 62.62543106079102 92.40735626220703 61.07254409790039 L 56.05338287353516 10.73630523681641 C 55.10212326049805 9.419158935546875 53.62472534179688 8.663742065429688 51.99999618530273 8.663742065429688 M 51.99999618530273 5.663749694824219 C 54.44439697265625 5.663749694824219 56.88879776000977 6.769111633300781 58.48542404174805 8.979827880859375 L 94.83939361572266 59.31607055664062 C 98.66038513183594 64.60670471191406 94.88011169433594 72 88.35395050048828 72 L 15.64604187011719 72 C 9.119880676269531 72 5.339607238769531 64.60670471191406 9.160614013671875 59.31607055664062 L 45.51456832885742 8.979827880859375 C 47.1111946105957 6.769111633300781 49.55559539794922 5.663749694824219 51.99999618530273 5.663749694824219 Z"/>
          </g>
          <g id="다각형_5" data-name="다각형 5" class="cls-4" transform="translate(105 318)">
            <path class="cls-15" d="M 167.3486328125 62.5000114440918 L 26.65139198303223 62.5000114440918 C 25.12663078308105 62.5000114440918 23.73156547546387 62.03203201293945 22.61700057983398 61.14666366577148 C 21.59473991394043 60.33459854125977 20.81654357910156 59.17048645019531 20.42580413818359 57.86874771118164 C 20.03506469726562 56.56700897216797 20.04350090026855 55.16677093505859 20.44956588745117 53.92598724365234 C 20.89228248596191 52.57316207885742 21.79899978637695 51.41422653198242 23.07169532775879 50.57453155517578 L 93.42030334472656 4.158944606781006 C 94.4857177734375 3.455966472625732 95.72356414794922 3.084401369094849 97 3.084401369094849 C 98.27643585205078 3.084401369094849 99.51425933837891 3.455966472625732 100.5796737670898 4.158923149108887 L 170.9282989501953 50.57453155517578 C 172.2010040283203 51.41422653198242 173.1077117919922 52.57316207885742 173.5504608154297 53.92598724365234 C 173.9565277099609 55.16679382324219 173.9649505615234 56.56703186035156 173.5741882324219 57.86874771118164 C 173.1834564208984 59.17048645019531 172.4052886962891 60.33459854125977 171.3830261230469 61.14666366577148 C 170.2684631347656 62.03203201293945 168.8733673095703 62.5000114440918 167.3486328125 62.5000114440918 Z"/>
            <path class="cls-16" d="M 96.99997711181641 4.584407806396484 C 96.01811218261719 4.584407806396484 95.06593322753906 4.870223999023438 94.24636077880859 5.410972595214844 L 23.89776611328125 51.82656478881836 C 21.60870361328125 53.33686065673828 21.34550476074219 55.71527099609375 21.86247253417969 57.43747329711914 C 22.37942504882812 59.15970230102539 23.90895080566406 60.99999618530273 26.65138244628906 60.99999618530273 L 167.3486328125 60.99999618530273 C 170.0910491943359 60.99999618530273 171.6205749511719 59.15972518920898 172.1375274658203 57.43749618530273 C 172.6544799804688 55.71527099609375 172.3912963867188 53.33686065673828 170.1022338867188 51.82656478881836 L 99.75361633300781 5.410972595214844 C 98.93404388427734 4.870223999023438 97.98184204101562 4.584407806396484 96.99997711181641 4.584407806396484 M 96.99999237060547 1.584419250488281 C 98.53474426269531 1.584419250488281 100.0695037841797 2.025245666503906 101.4057693481445 2.906906127929688 L 171.75439453125 49.3224983215332 C 178.3776550292969 53.69247436523438 175.2836303710938 63.99999618530273 167.3486328125 63.99999618530273 L 26.65138244628906 63.99999618530273 C 18.71636962890625 63.99999618530273 15.622314453125 53.69247436523438 22.24562072753906 49.3224983215332 L 92.59420776367188 2.906906127929688 C 93.93048095703125 2.025245666503906 95.46523284912109 1.584419250488281 96.99999237060547 1.584419250488281 Z"/>
          </g>
        </g>
      </g>
      <line id="선_223" data-name="선 223" class="cls-10" x2="360" transform="translate(-4.167 238.789)"/>
      <g id="동전탑" transform="translate(163.899 4.808)">
        <g id="그룹_618" data-name="그룹 618">
          <circle id="타원_48" data-name="타원 48" class="cls-11" cx="27.458" cy="27.458" r="27.458" transform="translate(103.433 208.985) rotate(-77.278)"/>
          <circle id="타원_49" data-name="타원 49" class="cls-12" cx="21" cy="21" r="21" transform="translate(115.594 167.175)"/>
          <g id="그룹_617" data-name="그룹 617">
            <path id="패스_1085" data-name="패스 1085" class="cls-10" d="M126.524,183.675l4.267,11.19a1,1,0,0,0,1.9-.082l3.092-10.849a1,1,0,0,1,1.918-.018l3.295,10.8a1,1,0,0,0,1.9.031l3.769-11.068"/>
            <line id="선_220" data-name="선 220" class="cls-10" x2="24" transform="translate(124.594 188.836)"/>
          </g>
        </g>
        <g id="그룹_619" data-name="그룹 619">
          <path id="패스_1086" data-name="패스 1086" class="cls-11" d="M108.805,238.588V227.147h54.916v11.441"/>
          <line id="선_221" data-name="선 221" class="cls-10" y2="5.72" transform="translate(121.39 227.147)"/>
          <rect id="사각형_463063" data-name="사각형 463063" class="cls-9" width="57.49" height="3" rx="1.5" transform="translate(107.54 237.287)"/>
        </g>
        <g id="그룹_620" data-name="그룹 620">
          <rect id="사각형_196" data-name="사각형 196" class="cls-11" width="54.916" height="11.441" transform="translate(108.805 215.706)"/>
          <line id="선_222" data-name="선 222" class="cls-10" y2="5.72" transform="translate(121.39 215.706)"/>
        </g>
      </g>
      <g id="계산기" transform="translate(-294.441 5.199)">
        <g id="사각형_463062" data-name="사각형 463062" class="cls-13" transform="translate(313.274 140.015)">
          <rect class="cls-15" width="76" height="99.75" rx="4"/>
          <rect class="cls-17" x="1.5" y="1.5" width="73" height="96.75" rx="2.5"/>
        </g>
        <rect id="사각형_195" data-name="사각형 195" class="cls-14" width="46.972" height="19.778" transform="translate(327.872 154.837)"/>
        <g id="그룹_612" data-name="그룹 612">
          <line id="선_212" data-name="선 212" class="cls-11" x2="14.833" transform="translate(328.026 193.466)"/>
          <line id="선_213" data-name="선 213" class="cls-11" y1="14.833" transform="translate(335.443 186.049)"/>
        </g>
        <g id="그룹_613" data-name="그룹 613">
          <line id="선_214" data-name="선 214" class="cls-11" x2="14.833" transform="translate(360.165 193.466)"/>
        </g>
        <g id="그룹_614" data-name="그룹 614">
          <line id="선_215" data-name="선 215" class="cls-11" x2="10.489" y2="10.489" transform="translate(330.044 213.252)"/>
          <line id="선_216" data-name="선 216" class="cls-11" y1="10.489" x2="10.489" transform="translate(330.044 213.252)"/>
        </g>
        <g id="그룹_615" data-name="그룹 615">
          <line id="선_217" data-name="선 217" class="cls-11" x2="14.833" transform="translate(360.011 218.806)"/>
          <line id="선_218" data-name="선 218" class="cls-11" x1="3.09" transform="translate(365.882 213.861)"/>
          <line id="선_219" data-name="선 219" class="cls-11" x1="3.09" transform="translate(365.882 223.75)"/>
        </g>
      </g>
    </g>
  </g>
</svg>
