<svg xmlns="http://www.w3.org/2000/svg" width="444" height="265" viewBox="0 0 444 265">
    <defs>
        <clipPath id="iapr7j9hza">
            <path data-name="사각형 464767" transform="translate(6.998 .927)" style="stroke:#707070;fill:#fff" d="M0 0h14v41H0z"/>
        </clipPath>
    </defs>
    <g transform="translate(39 50.281)">
        <circle data-name="Ellipse 2" cx="57.501" cy="57.501" r="57.501" transform="translate(250.248 68.717)" style="fill:#dcf5fb"/>
        <circle data-name="Ellipse 2" cx="20.125" cy="20.125" r="20.125" transform="translate(54 14.719)" style="fill:#fbf0e3"/>
        <circle data-name="Ellipse 2" cx="39.188" cy="39.188" r="39.188" transform="translate(-4.25 25.344)" style="fill:rgba(228,255,225,.7)"/>
        <circle data-name="Ellipse 2" cx="28.75" cy="28.75" r="28.75" transform="translate(207.248 -5.97)" style="fill:#e3e6fb"/>
        <path data-name="선 223" transform="translate(3.5 198.719)" style="stroke-width:3px;stroke-linejoin:round;stroke-linecap:round;stroke:#222;fill:none" d="M0 0h360"/>
    </g>
    <path data-name="패스 582" d="m1633.411 2238.046 34.41-30.046 34.868 30.046" transform="translate(-1445.55 -2207.509)" style="stroke-width:3px;stroke-linejoin:round;stroke-linecap:round;stroke:#222;fill:none"/>
    <path data-name="패스 583" d="M1663.008 2227.245a4.622 4.622 0 1 1 4.623-4.623 4.627 4.627 0 0 1-4.623 4.623z" transform="translate(-1441.663 -2205.953)" style="stroke-miterlimit:10;stroke-width:3px;stroke:#222;fill:#fff"/>
    <g data-name="그룹 634196" transform="translate(-1449.056 -2220.509)">
        <rect data-name="사각형 69" width="97.073" height="55.47" rx="4" transform="translate(1623.597 2250.615)" style="stroke-miterlimit:10;stroke-width:3px;stroke:#222;fill:#fff"/>
        <g data-name="그룹 631381">
            <path data-name="패스 6942" d="M864.676 351.779c4.254 0 6.382 2.557 6.382 5.711a5.253 5.253 0 0 1-3.86 5.245l2.214 3.967a2.142 2.142 0 0 1-1.769 3.217 2.037 2.037 0 0 1-1.794-1.107l-3.028-5.741h-1.014v4.708a2.1 2.1 0 0 1-2.048 2.14h-.134a2.1 2.1 0 0 1-2.047-2.14v-13.861a2.1 2.1 0 0 1 2.047-2.139zm-.248 3.669h-2.621v4.5h2.621a2.25 2.25 0 1 0 0-4.5z" transform="translate(783.933 1917.905)" style="fill:#333"/>
            <path data-name="패스 6943" d="M880.532 355.319h-4.774v3.67h4.032a1.67 1.67 0 0 1 1.633 1.706 1.67 1.67 0 0 1-1.633 1.706h-4.032v3.979h4.774a1.67 1.67 0 0 1 1.633 1.706v.129a1.67 1.67 0 0 1-1.633 1.706h-7.372a1.671 1.671 0 0 1-1.633-1.706v-14.73a1.671 1.671 0 0 1 1.633-1.706h7.371a1.67 1.67 0 0 1 1.633 1.706v.128a1.67 1.67 0 0 1-1.632 1.706z" transform="translate(786.104 1917.905)" style="fill:#333"/>
            <path data-name="패스 6944" d="M898.638 353.989v13.721a2.165 2.165 0 0 1-2.115 2.211h-.977a2.094 2.094 0 0 1-1.765-.993l-6.447-10.2v8.979a2.164 2.164 0 0 1-2.114 2.211 2.165 2.165 0 0 1-2.116-2.211v-13.718a2.164 2.164 0 0 1 2.116-2.21h.974a2.1 2.1 0 0 1 1.768 1l6.447 10.246v-9.031a2.164 2.164 0 0 1 2.114-2.21 2.164 2.164 0 0 1 2.115 2.205z" transform="translate(787.905 1917.905)" style="fill:#333"/>
            <path data-name="패스 6945" d="M900.075 351.779h10.044a1.734 1.734 0 0 1 1.694 1.77 1.733 1.733 0 0 1-1.694 1.769h-2.906v12.832a1.734 1.734 0 0 1-1.694 1.77h-.842a1.734 1.734 0 0 1-1.694-1.77v-12.831h-2.907a1.733 1.733 0 0 1-1.694-1.769 1.734 1.734 0 0 1 1.693-1.771z" transform="translate(790.283 1917.905)" style="fill:#333"/>
        </g>
    </g>
    <g>
        <g data-name="합치기 28" style="fill:#f2ac58">
            <path d="M17.369 44.423a.919.919 0 0 1-.748-.372l-.056-.075-.065-.068L1.65 28.637a.912.912 0 0 1-.047-.92.913.913 0 0 1 .838-.518h10.28v-25.2a.5.5 0 0 1 .5-.499h4.092a.5.5 0 0 1 .5.5v42.313a.945.945 0 0 1-.444.11z" style="stroke:none" transform="matrix(-1.001 0 0 -1 245.643 160.441)"/>
            <path d="M16.312 41.564 16.313 3H14.22v25.699H3.803l12.51 12.865m1.056 4.359a2.422 2.422 0 0 1-1.945-.969L.496 29.601c-1.21-1.605-.066-3.902 1.945-3.902h8.78v-23.7a2 2 0 0 1 2-1.999h4.092a2 2 0 0 1 2 2v42.954a2.42 2.42 0 0 1-1.944.969z" style="fill:#222;stroke:none" transform="matrix(-1.001 0 0 -1 245.643 160.441)"/>
        </g>
        <g data-name="합치기 29" style="fill:#47bcbf">
            <path d="M17.369 44.423a.919.919 0 0 1-.748-.372l-.056-.075-.065-.068-14.85-15.27a.913.913 0 0 1-.047-.92.913.913 0 0 1 .838-.52h10.28V2a.5.5 0 0 1 .5-.5h4.092a.5.5 0 0 1 .5.5v42.313a.945.945 0 0 1-.444.11z" style="stroke:none" transform="matrix(1.001 0 0 1 204.357 114.524)"/>
            <path d="M16.312 41.564 16.313 3H14.22v25.699H3.802l12.51 12.865m1.057 4.359a2.422 2.422 0 0 1-1.945-.969L.496 29.602c-1.21-1.605-.066-3.903 1.945-3.903h8.78v-23.7a2 2 0 0 1 2-1.999h4.092a2 2 0 0 1 2 2v42.954a2.42 2.42 0 0 1-1.944.969z" style="fill:#222;stroke:none" transform="matrix(1.001 0 0 1 204.357 114.524)"/>
        </g>
    </g>
    <g>
        <g data-name="합치기 48" style="fill:#fff">
            <path d="M5339.998-17094.5h-71.999a6.508 6.508 0 0 1-6.5-6.5v-17.002c0-3.584 2.916-6.5 6.5-6.5h4.5v-6.496c0-3.873 1.508-7.516 4.247-10.256a14.4 14.4 0 0 1 10.252-4.248h51.003c4.686 0 8.497 3.813 8.497 8.5v36.002c0 3.584-2.916 6.5-6.5 6.5z" style="stroke:none" transform="translate(-5212.999 17335.888)"/>
            <path d="M5339.998-17096c2.757 0 5-2.242 5-5v-36.002c0-3.86-3.139-7-6.997-7h-51.003a12.916 12.916 0 0 0-9.19 3.809 12.922 12.922 0 0 0-3.81 9.195v7.996H5268c-2.757 0-5 2.242-5 5v17.002c0 2.758 2.243 5 5 5h71.999m0 3h-71.999a8 8 0 0 1-8-8v-17.002a8 8 0 0 1 8-8h3v-4.996c0-8.838 7.165-16.004 15.999-16.004h51.003c5.521 0 9.997 4.48 9.997 10v36.002a8 8 0 0 1-8 8z" style="fill:#222;stroke:none" transform="translate(-5212.999 17335.888)"/>
        </g>
        <g data-name="타원 1434" transform="translate(61.001 231.888)" style="fill:#727272;stroke-width:3px;stroke:#222">
            <circle cx="9" cy="9" r="9" style="stroke:none"/>
            <circle cx="9" cy="9" r="7.5" style="fill:none"/>
        </g>
        <g data-name="사각형 464755" style="stroke-width:3px;stroke:#222;fill:#dcf5fb">
            <path d="M8 0h10v14H0V8a8 8 0 0 1 8-8z" style="stroke:none" transform="translate(58.001 196.888)"/>
            <path d="M8 1.5h8.5v11h-15V8A6.5 6.5 0 0 1 8 1.5z" style="fill:none" transform="translate(58.001 196.888)"/>
        </g>
        <g data-name="사각형 464756" style="fill:#50ccc6;stroke-width:3px;stroke:#222">
            <path style="stroke:none" d="M0 0h20v33H0z" transform="translate(95.001 197.888)"/>
            <path style="fill:none" d="M1.5 1.5h17v30h-17z" transform="translate(95.001 197.888)"/>
        </g>
        <g>
            <g data-name="그룹 634205">
                <g data-name="마스크 그룹 626229" style="clip-path:url(#iapr7j9hza)" transform="rotate(90 -46.982 196.909)">
                    <path data-name="패스 15852" d="M0 33.054 7.693 0" transform="rotate(-2 142.366 -272.164)" style="stroke-width:5px;stroke:#a2a2a2;stroke-linecap:round;fill:none"/>
                    <path data-name="패스 15853" d="M32.034 12.913 0 0" transform="rotate(56 .94 12.081)" style="stroke-width:5px;stroke-linecap:round;fill:none;stroke:#707070"/>
                </g>
            </g>
            <g data-name="패스 15851" style="fill:#f2ac58;stroke-linejoin:round">
                <path d="M-4655.586 19491.838c-3.199 0-6.102-.803-8.397-2.324-2.565-1.698-4.182-4.182-4.678-7.184l-.025-.15.006-.155c.266-6.574.782-8.396 1.28-10.156l.047-.166.47-1.666 1.583.703c.206.092.253.114 1.049.865.033-.544.08-1.125.143-1.718.426-3.989 1.402-6.428 2.982-7.457l1.29-.842.807 1.31.055.094c.42-.984.765-2.166.705-3.316-.079-.608-.103-1.46.446-2.088a1.731 1.731 0 0 1 1.306-.594c.814 0 1.558.516 2.412 1.67.946 1.281 2.072 3.443 2.649 5.75.076-.172.185-.344.338-.502a1.606 1.606 0 0 1 1.158-.488c.975 0 1.551.846 1.741 1.123.686 1.004 1.604 3.15 2.111 5.68.177.88.328 1.933.366 3.064.272-.25.632-.4 1.03-.4.422 0 1.02.164 1.468.947.11.195.225.441.342.736.235.6.462 1.36.637 2.137.379 1.691.705 4.248.11 6.824-.683 2.95-2.448 5.172-5.104 6.426a19.625 19.625 0 0 1-8.327 1.877z" style="stroke:none" transform="translate(4783.277 -19236.894)"/>
                <path d="M-4656.517 19458.494c-.244 0-.358.315-.258 1.04.21 3.364-2.321 6.724-2.321 6.724s-.79-1.889-1.21-2.572c-2.804 1.828-2.519 11.35-2.519 11.35s-3.036-2.903-3.084-2.925c-.5 1.768-1.005 3.37-1.272 9.975 1.315 7.96 11.432 10.22 19.281 6.52 7.459-3.522 3.654-14.217 3.187-14.215-.024 0-.04.029-.044.091-.08 1.245-1.967 2.815-3.143 3.247 2.067-5.278-1.25-12.805-2.06-12.805-.115 0-.18.15-.171.478.059 2.494-1.855 3.694-2.57 3.694a.438.438 0 0 1-.118-.014c1.245-4.053-2.586-10.588-3.698-10.588m0-3c1.733 0 2.894 1.299 3.617 2.277.845 1.143 1.652 2.67 2.247 4.229.224-.05.455-.076.691-.076h.002c1.172 0 2.174.597 2.979 1.775.941 1.38 1.861 3.824 2.344 6.233.09.453.175.949.243 1.476.645.072 1.714.397 2.452 1.686.148.26.29.564.435.93.267.68.511 1.494.705 2.359.413 1.842.768 4.638.108 7.49-.79 3.414-2.839 5.988-5.925 7.445-2.8 1.32-5.901 2.02-8.967 2.02-3.494 0-6.684-.89-9.226-2.572-2.92-1.936-4.763-4.768-5.33-8.192a2.999 2.999 0 0 1-.037-.61c.273-6.751.814-8.66 1.336-10.503l.047-.164a3.006 3.006 0 0 1 1.612-1.902 3.022 3.022 0 0 1 1.653-.26c.52-4.172 1.666-6.711 3.586-7.963a2.99 2.99 0 0 1 2.109-.45c.054-.31.082-.617.071-.913-.079-.62-.19-2.057.81-3.205a3.227 3.227 0 0 1 2.436-1.11h.002z" style="fill:#222;stroke:none" transform="translate(4783.277 -19236.894)"/>
            </g>
        </g>
        <g>
            <g data-name="사각형 464758" transform="translate(196.001 184.888)" style="stroke-width:3px;stroke:#222;fill:#fff">
                <rect width="57" height="65" rx="5" style="stroke:none"/>
                <rect x="1.5" y="1.5" width="54" height="62" rx="3.5" style="fill:none"/>
            </g>
            <path data-name="선 3045" transform="translate(196.501 201.388)" style="stroke-width:3px;stroke:#222;fill:none" d="M0 0h55"/>
            <g data-name="그룹 634191" transform="translate(-53.999 -131.112)">
                <path data-name="선 3046" transform="translate(257.5 325.5)" style="stroke-width:3px;stroke:#222;fill:none" d="M0 0h9"/>
                <circle data-name="타원 1436" cx="2" cy="2" r="2" transform="translate(282 323)" style="fill:#222"/>
                <circle data-name="타원 1437" cx="2" cy="2" r="2" transform="translate(292 323)" style="fill:#222"/>
            </g>
            <g data-name="타원 1438" transform="translate(206.001 206.888)" style="stroke-width:3px;stroke:#222;fill:none">
                <circle cx="19" cy="19" r="19" style="stroke:none"/>
                <circle cx="19" cy="19" r="17.5" style="fill:none"/>
            </g>
            <path data-name="패스 15845" d="M13 0a13.655 13.655 0 0 1 13.247 15.17c.044-.083-5.273 2.051-9.3 1.16-3.957-1.187-5.125-5.174-9.5-5.264-3.847.127-7.34 1.634-7.64 1.219C-.193 5.105 5.834-.178 13 0z" transform="translate(212.001 212.888)" style="fill:#50ccc6"/>
        </g>
        <g>
            <g data-name="그룹 634193">
                <g data-name="사각형 464759" transform="translate(310.001 184.888)" style="stroke-width:3px;stroke:#222;fill:#fff">
                    <rect width="20" height="51" rx="9" style="stroke:none"/>
                    <rect x="1.5" y="1.5" width="17" height="48" rx="7.5" style="fill:none"/>
                </g>
                <g data-name="타원 1439" transform="translate(315.001 191.888)" style="stroke-width:3px;stroke:#707070;fill:#fff">
                    <circle cx="5" cy="5" r="5" style="stroke:none"/>
                    <circle cx="5" cy="5" r="3.5" style="fill:none"/>
                </g>
                <g data-name="타원 1440" transform="translate(315.001 205.888)" style="stroke-width:3px;stroke:#707070;fill:#fff">
                    <circle cx="5" cy="5" r="5" style="stroke:none"/>
                    <circle cx="5" cy="5" r="3.5" style="fill:none"/>
                </g>
                <g data-name="타원 1441" transform="translate(315.001 219.888)" style="stroke-width:3px;stroke:#707070;fill:#fff">
                    <circle cx="5" cy="5" r="5" style="stroke:none"/>
                    <circle cx="5" cy="5" r="3.5" style="fill:none"/>
                </g>
                <path data-name="선 3047" transform="translate(320.001 232.888)" style="stroke-width:3px;stroke:#222;fill:none" d="M0 0v13"/>
                <path data-name="선 3048" transform="rotate(90 40.056 286.945)" style="stroke-width:3px;stroke:#222;fill:none" d="M0 0v14"/>
            </g>
            <g data-name="그룹 634194" transform="translate(-45.999 -131.112)">
                <g data-name="사각형 464760" style="fill:#50ccc6;stroke-width:3px;stroke:#222">
                    <path d="M3 0h24a3 3 0 0 1 3 3v19H0V3a3 3 0 0 1 3-3z" style="stroke:none" transform="translate(384 354)"/>
                    <path d="M3 1.5h24A1.5 1.5 0 0 1 28.5 3v17.5h-27V3A1.5 1.5 0 0 1 3 1.5z" style="fill:none" transform="translate(384 354)"/>
                </g>
                <circle data-name="타원 1442" cx="3" cy="3" r="3" transform="translate(396 365)" style="fill:#fff"/>
                <path data-name="선 3049" transform="translate(384 377)" style="stroke-width:3px;stroke:#222;fill:none" d="M0 0h5"/>
                <path data-name="선 3050" transform="translate(409 377)" style="stroke-width:3px;stroke:#222;fill:none" d="M0 0h5"/>
                <path data-name="선 3051" transform="translate(391 361)" style="stroke:#fff;stroke-width:3px;stroke-linecap:round;fill:none" d="M16 0H0"/>
            </g>
            <g data-name="그룹 634195">
                <g data-name="사각형 464759" transform="translate(376.001 184.888)" style="stroke-width:3px;stroke:#222;fill:#fff">
                    <rect width="20" height="51" rx="9" style="stroke:none"/>
                    <rect x="1.5" y="1.5" width="17" height="48" rx="7.5" style="fill:none"/>
                </g>
                <g data-name="타원 1439" transform="translate(381.001 191.888)" style="stroke-width:3px;stroke:#707070;fill:#fff">
                    <circle cx="5" cy="5" r="5" style="stroke:none"/>
                    <circle cx="5" cy="5" r="3.5" style="fill:none"/>
                </g>
                <g data-name="타원 1440" transform="translate(381.001 205.888)" style="stroke-width:3px;stroke:#707070;fill:#fff">
                    <circle cx="5" cy="5" r="5" style="stroke:none"/>
                    <circle cx="5" cy="5" r="3.5" style="fill:none"/>
                </g>
                <g data-name="타원 1441" transform="translate(381.001 219.888)" style="stroke-width:3px;stroke:#707070;fill:#fff">
                    <circle cx="5" cy="5" r="5" style="stroke:none"/>
                    <circle cx="5" cy="5" r="3.5" style="fill:none"/>
                </g>
                <path data-name="선 3047" transform="translate(386.001 232.888)" style="stroke-width:3px;stroke:#222;fill:none" d="M0 0v13"/>
                <path data-name="선 3048" transform="rotate(90 73.056 319.945)" style="stroke-width:3px;stroke:#222;fill:none" d="M0 0v14"/>
            </g>
        </g>
    </g>
</svg>
