<svg xmlns="http://www.w3.org/2000/svg" width="444" height="225" viewBox="0 0 444 225">
    <g transform="translate(39 33.282)">
        <circle data-name="Ellipse 2" cx="28.017" cy="28.017" r="28.017" transform="translate(16.967 -10.553)" style="fill:#e4ffe1"/>
        <circle data-name="Ellipse 2" cx="50.746" cy="50.746" r="50.746" transform="translate(273.967 -33.282)" style="fill:#fbf0e3"/>
    </g>
    <g data-name="그룹 2552">
        <path data-name="패스 4205" d="M108.711 73.566v33.576H82.929V73.566c0-5.959 5.773-10.792 12.891-10.792s12.891 4.832 12.891 10.792z" transform="translate(213.769 -17.71)" style="stroke-width:3.008px;stroke:#222;stroke-linecap:round;stroke-linejoin:round;fill:#e4e4e4"/>
        <path data-name="패스 4206" d="M96.136 237.645V74.968c0-7.259 6.66-12.089 14.323-12.089h133.02c-7.118 0-12.891 5.415-12.891 12.094v162.672" transform="translate(65.865 -18.332)" style="fill:#fff;stroke-width:3.008px;stroke:#222;stroke-linecap:round;stroke-linejoin:round"/>
        <g data-name="그룹 631490">
            <path data-name="패스 4200" d="M305.161 118.737a7.49 7.49 0 0 1 5.544 2.193 1.858 1.858 0 0 1-1.362 3.134h-.01a1.825 1.825 0 0 1-1.435-.685 3.408 3.408 0 0 0-2.781-1.264c-2.292 0-3.862 1.688-3.862 4.374s1.571 4.377 3.862 4.377a3.408 3.408 0 0 0 2.783-1.266 1.825 1.825 0 0 1 1.435-.685 1.858 1.858 0 0 1 1.359 3.138 7.509 7.509 0 0 1-5.534 2.169 7.743 7.743 0 0 1 0-15.487z" transform="translate(-105.999 -38.047)" style="fill:#222"/>
            <path data-name="패스 4201" d="M315.528 134.284a7.787 7.787 0 1 1 7.834-7.8 7.679 7.679 0 0 1-7.834 7.8zm0-3.379c2.443 0 4.037-1.754 4.037-4.418 0-2.708-1.593-4.42-4.037-4.42-2.489 0-4.061 1.711-4.061 4.42 0 2.664 1.572 4.413 4.061 4.413z" transform="translate(-99.569 -38.064)" style="fill:#222"/>
            <path data-name="패스 4202" d="M320.376 118.844a1.858 1.858 0 0 1 1.866 1.851v7.246c0 1.8.9 2.838 2.663 2.838a2.507 2.507 0 0 0 2.706-2.838v-7.246a1.858 1.858 0 0 1 1.866-1.851 1.858 1.858 0 0 1 1.866 1.851v7.223c0 4.2-2.967 6.282-6.5 6.282-3.556 0-6.328-2.079-6.328-6.282v-7.223a1.858 1.858 0 0 1 1.861-1.851z" transform="translate(-92.716 -37.98)" style="fill:#222"/>
            <path data-name="패스 4203" d="M334.243 118.844c3.755 0 5.632 2.143 5.632 4.785a4.43 4.43 0 0 1-3.405 4.4l1.952 3.326a1.793 1.793 0 0 1-1.561 2.7 1.807 1.807 0 0 1-1.582-.928l-2.672-4.813h-.9v3.947a1.8 1.8 0 0 1-1.807 1.793h-.117a1.8 1.8 0 0 1-1.807-1.793v-11.624a1.8 1.8 0 0 1 1.807-1.793zm-.219 3.074h-2.313v3.769h2.313c1.4 0 2.052-.715 2.052-1.9 0-1.132-.654-1.87-2.052-1.87z" transform="translate(-86.74 -37.98)" style="fill:#222"/>
            <path data-name="패스 4204" d="M337.686 118.844h8.861a1.49 1.49 0 0 1 1.5 1.482 1.49 1.49 0 0 1-1.5 1.482h-2.564v10.756a1.488 1.488 0 0 1-1.494 1.484h-.744a1.488 1.488 0 0 1-1.494-1.484v-10.755h-2.566a1.488 1.488 0 0 1-1.494-1.482 1.488 1.488 0 0 1 1.495-1.483z" transform="translate(-81.559 -37.98)" style="fill:#222"/>
        </g>
    </g>
    <g data-name="그룹 2554">
        <path data-name="패스 4207" d="M224.894 64.375h-20v20.288a.865.865 0 0 0 1.208.753l8.792-3.508 8.793 3.508a.864.864 0 0 0 1.207-.753z" transform="translate(-24.379 -18.709)" style="fill:#f2ac58"/>
        <path data-name="패스 4208" d="M204.894 64.375v20.288a.865.865 0 0 0 1.208.753l8.252-3.292a1.456 1.456 0 0 1 1.081 0l8.252 3.292a.864.864 0 0 0 1.207-.753V64.375" transform="translate(-24.379 -18.709)" style="stroke-width:2.406px;fill:none;stroke:#222;stroke-linecap:round;stroke-linejoin:round"/>
    </g>
    <path data-name="패스 10647" d="M54.694 15.74a5.481 5.481 0 0 1 5.48 5.48c0 .062-.008.123-.01.185a4.836 4.836 0 0 1 1.228-.159 4.83 4.83 0 0 1 4.75 5.672 4.546 4.546 0 0 1 1.962-.448 4.409 4.409 0 0 1 2.057.508A4.471 4.471 0 0 1 72.416 32a4.472 4.472 0 0 1 6.787 4.4 4.826 4.826 0 0 1 7.08 3.987l.052-.02c.039-.016.079-.032.12-.046a5.481 5.481 0 0 1 3.388 10.419c-.059.019-.119.031-.178.048a4.827 4.827 0 0 1-3.4 7.389 4.455 4.455 0 0 1-2.89 7.536 4.472 4.472 0 0 1-2.086 7.814 4.826 4.826 0 0 1-1.6 7.966c.038.049.079.093.116.143a5.482 5.482 0 0 1 .26 6.053c-.048.08-.1.155-.155.232s-.092.144-.144.213a5.482 5.482 0 0 1-8.829-.055c-.036-.05-.066-.1-.1-.155a4.826 4.826 0 0 1-8.076-.946 4.455 4.455 0 0 1-8.061-.42 4.472 4.472 0 0 1-8.077.431 4.825 4.825 0 0 1-8.071.935c-.023.034-.043.068-.066.1-.012.018-.022.036-.035.054a5.537 5.537 0 0 1-.74.828 5.811 5.811 0 0 1-1.819 1.1c-.076.028-.153.048-.23.072s-.181.06-.273.084c-.077.02-.155.032-.233.048-.094.02-.188.044-.283.059l-.057.006a5.637 5.637 0 0 1-.816.061h-.176a5.481 5.481 0 0 1-4.242-8.7c.036-.05.079-.1.116-.144a4.826 4.826 0 0 1-1.6-7.974 4.456 4.456 0 0 1-2.092-7.8A4.473 4.473 0 0 1 23.1 58.17a4.826 4.826 0 0 1-3.384-7.387c-.059-.017-.119-.029-.178-.048a5.449 5.449 0 0 1-2.569-1.772c-.018-.022-.038-.042-.056-.065-.073-.092-.137-.191-.2-.287-.033-.048-.07-.094-.1-.143a5.478 5.478 0 0 1 6.315-8.157c.059.019.115.045.173.066a4.829 4.829 0 0 1 7.09-3.981A4.46 4.46 0 0 1 36.961 32a4.472 4.472 0 0 1 6.281-5.1 4.832 4.832 0 0 1 3.717-5.547 4.776 4.776 0 0 1 1.034-.113 4.856 4.856 0 0 1 1.229.159c0-.062-.009-.122-.009-.185a5.493 5.493 0 0 1 4.865-5.443l.056-.009c.11-.011.223-.012.334-.017.075 0 .149-.011.226-.011m0-2.777c-.111 0-.22.005-.329.013h-.077c-.145 0-.29.012-.432.026l-.1.01-.062.01a8.289 8.289 0 0 0-6.82 5.527 5.338 5.338 0 0 0-.513.1 7.591 7.591 0 0 0-5.594 5.06 7.255 7.255 0 0 0-6.311 4.85 7.242 7.242 0 0 0-6.554 4.5 7.639 7.639 0 0 0-6.537 3.752c-.089.151-.171.3-.25.461a8.259 8.259 0 0 0-6.843 12.693c.049.077.1.157.162.235l.017.025c.09.132.182.264.28.39.034.044.075.093.119.143a8.2 8.2 0 0 0 1.434 1.379q-.044.259-.069.521a7.593 7.593 0 0 0 3.085 6.892 7.236 7.236 0 0 0 2.656 7.5 7.249 7.249 0 0 0 2.251 7.621 7.59 7.59 0 0 0 1.553 7.381q.174.2.359.378a8.263 8.263 0 0 0 7.607 10.69h.271a8.394 8.394 0 0 0 1.163-.083c.042 0 .083-.01.124-.016.144-.022.268-.048.392-.076l.053-.012c.14-.027.247-.049.354-.077s.237-.067.355-.106l.051-.017c.136-.039.242-.072.346-.111a8.254 8.254 0 0 0 1.788-.917l.137-.094c.157.083.317.159.48.23a7.55 7.55 0 0 0 3.036.635 7.631 7.631 0 0 0 4.457-1.452 7.223 7.223 0 0 0 2.777 1.019 7.32 7.32 0 0 0 1.048.076 7.228 7.228 0 0 0 4.142-1.29 7.257 7.257 0 0 0 7.956.2 7.572 7.572 0 0 0 7.487.812q.244-.107.479-.228a8.285 8.285 0 0 0 4.754 1.507A8.269 8.269 0 0 0 81.99 89.8c.073-.1.135-.19.2-.284l.021-.033.033-.048c.07-.1.14-.206.2-.311a8.238 8.238 0 0 0 .818-6.7q.187-.184.361-.38a7.592 7.592 0 0 0 1.549-7.387 7.233 7.233 0 0 0 2.258-7.625 7.25 7.25 0 0 0 2.658-7.488 7.588 7.588 0 0 0 3.082-6.885q-.026-.261-.068-.518a8.261 8.261 0 0 0-4.829-14.871q-.117-.234-.251-.462a7.639 7.639 0 0 0-6.545-3.752 7.224 7.224 0 0 0-6.555-4.5 7.225 7.225 0 0 0-6.3-4.84 7.586 7.586 0 0 0-5.6-5.064c-.171-.038-.343-.07-.517-.1a8.271 8.271 0 0 0-7.814-5.588z" transform="translate(174.524 96.575)" style="fill:#d7b23c"/>
    <g data-name="그룹 631487">
        <path data-name="패스 10648" d="M199.9 210.348v6.785h3.336v-6.672a1.588 1.588 0 0 0-1.64-1.583 1.441 1.441 0 0 0-1.7 1.47z" transform="translate(19.432 -65.963)" style="fill-rule:evenodd;fill:#d7b23c"/>
        <path data-name="패스 10649" d="M204.652 209.936v7.294l-4.523 2.939v8.538s-.34 1.3 1.7 1.809a1.774 1.774 0 0 0 1.922-1.922l.056-7.124 4.241-2.375v-9.216s.226-1.188-1.64-1.583a1.8 1.8 0 0 0-1.753 1.64z" transform="translate(19.261 -65.494)" style="fill-rule:evenodd;fill:#d7b23c"/>
        <path data-name="패스 10650" d="M228.453 289.034v6.672s-.056 1.753 1.583 1.64a1.5 1.5 0 0 0 1.809-1.753v-6.615l-3.393.056z" transform="translate(-4.258 -132.436)" style="fill-rule:evenodd;fill:#d7b23c"/>
        <path data-name="패스 10651" d="m264.638 224.984-3.449-6.333v-1.357h2.6a1.262 1.262 0 0 0 1.187-1.583 1.289 1.289 0 0 0-1.13-1.414h-2.94v-1.753h2.034s1.471-.34 1.244-1.7a1.32 1.32 0 0 0-1.018-1.357l-2.487-.057v-2.54a1.457 1.457 0 0 0-1.64-1.018 1.442 1.442 0 0 0-1.7 1.244v1.984H254.8a1.434 1.434 0 0 0-1.244 1.7 1.5 1.5 0 0 0 1.357 1.7h2.487v2.036h-2.715a1.422 1.422 0 0 0-1.414 1.526s-.282 1.187 1.472 1.414h2.374v1.187l-3.11 6.729s-1.47 2.545.848 2.714h8.651s2.603-.522 1.132-3.122zm-7.293.283 1.979-4.184 2.149 4.184z" transform="translate(-24.837 -63.466)" style="fill-rule:evenodd;fill:#d7b23c"/>
    </g>
    <g data-name="그룹 631488">
        <path data-name="패스 10652" d="m160.4 109.735 7.161 11.7a14.517 14.517 0 0 1 4.021-2.079l-4.361-13.556z" transform="translate(52.203 19.548)" style="fill-rule:evenodd;fill:#d7b23c"/>
        <path data-name="패스 10653" d="m268.56 80.875-6.052-3.495-.766 17.551a17.271 17.271 0 0 1 3.5.475z" transform="translate(-31.878 43.128)" style="fill-rule:evenodd;fill:#d7b23c"/>
        <path data-name="패스 10654" d="m220.164 77.391-6.049 3.492 3.315 14.532a17.29 17.29 0 0 1 3.5-.475z" transform="translate(7.639 43.119)" style="fill-rule:evenodd;fill:#d7b23c"/>
        <path data-name="패스 10655" d="m97.73 181.325 13.563 6.2V186.1a8.438 8.438 0 0 1 .256-2.04l-13.819-9.65z" transform="translate(104.204 -37.379)" style="fill-rule:evenodd;fill:#d7b23c"/>
        <path data-name="패스 10656" d="m105.541 140.483 12.887 10.787a10.3 10.3 0 0 1 2.59-3.635l-8.331-11.277z" transform="translate(97.723 -5.806)" style="fill-rule:evenodd;fill:#d7b23c"/>
        <path data-name="패스 10657" d="M350.841 181.325v-6.915l-13.818 9.653a8.433 8.433 0 0 1 .256 2.04v1.426z" transform="translate(-94.339 -37.379)" style="fill-rule:evenodd;fill:#d7b23c"/>
        <path data-name="패스 10658" d="M301.011 109.735 294.2 105.8l-4.366 13.559a14.524 14.524 0 0 1 4.021 2.079z" transform="translate(-55.182 19.548)" style="fill-rule:evenodd;fill:#d7b23c"/>
        <path data-name="패스 10659" d="m111.293 234.336-1.26-.448c-.7-.173-.832.6-.832.6-.561 5.677-2.083 5.893-2.083 5.893-3.035-2.069-6.161-7.627-7.186-9.559a2.016 2.016 0 0 0-.819-.824l-1.383-.492v20.537l27.284 15.757 27.286-15.753V229.51l-1.382.492a2.012 2.012 0 0 0-.819.824c-1.026 1.933-4.151 7.49-7.187 9.559 0 0-1.521-.217-2.083-5.893 0 0-.134-.777-.831-.6l-1.259.448v13.02c-3.067 2.266-8.069 3.743-13.722 3.743s-10.655-1.477-13.722-3.743z" transform="translate(104.204 -83.095)" style="fill-rule:evenodd;fill:#d7b23c"/>
        <path data-name="패스 10660" d="m322.062 151.271 12.887-10.787-7.146-4.125-8.331 11.277a10.3 10.3 0 0 1 2.59 3.635z" transform="translate(-79.778 -5.806)" style="fill-rule:evenodd;fill:#d7b23c"/>
    </g>
    <g>
        <path data-name="패스 3320" d="M229.5 182.345v-48.059h96.119v48.059" transform="translate(47.659 36.568)" style="fill:#fcf28d"/>
        <path data-name="패스 3321" d="M229.5 182.345v-48.059h96.119v48.059" transform="translate(47.659 36.568)" style="stroke-width:3px;fill:none;stroke:#222;stroke-linecap:round;stroke-linejoin:round"/>
        <path data-name="선 219" transform="translate(277.159 210.503)" style="stroke-width:3px;fill:none;stroke:#222;stroke-linecap:round;stroke-linejoin:round" d="M0 0h96.119"/>
        <path data-name="선 220" transform="translate(277.159 200.891)" style="stroke-width:3px;fill:none;stroke:#222;stroke-linecap:round;stroke-linejoin:round" d="M0 0h96.119"/>
        <path data-name="선 221" transform="translate(277.159 191.279)" style="stroke-width:3px;fill:none;stroke:#222;stroke-linecap:round;stroke-linejoin:round" d="M0 0h96.119"/>
        <path data-name="선 222" transform="translate(277.159 181.667)" style="stroke-width:3px;fill:none;stroke:#222;stroke-linecap:round;stroke-linejoin:round" d="M0 0h96.119"/>
        <path data-name="패스 3322" d="M325.619 136.3H229.5l8.642-12.015h78.834z" transform="translate(47.659 34.553)" style="fill:#fcf28d"/>
        <path data-name="패스 3323" d="M325.619 136.3H229.5l8.642-12.015h78.834z" transform="translate(47.659 34.553)" style="stroke-width:3px;fill:none;stroke:#222;stroke-linecap:round;stroke-linejoin:round"/>
        <path data-name="패스 3324" d="m262.764 135.568 1.461-11.282h13.315l1.46 11.282" transform="translate(54.361 34.553)" style="fill:#fff"/>
        <path data-name="패스 3325" d="m262.764 135.568 1.461-11.282h13.315l1.46 11.282" transform="translate(54.361 34.553)" style="stroke-width:3px;fill:none;stroke:#222;stroke-linecap:round;stroke-linejoin:round"/>
        <path data-name="패스 3326" d="M263 182.345v-48.059h15.619v48.059" transform="translate(54.409 36.568)" style="fill:#fff"/>
        <path data-name="패스 3327" d="M263 182.345v-48.059h15.619v48.059" transform="translate(54.409 36.568)" style="stroke-width:3px;fill:none;stroke:#222;stroke-linecap:round;stroke-linejoin:round"/>
    </g>
    <path data-name="선 223" transform="translate(42 220.048)" style="stroke-width:3px;fill:none;stroke:#222;stroke-linecap:round;stroke-linejoin:round" d="M0 0h360"/>
    <g transform="translate(65 95.35)">
        <g data-name="그룹 2539">
            <g data-name="그룹 2535">
                <path data-name="패스 4185" d="M271.315 157.389h13.51v55.319h-13.51z" transform="translate(-259.554 -103.453)" style="fill-rule:evenodd;fill:#e4e4e4"/>
            </g>
            <g data-name="그룹 2536">
                <path data-name="패스 4186" d="M271.315 157.389h13.51v55.319h-13.51z" transform="translate(-259.554 -103.453)" style="fill-rule:evenodd;fill:none;stroke-width:3.008px;stroke:#222;stroke-linecap:round;stroke-linejoin:round"/>
            </g>
            <g data-name="그룹 2537">
                <path data-name="패스 4187" d="M289.368 149.08h-23.641v7.888c0 1.89 1.149 3.428 2.555 3.428h18.526c1.406 0 2.56-1.538 2.56-3.428v-7.888z" transform="translate(-259.032 -102.675)" style="fill-rule:evenodd;fill:#fff;stroke-width:3.008px;stroke:#222;stroke-linecap:round;stroke-linejoin:round"/>
            </g>
            <g data-name="그룹 2538">
                <path data-name="패스 4188" d="M289.368 225.555v-7.888c0-1.889-1.154-3.427-2.56-3.427h-18.526c-1.406 0-2.555 1.538-2.555 3.427v7.888z" transform="translate(-259.032 -108.767)" style="fill-rule:evenodd;fill:#fff;stroke-width:3.008px;stroke:#222;stroke-linecap:round;stroke-linejoin:round"/>
            </g>
        </g>
        <g data-name="그룹 2544">
            <g data-name="그룹 2540">
                <path data-name="패스 4189" d="M357.006 157.389h13.509v55.319h-13.509z" transform="translate(-267.567 -103.453)" style="fill-rule:evenodd;fill:#e4e4e4"/>
            </g>
            <g data-name="그룹 2541">
                <path data-name="패스 4190" d="M357.006 157.389h13.509v55.319h-13.509z" transform="translate(-267.567 -103.453)" style="fill-rule:evenodd;fill:none;stroke-width:3.008px;stroke:#222;stroke-linecap:round;stroke-linejoin:round"/>
            </g>
            <g data-name="그룹 2542">
                <path data-name="패스 4191" d="M375.059 149.08h-23.642v7.888c0 1.89 1.149 3.428 2.555 3.428H372.5c1.407 0 2.561-1.538 2.561-3.428v-7.888z" transform="translate(-267.044 -102.675)" style="fill-rule:evenodd;fill:#fff;stroke-width:3.008px;stroke:#222;stroke-linecap:round;stroke-linejoin:round"/>
            </g>
            <g data-name="그룹 2543">
                <path data-name="패스 4192" d="M375.059 225.555v-7.888c0-1.889-1.154-3.427-2.561-3.427h-18.526c-1.406 0-2.555 1.538-2.555 3.427v7.888z" transform="translate(-267.044 -108.767)" style="fill-rule:evenodd;fill:#fff;stroke-width:3.008px;stroke:#222;stroke-linecap:round;stroke-linejoin:round"/>
            </g>
        </g>
        <g data-name="그룹 2549">
            <g data-name="그룹 2545">
                <path data-name="패스 4193" d="M314.646 157.389h13.51v55.319h-13.51z" transform="translate(-263.606 -103.453)" style="fill-rule:evenodd;fill:#e4e4e4"/>
            </g>
            <g data-name="그룹 2546">
                <path data-name="패스 4194" d="M314.646 157.389h13.51v55.319h-13.51z" transform="translate(-263.606 -103.453)" style="fill-rule:evenodd;fill:none;stroke-width:3.008px;stroke:#222;stroke-linecap:round;stroke-linejoin:round"/>
            </g>
            <g data-name="그룹 2547">
                <path data-name="패스 4195" d="M332.7 149.08h-23.643v7.888c0 1.89 1.149 3.428 2.555 3.428h18.525c1.407 0 2.561-1.538 2.561-3.428v-7.888z" transform="translate(-263.083 -102.675)" style="fill-rule:evenodd;fill:#fff;stroke-width:3.008px;stroke:#222;stroke-linecap:round;stroke-linejoin:round"/>
            </g>
            <g data-name="그룹 2548">
                <path data-name="패스 4196" d="M332.7 225.555v-7.888c0-1.889-1.154-3.427-2.561-3.427h-18.527c-1.406 0-2.555 1.538-2.555 3.427v7.888z" transform="translate(-263.083 -108.767)" style="fill-rule:evenodd;fill:#fff;stroke-width:3.008px;stroke:#222;stroke-linecap:round;stroke-linejoin:round"/>
            </g>
        </g>
        <path data-name="패스 4197" d="M318.062 98.523a4.277 4.277 0 0 0-4.48 0l-53.092 32.611a2.012 2.012 0 0 0-.957 1.715v9.436a2.005 2.005 0 0 0 2 2.01h108.579a2.005 2.005 0 0 0 2-2.01v-9.436a2.012 2.012 0 0 0-.957-1.715z" transform="translate(-258.453 -97.889)" style="fill:#e8eef3;fill-rule:evenodd"/>
        <path data-name="패스 4199" d="M318.062 98.523a4.277 4.277 0 0 0-4.48 0l-53.092 32.611a2.012 2.012 0 0 0-.957 1.715v9.436a2.005 2.005 0 0 0 2 2.01h108.579a2.005 2.005 0 0 0 2-2.01v-9.436a2.012 2.012 0 0 0-.957-1.715z" transform="translate(-258.453 -97.889)" style="fill-rule:evenodd;fill:none;stroke-width:3.008px;stroke:#222;stroke-linecap:round;stroke-linejoin:round"/>
        <path data-name="선 1158" transform="translate(2.089 34.49)" style="stroke-width:3px;fill:none;stroke:#222;stroke-linecap:round;stroke-linejoin:round" d="M0 0h110.914"/>
        <rect data-name="사각형 1279" width="112.578" height="10.934" rx="1.281" transform="translate(0 116.764)" style="fill:#e4e4e4"/>
        <rect data-name="사각형 1281" width="112.578" height="10.934" rx="1.542" transform="translate(0 116.764)" style="fill:none;stroke-width:3.008px;stroke:#222;stroke-linecap:round;stroke-linejoin:round"/>
    </g>
</svg>
