<svg xmlns="http://www.w3.org/2000/svg" width="444" height="237.498" viewBox="0 0 444 237.498">
    <g transform="translate(39 21.281)">
        <circle data-name="Ellipse 2" cx="59.501" cy="59.501" r="59.501" transform="translate(254.248 60.711)" style="fill:#dcf5fb"/>
        <circle data-name="Ellipse 2" cx="25.75" cy="25.75" r="25.75" transform="translate(100.068 -21.281)" style="fill:#fbf0e3"/>
        <circle data-name="Ellipse 2" cx="38.293" cy="38.293" r="38.293" transform="translate(-17 103.129)" style="fill:#e3e6fb"/>
    </g>
    <path data-name="선 223" transform="translate(42 220)" style="stroke-width:3px;stroke-linecap:round;stroke-linejoin:round;stroke:#222;fill:none" d="M0 0h360"/>
    <g transform="translate(109 90.996)">
        <path data-name="사각형 1933" d="M3.125 0h67.75A3.125 3.125 0 0 1 74 3.125 6.875 6.875 0 0 1 67.125 10H6.875A6.875 6.875 0 0 1 0 3.125 3.125 3.125 0 0 1 3.125 0z" transform="translate(0 -.092)" style="fill:#50ccc6"/>
        <path data-name="사각형 1934" d="M6.875 0h60.25A6.875 6.875 0 0 1 74 6.875 3.125 3.125 0 0 1 70.875 10H3.125A3.125 3.125 0 0 1 0 6.875 6.875 6.875 0 0 1 6.875 0z" transform="translate(0 118.908)" style="fill:#50ccc6"/>
        <path data-name="패스 6243" d="M165.054 43.718V22.459a.958.958 0 0 0-.959-.959h-54.868a.959.959 0 0 0-.959.959v21.259a28.391 28.391 0 0 0 18.227 26.507 6.142 6.142 0 0 1 3.993 5.716v.368a6.142 6.142 0 0 1-3.993 5.716 28.391 28.391 0 0 0-18.227 26.507v21.259a.959.959 0 0 0 .959.959h54.868a.958.958 0 0 0 .959-.959v-21.259a28.391 28.391 0 0 0-18.226-26.507 6.142 6.142 0 0 1-3.994-5.716v-.368a6.142 6.142 0 0 1 3.994-5.716 28.391 28.391 0 0 0 18.226-26.507z" transform="translate(-99.627 -11.624)" style="fill:#fff"/>
        <path data-name="패스 6244" d="M104.661 15.376h-3.6a6.79 6.79 0 0 1-6.79-6.79h0A3.087 3.087 0 0 1 97.354 5.5h67.9a3.086 3.086 0 0 1 3.086 3.086h0a6.79 6.79 0 0 1-6.79 6.79h-4.013" transform="translate(-94.268 -5.5)" style="stroke-width:3px;stroke-linecap:round;stroke-linejoin:round;stroke:#222;fill:none"/>
        <path data-name="패스 6247" d="M162.448 184.462c.016-.343.026-.688.026-1.034a21.6 21.6 0 0 0-43.206 0c0 .346.01.691.027 1.034z" transform="translate(-103.837 -65.336)" style="stroke-miterlimit:10;fill:#afdae9;stroke-width:3px;stroke:#222"/>
        <path data-name="패스 6248" d="M106.789 198.5h-5.731a6.79 6.79 0 0 0-6.79 6.79h0a3.087 3.087 0 0 0 3.086 3.086h67.9a3.086 3.086 0 0 0 3.086-3.086h0a6.79 6.79 0 0 0-6.79-6.79h-3.856" transform="translate(-94.268 -79.374)" style="stroke-width:3px;stroke-linecap:round;stroke-linejoin:round;stroke:#222;fill:none"/>
        <path data-name="패스 6249" d="M162.473 56.561a21.6 21.6 0 0 1-43.175 1.19 21.979 21.979 0 0 1 .025-2.768s6.8 9.615 21.546.711c9.917-6.067 21.606-5.466 21.604.867z" transform="translate(-103.837 -23.092)" style="fill:#afdae9;stroke-width:3px;stroke-linecap:round;stroke-linejoin:round;stroke:#222"/>
        <rect data-name="사각형 1935" width="4" height="8" rx="2" transform="translate(35 84.908)" style="stroke-miterlimit:10;fill:#afdae9;stroke-width:3px;stroke:#222"/>
        <rect data-name="사각형 1936" width="3.703" height="6.172" rx="1.852" transform="translate(35.183 73.929)" style="stroke-miterlimit:10;fill:#afdae9;stroke-width:3px;stroke:#222"/>
        <path data-name="패스 6250" d="M165.054 43.718V22.459a.958.958 0 0 0-.959-.959h-54.868a.959.959 0 0 0-.959.959v21.259a28.391 28.391 0 0 0 18.227 26.507 6.142 6.142 0 0 1 3.993 5.716v.368a6.142 6.142 0 0 1-3.993 5.716 28.391 28.391 0 0 0-18.227 26.507v21.259a.959.959 0 0 0 .959.959h54.868a.958.958 0 0 0 .959-.959v-21.259a28.391 28.391 0 0 0-18.226-26.507 6.142 6.142 0 0 1-3.994-5.716v-.368a6.142 6.142 0 0 1 3.994-5.716 28.391 28.391 0 0 0 18.226-26.507z" transform="translate(-99.627 -11.624)" style="stroke-miterlimit:10;stroke-width:3px;stroke:#222;fill:none"/>
    </g>
    <g data-name="그룹 943">
        <path data-name="사각형 390" d="M11.1 0h108.35v86.871h0H0h0V11.1A11.1 11.1 0 0 1 11.1 0z" transform="translate(179.407 126.165)" style="stroke:#000;fill:#fff;stroke-width:3px;stroke-linecap:round;stroke-linejoin:round"/>
        <g data-name="그룹 942">
            <path data-name="패스 1623" d="M394.075 310.568 299.881 277.3a9.652 9.652 0 0 1-5.887-12.316l22.44-63.541a9.654 9.654 0 0 1 12.316-5.887l94.194 33.266a9.652 9.652 0 0 1 5.887 12.316l-22.44 63.54a9.653 9.653 0 0 1-12.316 5.89z" transform="translate(-100.636 -99.459)" style="fill:#fcf28d;stroke-width:3px;stroke-linecap:round;stroke-linejoin:round;stroke:#222"/>
            <path data-name="패스 1624" d="M419.27 262.242 309.389 223.8l4.674-12.719 109.527 38.681z" transform="translate(-100.273 -99.093)" style="fill:#222"/>
        </g>
        <path data-name="사각형 391" d="M24.694 0h80.919a24.693 24.693 0 0 1 24.693 24.693v37.484a24.693 24.693 0 0 1-24.693 24.693H49.886A49.886 49.886 0 0 1 0 36.985V24.694A24.694 24.694 0 0 1 24.694 0z" transform="translate(179.407 149.089)" style="stroke-width:2px;stroke:#000;fill:#fff;stroke-linecap:round;stroke-linejoin:round"/>
        <path data-name="패스 1625" d="M291.2 238.864c2.172 5.429 5.993 8.687 11.945 8.687H406.2a4.446 4.446 0 0 1 4.448 4.449v77.978a4.447 4.447 0 0 1-4.447 4.447H290.568a10.227 10.227 0 0 1-10.227-10.227v-73.027" transform="translate(-100.934 -98.462)" style="stroke:#000;fill:#fff;stroke-width:3px;stroke-linecap:round;stroke-linejoin:round"/>
        <path data-name="사각형 392" d="M10.617 0h19.592a2.367 2.367 0 0 1 2.367 2.367V19.35a2.367 2.367 0 0 1-2.367 2.367H10.617A10.617 10.617 0 0 1 0 11.1v-.483A10.617 10.617 0 0 1 10.617 0z" transform="translate(285.293 179.253)" style="stroke:#000;fill:#fff;stroke-width:3px;stroke-linecap:round;stroke-linejoin:round"/>
    </g>
    <g data-name="그룹 945" transform="translate(261.746 81.948)">
        <circle data-name="타원 76" cx="21.478" cy="21.478" r="21.478" transform="rotate(-77.278 26.208 20.95)" style="stroke-width:2.5px;fill:#fff;stroke-linecap:round;stroke-linejoin:round;stroke:#222"/>
        <circle data-name="타원 77" cx="16.426" cy="16.426" r="16.426" transform="translate(9.513 9.197)" style="fill:#fcf28d"/>
        <g data-name="그룹 944">
            <path data-name="패스 1626" d="m378.509 203.33 3.338 8.753a.782.782 0 0 0 1.483-.064l2.418-8.486a.782.782 0 0 1 1.5-.014l2.577 8.445a.783.783 0 0 0 1.489.024l2.948-8.657" transform="translate(-360.447 -181.227)" style="stroke-width:2.5px;stroke-linecap:round;stroke-linejoin:round;stroke:#222;fill:none"/>
            <path data-name="선 367" transform="translate(16.552 26.14)" style="stroke-width:2.5px;stroke-linecap:round;stroke-linejoin:round;stroke:#222;fill:none" d="M0 0h18.773"/>
        </g>
    </g>
    <g data-name="그룹 947" transform="translate(231.041 31.811)">
        <circle data-name="타원 78" cx="16.364" cy="16.364" r="16.364" transform="rotate(-77.278 19.967 15.962)" style="stroke-width:2px;fill:#fff;stroke-linecap:round;stroke-linejoin:round;stroke:#222"/>
        <circle data-name="타원 79" cx="12.515" cy="12.515" r="12.515" transform="translate(7.248 7.007)" style="fill:#fcf28d"/>
        <g data-name="그룹 946">
            <path data-name="패스 1627" d="m344.282 149.16 2.544 6.669a.6.6 0 0 0 1.13-.049l1.842-6.466a.6.6 0 0 1 1.143-.01l1.964 6.434a.6.6 0 0 0 1.134.018l2.246-6.6" transform="translate(-330.521 -132.32)" style="stroke-width:2px;stroke-linecap:round;stroke-linejoin:round;stroke:#222;fill:none"/>
            <path data-name="선 368" transform="translate(12.611 19.917)" style="stroke-width:2px;stroke-linecap:round;stroke-linejoin:round;stroke:#222;fill:none" d="M0 0h14.303"/>
        </g>
    </g>
</svg>
