<svg xmlns="http://www.w3.org/2000/svg" width="444" height="240.142" viewBox="0 0 444 240.142">
  <defs>
    <style>
      .cls-1 {
        fill: rgba(255,191,191,0.5);
        opacity: 0;
      }

      .cls-2 {
        fill: #dcf5fb;
      }

      .cls-3 {
        fill: #e4ffe1;
      }

      .cls-4 {
        fill: #fbf0e3;
      }

      .cls-10, .cls-12, .cls-5, .cls-8 {
        fill: #fff;
      }

      .cls-10, .cls-11, .cls-14, .cls-15, .cls-16, .cls-17, .cls-18, .cls-5, .cls-6, .cls-8 {
        stroke: #222;
      }

      .cls-14, .cls-15, .cls-16, .cls-17, .cls-18, .cls-5, .cls-6, .cls-8 {
        stroke-width: 3px;
      }

      .cls-6 {
        fill: #7dd3cf;
      }

      .cls-7 {
        fill: #222;
      }

      .cls-15, .cls-18, .cls-8 {
        stroke-linecap: round;
      }

      .cls-18, .cls-8 {
        stroke-linejoin: round;
      }

      .cls-9 {
        fill: #f0f2f5;
      }

      .cls-10, .cls-11 {
        stroke-miterlimit: 10;
        stroke-width: 2px;
      }

      .cls-11 {
        fill: #9df4ef;
      }

      .cls-13 {
        fill: #e9f6fd;
      }

      .cls-14 {
        fill: #f2ac58;
      }

      .cls-15, .cls-18, .cls-20 {
        fill: none;
      }

      .cls-16 {
        fill: #727272;
      }

      .cls-17 {
        fill: #afdae9;
      }

      .cls-19, .cls-21 {
        stroke: none;
      }

      .cls-21 {
        fill: #222;
      }
    </style>
  </defs>
  <g id="SWKDIFDT4000_2" transform="translate(-1024.75 -1191.857)">
    <g id="deco">
      <rect id="BG" class="cls-1" width="444" height="240" transform="translate(1024.75 1191.857)"/>
      <circle id="Ellipse_2" data-name="Ellipse 2" class="cls-2" cx="71.441" cy="71.441" r="71.441" transform="translate(1067.25 1230.75)"/>
      <circle id="Ellipse_2-2" data-name="Ellipse 2" class="cls-3" cx="26.75" cy="26.75" r="26.75" transform="translate(1350.75 1192)"/>
      <circle id="Ellipse_2-3" data-name="Ellipse 2" class="cls-4" cx="18.816" cy="18.816" r="18.816" transform="translate(1427.117 1309)"/>
    </g>
    <g id="img" transform="translate(1044.524 1172.312)">
      <g id="그룹_631440" data-name="그룹 631440" transform="translate(1.115 1)">
        <g id="서류봉투" transform="translate(410.911 -118.92) rotate(90)">
          <g id="사각형_462981" data-name="사각형 462981" class="cls-5" transform="translate(230.156 73.27)">
            <rect class="cls-19" width="147" height="183" rx="8"/>
            <rect class="cls-20" x="1.5" y="1.5" width="144" height="180" rx="6.5"/>
          </g>
          <g id="사각형_462982" data-name="사각형 462982" class="cls-6" transform="translate(230.156 73.27)">
            <path class="cls-19" d="M7.5,0h132A7.5,7.5,0,0,1,147,7.5v0A22.5,22.5,0,0,1,124.5,30H22.5A22.5,22.5,0,0,1,0,7.5v0A7.5,7.5,0,0,1,7.5,0Z"/>
            <path class="cls-20" d="M7.552,1.5h131.9A6.052,6.052,0,0,1,145.5,7.552v0A20.948,20.948,0,0,1,124.552,28.5H22.448A20.948,20.948,0,0,1,1.5,7.552v0A6.052,6.052,0,0,1,7.552,1.5Z"/>
          </g>
          <g id="사각형_462983" data-name="사각형 462983" class="cls-6" transform="translate(230.156 226.27)">
            <path class="cls-19" d="M22.5,0h102A22.5,22.5,0,0,1,147,22.5v0a7.5,7.5,0,0,1-7.5,7.5H7.5A7.5,7.5,0,0,1,0,22.5v0A22.5,22.5,0,0,1,22.5,0Z"/>
            <path class="cls-20" d="M22.448,1.5h102.1A20.948,20.948,0,0,1,145.5,22.448v0a6.052,6.052,0,0,1-6.052,6.052H7.552A6.052,6.052,0,0,1,1.5,22.448v0A20.948,20.948,0,0,1,22.448,1.5Z"/>
          </g>
          <rect id="사각형_462984" data-name="사각형 462984" class="cls-7" width="3" height="126" transform="translate(302.156 103.27)"/>
          <g id="타원_1217" data-name="타원 1217" class="cls-5" transform="translate(296.156 81.27)">
            <circle class="cls-19" cx="7.5" cy="7.5" r="7.5"/>
            <circle class="cls-20" cx="7.5" cy="7.5" r="6"/>
          </g>
        </g>
        <g id="매출" transform="translate(136.611 258.415) rotate(-90)">
          <g id="사각형_1134" data-name="사각형 1134" class="cls-8" transform="matrix(0, -1, 1, 0, -0.178, 152)">
            <rect class="cls-19" width="172" height="125" rx="5.392"/>
            <rect class="cls-20" x="1.5" y="1.5" width="169" height="122" rx="3.892"/>
          </g>
          <g id="그룹_631411" data-name="그룹 631411" transform="translate(-0.5)">
            <g id="그룹_631410" data-name="그룹 631410" transform="translate(-5 -71)">
              <rect id="사각형_461403" data-name="사각형 461403" class="cls-9" width="54" height="6" rx="2.266" transform="translate(101.322 78.025) rotate(90)"/>
              <rect id="사각형_463039" data-name="사각형 463039" class="cls-9" width="54" height="6" rx="2.266" transform="translate(87.322 78.025) rotate(90)"/>
              <rect id="사각형_463040" data-name="사각형 463040" class="cls-9" width="54" height="6" rx="2.266" transform="translate(73.322 78.025) rotate(90)"/>
              <rect id="사각형_463041" data-name="사각형 463041" class="cls-9" width="54" height="6" rx="2.266" transform="translate(59.322 78.025) rotate(90)"/>
              <rect id="사각형_463042" data-name="사각형 463042" class="cls-9" width="54" height="6" rx="2.266" transform="translate(45.322 78.025) rotate(90)"/>
              <rect id="사각형_463043" data-name="사각형 463043" class="cls-9" width="54" height="6" rx="2.266" transform="translate(31.322 78.025) rotate(90)"/>
            </g>
            <g id="그룹_631409" data-name="그룹 631409" transform="translate(-47)">
              <rect id="사각형_463044" data-name="사각형 463044" class="cls-9" width="54" height="6" rx="2.266" transform="translate(101.322 76.025) rotate(90)"/>
              <rect id="사각형_463045" data-name="사각형 463045" class="cls-9" width="54" height="6" rx="2.266" transform="translate(87.322 76.025) rotate(90)"/>
              <rect id="사각형_463046" data-name="사각형 463046" class="cls-9" width="54" height="6" rx="2.266" transform="translate(73.322 76.025) rotate(90)"/>
              <g id="그룹_631408" data-name="그룹 631408" transform="translate(38 80.025)">
                <g id="사각형_461816" data-name="사각형 461816" class="cls-10" transform="translate(99.662 14) rotate(90)">
                  <rect class="cls-19" width="8" height="28.34"/>
                  <rect class="cls-20" x="1" y="1" width="6" height="26.34"/>
                </g>
                <g id="사각형_461817" data-name="사각형 461817" class="cls-10" transform="translate(90.322 3) rotate(90)">
                  <rect class="cls-19" width="8" height="19"/>
                  <rect class="cls-20" x="1" y="1" width="6" height="17"/>
                </g>
                <g id="사각형_461818" data-name="사각형 461818" class="cls-11" transform="translate(106.805 25) rotate(90)">
                  <rect class="cls-19" width="8" height="35.482"/>
                  <rect class="cls-20" x="1" y="1" width="6" height="33.482"/>
                </g>
                <g id="사각형_463038" data-name="사각형 463038" class="cls-10" transform="translate(84.322 36) rotate(90)">
                  <rect class="cls-19" width="8" height="13"/>
                  <rect class="cls-20" x="1" y="1" width="6" height="11"/>
                </g>
              </g>
            </g>
          </g>
        </g>
      </g>
      <g id="트럭" transform="translate(-169.803 -66.604)">
        <g id="패스_10596" data-name="패스 10596" class="cls-12" transform="translate(230 269.486)">
          <path class="cls-19" d="M 39.99171829223633 49.56673431396484 L 1.499999165534973 49.56673431396484 L 1.499999165534973 24.56193542480469 L 16.84914398193359 1.50000524520874 L 39.99171829223633 1.50000524520874 L 39.99171829223633 49.56673431396484 Z"/>
          <path class="cls-21" d="M 17.65265464782715 2.999996185302734 L 3 25.01546287536621 L 3 48.06672668457031 L 38.49171829223633 48.06672668457031 L 38.49171829223633 2.999996185302734 L 17.65265464782715 2.999996185302734 M 16.04562950134277 -3.814697265625e-06 L 41.49171829223633 -3.814697265625e-06 L 41.49171829223633 51.06672668457031 L 0 51.06672668457031 L 0 24.10839462280273 L 16.04562950134277 -3.814697265625e-06 Z"/>
        </g>
        <g id="패스_10597" data-name="패스 10597" class="cls-13" transform="translate(232.575 265.071)">
          <path class="cls-19" d="M 29.43752288818359 24.4583568572998 L 9.411467552185059 24.4583568572998 L 18.25265884399414 11.49999713897705 L 29.43752288818359 11.49999713897705 L 29.43752288818359 24.4583568572998 Z"/>
          <path class="cls-21" d="M 19.04510879516602 12.99999618530273 L 12.2507495880127 22.95835494995117 L 27.93752288818359 22.95835494995117 L 27.93752288818359 12.99999618530273 L 19.04510879516602 12.99999618530273 M 17.46020317077637 9.999996185302734 L 30.93752288818359 9.999996185302734 L 30.93752288818359 25.95835494995117 L 7.000003814697266 25.95835494995117 L 7.000003814697266 25.33130645751953 L 17.46020317077637 9.999996185302734 Z"/>
        </g>
        <g id="사각형_462427" data-name="사각형 462427" class="cls-14" transform="translate(266.704 243.952)">
          <rect class="cls-19" width="105.325" height="76.562"/>
          <rect class="cls-20" x="1.5" y="1.5" width="102.325" height="73.562"/>
        </g>
        <line id="선_1604" data-name="선 1604" class="cls-15" x2="6.782" y2="0.038" transform="translate(254.336 297.014)"/>
        <g id="타원_1047" data-name="타원 1047" class="cls-16" transform="translate(253.14 299.008)">
          <circle class="cls-19" cx="13.565" cy="13.565" r="13.565"/>
          <circle class="cls-20" cx="13.565" cy="13.565" r="12.065"/>
        </g>
        <g id="타원_1219" data-name="타원 1219" class="cls-16" transform="translate(333.059 299.008)">
          <circle class="cls-19" cx="13.565" cy="13.565" r="13.565"/>
          <circle class="cls-20" cx="13.565" cy="13.565" r="12.065"/>
        </g>
        <g id="사각형_462990" data-name="사각형 462990" class="cls-17" transform="translate(308.196 243.991)">
          <rect class="cls-19" width="22.597" height="12.948"/>
          <rect class="cls-20" x="1.5" y="1.5" width="19.597" height="9.948"/>
        </g>
      </g>
      <line id="선_198" data-name="선 198" class="cls-18" x2="360" transform="translate(22.726 258.236)"/>
    </g>
  </g>
</svg>
