<svg xmlns="http://www.w3.org/2000/svg" width="444" height="258" viewBox="0 0 444 258">
    <circle data-name="Ellipse 2" cx="26.75" cy="26.75" r="26.75" transform="translate(326 .143)" style="fill:#e4ffe1"/>
    <g transform="translate(-1023 -1221)">
        <circle data-name="Ellipse 1" cx="90" cy="90" r="90" transform="translate(1282 1221)" style="fill:#e9f6fd"/>
        <text data-name="가입대상 임대차 계약 여부를 확인해주세요!" transform="translate(1373.69 1302.6)" style="fill:#4278d9;font-size:19px;font-family:NotoSansCJKkr-Medium,Noto Sans CJK KR;font-weight:500;letter-spacing:-.05em"><tspan x="-61.655" y="0">가입대상 임대차 </tspan><tspan x="-45.125" y="24">계약 여부를 </tspan><tspan x="-54.511" y="48">확인해주세요! </tspan></text>
        <g data-name="&quot;">
            <g data-name="그룹 632055">
                <g data-name="그룹 632053">
                    <path data-name="패스 11697" d="M188.119 360.286a4.327 4.327 0 0 0-4.315-4.336 4.074 4.074 0 0 0-.419.02 4.321 4.321 0 0 0-3.894 4.138 1.762 1.762 0 0 0-.006.178 4.22 4.22 0 0 0 .106.959 4.32 4.32 0 0 0 4.213 3.382 4.215 4.215 0 0 0 1.44-.25 4.335 4.335 0 0 0 2.875-4.091z" style="fill:#5e83da" transform="translate(1185.522 910.373)"/>
                    <path data-name="패스 11698" d="M179.5 360.607c0-.044-.006-.091-.006-.134a2.127 2.127 0 0 1 0-.232v-.076c-.148-3.932 2.56-7.54 5.719-7.54a4.667 4.667 0 0 1 .638.049 6.15 6.15 0 0 0-2.343 3.287c-.043.124-.078.248-.115.374a9.359 9.359 0 0 0-.131 4.13 9.161 9.161 0 0 0 1.755 3.988z" style="fill:#5e83da" transform="translate(1185.522 910.373)"/>
                </g>
                <g data-name="그룹 632054">
                    <path data-name="패스 11699" d="M198.478 360.286a4.326 4.326 0 0 0-4.315-4.336 4.068 4.068 0 0 0-.418.02 4.323 4.323 0 0 0-3.895 4.138 1.762 1.762 0 0 0-.006.178 4.336 4.336 0 0 0 4.319 4.34 4.209 4.209 0 0 0 1.44-.25 4.337 4.337 0 0 0 2.875-4.09z" style="fill:#5e83da" transform="translate(1185.522 910.373)"/>
                    <path data-name="패스 11700" d="M189.857 360.607c0-.044-.007-.091-.007-.134a2.127 2.127 0 0 1 0-.232v-.076c-.148-3.932 2.561-7.54 5.719-7.54a4.684 4.684 0 0 1 .639.049 6.16 6.16 0 0 0-2.345 3.287c-.041.124-.076.248-.112.374a9.376 9.376 0 0 0-.133 4.13 9.189 9.189 0 0 0 1.755 3.988z" style="fill:#5e83da" transform="translate(1185.522 910.373)"/>
                </g>
            </g>
        </g>
    </g>
    <g data-name="그룹 632060">
        <g data-name="그룹 632365" transform="translate(25.5 -33.175)">
            <path data-name="사각형 463101" transform="translate(202.5 220.549)" style="fill:#fcf28d" d="M0 0h39v12.985H0z"/>
            <path data-name="패스 10787" d="M96 289.472V135.538l92.246-22.8v43.771l72.029 18.668v114.3z" style="fill:#fff"/>
            <path data-name="사각형 463523" transform="translate(202.5 220.175)" style="fill:#f2ac58" d="M0 0h40v13H0z"/>
            <path data-name="선 1928" transform="translate(87 109.673)" style="stroke-width:2.998px;stroke-linecap:round;stroke-linejoin:round;stroke:#222;fill:none" d="M0 26.921 109.004 0"/>
            <path data-name="선 1929" transform="translate(96.156 134.333)" style="stroke-width:2.997px;stroke-linecap:round;stroke-linejoin:round;stroke:#222;fill:none" d="M0 155.139V0"/>
            <path data-name="선 1930" transform="translate(187.852 111.686)" style="stroke-width:2.998px;stroke-linecap:round;stroke-linejoin:round;stroke:#222;fill:none" d="M.172 177.786 0 0"/>
            <path data-name="선 1931" transform="translate(222 233.535)" style="stroke-width:2.997px;stroke-linecap:round;stroke-linejoin:round;stroke:#222;fill:none" d="M0 54.939V0"/>
            <path data-name="선 1932" transform="translate(97 209.561)" style="stroke-width:3px;stroke-linecap:round;stroke-linejoin:round;stroke:#222;fill:none" d="M0 0h90"/>
            <path data-name="선 1933" transform="translate(202 233.535)" style="stroke-width:3px;stroke-linecap:round;stroke-linejoin:round;stroke:#222;fill:none" d="M0 0h40"/>
            <path data-name="선 1934" transform="translate(187.852 156.899)" style="stroke-width:2.998px;stroke-linecap:round;stroke-linejoin:round;stroke:#222;fill:none" d="M81.148 19.996 0 0"/>
            <path data-name="선 1935" transform="translate(260.233 174.735)" style="stroke-width:2.997px;stroke-linecap:round;stroke-linejoin:round;stroke:#222;fill:none" d="M0 114.737V0"/>
            <path data-name="패스 10679" d="M202 288.473V219.55h40v68.923" style="stroke-width:2.998px;stroke-linecap:round;stroke-linejoin:round;stroke:#222;fill:none"/>
            <rect data-name="사각형 463102" width="14.23" height="38.743" rx="2.04" transform="translate(121.935 153.267)" style="fill:#e4e4e4"/>
            <rect data-name="사각형 463103" width="14.23" height="38.743" rx="2.04" transform="translate(149.831 153.267)" style="fill:#e4e4e4"/>
            <rect data-name="사각형 463104" width="14.23" height="38.743" rx="2.04" transform="translate(121.935 230.563)" style="fill:#e4e4e4"/>
            <rect data-name="사각형 463105" width="14.23" height="38.743" rx="2.04" transform="translate(149.831 230.563)" style="fill:#e4e4e4"/>
        </g>
        <g data-name="그룹 632058" transform="translate(-1576.34 -2066.376)">
            <rect data-name="사각형 463401" width="105" height="68" rx="3" transform="translate(1610.885 2235)" style="stroke-miterlimit:10;fill:#afdae9;stroke-width:3px;stroke:#222"/>
            <rect data-name="사각형 463402" width="84" height="48" rx="1.989" transform="translate(1621.385 2245)" style="stroke-miterlimit:10;stroke-width:3px;stroke:#222;fill:#fcf28d"/>
            <path data-name="패스 11702" d="m1633.411 2234 29.776-26 30.172 26" style="stroke-width:3px;stroke-linecap:round;stroke-linejoin:round;stroke:#222;fill:none"/>
            <path data-name="패스 11703" d="M1662.385 2226a4 4 0 1 1 4-4 4 4 0 0 1-4 4z" style="stroke-miterlimit:10;stroke-width:3px;stroke:#222;fill:#fff"/>
            <g data-name="그룹 632057">
                <path data-name="패스 11704" d="M1641.463 2274.218a1.819 1.819 0 0 1-.445 1.281 1.8 1.8 0 0 1-2.456 0 1.794 1.794 0 0 1-.455-1.281v-10.9h-1.354a2.063 2.063 0 0 1-1.253-.357 1.618 1.618 0 0 1 0-2.31 2.061 2.061 0 0 1 1.253-.356h2.769a1.919 1.919 0 0 1 1.486.5 2.3 2.3 0 0 1 .455 1.575z" style="fill:#222"/>
                <path data-name="패스 11705" d="M1652.9 2275.982a1.613 1.613 0 0 1-1.232-.494 1.8 1.8 0 0 1-.465-1.291v-4.388l-4.669-7.139a1.786 1.786 0 0 1-.263-.63 1.508 1.508 0 0 1 0-.6 1.583 1.583 0 0 1 .222-.535 1.473 1.473 0 0 1 .4-.421 1.56 1.56 0 0 1 1.2-.294 1.537 1.537 0 0 1 1.061.715l3.739 5.668 3.74-5.668a1.535 1.535 0 0 1 1.061-.715 1.6 1.6 0 0 1 1.819 1.26 1.6 1.6 0 0 1-.253 1.218l-4.669 7.139v4.388a1.806 1.806 0 0 1-.465 1.291 1.614 1.614 0 0 1-1.226.496z" style="fill:#222"/>
                <path data-name="패스 11706" d="M1668.264 2274.89a4.233 4.233 0 0 1-1.7.976 7.258 7.258 0 0 1-2.142.3 5.934 5.934 0 0 1-2.254-.4 4.505 4.505 0 0 1-1.647-1.123 4.809 4.809 0 0 1-1.011-1.732 6.8 6.8 0 0 1-.344-2.2 6.2 6.2 0 0 1 .354-2.131 5.023 5.023 0 0 1 1-1.691 4.5 4.5 0 0 1 1.566-1.113 5.117 5.117 0 0 1 2.051-.4 5.341 5.341 0 0 1 2.062.378 4.523 4.523 0 0 1 1.526 1.009 4.35 4.35 0 0 1 .94 1.437 4.508 4.508 0 0 1 .324 1.691 2.028 2.028 0 0 1-.324 1.28 1.442 1.442 0 0 1-1.172.4h-5.477a1.938 1.938 0 0 0 .181.83 2.267 2.267 0 0 0 1.274 1.165 2.662 2.662 0 0 0 .95.168 3.106 3.106 0 0 0 1.324-.252 4.438 4.438 0 0 0 1.02-.672 1.419 1.419 0 0 1 .97-.378 1.117 1.117 0 0 1 .91.462 1.025 1.025 0 0 1 .232 1 2.14 2.14 0 0 1-.613.996zm-2-5.4a1.417 1.417 0 0 0-.172-.693 1.767 1.767 0 0 0-.465-.546 2.361 2.361 0 0 0-.677-.367 2.455 2.455 0 0 0-1.617 0 2.361 2.361 0 0 0-.677.367 1.769 1.769 0 0 0-.465.546 1.417 1.417 0 0 0-.171.693z" style="fill:#222"/>
                <path data-name="패스 11707" d="M1680.9 2274.449a1.394 1.394 0 0 1-1.516 1.533 1.21 1.21 0 0 1-.97-.378 1.933 1.933 0 0 1-.424-.924 2.486 2.486 0 0 1-1.031 1.081 3.553 3.553 0 0 1-1.8.41 3.8 3.8 0 0 1-1.779-.421 4.109 4.109 0 0 1-1.38-1.15 5.549 5.549 0 0 1-.879-1.722 7.035 7.035 0 0 1-.314-2.141 6.931 6.931 0 0 1 .314-2.131 5.412 5.412 0 0 1 .869-1.691 4.081 4.081 0 0 1 1.334-1.123 3.652 3.652 0 0 1 1.728-.41 3.814 3.814 0 0 1 1.829.4 2.791 2.791 0 0 1 1.1 1.008 1.553 1.553 0 0 1 .424-.892 1.334 1.334 0 0 1 .991-.346 1.387 1.387 0 0 1 1.1.451 1.741 1.741 0 0 1 .393 1.186zm-7.094-3.674a3.309 3.309 0 0 0 .576 2.005 1.8 1.8 0 0 0 1.526.787 1.751 1.751 0 0 0 1.506-.787 3.9 3.9 0 0 0 0-4.011 1.751 1.751 0 0 0-1.506-.787 1.8 1.8 0 0 0-1.526.787 3.311 3.311 0 0 0-.582 2.006z" style="fill:#222"/>
                <path data-name="패스 11708" d="M1687.89 2268.024a1.116 1.116 0 0 0-.981.483 2.136 2.136 0 0 0-.333 1.239v4.64a1.631 1.631 0 0 1-.405 1.165 1.45 1.45 0 0 1-1.111.431 1.485 1.485 0 0 1-1.122-.431 1.61 1.61 0 0 1-.414-1.165v-7.223a1.7 1.7 0 0 1 .394-1.176 1.4 1.4 0 0 1 1.1-.44 1.445 1.445 0 0 1 1.021.346 1.728 1.728 0 0 1 .455 1.123 1.964 1.964 0 0 1 .768-1.186 2.3 2.3 0 0 1 1.415-.452 3.992 3.992 0 0 1 .788.074 3.421 3.421 0 0 1 .768.263 1.422 1.422 0 0 1 .677.671 1.222 1.222 0 0 1-.01 1.008 1.334 1.334 0 0 1-.687.777 1.565 1.565 0 0 1-1.051.063q-.3-.084-.617-.147a3.319 3.319 0 0 0-.655-.063z" style="fill:#222"/>
            </g>
        </g>
        <g data-name="그룹 632059">
            <path data-name="패스 11709" d="M1895.067 2308.769a14.539 14.539 0 0 1-4.774-.8h0a14.638 14.638 0 0 1-8.9-19.019.207.207 0 0 0-.012-.177 15.713 15.713 0 0 1 2.834-19.067.167.167 0 0 0 .042-.153 11.139 11.139 0 1 1 21.643.01.156.156 0 0 0 .045.143 15.716 15.716 0 0 1 2.834 19.066.217.217 0 0 0-.009.187 14.653 14.653 0 0 1-12.361 19.751q-.676.06-1.342.059z" style="stroke-width:3px;stroke-linecap:round;stroke-linejoin:round;stroke:#222;fill:#fff" transform="translate(-1576.34 -2066.376)"/>
            <path data-name="선 2156" transform="translate(318.736 210.39)" style="stroke-width:3px;stroke-linecap:round;stroke-linejoin:round;stroke:#222;fill:none" d="M0 0v44.285"/>
            <path data-name="선 2157" transform="translate(318.736 213.188)" style="stroke-width:3px;stroke-linecap:round;stroke-linejoin:round;stroke:#222;fill:none" d="M5.807 0 0 8.576"/>
            <path data-name="선 2158" transform="translate(312.041 218.465)" style="stroke-width:3px;stroke-linecap:round;stroke-linejoin:round;stroke:#222;fill:none" d="m0 0 6.694 11.061"/>
        </g>
    </g>
    <path transform="translate(42.5 256.5)" style="stroke-width:3px;stroke-linecap:round;stroke-linejoin:round;stroke:#222;fill:none" d="M0 0h360"/>
</svg>
