<svg xmlns="http://www.w3.org/2000/svg" width="444" height="228" viewBox="0 0 444 228">
  <defs>
    <style>
      .cls-1 {
        fill: rgba(255,191,191,0.5);
        opacity: 0;
      }

      .cls-2 {
        fill: #dcf5fb;
      }

      .cls-3 {
        fill: #fcf5bd;
      }

      .cls-4 {
        fill: #f2ac58;
      }

      .cls-5, .cls-9 {
        fill: none;
      }

      .cls-10, .cls-5, .cls-6, .cls-9 {
        stroke: #222;
        stroke-linecap: round;
        stroke-linejoin: round;
      }

      .cls-10, .cls-5, .cls-6 {
        stroke-width: 3px;
      }

      .cls-6 {
        fill: #fff;
      }

      .cls-7 {
        fill: #333;
      }

      .cls-8 {
        fill: #fcf28d;
      }

      .cls-9 {
        stroke-width: 2.4px;
      }

      .cls-10 {
        fill: #afdae9;
      }
    </style>
  </defs>
  <g id="SWKDIFDT5300_1" transform="translate(-436 -767)">
    <g id="deco">
      <rect id="BG" class="cls-1" width="444" height="228" transform="translate(436 767)"/>
      <circle id="Ellipse_2" data-name="Ellipse 2" class="cls-2" cx="53.5" cy="53.5" r="53.5" transform="translate(489 767)"/>
      <circle id="Ellipse_2-2" data-name="Ellipse 2" class="cls-3" cx="19.75" cy="19.75" r="19.75" transform="translate(826 834.5)"/>
    </g>
    <g id="img" transform="translate(458 767.074)">
      <g id="그룹_633680" data-name="그룹 633680">
        <g id="그룹_633674" data-name="그룹 633674">
          <path id="패스_14735" data-name="패스 14735" class="cls-4" d="M242.484,226.083h-140v-180l140,10Z"/>
          <path id="패스_14736" data-name="패스 14736" class="cls-5" d="M102.484,226.083v-180l140,10v170"/>
          <rect id="사각형_464367" data-name="사각형 464367" class="cls-6" width="120" height="150" transform="translate(112.484 66.083)"/>
          <path id="패스_14737" data-name="패스 14737" class="cls-6" d="M242.484,56.083H112.523a10,10,0,1,1,0-20H242.484v20"/>
          <g id="그룹_633673" data-name="그룹 633673">
            <path id="패스_14738" data-name="패스 14738" class="cls-7" d="M149.608,101.31v13.821h4.243a1.809,1.809,0,0,1,1.81,1.809h0a1.81,1.81,0,0,1-1.81,1.81H146.8a1.81,1.81,0,0,1-1.81-1.81V101.31A1.809,1.809,0,0,1,146.8,99.5h1A1.809,1.809,0,0,1,149.608,101.31Z"/>
            <path id="패스_14739" data-name="패스 14739" class="cls-7" d="M169.687,115.349h-7.08l-.619,1.855a2.262,2.262,0,0,1-2.145,1.546h0a2.262,2.262,0,0,1-2.13-3.021L162.963,101a2.261,2.261,0,0,1,2.131-1.5h2.161a2.261,2.261,0,0,1,2.13,1.5l5.251,14.726a2.261,2.261,0,0,1-2.13,3.021h-.054a2.262,2.262,0,0,1-2.146-1.546Zm-3.54-10.666-2.324,7.047H168.5Z"/>
            <path id="패스_14740" data-name="패스 14740" class="cls-7" d="M176.564,99.5h0a2.349,2.349,0,0,1,2.306,1.9l2.359,12.111,2.945-12.212a2.348,2.348,0,0,1,2.284-1.8h1.361a2.35,2.35,0,0,1,2.29,1.82l2.822,12.191,2.382-12.115a2.35,2.35,0,0,1,2.306-1.9h.01a2.349,2.349,0,0,1,2.276,2.934l-3.738,14.55a2.35,2.35,0,0,1-2.276,1.765h-1.917a2.35,2.35,0,0,1-2.285-1.8l-2.6-10.864L184.4,116.964a2.351,2.351,0,0,1-2.281,1.786H180.2a2.351,2.351,0,0,1-2.28-1.78l-3.635-14.55A2.349,2.349,0,0,1,176.564,99.5Z"/>
          </g>
          <path id="패스_14741" data-name="패스 14741" class="cls-8" d="M149.1,45.3h-28V15.135a1.216,1.216,0,0,1,1.69-1.12L135.1,19.23l12.309-5.215a1.216,1.216,0,0,1,1.691,1.12Z"/>
          <path id="패스_14742" data-name="패스 14742" class="cls-9" d="M121.1,45.3V15.135a1.216,1.216,0,0,1,1.69-1.12L135.1,19.23l12.309-5.215a1.216,1.216,0,0,1,1.691,1.12V45.3"/>
          <line id="선_2870" data-name="선 2870" class="cls-6" x2="80" transform="translate(132.484 141.565)"/>
          <line id="선_2871" data-name="선 2871" class="cls-6" x2="50" transform="translate(132.484 157.864)"/>
          <line id="선_2872" data-name="선 2872" class="cls-6" x2="50" transform="translate(162.096 174.163)"/>
          <line id="선_2873" data-name="선 2873" class="cls-6" x2="20" transform="translate(192.484 157.864)"/>
          <line id="선_2874" data-name="선 2874" class="cls-6" x2="20" transform="translate(132.484 174.163)"/>
          <line id="선_2875" data-name="선 2875" class="cls-6" x2="130" transform="translate(112.523 45.299)"/>
        </g>
        <g id="그룹_633675" data-name="그룹 633675">
          <path id="패스_14743" data-name="패스 14743" class="cls-6" d="M82.217,144.517h-38v25h38"/>
          <line id="선_2876" data-name="선 2876" class="cls-6" y2="91.667" transform="translate(82.199 134.058)"/>
          <circle id="타원_1412" data-name="타원 1412" class="cls-6" cx="4.5" cy="4.5" r="4.5" transform="translate(77.699 129.236)"/>
        </g>
        <path id="패스_14748" data-name="패스 14748" class="cls-10" d="M200,225v-6.71c0-5.131,4.5-9.29,10.06-9.29h69.877C285.5,209,290,213.159,290,218.29V225"/>
        <g id="그룹_633679" data-name="그룹 633679">
          <path id="패스_14749" data-name="패스 14749" class="cls-6" d="M354.762,211.8a6.645,6.645,0,0,1,2.19,9.137h0a6.649,6.649,0,0,1-9.225,1.794l-68.474-44.066a6.647,6.647,0,0,1-2.19-9.136h0a6.649,6.649,0,0,1,9.225-1.795Z"/>
          <path id="패스_14750" data-name="패스 14750" class="cls-6" d="M288.9,161.093a5.66,5.66,0,0,1,1.621,7.84L282.1,182.024a5.659,5.659,0,0,1-7.808,1.773l-6.546-4.212a5.667,5.667,0,0,1-1.622-7.844l8.425-13.087a5.659,5.659,0,0,1,7.806-1.774Z"/>
          <rect id="사각형_464370" data-name="사각형 464370" class="cls-6" width="66.999" height="32.998" transform="matrix(0.541, -0.841, 0.841, 0.541, 231.937, 179.133)"/>
          <g id="그룹_633678" data-name="그룹 633678">
            <path id="패스_14751" data-name="패스 14751" class="cls-6" d="M265.635,191.309A5.57,5.57,0,0,1,267.312,199l-3.179,4.937a5.567,5.567,0,0,1-7.7,1.664l-30.988-19.942a5.569,5.569,0,0,1-1.679-7.695l3.178-4.938a5.573,5.573,0,0,1,7.7-1.663Z"/>
            <path id="패스_14752" data-name="패스 14752" class="cls-6" d="M302.432,134.125a5.565,5.565,0,0,1,1.678,7.694l-3.181,4.938a5.566,5.566,0,0,1-7.695,1.663l-30.989-19.943a5.567,5.567,0,0,1-1.676-7.694l3.176-4.938a5.573,5.573,0,0,1,7.7-1.663Z"/>
          </g>
        </g>
      </g>
      <line id="선_2877" data-name="선 2877" class="cls-5" x2="360" transform="translate(20 226.083)"/>
    </g>
  </g>
</svg>
