<svg xmlns="http://www.w3.org/2000/svg" xmlns:xlink="http://www.w3.org/1999/xlink" width="444" height="251.002" viewBox="0 0 444 251.002">
  <defs>
    <style>
      .cls-1, .cls-11, .cls-6, .cls-9 {
        fill: #fff;
      }

      .cls-1 {
        stroke: #707070;
      }

      .cls-2 {
        fill: rgba(255,191,191,0.5);
        opacity: 0;
      }

      .cls-3 {
        fill: #dcf5fb;
      }

      .cls-4 {
        fill: #e4ffe1;
      }

      .cls-5 {
        fill: #fbf0e3;
      }

      .cls-11, .cls-12, .cls-13, .cls-16, .cls-17, .cls-6, .cls-7, .cls-9 {
        stroke: #222;
      }

      .cls-13, .cls-16, .cls-17, .cls-6, .cls-7, .cls-9 {
        stroke-width: 3px;
      }

      .cls-7 {
        fill: #7dd3cf;
      }

      .cls-8 {
        fill: #222;
      }

      .cls-13, .cls-9 {
        stroke-linecap: round;
        stroke-linejoin: round;
      }

      .cls-10 {
        fill: #f0f2f5;
      }

      .cls-11, .cls-12, .cls-16, .cls-17 {
        stroke-miterlimit: 10;
      }

      .cls-11, .cls-12 {
        stroke-width: 2px;
      }

      .cls-12, .cls-17 {
        fill: #9df4ef;
      }

      .cls-13, .cls-19 {
        fill: none;
      }

      .cls-14 {
        clip-path: url(#clip-path);
      }

      .cls-15 {
        fill: #e9f6fd;
      }

      .cls-16 {
        fill: #f2ac58;
      }

      .cls-18, .cls-20 {
        stroke: none;
      }

      .cls-20 {
        fill: #222;
      }
    </style>
    <clipPath id="clip-path">
      <rect id="사각형_463522" data-name="사각형 463522" class="cls-1" width="115" height="124.009" transform="translate(93.833 60.445)"/>
    </clipPath>
  </defs>
  <g id="SWKDIFDT4100_2" transform="translate(-1024.75 -1191.857)">
    <g id="deco">
      <rect id="BG" class="cls-2" width="444" height="251" transform="translate(1024.75 1191.857)"/>
      <circle id="Ellipse_2" data-name="Ellipse 2" class="cls-3" cx="71.441" cy="71.441" r="71.441" transform="translate(1067.25 1230.75)"/>
      <circle id="Ellipse_2-2" data-name="Ellipse 2" class="cls-4" cx="26.75" cy="26.75" r="26.75" transform="translate(1350.75 1192)"/>
      <circle id="Ellipse_2-3" data-name="Ellipse 2" class="cls-5" cx="18.816" cy="18.816" r="18.816" transform="translate(1427.117 1309)"/>
    </g>
    <g id="img" transform="translate(1044.524 1172.312)">
      <g id="그룹_631440" data-name="그룹 631440" transform="translate(1.115)">
        <g id="서류봉투" transform="translate(410.911 -117.92) rotate(90)">
          <g id="사각형_462981" data-name="사각형 462981" class="cls-6" transform="translate(230.156 73.27)">
            <rect class="cls-18" width="147" height="183" rx="8"/>
            <rect class="cls-19" x="1.5" y="1.5" width="144" height="180" rx="6.5"/>
          </g>
          <g id="사각형_462982" data-name="사각형 462982" class="cls-7" transform="translate(230.156 73.27)">
            <path class="cls-18" d="M7.5,0h132A7.5,7.5,0,0,1,147,7.5v0A22.5,22.5,0,0,1,124.5,30H22.5A22.5,22.5,0,0,1,0,7.5v0A7.5,7.5,0,0,1,7.5,0Z"/>
            <path class="cls-19" d="M7.552,1.5h131.9A6.052,6.052,0,0,1,145.5,7.552v0A20.948,20.948,0,0,1,124.552,28.5H22.448A20.948,20.948,0,0,1,1.5,7.552v0A6.052,6.052,0,0,1,7.552,1.5Z"/>
          </g>
          <g id="사각형_462983" data-name="사각형 462983" class="cls-7" transform="translate(230.156 226.27)">
            <path class="cls-18" d="M22.5,0h102A22.5,22.5,0,0,1,147,22.5v0a7.5,7.5,0,0,1-7.5,7.5H7.5A7.5,7.5,0,0,1,0,22.5v0A22.5,22.5,0,0,1,22.5,0Z"/>
            <path class="cls-19" d="M22.448,1.5h102.1A20.948,20.948,0,0,1,145.5,22.448v0a6.052,6.052,0,0,1-6.052,6.052H7.552A6.052,6.052,0,0,1,1.5,22.448v0A20.948,20.948,0,0,1,22.448,1.5Z"/>
          </g>
          <rect id="사각형_462984" data-name="사각형 462984" class="cls-8" width="3" height="126" transform="translate(302.156 103.27)"/>
          <g id="타원_1217" data-name="타원 1217" class="cls-6" transform="translate(296.156 81.27)">
            <circle class="cls-18" cx="7.5" cy="7.5" r="7.5"/>
            <circle class="cls-19" cx="7.5" cy="7.5" r="6"/>
          </g>
        </g>
        <g id="매출" transform="translate(136.611 259.416) rotate(-90)">
          <g id="사각형_1134" data-name="사각형 1134" class="cls-9" transform="matrix(0, -1, 1, 0, -0.178, 152)">
            <rect class="cls-18" width="172" height="125" rx="5.392"/>
            <rect class="cls-19" x="1.5" y="1.5" width="169" height="122" rx="3.892"/>
          </g>
          <g id="그룹_631411" data-name="그룹 631411" transform="translate(-0.5)">
            <g id="그룹_631410" data-name="그룹 631410" transform="translate(-5 -71)">
              <rect id="사각형_461403" data-name="사각형 461403" class="cls-10" width="54" height="6" rx="2.266" transform="translate(101.322 78.025) rotate(90)"/>
              <rect id="사각형_463039" data-name="사각형 463039" class="cls-10" width="54" height="6" rx="2.266" transform="translate(87.322 78.025) rotate(90)"/>
              <rect id="사각형_463040" data-name="사각형 463040" class="cls-10" width="54" height="6" rx="2.266" transform="translate(73.322 78.025) rotate(90)"/>
              <rect id="사각형_463041" data-name="사각형 463041" class="cls-10" width="54" height="6" rx="2.266" transform="translate(59.322 78.025) rotate(90)"/>
              <rect id="사각형_463042" data-name="사각형 463042" class="cls-10" width="54" height="6" rx="2.266" transform="translate(45.322 78.025) rotate(90)"/>
              <rect id="사각형_463043" data-name="사각형 463043" class="cls-10" width="54" height="6" rx="2.266" transform="translate(31.322 78.025) rotate(90)"/>
            </g>
            <g id="그룹_631409" data-name="그룹 631409" transform="translate(-47)">
              <rect id="사각형_463044" data-name="사각형 463044" class="cls-10" width="54" height="6" rx="2.266" transform="translate(101.322 76.025) rotate(90)"/>
              <rect id="사각형_463045" data-name="사각형 463045" class="cls-10" width="54" height="6" rx="2.266" transform="translate(87.322 76.025) rotate(90)"/>
              <rect id="사각형_463046" data-name="사각형 463046" class="cls-10" width="54" height="6" rx="2.266" transform="translate(73.322 76.025) rotate(90)"/>
              <g id="그룹_631408" data-name="그룹 631408" transform="translate(38 80.025)">
                <g id="사각형_461816" data-name="사각형 461816" class="cls-11" transform="translate(99.662 14) rotate(90)">
                  <rect class="cls-18" width="8" height="28.34"/>
                  <rect class="cls-19" x="1" y="1" width="6" height="26.34"/>
                </g>
                <g id="사각형_461817" data-name="사각형 461817" class="cls-11" transform="translate(90.322 3) rotate(90)">
                  <rect class="cls-18" width="8" height="19"/>
                  <rect class="cls-19" x="1" y="1" width="6" height="17"/>
                </g>
                <g id="사각형_461818" data-name="사각형 461818" class="cls-12" transform="translate(106.805 25) rotate(90)">
                  <rect class="cls-18" width="8" height="35.482"/>
                  <rect class="cls-19" x="1" y="1" width="6" height="33.482"/>
                </g>
                <g id="사각형_463038" data-name="사각형 463038" class="cls-11" transform="translate(84.322 36) rotate(90)">
                  <rect class="cls-18" width="8" height="13"/>
                  <rect class="cls-19" x="1" y="1" width="6" height="11"/>
                </g>
              </g>
            </g>
          </g>
        </g>
      </g>
      <line id="선_198" data-name="선 198" class="cls-13" x2="360" transform="translate(22.726 258.236)"/>
      <g id="고지서" transform="translate(-23.607 86.254)">
        <g id="마스크_그룹_626227" data-name="마스크 그룹 626227" class="cls-14">
          <g id="다각형_9" data-name="다각형 9" class="cls-15" transform="translate(86.032 70.123)">
            <path class="cls-18" d="M 113.4027862548828 66.18302154541016 L 19.01715278625488 66.18302154541016 C 17.65018463134766 66.18302154541016 16.36418342590332 65.78857421875 15.29821491241455 65.04231262207031 C 14.29833793640137 64.34233093261719 13.51252269744873 63.36066818237305 13.02572250366211 62.20345306396484 C 12.53890705108643 61.0462532043457 12.38667583465576 59.79805374145508 12.5855073928833 58.59380722045898 C 12.79746055603027 57.30994415283203 13.41476821899414 56.11483764648438 14.37067604064941 55.13765335083008 L 61.56349182128906 6.894897937774658 C 62.79653930664062 5.634421348571777 64.44669342041016 4.94025182723999 66.20996856689453 4.94025182723999 C 67.97324371337891 4.94025182723999 69.62339782714844 5.634421348571777 70.8564453125 6.894897937774658 L 118.0492630004883 55.13765335083008 C 119.0051651000977 56.11483764648438 119.6224746704102 57.30994415283203 119.8344268798828 58.59380722045898 C 120.0332641601562 59.79805374145508 119.8810272216797 61.0462532043457 119.3942184448242 62.20345306396484 C 118.9074172973633 63.36066818237305 118.1215972900391 64.34233093261719 117.1217193603516 65.04231262207031 C 116.0557556152344 65.78857421875 114.7697525024414 66.18302154541016 113.4027862548828 66.18302154541016 Z"/>
            <path class="cls-20" d="M 66.2099609375 6.440265655517578 C 64.85357666015625 6.440265655517578 63.58425140380859 6.974246978759766 62.63575744628906 7.943828582763672 L 15.44293975830078 56.18659210205078 C 14.69279479980469 56.95343017578125 14.22933959960938 57.84553527832031 14.06546783447266 58.83813858032227 C 13.91275787353516 59.76300811767578 14.03132629394531 60.7255744934082 14.40834045410156 61.62179183959961 C 14.78536224365234 62.51800918579102 15.39054107666016 63.27590179443359 16.15845489501953 63.81348419189453 C 16.98261260986328 64.39046478271484 17.94443511962891 64.68301391601562 19.01715850830078 64.68301391601562 L 113.4027786254883 64.68301391601562 C 114.4755096435547 64.68301391601562 115.4373016357422 64.39046478271484 116.261474609375 63.81349945068359 C 117.0293960571289 63.27590179443359 117.6345596313477 62.51802825927734 118.0115814208984 61.62181091308594 C 118.3885955810547 60.72559356689453 118.5071640014648 59.76300811767578 118.3544692993164 58.83813858032227 C 118.1905822753906 57.84553527832031 117.7271423339844 56.95343017578125 116.9769973754883 56.18659210205078 L 69.7841796875 7.943828582763672 C 68.835693359375 6.974246978759766 67.56634521484375 6.440265655517578 66.2099609375 6.440265655517578 M 66.20996856689453 3.440261840820312 C 68.28488159179688 3.440261840820312 70.35980224609375 4.242164611816406 71.9287109375 5.845970153808594 L 119.1215209960938 54.08873748779297 C 124.0758666992188 59.15330123901367 120.4876708984375 67.68300628662109 113.4027786254883 67.68300628662109 L 19.01715850830078 67.68300628662109 C 11.93226623535156 67.68300628662109 8.34405517578125 59.15330123901367 13.29841613769531 54.08873748779297 L 60.49123382568359 5.845970153808594 C 62.06014251708984 4.242164611816406 64.13505554199219 3.440261840820312 66.20996856689453 3.440261840820312 Z"/>
          </g>
          <g id="고지서-2" data-name="고지서" transform="translate(102.711 60.446)">
            <g id="사각형_463064" data-name="사각형 463064" class="cls-9" transform="matrix(-1, 0, 0, -1, 98.358, 118.005)">
              <rect class="cls-18" width="98.358" height="118.005" rx="5.392"/>
              <rect class="cls-19" x="1.5" y="1.5" width="95.358" height="115.005" rx="3.892"/>
            </g>
            <g id="그룹_631444" data-name="그룹 631444" transform="translate(20.126 19.23)">
              <g id="그룹_631408-2" data-name="그룹 631408" transform="translate(0 84.891) rotate(-90)">
                <g id="사각형_461816-2" data-name="사각형 461816" class="cls-16" transform="translate(52.243 15.918) rotate(90)">
                  <rect class="cls-18" width="11.145" height="52.243"/>
                  <rect class="cls-19" x="1.5" y="1.5" width="8.145" height="49.243"/>
                </g>
                <g id="사각형_461817-2" data-name="사각형 461817" class="cls-16" transform="translate(43.884) rotate(90)">
                  <rect class="cls-18" width="11.145" height="43.884"/>
                  <rect class="cls-19" x="1.5" y="1.5" width="8.145" height="40.884"/>
                </g>
                <g id="사각형_461818-2" data-name="사각형 461818" class="cls-17" transform="translate(59.209 31.835) rotate(90)">
                  <rect class="cls-18" width="11.145" height="59.209"/>
                  <rect class="cls-19" x="1.5" y="1.5" width="8.145" height="56.209"/>
                </g>
                <g id="사각형_463038-2" data-name="사각형 463038" class="cls-16" transform="translate(46.67 47.753) rotate(90)">
                  <rect class="cls-18" width="11.145" height="46.67"/>
                  <rect class="cls-19" x="1.5" y="1.5" width="8.145" height="43.67"/>
                </g>
              </g>
              <g id="그룹_624" data-name="그룹 624" transform="translate(9.752 0)">
                <path id="패스_1087" data-name="패스 1087" class="cls-8" d="M205.408,116.214h-3.1a1.908,1.908,0,0,1-1.184-.356,1.273,1.273,0,0,1-.472-1.088,1.254,1.254,0,0,1,.472-1.069,1.912,1.912,0,0,1,1.184-.356h9.4a1.924,1.924,0,0,1,1.174.356,1.247,1.247,0,0,1,.481,1.069,1.266,1.266,0,0,1-.481,1.088,1.92,1.92,0,0,1-1.174.356h-3.12v9.9a1.63,1.63,0,0,1-.423,1.175,1.523,1.523,0,0,1-1.156.443,1.555,1.555,0,0,1-1.165-.443,1.607,1.607,0,0,1-.434-1.175Z" transform="translate(-200.652 -113.229)"/>
                <path id="패스_1088" data-name="패스 1088" class="cls-8" d="M224.631,113.179a2.07,2.07,0,0,1,1.213.337,2.1,2.1,0,0,1,.731.934l4.622,11.208a1.371,1.371,0,0,1,0,1.184,1.489,1.489,0,0,1-.944.761,1.45,1.45,0,0,1-1.2-.1,1.876,1.876,0,0,1-.818-.982l-.867-2.272h-5.488l-.848,2.272a1.875,1.875,0,0,1-.818.982,1.491,1.491,0,0,1-1.223.1,1.452,1.452,0,0,1-.934-.761,1.39,1.39,0,0,1,.01-1.184l4.622-11.208a2.1,2.1,0,0,1,.732-.934A2.067,2.067,0,0,1,224.631,113.179Zm-1.733,8.377h3.467l-1.7-4.487h-.077Z" transform="translate(-205.894 -113.179)"/>
                <path id="패스_1089" data-name="패스 1089" class="cls-8" d="M245.33,122.809l-3.293,4.294a1.466,1.466,0,0,1-.5.414,1.675,1.675,0,0,1-.606.173,1.727,1.727,0,0,1-.626-.057,1.309,1.309,0,0,1-.539-.3,1.468,1.468,0,0,1-.511-.972,1.5,1.5,0,0,1,.357-1.126l3.794-4.969-3.524-4.622a1.539,1.539,0,0,1-.337-1.126,1.5,1.5,0,0,1,.491-.972,1.47,1.47,0,0,1,.559-.3,1.724,1.724,0,0,1,.626-.058,1.61,1.61,0,0,1,.6.173,1.494,1.494,0,0,1,.491.414l3.023,3.966,3.024-3.966a1.469,1.469,0,0,1,.481-.4,1.591,1.591,0,0,1,.607-.183,1.726,1.726,0,0,1,.626.058,1.317,1.317,0,0,1,.54.3,1.436,1.436,0,0,1,.5.975,1.632,1.632,0,0,1-.327,1.13l-3.525,4.635,3.794,4.935a1.574,1.574,0,0,1,.347,1.124,1.422,1.422,0,0,1-.5.97,1.314,1.314,0,0,1-.539.3,1.726,1.726,0,0,1-.626.058,1.777,1.777,0,0,1-.616-.173,1.278,1.278,0,0,1-.491-.413Z" transform="translate(-212.362 -113.18)"/>
              </g>
            </g>
          </g>
          <g id="편지봉투" transform="translate(77 117.791)">
            <g id="다각형_6" data-name="다각형 6" class="cls-15" transform="translate(80.665 72.444) rotate(-90)">
              <path class="cls-18" d="M 56.79739761352539 48.65315246582031 L 15.64604759216309 48.65315246582031 C 13.15585803985596 48.65315246582031 10.99235820770264 47.32946395874023 9.858687400817871 45.1122932434082 C 8.725017547607422 42.89512252807617 8.918638229370117 40.36621475219727 10.37662792205811 38.34746551513672 L 30.95230865478516 9.858074188232422 C 32.18894958496094 8.145793914794922 34.10956954956055 7.163753986358643 36.22171783447266 7.163753986358643 C 38.33386611938477 7.163753986358643 40.25449752807617 8.145793914794922 41.49113845825195 9.858074188232422 L 62.06680679321289 38.34746551513672 C 63.52479934692383 40.36621475219727 63.71841812133789 42.89512252807617 62.58474731445312 45.1122932434082 C 61.45107650756836 47.32947540283203 59.2875862121582 48.65315246582031 56.79739761352539 48.65315246582031 Z"/>
              <path class="cls-20" d="M 36.22171783447266 8.663753509521484 C 34.59698486328125 8.663753509521484 33.11958312988281 9.419162750244141 32.16831970214844 10.73629760742188 L 11.5926399230957 39.2257080078125 C 10.47111892700195 40.77858734130859 10.32217407226562 42.72389602661133 11.19422912597656 44.42942047119141 C 12.0662727355957 46.13492965698242 13.73050689697266 47.15315246582031 15.64604187011719 47.15315246582031 L 56.79739379882812 47.15315246582031 C 58.71292877197266 47.15315246582031 60.37716293334961 46.13492965698242 61.24920654296875 44.42942047119141 C 62.12126159667969 42.72389602661133 61.97231674194336 40.77858734130859 60.85079574584961 39.2256965637207 L 40.27511596679688 10.73629760742188 C 39.3238525390625 9.419162750244141 37.84643936157227 8.663753509521484 36.22171783447266 8.663753509521484 M 36.22171783447266 5.663753509521484 C 38.66612243652344 5.663753509521484 41.11052322387695 6.769111633300781 42.7071533203125 8.979827880859375 L 63.28282928466797 37.46923065185547 C 67.10382843017578 42.75984191894531 63.32355117797852 50.15315246582031 56.79739379882812 50.15315246582031 L 15.64604187011719 50.15315246582031 C 9.119884490966797 50.15315246582031 5.339607238769531 42.75984191894531 9.160606384277344 37.46923065185547 L 29.73628616333008 8.979827880859375 C 31.33291244506836 6.769111633300781 33.77731323242188 5.663753509521484 36.22171783447266 5.663753509521484 Z"/>
            </g>
            <g id="다각형_7" data-name="다각형 7" class="cls-15" transform="translate(69.52 0) rotate(90)">
              <path class="cls-18" d="M 56.79739761352539 48.65315246582031 L 15.64604759216309 48.65315246582031 C 13.15585803985596 48.65315246582031 10.99235820770264 47.32946395874023 9.858687400817871 45.1122932434082 C 8.725017547607422 42.89512252807617 8.918638229370117 40.36621475219727 10.37662792205811 38.34746551513672 L 30.95230865478516 9.858074188232422 C 32.18894958496094 8.145793914794922 34.10956954956055 7.163753986358643 36.22171783447266 7.163753986358643 C 38.33386611938477 7.163753986358643 40.25449752807617 8.145793914794922 41.49113845825195 9.858074188232422 L 62.06680679321289 38.34746551513672 C 63.52479934692383 40.36621475219727 63.71841812133789 42.89512252807617 62.58474731445312 45.1122932434082 C 61.45107650756836 47.32947540283203 59.2875862121582 48.65315246582031 56.79739761352539 48.65315246582031 Z"/>
              <path class="cls-20" d="M 36.22171783447266 8.663753509521484 C 34.59698486328125 8.663753509521484 33.11958312988281 9.419162750244141 32.16831970214844 10.73629760742188 L 11.5926399230957 39.2257080078125 C 10.47111892700195 40.77858734130859 10.32217407226562 42.72389602661133 11.19422912597656 44.42942047119141 C 12.0662727355957 46.13492965698242 13.73050689697266 47.15315246582031 15.64604187011719 47.15315246582031 L 56.79739379882812 47.15315246582031 C 58.71292877197266 47.15315246582031 60.37716293334961 46.13492965698242 61.24920654296875 44.42942047119141 C 62.12126159667969 42.72389602661133 61.97231674194336 40.77858734130859 60.85079574584961 39.2256965637207 L 40.27511596679688 10.73629760742188 C 39.3238525390625 9.419162750244141 37.84643936157227 8.663753509521484 36.22171783447266 8.663753509521484 M 36.22171783447266 5.663753509521484 C 38.66612243652344 5.663753509521484 41.11052322387695 6.769111633300781 42.7071533203125 8.979827880859375 L 63.28282928466797 37.46923065185547 C 67.10382843017578 42.75984191894531 63.32355117797852 50.15315246582031 56.79739379882812 50.15315246582031 L 15.64604187011719 50.15315246582031 C 9.119884490966797 50.15315246582031 5.339607238769531 42.75984191894531 9.160606384277344 37.46923065185547 L 29.73628616333008 8.979827880859375 C 31.33291244506836 6.769111633300781 33.77731323242188 5.663753509521484 36.22171783447266 5.663753509521484 Z"/>
            </g>
            <g id="다각형_5" data-name="다각형 5" class="cls-15" transform="translate(-2 20.106)">
              <path class="cls-18" d="M 124.9357299804688 44.08057403564453 L 29.24964904785156 44.08057403564453 C 27.68673133850098 44.08057403564453 26.26669883728027 43.59489440917969 25.1430492401123 42.67604064941406 C 24.11429786682129 41.83479309082031 23.34609794616699 40.63419342041016 22.97991561889648 39.29539108276367 C 22.61374855041504 37.95659255981445 22.66399765014648 36.53214263916016 23.12138175964355 35.28440856933594 C 23.62098121643066 33.92160797119141 24.59616470336914 32.78080749511719 25.94153213500977 31.98537635803223 L 73.78456878662109 3.69847583770752 C 74.78571319580078 3.106542587280273 75.92963409423828 2.793675899505615 77.09268188476562 2.793675899505615 C 78.25572967529297 2.793675899505615 79.39965057373047 3.106542587280273 80.40079498291016 3.69847583770752 L 128.2438354492188 31.98537635803223 C 129.5892028808594 32.78080749511719 130.5643768310547 33.92160797119141 131.06396484375 35.28440856933594 C 131.5213623046875 36.53214263916016 131.5716094970703 37.95659255981445 131.2054290771484 39.29539108276367 C 130.8392639160156 40.63419342041016 130.071044921875 41.83479309082031 129.0423126220703 42.67604064941406 C 127.9186782836914 43.59489440917969 126.498649597168 44.08057403564453 124.9357299804688 44.08057403564453 Z"/>
              <path class="cls-20" d="M 77.09268188476562 4.293670654296875 C 76.19802856445312 4.293670654296875 75.31808471679688 4.534343719482422 74.5479736328125 4.989669799804688 L 26.70491790771484 33.27658081054688 C 24.28297424316406 34.70854187011719 23.94007873535156 37.12019729614258 24.42677307128906 38.89965438842773 C 24.91348266601562 40.67912673950195 26.43602752685547 42.58058166503906 29.24964904785156 42.58058166503906 L 124.9357147216797 42.58058166503906 C 127.7493362426758 42.58058166503906 129.2718811035156 40.67912673950195 129.7585754394531 38.89967346191406 C 130.2452850341797 37.12019729614258 129.9023895263672 34.70854187011719 127.4804077148438 33.27658081054688 L 79.63740539550781 4.989669799804688 C 78.86727905273438 4.534343719482422 77.98731994628906 4.293670654296875 77.09268188476562 4.293670654296875 M 77.09267425537109 1.293670654296875 C 78.50061798095703 1.293670654296875 79.90856170654297 1.664871215820312 81.16423034667969 2.407272338867188 L 129.0072479248047 30.69417953491211 C 136.0150604248047 34.83749008178711 133.0767364501953 45.58058166503906 124.9357147216797 45.58058166503906 L 29.24964904785156 45.58058166503906 C 21.10862731933594 45.58058166503906 18.17030334472656 34.83749008178711 25.1781005859375 30.69417953491211 L 73.02113342285156 2.407272338867188 C 74.27679443359375 1.664871215820312 75.68473052978516 1.293670654296875 77.09267425537109 1.293670654296875 Z"/>
            </g>
          </g>
        </g>
      </g>
    </g>
  </g>
</svg>
