<svg xmlns="http://www.w3.org/2000/svg" width="444" height="251" viewBox="0 0 444 251">
    <g transform="translate(39 63.282)">
        <circle data-name="타원 562" cx="64" cy="64" r="64" transform="translate(266 -2.282)" style="fill:#fbf0e3"/>
        <path data-name="선 359" transform="translate(3.5 185.718)" style="stroke-linejoin:round;stroke-linecap:round;stroke:#222;stroke-width:3px;fill:none" d="M360 0H0"/>
        <g data-name="그룹 628331">
            <g data-name="패스 7379" style="fill:#47bcbf">
                <path d="M22.23 98.5H1.608l6.74-97.192h6.232L22.23 98.5z" style="stroke:none" transform="translate(72.147 86.718)"/>
                <path d="M9.747 2.808 3.215 97h17.393L13.193 2.808H9.747m-2.8-3h9.02L23.852 100H0L6.948-.192z" style="fill:#222;stroke:none" transform="translate(72.147 86.718)"/>
            </g>
            <g data-name="패스 7380" style="fill:#fff">
                <path d="M15.445 61.357H-.445L1.5 7.657l.001-.026v-.027c0-3.366 2.692-6.104 6-6.104s6 2.738 6 6.104v.027l.001.027 1.944 53.699z" style="stroke:none" transform="translate(77 14.861)"/>
                <path d="M7.5 3C5.019 3 3 5.065 3 7.604l-.002.108-1.887 52.145h12.778L12 7.604C12 5.065 9.981 3 7.5 3m0-3C11.642 0 15 3.404 15 7.604l2 55.253H-2L0 7.604C0 3.404 3.358 0 7.5 0z" style="fill:#222;stroke:none" transform="translate(77 14.861)"/>
            </g>
            <g data-name="패스 7382" style="fill:#fff">
                <path d="M9.5 65.825c-3.308 0-6-2.98-6-6.644V59.13L1.55 1.5h15.897l-1.947 57.63-.001.026v.025c0 1.798-.64 3.482-1.8 4.743-1.13 1.226-2.62 1.901-4.2 1.901z" style="stroke:none" transform="rotate(54.97 -33.567 110.668)"/>
                <path d="M9.5 64.325c1.155 0 2.255-.503 3.096-1.418.906-.982 1.404-2.306 1.404-3.726l.002-.101L15.897 3H3.103L5 59.18c0 2.837 2.019 5.145 4.5 5.145m0 3c-4.142 0-7.5-3.646-7.5-8.144L0 0h19l-2 59.181c0 4.498-3.358 8.144-7.5 8.144z" style="fill:#222;stroke:none" transform="rotate(54.97 -33.567 110.668)"/>
            </g>
            <g data-name="패스 7381" style="fill:#fff">
                <path d="M15.448 65.825H-.448l1.947-57.63.001-.026v-.025c0-3.663 2.692-6.644 6-6.644s6 2.98 6 6.644V8.195l1.948 57.63z" style="stroke:none" transform="rotate(125.03 42.65 95.185)"/>
                <path d="M7.5 3C5.019 3 3 5.308 3 8.144l-.002.101-1.895 56.08h12.794L12 8.145C12 5.307 9.981 3 7.5 3m0-3C11.642 0 15 3.646 15 8.144l2 59.18H-2l2-59.18C0 3.646 3.358 0 7.5 0z" style="fill:#222;stroke:none" transform="rotate(125.03 42.65 95.185)"/>
            </g>
            <g data-name="타원 852" transform="translate(72 70.328)" style="fill:#f4f17a;stroke:#222;stroke-width:3px">
                <circle cx="12" cy="12" r="12" style="stroke:none"/>
                <circle cx="12" cy="12" r="10.5" style="fill:none"/>
            </g>
        </g>
        <g data-name="그룹 628332">
            <g data-name="패스 7379" style="fill:#47bcbf">
                <path d="M25.576 148.391H1.581L9.337 1.308h7.436l8.803 147.083z" style="stroke:none" transform="translate(156.416 36.718)"/>
                <path d="M10.76 2.808 3.162 146.891h20.822L15.36 2.808h-4.6m-2.846-3h10.272l8.983 150.083H0L7.914-.192z" style="fill:#222;stroke:none" transform="translate(156.416 36.718)"/>
            </g>
            <g data-name="패스 7380" style="fill:#fff">
                <path d="M15.445 61.357H-.445L1.5 7.657l.001-.026v-.027c0-3.366 2.692-6.104 6-6.104s6 2.738 6 6.104v.027l.001.027 1.944 53.699z" style="stroke:none" transform="translate(162 -35.139)"/>
                <path d="M7.5 3C5.019 3 3 5.065 3 7.604l-.002.108-1.887 52.145h12.778L12 7.604C12 5.065 9.981 3 7.5 3m0-3C11.642 0 15 3.404 15 7.604l2 55.253H-2L0 7.604C0 3.404 3.358 0 7.5 0z" style="fill:#222;stroke:none" transform="translate(162 -35.139)"/>
            </g>
            <g data-name="패스 7382" style="fill:#fff">
                <path d="M9.5 65.825c-3.308 0-6-2.98-6-6.644V59.13L1.55 1.5h15.897l-1.947 57.63-.001.026v.025c0 1.798-.64 3.482-1.8 4.743-1.13 1.226-2.62 1.901-4.2 1.901z" style="stroke:none" transform="rotate(54.97 56.97 167.36)"/>
                <path d="M9.5 64.325c1.155 0 2.255-.503 3.096-1.418.906-.982 1.404-2.306 1.404-3.726l.002-.101L15.897 3H3.103L5 59.18c0 2.837 2.019 5.145 4.5 5.145m0 3c-4.142 0-7.5-3.646-7.5-8.144L0 0h19l-2 59.181c0 4.498-3.358 8.144-7.5 8.144z" style="fill:#222;stroke:none" transform="rotate(54.97 56.97 167.36)"/>
            </g>
            <g data-name="패스 7381" style="fill:#fff">
                <path d="M15.448 65.825H-.448l1.947-57.63.001-.026v-.025c0-3.663 2.692-6.644 6-6.644s6 2.98 6 6.644V8.195l1.948 57.63z" style="stroke:none" transform="rotate(125.03 98.154 92.299)"/>
                <path d="M7.5 3C5.019 3 3 5.308 3 8.144l-.002.101-1.895 56.08h12.794L12 8.145C12 5.307 9.981 3 7.5 3m0-3C11.642 0 15 3.646 15 8.144l2 59.18H-2l2-59.18C0 3.646 3.358 0 7.5 0z" style="fill:#222;stroke:none" transform="rotate(125.03 98.154 92.299)"/>
            </g>
            <g data-name="타원 852" transform="translate(158 20.328)" style="fill:#f4f17a;stroke:#222;stroke-width:3px">
                <circle cx="12" cy="12" r="12" style="stroke:none"/>
                <circle cx="12" cy="12" r="10.5" style="fill:none"/>
            </g>
        </g>
        <path data-name="패스 3569" d="M27.239 1.071 143.456-.994l3.128 4.271-26.529 70.2H-.473l-3.636-3.917z" transform="translate(180.38 92.688)" style="fill:#afdae9;stroke-linejoin:round;stroke:#222;stroke-width:3px"/>
        <g data-name="패스 3570" style="fill:#fff">
            <path d="M120.22 73.382H.762l27.33-71.403h119.606L120.22 73.382z" style="stroke:none" transform="translate(176.362 88.77)"/>
            <path d="M28.435 2.48 1.49 72.881h118.388L146.97 2.479H28.435m-.688-1h120.679l-27.863 72.403H.035L27.747 1.479z" style="fill:#707070;stroke:none" transform="translate(176.362 88.77)"/>
        </g>
        <g data-name="사각형 461160" style="fill:#afdae9;stroke:#222;stroke-width:3px">
            <path style="stroke:none" d="M0 0h105.286v9.651H0z" transform="translate(211.462 177.567)"/>
            <path style="fill:none" d="M1.5 1.5h102.286v6.651H1.5z" transform="translate(211.462 177.567)"/>
        </g>
        <path data-name="선 351" transform="translate(204.882 91.145)" style="stroke-linecap:round;stroke:#222;stroke-width:3px;fill:none" d="m0 0 118.619.073"/>
        <path data-name="선 352" transform="translate(197.863 108.692)" style="stroke-linecap:round;stroke:#222;stroke-width:3px;fill:none" d="M0 0h118.447"/>
        <path data-name="선 353" transform="translate(190.844 126.241)" style="stroke-linecap:round;stroke:#222;stroke-width:3px;fill:none" d="M0 0h118.447"/>
        <path data-name="선 354" transform="translate(183.824 143.788)" style="stroke-linecap:round;stroke:#222;stroke-width:3px;fill:none" d="M0 0h118.447"/>
        <path data-name="선 355" transform="translate(176.805 161.218)" style="stroke-linecap:round;stroke:#222;stroke-width:3px;fill:none" d="M0 .118 119.695 0"/>
        <path data-name="선 356" transform="translate(176.805 91.145)" style="stroke-linecap:round;stroke:#222;stroke-width:3px;fill:none" d="M0 70.191 28.076 0"/>
        <path data-name="선 356" transform="translate(206.636 91.145)" style="stroke-linecap:round;stroke:#222;stroke-width:3px;fill:none" d="M0 70.191 28.076 0"/>
        <path data-name="선 356" transform="translate(236.468 91.145)" style="stroke-linecap:round;stroke:#222;stroke-width:3px;fill:none" d="M0 70.191 28.076 0"/>
        <path data-name="선 356" transform="translate(266.299 91.145)" style="stroke-linecap:round;stroke:#222;stroke-width:3px;fill:none" d="M0 70.191 28.076 0"/>
        <path data-name="선 356" transform="translate(296.5 91.218)" style="stroke-linecap:round;stroke:#222;stroke-width:3px;fill:none" d="M0 70 27 0"/>
        <path data-name="선 357" transform="translate(275.073 166.218)" style="stroke-linecap:round;stroke:#222;stroke-width:3px;fill:none" d="M0 12.302.428 0"/>
        <path data-name="선 358" transform="translate(242.5 166.218)" style="stroke-linecap:round;stroke:#222;stroke-width:3px;fill:none" d="M.109 12.302 0 0"/>
        <path data-name="합치기 18" d="M216.334-4025.3a3.022 3.022 0 0 1-.412.028h-46.963q-.1 0-.191-.006a15.2 15.2 0 0 1-14.768-15.2 15.208 15.208 0 0 1 13.291-15.092q-.034-.484-.035-.978a13.783 13.783 0 0 1 13.838-13.727 13.838 13.838 0 0 1 13.026 9.081 12.88 12.88 0 0 1 8.432-3.122 12.819 12.819 0 0 1 12.87 12.768 12.718 12.718 0 0 1-.3 2.744 13.244 13.244 0 0 1 2.526-.242c6.924 0 12.536 5.33 12.536 11.906s-5.612 11.907-12.536 11.907q-.664-.006-1.314-.067z" transform="translate(-155.999 4008.5)" style="fill:#fff;stroke:#222;stroke-width:3px"/>
        <path data-name="합치기 19" d="M6.81 16.088q0-.254.018-.5A7.815 7.815 0 0 1 7.807.019a7.891 7.891 0 0 1 .827.043 3.022 3.022 0 0 1 .51-.043h21.209a3 3 0 0 1 .9.137A6.785 6.785 0 0 1 32.7 0a6.285 6.285 0 0 1 6.44 6.117 6.285 6.285 0 0 1-6.44 6.116 6.8 6.8 0 0 1-1.3-.124 6.56 6.56 0 0 1-6.459 7.97 6.616 6.616 0 0 1-4.332-1.6 7.119 7.119 0 0 1-13.8-2.387z" transform="rotate(180 141.57 14.929)" style="fill:#fff;stroke:#222;stroke-width:3px"/>
    </g>
</svg>
