<svg xmlns="http://www.w3.org/2000/svg" width="444" height="224" viewBox="0 0 444 224">
    <defs>
        <clipPath id="bxq2ntsrza">
            <path data-name="사각형 462545" transform="translate(-.278 -.028)" style="stroke:#707070;fill:#fff" d="M0 0h35v32H0z"/>
        </clipPath>
    </defs>
    <path transform="translate(42.5 220)" style="stroke-width:3px;stroke-linejoin:round;stroke-linecap:round;stroke:#222;fill:none" d="M0 0h360"/>
    <path data-name="패스 10108" d="m825.541 273.451 1.567 2.126s2.549-2.048 3.329-2.126.778 3.127.778 3.73-3.128 2.6-3.128 2.6a3.848 3.848 0 0 0 3.128 1.115c1.762-.312 3.723-.712 3.723-.712s2.349 1.6 2.548 0-.783-2.807 1.564-3.607 2.152-2.648 1.567-3.127 1.564-1.681 3.327-3.083 5.087-3.406 5.087-3.406 1.762-3.406 2.742-3.406 2.544-1-1.175-2.4a17.4 17.4 0 0 0-6.654-1.2 10.371 10.371 0 0 1-3.722 1.4c-1.371 0-4.108 1-5.285.8s-3.523-1.4-4.892 0-3.135 3.406-3.135 3.406-1.959-1-2.742.4a3.069 3.069 0 0 0 0 3.607 19.161 19.161 0 0 1 1.373 3.883z" transform="translate(-519.41 -243.492)" style="fill:#e4e4e4"/>
    <path data-name="패스 10109" d="M773.874 445.249a32.731 32.731 0 0 1-5.677-4.007c-1.763-1.8-7.045-.2-8.811-3.4s-.39-1.8-3.912-4.008a54.605 54.605 0 0 0-6.264-3.406s-3.136 1.4-3.721 0-3.524-3.206-6.655-2a33.457 33.457 0 0 1-5.287 1.6s-4.7-.389-3.722-2 1.494-4.015-.133-3.812-5.732-.476-4.174-1.24 2.733-2.568 1.563-3.57-4.5 3.607-5.87 2.4-3.717-3-3.13-5.606 1.564-5.611 2.936-5.409 3.914 2.385 4.5-.009 4.7 0 4.7 0 .387 4.19 2.137 4.613c-.5-.121.148-5.215.288-5.721.858-3.113 2.484-3.546 5.125-5.044 2.829-1.6 3.793-2.378 4.471-5.618.619-2.965-.407-3.76 3.012-5.474.074.476.443 3.516 1.17 2.733a20.818 20.818 0 0 1 3.567-2.735s2.545-1.176-1.37-1.979-2.351-4.4 1.174-5.005 1.956 3 1.956 3 3.328 0 4.5 1.2c2.477 2.533 2.935-.36 2.35-2.572-.565-2.137-2.505-3.66-3.508-5.564-1.573-2.99-2.227-5.975-4.629-8.556-1.789-1.924-2.829-.726-5.447-1.142-.353-3.569-3.731-6.354-7.288-6.685-5.4-.5-4.444 4.773-4.266 8.418.1 2.042.63 5.695-1.578 5.388-1.671-.232-2.6-3.6-3.344-4.389-3.889-4.132-9.462-8.587-3.026-13.544a4.2 4.2 0 0 0 1.252-1.494 5.645 5.645 0 0 1 .309-1.11 2.822 2.822 0 0 1-.309 1.11c-.158.946-.055 2.17 1.483 2.3a3.573 3.573 0 0 0 3.138-1c-1.057 1.14-2.266-2.414-2.346-2.8-.361-1.651.5-3.987 1.266-5.4.641-1.192 1.777-3.156 3.315-3.248 2.579-.154 2.257 3.348 4.227 3.637 1.371.2 1.371 1.8 1.371 1.8s0 3.606-1.175 3.806-2.542 0-2.741 1.2 1.37 1.2 3.133 1.2 2.154 2.6 4.112 3.606a7.622 7.622 0 0 0 3.871.8s1.023 1.2 1.023-1.205c0-3.235 2.016-6.161 1.379-9.476-.387-2.014-1.949-2.4-2.884-3.913a14.384 14.384 0 0 1-1.629-4.636 36.223 36.223 0 0 0-3.133-2.4 16.124 16.124 0 0 1-3.521-4.208 6.926 6.926 0 0 0-4.311-2.4c-2.543-.2-5.87-.6-7.437 2.2a9.679 9.679 0 0 0-.979 5.9l2.149 2.31a2.977 2.977 0 0 1 1.178 4.006c-1.178 2.806-2.155 1.2-2.155 0s-.192.6-1.564-.8-1.369-4.207-1.369-4.207l-1.96-3.2a2.013 2.013 0 0 1 0-2.2c.784-1 2.547-4.149 2.547-4.149s-.979-2.747-3.524 0a6.5 6.5 0 0 0-1.175 6.353l-1.068 6.009s-1.673-.4-1.479 1.2a16.68 16.68 0 0 1-.013 3.406h-4.372a2.184 2.184 0 0 0-2.467-1.8c-2.15.2-6.85 1.2-6.85 1.2s.979-1.4-.98-1.6a13.927 13.927 0 0 1-4.7-2H694.4l-2.547-2.2s-2.938-1.4-4.306-.2-1.763 4.809-3.329 4.409a10.511 10.511 0 0 0-3.522-2.806c-2.155-1-3.331-.6-7.439-1.6a33.191 33.191 0 0 1-5.09-1.6c-.981-.6-2.35-1-6.852.8s-1.764 2-3.328 3.006a3.69 3.69 0 0 0-1.371 3.205 6.629 6.629 0 0 1-1.368 4.6c-1.765 2.609.975 2.609 4.5 3.21s.586 2.8.586 2.8l-2.349.8s-1.176.6-1.176 2.8 1.371 3.205 4.111 4.206a4.415 4.415 0 0 1 3.056 3.205s1.447.8 3.208-2.2c.587-1 .925-.729 2.547-1.2 2.739-.8 3.525-2.6 5.286-2.2s5.285.8 6.458 1.8a13.578 13.578 0 0 1 3.722 6.01c.587 2.4 1.173 5.818 2.35 5.813.917 0 1.194-.233 2.543 1 1.763 1.6 4.7 3.807 3.917 9.215s.978 9.944 3.717 11.582 4.7 7.048 6.656 8.451 2.546 1.2 4.112 2.8.783 3.2 3.527 4.806 5.675 3.207 6.652 3.207a18.574 18.574 0 0 1 5.288 1.6 8.942 8.942 0 0 1 3.126 3s4.117 3.205 5.094 3.205 1.372-1.8 2.349 0 1.372 1.4-.978 4.808-.781 5.008-.781 5.008-1.958.5 1.176 5.059 2.739 4.757 6.457 7.361 1.369 8.614 1.369 9.416a28.152 28.152 0 0 1-1.564 7.211c-1.174 3.4-1.567 7.813-2.35 10.415s-2.152 8.216-.784 11.02 3.72 6.41 6.656 6.811 2.348-3.005 2.348-3.005l-1.76-3.4.587-5.209a2.793 2.793 0 0 1 1.223-3.809c2.5-1.4 1.911-3.005 1.715-4.207s1.371-.6 1.957-1.8 2.348.159 3.325-1.525a7.445 7.445 0 0 0 .787-3.883l3.522-2.605c3.525-2.6 3.131-5.408 4.7-7.21s2.545-2.4 3.523-2.4 3.916-3 3.916-3v-.8a8.155 8.155 0 0 1 0-3.206c.389-1.2 2.739.047 4.108-.178s.2-2.327.2-2.327l.991-3.654z" transform="translate(-413.963 -291.547)" style="fill:#e4e4e4"/>
    <path data-name="패스 10110" d="M931.753 270.174c-3.914.2-3.477-.5-4.307-3.4-.547-1.92-8.387-2.9-9.738-2.984-3.177-.195-5.885 1.287-8.841 2.183-1.291.391-3.629.3-4.7.846-1.321.668-1.884 2.672-3.24 3.263-1.872.815-5.75.334-8.076 1.051a29.829 29.829 0 0 1-8.925 1.562c1.751 3.017 4.154 3.3-.717 5.165-1.372.525-5.479 1.127-5.089 2.129s1.563 5.008 4.11 5.208c4.623.364 5.45-2.277 8.489 1.734a21.212 21.212 0 0 1 3.6 7.087c.5 1.65 1.538 3.021 1.979 4.707s.05 4.016.385 5.643c.275 1.328.984 2.385.788 3.761-.129.9-1.851.941-1.342 2.512.587 1.8 1.565 2.8 1.565 6.208s3.917 4.407 4.9 5.808c.948 1.358 3.911 3.09 4.1 3.2-.825-.479-.34-6.529-.072-7.266.873-2.4 4.809-8.183 7.4-9.374 1.848-.849 2.707-.669 4.217-2.086 1.385-1.295 2.031-2.816 3.691-4.027 3-2.19 4.325-2.546 4.271-6.383-.073-5.534.964-11.721 1.932-17.135.5-2.8 2.455-4.008 2.848-5.009s3.72-3 3.72-3 .968-1.604-2.948-1.403z" transform="translate(-553.44 -245.884)" style="fill:#e4e4e4"/>
    <path data-name="패스 10111" d="M341.706 335.912a11.365 11.365 0 0 1-2.234-.724 26.458 26.458 0 0 1-3.447-3.158c-1.905-1.677-11.655-7.324-12.719-2-1.981-.769-4.2-.118-6.234-.633.838-3.242-5.817-4.445-7.953-5.625-1.074-.592-3.083-2.7-4.125-2.789-2.893-.251-.774.921-2.353 1.872-4.8 2.894-14.191 4.293-16.26-2.4-5.116-.265-19.008 4.324-15.039.227 1.2-2.726 11.247-4.1 9.869-8.955-.517-1.827-9.333-4.357-11.533-5.534-2.867-1.529-5.137-2.109-6.932 1.092-.587 1.049.086 2.675-1.034 3.644-.965.834-2.72.2-3.879.788-2.233 1.14-4.824 4.772-6.92 6.425-3.335 2.631-3.507 2.157-7.12 1.826-3.577-.33-4.707 1.123-6.665 3.817-1.914 2.643-3 2.917-5.585 4.347-2.625 1.451-2.466 3.444-4.933 4.978-3.071 1.911-7.024.836-10.467 1.815-.416 4.691-9.268 4.465-7.8 7.991.111.267-2.119-.657-2.42-1.011a3.858 3.858 0 0 1-.386-3.679c1.308-3.144 3.653-2.138.625-6.139-2.4-3.163-5.516-4.141-8.61-6.073-1.2 1.633-3.2 1.3-3.962 3.528-1.6-1.323-10.609 9.851-11.341 11.227a11.959 11.959 0 0 0-.1 8.9c.822 1.758 4.208 2.682 4.376 4.709.356 4.293-6.319 6.451-8.755 8.069-1.6 1.069-2.917 3.091-4.19 4.524-.832.938-2.122 1.774-2.188 3.041-.082 1.461 1.965 2.185 1.383 3.824-.855 2.392-3.923.776-5.358 2.053-1.795 1.6-1.117 3.519-.949 5.639.65-.2-.717 8.709-3.384 11.5-4 4.19-2.958 5.762-3.024 10.721-.025 1.706-1.286 3.109-.458 4.812a37.986 37.986 0 0 0 3.482 6.021c3.358 3.556 5.244 4.2 10.5 2.9 4.244-1.053 5.412-1.879 9.527-1.185-1.051 4.421.165 4.857 2.332 8.332 2.681 4.3-1.238 7.422-.335 11.395.41 1.8 2.049 2.923 2.609 4.659.387 1.206-.065 2.663.385 3.947.459 1.313 1.912 2.422 2.531 3.779.709 1.562.657 3.2 1.783 4.646 2.178-2.362 4.917-.492 7.427-2.135 2.463-1.615 5.292-9.2 6.068-9.139.131-1.626.761-3.293-.352-4.687 1.659-.858 5.148-3.108 5.813-4.85-.244-.209-2.593-7.1-.993-10.558 1.435-3.1 4.539-4.649 6.7-7.1 2.482-2.818 2.294-7.005 4.578-9.658 1.228-1.424 4.283-2.69 5.949-3.705 3.189-1.949 9.284-6.626 11.973-1.715 1.308 2.4-.387 11.629 4.357 11.493 2.705-.077 1.971-4.746 3.014-6.418 1.409-2.258 4.473-3.475 6.024-5.764 1.194.579 2.129.125 2.688-1.141.8 1.264 1.581 3.888 2.253 4.885.586.87 0 1.321.966 2.034.289.214 2.951.975 3.1 1.853.7 4.255 1.381 10.631 6.161 12.6-.862-2.948-1.114-4.57-2.713-6.683-1.984-2.628-2.643-3-1.637-6.362 1.88 1.884 7.768 6.846 8.4.755.273-2.635-3.934-3.48-3.223-6.161.61-2.313 3.232-1.58 4.957-1.97 3.756-.844 7.626-3.6 8.856-7.448 1.4-4.385 4.116-6.821 3.814-5.14 2.773-.808 4.862-3.686 1.621-5.711.628-3.83 4.5-3.83 6.622-6.212 2.532-2.836 8.03-9.637 4.853-13.636-1.112-1.4-3.881-.447-3.683-2.68.062-.668 3.725-3.787 4.275-4.236 2.14-1.741 3.891-1.992 6.8-1.735.821.071 3.563 1.012 4.163.816 1.6-.529.8-2.413 2.248-3.772 1.612-1.512 3.722-1.7 3.646 1.031 1.153-1.369 1.382 1.088-1.063 3.724-3.68 3.962-3.457 6.216-2.533 11.528 3.638-.616 4.332-7.408 6.715-9.045-3.9-5.4 5-6.023 7.227-7.061 1.64-.761 3.424-2.27 4.894-3.13s1.835.532 1.947-1.922c.018-.382-1.419-1.974-1.654-2.4 1.526.743 3.358-1.882 5.6-1.609.817 1 1.773 1.734 2.607 2.72 1.145-1.176 3.086-4.558 2.388-5.8a2.513 2.513 0 0 0-1.563-.999z" transform="translate(-104.676 -271.601)" style="fill:#e4e4e4"/>
    <path data-name="패스 10113" d="M503.176 643.1a31.27 31.27 0 0 1-4.405-4.356s-1.026-2.1-1.763-3.456-2.787-4.507-2.787-4.507a16.561 16.561 0 0 0-1.176 4.358c-.44 2.853-2.79 1.953-2.79 1.953l-.879-1.653s.44-3.906-.443-3.607a16.88 16.88 0 0 1-2.934.451l-3.376.6s1.465 1.5-1.176 1.654-4.992 3.605-6.166 4.807-4.064-.165-5.286 1.5c0 0-2.5 2.555-2.057 5.258a7.834 7.834 0 0 0 2.057 4.208v3.306s-.44 1.953 1.468 1.653a22.781 22.781 0 0 1 4.846.03 16.812 16.812 0 0 1 5.138-2.136c2.2-.3 1.615-2.7 4.111 0s2.5 2.425 4.259 3.317 3.229 3.572 3.229 3.572 2.2.131 4.7 0 1.906 1.395 4.109-3.572 3.815-4.818 4.4-4.969.294-2.854 1.176-4.206 1.172-.45 0-3.3-2.642.15-4.255-.905z" transform="translate(-297.329 -475.027)" style="fill:#52c1b3"/>
    <path data-name="패스 10115" d="M519.275 609.642c-4.7-2.6-7.195-2.152-7.195-2.152l-3.817-.751s-1.616-1.927 0 1.742 2.5.307 3.963 1.162 2.644 1.606 2.351 2.957.293 1.8 2.2 1.954a14.3 14.3 0 0 0 4.4 0c1.326-.3 1.767-.249 2.5.927a2.445 2.445 0 0 0 2.2 1.026l-2.5-3.306s.594-.959-4.102-3.559z" transform="translate(-322.091 -459.699)" style="fill:#52c1b3"/>
    <path data-name="패스 9490" d="M428.368 12369.01c-39.918-62.105-86.953-66.034-140.215-58.356" transform="translate(-117.817 -12274.144)" style="stroke-dasharray:2 8;stroke-width:3px;stroke-linecap:round;stroke:#222;fill:none"/>
    <path data-name="패스 9489" d="M227.212 12424.92s22.222-21.074 51.293-18.8 42.435 18.8 42.435 18.8" transform="translate(-155.043 -12310.884)" style="stroke-dasharray:2 8;stroke-width:3px;stroke-linecap:round;stroke:#222;fill:none"/>
    <path data-name="패스 10572" d="M227.212 12424.92s25.169-28.233 54.24-25.964a47.814 47.814 0 0 1 39.488 25.964" transform="translate(13.272 -12263.061)" style="stroke-dasharray:2 8;stroke-width:3px;stroke-linecap:round;stroke:#222;fill:none"/>
    <g>
        <g data-name="그룹 626257" transform="translate(152.414 124.921)">
            <path data-name="패스 3225" d="M205.033 152.917H77.145a5.132 5.132 0 0 1-5.132-5.132v-80.4a5.132 5.132 0 0 1 5.132-5.132h127.888a5.132 5.132 0 0 1 5.132 5.132v80.4a5.132 5.132 0 0 1-5.132 5.132" transform="translate(-70.994 -62.255)" style="fill:#b1eceb"/>
            <rect data-name="사각형 461082" width="138.152" height="90.662" rx="6.444" transform="translate(1.018)" style="stroke-width:3px;stroke-linejoin:round;stroke:#222;fill:none"/>
            <path data-name="패스 3226" d="M202.775 150.045H82.712a2.569 2.569 0 0 1-2.568-2.569V74.9c0-1.419 1.15-2.569 2.568-3.433h120.063c1.418.863 2.569 2.013 2.569 3.433v72.572a2.569 2.569 0 0 1-2.569 2.569" transform="translate(-72.559 -64.131)" style="fill:#fff"/>
            <path data-name="패스 3227" d="M202.775 150.045H82.712a2.569 2.569 0 0 1-2.568-2.569V74.9c0-1.419 1.15-2.569 2.568-3.433h120.063c1.418.863 2.569 2.013 2.569 3.433v72.572a2.569 2.569 0 0 1-2.569 2.573z" transform="translate(-72.65 -64.131)" style="stroke-width:3px;stroke-linejoin:round;stroke:#222;fill:none"/>
            <path data-name="패스 3228" d="M215.549 171.8v3.608h-12.987V171.8a2.886 2.886 0 0 1 2.886-2.886h7.215a2.886 2.886 0 0 1 2.886 2.886" transform="translate(-180.351 -83.968)" style="fill:#d9f3ed"/>
            <path data-name="패스 3229" d="M215.549 171.8v3.608h-12.987V171.8a2.886 2.886 0 0 1 2.886-2.886h7.215a2.886 2.886 0 0 1 2.886 2.886z" transform="translate(-180.351 -83.968)" style="stroke-width:3px;stroke-linejoin:round;stroke:#222;fill:none"/>
            <path data-name="패스 3230" d="M101.4 171.8v3.608H88.413V171.8a2.886 2.886 0 0 1 2.886-2.886h7.215a2.886 2.886 0 0 1 2.886 2.886" transform="translate(24.709 -83.968)" style="fill:#d9f3ed"/>
            <path data-name="패스 3231" d="M101.4 171.8v3.608H88.413V171.8a2.886 2.886 0 0 1 2.886-2.886h7.215a2.886 2.886 0 0 1 2.886 2.886z" transform="translate(24.709 -83.968)" style="stroke-width:3px;stroke-linejoin:round;stroke:#222;fill:none"/>
            <path data-name="패스 3232" d="M139.382 182.277c-1.5 1.673 2.85.53-135.695.877a3.005 3.005 0 0 1 0-5.977h133.8c2.433 0 3.564 3.272 1.9 5.1" transform="translate(-1 -85.651)" style="stroke-width:3px;stroke:#222;fill:#fff"/>
            <text data-name="Job Find" transform="translate(69.585 33.143)" style="fill:#222;font-size:16px;font-family:ArialRoundedMTBold,Arial Rounded MT Bold;letter-spacing:-.05em"><tspan x="-30.345" y="0">Job Find</tspan></text>
            <g data-name="그룹 630700">
                <g data-name="마스크 그룹 626210" transform="translate(27.864 42.171)" style="clip-path:url(#bxq2ntsrza)">
                    <g data-name="그룹 842" transform="translate(2.184 4.477)">
                        <path data-name="패스 1448" d="M253.116 156v-15.967c0-2.937-3.773-5.339-8.383-5.339h-13.97c-4.61 0-8.383 2.4-8.383 5.339V156z" transform="translate(-221.953 -117.807)" style="fill:#f2ac58"/>
                        <ellipse data-name="타원 71" cx="6.403" cy="6.556" rx="6.403" ry="6.556" transform="translate(9.391)" style="stroke-width:2.994px;stroke-linejoin:round;stroke-linecap:round;stroke:#222;fill:#fff"/>
                        <path data-name="패스 1449" d="M252.486 155.811v-13.893c0-3.628-3.773-6.6-8.383-6.6h-13.97c-4.61 0-8.383 2.968-8.383 6.6v13.893" transform="translate(-221.75 -118.024)" style="stroke-width:2.994px;stroke-linejoin:round;stroke-linecap:round;stroke:#222;fill:none"/>
                        <path data-name="선 337" transform="translate(24.759 30.41)" style="stroke-width:2.988px;stroke-linejoin:round;stroke-linecap:round;stroke:#222;fill:none" d="M0 7.376V0"/>
                        <path data-name="선 338" transform="translate(6.83 30.41)" style="stroke-width:2.988px;stroke-linejoin:round;stroke-linecap:round;stroke:#222;fill:none" d="M0 0v7.376"/>
                    </g>
                </g>
                <path data-name="선 1607" transform="translate(77.981 63.926)" style="stroke-width:3px;stroke-linejoin:round;stroke-linecap:round;stroke:#222;fill:none" d="M0 0h33.748"/>
                <path data-name="선 1608" transform="translate(77.981 71.98)" style="stroke-width:3px;stroke-linejoin:round;stroke-linecap:round;stroke:#222;fill:none" d="M0 0h33.946"/>
                <path data-name="선 1836" transform="translate(77.981 51.643)" style="stroke-width:3px;stroke-linejoin:round;stroke-linecap:round;stroke:#222;fill:none" d="M0 .283 17.105 0"/>
            </g>
        </g>
    </g>
    <g transform="translate(286.59 69.308)">
        <path data-name="패스 3581" d="M94.132 81a16.354 16.354 0 0 1 16.132 16.568 16.812 16.812 0 0 1-1.83 7.644l-13.15 24.61a1.18 1.18 0 0 1-.077.14 1.193 1.193 0 0 1-2.149 0l-.077-.14-13.15-24.61A16.812 16.812 0 0 1 78 97.568 16.354 16.354 0 0 1 94.132 81z" transform="translate(-78 -81)" style="stroke-miterlimit:10;fill:#f2ac58;stroke-width:3px;stroke:#222"/>
        <circle data-name="타원 576" cx="5.296" cy="5.296" transform="translate(10.68 10.869)" style="fill:#fff" r="5.296"/>
    </g>
    <g data-name="위치" transform="translate(58.464 112.091)">
        <path data-name="패스 3581" d="M87.705 81A9.839 9.839 0 0 0 78 90.967a10.114 10.114 0 0 0 1.1 4.6l7.911 14.806a.709.709 0 0 0 .046.084.718.718 0 0 0 1.293 0l.046-.084 7.911-14.806a10.114 10.114 0 0 0 1.1-4.6A9.839 9.839 0 0 0 87.705 81z" transform="translate(-78 -81)" style="stroke-miterlimit:10;fill:#f2ac58;stroke-width:3px;stroke:#222"/>
        <circle data-name="타원 576" cx="3.186" cy="3.186" r="3.186" transform="translate(6.613 6.539)" style="fill:#fff"/>
    </g>
    <g data-name="위치" transform="translate(331.507 143.841)">
        <path data-name="패스 3581" d="M87.705 81A9.839 9.839 0 0 0 78 90.967a10.114 10.114 0 0 0 1.1 4.6l7.911 14.806a.709.709 0 0 0 .046.084.718.718 0 0 0 1.293 0l.046-.084 7.911-14.806a10.114 10.114 0 0 0 1.1-4.6A9.839 9.839 0 0 0 87.705 81z" transform="translate(-78 -81)" style="stroke-miterlimit:10;fill:#f2ac58;stroke-width:3px;stroke:#222"/>
        <circle data-name="타원 576" cx="3.186" cy="3.186" r="3.186" transform="translate(6.613 6.539)" style="fill:#fff"/>
    </g>
    <g>
        <path data-name="합치기 21" d="m13.882 2.354 13.227 16.93L11.714 26.4q-.366.148-.709.318L6.426 22.3 0 25.822 7.742 33.3l.034.087q.051.126.106.246v10.011l7-2.173v-5.585q.289-.1.578-.214l16.378-5.7 2.609 21.248 5.98-2.652.827-21.868 12.727-4.429c3.209-1.3 5.4-6.157 4.157-9.23s-6.192-5.048-9.4-3.751l-12.5 5.78L19.985 0z" transform="scale(-1) rotate(29 75.538 -340.307)" style="fill:#7dd3cf;stroke-width:3px;stroke:#222"/>
    </g>
</svg>
