<svg xmlns="http://www.w3.org/2000/svg" width="444" height="223" viewBox="0 0 444 223">
    <path data-name="패스 10599" d="M-7111.659 16610.436s.891-17.262 12.261-21 62.8 1.918 110.894 0 126.561-8.723 143.95-7.455 34.5 5.381 38.356 23.008 2.61 58.311 2.455 85.773 19.938 104.34 4.583 104.275-18.281.117-116.424 0-163.6 0-191.125 0-6.692-44.408-4.949-57.236-.001-127.365-.001-127.365z" transform="translate(7180.383 -16573.821)" style="fill:#e9e9e9"/>
    <path data-name="패스 10603" d="M-5925.975 16684.262s115.261 4.789 126.093 2.779 181.742-2.779 181.742-2.779" transform="translate(5995 -16575.999)" style="stroke:#fff;stroke-width:8px;fill:none"/>
    <path data-name="패스 10604" d="M-5681.989 16586.559s2.185 95.723 2.846 106.041 4 17.441 21.783 31.094 20.795 36.611 22.069 51.355 1.561 17.863 2.116 21.689" transform="translate(5995 -16575.999)" style="stroke:#fff;stroke-width:8px;fill:none"/>
    <path data-name="패스 10605" d="M-5837.883 16633.631s70.212-5.576 85.671-8.545 73.952-8 73.952-8" transform="translate(5995.626 -16575.999)" style="stroke:#fff;stroke-width:8px;fill:none"/>
    <path data-name="패스 10607" d="M-5723.646 16681.455s11.475 55.281 0 77.666-72.97 14.779-72.97 14.779" transform="translate(5995 -16573.192)" style="stroke:#fff;stroke-width:8px;fill:none"/>
    <path data-name="패스 12230" d="M-5690.28 16592.346s-14.945 81-14.284 91.318" transform="translate(5855.175 -16575.999)" style="stroke:#fff;stroke-width:8px;fill:none"/>
    <g transform="translate(130.128 5.001)">
        <path data-name="패스 3581" d="M87.787 81A9.921 9.921 0 0 0 78 91.051a10.2 10.2 0 0 0 1.11 4.637l7.978 14.93a.715.715 0 0 0 .047.085.724.724 0 0 0 1.3 0l.047-.085 7.978-14.93a10.2 10.2 0 0 0 1.11-4.637A9.921 9.921 0 0 0 87.787 81z" transform="translate(-78 -81)" style="stroke-width:3px;stroke:#222;fill:#f2ac58;stroke-miterlimit:10"/>
        <circle data-name="타원 576" cx="3.213" cy="3.213" r="3.213" transform="translate(6.669 6.594)" style="fill:#fff"/>
    </g>
    <g data-name="위치" transform="translate(287.128 165.271)">
        <path data-name="패스 3581" d="M87.787 81A9.921 9.921 0 0 0 78 91.051a10.2 10.2 0 0 0 1.11 4.637l7.978 14.93a.715.715 0 0 0 .047.085.724.724 0 0 0 1.3 0l.047-.085 7.978-14.93a10.2 10.2 0 0 0 1.11-4.637A9.921 9.921 0 0 0 87.787 81z" transform="translate(-78 -81)" style="stroke-width:3px;stroke:#222;fill:#f2ac58;stroke-miterlimit:10"/>
        <circle data-name="타원 576" cx="3.213" cy="3.213" r="3.213" transform="translate(6.669 6.594)" style="fill:#fff"/>
    </g>
    <g data-name="위치" transform="translate(224.128 52.384)">
        <path data-name="패스 3581" d="M87.787 81A9.921 9.921 0 0 0 78 91.051a10.2 10.2 0 0 0 1.11 4.637l7.978 14.93a.715.715 0 0 0 .047.085.724.724 0 0 0 1.3 0l.047-.085 7.978-14.93a10.2 10.2 0 0 0 1.11-4.637A9.921 9.921 0 0 0 87.787 81z" transform="translate(-78 -81)" style="stroke-width:3px;stroke:#222;fill:#f2ac58;stroke-miterlimit:10"/>
        <circle data-name="타원 576" cx="3.213" cy="3.213" r="3.213" transform="translate(6.669 6.594)" style="fill:#fff"/>
    </g>
    <g data-name="위치" transform="translate(331.128 28.271)">
        <path data-name="패스 3581" d="M87.787 81A9.921 9.921 0 0 0 78 91.051a10.2 10.2 0 0 0 1.11 4.637l7.978 14.93a.715.715 0 0 0 .047.085.724.724 0 0 0 1.3 0l.047-.085 7.978-14.93a10.2 10.2 0 0 0 1.11-4.637A9.921 9.921 0 0 0 87.787 81z" transform="translate(-78 -81)" style="stroke-width:3px;stroke:#222;fill:#f2ac58;stroke-miterlimit:10"/>
        <circle data-name="타원 576" cx="3.213" cy="3.213" r="3.213" transform="translate(6.669 6.594)" style="fill:#fff"/>
    </g>
    <g data-name="위치" transform="translate(340.915 100.981)">
        <path data-name="패스 3581" d="M87.787 81A9.921 9.921 0 0 0 78 91.051a10.2 10.2 0 0 0 1.11 4.637l7.978 14.93a.715.715 0 0 0 .047.085.724.724 0 0 0 1.3 0l.047-.085 7.978-14.93a10.2 10.2 0 0 0 1.11-4.637A9.921 9.921 0 0 0 87.787 81z" transform="translate(-78 -81)" style="stroke-width:3px;stroke:#222;fill:#f2ac58;stroke-miterlimit:10"/>
        <circle data-name="타원 576" cx="3.213" cy="3.213" r="3.213" transform="translate(6.669 6.594)" style="fill:#fff"/>
    </g>
    <g>
        <g data-name="그룹 323">
            <path data-name="패스 590" d="M186.5 178.763V84.475a1.1 1.1 0 0 1 1.165-1.024h122.948a1.1 1.1 0 0 1 1.165 1.024v94.288" transform="translate(-95.996 41.625)" style="stroke-width:3.004px;stroke-linecap:round;stroke-linejoin:round;fill:#fff;stroke:#222"/>
            <path data-name="사각형 462568" transform="translate(103 173.002)" style="fill:#e9f6fd" d="M0 0h18v18H0z"/>
            <path data-name="사각형 462569" transform="translate(130 173.002)" style="fill:#e9f6fd" d="M0 0h18v18H0z"/>
            <path data-name="패스 599" d="M222.092 189.022h-19.457a1.18 1.18 0 0 1-1.175-1.184V168.56a1.18 1.18 0 0 1 1.175-1.184h19.457a1.18 1.18 0 0 1 1.175 1.184v19.277a1.18 1.18 0 0 1-1.175 1.185zm-18.283-2.369h17.108v-16.908h-17.108z" transform="translate(-100.595 3.565)" style="fill:#222"/>
            <path data-name="사각형 462567" transform="translate(162 172.002)" style="fill:#e9f6fd" d="M0 0h40v48H0z"/>
            <path data-name="패스 600" d="M260.669 189.022h-19.458a1.179 1.179 0 0 1-1.175-1.184V168.56a1.179 1.179 0 0 1 1.175-1.184h19.458a1.18 1.18 0 0 1 1.175 1.184v19.277a1.18 1.18 0 0 1-1.175 1.185zm-18.283-2.369h17.107v-16.908h-17.107z" transform="translate(-111.633 3.565)" style="fill:#222"/>
            <path data-name="패스 601" d="M327.434 217.461a1.18 1.18 0 0 1-1.175-1.185V168.74h-39.2v47.536a1.175 1.175 0 1 1-2.35 0v-48.721a1.18 1.18 0 0 1 1.175-1.184h41.549a1.18 1.18 0 0 1 1.175 1.184v48.721a1.18 1.18 0 0 1-1.174 1.185z" transform="translate(-124.415 3.853)" style="fill:#222"/>
            <path data-name="패스 602" d="M314.986 217.461a1.18 1.18 0 0 1-1.175-1.185v-48.721a1.175 1.175 0 1 1 2.35 0v48.721a1.18 1.18 0 0 1-1.175 1.185z" transform="translate(-132.741 3.853)" style="fill:#222"/>
            <g data-name="사각형 462562" transform="translate(104 84.002)" style="fill:#e9f6fd;stroke-width:3px;stroke:#222">
                <rect width="98" height="33" rx="3" style="stroke:none"/>
                <rect x="1.5" y="1.5" width="95" height="30" rx="1.5" style="fill:none"/>
            </g>
            <g data-name="그룹 630712">
                <path data-name="사각형 462563" transform="translate(127 116.002)" style="fill:#222" d="M0 0h3v8H0z"/>
                <path data-name="사각형 462564" transform="translate(176 116.002)" style="fill:#222" d="M0 0h3v8H0z"/>
            </g>
            <path data-name="패스 15863" d="M-26.1-8.5a15.588 15.588 0 0 0 .468-4.428v-1.368h-11.484v1.872h9.108a13.843 13.843 0 0 1-.432 3.69zm-5.328 8.266c-2.232 0-3.51-.45-3.51-1.332 0-.9 1.278-1.35 3.51-1.35 2.25 0 3.528.45 3.528 1.35 0 .882-1.278 1.332-3.528 1.332zm0-4.464C-34.992-4.7-37.3-3.51-37.3-1.566c0 1.926 2.3 3.114 5.868 3.114 3.582 0 5.886-1.188 5.886-3.114.004-1.944-2.3-3.134-5.882-3.134zm.54-2.916v-2.9h-2.376v2.9h-5.526v1.872h14.922v-1.872zm21.492-7.4h-2.394v11.9h2.39zM-20.61-9.756a2.068 2.068 0 0 1 2.2-2.16 2.045 2.045 0 0 1 2.178 2.16 2.05 2.05 0 0 1-2.178 2.142 2.074 2.074 0 0 1-2.2-2.142zm6.7 0a4.255 4.255 0 0 0-4.5-4.212 4.271 4.271 0 0 0-4.518 4.212 4.278 4.278 0 0 0 4.518 4.194 4.263 4.263 0 0 0 4.496-4.194zM-18.054-.63v-3.654h-2.376V1.26h11.448V-.63zm11.988-7.524c3.132-.27 5.166-1.44 6.048-3.006.882 1.566 2.918 2.736 6.03 3.006L6.84-9.99c-3.1-.27-4.716-1.35-5.13-2.466h4.41v-1.89H-6.138v1.89h4.392C-2.16-11.34-3.78-10.26-6.858-9.99zm9.36 6.714c0 .828-1.134 1.188-3.348 1.188S-3.4-.612-3.4-1.44c0-.846 1.134-1.206 3.348-1.206s3.346.36 3.346 1.206zM7.47-5.616v-1.89H-7.506v1.89h6.3v1.206c-2.88.234-4.59 1.26-4.59 2.97 0 1.908 2.16 2.988 5.742 2.988s5.76-1.08 5.76-2.988c0-1.692-1.692-2.718-4.536-2.952v-1.224zm1.314-7.362v1.89h4.194c-.306 3.258-1.71 5.652-5.04 7.6l1.386 1.652c4.626-2.7 5.994-6.5 5.994-11.142zm11.3-2.052v6.246h-1.472V-14.6H16.4V.846h2.214v-7.722h1.476v8.424h2.268V-15.03zm9.828 1.278h-2.39v2.412c0 3.078-1.26 6.246-4.05 7.56l1.422 1.926a7.906 7.906 0 0 0 3.834-4.77A7.549 7.549 0 0 0 32.31-2.16l1.44-1.872c-2.664-1.314-3.834-4.32-3.834-7.308zM39.2-8.658h-2.408v-6.372h-2.376V1.548h2.376v-8.226H39.2z" transform="translate(153 107.002)" style="fill:#222"/>
            <g data-name="사각형 463060" style="fill:#50ccc6;stroke-width:3px;stroke:#222">
                <path style="stroke:none" d="M0 0h138v28H0z" transform="translate(84 123.001)"/>
                <path style="fill:none" d="M1.5 1.5h135v25H1.5z" transform="translate(84 123.001)"/>
            </g>
        </g>
    </g>
    <path data-name="선 223" transform="translate(42 221.001)" style="stroke-linecap:round;stroke-linejoin:round;stroke-width:3px;stroke:#222;fill:none" d="M0 0h360"/>
</svg>
