<svg xmlns="http://www.w3.org/2000/svg" width="444" height="228" viewBox="0 0 444 228">
  <defs>
    <style>
      .cls-1 {
        fill: rgba(255,191,191,0.5);
        opacity: 0;
      }

      .cls-2 {
        fill: #fcf5bd;
      }

      .cls-3 {
        fill: #fbf0e3;
      }

      .cls-11, .cls-12, .cls-15, .cls-4, .cls-8 {
        fill: #fff;
      }

      .cls-12, .cls-14, .cls-15, .cls-16, .cls-4, .cls-5, .cls-6, .cls-7, .cls-9 {
        stroke: #222;
      }

      .cls-11, .cls-12, .cls-14, .cls-15, .cls-16, .cls-4, .cls-5, .cls-6, .cls-7, .cls-8, .cls-9 {
        stroke-linecap: round;
        stroke-linejoin: round;
      }

      .cls-4, .cls-5, .cls-6, .cls-7, .cls-8, .cls-9 {
        stroke-width: 3px;
      }

      .cls-5 {
        fill: #f2ac58;
      }

      .cls-6 {
        fill: #afdae9;
      }

      .cls-14, .cls-16, .cls-7 {
        fill: none;
      }

      .cls-11, .cls-8 {
        stroke: #000;
      }

      .cls-13, .cls-9 {
        fill: #fcf28d;
      }

      .cls-10 {
        fill: #222;
      }

      .cls-11, .cls-15, .cls-16 {
        stroke-width: 2px;
      }

      .cls-12, .cls-14 {
        stroke-width: 2.5px;
      }
    </style>
  </defs>
  <g id="SWKDIFDT0200_3" transform="translate(38.5 38.85)">
    <g id="deco">
      <rect id="bg" class="cls-1" width="444" height="228" transform="translate(-38.5 -38.85)"/>
      <circle id="Ellipse_2" data-name="Ellipse 2" class="cls-2" cx="53.5" cy="53.5" r="53.5" transform="translate(-10.5 -17.85)"/>
      <circle id="Ellipse_2-2" data-name="Ellipse 2" class="cls-3" cx="19.75" cy="19.75" r="19.75" transform="translate(350.5 -38.85)"/>
    </g>
    <g id="img" transform="translate(-80.899 -146.684)">
      <g id="그룹_941" data-name="그룹 941">
        <rect id="사각형_388" data-name="사각형 388" class="cls-4" width="30.206" height="68.334" transform="translate(124.489 163.444)"/>
        <path id="패스_1619" data-name="패스 1619" class="cls-4" d="M285.757,324.513V261.079h0l-85.67-82.987L114.4,261.079l0,63.434"/>
        <path id="패스_1620" data-name="패스 1620" class="cls-5" d="M300.138,247.258l-91.033-87.984L200.13,150.6l-8.415,8.152-91.576,88.506L114.4,261.079l85.742-82.885,85.742,82.885Z"/>
        <path id="패스_1621" data-name="패스 1621" class="cls-6" d="M150.64,324.795V257.166h40.31v67.628"/>
        <rect id="사각형_389" data-name="사각형 389" class="cls-4" width="34.405" height="29.301" transform="translate(207.14 256.166)"/>
      </g>
      <path id="패스_1622" data-name="패스 1622" class="cls-7" d="M84.4,325h360"/>
      <g id="그룹_954" data-name="그룹 954">
        <g id="그룹_943" data-name="그룹 943">
          <path id="사각형_390" data-name="사각형 390" class="cls-8" d="M11.1,0H116.791a0,0,0,0,1,0,0V84.939a0,0,0,0,1,0,0H0a0,0,0,0,1,0,0V11.1A11.1,11.1,0,0,1,11.1,0Z" transform="translate(280.341 224.943)"/>
          <g id="그룹_942" data-name="그룹 942">
            <path id="패스_1623" data-name="패스 1623" class="cls-9" d="M391.837,308l-92.1-32.526a9.438,9.438,0,0,1-5.756-12.042L315.923,201.3a9.439,9.439,0,0,1,12.042-5.756l92.1,32.526a9.437,9.437,0,0,1,5.756,12.042l-21.941,62.127A9.439,9.439,0,0,1,391.837,308Z"/>
            <path id="패스_1624" data-name="패스 1624" class="cls-10" d="M416.826,261.1,309.388,223.518l4.57-12.436L421.05,248.9Z"/>
          </g>
          <path id="사각형_391" data-name="사각형 391" class="cls-11" d="M24.694,0h78.021a24.693,24.693,0,0,1,24.693,24.693V60.246a24.693,24.693,0,0,1-24.693,24.693H49.886A49.886,49.886,0,0,1,0,35.053V24.694A24.694,24.694,0,0,1,24.694,0Z" transform="translate(280.341 247.358)"/>
          <path id="패스_1625" data-name="패스 1625" class="cls-8" d="M290.958,238.864c2.124,5.308,5.86,8.494,11.679,8.494H403.4a4.348,4.348,0,0,1,4.348,4.347v76.244A4.348,4.348,0,0,1,403.4,332.3H290.341a10,10,0,0,1-10-10V250.9"/>
          <path id="사각형_392" data-name="사각형 392" class="cls-8" d="M10.617,0H29.485a2.367,2.367,0,0,1,2.367,2.367v16.5a2.367,2.367,0,0,1-2.367,2.367H10.617A10.617,10.617,0,0,1,0,10.617v0A10.617,10.617,0,0,1,10.617,0Z" transform="translate(383.873 276.85)"/>
        </g>
        <g id="그룹_945" data-name="그룹 945">
          <circle id="타원_76" data-name="타원 76" class="cls-12" cx="21" cy="21" r="21" transform="translate(360.848 222.679) rotate(-77.278)"/>
          <circle id="타원_77" data-name="타원 77" class="cls-13" cx="16.061" cy="16.061" r="16.061" transform="translate(370.149 190.702)"/>
          <g id="그룹_944" data-name="그룹 944">
            <path id="패스_1626" data-name="패스 1626" class="cls-14" d="M378.509,203.322l3.264,8.558a.765.765,0,0,0,1.45-.063l2.364-8.3a.765.765,0,0,1,1.467-.014l2.52,8.257a.765.765,0,0,0,1.456.023l2.882-8.464"/>
            <line id="선_367" data-name="선 367" class="cls-14" x2="18.355" transform="translate(377.033 207.269)"/>
          </g>
        </g>
        <g id="그룹_947" data-name="그룹 947">
          <circle id="타원_78" data-name="타원 78" class="cls-15" cx="16" cy="16" r="16" transform="translate(330.827 163.903) rotate(-77.278)"/>
          <circle id="타원_79" data-name="타원 79" class="cls-13" cx="12.237" cy="12.237" r="12.237" transform="translate(337.913 139.54)"/>
          <g id="그룹_946" data-name="그룹 946">
            <path id="패스_1627" data-name="패스 1627" class="cls-16" d="M344.282,149.154l2.487,6.521a.583.583,0,0,0,1.1-.048l1.8-6.322a.583.583,0,0,1,1.118-.01l1.92,6.291a.583.583,0,0,0,1.109.018l2.2-6.45"/>
            <line id="선_368" data-name="선 368" class="cls-16" x2="13.985" transform="translate(343.158 152.162)"/>
          </g>
        </g>
        <g id="그룹_950" data-name="그룹 950">
          <g id="그룹_948" data-name="그룹 948">
            <line id="선_369" data-name="선 369" class="cls-11" y1="3.59" x2="3.59" transform="translate(290.288 176.788)"/>
            <line id="선_370" data-name="선 370" class="cls-11" y1="3.59" x2="3.59" transform="translate(298.733 168.342)"/>
          </g>
          <g id="그룹_949" data-name="그룹 949">
            <line id="선_371" data-name="선 371" class="cls-11" x1="3.589" y1="3.589" transform="translate(298.734 176.788)"/>
            <line id="선_372" data-name="선 372" class="cls-11" x1="3.589" y1="3.589" transform="translate(290.288 168.342)"/>
          </g>
        </g>
        <g id="그룹_953" data-name="그룹 953">
          <g id="그룹_951" data-name="그룹 951">
            <line id="선_373" data-name="선 373" class="cls-11" x2="3.59" y2="3.59" transform="translate(410.288 152.342)"/>
            <line id="선_374" data-name="선 374" class="cls-11" x2="3.59" y2="3.59" transform="translate(418.733 160.788)"/>
          </g>
          <g id="그룹_952" data-name="그룹 952">
            <line id="선_375" data-name="선 375" class="cls-11" y1="3.589" x2="3.589" transform="translate(410.288 160.788)"/>
            <line id="선_376" data-name="선 376" class="cls-11" y1="3.589" x2="3.589" transform="translate(418.734 152.342)"/>
          </g>
        </g>
      </g>
    </g>
  </g>
</svg>
