<svg xmlns="http://www.w3.org/2000/svg" width="444" height="243" viewBox="0 0 444 243">
    <g transform="translate(-1024.75 -1191.857)">
        <circle data-name="Ellipse 2" cx="43.304" cy="43.304" r="43.304" transform="translate(1048.25 1201.75)" style="fill:#dcf5fb"/>
        <circle data-name="Ellipse 2" cx="18.75" cy="18.75" r="18.75" transform="translate(1420.75 1192)" style="fill:#e4ffe1"/>
    </g>
    <g data-name="그룹 632245">
        <g data-name="그룹 632233">
            <path data-name="패스 12015" d="M319.935 76.2a1.967 1.967 0 0 1 1.961 1.961v141.7a1.763 1.763 0 0 1-1.763 1.763H123.786a1.967 1.967 0 0 1-1.96-1.961v-141.5a1.967 1.967 0 0 1 1.96-1.961z" style="stroke-linecap:round;stroke-linejoin:round;stroke:#222;stroke-width:3px;fill:#fff" transform="translate(-29.861 -24.188)"/>
            <path data-name="패스 12231" d="m200.267 223.338-8.5 33.992h62.486l-8.553-33.992z" transform="translate(-29.861 -24.188)" style="fill:#fff"/>
            <path data-name="선 2208" transform="translate(161.593 197.44)" style="fill:none;stroke-linecap:round;stroke-linejoin:round;stroke:#222;stroke-width:3px" d="M8.814 0 0 36.136"/>
            <path data-name="선 2209" transform="translate(216.237 197.44)" style="fill:none;stroke-linecap:round;stroke-linejoin:round;stroke:#222;stroke-width:3px" d="m0 0 8.814 36.136"/>
            <path data-name="선 2210" transform="translate(92.846 175.511)" style="stroke-linecap:round;stroke-linejoin:round;stroke:#222;stroke-width:3px;fill:#fff" d="M0 0h198.308"/>
        </g>
        <g data-name="그룹 632235">
            <path data-name="패스 12016" d="M277.159 122.764V239.7H169.632V122.764" style="stroke-linecap:round;stroke-linejoin:round;stroke:#222;stroke-width:3px;fill:#fff" transform="translate(-29.861 -24.188)"/>
            <path data-name="선 2211" transform="translate(155.9 111.748)" style="fill:none;stroke-linecap:round;stroke-linejoin:round;stroke:#222;stroke-width:3px" d="M0 0h21.505"/>
            <path data-name="선 2212" transform="translate(184.395 111.748)" style="fill:none;stroke-linecap:round;stroke-linejoin:round;stroke:#222;stroke-width:3px" d="M0 0h10.753"/>
            <path data-name="선 2213" transform="translate(201.599 111.748)" style="fill:none;stroke-linecap:round;stroke-linejoin:round;stroke:#222;stroke-width:3px" d="M0 0h21.505"/>
            <path data-name="선 2214" transform="translate(155.9 122.501)" style="fill:none;stroke-linecap:round;stroke-linejoin:round;stroke:#222;stroke-width:3px" d="M0 0h10.753"/>
            <path data-name="선 2215" transform="translate(173.642 122.501)" style="fill:none;stroke-linecap:round;stroke-linejoin:round;stroke:#222;stroke-width:3px" d="M0 0h10.753"/>
            <path data-name="선 2216" transform="translate(190.846 122.501)" style="fill:none;stroke-linecap:round;stroke-linejoin:round;stroke:#222;stroke-width:3px" d="M0 0h21.505"/>
            <path data-name="선 2217" transform="translate(155.9 133.253)" style="fill:none;stroke-linecap:round;stroke-linejoin:round;stroke:#222;stroke-width:3px" d="M0 0h10.753"/>
            <path data-name="선 2218" transform="translate(155.9 144.006)" style="fill:none;stroke-linecap:round;stroke-linejoin:round;stroke:#222;stroke-width:3px" d="M0 0h64.516"/>
            <path data-name="선 2219" transform="translate(155.9 178.952)" style="fill:none;stroke-linecap:round;stroke-linejoin:round;stroke:#222;stroke-width:3px" d="M0 0h36.684"/>
            <path data-name="선 2220" transform="translate(171.651 189.705)" style="fill:none;stroke-linecap:round;stroke-linejoin:round;stroke:#222;stroke-width:3px" d="M0 0h21.505"/>
            <path data-name="선 2221" transform="translate(173.642 133.253)" style="fill:none;stroke-linecap:round;stroke-linejoin:round;stroke:#222;stroke-width:3px" d="M0 0h32.258"/>
            <g data-name="그룹 632234">
                <path data-name="패스 12017" d="M259.033 212.182v16.509l-8.255-5.827-8.255 5.827v-16.509" style="fill:#f2ac58;stroke-linecap:round;stroke-linejoin:round;stroke:#222;stroke-width:3px" transform="translate(-29.861 -24.188)"/>
                <path data-name="패스 12018" d="M250.807 213.322a16.509 16.509 0 1 1 16.51-16.508 16.525 16.525 0 0 1-16.51 16.508z" style="stroke-linecap:round;stroke-linejoin:round;stroke:#222;stroke-width:3px;fill:#fff" transform="translate(-29.861 -24.188)"/>
                <path data-name="패스 12019" d="M250.807 207.566a10.753 10.753 0 1 1 10.754-10.752 10.764 10.764 0 0 1-10.754 10.752z" style="fill:#f2ac58" transform="translate(-29.861 -24.188)"/>
            </g>
        </g>
        <path data-name="패스 12020" d="M162.312 135.936h-5.8a3 3 0 0 1-3-3v-9a3 3 0 0 1 3-3h134a3 3 0 0 1 3 3v9a3 3 0 0 1-3 3h-6.79" style="fill:none;stroke-linecap:round;stroke-linejoin:round;stroke:#222;stroke-width:3px" transform="translate(-29.861 -24.188)"/>
        <g data-name="그룹 632244">
            <g data-name="그룹 632242">
                <g data-name="그룹 632241">
                    <g data-name="그룹 632240">
                        <g data-name="그룹 632239">
                            <g data-name="그룹 632238">
                                <g data-name="그룹 632236">
                                    <path data-name="패스 12021" d="M195.242 98.784a3.624 3.624 0 0 0-5.154 1.082 3.626 3.626 0 0 1-6.556-1l-.01-.038-.012-.046a4.646 4.646 0 0 1-.185-1.441c0-3.25 3.334-6.868 8.136-6.868a9.159 9.159 0 0 1 8.457 5.824l-.036-.11a10.357 10.357 0 0 0-20.154 3.36c0 5.112 3.687 9.488 8.8 9.488a8.317 8.317 0 0 0 8.078-5.439 3.991 3.991 0 0 0-1.364-4.812z" style="fill:#1a2559" transform="translate(-29.861 -24.188)"/>
                                </g>
                                <g data-name="그룹 632237">
                                    <path data-name="패스 12022" d="M199.982 96.5a9.131 9.131 0 0 0-8.522-6.026c-4.8 0-8.136 3.618-8.136 6.868a4.646 4.646 0 0 0 .185 1.441 3.058 3.058 0 0 1-.1-.739c0-3.384 3.389-5.73 6.872-5.73a8.539 8.539 0 0 1 8.54 8.538 9.414 9.414 0 0 1-5.219 8.434 10.36 10.36 0 0 0 6.83-9.74 10.241 10.241 0 0 0-.45-3.046z" style="fill:#ff2926" transform="translate(-29.861 -24.188)"/>
                                </g>
                            </g>
                        </g>
                    </g>
                </g>
            </g>
            <g data-name="그룹 632243">
                <path data-name="패스 12023" d="M213.13 98.929v.871h-7.61v-.873h2.97v-1.371h1v1.373zm-1.643-.454V96.5h-5.354v-.891h6.384v2.868zm-.037 3.581a1.825 1.825 0 0 1-.167.771 1.969 1.969 0 0 1-.445.621 2.094 2.094 0 0 1-.673.436 2.212 2.212 0 0 1-1.642 0 2.109 2.109 0 0 1-.674-.436 1.969 1.969 0 0 1-.445-.621 1.861 1.861 0 0 1 0-1.541 2.1 2.1 0 0 1 .445-.631 2.063 2.063 0 0 1 .674-.431 2.279 2.279 0 0 1 1.642 0 2.048 2.048 0 0 1 .673.431 2.1 2.1 0 0 1 .445.631 1.824 1.824 0 0 1 .167.77zm-1-.009a1.1 1.1 0 0 0-2.209 0 1.033 1.033 0 0 0 .325.77 1.119 1.119 0 0 0 1.559 0 1.033 1.033 0 0 0 .323-.77z" style="fill:#575756" transform="translate(-29.861 -24.188)"/>
                <path data-name="패스 12024" d="M214.178 96.554v-.882h4.732v.882h-2.022l2.106 2.57-.714.594-1.708-2.125-1.679 2.264-.743-.594 2.107-2.709zm6.561 5.391a1.818 1.818 0 0 1-.172.784 2.173 2.173 0 0 1-.459.645 2.143 2.143 0 0 1-.682.441 2.246 2.246 0 0 1-1.675 0 2.123 2.123 0 0 1-.687-.441 2.155 2.155 0 0 1-.459-.645 1.873 1.873 0 0 1 0-1.568 2.12 2.12 0 0 1 1.146-1.086 2.246 2.246 0 0 1 1.675 0 2.132 2.132 0 0 1 1.141 1.086 1.818 1.818 0 0 1 .172.784zm-1.012-.009a1.08 1.08 0 0 0-.338-.8 1.115 1.115 0 0 0-.812-.334 1.132 1.132 0 1 0 0 2.264 1.124 1.124 0 0 0 .812-.33 1.074 1.074 0 0 0 .338-.8zm.687-2.116v-1.791h-1.541v-.891h1.541v-1.707h1.03v4.389z" style="fill:#575756" transform="translate(-29.861 -24.188)"/>
                <path data-name="패스 12025" d="M226.648 102.622h-1.03v-5.753h-3.173v-.928h4.2zm1.977-7.191h1.029v8.277h-1.029v-4.083h-1.262v-.918h1.262z" style="fill:#575756" transform="translate(-29.861 -24.188)"/>
                <path data-name="패스 12026" d="M234.851 102.567h-3.674v-3.786h2.4v-1.93h-2.4v-.91h3.386v3.74h-2.4v1.986h2.691zm1.624-7.127v3.434h1.03v-3.443h.984v8.277h-.984V99.82h-1.03v3.842h-.955V95.44z" style="fill:#575756" transform="translate(-29.861 -24.188)"/>
                <path data-name="패스 12027" d="M239.6 101.2v-.91h5.54v.91h-2.32v2.236h-1.011V101.2zm4.909-3.527a1.95 1.95 0 0 1-.171.808 1.993 1.993 0 0 1-.479.659 2.312 2.312 0 0 1-.7.454 2.265 2.265 0 0 1-1.707 0 2.324 2.324 0 0 1-.705-.454 2.062 2.062 0 0 1-.483-.659 1.94 1.94 0 0 1 0-1.615 2.168 2.168 0 0 1 .483-.668 2.365 2.365 0 0 1 .705-.455 2.265 2.265 0 0 1 1.707 0 2.353 2.353 0 0 1 .7.455 2.092 2.092 0 0 1 .479.668 1.949 1.949 0 0 1 .173.81zm-.984 0a1.144 1.144 0 0 0-.362-.853 1.192 1.192 0 0 0-.863-.353 1.18 1.18 0 0 0-.858.353 1.194 1.194 0 0 0 0 1.7 1.172 1.172 0 0 0 .858.357 1.184 1.184 0 0 0 .863-.357 1.153 1.153 0 0 0 .364-.844zm2.237-2.245h1.021v8.277h-1.021z" style="fill:#575756" transform="translate(-29.861 -24.188)"/>
                <path data-name="패스 12028" d="M251.506 100.2v1.114h-1.021V100.2h-2.254v-.853h5.521v.853zm-1.726.724v1.726h5.911v.891h-6.941v-2.617zm3.127-3.739a1.632 1.632 0 0 1-.163.719 1.943 1.943 0 0 1-1.062 1 2.064 2.064 0 0 1-1.54 0 1.882 1.882 0 0 1-1.063-1 1.645 1.645 0 0 1-.162-.719 1.618 1.618 0 0 1 .162-.715 2.194 2.194 0 0 1 .423-.594 2.025 2.025 0 0 1 .64-.4 2.131 2.131 0 0 1 1.54 0 1.924 1.924 0 0 1 .632.4 2.1 2.1 0 0 1 .43.594 1.605 1.605 0 0 1 .163.715zm-.974.009a.96.96 0 0 0-.3-.71 1.044 1.044 0 0 0-1.448 0 1 1 0 0 0 0 1.42 1.044 1.044 0 0 0 1.448 0 .96.96 0 0 0 .3-.71zm2.515 1.429h-1.179v-.844h1.179v-2.348h1.02v5.976h-1.02z" style="fill:#575756" transform="translate(-29.861 -24.188)"/>
                <path data-name="패스 12029" d="M262.241 102.882h-5.429v-.9h2.181v-1.03a1.743 1.743 0 0 1-.278-.093 2.162 2.162 0 0 1-.65-.4 1.907 1.907 0 0 1-.436-.6 1.686 1.686 0 0 1-.157-.719 1.656 1.656 0 0 1 .157-.715 1.949 1.949 0 0 1 .436-.594 2.026 2.026 0 0 1 .645-.4 2.108 2.108 0 0 1 .784-.144 2.072 2.072 0 0 1 .78.144 1.9 1.9 0 0 1 .63.4 2.038 2.038 0 0 1 .442.594 1.632 1.632 0 0 1 .162.715 1.662 1.662 0 0 1-.162.719 1.991 1.991 0 0 1-.442.6 2.049 2.049 0 0 1-.63.4 1.665 1.665 0 0 1-.306.1v1.021h2.273zm-3.322-6.625v-.882h1.113v.882h2.014v.881H256.9v-.881zm1.587 2.877a.952.952 0 0 0-.3-.7 1.044 1.044 0 0 0-1.448 0 .948.948 0 0 0-.3.7.963.963 0 0 0 .3.7 1.031 1.031 0 0 0 1.448 0 .967.967 0 0 0 .3-.7zm2.468-3.7h1.021v8.277h-1.021z" style="fill:#575756" transform="translate(-29.861 -24.188)"/>
            </g>
        </g>
    </g>
    <path data-name="선 2222" transform="translate(42 234.048)" style="fill:none;stroke-linecap:round;stroke-linejoin:round;stroke:#222;stroke-width:3px" d="M0 0h360"/>
    <g data-name="그룹 632248">
        <path data-name="패스 12030" d="M350.928 255.119a1.955 1.955 0 0 1-.707-.131 72.779 72.779 0 0 1-30.383-21.513 79.309 79.309 0 0 1-14.385-27.038 96.62 96.62 0 0 1-4.421-32.9 1.968 1.968 0 0 1 1.7-1.8c15.155-2.052 27.006-9.172 34.279-14.784a72.542 72.542 0 0 0 12.352-11.891 1.969 1.969 0 0 1 1.567-.779 1.967 1.967 0 0 1 1.567.78 72.527 72.527 0 0 0 12.351 11.89c7.273 5.612 19.124 12.732 34.28 14.784a1.968 1.968 0 0 1 1.7 1.8 96.592 96.592 0 0 1-4.421 32.9 79.31 79.31 0 0 1-14.385 27.038 72.782 72.782 0 0 1-30.382 21.513 1.964 1.964 0 0 1-.712.131z" style="fill:#afdae9;stroke-miterlimit:10;stroke:#222;stroke-width:3px" transform="translate(-29.861 -14.186)"/>
        <g data-name="그룹 632247">
            <g data-name="그룹 632246" transform="translate(-29.861 -14.186)">
                <circle data-name="타원 1297" cx="21" cy="21" r="21" transform="translate(328.803 182.394)" style="fill:#fff"/>
                <path data-name="패스 12031" d="M370.469 199.638a21 21 0 1 1-20.669-17.244 20.905 20.905 0 0 1 11.271 3.279" style="fill:none;stroke-linecap:round;stroke-linejoin:round;stroke:#222;stroke-width:3px"/>
            </g>
            <path data-name="패스 12032" d="m373.053 190.946-5.048-4.8-18 17.282L342.2 196l-5.145 4.9 12.828 12.243.022-.018.015.018z" style="fill:#fcf28d;stroke-linecap:round;stroke-linejoin:round;stroke:#222;stroke-width:3px" transform="translate(-29.861 -14.186)"/>
        </g>
    </g>
</svg>
