<svg xmlns="http://www.w3.org/2000/svg" width="444" height="228" viewBox="0 0 444 228">
    <g transform="translate(-436 -767)">
        <circle data-name="Ellipse 2" cx="53.5" cy="53.5" r="53.5" transform="translate(469 767)" style="fill:#fcf5bd"/>
        <circle data-name="Ellipse 2" cx="16.25" cy="16.25" r="16.25" transform="translate(784 841.5)" style="fill:#e4ffe1"/>
    </g>
    <g data-name="그룹 634071">
        <g data-name="그룹 634066">
            <path data-name="패스 15456" d="M946.345 1352.119v33.451h-25.781v-33.451c0-5.937 5.772-10.753 12.89-10.753s12.891 4.816 12.891 10.753z" style="stroke-width:3.002px;stroke-linecap:round;stroke-linejoin:round;stroke:#222;fill:#e4e4e4" transform="translate(-589.914 -1298.366)"/>
            <path data-name="패스 15457" d="M785.8 1516.646v-163.053c0-7.278 6.8-12.895 14.322-12.04v-.081h133.017c-7.119 0-12.891 5.43-12.891 12.126v161.782" style="fill:#fff;stroke-width:3.002px;stroke-linecap:round;stroke-linejoin:round;stroke:#222" transform="translate(-589.914 -1298.366)"/>
        </g>
        <path data-name="선 2994" transform="translate(225.303 171.145)" style="stroke-width:3px;fill:none;stroke-linecap:round;stroke-linejoin:round;stroke:#222" d="M0 0h72.33"/>
        <path data-name="선 2995" transform="translate(225.303 185.632)" style="stroke-width:3px;fill:none;stroke-linecap:round;stroke-linejoin:round;stroke:#222" d="M0 0h39.365"/>
        <path data-name="선 2996" transform="translate(275.775 185.632)" style="stroke-width:3px;fill:none;stroke-linecap:round;stroke-linejoin:round;stroke:#222" d="M0 0h21.858"/>
        <g data-name="그룹 634067" transform="translate(-589.914 -1298.366)">
            <path data-name="패스 15458" d="M860.316 1447.632v-61.539h25.4v63.586" style="fill:#fff;stroke-width:3.002px;stroke-linecap:round;stroke-linejoin:round;stroke:#222"/>
            <rect data-name="사각형 464662" width="4.233" height="4.239" rx=".565" transform="translate(875.132 1415.767)" style="fill:#ddd"/>
            <rect data-name="사각형 464663" width="4.233" height="4.239" rx=".565" transform="translate(875.132 1394.571)" style="fill:#ddd"/>
            <rect data-name="사각형 464664" width="4.233" height="4.239" rx=".565" transform="translate(875.132 1405.169)" style="fill:#ddd"/>
            <rect data-name="사각형 464665" width="4.233" height="4.239" rx=".565" transform="translate(875.132 1426.364)" style="fill:#ddd"/>
            <rect data-name="사각형 464666" width="4.233" height="4.239" rx=".565" transform="translate(875.132 1436.962)" style="fill:#ddd"/>
        </g>
        <g data-name="그룹 634068">
            <path data-name="패스 15459" d="M817.984 1449.679v-61.467l25.4-14.837h4.233v76.3" style="fill:#afdae9" transform="translate(-589.914 -1298.366)"/>
            <path data-name="패스 15460" d="M817.984 1449.679v-61.467l25.4-14.837h4.233v73.5" style="fill:none;stroke-width:3.002px;stroke-linecap:round;stroke-linejoin:round;stroke:#222" transform="translate(-589.914 -1298.366)"/>
        </g>
        <g data-name="그룹 634069">
            <path data-name="패스 15461" d="M841.266 1449.679v-46.63H870.9v46.63" style="fill:#fff;stroke-width:3.002px;stroke-linecap:round;stroke-linejoin:round;stroke:#222" transform="translate(-589.914 -1298.366)"/>
            <path data-name="선 2998" transform="translate(257.702 132.238)" style="stroke-width:3px;fill:#fff;stroke-linecap:round;stroke-linejoin:round;stroke:#222" d="M0 0h16.933"/>
            <path data-name="선 2999" transform="translate(257.702 123.759)" style="stroke-width:3px;fill:#fff;stroke-linecap:round;stroke-linejoin:round;stroke:#222" d="M0 0h16.933"/>
            <path data-name="선 3000" transform="translate(257.702 140.716)" style="stroke-width:3px;fill:#fff;stroke-linecap:round;stroke-linejoin:round;stroke:#222" d="M0 0h16.933"/>
            <path data-name="선 3001" transform="translate(257.702 115.281)" style="stroke-width:3px;fill:#fff;stroke-linecap:round;stroke-linejoin:round;stroke:#222" d="M0 0h16.933"/>
            <path data-name="사각형 464667" transform="translate(257.702 96.205)" style="fill:#fff;stroke-width:3.002px;stroke-linecap:round;stroke-linejoin:round;stroke:#222" d="M0 0h16.933v8.478H0z"/>
        </g>
        <g data-name="그룹 634070">
            <path data-name="패스 15462" d="M930.49 1460.647v19.95l-9.961-7.041-9.961 7.041v-19.95" style="fill:#f2ac58;stroke-width:3.002px;stroke-linecap:round;stroke-linejoin:round;stroke:#222" transform="translate(-589.914 -1298.366)"/>
            <path data-name="패스 15463" d="M920.562 1462.026a19.95 19.95 0 1 1 19.924-19.949 19.956 19.956 0 0 1-19.924 19.949z" style="fill:#fff;stroke-width:3.002px;stroke-linecap:round;stroke-linejoin:round;stroke:#222" transform="translate(-589.914 -1298.366)"/>
            <path data-name="패스 15464" d="M920.563 1455.07a12.994 12.994 0 1 1 12.976-12.993 13 13 0 0 1-12.976 12.993z" style="fill:#f2ac58" transform="translate(-589.914 -1298.366)"/>
        </g>
    </g>
    <path data-name="선 3002" transform="translate(42 217.499)" style="stroke-width:3px;fill:none;stroke-linecap:round;stroke-linejoin:round;stroke:#222" d="M0 0h360"/>
    <g data-name="그룹 634074">
        <g data-name="그룹 634072">
            <path data-name="패스 15465" d="m784.776 1500.7 12.348 6.885s-3.088 18.327-18.511 15.479a164.536 164.536 0 0 0-33.931-4.759h-13.9a164.516 164.516 0 0 0-33.934 4.759c-15.426 2.848-18.5-15.479-18.5-15.479l12.331-6.885 48.106-13.811z" style="fill:#353c5b" transform="translate(-589.914 -1298.366)"/>
            <path data-name="패스 15466" d="M735.837 1502.048c-37.46.544-56.86 7.724-56.86 7.724-.028-.866-.765-1.3-.791-2.178a475.266 475.266 0 0 1 1.186-48.49c16.282-22.289 50.986-27.183 50.986-27.183s8.262-1.089 14.739 0c0 0 34.707 4.894 50.989 27.183a475.868 475.868 0 0 1 1.211 48.129c-.046.992-.684 1.556-.725 2.54 0 0-19.481-7.18-56.936-7.724z" style="fill:#3f466e" transform="translate(-589.914 -1298.366)"/>
        </g>
        <path data-name="패스 15467" d="M677.482 1501.17s53.843-14.146 119.617 0v5.749s-58.263-14.145-119.174 0z" style="fill:#ffcd68" transform="translate(-589.914 -1298.366)"/>
        <g data-name="그룹 634073">
            <path data-name="패스 15468" d="M679.589 1506.889a1.893 1.893 0 0 0-.917 2.132c1.108 4.266 5.414 16.4 18.172 14.04a164.516 164.516 0 0 1 33.934-4.759h13.9a164.536 164.536 0 0 1 33.931 4.759c12.755 2.355 17.073-9.771 18.186-14.038a1.9 1.9 0 0 0-.918-2.135" style="stroke-miterlimit:10;fill:none;stroke-width:3.002px;stroke:#222" transform="translate(-589.914 -1298.366)"/>
            <path data-name="패스 15469" d="M735.837 1502.048c-37.46.544-56.86 7.724-56.86 7.724a3.831 3.831 0 0 1-.791-2.178 475.025 475.025 0 0 1 1.141-47.934 1.935 1.935 0 0 1 .381-1.011c16.419-21.9 50.65-26.728 50.65-26.728s8.262-1.089 14.739 0c0 0 34.234 4.828 50.652 26.728a1.93 1.93 0 0 1 .381 1.013 475.768 475.768 0 0 1 1.167 47.571 5.854 5.854 0 0 1-.725 2.54s-19.481-7.18-56.936-7.724z" style="stroke-miterlimit:10;fill:none;stroke-width:3.002px;stroke:#222" transform="translate(-589.914 -1298.366)"/>
        </g>
        <path data-name="패스 15470" d="m743.332 1455.245-.7.477-1.713-7.062a18.83 18.83 0 0 0 1.883-2.906.412.412 0 0 0-.392-.581c-1.678.06-6.2.253-7.023.627a3.757 3.757 0 0 0-1.566 1.569s-3.779.737-3.87 1.661a5.069 5.069 0 0 0 .461 2.12 5.68 5.68 0 0 1 2.3-1.2c.826 0 1.657.832 1.565 1.384-.031.188-.592 2.256-1.32 4.9l-1.461-.994c-6.434-3.462-12.025-13.991-16.791 16.092.7.448 5.017-8.044 9.894-6.68a40.953 40.953 0 0 1 4.8 2.285 2.51 2.51 0 0 0 .536.228c-.244.879-.4 1.451-.437 1.57l-3.89 2.831 4.585 14.13h14.838l4.585-14.13-3.828-2.785.011-.012-.437-1.8c.024-.013.048-.021.071-.034a40.87 40.87 0 0 1 4.8-2.285c4.877-1.364 9.194 7.128 9.894 6.68-4.77-30.076-10.362-19.547-16.795-16.085z" style="fill:#ffe06b" transform="translate(-589.914 -1298.366)"/>
    </g>
</svg>
