<svg xmlns="http://www.w3.org/2000/svg" xmlns:xlink="http://www.w3.org/1999/xlink" width="444" height="221" viewBox="0 0 444 221">
  <defs>
    <style>
      .cls-1, .cls-15, .cls-5 {
        fill: none;
      }

      .cls-2 {
        fill: rgba(255,191,191,0.5);
        opacity: 0;
      }

      .cls-3 {
        fill: #dcf5fb;
      }

      .cls-4 {
        fill: #fbf0e3;
      }

      .cls-11, .cls-12, .cls-13, .cls-15, .cls-16, .cls-5 {
        stroke: #222;
        stroke-linecap: round;
      }

      .cls-11, .cls-12, .cls-13, .cls-15, .cls-5 {
        stroke-linejoin: round;
      }

      .cls-11, .cls-12, .cls-16, .cls-5 {
        stroke-width: 3px;
      }

      .cls-6 {
        clip-path: url(#clip-path);
      }

      .cls-7 {
        fill: #3bc9cc;
      }

      .cls-12, .cls-13, .cls-16, .cls-8 {
        fill: #fff;
      }

      .cls-9 {
        fill: #d1dee8;
        opacity: 0.5;
      }

      .cls-10 {
        fill: #e6e9ed;
      }

      .cls-11, .cls-14 {
        fill: #fcf28d;
      }

      .cls-13 {
        stroke-width: 2.003px;
      }

      .cls-15 {
        stroke-width: 1.999px;
      }

      .cls-17 {
        fill: #f2ac58;
      }
    </style>
    <clipPath id="clip-path">
      <rect id="imageMask" class="cls-1" width="288" height="191" transform="translate(63.672 39.88)"/>
    </clipPath>
  </defs>
  <g id="SWKDIFDT3600_1" transform="translate(49 33.282)">
    <g id="deco">
      <rect id="BG" class="cls-2" width="444" height="221" transform="translate(-49 -33.282)"/>
      <ellipse id="타원_561" data-name="타원 561" class="cls-3" cx="93" cy="96" rx="93" ry="96" transform="translate(158 -10.282)"/>
      <circle id="타원_562" data-name="타원 562" class="cls-4" cx="23" cy="23" r="23" transform="translate(52 -33.282)"/>
      <circle id="Ellipse_2" data-name="Ellipse 2" class="cls-3" cx="12.852" cy="12.852" r="12.852" transform="translate(-19.704 51.513)"/>
    </g>
    <g id="img">
      <g id="공사장" transform="translate(-11 13.244)">
        <g id="그룹_626234" data-name="그룹 626234" transform="translate(-2 -2)">
          <line id="선_223" data-name="선 223" class="cls-5" x2="360" transform="translate(6 174.786)"/>
          <g id="img-2" data-name="img" class="cls-6" transform="translate(-46.172 -56.406)">
            <g id="img-3" data-name="img" transform="translate(81.602 86.365)">
              <g id="삽" transform="translate(3.05 -30.635) rotate(9)">
                <path id="패스_3293" data-name="패스 3293" class="cls-7" d="M137.893,43.232a6.879,6.879,0,0,1,10.416-3.5l9.1,6.27a10.335,10.335,0,0,1,3.378,3.894,10.551,10.551,0,0,1,1.01,3.509l40.177,13.511L198.1,78.5,157.92,64.991A10.511,10.511,0,0,1,155,67.178a10.291,10.291,0,0,1-5.039,1.063l-11.033-.5a6.891,6.891,0,0,1-6.2-9.081Zm12.4,18.111a3.349,3.349,0,0,0,3.313-2.288l1.18-3.52a3.359,3.359,0,0,0-1.265-3.826L144.4,45.432l-5.129,15.425Z" transform="translate(-132.365 -38.532)"/>
                <path id="패스_3294" data-name="패스 3294" class="cls-5" d="M137.893,43.232a6.879,6.879,0,0,1,10.416-3.5l9.1,6.27a10.335,10.335,0,0,1,3.378,3.894,10.551,10.551,0,0,1,1.01,3.509l40.177,13.511L198.1,78.5,157.92,64.991A10.511,10.511,0,0,1,155,67.178a10.291,10.291,0,0,1-5.039,1.063l-11.033-.5a6.891,6.891,0,0,1-6.2-9.081Zm12.4,18.111a3.349,3.349,0,0,0,3.313-2.288l1.18-3.52a3.359,3.359,0,0,0-1.265-3.826L144.4,45.432l-5.129,15.425Z" transform="translate(-132.365 -38.532)"/>
                <path id="패스_3295" data-name="패스 3295" class="cls-8" d="M218.277,98.667l14.587,4.905a45.245,45.245,0,0,0,34.574-2.393,8.854,8.854,0,0,0,3.973-11.858,45.312,45.312,0,0,0-26.132-22.806L230.692,61.61l-8.147,24.319Z" transform="translate(-144.098 -41.684)"/>
                <path id="패스_3296" data-name="패스 3296" class="cls-9" d="M228.728,72.417l15.038,5.021a2.28,2.28,0,0,1,.88.539l9.067,8.922a2.2,2.2,0,0,1,.642,2.077,1.386,1.386,0,0,1-.469.763c-1.492,1.372-19.46-5.842-25.876-8.07a2.29,2.29,0,0,1-1.413-2.894Z" transform="translate(-145.218 -43.159)"/>
                <path id="패스_3297" data-name="패스 3297" class="cls-5" d="M218.277,98.667l14.587,4.905a45.245,45.245,0,0,0,34.574-2.393,8.854,8.854,0,0,0,3.973-11.858,45.312,45.312,0,0,0-26.132-22.806L230.692,61.61l-8.147,24.319Z" transform="translate(-144.098 -41.684)"/>
                <path id="패스_3298" data-name="패스 3298" class="cls-10" d="M212.374,71.412l27.554,9.265a.913.913,0,0,1,.33.2l9.169,8.566a.911.911,0,0,1-.526,1.571L236.431,92.3a.929.929,0,0,1-.383-.042l-27.553-9.266Z" transform="translate(-142.762 -43.022)"/>
                <path id="패스_3299" data-name="패스 3299" class="cls-5" d="M212.374,71.412l27.554,9.265a.913.913,0,0,1,.33.2l9.169,8.566a.911.911,0,0,1-.526,1.571L236.431,92.3a.929.929,0,0,1-.383-.042l-27.553-9.266Z" transform="translate(-142.762 -43.022)"/>
              </g>
              <g id="그룹_2022" data-name="그룹 2022" transform="translate(0 61.54)">
                <g id="그룹_2012" data-name="그룹 2012" transform="translate(7.537 37.705)">
                  <g id="그룹_2009" data-name="그룹 2009">
                    <path id="패스_3300" data-name="패스 3300" class="cls-11" d="M157.026,193.254a11,11,0,0,0-5.49-2.263,10,10,0,0,0-3.926-5.368,15.148,15.148,0,0,0-8.828-2.7,16.178,16.178,0,0,0-4.14.527,11.6,11.6,0,0,0-.929-.794,15.007,15.007,0,0,0-9.124-2.921c-7.2,0-13.052,4.6-13.052,10.259a8.167,8.167,0,0,0,.319,2.265,7.69,7.69,0,0,0-4.374,6.6,1.735,1.735,0,0,0,1.9,1.494h48.659a1.735,1.735,0,0,0,1.9-1.494,7.207,7.207,0,0,0-2.917-5.6Z" transform="translate(-107.482 -179.733)"/>
                  </g>
                  <g id="그룹_2010" data-name="그룹 2010" transform="translate(9.232 8.898)">
                    <path id="패스_3301" data-name="패스 3301" class="cls-5" d="M120.618,194.747a2.35,2.35,0,1,1,4.7,0" transform="translate(-120.618 -192.392)"/>
                  </g>
                  <g id="그룹_2011" data-name="그룹 2011" transform="translate(37.98 14.025)">
                    <path id="패스_3302" data-name="패스 3302" class="cls-5" d="M161.519,202.043a2.35,2.35,0,1,1,4.7,0" transform="translate(-161.519 -199.688)"/>
                  </g>
                </g>
                <g id="그룹_2013" data-name="그룹 2013" transform="translate(0 57.367)">
                  <path id="패스_3303" data-name="패스 3303" class="cls-8" d="M263.992,208.254H96.837v25.5H319.71v-25.5Z" transform="translate(-96.782 -207.87)"/>
                  <rect id="사각형_957" data-name="사각형 957" class="cls-9" width="222.928" height="7.649"/>
                  <path id="패스_3304" data-name="패스 3304" class="cls-5" d="M263.992,208.254H96.837v25.5H319.71v-25.5Z" transform="translate(-96.782 -207.87)"/>
                  <line id="선_888" data-name="선 888" class="cls-12" y1="24.221" transform="translate(48.989 0.956)"/>
                  <line id="선_889" data-name="선 889" class="cls-12" y1="24.221" transform="translate(100.522 0.956)"/>
                  <line id="선_890" data-name="선 890" class="cls-12" y1="24.221" transform="translate(152.056 0.956)"/>
                </g>
                <g id="그룹_2014" data-name="그룹 2014" transform="translate(152.056 6.375)">
                  <path id="패스_3305" data-name="패스 3305" class="cls-8" d="M465.869,135.7H313.177v25.5H516.767V135.7Z" transform="translate(-313.122 -135.32)"/>
                  <rect id="사각형_958" data-name="사각형 958" class="cls-9" width="203.589" height="7.649"/>
                  <path id="패스_3306" data-name="패스 3306" class="cls-5" d="M465.869,135.7H313.177v25.5H516.767V135.7Z" transform="translate(-313.122 -135.32)"/>
                  <line id="선_891" data-name="선 891" class="cls-13" y1="24.221" transform="translate(48.989 0.956)"/>
                  <line id="선_892" data-name="선 892" class="cls-13" y1="24.221" transform="translate(100.522 0.956)"/>
                </g>
                <g id="그룹_2020" data-name="그룹 2020" transform="translate(68.931)">
                  <g id="그룹_2015" data-name="그룹 2015">
                    <path id="패스_3307" data-name="패스 3307" class="cls-14" d="M282.389,150.313a14.065,14.065,0,0,0-6.79-2.638,11.719,11.719,0,0,0-4.855-6.256,19.54,19.54,0,0,0-10.917-3.151,21.693,21.693,0,0,0-2.712.17,16.092,16.092,0,0,0-13.506-7.328,15.967,15.967,0,0,0-5.119.83,16.1,16.1,0,0,0-12.431-5.854,16.187,16.187,0,0,0-15.745,19.74c-.082.056-.16.118-.241.177a11.874,11.874,0,0,0-5.769,1.917,7.284,7.284,0,0,0-3.016,3.886,8.738,8.738,0,0,0-4.217,1.638,5.131,5.131,0,0,0-2.241,4.056c0,.6.655,1.082,1.46,1.082h87.354c1.3,0,2.35-.78,2.35-1.741A8.259,8.259,0,0,0,282.389,150.313Z" transform="translate(-194.832 -126.088)"/>
                  </g>
                  <g id="그룹_2016" data-name="그룹 2016">
                    <path id="패스_3308" data-name="패스 3308" class="cls-15" d="M324.538,169.845Z" transform="translate(-233.373 -139.09)"/>
                    <path id="패스_3309" data-name="패스 3309" class="cls-5" d="M286,156.843a8.259,8.259,0,0,0-3.607-6.53,14.065,14.065,0,0,0-6.79-2.638,11.719,11.719,0,0,0-4.855-6.256,19.54,19.54,0,0,0-10.917-3.151,21.693,21.693,0,0,0-2.712.17,16.092,16.092,0,0,0-13.506-7.328,15.967,15.967,0,0,0-5.119.83,16.1,16.1,0,0,0-12.431-5.854,16.187,16.187,0,0,0-15.745,19.74c-.082.056-.16.118-.241.177a11.874,11.874,0,0,0-5.769,1.917,7.284,7.284,0,0,0-3.016,3.886,8.738,8.738,0,0,0-4.217,1.638,5.131,5.131,0,0,0-2.241,4.056" transform="translate(-194.832 -126.088)"/>
                  </g>
                  <g id="그룹_2017" data-name="그룹 2017" transform="translate(56.448 17.985)">
                    <path id="패스_3310" data-name="패스 3310" class="cls-5" d="M275.144,152.518a2.353,2.353,0,0,1,4.085,2.072" transform="translate(-275.144 -151.676)"/>
                  </g>
                  <g id="그룹_2018" data-name="그룹 2018" transform="translate(10.828 26.507)">
                    <path id="패스_3311" data-name="패스 3311" class="cls-5" d="M210.238,165.514a2.351,2.351,0,0,1,4.573.217" transform="translate(-210.238 -163.801)"/>
                  </g>
                  <g id="그룹_2019" data-name="그룹 2019" transform="translate(36.794 9.234)">
                    <path id="패스_3312" data-name="패스 3312" class="cls-5" d="M247.182,140.939a2.35,2.35,0,0,1,4.573.217" transform="translate(-247.182 -139.227)"/>
                  </g>
                  <ellipse id="타원_127" data-name="타원 127" class="cls-5" cx="2.545" cy="2.55" rx="2.545" ry="2.55" transform="translate(22.879 16.404)"/>
                </g>
                <g id="그룹_2021" data-name="그룹 2021" transform="translate(64.388 31.871)">
                  <path id="패스_3313" data-name="패스 3313" class="cls-8" d="M341.138,171.979H188.446v25.5H392.035v-25.5Z" transform="translate(-188.391 -171.595)"/>
                  <rect id="사각형_959" data-name="사각형 959" class="cls-9" width="203.589" height="7.649"/>
                  <path id="패스_3314" data-name="패스 3314" class="cls-5" d="M341.138,171.979H188.446v25.5H392.035v-25.5Z" transform="translate(-188.391 -171.595)"/>
                  <path id="패스_7377" data-name="패스 7377" class="cls-16" d="M0,24.221V0" transform="translate(48.989 0.956)"/>
                  <line id="선_894" data-name="선 894" class="cls-12" y1="24.221" transform="translate(100.522 0.956)"/>
                  <line id="선_895" data-name="선 895" class="cls-13" y1="24.221" transform="translate(152.056 0.956)"/>
                </g>
              </g>
            </g>
          </g>
        </g>
      </g>
      <g id="안내봉" transform="translate(219.108 20.965)">
        <path id="패스_3256" data-name="패스 3256" class="cls-8" d="M90.936,148.525,62.482,7.144c-1.284-8.581-21.6-8.1-22.672.981L11.5,148.525Z" transform="translate(2.933 -1.589)"/>
        <path id="패스_3258" data-name="패스 3258" class="cls-17" d="M77.617,76.728l-52.7,24.758H58.536L80.52,91.158Z" transform="translate(11.27 45.45)"/>
        <path id="패스_3259" data-name="패스 3259" class="cls-17" d="M76.461,52.215,17.421,79.958,13.9,97.4,79.367,66.642Z" transform="translate(4.425 30.224)"/>
        <path id="패스_3260" data-name="패스 3260" class="cls-17" d="M64.751,27.7,23.4,47.133,19.878,64.578,67.656,42.127Z" transform="translate(8.137 14.998)"/>
        <path id="패스_3261" data-name="패스 3261" class="cls-17" d="M53.565,5.786c-.136-.893-.31-1.757-.514-2.6L29.374,14.309,25.856,31.757l30.09-14.136Z" transform="translate(11.851 -0.231)"/>
        <path id="패스_3262" data-name="패스 3262" class="cls-8" d="M111.238,108.54h-107A3.542,3.542,0,0,1,1,104.759V95.78A3.542,3.542,0,0,1,4.242,92h107a3.542,3.542,0,0,1,3.242,3.78v8.979a3.542,3.542,0,0,1-3.242,3.78" transform="translate(-3.589 56.525)"/>
        <path id="패스_3257" data-name="패스 3257" class="cls-5" d="M90.936,148.525,62.482,7.144c-1.284-8.581-21.6-8.1-22.672.981L11.5,148.525Z" transform="translate(2.933 -1.589)"/>
        <rect id="사각형_461086" data-name="사각형 461086" class="cls-5" width="113.48" height="18.127" rx="2" transform="translate(-2.589 146.937)"/>
      </g>
    </g>
  </g>
</svg>
