<svg xmlns="http://www.w3.org/2000/svg" width="444" height="228" viewBox="0 0 444 228">
    <g transform="translate(-436 -767)">
        <circle data-name="Ellipse 2" cx="49.25" cy="49.25" r="49.25" transform="translate(767 767)" style="fill:#e3e6fb"/>
        <circle data-name="Ellipse 2" cx="37" cy="37" r="37" transform="translate(480 807)" style="fill:#e4ffe1"/>
        <circle data-name="Ellipse 2" cx="17.5" cy="17.5" r="17.5" transform="translate(468 857)" style="fill:rgba(252,245,189,.7)"/>
    </g>
    <g data-name="그룹 634170">
        <g data-name="그룹 634164">
            <path data-name="사각형 464724" transform="translate(90.688 100.257)" style="stroke-width:2.954px;stroke-linejoin:round;stroke:#222;stroke-linecap:round;fill:#fff" d="M0 0h19.649v64.798H0z"/>
            <path data-name="사각형 464725" transform="translate(110.337 116.945)" style="fill:#222" d="M0 0h10.351v3.317H0z"/>
            <path data-name="사각형 464726" transform="translate(110.337 148.257)" style="fill:#222" d="M0 0h10.351v3.317H0z"/>
            <path data-name="패스 15670" d="M201.96 258.092V132.568h-63.437v125.524" style="stroke-width:2.954px;stroke-linejoin:round;stroke:#222;stroke-linecap:round;fill:#fff" transform="translate(-17.835 -32.831)"/>
            <g data-name="그룹 634161">
                <path data-name="사각형 464727" transform="translate(129.895 122.853)" style="fill:#e4e4e4" d="M0 0h9.593v10.109H0z"/>
                <path data-name="사각형 464728" transform="translate(149.08 122.853)" style="fill:#e4e4e4" d="M0 0h9.593v10.109H0z"/>
                <path data-name="사각형 464729" transform="translate(168.266 122.853)" style="fill:#e4e4e4" d="M0 0h9.593v10.109H0z"/>
                <g data-name="그룹 634160">
                    <g data-name="그룹 634159">
                        <path data-name="패스 15671" d="M150.733 134.082v10.473c0 2.433-2.378 4.407-5.311 4.407s-5.311-1.973-5.311-4.407v-10.473z" style="fill:#fcf28d" transform="translate(-17.835 -32.831)"/>
                        <path data-name="패스 15672" d="M161.354 134.082v10.473c0 2.433-2.377 4.407-5.311 4.407s-5.311-1.973-5.311-4.407v-10.473z" style="fill:#f2ac58" transform="translate(-17.835 -32.831)"/>
                        <path data-name="패스 15673" d="M182.6 134.082v10.473c0 2.433-2.377 4.407-5.311 4.407s-5.311-1.973-5.311-4.407v-10.473z" style="fill:#f2ac58" transform="translate(-17.835 -32.831)"/>
                        <path data-name="패스 15674" d="M171.976 134.082v10.473c0 2.433-2.378 4.407-5.311 4.407s-5.312-1.973-5.312-4.407v-10.473z" style="fill:#fcf28d" transform="translate(-17.835 -32.831)"/>
                        <path data-name="패스 15675" d="M203.841 134.082v10.473c0 2.433-2.377 4.407-5.311 4.407s-5.311-1.973-5.311-4.407v-10.473z" style="fill:#f2ac58" transform="translate(-17.835 -32.831)"/>
                        <path data-name="패스 15676" d="M193.22 134.082v10.473c0 2.433-2.378 4.407-5.311 4.407s-5.312-1.973-5.312-4.407v-10.473z" style="fill:#fcf28d" transform="translate(-17.835 -32.831)"/>
                        <path data-name="패스 15677" d="M225.084 134.082v10.473c0 2.433-2.377 4.407-5.311 4.407s-5.311-1.973-5.311-4.407v-10.473z" style="fill:#f2ac58" transform="translate(-17.835 -32.831)"/>
                        <path data-name="패스 15678" d="M214.463 134.082v10.473c0 2.433-2.378 4.407-5.311 4.407s-5.312-1.973-5.312-4.407v-10.473z" style="fill:#fcf28d" transform="translate(-17.835 -32.831)"/>
                    </g>
                </g>
            </g>
            <g data-name="그룹 634162">
                <path data-name="패스 15679" d="M150.733 175.53V186c0 2.433-2.378 4.407-5.311 4.407s-5.311-1.973-5.311-4.407v-10.47z" style="fill:#fcf28d" transform="translate(-17.835 -32.831)"/>
                <path data-name="패스 15680" d="M161.354 175.53V186c0 2.433-2.377 4.407-5.311 4.407s-5.311-1.973-5.311-4.407v-10.47z" style="fill:#f2ac58" transform="translate(-17.835 -32.831)"/>
                <path data-name="패스 15681" d="M182.6 175.53V186c0 2.433-2.377 4.407-5.311 4.407s-5.311-1.973-5.311-4.407v-10.47z" style="fill:#f2ac58" transform="translate(-17.835 -32.831)"/>
                <path data-name="패스 15682" d="M171.976 175.53V186c0 2.433-2.378 4.407-5.311 4.407s-5.312-1.973-5.312-4.407v-10.47z" style="fill:#fcf28d" transform="translate(-17.835 -32.831)"/>
                <path data-name="패스 15683" d="M203.841 175.53V186c0 2.433-2.377 4.407-5.311 4.407s-5.311-1.973-5.311-4.407v-10.47z" style="fill:#f2ac58" transform="translate(-17.835 -32.831)"/>
                <path data-name="패스 15684" d="M193.22 175.53V186c0 2.433-2.378 4.407-5.311 4.407s-5.309-1.97-5.309-4.407v-10.47z" style="fill:#fcf28d" transform="translate(-17.835 -32.831)"/>
                <path data-name="패스 15685" d="M225.084 175.53V186c0 2.433-2.377 4.407-5.311 4.407s-5.311-1.973-5.311-4.407v-10.47z" style="fill:#f2ac58" transform="translate(-17.835 -32.831)"/>
                <path data-name="패스 15686" d="M214.463 175.53V186c0 2.433-2.378 4.407-5.311 4.407s-5.312-1.973-5.312-4.407v-10.47z" style="fill:#fcf28d" transform="translate(-17.835 -32.831)"/>
                <path data-name="사각형 464730" transform="translate(129.895 164.301)" style="fill:#e4e4e4" d="M0 0h9.593v10.109H0z"/>
                <path data-name="사각형 464731" transform="translate(149.08 164.301)" style="fill:#e4e4e4" d="M0 0h9.593v10.109H0z"/>
                <path data-name="사각형 464732" transform="translate(168.266 164.301)" style="fill:#e4e4e4" d="M0 0h9.593v10.109H0z"/>
                <path data-name="선 3026" transform="translate(120.543 141.049)" style="stroke-width:2.878px;stroke-linejoin:round;stroke:#222;stroke-linecap:round;fill:#fff" d="M0 0h111.509"/>
            </g>
            <g data-name="그룹 634163">
                <path data-name="패스 15687" d="M150.733 216.978v10.473c0 2.433-2.378 4.407-5.311 4.407s-5.311-1.973-5.311-4.407v-10.473z" style="fill:#fcf28d" transform="translate(-17.835 -32.831)"/>
                <path data-name="패스 15688" d="M161.354 216.978v10.473c0 2.433-2.377 4.407-5.311 4.407s-5.311-1.973-5.311-4.407v-10.473z" style="fill:#f2ac58" transform="translate(-17.835 -32.831)"/>
                <path data-name="패스 15689" d="M182.6 216.978v10.473c0 2.433-2.377 4.407-5.311 4.407s-5.311-1.973-5.311-4.407v-10.473z" style="fill:#f2ac58" transform="translate(-17.835 -32.831)"/>
                <path data-name="패스 15690" d="M171.976 216.978v10.473c0 2.433-2.378 4.407-5.311 4.407s-5.312-1.973-5.312-4.407v-10.473z" style="fill:#fcf28d" transform="translate(-17.835 -32.831)"/>
                <path data-name="패스 15691" d="M203.841 216.978v10.473c0 2.433-2.377 4.407-5.311 4.407s-5.311-1.973-5.311-4.407v-10.473z" style="fill:#f2ac58" transform="translate(-17.835 -32.831)"/>
                <path data-name="패스 15692" d="M193.22 216.978v10.473c0 2.433-2.378 4.407-5.311 4.407s-5.312-1.973-5.312-4.407v-10.473z" style="fill:#fcf28d" transform="translate(-17.835 -32.831)"/>
                <path data-name="패스 15693" d="M225.084 216.978v10.473c0 2.433-2.377 4.407-5.311 4.407s-5.311-1.973-5.311-4.407v-10.473z" style="fill:#f2ac58" transform="translate(-17.835 -32.831)"/>
                <path data-name="패스 15694" d="M214.463 216.978v10.473c0 2.433-2.378 4.407-5.311 4.407s-5.312-1.973-5.312-4.407v-10.473z" style="fill:#fcf28d" transform="translate(-17.835 -32.831)"/>
                <path data-name="사각형 464733" transform="translate(129.895 205.749)" style="fill:#e4e4e4" d="M0 0h9.593v10.109H0z"/>
                <path data-name="사각형 464734" transform="translate(149.08 205.749)" style="fill:#e4e4e4" d="M0 0h9.593v10.109H0z"/>
                <path data-name="사각형 464735" transform="translate(168.266 205.749)" style="fill:#e4e4e4" d="M0 0h9.593v10.109H0z"/>
                <path data-name="선 3027" transform="translate(120.543 182.498)" style="stroke-width:2.878px;stroke-linejoin:round;stroke:#222;stroke-linecap:round;fill:#fff" d="M0 0h111.509"/>
            </g>
        </g>
        <g data-name="그룹 634166">
            <path data-name="선 3028" transform="translate(309.447 207.608)" style="fill:#ffc96f;stroke-width:3.033px;stroke-linejoin:round;stroke:#222;stroke-linecap:round" d="M0 0v17.854"/>
            <path data-name="선 3029" transform="translate(334.388 207.608)" style="fill:#ffc96f;stroke-width:3.033px;stroke-linejoin:round;stroke:#222;stroke-linecap:round" d="M0 0v17.854"/>
            <path data-name="사각형 464736" transform="translate(292.973 179.465)" style="fill:#fcf28d;stroke-width:2.954px;stroke-linejoin:round;stroke:#222;stroke-linecap:round" d="M0 0h57.557v28.306H0z"/>
            <g data-name="그룹 634165">
                <path data-name="패스 15695" d="M317.523 225.951a8.654 8.654 0 0 1 .383-2.624 6.062 6.062 0 0 1 1.117-2.089 5.124 5.124 0 0 1 1.8-1.372 6.191 6.191 0 0 1 4.848 0 5.133 5.133 0 0 1 1.8 1.372 6.043 6.043 0 0 1 1.116 2.089 9.186 9.186 0 0 1 0 5.242 6.073 6.073 0 0 1-1.116 2.079 5.144 5.144 0 0 1-1.8 1.372 6.191 6.191 0 0 1-4.848 0 5.136 5.136 0 0 1-1.8-1.372 6.092 6.092 0 0 1-1.117-2.079 8.584 8.584 0 0 1-.383-2.618zm2.539 0a6.062 6.062 0 0 0 .213 1.645 4.042 4.042 0 0 0 .621 1.312 2.919 2.919 0 0 0 .994.869 3.062 3.062 0 0 0 2.707 0 2.946 2.946 0 0 0 .994-.869 4.078 4.078 0 0 0 .619-1.312 6.4 6.4 0 0 0 0-3.29 4.2 4.2 0 0 0-.619-1.321 2.916 2.916 0 0 0-.994-.877 3.062 3.062 0 0 0-2.707 0 2.89 2.89 0 0 0-.994.877 4.164 4.164 0 0 0-.621 1.321 6.067 6.067 0 0 0-.213 1.645z" style="fill:#222" transform="translate(-17.835 -32.831)"/>
                <path data-name="패스 15696" d="M330.339 221.314q0-1.686 1.5-1.687h3.931a4.174 4.174 0 0 1 1.574.29 3.554 3.554 0 0 1 1.239.827 3.769 3.769 0 0 1 .811 1.3 4.845 4.845 0 0 1 .291 1.722 4.774 4.774 0 0 1-.291 1.713 3.842 3.842 0 0 1-.818 1.305 3.559 3.559 0 0 1-1.246.834 4.142 4.142 0 0 1-1.56.29h-2.861v3.018a1.5 1.5 0 0 1-.352 1.039 1.306 1.306 0 0 1-1.866 0 1.5 1.5 0 0 1-.35-1.039zm2.568 4.194h2.416a1.91 1.91 0 0 0 1.3-.452 1.939 1.939 0 0 0 0-2.643 1.914 1.914 0 0 0-1.3-.451h-2.416z" style="fill:#222" transform="translate(-17.835 -32.831)"/>
                <path data-name="패스 15697" d="M341.945 232.259q-1.5 0-1.5-1.687v-9.257q0-1.686 1.5-1.687h5.355a1.625 1.625 0 0 1 .94.248 1.292 1.292 0 0 1 0 1.789 1.617 1.617 0 0 1-.94.248h-4.266v2.726h3.991a1.378 1.378 0 0 1 .88.273 1.273 1.273 0 0 1 0 1.74 1.377 1.377 0 0 1-.88.272h-3.991v3.051h4.449a1.669 1.669 0 0 1 .941.24.987.987 0 0 1 .359.886 1.038 1.038 0 0 1-.359.9 1.594 1.594 0 0 1-.941.256z" style="fill:#222" transform="translate(-17.835 -32.831)"/>
                <path data-name="패스 15698" d="M350.082 221.519a2.551 2.551 0 0 1 .36-1.482 1.4 1.4 0 0 1 1.231-.513 1.556 1.556 0 0 1 1.543.887l3.962 7.756h.045v-7.177a1.606 1.606 0 0 1 .337-1.056 1.233 1.233 0 0 1 1.835 0 1.606 1.606 0 0 1 .337 1.056v9.444a2.6 2.6 0 0 1-.329 1.423 1.274 1.274 0 0 1-1.154.5 2.134 2.134 0 0 1-.994-.213 1.681 1.681 0 0 1-.689-.708l-3.93-7.381h-.046v6.836a1.606 1.606 0 0 1-.337 1.056 1.233 1.233 0 0 1-1.835 0 1.611 1.611 0 0 1-.336-1.056z" style="fill:#222" transform="translate(-17.835 -32.831)"/>
            </g>
        </g>
        <g data-name="그룹 634169">
            <path data-name="패스 15699" d="M201.294 258.092V99.995h79.9v158.1" style="stroke-width:2.954px;stroke-linejoin:round;stroke:#222;stroke-linecap:round;fill:#fff" transform="translate(-17.835 -32.831)"/>
            <path data-name="사각형 464737" transform="translate(175.922 49)" style="fill:#f2ac58;stroke-width:2.954px;stroke-linejoin:round;stroke:#222;stroke-linecap:round" d="M0 0h94.973v19.1H0z"/>
            <path data-name="패스 15700" d="M219.459 258.092v-40.519h18.981v40.519" style="fill:#afdae9;stroke-width:2.954px;stroke-linejoin:round;stroke:#222;stroke-linecap:round" transform="translate(-17.835 -32.831)"/>
            <path data-name="패스 15701" d="M244.048 258.092v-40.519h18.982v40.519" style="fill:#afdae9;stroke-width:2.954px;stroke-linejoin:round;stroke:#222;stroke-linecap:round" transform="translate(-17.835 -32.831)"/>
            <path data-name="선 3030" transform="translate(206.809 185.893)" style="stroke-miterlimit:10;fill:none;stroke-width:2.954px;stroke:#222;stroke-linecap:round" d="M12.826 0 0 12.24"/>
            <path data-name="선 3031" transform="translate(201.623 198.905)" style="stroke-miterlimit:10;fill:none;stroke-width:2.954px;stroke:#222;stroke-linecap:round" d="M0 13.868 14.3 0"/>
            <g data-name="그룹 634167" transform="translate(-17.835 -32.831)">
                <rect data-name="사각형 464738" width="14.908" height="28.047" rx=".985" transform="translate(210.58 115.094)" style="fill:#e4e4e4"/>
                <rect data-name="사각형 464739" width="14.907" height="28.047" rx=".985" transform="translate(234.059 115.094)" style="fill:#e4e4e4"/>
                <rect data-name="사각형 464740" width="14.908" height="28.047" rx=".985" transform="translate(257.537 115.094)" style="fill:#e4e4e4"/>
            </g>
            <path data-name="사각형 464741" transform="translate(168.478 129.14)" style="stroke-width:2.954px;stroke-linejoin:round;stroke:#222;stroke-linecap:round;fill:#fff" d="M0 0h111.509v33.008H0z"/>
            <g data-name="그룹 634168">
                <path data-name="패스 15702" d="M199.635 179.3v3.614a1.474 1.474 0 0 1-.361 1.039 1.369 1.369 0 0 1-1.919 0 1.5 1.5 0 0 1-.355-1.043v-9.615q0-1.686 1.536-1.687h5.294a1.515 1.515 0 0 1 .964.29 1.125 1.125 0 0 1 .367.938 1.2 1.2 0 0 1-.367.962 1.431 1.431 0 0 1-.964.315h-4.2v2.727h3.9a1.509 1.509 0 0 1 .964.29 1.379 1.379 0 0 1 0 1.874 1.509 1.509 0 0 1-.964.29z" style="fill:#222" transform="translate(-17.835 -32.831)"/>
                <path data-name="패스 15703" d="M215.865 175.521a4.4 4.4 0 0 1-.446 2.04 3.339 3.339 0 0 1-1.261 1.361l1.661 3.562a1.666 1.666 0 0 1 .149.972 1.065 1.065 0 0 1-.572.8 1.224 1.224 0 0 1-.508.155 1.24 1.24 0 0 1-.485-.061 1.129 1.129 0 0 1-.415-.255 1.331 1.331 0 0 1-.3-.419l-2.1-4.192h-2.522v3.42a1.466 1.466 0 0 1-.368 1.044 1.26 1.26 0 0 1-.963.393 1.236 1.236 0 0 1-.956-.392 1.477 1.477 0 0 1-.36-1.039v-9.615q0-1.686 1.535-1.687h3.946a4.68 4.68 0 0 1 1.629.273 3.527 3.527 0 0 1 1.253.773 3.411 3.411 0 0 1 .8 1.225 4.487 4.487 0 0 1 .283 1.642zm-6.8 1.713h2.256a2.345 2.345 0 0 0 1.425-.394 1.534 1.534 0 0 0 .532-1.318 1.473 1.473 0 0 0-.525-1.3 2.465 2.465 0 0 0-1.433-.368h-2.256z" style="fill:#222" transform="translate(-17.835 -32.831)"/>
                <path data-name="패스 15704" d="M221.99 171.506a1.585 1.585 0 0 1 .988.3 1.841 1.841 0 0 1 .595.826l3.759 9.921a1.3 1.3 0 0 1 0 1.048 1.24 1.24 0 0 1-.767.673 1.1 1.1 0 0 1-.979-.086 1.628 1.628 0 0 1-.665-.869l-.706-2.011h-4.465l-.689 2.011a1.634 1.634 0 0 1-.666.869 1.131 1.131 0 0 1-1 .086 1.212 1.212 0 0 1-.759-.673 1.327 1.327 0 0 1 .008-1.048l3.759-9.921a1.829 1.829 0 0 1 .6-.826 1.579 1.579 0 0 1 .987-.3zm-1.409 7.415h2.819l-1.378-3.971h-.062z" style="fill:#222" transform="translate(-17.835 -32.831)"/>
                <path data-name="패스 15705" d="M228.539 173.5a2.512 2.512 0 0 1 .368-1.482 1.446 1.446 0 0 1 1.26-.513 1.859 1.859 0 0 1 .955.213 1.818 1.818 0 0 1 .627.673l4.058 7.756h.046v-7.177a1.58 1.58 0 0 1 .345-1.056 1.283 1.283 0 0 1 1.879 0 1.58 1.58 0 0 1 .345 1.056v9.444a2.539 2.539 0 0 1-.338 1.423 1.318 1.318 0 0 1-1.183.5 2.235 2.235 0 0 1-1.018-.213 1.7 1.7 0 0 1-.705-.708l-4.026-7.381h-.047v6.836a1.584 1.584 0 0 1-.344 1.056 1.284 1.284 0 0 1-1.88 0 1.579 1.579 0 0 1-.344-1.056z" style="fill:#222" transform="translate(-17.835 -32.831)"/>
                <path data-name="패스 15706" d="M239.755 177.915a8.5 8.5 0 0 1 .368-2.522 6.124 6.124 0 0 1 1.1-2.088 5.313 5.313 0 0 1 1.8-1.423 5.542 5.542 0 0 1 2.483-.529 5.3 5.3 0 0 1 2.71.639 4.905 4.905 0 0 1 1.692 1.56 1.694 1.694 0 0 1 .282.988 1.12 1.12 0 0 1-.391.853 1.32 1.32 0 0 1-.423.23 1.2 1.2 0 0 1-.486.051 1.231 1.231 0 0 1-.493-.163 1.293 1.293 0 0 1-.431-.408 3.48 3.48 0 0 0-1.042-.954 2.777 2.777 0 0 0-1.418-.341 2.842 2.842 0 0 0-1.19.256 2.71 2.71 0 0 0-.987.775 3.976 3.976 0 0 0-.674 1.287 5.807 5.807 0 0 0-.25 1.789 5.886 5.886 0 0 0 .25 1.8 3.864 3.864 0 0 0 .674 1.287 2.822 2.822 0 0 0 .987.775 2.759 2.759 0 0 0 1.19.264 3.352 3.352 0 0 0 1.465-.3 2.9 2.9 0 0 0 1.057-.878 1.981 1.981 0 0 1 .9-.716.964.964 0 0 1 .963.154 1.065 1.065 0 0 1 .5.895 2.022 2.022 0 0 1-.344 1.083 4.788 4.788 0 0 1-1.715 1.576 5.644 5.644 0 0 1-2.828.64 5.555 5.555 0 0 1-2.483-.529 5.338 5.338 0 0 1-1.8-1.423 6.121 6.121 0 0 1-1.1-2.1 8.592 8.592 0 0 1-.366-2.528z" style="fill:#222" transform="translate(-17.835 -32.831)"/>
                <path data-name="패스 15707" d="M251.724 172.937a1.474 1.474 0 0 1 .361-1.039 1.361 1.361 0 0 1 1.912 0 1.477 1.477 0 0 1 .36 1.039v3.529h4.543v-3.529a1.474 1.474 0 0 1 .361-1.039 1.36 1.36 0 0 1 1.911 0 1.477 1.477 0 0 1 .36 1.039v9.973a1.477 1.477 0 0 1-.36 1.039 1.36 1.36 0 0 1-1.911 0 1.474 1.474 0 0 1-.361-1.039v-3.989h-4.543v3.989a1.457 1.457 0 0 1-.368 1.039 1.26 1.26 0 0 1-.963.392 1.21 1.21 0 0 1-.948-.392 1.5 1.5 0 0 1-.353-1.039z" style="fill:#222" transform="translate(-17.835 -32.831)"/>
                <path data-name="패스 15708" d="M263.489 172.937a1.474 1.474 0 0 1 .361-1.039 1.236 1.236 0 0 1 .955-.392 1.262 1.262 0 0 1 .963.392 1.456 1.456 0 0 1 .368 1.039v9.973a1.457 1.457 0 0 1-.368 1.039 1.258 1.258 0 0 1-.963.392 1.233 1.233 0 0 1-.955-.392 1.474 1.474 0 0 1-.361-1.039z" style="fill:#222" transform="translate(-17.835 -32.831)"/>
                <path data-name="패스 15709" d="M276.288 172.852a2.074 2.074 0 0 1 .549 1.066 1.1 1.1 0 0 1-.329 1 .936.936 0 0 1-.932.281 2.221 2.221 0 0 1-.995-.571 4.129 4.129 0 0 0-1.049-.716 3.13 3.13 0 0 0-1.332-.257 3.53 3.53 0 0 0-.657.061 1.61 1.61 0 0 0-.549.2 1.088 1.088 0 0 0-.376.392 1.206 1.206 0 0 0-.141.606 1.275 1.275 0 0 0 .133.606 1.372 1.372 0 0 0 .361.426 2.109 2.109 0 0 0 .517.3q.289.118.619.221l2.178.647a6.88 6.88 0 0 1 1.3.529 3.455 3.455 0 0 1 .948.742 2.916 2.916 0 0 1 .579 1.023 4.344 4.344 0 0 1 .2 1.372 3.314 3.314 0 0 1-.329 1.474 3.507 3.507 0 0 1-.94 1.177 4.455 4.455 0 0 1-1.481.783 6.3 6.3 0 0 1-1.95.282 7.4 7.4 0 0 1-1.394-.128 6.1 6.1 0 0 1-1.269-.383 5.571 5.571 0 0 1-1.1-.623 3.625 3.625 0 0 1-.846-.86 2.161 2.161 0 0 1-.446-1.091 1.04 1.04 0 0 1 .431-.954 1.073 1.073 0 0 1 .995-.248 2.013 2.013 0 0 1 .948.69 3.524 3.524 0 0 0 1.292.971 3.819 3.819 0 0 0 1.543.325 2.816 2.816 0 0 0 .729-.094 2.155 2.155 0 0 0 .626-.273 1.418 1.418 0 0 0 .438-.443 1.127 1.127 0 0 0 .165-.606 1.349 1.349 0 0 0-.267-.895 1.812 1.812 0 0 0-.845-.5l-2.585-.767a5.737 5.737 0 0 1-1.207-.5 4.006 4.006 0 0 1-.978-.758 3.257 3.257 0 0 1-.65-1.031 3.957 3.957 0 0 1 .109-2.958 3.283 3.283 0 0 1 .932-1.133 3.91 3.91 0 0 1 1.371-.665 6.26 6.26 0 0 1 1.645-.212 6.72 6.72 0 0 1 2.366.383 4.2 4.2 0 0 1 1.673 1.109z" style="fill:#222" transform="translate(-17.835 -32.831)"/>
                <path data-name="패스 15710" d="M280.173 184.239q-1.535 0-1.535-1.687v-9.257q0-1.686 1.535-1.687h5.483a1.7 1.7 0 0 1 .964.248 1.271 1.271 0 0 1 0 1.789 1.693 1.693 0 0 1-.964.248h-4.37v2.726h4.088a1.434 1.434 0 0 1 .9.273 1.248 1.248 0 0 1 0 1.74 1.434 1.434 0 0 1-.9.272h-4.088v3.051h4.559a1.737 1.737 0 0 1 .962.24.972.972 0 0 1 .368.886 1.022 1.022 0 0 1-.368.9 1.658 1.658 0 0 1-.962.256z" style="fill:#222" transform="translate(-17.835 -32.831)"/>
            </g>
        </g>
    </g>
    <path data-name="패스 15711" d="M426.335 258.8h-360" transform="translate(-24.335 -33.314)" style="fill:none;stroke-width:2.878px;stroke-linejoin:round;stroke:#222;stroke-linecap:round"/>
    <g data-name="그룹 634181">
        <path data-name="선 3032" transform="translate(353.367 63.193)" style="stroke-width:1.97px;fill:none;stroke-linejoin:round;stroke:#222;stroke-linecap:round" d="m0 0 .125 15.023"/>
        <path data-name="선 3033" transform="translate(337.299 68.735)" style="stroke-dasharray:2 4;stroke-width:1.97px;fill:none;stroke-linejoin:round;stroke:#222;stroke-linecap:round" d="m0 0 8.993 15.164"/>
        <path data-name="선 3034" transform="translate(329.671 79.791)" style="stroke-dasharray:2 4;stroke-width:1.97px;fill:none;stroke-linejoin:round;stroke:#222;stroke-linecap:round" d="m0 0 12.425 9.795"/>
        <path data-name="선 3035" transform="translate(322.733 95.981)" style="stroke-width:1.97px;fill:none;stroke-linejoin:round;stroke:#222;stroke-linecap:round" d="m0 0 17.115.267"/>
        <path data-name="선 3036" transform="translate(353.311 107.122)" style="stroke-width:1.97px;fill:none;stroke-linejoin:round;stroke:#222;stroke-linecap:round" d="M0 22.257.259 0"/>
        <path data-name="선 3037" transform="translate(362.092 113.622)" style="stroke-dasharray:2 4;stroke-width:1.97px;fill:none;stroke-linejoin:round;stroke:#222;stroke-linecap:round" d="M3.386 6.292 0 0"/>
        <path data-name="선 3038" transform="translate(364.38 103.577)" style="stroke-dasharray:2 4;stroke-width:1.97px;fill:none;stroke-linejoin:round;stroke:#222;stroke-linecap:round" d="M6.494 4.332 0 0"/>
        <path data-name="선 3039" transform="translate(364.694 96.075)" style="stroke-width:1.97px;fill:none;stroke-linejoin:round;stroke:#222;stroke-linecap:round" d="M18.311 0 0 .08"/>
        <path data-name="선 3040" transform="translate(364.279 79.874)" style="stroke-dasharray:2 4;stroke-width:1.97px;fill:none;stroke-linejoin:round;stroke:#222;stroke-linecap:round" d="M18.832 0 0 9.712"/>
        <path data-name="선 3041" transform="translate(360.082 76.974)" style="stroke-dasharray:2 4;stroke-width:1.97px;fill:none;stroke-linejoin:round;stroke:#222;stroke-linecap:round" d="M4.83 0 0 8.82"/>
        <g data-name="그룹 634172">
            <g data-name="그룹 634171">
                <path data-name="패스 15712" d="M371.228 115.88a.043.043 0 0 1 .054-.03l-.054.03m-1.923-.622a2.187 2.187 0 0 0 1.362 2.7 2.038 2.038 0 0 0 2.566-1.435 2.187 2.187 0 0 0-1.362-2.7 2.038 2.038 0 0 0-2.566 1.435z" style="fill:#222" transform="translate(-17.835 -32.831)"/>
            </g>
        </g>
        <g data-name="그룹 634174">
            <g data-name="그룹 634173">
                <path data-name="패스 15713" d="M377 142.164a.042.042 0 0 1 .051-.033l-.051.033m-1.958-.487a2.172 2.172 0 0 0 1.527 2.6 2.052 2.052 0 0 0 2.471-1.608 2.172 2.172 0 0 0-1.526-2.605 2.053 2.053 0 0 0-2.472 1.609z" style="fill:#222" transform="translate(-17.835 -32.831)"/>
            </g>
        </g>
        <path data-name="패스 15714" d="M378.8 127.242a.9.9 0 0 0-.042-.321.8.8 0 0 0-.74-.569l-4.465-.107-1.62-4.386a.787.787 0 0 0-1.5.027l-1.475 4.442-4.461.269a.808.808 0 0 0-.719.594.85.85 0 0 0-.034.2.86.86 0 0 0 .314.719l3.553 2.852-1.137 4.552a1 1 0 0 0-.025.168.86.86 0 0 0 .341.738.768.768 0 0 0 .916 0l3.672-2.679 3.757 2.545a.767.767 0 0 0 .915-.035.875.875 0 0 0 .285-.917l-1.284-4.509 3.458-2.978a.86.86 0 0 0 .291-.605z" style="stroke-width:1.97px;fill:#fcf28d;stroke-linejoin:round;stroke:#222;stroke-linecap:round" transform="translate(-17.835 -32.831)"/>
        <g data-name="그룹 634176">
            <g data-name="그룹 634175">
                <path data-name="패스 15715" d="M386.747 101.471a2.787 2.787 0 0 0-2.6 2.941 2.7 2.7 0 1 0 2.6-2.941z" style="stroke-width:1.97px;fill:#fcf28d;stroke-linejoin:round;stroke:#222;stroke-linecap:round" transform="translate(-17.835 -32.831)"/>
            </g>
        </g>
        <g data-name="그룹 634178">
            <g data-name="그룹 634177">
                <path data-name="패스 15716" d="M343.051 106.09a2.847 2.847 0 1 0 2.791 2.743 2.787 2.787 0 0 0-2.791-2.743z" style="stroke-width:1.97px;fill:#fcf28d;stroke-linejoin:round;stroke:#222;stroke-linecap:round" transform="translate(-17.835 -32.831)"/>
            </g>
        </g>
        <g data-name="그룹 634180">
            <g data-name="그룹 634179">
                <path data-name="패스 15717" d="M394.492 141.157a3.81 3.81 0 1 0 3.508 3.922 3.7 3.7 0 0 0-3.509-3.921z" style="stroke-width:1.97px;fill:#fcf28d;stroke-linejoin:round;stroke:#222;stroke-linecap:round" transform="translate(-17.835 -32.831)"/>
            </g>
        </g>
        <path data-name="선 3042" transform="translate(329.109 102.716)" style="stroke-dasharray:2 4;stroke-width:1.97px;fill:none;stroke-linejoin:round;stroke:#222;stroke-linecap:round" d="M0 6.742 14.028 0"/>
        <path data-name="선 3043" transform="translate(332.033 108.541)" style="stroke-dasharray:2 4;stroke-width:1.97px;fill:none;stroke-linejoin:round;stroke:#222;stroke-linecap:round" d="M0 16.882 13.06 0"/>
    </g>
</svg>
