<svg xmlns="http://www.w3.org/2000/svg" width="444" height="232" viewBox="0 0 444 232">
    <g transform="translate(39 19.281)">
        <circle data-name="Ellipse 2" cx="37.001" cy="37.001" r="37.001" transform="translate(258.122 -19.281)" style="fill:#fbf0e3"/>
        <circle data-name="Ellipse 2" cx="28.501" cy="28.501" r="28.501" transform="translate(-16 6.723)" style="fill:#dcf5fb"/>
        <circle data-name="Ellipse 2" cx="20.876" cy="20.876" r="20.876" transform="translate(311.247 54.719)" style="fill:#e3e6fb"/>
        <circle data-name="Ellipse 2" cx="14.75" cy="14.75" r="14.75" transform="translate(109.247 170.965)" style="fill:#fbf0e3"/>
    </g>
    <g transform="translate(-34 -142.261)">
        <g data-name="그룹 634190">
            <g data-name="합치기 47" style="fill:#fff">
                <path d="m62.794 65.648-19.06-9.191-.309-.15H28.903a27.313 27.313 0 0 1-19.377-8.026 27.313 27.313 0 0 1-8.025-19.377A27.313 27.313 0 0 1 9.527 9.527a27.313 27.313 0 0 1 19.377-8.025h25.02a27.313 27.313 0 0 1 19.377 8.026 27.313 27.313 0 0 1 8.026 19.376c0 5.76-1.767 11.272-5.11 15.939a27.532 27.532 0 0 1-5.747 5.907 27.31 27.31 0 0 1-7.302 3.96l-1.064.381.073 1.129.617 9.428z" style="stroke:none" transform="translate(78 209)"/>
                <path d="m61.13 63.18-.597-9.12 2.13-.762a25.812 25.812 0 0 0 6.9-3.743 26.034 26.034 0 0 0 5.435-5.586 25.72 25.72 0 0 0 4.829-15.065 25.82 25.82 0 0 0-7.587-18.316 25.82 25.82 0 0 0-18.316-7.586h-25.02a25.82 25.82 0 0 0-18.316 7.587A25.82 25.82 0 0 0 3 28.904a25.82 25.82 0 0 0 7.587 18.317 25.82 25.82 0 0 0 18.315 7.587h14.865L61.13 63.18m3.329 4.936L43.083 57.808h-14.18C12.941 57.808.001 44.868.001 28.904 0 12.942 12.94.002 28.903.002h25.021c15.963 0 28.903 12.94 28.903 28.902 0 12.542-7.988 23.218-19.153 27.218l.785 11.994z" style="fill:#222;stroke:none" transform="translate(78 209)"/>
            </g>
        </g>
        <circle data-name="타원 1355" cx="3.5" cy="3.5" r="3.5" transform="translate(100 235.166)" style="fill:#727272"/>
        <circle data-name="타원 1356" cx="3.5" cy="3.5" r="3.5" transform="translate(116 235.166)" style="fill:#727272"/>
        <circle data-name="타원 1357" cx="3.5" cy="3.5" r="3.5" transform="translate(131 235.166)" style="fill:#727272"/>
    </g>
    <g data-name="말풍선" transform="translate(37.826 -185.547)">
        <g data-name="그룹 634190">
            <g data-name="합치기 47" style="fill:#fff">
                <path d="M35.69 37.007 25.619 32.15 25.31 32H16.75a15.15 15.15 0 0 1-10.784-4.466 15.15 15.15 0 0 1-4.466-10.783A15.15 15.15 0 0 1 5.967 5.968 15.15 15.15 0 0 1 16.751 1.5h14.5a15.15 15.15 0 0 1 10.783 4.467A15.15 15.15 0 0 1 46.5 16.75c0 3.205-.984 6.272-2.844 8.869a15.21 15.21 0 0 1-7.262 5.492l-1.065.381.074 1.129.287 4.385z" style="stroke:none" transform="translate(78 209)"/>
                <path d="m34.026 34.539-.267-4.076 2.13-.763a13.717 13.717 0 0 0 6.549-4.953 13.65 13.65 0 0 0 2.563-7.996 13.66 13.66 0 0 0-4.028-9.723 13.66 13.66 0 0 0-9.722-4.027h-14.5a13.66 13.66 0 0 0-9.723 4.027 13.66 13.66 0 0 0-4.027 9.723 13.66 13.66 0 0 0 4.027 9.723 13.66 13.66 0 0 0 9.723 4.027h8.901l8.374 4.038m3.33 4.936L24.965 33.5h-8.215C7.5 33.5 0 26 0 16.75S7.5 0 16.75 0h14.5C40.5 0 48 7.5 48 16.75c0 7.268-4.63 13.455-11.1 15.773l.454 6.95z" style="fill:#222;stroke:none" transform="translate(78 209)"/>
            </g>
        </g>
        <circle data-name="타원 1355" cx="2" cy="2" r="2" transform="translate(91 224)" style="fill:#727272"/>
        <circle data-name="타원 1356" cx="2" cy="2" r="2" transform="translate(100 224)" style="fill:#727272"/>
        <circle data-name="타원 1357" cx="2" cy="2" r="2" transform="translate(109 224)" style="fill:#727272"/>
    </g>
    <g data-name="img">
        <g data-name="그룹 3690">
            <path data-name="사각형 1932" transform="rotate(-152.477 115.905 80.592)" style="stroke-width:3px;stroke-linejoin:round;stroke-linecap:round;stroke:#222;fill:#fff" d="M0 0h73.602v36.296H0z"/>
            <g data-name="그룹 3687">
                <path data-name="패스 6236" d="m111.7 85.972 5.957-11.593a6.4 6.4 0 0 0 8.69-2.774l45.7 24.18a6.586 6.586 0 0 0 2.733 8.819l-5.961 11.596a6.4 6.4 0 0 0-8.69 2.774l-45.7-24.18a6.587 6.587 0 0 0-2.729-8.822z" transform="translate(14.682 77.611)" style="fill:#fcf28d;stroke-width:3px;stroke-linejoin:round;stroke-linecap:round;stroke:#222"/>
            </g>
            <g data-name="그룹 3689">
                <path data-name="패스 6237" d="M160.543 106.7a9.08 9.08 0 1 0 12.246-3.856 9.092 9.092 0 0 0-12.246 3.856z" transform="translate(-11.023 61.811)" style="fill:#fff"/>
                <g data-name="그룹 3688">
                    <path data-name="패스 6238" d="m176.733 116.869-4.167 3.7a.465.465 0 0 1-.765-.443l1.058-5.146a.465.465 0 0 0-.788-.421l-3.681 3.749a.465.465 0 0 1-.792-.4l.826-5.383" transform="translate(-13.939 56.207)" style="stroke-width:2.005px;fill:none;stroke-linejoin:round;stroke-linecap:round;stroke:#222"/>
                    <path data-name="선 1470" transform="translate(152.579 170.454)" style="stroke-width:2.005px;fill:none;stroke-linejoin:round;stroke-linecap:round;stroke:#222" d="M9.901 5.169 0 0"/>
                </g>
            </g>
        </g>
    </g>
    <g data-name="img">
        <g data-name="그룹 3695">
            <g data-name="그룹 3694">
                <path data-name="패스 6239" d="m110 170.245 73.456.008V134H110z" transform="translate(5.701 47.918)" style="stroke-width:3px;stroke-linejoin:round;stroke-linecap:round;stroke:#222;fill:#fff"/>
                <g data-name="그룹 3691">
                    <path data-name="패스 6240" d="M117.14 164.284 117 151.4a6.354 6.354 0 0 0 6.4-6.417h51.787a6.548 6.548 0 0 0 6.543 6.444l.14 12.882a6.372 6.372 0 0 0-6.4 6.439l-51.788-.021a6.548 6.548 0 0 0-6.542-6.443z" transform="translate(3.948 42.173)" style="fill:#fcf28d;stroke-width:3px;stroke-linejoin:round;stroke-linecap:round;stroke:#222"/>
                </g>
                <g data-name="그룹 3693">
                    <path data-name="패스 6241" d="M167 161.051a9.063 9.063 0 1 0 9.064-9.064 9.064 9.064 0 0 0-9.064 9.064z" transform="translate(-23.155 38.511)" style="fill:#fff"/>
                    <g data-name="그룹 3692">
                        <path data-name="패스 6242" d="m185.056 167.208-1.951 5.208a.455.455 0 0 1-.867-.038l-1.412-5.05a.455.455 0 0 0-.877-.009l-1.507 5.025a.455.455 0 0 1-.87.014l-1.722-5.151" transform="translate(-27.306 30.665)" style="stroke-width:2px;fill:none;stroke-linejoin:round;stroke-linecap:round;stroke:#222"/>
                        <path data-name="선 1471" transform="translate(147.661 200.274)" style="stroke-width:2px;fill:none;stroke-linejoin:round;stroke-linecap:round;stroke:#222" d="M10.971.001 0 0"/>
                    </g>
                </g>
            </g>
        </g>
    </g>
    <g transform="translate(-243.53 -1050.451)">
        <path data-name="패스 1448" d="M325.738 206.35v-53.7c0-9.876-12.687-17.954-28.189-17.954H250.57c-15.5 0-28.19 8.078-28.19 17.954v53.7z" transform="translate(196.62 1062.278)" style="fill:#e9f6fd"/>
        <path data-name="패스 1449" d="M325.108 204.222V157.5c0-12.2-12.687-22.181-28.19-22.181H249.94c-15.5 0-28.19 9.981-28.19 22.181v46.719" transform="translate(196.88 1061.835)" style="stroke-width:2.994px;fill:none;stroke-linejoin:round;stroke-linecap:round;stroke:#222"/>
        <path data-name="선 337" transform="translate(500.698 1241.254)" style="stroke-width:2.988px;fill:none;stroke-linejoin:round;stroke-linecap:round;stroke:#222" d="M0 24.804V0"/>
        <path data-name="선 338" transform="translate(440.406 1241.254)" style="stroke-width:2.988px;fill:none;stroke-linejoin:round;stroke-linecap:round;stroke:#222" d="M0 0v24.804"/>
        <rect data-name="사각형 463807" width="31.267" height="45.244" rx="15.633" transform="translate(454.861 1168.107)" style="stroke-width:3px;stroke:#222;fill:#fff"/>
        <g transform="translate(408.53 1100.998)">
            <g data-name="타원 1351" transform="translate(12.47 .002)" style="stroke-width:3px;stroke:#222;fill:#fff">
                <circle cx="45.5" cy="45.5" r="45.5" style="stroke:none"/>
                <circle cx="45.5" cy="45.5" r="44" style="fill:none"/>
            </g>
            <path data-name="패스 12953" d="M-1893.449 20768.438s-87.257 32.293 79.63 12.979c6.628-1 .469-2.393 0-2.18-21.143-3.874-79.63-10.799-79.63-10.799z" transform="translate(1910.133 -20729.814)" style="fill:#47bcbf;stroke-width:3px;stroke:#222"/>
            <path data-name="교차 2" d="M.1 38.789A44.208 44.208 0 0 1 43.765 0C68.08 0 87.791 19.937 87.791 44.528a45.112 45.112 0 0 1-1.261 10.621C66.022 53.316 25.748 45.179.1 38.789z" transform="translate(14.402)" style="fill:#47bcbf;stroke-width:3px;stroke:#222"/>
            <path data-name="패스 12955" d="M-2201.9 21515.713s8.4-39.646 29.095-39.619c20.694.043 14.392 48.33 14.392 48.33s-9.5-1.531-20.016-3.672-23.471-5.039-23.471-5.039z" transform="translate(2235.165 -21474.092)" style="fill:#7dd3cf"/>
            <path data-name="패스 12954" d="M6.464 0s6.464 7.865 6.464 13.967S10.033 22.1 6.464 22.1 0 20.068 0 13.967 6.464 0 6.464 0z" transform="translate(64.728 59.271)" style="fill:#afdae9"/>
            <ellipse data-name="타원 1354" cx="6.944" cy="3.137" rx="6.944" ry="3.137" transform="rotate(14 45.493 240.73)" style="fill:#47bcbf;stroke-width:3px;stroke:#222"/>
        </g>
    </g>
    <path data-name="선 223" transform="translate(42 218.186)" style="fill:none;stroke-width:3px;stroke-linejoin:round;stroke-linecap:round;stroke:#222" d="M0 0h360"/>
    <g>
        <g data-name="사각형 464745" transform="translate(269 144.891)" style="stroke-width:3px;stroke:#222;fill:#fff">
            <rect width="108" height="84" rx="13" style="stroke:none"/>
            <rect x="1.5" y="1.5" width="105" height="81" rx="11.5" style="fill:none"/>
        </g>
        <g data-name="사각형 464746" style="fill:#f2ac58;stroke-width:3px;stroke:#222">
            <path d="M13 0h82a13 13 0 0 1 13 13v7H0v-7A13 13 0 0 1 13 0z" style="stroke:none" transform="translate(269 144.891)"/>
            <path d="M13 1.5h82A11.5 11.5 0 0 1 106.5 13v5.5H1.5V13A11.5 11.5 0 0 1 13 1.5z" style="fill:none" transform="translate(269 144.891)"/>
        </g>
        <g data-name="그룹 634189">
            <g data-name="사각형 464747" transform="translate(285 136.891)" style="stroke-width:3px;stroke:#222;fill:#fff">
                <rect width="10" height="19" rx="5" style="stroke:none"/>
                <rect x="1.5" y="1.5" width="7" height="16" rx="3.5" style="fill:none"/>
            </g>
            <g data-name="사각형 464747" transform="translate(307 136.891)" style="stroke-width:3px;stroke:#222;fill:#fff">
                <rect width="10" height="19" rx="5" style="stroke:none"/>
                <rect x="1.5" y="1.5" width="7" height="16" rx="3.5" style="fill:none"/>
            </g>
            <g data-name="사각형 464747" transform="translate(329 136.891)" style="stroke-width:3px;stroke:#222;fill:#fff">
                <rect width="10" height="19" rx="5" style="stroke:none"/>
                <rect x="1.5" y="1.5" width="7" height="16" rx="3.5" style="fill:none"/>
            </g>
            <g data-name="사각형 464747" transform="translate(351 136.891)" style="stroke-width:3px;stroke:#222;fill:#fff">
                <rect width="10" height="19" rx="5" style="stroke:none"/>
                <rect x="1.5" y="1.5" width="7" height="16" rx="3.5" style="fill:none"/>
            </g>
        </g>
        <g data-name="그룹 634188">
            <path data-name="사각형 464748" transform="translate(283 175.891)" style="fill:#e4e4e4" d="M0 0h14v15H0z"/>
            <path data-name="사각형 464748" transform="translate(305 175.891)" style="fill:#e4e4e4" d="M0 0h15v15H0z"/>
            <path data-name="사각형 464748" transform="translate(328 175.891)" style="fill:#e4e4e4" d="M0 0h15v15H0z"/>
            <path data-name="사각형 464748" transform="translate(351 175.891)" style="fill:#e4e4e4" d="M0 0h14v15H0z"/>
            <path data-name="사각형 464748" transform="translate(283 201.891)" style="fill:#e4e4e4" d="M0 0h14v14H0z"/>
            <path data-name="사각형 464748" transform="translate(305 201.891)" style="fill:#e4e4e4" d="M0 0h15v14H0z"/>
            <path data-name="사각형 464748" transform="translate(328 201.891)" style="fill:#e4e4e4" d="M0 0h15v14H0z"/>
            <path data-name="사각형 464748" transform="translate(351 201.891)" style="fill:#e4e4e4" d="M0 0h14v14H0z"/>
        </g>
        <g>
            <g data-name="그룹 628573">
                <g data-name="타원 895" style="stroke-miterlimit:10;fill:#fcf28d;stroke-width:3px;stroke:#222" transform="translate(335 182.891)">
                    <circle cx="24.5" cy="24.5" r="24.5" style="stroke:none"/>
                    <circle cx="24.5" cy="24.5" r="23" style="fill:none"/>
                </g>
                <path data-name="선 1351" transform="translate(359 195.891)" style="stroke-miterlimit:10;stroke-width:3px;stroke-linecap:round;stroke:#222;fill:#fff" d="M0 12V0"/>
                <g data-name="타원 897" transform="translate(357 204.891)" style="stroke-miterlimit:10;stroke-width:3px;stroke:#222;fill:#fff">
                    <circle cx="2.5" cy="2.5" r="2.5" style="stroke:none"/>
                    <circle cx="2.5" cy="2.5" r="1" style="fill:none"/>
                </g>
                <path data-name="선 3044" transform="translate(359 207.891)" style="stroke-miterlimit:10;stroke-width:3px;stroke-linecap:round;stroke:#222;fill:#fff" d="M0 0h13"/>
            </g>
        </g>
    </g>
</svg>
