<svg xmlns="http://www.w3.org/2000/svg" width="444" height="207" viewBox="0 0 444 207">
    <g transform="translate(-622 -2040)">
        <circle data-name="Ellipse 2" cx="22.5" cy="22.5" r="22.5" transform="translate(677 2121)" style="fill:#dcf5fb"/>
        <circle data-name="Ellipse 2" cx="46.5" cy="46.5" r="46.5" transform="translate(973 2040)" style="fill:#fbf0e3"/>
        <circle data-name="Ellipse 2" cx="15.5" cy="15.5" r="15.5" transform="translate(665 2147)" style="fill:rgba(227,230,251,.7)"/>
    </g>
    <g data-name="그룹 631833">
        <g data-name="그룹 631826">
            <path data-name="패스 11327" d="M207.448 237.29V58.317a2 2 0 0 1 1.994-2.011h111.692a2 2 0 0 1 1.995 2.011V237.29" style="fill:#fff" transform="translate(-53.264 -41.798)"/>
            <path data-name="패스 11328" d="M207.448 72.393V56.485a5.724 5.724 0 0 1 1.994-.179h111.692a5.719 5.719 0 0 1 1.995.179v15.908" style="fill:#f2ac58" transform="translate(-53.264 -41.798)"/>
            <path data-name="패스 11329" d="M207.448 237.29V58.317a2 2 0 0 1 1.994-2.011h111.692a2 2 0 0 1 1.995 2.011V237.29" style="stroke-width:3.004px;stroke-linejoin:round;stroke-linecap:round;stroke:#222;fill:none" transform="translate(-53.264 -41.798)"/>
            <path data-name="선 2053" transform="translate(154.184 30.595)" style="stroke-width:2.992px;stroke-linejoin:round;stroke-linecap:round;stroke:#222;fill:#fff" d="M0 0h114.683"/>
        </g>
        <g data-name="그룹 631827" transform="translate(-53.264 -41.798)">
            <rect data-name="사각형 463296" width="15.956" height="16.087" rx="2.289" transform="translate(258.46 90.492)" style="fill:#e4e4e4"/>
            <rect data-name="사각형 463297" width="15.956" height="16.087" rx="2.289" transform="translate(288.377 90.492)" style="fill:#e4e4e4"/>
            <rect data-name="사각형 463298" width="15.956" height="16.087" rx="2.289" transform="translate(228.542 120.656)" style="fill:#e4e4e4"/>
            <rect data-name="사각형 463299" width="15.956" height="16.087" rx="2.289" transform="translate(258.46 120.656)" style="fill:#e4e4e4"/>
            <rect data-name="사각형 463300" width="15.956" height="16.087" rx="2.289" transform="translate(288.377 120.656)" style="fill:#e4e4e4"/>
            <rect data-name="사각형 463301" width="15.956" height="16.087" rx="2.289" transform="translate(228.542 150.82)" style="fill:#e4e4e4"/>
            <rect data-name="사각형 463302" width="15.956" height="16.087" rx="2.289" transform="translate(258.46 150.82)" style="fill:#e4e4e4"/>
            <rect data-name="사각형 463303" width="15.956" height="16.087" rx="2.289" transform="translate(288.377 150.82)" style="fill:#e4e4e4"/>
            <rect data-name="사각형 463304" width="15.956" height="16.087" rx="2.289" transform="translate(228.542 90.492)" style="fill:#e4e4e4"/>
        </g>
        <g data-name="그룹 631828">
            <path data-name="선 2054" transform="translate(212.024 145.218)" style="stroke-width:3.016px;stroke-linejoin:round;stroke-linecap:round;stroke:#222;fill:none" d="M0 0v48.262"/>
            <path data-name="패스 11330" d="M246.34 237.29a3 3 0 0 1-2.992-3.016v-47.258a2 2 0 0 1 1.994-2.011h39.89a2 2 0 0 1 1.994 2.011v47.257a3 3 0 0 1-2.992 3.016" style="stroke-width:3.004px;stroke-linejoin:round;stroke-linecap:round;stroke:#222;fill:none" transform="translate(-53.264 -41.798)"/>
        </g>
        <g data-name="그룹 631832">
            <path data-name="패스 11334" d="M134.628 236.284v-40.218h79.78v40.219" style="fill:#fcf28d;stroke-width:3.004px;stroke-linejoin:round;stroke-linecap:round;stroke:#222" transform="translate(-53.264 -41.798)"/>
            <g data-name="그룹 631831">
                <path data-name="선 2059" transform="translate(81.364 187.448)" style="stroke-width:2.992px;stroke-linejoin:round;stroke-linecap:round;stroke:#222;fill:none" d="M0 0h79.78"/>
                <path data-name="선 2060" transform="translate(81.364 179.404)" style="stroke-width:2.992px;stroke-linejoin:round;stroke-linecap:round;stroke:#222;fill:none" d="M0 0h79.78"/>
                <path data-name="선 2061" transform="translate(81.364 171.36)" style="stroke-width:2.992px;stroke-linejoin:round;stroke-linecap:round;stroke:#222;fill:none" d="M0 0h79.78"/>
                <path data-name="선 2062" transform="translate(81.364 163.317)" style="stroke-width:2.992px;stroke-linejoin:round;stroke-linecap:round;stroke:#222;fill:none" d="M0 0h79.78"/>
            </g>
            <path data-name="패스 11335" d="M214.408 196.066h-79.78l7.173-10.055h65.434z" style="fill:#fcf28d;stroke-width:3.004px;stroke-linejoin:round;stroke-linecap:round;stroke:#222" transform="translate(-53.264 -41.798)"/>
            <path data-name="패스 11336" d="m167.8 195.452 1.213-9.441h11.051l1.209 9.441" style="stroke-width:3.004px;stroke-linejoin:round;stroke-linecap:round;stroke:#222;fill:#fff" transform="translate(-53.264 -41.798)"/>
            <path data-name="패스 11337" d="M168.036 236.284v-40.218H181v40.219" style="stroke-width:3.004px;stroke-linejoin:round;stroke-linecap:round;stroke:#222;fill:#fff" transform="translate(-53.264 -41.798)"/>
        </g>
        <path d="M453.767 237.29H94.759" style="stroke-width:2.992px;stroke-linejoin:round;stroke-linecap:round;stroke:#222;fill:none" transform="translate(-53.264 -41.798)"/>
        <g data-name="그룹 632362">
            <g data-name="그룹 631829">
                <path data-name="패스 11331" d="M398.261 237.29a10.014 10.014 0 0 0 9.972-10.055v-4.022h-79.78v4.022a10.014 10.014 0 0 1-9.972 10.055h79.78z" style="fill:#fff" transform="translate(-53.264 -32.798)"/>
                <path data-name="패스 11332" d="M387.949 223.213v-96.524a10.014 10.014 0 0 0-9.972-10.055h-77.785l2.227.838a17.8 17.8 0 0 1 4.7 6.01l1.056 3.207v100.546a10.014 10.014 0 0 0 9.972 10.055h0a10.014 10.014 0 0 0 9.972-10.055v-4.022h79.78v4.022a10.014 10.014 0 0 1-9.972 10.055h0" style="stroke-width:3.004px;stroke-linejoin:round;stroke-linecap:round;stroke:#222;fill:#fff" transform="translate(-53.264 -32.798)"/>
                <path data-name="사각형 463305" d="M9.972 0h0a9.972 9.972 0 0 1 9.972 9.972v4.1h0H0h0v-4.1A9.972 9.972 0 0 1 9.972 0z" transform="translate(234.961 83.836)" style="stroke-width:3.004px;stroke-linejoin:round;stroke-linecap:round;stroke:#222;fill:#fff"/>
                <path data-name="선 2055" transform="translate(269.865 109.978)" style="stroke-width:2.992px;stroke-linejoin:round;stroke-linecap:round;stroke:#222;fill:#fff" d="M0 0h39.89"/>
                <path data-name="선 2056" transform="translate(269.865 125.06)" style="stroke-width:2.992px;stroke-linejoin:round;stroke-linecap:round;stroke:#222;fill:#fff" d="M0 0h51.857"/>
                <path data-name="선 2057" transform="translate(270.862 141.147)" style="stroke-width:2.992px;stroke-linejoin:round;stroke-linecap:round;stroke:#222;fill:#fff" d="M0 0h35.901"/>
                <path data-name="선 2249" transform="translate(265.5 204.5)" style="stroke-width:3px;stroke-linecap:round;stroke:#222;fill:none" d="M0 0h79"/>
            </g>
            <g data-name="그룹 631830">
                <path data-name="패스 11333" d="m421.924 174.732-31.4 31.654a2.456 2.456 0 0 1-1.619.751l-8.051.3a1.59 1.59 0 0 1-1.7-1.718l.3-8.116a2.5 2.5 0 0 1 .745-1.633l31.4-31.654a2.045 2.045 0 0 1 2.864-.289l7.754 7.818a2.085 2.085 0 0 1-.293 2.887z" style="stroke-miterlimit:10;fill:#afdae9;stroke-width:3.004px;stroke:#222" transform="translate(-53.264 -32.798)"/>
                <path data-name="선 2058" transform="translate(355.814 141.549)" style="fill:#afdae9;stroke-width:3.004px;stroke-linejoin:round;stroke-linecap:round;stroke:#222" d="M5.233 0 0 5.276"/>
                <path d="M332.513 212.641c-.123 0-.249-.006-.38-.017a2.424 2.424 0 0 1-2.089-1.819 6.956 6.956 0 0 1-.287-2.354c-4.322 2.982-6.548 2.014-6.827 1.87l.731-1.445-.024-.012c.022.01 2.053.815 6.349-2.6.667-3.818 2.693-8.385 5.042-10.566 1.094-1.016 1.928-1.386 2.626-1.164a1.344 1.344 0 0 1 .885 1.05c.439 2.027-2.049 7.015-6.037 10.656q-.53.483-1.028.9a7.377 7.377 0 0 0 .094 3.141c.231.686.563.715.705.727 1.225.109 1.7-.631 2.449-1.948.76-1.339 1.7-3.008 4.079-2.8a9.114 9.114 0 0 1 4.593 2.083c1.369.984 2.45 1.762 3.914 1.419.1-.023.659-.252 2-2.5.954-1.6 2.047-3.779 3.205-6.082 3.615-7.2 7.713-15.351 12.015-15.665a2.507 2.507 0 0 1 2.329.927c1.6 2.108.077 7.007-2.431 14.24-1.3 3.761-2.653 7.651-2.416 9.105l.031.168a20.467 20.467 0 0 0 1.325-1.7c1.616-2.215 3.626-4.973 6-4.348a16.115 16.115 0 0 1 6.793 4.189.816.816 0 0 1-.037 1.146.8.8 0 0 1-1.137-.037 14.727 14.727 0 0 0-6.026-3.729c-1.314-.344-3.108 2.112-4.3 3.74-1.239 1.7-2.056 2.82-3.093 2.568-.9-.217-1.079-1.32-1.147-1.735-.3-1.862.989-5.588 2.485-9.9 1.632-4.7 3.866-11.148 2.674-12.718-.073-.095-.263-.346-.936-.3-3.394.248-7.614 8.648-10.7 14.781-2.979 5.927-4.609 9.038-6.273 9.429-2.172.51-3.718-.6-5.214-1.677a7.626 7.626 0 0 0-3.8-1.789c-1.287-.107-1.782.647-2.545 1.993-.697 1.241-1.564 2.773-3.597 2.773zm4.475-16.426a4.974 4.974 0 0 0-.87.679c-1.757 1.632-3.236 4.672-4.061 7.54 3.379-3.346 4.859-7.017 4.931-8.22z" style="fill:#222;stroke-width:1.001px;stroke-miterlimit:10;stroke:#222" transform="translate(-53.264 -32.798)"/>
            </g>
        </g>
    </g>
</svg>
