<svg xmlns="http://www.w3.org/2000/svg" xmlns:xlink="http://www.w3.org/1999/xlink" width="444" height="236" viewBox="0 0 444 236">
  <defs>
    <style>
      .cls-1, .cls-11, .cls-19, .cls-7 {
        fill: none;
      }

      .cls-2 {
        fill: rgba(255,191,191,0.5);
        opacity: 0;
      }

      .cls-3 {
        fill: #fcf5bd;
      }

      .cls-4 {
        fill: #fbf0e3;
      }

      .cls-5 {
        clip-path: url(#clip-path);
      }

      .cls-16, .cls-17, .cls-6, .cls-9 {
        fill: #fff;
      }

      .cls-10, .cls-11, .cls-13, .cls-14, .cls-17, .cls-18, .cls-22, .cls-6, .cls-7, .cls-8, .cls-9 {
        stroke: #222;
      }

      .cls-6, .cls-8 {
        stroke-miterlimit: 10;
      }

      .cls-10, .cls-11, .cls-13, .cls-14, .cls-17, .cls-18, .cls-19, .cls-22, .cls-6, .cls-7, .cls-8, .cls-9 {
        stroke-width: 3px;
      }

      .cls-11, .cls-13, .cls-17, .cls-18, .cls-19, .cls-22, .cls-7 {
        stroke-linecap: round;
      }

      .cls-13, .cls-17, .cls-18, .cls-19, .cls-22, .cls-7 {
        stroke-linejoin: round;
      }

      .cls-8 {
        fill: #afece9;
      }

      .cls-10, .cls-22, .cls-23 {
        fill: #f2ac58;
      }

      .cls-12 {
        fill: #e4e4e4;
      }

      .cls-13 {
        fill: #afdae9;
      }

      .cls-14 {
        fill: #fcf28d;
      }

      .cls-15 {
        fill: #222;
      }

      .cls-18 {
        fill: #e6eaed;
      }

      .cls-19 {
        stroke: #e4e4e4;
      }

      .cls-20 {
        fill: #1a2559;
      }

      .cls-21 {
        fill: #ff2926;
      }

      .cls-24 {
        stroke: none;
      }
    </style>
    <clipPath id="clip-path">
      <rect id="사각형_461121" data-name="사각형 461121" class="cls-1" width="363" height="163"/>
    </clipPath>
  </defs>
  <g id="SWKDIFDT2400_2" transform="translate(-622 -2035)">
    <g id="deco">
      <rect id="BG" class="cls-2" width="444" height="236" transform="translate(622 2035)"/>
      <circle id="타원_559" data-name="타원 559" class="cls-3" cx="42" cy="42" r="42" transform="translate(704 2094)"/>
      <circle id="타원_560" data-name="타원 560" class="cls-4" cx="22.5" cy="22.5" r="22.5" transform="translate(646 2035)"/>
    </g>
    <g id="img" transform="translate(663 2094)">
      <g id="그룹_626294" data-name="그룹 626294" transform="translate(-0.5 -0.616)">
        <path id="패스_3405" data-name="패스 3405" class="cls-6" d="M59.676,153.652a12.092,12.092,0,0,1-1.382-.079,11.91,11.91,0,0,1-7.911-19.254,2.825,2.825,0,0,0,.655-2.14A8.576,8.576,0,0,1,50.957,131a8.747,8.747,0,0,1,17.274-1.952,8.835,8.835,0,0,1,.143,3.092A2.833,2.833,0,0,0,69,134.3a11.91,11.91,0,0,1-9.328,19.356Z"/>
        <line id="선_263" data-name="선 263" class="cls-7" y1="7" transform="translate(60 154.19)"/>
        <path id="패스_3406" data-name="패스 3406" class="cls-8" d="M27.709,147.977a16.719,16.719,0,0,1-15.624-22.639.237.237,0,0,0-.013-.2,17.95,17.95,0,0,1,3.237-21.779.186.186,0,0,0,.048-.174A12.734,12.734,0,0,1,19,90.9a12.624,12.624,0,0,1,9.518-3.427,12.723,12.723,0,0,1,11.555,15.724.178.178,0,0,0,.053.164,17.95,17.95,0,0,1,3.236,21.778.251.251,0,0,0-.01.213,16.737,16.737,0,0,1-14.12,22.561Q28.47,147.976,27.709,147.977Z"/>
        <line id="선_264" data-name="선 264" class="cls-7" y2="48" transform="translate(28 113.19)"/>
        <line id="선_265" data-name="선 265" class="cls-7" x1="7.823" y2="12.811" transform="translate(27.72 113.024)"/>
        <line id="선_266" data-name="선 266" class="cls-7" x1="7.841" y1="12.8" transform="translate(19.419 122.638)"/>
        <g id="그룹_626323" data-name="그룹 626323" transform="translate(1203.314 -5306.301)">
          <rect id="사각형_461152" data-name="사각형 461152" class="cls-9" width="182.902" height="67.716" transform="translate(-1122.425 5399.631)"/>
          <path id="패스_3558" data-name="패스 3558" class="cls-10" d="M6.981,0H194.072l6.981,30.846H0Z" transform="translate(-1131.5 5376.595)"/>
          <g id="그룹_626323-2" data-name="그룹 626323" transform="translate(-1111.796 5352.421)">
            <path id="패스_3529" data-name="패스 3529" class="cls-9" d="M114.5,106.648V27.2a1.3,1.3,0,0,1,1.4-1.168L155.421,1.5l38.663,24.534a1.3,1.3,0,0,1,1.4,1.168v79.445" transform="translate(-74.708 8.385)"/>
            <path id="패스_3557" data-name="패스 3557" class="cls-11" d="M115,0" transform="translate(4.724 22.079)"/>
            <g id="그룹_626315" data-name="그룹 626315" transform="translate(53.754 62.569)">
              <path id="패스_3534" data-name="패스 3534" class="cls-12" d="M145.227,76.67h-7.979a1.6,1.6,0,0,1-1.6-1.6V67.1a1.6,1.6,0,0,1,1.6-1.6h7.979a1.6,1.6,0,0,1,1.6,1.6v7.978a1.6,1.6,0,0,1-1.6,1.6" transform="translate(-135.653 -65.5)"/>
              <path id="패스_3535" data-name="패스 3535" class="cls-12" d="M175.227,76.67h-7.979a1.6,1.6,0,0,1-1.6-1.6V67.1a1.6,1.6,0,0,1,1.6-1.6h7.979a1.6,1.6,0,0,1,1.6,1.6v7.978a1.6,1.6,0,0,1-1.6,1.6" transform="translate(-144.71 -65.5)"/>
              <path id="패스_3536" data-name="패스 3536" class="cls-12" d="M205.227,76.67h-7.979a1.6,1.6,0,0,1-1.6-1.6V67.1a1.6,1.6,0,0,1,1.6-1.6h7.979a1.6,1.6,0,0,1,1.6,1.6v7.978a1.6,1.6,0,0,1-1.6,1.6" transform="translate(-153.767 -65.5)"/>
            </g>
            <path id="패스_3556" data-name="패스 3556" class="cls-10" d="M172.042,43.013,127.151,5.225,122.724,1.5,118.575,5,73.415,43.013l7.031,5.936,42.283-35.6,42.283,35.6Z" transform="translate(-42.507 -1.5)"/>
            <g id="타원_571" data-name="타원 571" class="cls-9" transform="translate(68.065 31.154)">
              <circle class="cls-24" cx="11.868" cy="11.868" r="11.868"/>
              <circle class="cls-1" cx="11.868" cy="11.868" r="10.368"/>
            </g>
            <g id="그룹_626324" data-name="그룹 626324" transform="translate(129.847 62.569)">
              <path id="패스_3535-2" data-name="패스 3535" class="cls-12" d="M175.227,76.67h-7.979a1.6,1.6,0,0,1-1.6-1.6V67.1a1.6,1.6,0,0,1,1.6-1.6h7.979a1.6,1.6,0,0,1,1.6,1.6v7.978a1.6,1.6,0,0,1-1.6,1.6" transform="translate(-144.71 -65.5)"/>
              <path id="패스_3538" data-name="패스 3538" class="cls-12" d="M175.227,106.67h-7.979a1.6,1.6,0,0,1-1.6-1.6V97.1a1.6,1.6,0,0,1,1.6-1.6h7.979a1.6,1.6,0,0,1,1.6,1.6v7.978a1.6,1.6,0,0,1-1.6,1.6" transform="translate(-144.71 -74.557)"/>
            </g>
            <g id="그룹_626325" data-name="그룹 626325" transform="translate(0 62.569)">
              <path id="패스_3534-2" data-name="패스 3534" class="cls-12" d="M145.227,76.67h-7.979a1.6,1.6,0,0,1-1.6-1.6V67.1a1.6,1.6,0,0,1,1.6-1.6h7.979a1.6,1.6,0,0,1,1.6,1.6v7.978a1.6,1.6,0,0,1-1.6,1.6" transform="translate(-135.653 -65.5)"/>
              <path id="패스_3535-3" data-name="패스 3535" class="cls-12" d="M175.227,76.67h-7.979a1.6,1.6,0,0,1-1.6-1.6V67.1a1.6,1.6,0,0,1,1.6-1.6h7.979a1.6,1.6,0,0,1,1.6,1.6v7.978a1.6,1.6,0,0,1-1.6,1.6" transform="translate(-144.71 -65.5)"/>
              <path id="패스_3537" data-name="패스 3537" class="cls-12" d="M145.227,106.67h-7.979a1.6,1.6,0,0,1-1.6-1.6V97.1a1.6,1.6,0,0,1,1.6-1.6h7.979a1.6,1.6,0,0,1,1.6,1.6v7.978a1.6,1.6,0,0,1-1.6,1.6" transform="translate(-135.653 -74.557)"/>
              <path id="패스_3538-2" data-name="패스 3538" class="cls-12" d="M175.227,106.67h-7.979a1.6,1.6,0,0,1-1.6-1.6V97.1a1.6,1.6,0,0,1,1.6-1.6h7.979a1.6,1.6,0,0,1,1.6,1.6v7.978a1.6,1.6,0,0,1-1.6,1.6" transform="translate(-144.71 -74.557)"/>
            </g>
            <path id="패스_3559" data-name="패스 3559" class="cls-13" d="M152.594,160.169A1.952,1.952,0,0,1,150.5,158.4V130.68a1.3,1.3,0,0,1,1.4-1.18H179.82a1.3,1.3,0,0,1,1.4,1.18V158.4a1.952,1.952,0,0,1-2.094,1.769" transform="translate(-85.577 -45.136)"/>
          </g>
          <g id="그룹_626326" data-name="그룹 626326" transform="translate(-1032.109 5327.464)">
            <g id="사각형_461153" data-name="사각형 461153" class="cls-14" transform="translate(-1 0)">
              <rect class="cls-24" width="24.568" height="17.008"/>
              <rect class="cls-1" x="1.5" y="1.5" width="21.568" height="14.008"/>
            </g>
            <rect id="사각형_461154" data-name="사각형 461154" class="cls-15" width="3" height="25.512" transform="translate(-1 0)"/>
          </g>
        </g>
        <path id="패스_3409" data-name="패스 3409" class="cls-7" d="M361.5,161.5H1.5"/>
        <g id="그룹_1819" data-name="그룹 1819" transform="translate(212.444 19.008)">
          <g id="그룹_1817" data-name="그룹 1817">
            <g id="그룹_1814" data-name="그룹 1814" transform="translate(16.562)">
              <path id="패스_7378" data-name="패스 7378" class="cls-16" d="M421.238,640.759v76.17s.671,13.374-12.842,15.854-90.107,0-90.107,0v-83Z" transform="translate(-316.348 -575.623)"/>
              <path id="패스_2948" data-name="패스 2948" class="cls-17" d="M424.638,190.51V146.425s0-.185,0-.512V134.505A11.166,11.166,0,0,1,432.11,124H337.451c-20.24,0-18.215,22.426-18.215,22.426v95.02" transform="translate(-319.18 -124)"/>
              <path id="패스_2949" data-name="패스 2949" class="cls-7" d="M379.18,235.215a13.551,13.551,0,0,0,13.552-13.552V195.339" transform="translate(-288.836 -78.62)"/>
            </g>
            <g id="그룹_1815" data-name="그룹 1815" transform="translate(0 118.952)">
              <path id="패스_2950" data-name="패스 2950" class="cls-18" d="M322.926,240.643h90.655a14.66,14.66,0,0,1-14.746-14.574V203H308.18v23.069A14.66,14.66,0,0,0,322.926,240.643Z" transform="translate(-308.18 -203)"/>
            </g>
            <g id="그룹_1816" data-name="그룹 1816" transform="translate(34.919 60.909)">
              <line id="선_815" data-name="선 815" class="cls-19" x2="49.637" transform="translate(0 15.057)"/>
              <line id="선_816" data-name="선 816" class="cls-19" x2="57.637"/>
              <line id="선_817" data-name="선 817" class="cls-19" x2="43.666" transform="translate(0 31.62)"/>
            </g>
            <path id="패스_2951" data-name="패스 2951" class="cls-18" d="M408.754,155.62V133.313a9.8,9.8,0,0,0-19.574,0V155.62Z" transform="translate(-267.216 -124)"/>
            <g id="그룹_629926" data-name="그룹 629926" transform="translate(32.995 20.447)">
              <g id="그룹_503" data-name="그룹 503" transform="translate(0 0.017)">
                <path id="패스_899" data-name="패스 899" class="cls-20" d="M196.134,99.336a3.832,3.832,0,0,0-5.45,1.144,3.835,3.835,0,0,1-6.933-1.054h0l-.011-.04-.013-.049a4.913,4.913,0,0,1-.2-1.524c0-3.437,3.526-7.263,8.6-7.263a9.686,9.686,0,0,1,8.943,6.159c-.013-.038-.024-.077-.038-.116a10.953,10.953,0,0,0-21.313,3.553c0,5.406,3.9,10.034,9.308,10.034a8.8,8.8,0,0,0,8.543-5.752A4.22,4.22,0,0,0,196.134,99.336Z" transform="translate(-179.727 -89.194)"/>
              </g>
              <g id="그룹_504" data-name="그룹 504" transform="translate(3.804 1.373)">
                <path id="패스_900" data-name="패스 900" class="cls-21" d="M200.94,96.849a9.657,9.657,0,0,0-9.012-6.373c-5.078,0-8.6,3.826-8.6,7.263a4.913,4.913,0,0,0,.2,1.524,3.235,3.235,0,0,1-.1-.782c0-3.579,3.584-6.06,7.267-6.06a9.03,9.03,0,0,1,9.031,9.029,9.956,9.956,0,0,1-5.519,8.919v0a10.956,10.956,0,0,0,7.223-10.3A10.831,10.831,0,0,0,200.94,96.849Z" transform="translate(-183.324 -90.476)"/>
              </g>
            </g>
          </g>
          <g id="그룹_1818" data-name="그룹 1818" transform="translate(97.872 53.263)">
            <path id="패스_2952" data-name="패스 2952" class="cls-22" d="M405.243,200.964V225.11L393.2,216.588l-12.046,8.522V200.964" transform="translate(-369.148 -154.341)"/>
            <path id="패스_2953" data-name="패스 2953" class="cls-17" d="M397.27,218.292a24.146,24.146,0,1,1,24.093-24.144A24.143,24.143,0,0,1,397.27,218.292Z" transform="translate(-373.18 -170)"/>
            <path id="패스_2954" data-name="패스 2954" class="cls-23" d="M394.449,207.044a15.726,15.726,0,1,1,15.693-15.724A15.724,15.724,0,0,1,394.449,207.044Z" transform="translate(-370.358 -167.172)"/>
          </g>
        </g>
      </g>
    </g>
  </g>
</svg>
