<svg xmlns="http://www.w3.org/2000/svg" width="444" height="238" viewBox="0 0 444 238">
    <g transform="translate(-1024.75 -1191.857)">
        <circle data-name="Ellipse 2" cx="56.75" cy="56.75" r="56.75" transform="translate(1036.75 1222.357)" style="fill:#e4ffe1"/>
        <circle data-name="Ellipse 2" cx="21.25" cy="21.25" r="21.25" transform="translate(1406.25 1191.857)" style="fill:#fcf5bd"/>
    </g>
    <g data-name="그룹 632707">
        <g data-name="그룹 632704" transform="translate(-1513.488 -2109.776)">
            <path data-name="패스 12786" d="M1649.658 2322.851v-112.5h45v112.5" style="stroke-linecap:round;stroke-linejoin:round;stroke:#222;stroke-width:3px;fill:#fff"/>
            <rect data-name="사각형 463739" width="7.5" height="7.5" rx="1" transform="translate(1675.908 2262.851)" style="fill:#ddd"/>
            <rect data-name="사각형 463740" width="7.5" height="7.5" rx="1" transform="translate(1675.908 2225.351)" style="fill:#ddd"/>
            <rect data-name="사각형 463741" width="7.5" height="7.5" rx="1" transform="translate(1675.908 2244.101)" style="fill:#ddd"/>
            <rect data-name="사각형 463742" width="7.5" height="7.5" rx="1" transform="translate(1675.908 2281.601)" style="fill:#ddd"/>
            <rect data-name="사각형 463743" width="7.5" height="7.5" rx="1" transform="translate(1675.908 2300.351)" style="fill:#ddd"/>
        </g>
        <g data-name="그룹 632705">
            <path data-name="패스 12787" d="M1574.658 2322.851V2214.1l45-26.25h7.5v135" style="fill:#f2ac58;stroke-linecap:round;stroke-linejoin:round;stroke:#222;stroke-width:3px" transform="translate(-1513.488 -2109.776)"/>
            <path data-name="선 2426" transform="translate(68.67 145.575)" style="fill:none;stroke-linecap:round;stroke-linejoin:round;stroke:#222;stroke-width:3px" d="M0 0h15"/>
            <path data-name="선 2427" transform="translate(68.67 130.575)" style="fill:none;stroke-linecap:round;stroke-linejoin:round;stroke:#222;stroke-width:3px" d="M0 0h15"/>
            <path data-name="선 2428" transform="translate(68.67 160.575)" style="fill:none;stroke-linecap:round;stroke-linejoin:round;stroke:#222;stroke-width:3px" d="M0 0h15"/>
            <path data-name="선 2429" transform="translate(68.67 175.575)" style="fill:none;stroke-linecap:round;stroke-linejoin:round;stroke:#222;stroke-width:3px" d="M0 0h15"/>
            <path data-name="선 2430" transform="translate(68.67 190.575)" style="fill:none;stroke-linecap:round;stroke-linejoin:round;stroke:#222;stroke-width:3px" d="M0 0h15"/>
        </g>
        <g data-name="그룹 632706">
            <path data-name="패스 12788" d="M1615.908 2322.851v-82.5h52.5v82.5" style="stroke-linecap:round;stroke-linejoin:round;stroke:#222;stroke-width:3px;fill:#fff" transform="translate(-1513.488 -2109.776)"/>
            <path data-name="선 2431" transform="translate(113.67 179.325)" style="stroke-linecap:round;stroke-linejoin:round;stroke:#222;stroke-width:3px;fill:#fff" d="M0 0h30"/>
            <path data-name="선 2432" transform="translate(113.67 164.325)" style="stroke-linecap:round;stroke-linejoin:round;stroke:#222;stroke-width:3px;fill:#fff" d="M0 0h30"/>
            <path data-name="선 2433" transform="translate(113.67 194.325)" style="stroke-linecap:round;stroke-linejoin:round;stroke:#222;stroke-width:3px;fill:#fff" d="M0 0h30"/>
            <path data-name="선 2434" transform="translate(113.67 149.325)" style="stroke-linecap:round;stroke-linejoin:round;stroke:#222;stroke-width:3px;fill:#fff" d="M0 0h30"/>
            <path data-name="사각형 463744" transform="translate(113.67 115.575)" style="stroke-linecap:round;stroke-linejoin:round;stroke:#222;stroke-width:3px;fill:#fff" d="M0 0h30v15H0z"/>
        </g>
    </g>
    <path data-name="선 2435" transform="translate(42 213.224)" style="fill:none;stroke-linecap:round;stroke-linejoin:round;stroke:#222;stroke-width:3px" d="M0 0h360"/>
    <g data-name="그룹 632716">
        <g data-name="그룹 632709">
            <path data-name="패스 12789" d="M1744.054 2165.277h-35.184c-8.114 0-14.78 6.892-14.78 15.3s6.666 15.306 14.78 15.306h35.184z" style="fill:#f0f2f5;stroke-linecap:round;stroke-linejoin:round;stroke:#222;stroke-width:3px" transform="translate(-1513.488 -2109.776)"/>
            <g data-name="그룹 632708">
                <path data-name="패스 12790" d="M1711.343 2195.888c-10.9 0-16.528-7.17-17.253-15.306v123.7c0 21.353 23.815 19.216 23.815 19.216h178.412v-111.973a15.636 15.636 0 0 0-15.637-15.637h-169.337z" style="stroke-linecap:round;stroke-linejoin:round;stroke:#222;stroke-width:3px;fill:#fff" transform="translate(-1513.488 -2109.776)"/>
            </g>
        </g>
        <g data-name="그룹 632712">
            <g data-name="그룹 632710">
                <path data-name="사각형 463745" transform="translate(210.93 162.637)" style="fill:#f0f2f5" d="M0 0h99v4.5H0z"/>
                <path data-name="사각형 463746" transform="translate(210.827 176.043)" style="fill:#f0f2f5" d="M0 0h60.75v4.5H0z"/>
                <path data-name="사각형 463747" transform="translate(210.701 189.449)" style="fill:#f0f2f5" d="M0 0h78.75v4.5H0z"/>
            </g>
            <g data-name="그룹 632711">
                <path data-name="사각형 463748" transform="rotate(180 164.043 69.98)" style="fill:#f0f2f5" d="M0 0h13.5v13.5H0z"/>
                <path data-name="사각형 463749" transform="rotate(180 153.613 69.98)" style="fill:#f0f2f5" d="M0 0h13.5v13.5H0z"/>
                <path data-name="사각형 463750" transform="rotate(180 143.183 69.98)" style="fill:#f0f2f5" d="M0 0h13.5v13.5H0z"/>
            </g>
        </g>
        <g data-name="그룹 632713">
            <path data-name="패스 12791" d="M1896.317 2329.639v-116.955a15.637 15.637 0 0 1-15.637 15.637h-20.328v116.956h20.328a15.637 15.637 0 0 0 15.637-15.638z" style="fill:#f0f2f5;stroke-linecap:round;stroke-linejoin:round;stroke:#222;stroke-width:3px" transform="translate(-1513.488 -2109.776)"/>
        </g>
        <g data-name="그룹 632715" transform="translate(-1513.488 -2109.776)">
            <circle data-name="타원 1343" cx="21" cy="21" r="21" transform="translate(1725.933 2218.12)" style="fill:#fcf28d;stroke-miterlimit:10;stroke:#222;stroke-width:3px"/>
            <g data-name="그룹 632714">
                <path data-name="패스 12792" d="m1736.863 2234.62 4.268 11.189a1 1 0 0 0 1.9-.082l3.091-10.848a1 1 0 0 1 1.918-.018l3.3 10.8a1 1 0 0 0 1.9.03l3.76-11.071" style="fill:none;stroke-linecap:round;stroke-linejoin:round;stroke:#222;stroke-width:3px"/>
                <path data-name="선 2436" transform="translate(1734.933 2239.781)" style="fill:none;stroke-linecap:round;stroke-linejoin:round;stroke:#222;stroke-width:3px" d="M0 0h24"/>
            </g>
        </g>
    </g>
    <g data-name="그룹 632717">
        <path data-name="패스 12793" d="m1706.163 2308.933-7.894-1.973c-7.809-1.952-13.242 2.689-16.055 5.353a31.909 31.909 0 0 1-6.373 4.725l-7.384 3.255a3.1 3.1 0 0 0-.192 5.3l8.384 4.491a32.3 32.3 0 0 1 4.843 3.826c2.916 2.84 8.3 7.73 16.3 6.043l8.37-1.765" style="stroke-linecap:round;stroke-linejoin:round;stroke:#222;stroke-width:3px;fill:#fff" transform="translate(-1513.488 -2109.776)"/>
        <path data-name="패스 12794" d="M1706.163 2308.764h73.17a3.245 3.245 0 0 1 3.236 3.235v22.787a3.245 3.245 0 0 1-3.236 3.235h-73.17z" style="fill:#fff" transform="translate(-1513.488 -2109.776)"/>
        <path data-name="패스 12795" d="M1706.163 2308.764h5.67a3.245 3.245 0 0 1 3.236 3.235v22.787a3.245 3.245 0 0 1-3.236 3.235h-5.67z" style="fill:#afdae9" transform="translate(-1513.488 -2109.776)"/>
        <path data-name="패스 12796" d="M1764.663 2308.764h14.67a3.245 3.245 0 0 1 3.236 3.235v22.787a3.245 3.245 0 0 1-3.236 3.235h-14.67z" style="fill:#afdae9" transform="translate(-1513.488 -2109.776)"/>
        <path data-name="패스 12797" d="M1706.163 2308.764h73.17a3.245 3.245 0 0 1 3.236 3.235v22.787a3.245 3.245 0 0 1-3.236 3.235h-73.17z" style="fill:none;stroke-linecap:round;stroke-linejoin:round;stroke:#222;stroke-width:3px" transform="translate(-1513.488 -2109.776)"/>
        <path data-name="선 2437" transform="translate(201.983 198.988)" style="stroke-linecap:round;stroke-linejoin:round;stroke:#222;stroke-width:3px;fill:#fff" d="M0 29.257V0"/>
        <path data-name="선 2438" transform="translate(154.638 213.358)" style="stroke-linecap:round;stroke-linejoin:round;stroke:#222;stroke-width:3px;fill:#fff" d="M22.677 0H0"/>
        <path data-name="패스 12798" d="M1693 2321.393a1.552 1.552 0 1 0 1.551 1.551 1.552 1.552 0 0 0-1.551-1.551z" style="stroke-linecap:round;stroke-linejoin:round;stroke:#222;stroke-width:3px;fill:#fff" transform="translate(-1513.488 -2109.776)"/>
        <path data-name="선 2439" transform="translate(251.73 199.377)" style="fill:none;stroke-linecap:round;stroke-linejoin:round;stroke:#222;stroke-width:3px" d="M0 28.137V0"/>
    </g>
</svg>
