<svg xmlns="http://www.w3.org/2000/svg" width="444" height="228" viewBox="0 0 444 228">
    <g transform="translate(-436 -767)">
        <circle data-name="Ellipse 2" cx="53.5" cy="53.5" r="53.5" transform="translate(464 767)" style="fill:#fbf0e3"/>
        <circle data-name="Ellipse 2" cx="19.75" cy="19.75" r="19.75" transform="translate(834.5 898.5)" style="fill:#dcf5fb"/>
    </g>
    <g data-name="그룹 633996">
        <g data-name="그룹 633988">
            <path data-name="사각형 464556" transform="translate(156.176 133.967)" style="fill:#fff" d="M0 0h38.713v38.841H0z"/>
            <path data-name="사각형 464557" transform="translate(194.889 133.967)" style="fill:#fff" d="M0 0h38.713v38.841H0z"/>
            <g data-name="그룹 633983">
                <path data-name="패스 15335" d="M1224.789 2030.729v-40h40v40" transform="translate(-1045.789 -1896.729)" style="stroke-width:3.004px;stroke-linejoin:round;stroke-linecap:round;stroke:#222;fill:#fff"/>
                <path data-name="선 2955" transform="translate(179 125)" style="stroke-width:3px;fill:none;stroke-linejoin:round;stroke-linecap:round;stroke:#222" d="M0 0h40"/>
                <g data-name="그룹 633982">
                    <path data-name="패스 15336" d="M1236.4 1992.191h18v17.3a.778.778 0 0 1-1.087.642l-7.913-2.992-7.914 2.992a.777.777 0 0 1-1.086-.642z" transform="translate(-1046.403 -1897.192)" style="fill:#afdae9"/>
                    <path data-name="패스 15337" d="M1254.4 1992.191v17.3a.778.778 0 0 1-1.087.642l-7.427-2.808a1.383 1.383 0 0 0-.973 0l-7.427 2.808a.777.777 0 0 1-1.086-.642v-17.3" transform="translate(-1046.403 -1897.192)" style="fill:none;stroke-width:3.004px;stroke-linejoin:round;stroke-linecap:round;stroke:#222"/>
                </g>
            </g>
            <g data-name="그룹 633985">
                <path data-name="패스 15338" d="M1240.835 2029.57h38.713v38.841" transform="translate(-1045.946 -1895.603)" style="fill:none;stroke-width:3.004px;stroke-linejoin:round;stroke-linecap:round;stroke:#222"/>
                <path data-name="선 2956" transform="translate(194.889 165.132)" style="stroke-width:3px;fill:none;stroke-linejoin:round;stroke-linecap:round;stroke:#222" d="M0 0h38.713"/>
                <g data-name="그룹 633984">
                    <path data-name="패스 15339" d="M1252.449 2031.032h17.421v16.8a.753.753 0 0 1-1.052.624l-7.658-2.9-7.659 2.9a.753.753 0 0 1-1.052-.624z" transform="translate(-1045.946 -1895.603)" style="fill:#afdae9"/>
                    <path data-name="패스 15340" d="M1269.87 2031.032v16.8a.753.753 0 0 1-1.052.624l-7.188-2.726a1.324 1.324 0 0 0-.941 0l-7.188 2.726a.753.753 0 0 1-1.052-.624v-16.8" transform="translate(-1045.946 -1895.603)" style="fill:none;stroke-width:3.004px;stroke-linejoin:round;stroke-linecap:round;stroke:#222"/>
                </g>
            </g>
            <g data-name="그룹 633987">
                <path data-name="패스 15341" d="M1202.122 2068.411v-38.841h38.713v38.841" transform="translate(-1045.946 -1895.603)" style="fill:none;stroke-width:3.004px;stroke-linejoin:round;stroke-linecap:round;stroke:#222"/>
                <path data-name="선 2957" transform="translate(156.176 165.132)" style="stroke-width:3px;fill:none;stroke-linejoin:round;stroke-linecap:round;stroke:#222" d="M0 0h38.713"/>
                <g data-name="그룹 633986">
                    <path data-name="패스 15342" d="M1213.736 2031.032h17.421v16.8a.753.753 0 0 1-1.052.624l-7.658-2.9-7.659 2.9a.753.753 0 0 1-1.052-.624z" transform="translate(-1045.946 -1895.603)" style="fill:#afdae9"/>
                    <path data-name="패스 15343" d="M1231.157 2031.032v16.8a.753.753 0 0 1-1.052.624l-7.188-2.726a1.324 1.324 0 0 0-.941 0l-7.188 2.726a.753.753 0 0 1-1.052-.624v-16.8" transform="translate(-1045.946 -1895.603)" style="fill:none;stroke-width:3.004px;stroke-linejoin:round;stroke-linecap:round;stroke:#222"/>
                </g>
            </g>
            <path data-name="패스 15344" d="m1128.739 2050.3 21.952 70.8h145.173l11.614-52.435h-119.995l-14.9-20.318a5.166 5.166 0 0 0-4.165-2.113h-36.69a3.134 3.134 0 0 0-2.989 4.066z" transform="translate(-1045.947 -1895.603)" style="fill:#fff"/>
            <path data-name="패스 15345" d="m1295.864 2121.1 11.614-52.435h-119.995l-14.9-20.318a5.166 5.166 0 0 0-4.165-2.113h-36.69a3.134 3.134 0 0 0-2.986 4.067l21.952 70.8" transform="translate(-1045.947 -1895.603)" style="fill:none;stroke-width:3.004px;stroke-linejoin:round;stroke-linecap:round;stroke:#222"/>
            <path data-name="패스 15346" d="M1146.616 2102.1h147.766v19.5H1152.7z" transform="translate(-1045.947 -1895.603)" style="fill:#e4e4e4"/>
            <path data-name="패스 15347" d="M1153.279 2061.777a5 5 0 1 1-3.928-3.939 5.016 5.016 0 0 1 3.928 3.939z" transform="translate(-1045.947 -1895.603)" style="stroke-width:3.004px;stroke-linejoin:round;stroke-linecap:round;stroke:#222;fill:#fff"/>
            <path data-name="패스 15348" d="M1169.939 2061.777a5 5 0 1 1-3.928-3.939 5.017 5.017 0 0 1 3.928 3.939z" transform="translate(-1045.947 -1895.603)" style="stroke-width:3.004px;stroke-linejoin:round;stroke-linecap:round;stroke:#222;fill:#fff"/>
            <path data-name="선 2958" transform="translate(99.543 206.879)" style="stroke-width:3px;fill:none;stroke-linejoin:round;stroke-linecap:round;stroke:#222" d="M0 0h150"/>
        </g>
        <g data-name="그룹 633995">
            <path data-name="패스 15349" d="M1298.243 1946.6a6.955 6.955 0 0 0-6.945 6.966V2121.1h136v-147.55l-26.87-26.947z" transform="translate(-1065.947 -1895.603)" style="fill:#fff"/>
            <path data-name="패스 15350" d="M1400.427 1946.6v26.843h26.87" transform="translate(-1065.947 -1895.603)" style="fill:#e4e4e4"/>
            <g data-name="그룹 633989">
                <path data-name="선 2960" transform="translate(245.127 164.579)" style="stroke-width:3px;fill:none;stroke-linejoin:round;stroke-linecap:round;stroke:#222" d="M0 0h61.735"/>
                <path data-name="선 2961" transform="translate(272.099 194.435)" style="stroke-width:3px;fill:none;stroke-linejoin:round;stroke-linecap:round;stroke:#222" d="M0 0h61.735"/>
                <path data-name="선 2962" transform="translate(317.371 164.494)" style="stroke-width:3px;fill:none;stroke-linejoin:round;stroke-linecap:round;stroke:#222" d="M0 0h16.463"/>
                <path data-name="선 2963" transform="translate(244.834 194.435)" style="stroke-width:3px;fill:none;stroke-linejoin:round;stroke-linecap:round;stroke:#222" d="M0 0h16.463"/>
                <path data-name="선 2964" transform="translate(245.127 179.507)" style="stroke-width:3px;fill:none;stroke-linejoin:round;stroke-linecap:round;stroke:#222" d="M0 0h40.504"/>
                <path data-name="선 2965" transform="translate(297.059 179.507)" style="stroke-width:3px;fill:none;stroke-linejoin:round;stroke-linecap:round;stroke:#222" d="M0 0h36.775"/>
            </g>
            <g data-name="그룹 633993">
                <path data-name="사각형 464558" style="stroke-width:3.004px;stroke-linejoin:round;stroke-linecap:round;stroke:#222;fill:#fff" d="M0 0h86v46.132H0z" transform="translate(246.334 93.034)"/>
                <g data-name="그룹 633990">
                    <path data-name="패스 15351" d="M1390.94 2019.042v-14.679a7.239 7.239 0 0 1-7.132-7.339h-57.054a7.239 7.239 0 0 1-7.131 7.339v14.679a7.239 7.239 0 0 1 7.131 7.339h57.054a7.24 7.24 0 0 1 7.132-7.339z" transform="translate(-1065.947 -1895.603)" style="fill:#fcf28d;stroke-width:3.004px;stroke-linejoin:round;stroke-linecap:round;stroke:#222"/>
                </g>
                <g data-name="그룹 633992" transform="translate(280.944 106.664)">
                    <ellipse data-name="타원 1427" cx="9.439" cy="9.436" rx="9.439" ry="9.436" style="stroke-width:2.003px;stroke-miterlimit:10;stroke:#222;fill:#fff"/>
                    <g data-name="그룹 633991">
                        <path data-name="패스 15352" d="m1351.929 2008.8 1.865 5.723a.421.421 0 0 0 .829-.042l1.351-5.549a.423.423 0 0 1 .838-.009l1.44 5.522a.421.421 0 0 0 .832.015l1.647-5.66" transform="translate(-1346.891 -2002.266)" style="stroke-width:2.003px;fill:none;stroke-linejoin:round;stroke-linecap:round;stroke:#222"/>
                        <path data-name="선 2966" transform="translate(4.195 9.169)" style="stroke-width:2px;fill:none;stroke-linejoin:round;stroke-linecap:round;stroke:#222" d="M0 0h10.488"/>
                    </g>
                </g>
            </g>
            <g data-name="그룹 633994" transform="translate(313.867 119.647)">
                <ellipse data-name="타원 1428" cx="14" cy="14.04" rx="14" ry="14.04" style="stroke-width:2.754px;fill:#f2ac58;stroke-linejoin:round;stroke-linecap:round;stroke:#222"/>
                <path data-name="선 2967" transform="translate(3.945 3.957)" style="stroke-width:2.754px;fill:none;stroke-linejoin:round;stroke-linecap:round;stroke:#222" d="M0 19.848 19.791 0"/>
            </g>
            <path data-name="패스 15353" d="M1400.427 1946.6v26.843h26.87" transform="translate(-1065.947 -1895.603)" style="fill:none;stroke-width:3.004px;stroke-linejoin:round;stroke:#222"/>
            <path data-name="패스 15354" d="M1427.3 2121.1v-147.55l-26.87-26.947h-102.187a6.955 6.955 0 0 0-6.945 6.966V2121.1" transform="translate(-1065.947 -1895.603)" style="fill:none;stroke-width:3.004px;stroke-linejoin:round;stroke-linecap:round;stroke:#222"/>
        </g>
    </g>
    <path data-name="선 2968" transform="translate(42 225.992)" style="stroke-width:3px;fill:none;stroke-linejoin:round;stroke-linecap:round;stroke:#222" d="M0 0h360"/>
</svg>
