<svg xmlns="http://www.w3.org/2000/svg" width="444" height="226" viewBox="0 0 444 226">
    <g transform="translate(-54.5 -45.456)">
        <circle data-name="Ellipse 2" cx="47" cy="47" r="47" transform="translate(116.5 54.456)" style="fill:#dcf5fb"/>
        <circle data-name="Ellipse 2" cx="19.75" cy="19.75" r="19.75" transform="translate(411.5 45.456)" style="fill:#e4ffe1"/>
    </g>
    <g data-name="그룹 841">
        <path data-name="패스 1446" d="M365.2 97.543v36.065h-27.94V97.543c0-6.4 6.256-11.592 13.971-11.592s13.969 5.19 13.969 11.592z" style="stroke-width:2.994px;stroke-linecap:round;stroke-linejoin:round;stroke:#222;fill:#e4e4e4" transform="translate(-53.202 -45.456)"/>
        <path data-name="패스 1447" d="M191.2 263.266V99.132c0-7.847 7.376-13.9 15.523-12.981v-.088h144.165c-7.715 0-13.97 5.854-13.97 13.074v164.2" style="fill:#fff;stroke-width:2.994px;stroke-linecap:round;stroke-linejoin:round;stroke:#222" transform="translate(-53.202 -45.456)"/>
    </g>
    <g data-name="그룹 842" transform="translate(-52.75 -45.469)">
        <path data-name="패스 1448" d="M267.75 167.335v-24.462c0-4.5-5.569-8.178-12.374-8.178h-20.622c-6.8 0-12.374 3.68-12.374 8.178v24.463z" style="fill:#f2ac58"/>
        <ellipse data-name="타원 71" cx="9.452" cy="10.043" rx="9.452" ry="10.043" transform="translate(235.613 111.469)" style="fill:#fff;stroke-width:2.994px;stroke-linecap:round;stroke-linejoin:round;stroke:#222"/>
        <path data-name="패스 1449" d="M267.12 166.708v-21.282c0-5.558-5.569-10.1-12.374-10.1h-20.622c-6.8 0-12.374 4.546-12.374 10.1v21.282" style="fill:none;stroke-width:2.994px;stroke-linecap:round;stroke-linejoin:round;stroke:#222"/>
        <path data-name="선 337" transform="translate(258.298 155.409)" style="stroke-width:2.988px;fill:none;stroke-linecap:round;stroke-linejoin:round;stroke:#222" d="M0 11.299V0"/>
        <path data-name="선 338" transform="translate(231.832 155.409)" style="stroke-width:2.988px;fill:none;stroke-linecap:round;stroke-linejoin:round;stroke:#222" d="M0 0v11.299"/>
    </g>
    <text data-name="보험설계사 위촉 계약서" transform="translate(208 158)" style="fill:#222;font-size:20px;font-family:NotoSansCJKkr-Bold,Noto Sans CJK KR;font-weight:700;letter-spacing:-.05em"><tspan x="-44" y="0">보험설계사</tspan><tspan x="-45.77" y="30">위촉 계약서</tspan></text>
    <path data-name="선 339" transform="translate(42 218)" style="stroke-width:3px;fill:none;stroke-linecap:round;stroke-linejoin:round;stroke:#222" d="M0 0h360"/>
    <g data-name="그룹 847">
        <g data-name="그룹 844">
            <path data-name="패스 1450" d="M352 269.385a1.964 1.964 0 0 1-.708-.131A72.762 72.762 0 0 1 320.91 247.9a78.517 78.517 0 0 1-14.385-26.832 95.175 95.175 0 0 1-4.425-32.648 1.959 1.959 0 0 1 1.7-1.79c15.156-2.036 27.007-9.1 34.28-14.672a72.223 72.223 0 0 0 12.352-11.8 1.972 1.972 0 0 1 1.567-.772 1.968 1.968 0 0 1 1.567.774 72.271 72.271 0 0 0 12.351 11.8c7.273 5.57 19.124 12.636 34.279 14.672a1.959 1.959 0 0 1 1.7 1.79 95.2 95.2 0 0 1-4.421 32.652A78.517 78.517 0 0 1 383.09 247.9a72.759 72.759 0 0 1-30.383 21.35 1.955 1.955 0 0 1-.707.135z" transform="translate(-40 -45.385)" style="fill:#afdae9;stroke-miterlimit:10;stroke-width:2.994px;stroke:#222"/>
        </g>
        <g data-name="그룹 846">
            <g data-name="그룹 845" transform="translate(290.077 152.067)">
                <ellipse data-name="타원 72" cx="21" cy="20.919" rx="21" ry="20.919" style="fill:#fff"/>
                <path data-name="패스 1451" d="M371.743 214.393a20.988 20.988 0 1 1-9.4-13.912" transform="translate(-330.077 -197.216)" style="fill:none;stroke-width:2.994px;stroke-linecap:round;stroke-linejoin:round;stroke:#222"/>
            </g>
            <path data-name="패스 1452" d="m374.327 205.735-5.048-4.783-18 17.216-7.8-7.4-5.145 4.881 12.828 12.2.022-.017.015.017z" transform="translate(-40 -45.149)" style="fill:#fcf28d;stroke-width:2.994px;stroke-linecap:round;stroke-linejoin:round;stroke:#222"/>
        </g>
    </g>
    <g data-name="그룹 852">
        <g data-name="그룹 849" transform="translate(-53.371 -45.318)">
            <ellipse data-name="타원 73" cx="27.357" cy="27.453" rx="27.357" ry="27.453" transform="rotate(-77.23 218.372 25.375) skewX(.12)" style="stroke-width:2.994px;fill:#fff;stroke-linecap:round;stroke-linejoin:round;stroke:#222"/>
            <ellipse data-name="타원 74" cx="21" cy="20.919" rx="21" ry="20.919" transform="translate(157.532 191.031)" style="fill:#fcf28d"/>
            <g data-name="그룹 848">
                <path data-name="패스 1453" d="m168.462 207.467 4.268 11.147a1 1 0 0 0 1.9-.082l3.091-10.806a1 1 0 0 1 1.918-.018l3.3 10.753a1 1 0 0 0 1.9.031l3.769-11.025" style="fill:none;stroke-width:2.994px;stroke-linecap:round;stroke-linejoin:round;stroke:#222"/>
                <path data-name="선 340" transform="translate(166.532 212.609)" style="stroke-width:3px;fill:none;stroke-linecap:round;stroke-linejoin:round;stroke:#222" d="M0 0h24"/>
            </g>
        </g>
        <g data-name="그룹 850">
            <path data-name="패스 1454" d="M150.744 251.031v-11.954h54.916v11.954" style="fill:#fff;stroke-width:2.994px;stroke-linecap:round;stroke-linejoin:round;stroke:#222" transform="translate(-53.371 -45.318)"/>
            <path data-name="선 341" transform="translate(110.629 194.057)" style="stroke-width:2.988px;fill:none;stroke-linecap:round;stroke-linejoin:round;stroke:#222" d="M0 0v5.698"/>
        </g>
        <g data-name="그룹 851">
            <path data-name="패스 1455" d="M150.744 262.169v-11.4h54.916v11.4" style="fill:#fff;stroke-width:2.994px;stroke-linecap:round;stroke-linejoin:round;stroke:#222" transform="translate(-53.371 -45.318)"/>
            <path data-name="선 342" transform="translate(110.629 205.454)" style="stroke-width:2.988px;fill:none;stroke-linecap:round;stroke-linejoin:round;stroke:#222" d="M0 0v5.698"/>
        </g>
    </g>
</svg>
