<svg xmlns="http://www.w3.org/2000/svg" width="444" height="256" viewBox="0 0 444 256">
  <defs>
    <style>
      .cls-1 {
        fill: rgba(255,191,191,0.5);
        opacity: 0;
      }

      .cls-2 {
        fill: #dcf5fb;
      }

      .cls-3 {
        fill: #e3e6fb;
      }

      .cls-4, .cls-8 {
        fill: #fff;
      }

      .cls-10, .cls-11, .cls-12, .cls-4, .cls-6, .cls-8, .cls-9 {
        stroke: #222;
      }

      .cls-10, .cls-11, .cls-13, .cls-4, .cls-6, .cls-9 {
        stroke-linecap: round;
        stroke-linejoin: round;
      }

      .cls-10, .cls-11, .cls-12, .cls-13, .cls-4, .cls-6, .cls-8, .cls-9 {
        stroke-width: 3px;
      }

      .cls-5 {
        fill: #e4e4e4;
      }

      .cls-6 {
        fill: #afdae9;
      }

      .cls-7 {
        fill: #333;
      }

      .cls-12, .cls-8 {
        stroke-miterlimit: 10;
      }

      .cls-13, .cls-9 {
        fill: none;
      }

      .cls-10 {
        fill: #e6e6e6;
      }

      .cls-11 {
        fill: #f2ac58;
      }

      .cls-12 {
        fill: #fcf28d;
      }

      .cls-13 {
        stroke: #e4e4e4;
      }
    </style>
  </defs>
  <g id="SWKDIFDT0200_2" transform="translate(38.5 38.85)">
    <g id="deco">
      <rect id="bg" class="cls-1" width="444" height="256" transform="translate(-38.5 -38.85)"/>
      <circle id="Ellipse_2" data-name="Ellipse 2" class="cls-2" cx="20" cy="20" r="20" transform="translate(284.5 69.15)"/>
      <circle id="Ellipse_2-2" data-name="Ellipse 2" class="cls-3" cx="44.25" cy="44.25" r="44.25" transform="translate(317 -38.85)"/>
    </g>
    <g id="img" transform="translate(-55.5 -104.85)">
      <g id="그룹_963" data-name="그룹 963">
        <g id="그룹_960" data-name="그룹 960">
          <g id="그룹_959" data-name="그룹 959">
            <path id="패스_1632" data-name="패스 1632" class="cls-4" d="M228,304.432V104.5H347.607V304.432"/>
            <rect id="사각형_393" data-name="사각형 393" class="cls-4" width="89.705" height="14.995" transform="translate(242.951 89.5)"/>
            <path id="패스_1633" data-name="패스 1633" class="cls-5" d="M272.853,149.481H256.9a2,2,0,0,1-1.993-2V131.487a2,2,0,0,1,1.993-2h15.948a2,2,0,0,1,1.993,2v15.995A2,2,0,0,1,272.853,149.481Z"/>
            <path id="패스_1634" data-name="패스 1634" class="cls-5" d="M272.853,183.47H256.9a2,2,0,0,1-1.993-2V165.476a2,2,0,0,1,1.993-2h15.948a2,2,0,0,1,1.993,2v15.995A2,2,0,0,1,272.853,183.47Z"/>
            <rect id="사각형_394" data-name="사각형 394" class="cls-5" width="19.935" height="19.994" rx="1.993" transform="translate(254.912 197.466)"/>
            <path id="패스_1635" data-name="패스 1635" class="cls-5" d="M318.7,149.481H302.755a2,2,0,0,1-1.994-2V131.487a2,2,0,0,1,1.994-2H318.7a2,2,0,0,1,1.994,2v15.995A2,2,0,0,1,318.7,149.481Z"/>
            <path id="패스_1636" data-name="패스 1636" class="cls-5" d="M318.7,183.47H302.755a2,2,0,0,1-1.994-2V165.476a2,2,0,0,1,1.994-2H318.7a2,2,0,0,1,1.994,2v15.995A2,2,0,0,1,318.7,183.47Z"/>
            <path id="패스_1637" data-name="패스 1637" class="cls-5" d="M318.7,217.46H302.755a2,2,0,0,1-1.994-2v-16a2,2,0,0,1,1.994-2H318.7a2,2,0,0,1,1.994,2v16A2,2,0,0,1,318.7,217.46Z"/>
            <path id="패스_1638" data-name="패스 1638" class="cls-6" d="M257.9,304.432V254.448h59.8v49.984"/>
            <line id="선_377" data-name="선 377" class="cls-4" y1="49.984" transform="translate(287.804 254.448)"/>
            <g id="그룹_958" data-name="그룹 958">
              <path id="패스_1639" data-name="패스 1639" class="cls-7" d="M267.343,245.621a1.305,1.305,0,0,1-1.467-1.487v-8.157a1.305,1.305,0,0,1,1.467-1.487H270.7a5.557,5.557,0,0,1,2.966.676,2.376,2.376,0,0,1,1.079,2.178,2.274,2.274,0,0,1-.42,1.344,2.53,2.53,0,0,1-1.2.894v.09a3.614,3.614,0,0,1,.749.331,2.615,2.615,0,0,1,.644.533,2.46,2.46,0,0,1,.45.766,2.871,2.871,0,0,1,.164,1,2.982,2.982,0,0,1-1.056,2.471,4.712,4.712,0,0,1-3.018.849Zm4.869-7.939a1.014,1.014,0,0,0-.435-.945,2.63,2.63,0,0,0-1.333-.264h-2.067v2.418h2.067a2.63,2.63,0,0,0,1.333-.264A1.016,1.016,0,0,0,272.212,237.682Zm-3.835,5.836h2.2a5.234,5.234,0,0,0,.824-.06,1.928,1.928,0,0,0,.651-.218,1.108,1.108,0,0,0,.427-.421,1.562,1.562,0,0,0,0-1.336,1.108,1.108,0,0,0-.427-.421,1.929,1.929,0,0,0-.651-.218,5.236,5.236,0,0,0-.824-.06h-2.2Z"/>
              <path id="패스_1640" data-name="패스 1640" class="cls-7" d="M281.318,234.4a1.608,1.608,0,0,1,.944.263,1.644,1.644,0,0,1,.569.729l3.594,8.743a1.068,1.068,0,0,1,0,.924,1.156,1.156,0,0,1-.733.593,1.127,1.127,0,0,1-.937-.075,1.461,1.461,0,0,1-.636-.766l-.675-1.773h-4.268l-.659,1.773a1.458,1.458,0,0,1-.637.766,1.156,1.156,0,0,1-.951.075,1.13,1.13,0,0,1-.726-.593,1.09,1.09,0,0,1,.007-.924l3.6-8.743a1.644,1.644,0,0,1,.569-.729A1.606,1.606,0,0,1,281.318,234.4Zm-1.348,6.535h2.7l-1.318-3.5h-.06Z"/>
              <path id="패스_1641" data-name="패스 1641" class="cls-7" d="M288.327,236.157a2.085,2.085,0,0,1,.352-1.307,1.445,1.445,0,0,1,1.206-.451,1.915,1.915,0,0,1,.914.188,1.661,1.661,0,0,1,.6.593l3.879,6.836h.045v-6.325a1.325,1.325,0,0,1,.33-.931,1.3,1.3,0,0,1,1.8,0,1.324,1.324,0,0,1,.329.931v8.323a2.109,2.109,0,0,1-.321,1.254,1.31,1.31,0,0,1-1.131.443,2.315,2.315,0,0,1-.974-.187,1.587,1.587,0,0,1-.674-.624l-3.849-6.5h-.045v6.024a1.328,1.328,0,0,1-.33.932,1.3,1.3,0,0,1-1.8,0,1.328,1.328,0,0,1-.33-.932Z"/>
              <path id="패스_1642" data-name="패스 1642" class="cls-7" d="M300.325,235.676a1.263,1.263,0,0,1,.344-.923,1.217,1.217,0,0,1,.914-.354,1.211,1.211,0,0,1,1.273,1.277v3.275l4.359-4.191a1.285,1.285,0,0,1,.883-.353,1.111,1.111,0,0,1,.854.353,1.073,1.073,0,0,1,.322.818,1.223,1.223,0,0,1-.412.834l-3.071,2.975,3.64,4.387a1.078,1.078,0,0,1,.3.811,1.149,1.149,0,0,1-.419.841,1.108,1.108,0,0,1-.442.24,1.256,1.256,0,0,1-.473.03,1.454,1.454,0,0,1-.456-.135,1.066,1.066,0,0,1-.367-.286l-3.52-4.19-1.2,1.171v2.194a1.226,1.226,0,0,1-.352.916,1.261,1.261,0,0,1-.921.345,1.185,1.185,0,0,1-1.258-1.261Z"/>
            </g>
          </g>
        </g>
        <g id="그룹_962" data-name="그룹 962">
          <g id="그룹_961" data-name="그룹 961">
            <path id="패스_1643" data-name="패스 1643" class="cls-8" d="M382.093,291.21a16.526,16.526,0,0,1-5.435-.914h0a16.743,16.743,0,0,1-10.138-21.718.231.231,0,0,0-.013-.2,17.989,17.989,0,0,1,3.226-21.773.187.187,0,0,0,.049-.174,12.757,12.757,0,0,1,3.636-12.282,12.56,12.56,0,0,1,9.486-3.426,12.726,12.726,0,0,1,11.518,15.719.18.18,0,0,0,.052.164,17.986,17.986,0,0,1,3.226,21.771.251.251,0,0,0-.01.213,16.724,16.724,0,0,1-14.073,22.554C383.107,291.187,382.6,291.21,382.093,291.21Z"/>
          </g>
          <line id="선_378" data-name="선 378" class="cls-9" y2="48.41" transform="translate(382.103 256.09)"/>
          <line id="선_379" data-name="선 379" class="cls-9" x1="7.798" y2="12.807" transform="translate(382.103 256.268)"/>
          <line id="선_380" data-name="선 380" class="cls-9" x1="7.816" y1="12.796" transform="translate(373.83 265.879)"/>
        </g>
      </g>
      <path id="패스_1644" data-name="패스 1644" class="cls-4" d="M105,304V153a3,3,0,0,1,3-3H232a3,3,0,0,1,3,3V304"/>
      <line id="선_381" data-name="선 381" class="cls-9" x2="360" transform="translate(59 305)"/>
      <g id="그룹_966" data-name="그룹 966">
        <path id="패스_1645" data-name="패스 1645" class="cls-10" d="M223,297.059S221.372,318.5,198.877,318.5,182.9,289.552,182.9,289.552l40.1-8.495Z"/>
        <path id="패스_1646" data-name="패스 1646" class="cls-4" d="M203.482,302.482l.61,5.031a9.809,9.809,0,0,1-9.738,10.987H96a3,3,0,0,1-3-3V165.694a3,3,0,0,1,3-3H220a3,3,0,0,1,3,3V289.332A10.934,10.934,0,0,1,209.666,300l-2.753-.619A2.83,2.83,0,0,0,203.482,302.482Z"/>
        <path id="패스_1647" data-name="패스 1647" class="cls-11" d="M175.286,170.484H140.714a10.008,10.008,0,0,1-10.014-10h0a2.984,2.984,0,0,1,2.986-2.982h48.628a2.984,2.984,0,0,1,2.986,2.982h0A10.008,10.008,0,0,1,175.286,170.484Z"/>
        <g id="그룹_965" data-name="그룹 965">
          <ellipse id="타원_81" data-name="타원 81" class="cls-12" cx="18.091" cy="18.068" rx="18.091" ry="18.068" transform="translate(108.567 189.494)"/>
          <g id="그룹_964" data-name="그룹 964">
            <path id="패스_1648" data-name="패스 1648" class="cls-9" d="M117.983,203.691l3.676,9.627a.862.862,0,0,0,1.633-.07l2.663-9.334a.862.862,0,0,1,1.653-.016l2.839,9.289a.861.861,0,0,0,1.639.026l3.247-9.522"/>
            <line id="선_382" data-name="선 382" class="cls-9" x2="20.675" transform="translate(116.32 208.131)"/>
          </g>
        </g>
        <line id="선_383" data-name="선 383" class="cls-13" x2="39.328" transform="translate(159.549 195.153)"/>
        <line id="선_384" data-name="선 384" class="cls-13" x2="23.351" transform="translate(159.549 208.137)"/>
        <line id="선_385" data-name="선 385" class="cls-13" x2="30.725" transform="translate(159.549 221.121)"/>
        <line id="선_386" data-name="선 386" class="cls-9" x2="60.039" transform="translate(142.738 248.387)"/>
        <line id="선_387" data-name="선 387" class="cls-9" x2="33.622" transform="translate(142.738 260.073)"/>
        <line id="선_388" data-name="선 388" class="cls-13" x2="60.039" transform="translate(142.738 279.548)"/>
        <line id="선_389" data-name="선 389" class="cls-13" x2="33.622" transform="translate(142.738 291.234)"/>
        <path id="패스_1649" data-name="패스 1649" class="cls-9" d="M128.614,256.956v3.1a2.009,2.009,0,0,1-2.01,2.007h-12.06a2.008,2.008,0,0,1-2.01-2.007V248.012a2.008,2.008,0,0,1,2.01-2.007H124.5"/>
        <path id="패스_1650" data-name="패스 1650" class="cls-9" d="M119,251.978l4,3.99L130,248"/>
        <path id="패스_1651" data-name="패스 1651" class="cls-13" d="M128.614,287.444v3.731a2.211,2.211,0,0,1-1.22,2.008h-12.06c-1.9,0-2.8-.9-2.8-2.008V279.13a2.007,2.007,0,0,1,2.007-2.008h12.073a2,2,0,0,1,2,2Z"/>
      </g>
    </g>
  </g>
</svg>
