<svg xmlns="http://www.w3.org/2000/svg" width="444" height="228" viewBox="0 0 444 228">
    <g transform="translate(-436 -767)">
        <circle data-name="Ellipse 2" cx="53.5" cy="53.5" r="53.5" transform="translate(737 815)" style="fill:#fbf0e3"/>
        <circle data-name="Ellipse 2" cx="19.75" cy="19.75" r="19.75" transform="translate(451 767)" style="fill:#dcf5fb"/>
    </g>
    <g data-name="그룹 633584">
        <path data-name="사각형 464611" transform="translate(115 37)" style="fill:#fff" d="M0 0h130v175H0z"/>
        <path data-name="선 2835" transform="translate(244.371 37.065)" style="stroke-width:3.016px;stroke-linecap:round;stroke-linejoin:round;stroke:#222;fill:#fff" d="M0 0v170.472"/>
        <path data-name="선 2836" transform="translate(114.371 37.065)" style="stroke-width:3.016px;stroke-linecap:round;stroke-linejoin:round;stroke:#222;fill:#fff" d="M0 170.472V0"/>
        <path data-name="패스 14556" d="m1341 1703.874-6.021 10.895a14.11 14.11 0 0 1-12.372 7.2h-93.214a14.11 14.11 0 0 1-12.372-7.2l-6.021-10.895z" style="stroke-width:3.008px;fill:#fcf28d;stroke-linecap:round;stroke-linejoin:round;stroke:#222" transform="translate(-1096.5 -1667.366)"/>
        <path data-name="선 2837" transform="translate(179.031 56.469)" style="fill:none;stroke-width:3.016px;stroke-linecap:round;stroke-linejoin:round;stroke:#222" d="M0 11.058V0"/>
    </g>
    <path data-name="패스 14557" d="M1316.5 1878.785v-8.431a11.82 11.82 0 0 1 11.961-11.674h83.075a11.82 11.82 0 0 1 11.964 11.674v8.431" style="fill:#afdae9;stroke-width:3.008px;stroke-linecap:round;stroke-linejoin:round;stroke:#222" transform="translate(-1096.5 -1667.366)"/>
    <path data-name="선 2838" transform="translate(42.5 212.425)" style="stroke-width:3px;fill:none;stroke-linecap:round;stroke-linejoin:round;stroke:#222" d="M0 0h360"/>
    <g data-name="그룹 633592">
        <g data-name="그룹 633586">
            <path data-name="패스 14558" d="M1478.587 1863.919a8.085 8.085 0 0 1 .963 11.355h0a7.99 7.99 0 0 1-11.3.968l-73.558-62.346a8.089 8.089 0 0 1-.963-11.356h0a7.992 7.992 0 0 1 11.3-.967z" style="stroke-width:3.008px;stroke-linecap:round;stroke-linejoin:round;stroke:#222;fill:#fff" transform="translate(-1096.5 -1667.366)"/>
            <path data-name="패스 14559" d="M1409.031 1794.644a6.777 6.777 0 0 1 .808 9.518l-11.8 14.062a6.693 6.693 0 0 1-9.47.808l-7.134-6.047a6.783 6.783 0 0 1-.808-9.521l11.8-14.058a6.691 6.691 0 0 1 9.466-.81z" style="stroke-width:3.008px;stroke-linecap:round;stroke-linejoin:round;stroke:#222;fill:#fff" transform="translate(-1096.5 -1667.366)"/>
            <path data-name="사각형 464307" transform="rotate(-49.863 273.03 -190.818)" style="stroke-width:3.008px;stroke-linecap:round;stroke-linejoin:round;stroke:#222;fill:#fff" d="M0 0h78.769v39.392H0z"/>
            <g data-name="그룹 633585">
                <path data-name="패스 14560" d="M1377.215 1828.077a6.713 6.713 0 0 1 .8 9.424l-4.529 5.4a6.631 6.631 0 0 1-9.376.805l-33.634-28.507a6.714 6.714 0 0 1-.8-9.427l4.529-5.4a6.635 6.635 0 0 1 9.379-.8z" style="stroke-width:3.008px;stroke-linecap:round;stroke-linejoin:round;stroke:#222;fill:#fff" transform="translate(-1096.5 -1667.366)"/>
                <path data-name="패스 14561" d="M1429.083 1766.232a6.709 6.709 0 0 1 .8 9.425l-4.532 5.4a6.626 6.626 0 0 1-9.373.8l-33.634-28.506a6.712 6.712 0 0 1-.8-9.425l4.525-5.4a6.635 6.635 0 0 1 9.379-.8z" style="stroke-width:3.008px;stroke-linecap:round;stroke-linejoin:round;stroke:#222;fill:#fff" transform="translate(-1096.5 -1667.366)"/>
            </g>
        </g>
        <g data-name="그룹 633591">
            <path data-name="패스 14566" d="M1291 1871.56s-1.589 21.3-23.548 21.3-15.6-28.756-15.6-28.756l39.144-8.438z" style="fill:#e6e6e6;stroke-width:3.008px;stroke-linecap:round;stroke-linejoin:round;stroke:#222" transform="translate(-1096.5 -1667.366)"/>
            <path data-name="패스 14567" d="m1271.715 1876.84.609 5.03a9.808 9.808 0 0 1-9.737 10.988h-98.354a3 3 0 0 1-3-3v-149.811a3 3 0 0 1 3-3h124a3 3 0 0 1 3 3v123.643a10.935 10.935 0 0 1-13.335 10.668l-2.752-.62a2.831 2.831 0 0 0-3.431 3.102z" style="stroke-width:3.008px;stroke-linecap:round;stroke-linejoin:round;stroke:#222;fill:#fff" transform="translate(-1096.5 -1667.366)"/>
            <path data-name="패스 14568" d="M1243.519 1744.25h-34.572a10.034 10.034 0 0 1-10.014-10.053h0a2.991 2.991 0 0 1 2.986-3h48.628a2.992 2.992 0 0 1 2.986 3h0a10.034 10.034 0 0 1-10.014 10.053z" style="fill:#f2ac58;stroke-width:3.008px;stroke-linecap:round;stroke-linejoin:round;stroke:#222" transform="translate(-1096.5 -1667.366)"/>
            <g data-name="그룹 633589">
                <path data-name="패스 14569" d="M1194.447 1766.618a7.938 7.938 0 0 1 5.911 2.368 2.011 2.011 0 0 1-1.452 3.387h-.01a1.939 1.939 0 0 1-1.531-.742 3.611 3.611 0 0 0-2.964-1.364c-2.444 0-4.119 1.825-4.119 4.724s1.675 4.726 4.119 4.726a3.611 3.611 0 0 0 2.964-1.364 1.938 1.938 0 0 1 1.531-.741 2.009 2.009 0 0 1 1.449 3.389 8.325 8.325 0 0 1-14.115-6.009c.003-4.913 3.4-8.374 8.217-8.374z" style="fill:#333" transform="translate(-1096.5 -1667.366)"/>
                <path data-name="패스 14570" d="M1212.358 1783.391a8.41 8.41 0 1 1 8.354-8.422 8.24 8.24 0 0 1-8.354 8.422zm0-3.649c2.607 0 4.3-1.9 4.3-4.773 0-2.924-1.7-4.773-4.3-4.773-2.654 0-4.329 1.849-4.329 4.773 0 2.877 1.671 4.772 4.329 4.772z" style="fill:#333" transform="translate(-1096.5 -1667.366)"/>
                <path data-name="패스 14571" d="M1224.836 1766.805a1.994 1.994 0 0 1 1.989 2v7.825c0 1.941.955 3.064 2.84 3.064s2.885-1.123 2.885-3.064v-7.825a2 2 0 0 1 1.99-2 2 2 0 0 1 1.99 2v7.8c0 4.538-3.165 6.784-6.936 6.784-3.792 0-6.748-2.247-6.748-6.784v-7.8a2 2 0 0 1 1.99-2z" style="fill:#333" transform="translate(-1096.5 -1667.366)"/>
                <path data-name="패스 14572" d="M1245.994 1766.805c4 0 6 2.315 6 5.169a4.776 4.776 0 0 1-3.63 4.749l2.082 3.592a1.937 1.937 0 0 1-1.665 2.912 1.926 1.926 0 0 1-1.688-1l-2.848-5.2h-.954v4.263a1.932 1.932 0 0 1-1.927 1.937h-.126a1.932 1.932 0 0 1-1.927-1.937v-12.547a1.932 1.932 0 0 1 1.927-1.937zm-.233 3.321h-2.461v4.07h2.466c1.489 0 2.188-.772 2.188-2.058-.005-1.216-.704-2.012-2.193-2.012z" style="fill:#333" transform="translate(-1096.5 -1667.366)"/>
                <path data-name="패스 14573" d="M1255.19 1766.805h9.449a1.6 1.6 0 0 1 1.594 1.6 1.6 1.6 0 0 1-1.594 1.6h-2.734v11.615a1.6 1.6 0 0 1-1.593 1.6h-.793a1.6 1.6 0 0 1-1.593-1.6v-11.615h-2.736a1.6 1.6 0 0 1-1.593-1.6 1.6 1.6 0 0 1 1.593-1.6z" style="fill:#333" transform="translate(-1096.5 -1667.366)"/>
            </g>
            <g data-name="그룹 633590">
                <path data-name="선 2839" transform="translate(86.769 176.132)" style="stroke:#e4e4e4;stroke-width:3px;fill:none;stroke-linecap:round;stroke-linejoin:round" d="M0 0h60"/>
                <path data-name="선 2840" transform="translate(112.982 205.217)" style="stroke:#e4e4e4;stroke-width:3px;fill:none;stroke-linecap:round;stroke-linejoin:round" d="M0 0h60"/>
                <path data-name="선 2841" transform="translate(156.982 176.049)" style="stroke:#e4e4e4;stroke-width:3px;fill:none;stroke-linecap:round;stroke-linejoin:round" d="M0 0h16"/>
                <path data-name="선 2842" transform="translate(86.484 205.217)" style="stroke:#e4e4e4;stroke-width:3px;fill:none;stroke-linecap:round;stroke-linejoin:round" d="M0 0h16"/>
                <path data-name="선 2843" transform="translate(86.769 190.674)" style="stroke:#e4e4e4;stroke-width:3px;fill:none;stroke-linecap:round;stroke-linejoin:round" d="M0 0h39.365"/>
                <path data-name="선 2844" transform="translate(137.241 190.674)" style="stroke:#e4e4e4;stroke-width:3px;fill:none;stroke-linecap:round;stroke-linejoin:round" d="M0 0h35.741"/>
                <path data-name="선 2845" transform="translate(86.769 133.912)" style="stroke:#e4e4e4;stroke-width:3px;fill:none;stroke-linecap:round;stroke-linejoin:round" d="M0 0h60"/>
                <path data-name="선 2846" transform="translate(112.982 162.997)" style="stroke:#e4e4e4;stroke-width:3px;fill:none;stroke-linecap:round;stroke-linejoin:round" d="M0 0h60"/>
                <path data-name="선 2847" transform="translate(156.982 133.829)" style="stroke:#e4e4e4;stroke-width:3px;fill:none;stroke-linecap:round;stroke-linejoin:round" d="M0 0h16"/>
                <path data-name="선 2848" transform="translate(86.484 162.997)" style="stroke:#e4e4e4;stroke-width:3px;fill:none;stroke-linecap:round;stroke-linejoin:round" d="M0 0h16"/>
                <path data-name="선 2849" transform="translate(86.769 148.454)" style="stroke:#e4e4e4;stroke-width:3px;fill:none;stroke-linecap:round;stroke-linejoin:round" d="M0 0h39.365"/>
                <path data-name="선 2850" transform="translate(137.241 148.454)" style="stroke:#e4e4e4;stroke-width:3px;fill:none;stroke-linecap:round;stroke-linejoin:round" d="M0 0h35.741"/>
            </g>
        </g>
    </g>
</svg>
