<svg xmlns="http://www.w3.org/2000/svg" width="444" height="244" viewBox="0 0 444 244">
  <defs>
    <style>
      .cls-1 {
        fill: rgba(255,191,191,0.5);
        opacity: 0;
      }

      .cls-2 {
        fill: #dcf5fb;
      }

      .cls-3 {
        fill: #e4ffe1;
      }

      .cls-4 {
        fill: #fbf0e3;
      }

      .cls-18, .cls-5 {
        fill: none;
      }

      .cls-11, .cls-12, .cls-13, .cls-14, .cls-15, .cls-16, .cls-5, .cls-6, .cls-7, .cls-9 {
        stroke: #222;
      }

      .cls-5, .cls-9 {
        stroke-linecap: round;
      }

      .cls-13, .cls-16, .cls-5, .cls-9 {
        stroke-linejoin: round;
      }

      .cls-13, .cls-14, .cls-15, .cls-16, .cls-5, .cls-6, .cls-7, .cls-9 {
        stroke-width: 3px;
      }

      .cls-11, .cls-16, .cls-6, .cls-9 {
        fill: #fff;
      }

      .cls-7 {
        fill: #7dd3cf;
      }

      .cls-8 {
        fill: #222;
      }

      .cls-10 {
        fill: #f0f2f5;
      }

      .cls-11, .cls-12 {
        stroke-miterlimit: 10;
        stroke-width: 2px;
      }

      .cls-12 {
        fill: #9df4ef;
      }

      .cls-13, .cls-15 {
        fill: #e9f6fd;
      }

      .cls-14 {
        fill: #f2ac58;
      }

      .cls-17 {
        stroke: none;
      }
    </style>
  </defs>
  <g id="SWKDIFDT4500_2" transform="translate(-1024.75 -1191.857)">
    <g id="deco">
      <rect id="BG" class="cls-1" width="444" height="244" transform="translate(1024.75 1191.857)"/>
      <circle id="Ellipse_2" data-name="Ellipse 2" class="cls-2" cx="71.441" cy="71.441" r="71.441" transform="translate(1067.25 1230.75)"/>
      <circle id="Ellipse_2-2" data-name="Ellipse 2" class="cls-3" cx="26.75" cy="26.75" r="26.75" transform="translate(1350.75 1192)"/>
      <circle id="Ellipse_2-3" data-name="Ellipse 2" class="cls-4" cx="18.816" cy="18.816" r="18.816" transform="translate(1427.117 1309)"/>
    </g>
    <g id="img" transform="translate(1044.524 1172.312)">
      <line id="선_198" data-name="선 198" class="cls-5" x2="360" transform="translate(22.726 258.236)"/>
      <g id="그룹_631440" data-name="그룹 631440" transform="translate(1.115 1)">
        <g id="서류봉투" transform="translate(410.911 -118.92) rotate(90)">
          <g id="사각형_462981" data-name="사각형 462981" class="cls-6" transform="translate(230.156 73.27)">
            <rect class="cls-17" width="147" height="183" rx="8"/>
            <rect class="cls-18" x="1.5" y="1.5" width="144" height="180" rx="6.5"/>
          </g>
          <g id="사각형_462982" data-name="사각형 462982" class="cls-7" transform="translate(230.156 73.27)">
            <path class="cls-17" d="M7.5,0h132A7.5,7.5,0,0,1,147,7.5v0A22.5,22.5,0,0,1,124.5,30H22.5A22.5,22.5,0,0,1,0,7.5v0A7.5,7.5,0,0,1,7.5,0Z"/>
            <path class="cls-18" d="M7.552,1.5h131.9A6.052,6.052,0,0,1,145.5,7.552v0A20.948,20.948,0,0,1,124.552,28.5H22.448A20.948,20.948,0,0,1,1.5,7.552v0A6.052,6.052,0,0,1,7.552,1.5Z"/>
          </g>
          <g id="사각형_462983" data-name="사각형 462983" class="cls-7" transform="translate(230.156 226.27)">
            <path class="cls-17" d="M22.5,0h102A22.5,22.5,0,0,1,147,22.5v0a7.5,7.5,0,0,1-7.5,7.5H7.5A7.5,7.5,0,0,1,0,22.5v0A22.5,22.5,0,0,1,22.5,0Z"/>
            <path class="cls-18" d="M22.448,1.5h102.1A20.948,20.948,0,0,1,145.5,22.448v0a6.052,6.052,0,0,1-6.052,6.052H7.552A6.052,6.052,0,0,1,1.5,22.448v0A20.948,20.948,0,0,1,22.448,1.5Z"/>
          </g>
          <rect id="사각형_462984" data-name="사각형 462984" class="cls-8" width="3" height="126" transform="translate(302.156 103.27)"/>
          <g id="타원_1217" data-name="타원 1217" class="cls-6" transform="translate(296.156 81.27)">
            <circle class="cls-17" cx="7.5" cy="7.5" r="7.5"/>
            <circle class="cls-18" cx="7.5" cy="7.5" r="6"/>
          </g>
        </g>
        <g id="매출" transform="translate(136.611 258.415) rotate(-90)">
          <g id="사각형_1134" data-name="사각형 1134" class="cls-9" transform="matrix(0, -1, 1, 0, -0.178, 152)">
            <rect class="cls-17" width="172" height="125" rx="5.392"/>
            <rect class="cls-18" x="1.5" y="1.5" width="169" height="122" rx="3.892"/>
          </g>
          <g id="그룹_631411" data-name="그룹 631411" transform="translate(-0.5)">
            <g id="그룹_631410" data-name="그룹 631410" transform="translate(-5 -71)">
              <rect id="사각형_461403" data-name="사각형 461403" class="cls-10" width="54" height="6" rx="2.266" transform="translate(101.322 78.025) rotate(90)"/>
              <rect id="사각형_463039" data-name="사각형 463039" class="cls-10" width="54" height="6" rx="2.266" transform="translate(87.322 78.025) rotate(90)"/>
              <rect id="사각형_463040" data-name="사각형 463040" class="cls-10" width="54" height="6" rx="2.266" transform="translate(73.322 78.025) rotate(90)"/>
              <rect id="사각형_463041" data-name="사각형 463041" class="cls-10" width="54" height="6" rx="2.266" transform="translate(59.322 78.025) rotate(90)"/>
              <rect id="사각형_463042" data-name="사각형 463042" class="cls-10" width="54" height="6" rx="2.266" transform="translate(45.322 78.025) rotate(90)"/>
              <rect id="사각형_463043" data-name="사각형 463043" class="cls-10" width="54" height="6" rx="2.266" transform="translate(31.322 78.025) rotate(90)"/>
            </g>
            <g id="그룹_631409" data-name="그룹 631409" transform="translate(-47)">
              <rect id="사각형_463044" data-name="사각형 463044" class="cls-10" width="54" height="6" rx="2.266" transform="translate(101.322 76.025) rotate(90)"/>
              <rect id="사각형_463045" data-name="사각형 463045" class="cls-10" width="54" height="6" rx="2.266" transform="translate(87.322 76.025) rotate(90)"/>
              <rect id="사각형_463046" data-name="사각형 463046" class="cls-10" width="54" height="6" rx="2.266" transform="translate(73.322 76.025) rotate(90)"/>
              <g id="그룹_631408" data-name="그룹 631408" transform="translate(38 80.025)">
                <g id="사각형_461816" data-name="사각형 461816" class="cls-11" transform="translate(99.662 14) rotate(90)">
                  <rect class="cls-17" width="8" height="28.34"/>
                  <rect class="cls-18" x="1" y="1" width="6" height="26.34"/>
                </g>
                <g id="사각형_461817" data-name="사각형 461817" class="cls-11" transform="translate(90.322 3) rotate(90)">
                  <rect class="cls-17" width="8" height="19"/>
                  <rect class="cls-18" x="1" y="1" width="6" height="17"/>
                </g>
                <g id="사각형_461818" data-name="사각형 461818" class="cls-12" transform="translate(106.805 25) rotate(90)">
                  <rect class="cls-17" width="8" height="35.482"/>
                  <rect class="cls-18" x="1" y="1" width="6" height="33.482"/>
                </g>
                <g id="사각형_463038" data-name="사각형 463038" class="cls-11" transform="translate(84.322 36) rotate(90)">
                  <rect class="cls-17" width="8" height="13"/>
                  <rect class="cls-18" x="1" y="1" width="6" height="11"/>
                </g>
              </g>
            </g>
          </g>
        </g>
      </g>
      <g id="화장품" transform="translate(1144.226 -8784.058)">
        <g id="그룹_630377" data-name="그룹 630377" transform="translate(-60)">
          <path id="사각형_462440" data-name="사각형 462440" class="cls-6" d="M1,0H25a1,1,0,0,1,1,1V8a5,5,0,0,1-5,5H5A5,5,0,0,1,0,8V1A1,1,0,0,1,1,0Z" transform="translate(-937 9030)"/>
          <path id="패스_9210" data-name="패스 9210" class="cls-13" d="M0,0H41L33,61H7Z" transform="translate(-944 8969)"/>
          <rect id="사각형_462441" data-name="사각형 462441" class="cls-6" width="41" height="9" rx="1" transform="translate(-944 8961)"/>
          <ellipse id="타원_1051" data-name="타원 1051" class="cls-14" cx="7" cy="4" rx="7" ry="4" transform="translate(-930 8981)"/>
        </g>
        <g id="그룹_630376" data-name="그룹 630376" transform="translate(-1 -45)">
          <rect id="사각형_462438" data-name="사각형 462438" class="cls-15" width="53" height="27" rx="3" transform="translate(-1039 9062)"/>
          <rect id="사각형_462439" data-name="사각형 462439" class="cls-6" width="42" height="8" rx="1" transform="translate(-1033 9054)"/>
          <path id="패스_9209" data-name="패스 9209" class="cls-6" d="M-991.725,9053.381a8.536,8.536,0,0,0-8-5.933c-6.571-.391-10.253-2.215-6.407-6.608s-11.246-3.335-18.556,2.779-7.756,9.762-7.756,9.762Z" transform="translate(0 1)"/>
          <circle id="타원_1050" data-name="타원 1050" class="cls-14" cx="6" cy="6" r="6" transform="translate(-1018 9070)"/>
        </g>
        <g id="그룹_630375" data-name="그룹 630375" transform="translate(-1074 8924)">
          <path id="합치기_20" data-name="합치기 20" class="cls-14" d="M12,0A4.986,4.986,0,0,0,7,4.973L.487,55.87a27.059,27.059,0,0,0-.429,3.355L0,59.674H.032Q0,60.333,0,61a27,27,0,1,0,54,0q0-.668-.032-1.327H54l-.058-.45a27.051,27.051,0,0,0-.429-3.354L47,4.973A4.986,4.986,0,0,0,42,0Z" transform="translate(54 120) rotate(180)"/>
          <path id="패스_9208" data-name="패스 9208" class="cls-6" d="M20,0H3A3,3,0,0,0,0,3l-1,8a3,3,0,0,0,3,3H21a3,3,0,0,0,3-3L23,3A3,3,0,0,0,20,0Z" transform="translate(15 20)"/>
          <rect id="사각형_462436" data-name="사각형 462436" class="cls-6" width="13" height="12" transform="translate(20 8)"/>
          <rect id="사각형_462437" data-name="사각형 462437" class="cls-16" width="35" height="9" rx="1" transform="translate(3)"/>
          <g id="사각형_462442" data-name="사각형 462442" class="cls-6" transform="translate(16 54)">
            <rect class="cls-17" width="22" height="12" rx="1"/>
            <rect class="cls-18" x="1.5" y="1.5" width="19" height="9" rx="0.5"/>
          </g>
        </g>
      </g>
    </g>
  </g>
</svg>
