<svg xmlns="http://www.w3.org/2000/svg" xmlns:xlink="http://www.w3.org/1999/xlink" width="444" height="248" viewBox="0 0 444 248">
  <defs>
    <style>
      .cls-1 {
        fill: #3bc9cc;
      }

      .cls-1, .cls-14, .cls-15, .cls-16, .cls-17, .cls-6 {
        stroke: #222;
        stroke-width: 3px;
      }

      .cls-2 {
        fill: rgba(255,191,191,0.5);
        opacity: 0;
      }

      .cls-3 {
        fill: #dcf5fb;
      }

      .cls-4 {
        fill: #fbf0e3;
      }

      .cls-17, .cls-5 {
        fill: #fff;
      }

      .cls-6, .cls-8 {
        fill: none;
      }

      .cls-16, .cls-17, .cls-6 {
        stroke-linecap: round;
        stroke-linejoin: round;
      }

      .cls-7 {
        fill: #f2ac58;
      }

      .cls-9 {
        fill: #222;
      }

      .cls-10, .cls-11 {
        fill: #7dd3cf;
      }

      .cls-12 {
        clip-path: url(#clip-path);
      }

      .cls-13 {
        fill: #fec76f;
      }

      .cls-14 {
        fill: #727272;
      }

      .cls-14, .cls-15 {
        stroke-miterlimit: 10;
      }

      .cls-15 {
        fill: #e5570c;
      }

      .cls-16 {
        fill: #f59f75;
      }

      .cls-18 {
        fill: #fcf28d;
      }

      .cls-19, .cls-20 {
        stroke: none;
      }

      .cls-20 {
        fill: #222;
      }
    </style>
    <clipPath id="clip-path">
      <path id="사각형_463093" data-name="사각형 463093" class="cls-1" d="M24,0h.216a8,8,0,0,1,8,8V32.974a8,8,0,0,1-8,8H8a8,8,0,0,1-8-8V24A24,24,0,0,1,24,0Z" transform="translate(6.232 -4.261)"/>
    </clipPath>
  </defs>
  <g id="SWKDIFDT3100" transform="translate(39 33.282)">
    <g id="deco">
      <rect id="BG" class="cls-2" width="444" height="248" transform="translate(-39 -33.282)"/>
      <circle id="타원_561" data-name="타원 561" class="cls-3" cx="16" cy="16" r="16" transform="translate(349 141.718)"/>
      <circle id="타원_562" data-name="타원 562" class="cls-4" cx="61" cy="61" r="61" transform="translate(-27 -33.282)"/>
    </g>
    <g id="img">
      <g id="car_rent" data-name="car rent" transform="translate(183 24.021)">
        <path id="패스_3263" data-name="패스 3263" class="cls-5" d="M56.557,188.7V4.66A3.067,3.067,0,0,1,59.544,1.5l12.374.079,108.3-.083L200.753,23.94V188.292" transform="translate(-56.557 -1.499)"/>
        <path id="패스_3264" data-name="패스 3264" class="cls-6" d="M56.557,188.7V4.471A2.97,2.97,0,0,1,59.544,1.5l12.374.075,108.3-.078,20.536,21.1V188.7" transform="translate(-56.557 -1.499)"/>
        <line id="선_193" data-name="선 193" class="cls-6" x2="96.447" transform="translate(23.591 135.447)"/>
        <line id="선_194" data-name="선 194" class="cls-6" x2="102.914" transform="translate(23.591 117.031)"/>
        <line id="선_195" data-name="선 195" class="cls-6" x2="63.598" transform="translate(23.591 153.863)"/>
        <path id="패스_3265" data-name="패스 3265" class="cls-6" d="M176.34,2.441l-.013,18.44A3.075,3.075,0,0,0,179.358,24h18.528" transform="translate(-53.789 -1.477)"/>
        <g id="그룹_626274" data-name="그룹 626274" transform="translate(87.189 22.038)">
          <path id="패스_2654" data-name="패스 2654" class="cls-7" d="M315.425,135.464v17.493l-8.727-6.174-8.727,6.174V135.464" transform="translate(-289.276 -101.687)"/>
          <path id="패스_2655" data-name="패스 2655" class="cls-6" d="M315.425,135.464v17.493l-8.727-6.174-8.727,6.174V135.464" transform="translate(-289.276 -101.687)"/>
          <path id="패스_2656" data-name="패스 2656" class="cls-5" d="M307.452,139.485a17.493,17.493,0,1,1,17.455-17.492,17.491,17.491,0,0,1-17.455,17.492" transform="translate(-290 -104.5)"/>
          <path id="패스_2657" data-name="패스 2657" class="cls-6" d="M307.452,139.485a17.493,17.493,0,1,1,17.455-17.492A17.491,17.491,0,0,1,307.452,139.485Z" transform="translate(-290 -104.5)"/>
          <path id="패스_2658" data-name="패스 2658" class="cls-7" d="M306.946,132.878a11.393,11.393,0,1,1,11.369-11.393,11.392,11.392,0,0,1-11.369,11.393" transform="translate(-289.493 -103.992)"/>
          <path id="패스_2659" data-name="패스 2659" class="cls-8" d="M306.946,132.878a11.393,11.393,0,1,1,11.369-11.393A11.392,11.392,0,0,1,306.946,132.878Z" transform="translate(-289.493 -103.992)"/>
        </g>
        <g id="그룹_629945" data-name="그룹 629945" transform="translate(19.287 3.698)">
          <path id="패스_2911" data-name="패스 2911" class="cls-9" d="M160.214,95.235a5.258,5.258,0,0,1-.6,2.57,4.331,4.331,0,0,1-1.693,1.714l2.23,4.486a2,2,0,0,1,.2,1.224,1.355,1.355,0,0,1-.768,1.01,1.721,1.721,0,0,1-.684.194,1.741,1.741,0,0,1-.652-.076,1.519,1.519,0,0,1-.558-.321,1.687,1.687,0,0,1-.4-.527l-2.82-5.281h-3.387v4.309a1.776,1.776,0,0,1-.495,1.314,1.749,1.749,0,0,1-1.293.5,1.712,1.712,0,0,1-1.283-.494,1.785,1.785,0,0,1-.484-1.309V92.432a1.852,1.852,0,0,1,2.063-2.126h5.3a6.657,6.657,0,0,1,2.188.344,4.8,4.8,0,0,1,1.684.975,4.275,4.275,0,0,1,1.073,1.542,5.343,5.343,0,0,1,.378,2.068m-9.13,2.157h3.03a3.3,3.3,0,0,0,1.914-.5,1.876,1.876,0,0,0,.715-1.66,1.8,1.8,0,0,0-.7-1.63,3.468,3.468,0,0,0-1.925-.465h-3.03Z" transform="translate(-114.754 -66.306)"/>
          <path id="패스_2912" data-name="패스 2912" class="cls-9" d="M165.4,90.205a2.226,2.226,0,0,1,1.326.377,2.332,2.332,0,0,1,.8,1.04l5.05,12.5a1.556,1.556,0,0,1,0,1.32,1.641,1.641,0,0,1-1.032.848,1.555,1.555,0,0,1-1.314-.108,2.077,2.077,0,0,1-.894-1.1l-.947-2.533h-6l-.925,2.533a2.083,2.083,0,0,1-.894,1.1,1.766,1.766,0,0,1-2.356-.74,1.577,1.577,0,0,1,.01-1.32l5.05-12.5a2.315,2.315,0,0,1,.8-1.04,2.221,2.221,0,0,1,1.326-.377m-1.894,9.34h3.786l-1.85-5h-.085Z" transform="translate(-141.869 -66.205)"/>
          <path id="패스_2920" data-name="패스 2920" class="cls-9" d="M170.587,92.717a3.021,3.021,0,0,1,.495-1.868,2.007,2.007,0,0,1,1.693-.644,2.642,2.642,0,0,1,1.284.269,2.345,2.345,0,0,1,.841.848l5.45,9.769h.063v-9.04a1.911,1.911,0,0,1,.463-1.331,1.8,1.8,0,0,1,2.525,0,1.917,1.917,0,0,1,.462,1.331v11.9a3.046,3.046,0,0,1-.452,1.792,1.822,1.822,0,0,1-1.589.634,3.173,3.173,0,0,1-1.368-.269,2.229,2.229,0,0,1-.947-.891l-5.406-9.3h-.064v8.611a1.913,1.913,0,0,1-.462,1.331,1.8,1.8,0,0,1-2.525,0,1.919,1.919,0,0,1-.462-1.331Z" transform="translate(-141.254 -36.893)"/>
          <path id="패스_2914" data-name="패스 2914" class="cls-9" d="M182.28,98.322a10.1,10.1,0,0,1,.495-3.178,7.558,7.558,0,0,1,1.473-2.63,7.065,7.065,0,0,1,2.419-1.793A7.868,7.868,0,0,1,190,90.054a7.5,7.5,0,0,1,3.64.8,6.458,6.458,0,0,1,2.273,1.965,2.049,2.049,0,0,1,.379,1.244,1.374,1.374,0,0,1-.527,1.075,1.786,1.786,0,0,1-.568.29,1.673,1.673,0,0,1-.652.064,1.749,1.749,0,0,1-.662-.2,1.7,1.7,0,0,1-.578-.516,4.557,4.557,0,0,0-1.4-1.2,3.914,3.914,0,0,0-1.9-.43,4.027,4.027,0,0,0-1.6.322,3.6,3.6,0,0,0-1.326.977,4.94,4.94,0,0,0-.906,1.621,6.862,6.862,0,0,0-.336,2.254,6.956,6.956,0,0,0,.336,2.266,4.776,4.776,0,0,0,.906,1.621,3.741,3.741,0,0,0,1.326.977,3.908,3.908,0,0,0,1.6.334,4.74,4.74,0,0,0,1.967-.376,3.842,3.842,0,0,0,1.42-1.106,2.633,2.633,0,0,1,1.21-.9,1.359,1.359,0,0,1,1.294.192,1.326,1.326,0,0,1,.674,1.127,2.439,2.439,0,0,1-.463,1.364,6.285,6.285,0,0,1-2.3,1.986,7.981,7.981,0,0,1-3.8.806,7.888,7.888,0,0,1-3.335-.666,7.1,7.1,0,0,1-2.419-1.792,7.558,7.558,0,0,1-1.473-2.643,10.207,10.207,0,0,1-.495-3.189" transform="translate(-182.28 -66.054)"/>
          <path id="패스_2918" data-name="패스 2918" class="cls-9" d="M224.876,106.214a1.851,1.851,0,0,1-2.063-2.125V92.432a1.852,1.852,0,0,1,2.063-2.126h7.364a2.415,2.415,0,0,1,1.295.312,1.533,1.533,0,0,1,0,2.253,2.393,2.393,0,0,1-1.295.312h-5.871v3.435h5.492a2.016,2.016,0,0,1,1.21.342,1.5,1.5,0,0,1,0,2.191,2.016,2.016,0,0,1-1.21.344h-5.492v3.841h6.123a2.457,2.457,0,0,1,1.293.3,1.2,1.2,0,0,1,.495,1.117,1.253,1.253,0,0,1-.495,1.137,2.33,2.33,0,0,1-1.293.322Z" transform="translate(-207.333 -36.863)"/>
          <path id="패스_8640" data-name="패스 8640" class="cls-9" d="M160.214,95.235a5.258,5.258,0,0,1-.6,2.57,4.331,4.331,0,0,1-1.693,1.714l2.23,4.486a2,2,0,0,1,.2,1.224,1.355,1.355,0,0,1-.768,1.01,1.721,1.721,0,0,1-.684.194,1.741,1.741,0,0,1-.652-.076,1.519,1.519,0,0,1-.558-.321,1.687,1.687,0,0,1-.4-.527l-2.82-5.281h-3.387v4.309a1.776,1.776,0,0,1-.495,1.314,1.749,1.749,0,0,1-1.293.5,1.712,1.712,0,0,1-1.283-.494,1.785,1.785,0,0,1-.484-1.309V92.432a1.852,1.852,0,0,1,2.063-2.126h5.3a6.657,6.657,0,0,1,2.188.344,4.8,4.8,0,0,1,1.684.975,4.275,4.275,0,0,1,1.073,1.542,5.343,5.343,0,0,1,.378,2.068m-9.13,2.157h3.03a3.3,3.3,0,0,0,1.914-.5,1.876,1.876,0,0,0,.715-1.66,1.8,1.8,0,0,0-.7-1.63,3.468,3.468,0,0,0-1.925-.465h-3.03Z" transform="translate(-147.28 -36.863)"/>
          <g id="그룹_629946" data-name="그룹 629946" transform="translate(44.607 53.313)">
            <path id="패스_2916" data-name="패스 2916" class="cls-9" d="M207.022,92.008a1.785,1.785,0,0,1,.484-1.309,1.716,1.716,0,0,1,1.283-.494,1.7,1.7,0,0,1,1.788,1.8v12.561a1.766,1.766,0,0,1-.495,1.309,1.743,1.743,0,0,1-1.293.494,1.707,1.707,0,0,1-1.283-.494,1.786,1.786,0,0,1-.484-1.309Z" transform="translate(-202.161 -90.075)"/>
            <path id="패스_8641" data-name="패스 8641" class="cls-9" d="M0,1.481A1.33,1.33,0,0,1,.484.406,1.933,1.933,0,0,1,1.768,0,1.977,1.977,0,0,1,3.061.406a1.32,1.32,0,0,1,.495,1.075V11.8a1.319,1.319,0,0,1-.495,1.075,1.965,1.965,0,0,1-1.293.406,1.922,1.922,0,0,1-1.283-.406A1.33,1.33,0,0,1,0,11.8Z" transform="translate(13.276 0) rotate(90)"/>
          </g>
        </g>
      </g>
      <g id="자동차" transform="translate(28.768 111.823)">
        <g id="car" transform="translate(-13.211 45.255)">
          <g id="합치기_44" data-name="합치기 44" class="cls-10" transform="translate(4.232 -61.624)">
            <path class="cls-19" d="M 186.2153930664062 96.83760070800781 L 8.000100135803223 96.83760070800781 C 4.415925025939941 96.83760070800781 1.500000238418579 93.92167663574219 1.500000238418579 90.33750152587891 L 1.500000238418579 81.364501953125 C 1.500000238418579 78.32627868652344 2.094675302505493 75.37972259521484 3.267525196075439 72.60672760009766 C 4.400675296783447 69.92759704589844 6.023200035095215 67.52117919921875 8.090000152587891 65.45429992675781 C 10.15680027008057 63.387451171875 12.56315040588379 61.76490020751953 15.24217510223389 60.6317253112793 C 18.0150260925293 59.4588737487793 20.96137428283691 58.86420059204102 23.9994010925293 58.86420059204102 L 36.41334915161133 58.86420059204102 L 37.60032653808594 58.86420059204102 L 37.87317657470703 57.70899963378906 C 39.74964904785156 49.76437377929688 42.93360137939453 42.2358512878418 47.33655166625977 35.33257675170898 C 51.66237640380859 28.55025100708008 57.04312515258789 22.55707550048828 63.32932662963867 17.51955032348633 C 69.67254638671875 12.43635082244873 76.75205230712891 8.476900100708008 84.37117767333984 5.751175403594971 C 92.25469970703125 2.930900573730469 100.5376739501953 1.500900506973267 108.9899978637695 1.500900506973267 L 120.4623031616211 1.500900506973267 C 130.3278198242188 1.500900506973267 139.8974304199219 3.432725429534912 148.9052734375 7.242700576782227 C 153.2348480224609 9.073925018310547 157.4108276367188 11.34055042266846 161.3172302246094 13.97965049743652 C 165.1868743896484 16.59392547607422 168.8258056640625 19.59627532958984 172.1328735351562 22.9033260345459 C 175.4399566650391 26.21037483215332 178.4423217773438 29.84925079345703 181.0565948486328 33.71887588500977 C 183.6956939697266 37.62522506713867 185.9623565673828 41.80115127563477 187.7935943603516 46.13064956665039 C 191.6035766601562 55.13837432861328 193.535400390625 64.70780181884766 193.535400390625 74.57309722900391 C 193.535400390625 76.77259826660156 193.2463684082031 80.06472778320312 193.0718536376953 81.85199737548828 L 192.7154998779297 81.87122344970703 L 192.7154998779297 83.29247283935547 L 192.7154998779297 90.33750152587891 C 192.7154998779297 93.92167663574219 189.7995758056641 96.83760070800781 186.2153930664062 96.83760070800781 Z"/>
            <path class="cls-20" d="M 186.2154235839844 95.33760833740234 C 188.9724731445312 95.33760833740234 191.2154998779297 93.09458160400391 191.2154998779297 90.33750152587891 L 191.2154998779297 80.45005798339844 L 191.69873046875 80.42397308349609 C 191.8579864501953 78.63437652587891 192.035400390625 76.26179504394531 192.035400390625 74.57311248779297 C 192.035400390625 64.90963745117188 190.1434478759766 55.53680419921875 186.4120941162109 46.71497344970703 C 184.6185913085938 42.47466659545898 182.3985595703125 38.38466644287109 179.8136749267578 34.5585823059082 C 177.2528381347656 30.76805686950684 174.3117828369141 27.20352745056152 171.0722351074219 23.9639720916748 C 167.8326416015625 20.72444534301758 164.2680816650391 17.78341674804688 160.4775390625 15.22258377075195 C 156.6513977050781 12.63772296905518 152.5613403320312 10.41769504547119 148.3209838867188 8.624195098876953 C 139.4990081787109 4.892833709716797 130.1259765625 3.000889301300049 120.4623107910156 3.000889301300049 L 108.9900054931641 3.000889301300049 C 100.7103652954102 3.000889301300049 92.59736633300781 4.401389598846436 84.87644958496094 7.163528442382812 C 77.41431427001953 9.833056449890137 70.48042297363281 13.71113967895508 64.26734161376953 18.69005584716797 C 58.10945129394531 23.6247501373291 52.83861541748047 29.4955005645752 48.60122680664062 36.13919448852539 C 44.28897857666016 42.90022277832031 41.17070007324219 50.27336120605469 39.33300399780273 58.05380630493164 L 38.78731155395508 60.36419677734375 L 23.9993953704834 60.36419677734375 C 21.16322708129883 60.36419677734375 18.41347885131836 60.91899871826172 15.82653331756592 62.01322174072266 C 13.32628345489502 63.07077789306641 11.08022785186768 64.58536529541016 9.150700569152832 66.51494598388672 C 7.221144676208496 68.44452667236328 5.706589221954346 70.69069671630859 4.64906120300293 73.19105529785156 C 3.554811239242554 75.77816772460938 3.000005722045898 78.52811431884766 3.000005722045898 81.364501953125 L 3.000005722045898 90.33750152587891 C 3.000005722045898 93.09458160400391 5.243033409118652 95.33760833740234 8.000088691711426 95.33760833740234 L 186.2154235839844 95.33760833740234 M 186.2154235839844 98.33760833740234 L 8.000088691711426 98.33760833740234 C 3.581116914749146 98.33760833740234 5.750868240284035e-06 94.75650024414062 5.750868240284035e-06 90.33750152587891 L 5.750868240284035e-06 81.364501953125 C 5.750868240284035e-06 68.10930633544922 10.7451171875 57.36419677734375 23.9993953704834 57.36419677734375 L 36.41333770751953 57.36419677734375 C 44.18161773681641 24.47477912902832 73.72744750976562 0.0008893771446309984 108.9900054931641 0.0008893771446309984 L 120.4623107910156 0.0008893771446309984 C 161.6481170654297 0.0008893771446309984 195.035400390625 33.3881950378418 195.035400390625 74.57311248779297 C 195.035400390625 77.82661437988281 194.4333038330078 83.28060913085938 194.4333038330078 83.28060913085938 C 194.4333038330078 83.28060913085938 194.3595886230469 83.28469848632812 194.2154998779297 83.29247283935547 L 194.2154998779297 90.33750152587891 C 194.2154998779297 94.75650024414062 190.6334991455078 98.33760833740234 186.2154235839844 98.33760833740234 Z"/>
          </g>
          <g id="그룹_631494" data-name="그룹 631494" transform="translate(53.856 -52.609)">
            <path id="빼기_4" data-name="빼기 4" class="cls-5" d="M129.384,41.175H0A64.08,64.08,0,0,1,59.912,0h9.562a64.224,64.224,0,0,1,59.909,41.175Z" transform="translate(0 2.257)"/>
            <rect id="사각형_463089" data-name="사각형 463089" class="cls-11" width="11.473" height="48.349" transform="translate(59.366)"/>
          </g>
          <g id="마스크_그룹_626224" data-name="마스크 그룹 626224" class="cls-12">
            <g id="패스_11675" data-name="패스 11675" class="cls-13" transform="translate(6.232 9.671)">
              <path class="cls-19" d="M 8.750556945800781 10.79213619232178 L -0.4485940635204315 10.79213619232178 L 0.6878468990325928 3.753496170043945 L 0.7070268988609314 3.634716272354126 L 0.7070268988609314 3.514406204223633 C 0.7070268988609314 2.361476182937622 2.445556879043579 1.499996185302734 3.999996900558472 1.499996185302734 L 8.750556945800781 1.499996185302734 C 11.23186683654785 1.499996185302734 13.25055694580078 3.518686294555664 13.25055694580078 5.999996185302734 L 13.25055694580078 6.292136192321777 C 13.25055694580078 8.773446083068848 11.23186683654785 10.79213619232178 8.750556945800781 10.79213619232178 Z"/>
              <path class="cls-20" d="M 3.999997138977051 2.999996185302734 C 3.172125816345215 2.999996185302734 2.415339469909668 3.369656562805176 2.207026481628418 3.604329109191895 L 2.207026481628418 3.755036354064941 L 1.31302547454834 9.292136192321777 L 8.750556945800781 9.292136192321777 C 10.40476703643799 9.292136192321777 11.75055694580078 7.946346282958984 11.75055694580078 6.292136192321777 L 11.75055694580078 5.999996185302734 C 11.75055694580078 4.345786094665527 10.40476703643799 2.999996185302734 8.750556945800781 2.999996185302734 L 3.999997138977051 2.999996185302734 M 3.999997138977051 -3.814697265625e-06 L 8.750556945800781 -3.814697265625e-06 C 12.0642671585083 -3.814697265625e-06 14.75055694580078 2.686296463012695 14.75055694580078 5.999996185302734 L 14.75055694580078 6.292136192321777 C 14.75055694580078 9.605835914611816 12.0642671585083 12.29213619232178 8.750556945800781 12.29213619232178 L -2.210203170776367 12.29213619232178 L -0.792973518371582 3.514406204223633 C -0.792973518371582 1.305266380310059 1.790857315063477 -3.814697265625e-06 3.999997138977051 -3.814697265625e-06 Z"/>
            </g>
          </g>
          <g id="그룹_631497" data-name="그룹 631497" transform="translate(40.698 7.622)">
            <circle id="타원_596" data-name="타원 596" class="cls-14" cx="23.792" cy="23.792" r="23.792"/>
            <circle id="타원_597" data-name="타원 597" class="cls-5" cx="9.595" cy="9.595" r="9.595" transform="translate(13.931 13.931)"/>
          </g>
          <g id="그룹_631498" data-name="그룹 631498" transform="translate(133.853 7.622)">
            <circle id="타원_596-2" data-name="타원 596" class="cls-14" cx="23.792" cy="23.792" r="23.792" transform="translate(0)"/>
            <circle id="타원_597-2" data-name="타원 597" class="cls-5" cx="9.595" cy="9.595" r="9.595" transform="translate(14.197 13.931)"/>
          </g>
          <g id="사각형_463091" data-name="사각형 463091" class="cls-15" transform="translate(190.253 7.622)">
            <path class="cls-19" d="M6,0H9.014a0,0,0,0,1,0,0V16.39a0,0,0,0,1,0,0H6a6,6,0,0,1-6-6V6A6,6,0,0,1,6,0Z"/>
            <path class="cls-8" d="M6,1.5H7.514a0,0,0,0,1,0,0V14.89a0,0,0,0,1,0,0H6a4.5,4.5,0,0,1-4.5-4.5V6A4.5,4.5,0,0,1,6,1.5Z"/>
          </g>
        </g>
        <g id="태그" transform="matrix(0.891, -0.454, 0.454, 0.891, 123.829, -13.836)">
          <path id="패스_5735" data-name="패스 5735" class="cls-16" d="M.387.388,0,22.69,30.085,52.858l22.627-22.69L22.627,0Z" transform="translate(0 20.1)"/>
          <ellipse id="타원_675" data-name="타원 675" class="cls-17" cx="3.5" cy="3.51" rx="3.5" ry="3.51" transform="translate(7.575 27.137)"/>
          <path id="패스_5736" data-name="패스 5736" class="cls-6" d="M0,1.926a15.279,15.279,0,0,1,22.7,13.4A15.3,15.3,0,0,1,7.424,30.646" transform="translate(3.651)"/>
        </g>
        <g id="동전" transform="translate(-226.398 -227.182)">
          <circle id="타원_82" data-name="타원 82" class="cls-17" cx="32" cy="32" r="32" transform="translate(299.227 135.291)"/>
          <circle id="타원_83" data-name="타원 83" class="cls-18" cx="24.452" cy="24.452" r="24.452" transform="translate(307.161 142.753)"/>
          <g id="그룹_972" data-name="그룹 972" transform="translate(317.586 161.396)">
            <path id="패스_1660" data-name="패스 1660" class="cls-6" d="M331.491,176.659l4.988,13.078a1.168,1.168,0,0,0,2.216-.1l3.613-12.679a1.169,1.169,0,0,1,2.242-.021l3.852,12.617a1.169,1.169,0,0,0,2.224.036l4.405-12.935" transform="translate(-329.236 -176.114)"/>
            <line id="선_394" data-name="선 394" class="cls-6" x2="28.05" transform="translate(0 6.577)"/>
          </g>
        </g>
      </g>
      <line id="선_223" data-name="선 223" class="cls-6" x2="364" transform="translate(1 213.03)"/>
    </g>
  </g>
</svg>
