<svg xmlns="http://www.w3.org/2000/svg" width="444" height="217" viewBox="0 0 444 217">
    <g transform="translate(-622 -2040)">
        <circle data-name="Ellipse 2" cx="48" cy="48" r="48" transform="translate(659 2040)" style="fill:#fbf0e3"/>
        <circle data-name="Ellipse 2" cx="16.75" cy="16.75" r="16.75" transform="translate(1016 2184)" style="fill:#e3e6fb"/>
        <circle data-name="Ellipse 2" cx="15.438" cy="15.438" r="15.438" transform="translate(648.563 2148.5)" style="fill:#e4ffe1"/>
    </g>
    <g data-name="그룹 631529">
        <path data-name="패스 10790" d="m1384.75 2526.572-12.983 8.691-12.982-8.691-12.983 8.691-12.982-8.691-12.983 8.691-12.984-8.691-18.911 12.66v92.609h115.721v-92.609z" style="fill:#fff" transform="translate(-1059.866 -2427.355)"/>
        <path data-name="패스 10792" d="M1327.871 2592.885h35.863v38.958h-35.863z" style="fill:#fff" transform="translate(-1059.866 -2427.355)"/>
        <path data-name="패스 10793" d="M1403.663 2631.841v-92.609l-18.913-12.66-12.983 8.691-12.982-8.691-12.983 8.691-12.982-8.691-4.949 3.313" style="stroke-width:3.006px;stroke:#222;stroke-linecap:round;stroke-linejoin:round;fill:none" transform="translate(-1059.866 -2427.355)"/>
        <path data-name="패스 10794" d="m1331.875 2527.248-12.038 8.015-12.984-8.691-18.911 12.66v92.609" style="stroke-width:3.006px;stroke:#222;stroke-linecap:round;stroke-linejoin:round;fill:none" transform="translate(-1059.866 -2427.355)"/>
        <path data-name="패스 10795" d="m1305.068 2434.862-15.4 76.161 21.043-8.63 11 11.11 14.445-5.924 11 11.11 14.445-5.925 11 11.11 14.444-5.924 16.026 16.183 15.395-76.161z" style="fill:#fff" transform="translate(-1059.866 -2427.355)"/>
        <path data-name="패스 10797" d="m1297 2508.018 13.719-5.626 11 11.11 14.445-5.924 11 11.11 14.445-5.925 11 11.11 14.444-5.924 16.026 16.183 15.395-76.161-113.408-23.11-15.4 76.161 7.324-3" style="stroke-width:3.006px;stroke:#222;stroke-linecap:round;stroke-linejoin:round;fill:none" transform="translate(-1059.866 -2427.355)"/>
        <g data-name="그룹 631528">
            <path data-name="패스 10798" d="m1347.516 2487.014 3.7-18.323 11.62 2.368-3.7 18.325z" style="fill:#afdae9;stroke-width:3.006px;stroke:#222;stroke-linecap:round;stroke-linejoin:round" transform="translate(-1059.866 -2427.355)"/>
            <path data-name="패스 10799" d="m1368.576 2491.3 3.7-18.323 11.621 2.368-3.7 18.325z" style="fill:#afdae9;stroke-width:3.006px;stroke:#222;stroke-linecap:round;stroke-linejoin:round" transform="translate(-1059.866 -2427.355)"/>
            <path data-name="패스 10800" d="m1326.454 2482.719 3.7-18.323 11.621 2.367-3.705 18.325z" style="fill:#afdae9;stroke-width:3.006px;stroke:#222;stroke-linecap:round;stroke-linejoin:round" transform="translate(-1059.866 -2427.355)"/>
            <path data-name="패스 10801" d="M1339.873 2555.108h11.859v18.7h-11.859z" style="fill:#afdae9;stroke-width:3.006px;stroke:#222;stroke-linecap:round;stroke-linejoin:round" transform="translate(-1059.866 -2427.355)"/>
            <path data-name="패스 10802" d="M1361.362 2555.108h11.858v18.7h-11.858z" style="fill:#afdae9;stroke-width:3.006px;stroke:#222;stroke-linecap:round;stroke-linejoin:round" transform="translate(-1059.866 -2427.355)"/>
            <path data-name="패스 10803" d="M1318.384 2555.108h11.859v18.7h-11.859z" style="fill:#afdae9;stroke-width:3.006px;stroke:#222;stroke-linecap:round;stroke-linejoin:round" transform="translate(-1059.866 -2427.355)"/>
        </g>
        <path data-name="패스 10804" d="M1327.871 2631.843v-38.958h35.863v38.958" style="stroke-width:3.006px;stroke:#222;stroke-linecap:round;stroke-linejoin:round;fill:none" transform="translate(-1059.866 -2427.355)"/>
        <path data-name="선 1937" transform="translate(285.936 166.346)" style="stroke-width:3.012px;stroke:#222;stroke-linecap:round;stroke-linejoin:round;fill:none" d="M0 0v38.14"/>
    </g>
    <path data-name="선 1938" transform="translate(42.5 204.487)" style="stroke-width:3px;stroke:#222;stroke-linecap:round;stroke-linejoin:round;fill:none" d="M0 0h360"/>
    <path data-name="사각형 463108" transform="rotate(5.13 -891.186 2227.615) skewX(.06)" style="fill:#e6e6e6" d="M0 0h18.798v14.432H0z"/>
    <path data-name="사각형 463109" transform="rotate(30 -4.102 423.497)" style="fill:#e6e6e6" d="M0 0h10.981v11.025H0z"/>
    <g data-name="그룹 632038">
        <path data-name="패스 11663" d="M328.585 158.7a63.96 63.96 0 0 0-63.913 64v14.77H392.5V222.7a63.96 63.96 0 0 0-63.915-64z" style="fill:#fcf28d" transform="translate(-154.943 -40.71)"/>
        <path data-name="패스 11664" d="M394.957 237.474h-95.871a2.46 2.46 0 0 1-2.458-2.462V222.7a86.325 86.325 0 0 1 5.939-32 1.538 1.538 0 0 1 2.935.333l5.172 30.041a4.919 4.919 0 0 0 4.845 4.088h26.132a4.919 4.919 0 0 0 4.845-4.088l9.664-56.129a63.827 63.827 0 0 0-53.962-.531v-.007c-.048.022-1.177.587-1.177.587a63.973 63.973 0 0 0-36.347 57.7v14.77h-2.459a2.46 2.46 0 0 0-2.458 2.462v3.139a2.455 2.455 0 0 0 1.675 2.347c17.583 5.756 41.188 9.285 67.155 9.285s49.572-3.529 67.154-9.285a2.455 2.455 0 0 0 1.676-2.347v-3.139a2.46 2.46 0 0 0-2.46-2.452z" style="fill:#fcf28d" transform="translate(-154.943 -40.71)"/>
        <path data-name="패스 11665" d="M328.585 158.7a63.96 63.96 0 0 0-63.913 64v14.77H392.5V222.7a63.96 63.96 0 0 0-63.915-64z" style="stroke-width:3.002px;stroke:#222;stroke-linecap:round;stroke-linejoin:round;fill:none" transform="translate(-154.943 -40.71)"/>
        <path data-name="패스 11666" d="M333.668 225.165H323.5a4.919 4.919 0 0 1-4.913-4.754l-2.119-61.543a4.92 4.92 0 0 1 4.913-5.093h14.4a4.921 4.921 0 0 1 4.914 5.093l-2.12 61.543a4.918 4.918 0 0 1-4.907 4.754z" style="fill:#fcf28d" transform="translate(-154.943 -40.71)"/>
        <g data-name="그룹 632037">
            <path data-name="패스 11667" d="M395.739 240.688c-17.582 4.112-41.187 6.633-67.154 6.633s-49.572-2.521-67.154-6.633a2.1 2.1 0 0 1-1.579-1.233 2.333 2.333 0 0 0-.1.48v3.139a2.453 2.453 0 0 0 1.676 2.346c17.582 5.757 41.187 9.286 67.154 9.286s49.572-3.529 67.154-9.285a2.455 2.455 0 0 0 1.676-2.347v-3.139a2.4 2.4 0 0 0-.1-.48 2.107 2.107 0 0 1-1.573 1.233z" style="fill:#fcf28d" transform="translate(-154.943 -40.71)"/>
            <path data-name="패스 11668" d="m325.175 220.411-1.5-61.543c-.068-2.784 1.514-5.093 3.489-5.093h-5.776a4.921 4.921 0 0 0-4.914 5.093l2.119 61.543a4.92 4.92 0 0 0 4.914 4.754h5.162c-1.886 0-3.429-2.102-3.494-4.754z" style="fill:#fcf28d" transform="translate(-154.943 -40.71)"/>
        </g>
        <path data-name="패스 11669" d="M333.668 225.165H323.5a4.919 4.919 0 0 1-4.913-4.754l-2.119-61.543a4.92 4.92 0 0 1 4.913-5.093h14.4a4.921 4.921 0 0 1 4.914 5.093l-2.12 61.543a4.918 4.918 0 0 1-4.907 4.754z" style="stroke-width:3.002px;stroke:#222;stroke-linecap:round;stroke-linejoin:round;fill:none" transform="translate(-154.943 -40.71)"/>
        <path data-name="패스 11670" d="M264.672 237.474h-2.459a2.46 2.46 0 0 0-2.458 2.462v3.139a2.455 2.455 0 0 0 1.675 2.347c17.583 5.756 41.188 9.285 67.155 9.285s49.572-3.529 67.154-9.285a2.455 2.455 0 0 0 1.676-2.347v-3.139a2.46 2.46 0 0 0-2.458-2.462h-3.537" style="stroke-width:3.002px;stroke:#222;stroke-linecap:round;stroke-linejoin:round;fill:none" transform="translate(-154.943 -40.71)"/>
        <path data-name="선 2140" transform="translate(193.362 125.116)" style="stroke-width:3.002px;stroke:#222;stroke-linecap:round;stroke-linejoin:round;fill:none" d="M7.493 0 0 43.521"/>
        <path data-name="선 2141" transform="translate(146.834 125.116)" style="stroke-width:3.002px;stroke:#222;stroke-linecap:round;stroke-linejoin:round;fill:none" d="M7.493 43.521 0 0"/>
    </g>
</svg>
