<svg xmlns="http://www.w3.org/2000/svg" width="444" height="221" viewBox="0 0 444 221">
    <g transform="translate(39 21.281)">
        <circle data-name="Ellipse 2" cx="57.501" cy="57.501" r="57.501" transform="translate(223.779 8.42)" style="fill:#dcf5fb"/>
        <circle data-name="Ellipse 2" cx="19.75" cy="19.75" r="19.75" transform="translate(338.247 114.797)" style="fill:#e3e6fb"/>
        <circle data-name="Ellipse 2" cx="36.501" cy="36.501" r="36.501" transform="translate(21.779 -21.281)" style="fill:#fbf0e3"/>
    </g>
    <g data-name="그룹 634200">
        <path data-name="패스 3406" d="M24.778 138.091a13.989 13.989 0 0 1-13.072-18.942.2.2 0 0 0-.011-.17 15.019 15.019 0 0 1 2.705-18.222.156.156 0 0 0 .04-.146 10.655 10.655 0 0 1 3.06-10.279 10.562 10.562 0 0 1 7.964-2.867 10.645 10.645 0 0 1 9.668 13.156.149.149 0 0 0 .044.137 15.019 15.019 0 0 1 2.708 18.221.21.21 0 0 0-.008.178 14 14 0 0 1-11.814 18.876q-.647.058-1.284.058z" transform="translate(303.293 70.002)" style="stroke-width:3px;stroke-miterlimit:10;stroke:#222;fill:#afece9"/>
        <path data-name="선 264" transform="translate(328.315 178.988)" style="stroke-linecap:round;stroke-linejoin:round;fill:none;stroke-width:3px;stroke:#222" d="M0 0v40.161"/>
        <path data-name="선 265" transform="translate(328.08 178.849)" style="stroke-linecap:round;stroke-linejoin:round;fill:none;stroke-width:3px;stroke:#222" d="M6.545 0 0 10.719"/>
        <path data-name="선 266" transform="translate(321.136 186.893)" style="stroke-linecap:round;stroke-linejoin:round;fill:none;stroke-width:3px;stroke:#222" d="M6.56 10.71 0 0"/>
        <g data-name="나무">
            <path data-name="패스 3405" d="M57.734 148.525a10.116 10.116 0 0 1-1.156-.066 9.965 9.965 0 0 1-6.619-16.11 2.363 2.363 0 0 0 .548-1.791 7.176 7.176 0 0 1-.068-.986 7.318 7.318 0 0 1 14.453-1.633 7.392 7.392 0 0 1 .12 2.587 2.37 2.37 0 0 0 .527 1.8 9.965 9.965 0 0 1-7.8 16.195z" transform="translate(303.773 64.339)" style="fill:#47bcbf;stroke-width:3px;stroke-miterlimit:10;stroke:#222"/>
            <path data-name="선 263" transform="translate(361.778 213.314)" style="stroke-linecap:round;stroke-linejoin:round;fill:none;stroke-width:3px;stroke:#222" d="M0 5.857V0"/>
        </g>
    </g>
    <path data-name="선 223" transform="translate(42.5 219.198)" style="stroke-linecap:round;stroke-linejoin:round;fill:none;stroke-width:3px;stroke:#222" d="M0 0h360"/>
    <g data-name="그룹 323">
        <path data-name="패스 590" d="M186.5 206.453v-89.6a1.321 1.321 0 0 1 1.392-1.235l73.208-71.21 73.636 71.211a1.321 1.321 0 0 1 1.392 1.235v89.6" transform="translate(-38.995 11.062)" style="stroke-width:3.004px;fill:#fff;stroke-linecap:round;stroke-linejoin:round;stroke:#222"/>
        <g data-name="그룹 632813">
            <path data-name="패스 1621" d="M190.95 324.8v-67.634h-40.31V324.8" transform="translate(76.955 -106.811)" style="fill:#e9f6fd;stroke-linecap:round;stroke-linejoin:round;stroke-width:3px;stroke:#222"/>
        </g>
    </g>
    <g data-name="그룹 631460">
        <g data-name="합치기 41" style="fill:#f2ac58">
            <path d="M13.384 85.005 2.09 68.875 97.935 1.83l42.138 29.354 2.358 1.642V10.403h19.693v36.14l.642.448 31.423 21.887-11.293 16.127L99 26.26l-.86-.603-.86.603-83.896 58.744z" style="stroke:none" transform="translate(124 51.942)"/>
            <path d="M97.937 3.659 4.179 69.245l9.573 13.67L98.14 23.828l84.388 59.089 9.57-13.666-31.474-21.924V11.903H143.93v23.795L97.937 3.658M97.933 0l42.998 29.952V8.903h22.693V45.76l32.656 22.747-13.016 18.587L98.14 27.489 13.016 87.094 0 68.507 97.933 0z" style="fill:#222;stroke:none" transform="translate(124 51.942)"/>
        </g>
    </g>
    <g>
        <path data-name="사각형 461227" transform="translate(69.976 122.193)" style="stroke-width:3.002px;fill:#fff;stroke-linecap:round;stroke-linejoin:round;stroke:#222" d="M0 0h128.175v67.538H0z"/>
        <g data-name="그룹 626888">
            <path data-name="패스 5248" d="M341.825 94.6V74.34a10.127 10.127 0 0 1-10.119-10.13h-80.953a10.127 10.127 0 0 1-10.119 10.13V94.6a10.128 10.128 0 0 1 10.119 10.131h80.952a10.128 10.128 0 0 1 10.12-10.131z" transform="translate(-157.166 71.491)" style="fill:#fcf28d;stroke-width:3.002px;stroke-linecap:round;stroke-linejoin:round;stroke:#222"/>
        </g>
        <g data-name="그룹 626890" transform="translate(122.078 142.386)">
            <ellipse data-name="타원 650" cx="13.694" cy="13.71" rx="13.694" ry="13.71" style="stroke-width:3.002px;fill:#fff;stroke-miterlimit:10;stroke:#222"/>
            <g data-name="그룹 626889">
                <path data-name="패스 5249" d="m289.863 82.978 2.783 7.305a.652.652 0 0 0 1.237-.053l2.016-7.083a.652.652 0 0 1 1.251-.011l2.149 7.048a.652.652 0 0 0 1.241.02l2.46-7.226" transform="translate(-282.736 -72.206)" style="stroke-width:2.001px;stroke-linecap:round;stroke-linejoin:round;fill:none;stroke:#222"/>
                <path data-name="선 444" transform="translate(5.869 14.141)" style="stroke-width:2px;stroke-linecap:round;stroke-linejoin:round;fill:none;stroke:#222" d="M0 0h15.651"/>
            </g>
        </g>
        <path data-name="패스 547" d="M973.772 948.21v-44.983a4.934 4.934 0 0 0-5.639-4.937l-6.015.927a16.449 16.449 0 0 0-13.808 16.352v4.631H844.146v-4.63a16.451 16.451 0 0 0-13.808-16.352l-6.015-.927a4.934 4.934 0 0 0-5.638 4.937v44.982" transform="translate(-762.613 -730.93)" style="fill:#50ccc6;stroke-linecap:round;stroke-linejoin:round;stroke-width:3px;stroke:#222"/>
    </g>
</svg>
