<svg xmlns="http://www.w3.org/2000/svg" width="444" height="221" viewBox="0 0 444 221">
  <defs>
    <style>
      .cls-1 {
        fill: rgba(255,191,191,0.5);
        opacity: 0;
      }

      .cls-2 {
        fill: #fbf0e3;
      }

      .cls-3 {
        fill: #dafdd6;
      }

      .cls-4 {
        fill: #dcf5fb;
      }

      .cls-12, .cls-17, .cls-5 {
        fill: #fff;
      }

      .cls-6 {
        fill: #e9f6fd;
      }

      .cls-18, .cls-7 {
        fill: #f2ac58;
      }

      .cls-10, .cls-11, .cls-12, .cls-13, .cls-16, .cls-17, .cls-7, .cls-8, .cls-9 {
        stroke: #222;
        stroke-width: 3px;
      }

      .cls-11, .cls-21, .cls-8 {
        fill: none;
      }

      .cls-11, .cls-16, .cls-17, .cls-8 {
        stroke-linecap: round;
      }

      .cls-9 {
        fill: #727272;
      }

      .cls-10, .cls-16 {
        fill: #afdae9;
      }

      .cls-11, .cls-16, .cls-17 {
        stroke-linejoin: round;
      }

      .cls-13 {
        fill: #7dd3cf;
      }

      .cls-14 {
        fill: #222;
      }

      .cls-15 {
        fill: #f5f5f5;
      }

      .cls-19, .cls-20 {
        stroke: none;
      }

      .cls-20 {
        fill: #222;
      }
    </style>
  </defs>
  <g id="SWKDIFDT3400_2" transform="translate(-622 -2020)">
    <g id="deco">
      <rect id="BG" class="cls-1" width="444" height="221" transform="translate(622 2020)"/>
      <circle id="Ellipse_2" data-name="Ellipse 2" class="cls-2" cx="13.75" cy="13.75" r="13.75" transform="translate(923.25 2069.5)"/>
      <circle id="Ellipse_2-2" data-name="Ellipse 2" class="cls-3" cx="24.75" cy="24.75" r="24.75" transform="translate(650.25 2051.384)"/>
      <circle id="Ellipse_2-3" data-name="Ellipse 2" class="cls-4" cx="21" cy="21" r="21" transform="translate(971 2020)"/>
    </g>
    <g id="img" transform="translate(14)">
      <g id="트럭" transform="translate(837.25 2147.373)">
        <g id="패스_10596" data-name="패스 10596" class="cls-5" transform="translate(110.162 25.593)">
          <path class="cls-19" d="M 40.08842086791992 49.68575668334961 L 1.500002384185791 49.68575668334961 L 1.500002384185791 1.499996423721313 L 24.7018928527832 1.499996423721313 L 40.08842086791992 24.61811637878418 L 40.08842086791992 49.68575668334961 Z"/>
          <path class="cls-20" d="M 3.000003814697266 2.999996185302734 L 3.000003814697266 48.18575668334961 L 38.58842086791992 48.18575668334961 L 38.58842086791992 25.0716552734375 L 23.89837646484375 2.999996185302734 L 3.000003814697266 2.999996185302734 M 3.814697265625e-06 -3.814697265625e-06 L 25.50540161132812 -3.814697265625e-06 L 41.58842086791992 24.16458702087402 L 41.58842086791992 51.18575668334961 L 3.814697265625e-06 51.18575668334961 L 3.814697265625e-06 -3.814697265625e-06 Z"/>
        </g>
        <g id="패스_10597" data-name="패스 10597" class="cls-6" transform="translate(111.16 21.191)">
          <path class="cls-19" d="M 28.58285140991211 24.49554443359375 L 8.5 24.49554443359375 L 8.5 11.50000381469727 L 19.71628570556641 11.50000381469727 L 28.58285140991211 24.49554443359375 Z"/>
          <path class="cls-20" d="M 10 13.00000381469727 L 10 22.99554443359375 L 25.74356842041016 22.99554443359375 L 18.92383575439453 13.00000381469727 L 10 13.00000381469727 M 7 10.00000381469727 L 20.50873947143555 10.00000381469727 L 30.99332046508789 25.36703491210938 L 30.99332046508789 25.99554443359375 L 7 25.99554443359375 L 7 10.00000381469727 Z"/>
        </g>
        <g id="사각형_462427" data-name="사각형 462427" class="cls-7" transform="translate(9.39)">
          <rect class="cls-19" width="105.571" height="76.74"/>
          <rect class="cls-21" x="1.5" y="1.5" width="102.571" height="73.74"/>
        </g>
        <line id="선_1604" data-name="선 1604" class="cls-8" x1="6.798" y2="0.038" transform="translate(120.559 53.185)"/>
        <g id="타원_1047" data-name="타원 1047" class="cls-9" transform="translate(101.75 55.377)">
          <circle class="cls-19" cx="13.5" cy="13.5" r="13.5"/>
          <circle class="cls-21" cx="13.5" cy="13.5" r="12"/>
        </g>
        <g id="타원_1219" data-name="타원 1219" class="cls-9" transform="translate(21.258 55.185)">
          <circle class="cls-19" cx="13.596" cy="13.596" r="13.596"/>
          <circle class="cls-21" cx="13.596" cy="13.596" r="12.096"/>
        </g>
        <g id="사각형_462990" data-name="사각형 462990" class="cls-10" transform="translate(50.722 0.039)">
          <rect class="cls-19" width="22.65" height="12.979"/>
          <rect class="cls-21" x="1.5" y="1.5" width="19.65" height="9.979"/>
        </g>
      </g>
      <line id="선_686" data-name="선 686" class="cls-11" x2="360" transform="translate(650 2229.599)"/>
      <g id="그룹_631347" data-name="그룹 631347" transform="translate(-28 27.384)">
        <g id="서류봉투" transform="translate(700 2047.75)">
          <g id="사각형_462981" data-name="사각형 462981" class="cls-12" transform="translate(0 0)">
            <rect class="cls-19" width="125.04" height="155.662" rx="8"/>
            <rect class="cls-21" x="1.5" y="1.5" width="122.04" height="152.662" rx="6.5"/>
          </g>
          <g id="사각형_462982" data-name="사각형 462982" class="cls-13" transform="translate(0 0)">
            <path class="cls-19" d="M6.38,0H118.66a6.38,6.38,0,0,1,6.38,6.38v0A19.139,19.139,0,0,1,105.9,25.518H19.139A19.139,19.139,0,0,1,0,6.38v0A6.38,6.38,0,0,1,6.38,0Z"/>
            <path class="cls-21" d="M6.547,1.5H118.493a5.047,5.047,0,0,1,5.047,5.047v0a17.471,17.471,0,0,1-17.471,17.471h-87.1A17.471,17.471,0,0,1,1.5,6.547v0A5.047,5.047,0,0,1,6.547,1.5Z"/>
          </g>
          <g id="사각형_462983" data-name="사각형 462983" class="cls-13" transform="translate(0 130.143)">
            <path class="cls-19" d="M19.139,0H105.9A19.139,19.139,0,0,1,125.04,19.139v0a6.38,6.38,0,0,1-6.38,6.38H6.38A6.38,6.38,0,0,1,0,19.139v0A19.139,19.139,0,0,1,19.139,0Z"/>
            <path class="cls-21" d="M18.971,1.5h87.1A17.471,17.471,0,0,1,123.54,18.971v0a5.047,5.047,0,0,1-5.047,5.047H6.547A5.047,5.047,0,0,1,1.5,18.971v0A17.471,17.471,0,0,1,18.971,1.5Z"/>
          </g>
          <rect id="사각형_462984" data-name="사각형 462984" class="cls-14" width="2.552" height="107.177" transform="translate(61.244 25.518)"/>
          <g id="타원_1217" data-name="타원 1217" class="cls-12" transform="translate(56.14 6.805)">
            <circle class="cls-19" cx="6.38" cy="6.38" r="6.38"/>
            <circle class="cls-21" cx="6.38" cy="6.38" r="4.88"/>
          </g>
          <rect id="사각형_462988" data-name="사각형 462988" class="cls-15" width="32.286" height="8" rx="1.003" transform="translate(15.474 119.737) rotate(-90)"/>
        </g>
        <g id="증서" transform="translate(736.335 2209.366) rotate(-90)">
          <rect id="사각형_1134" data-name="사각형 1134" class="cls-16" width="129.293" height="98.671" rx="5.392" transform="translate(0 129.293) rotate(-90)"/>
          <path id="패스_3714" data-name="패스 3714" class="cls-17" d="M71.593,0H13.469A13.454,13.454,0,0,1,0,13.439v87.955a13.454,13.454,0,0,1,13.469,13.439H71.593a13.454,13.454,0,0,1,13.468-13.439V13.439A13.454,13.454,0,0,1,71.593,0Z" transform="translate(6.652 6.805)"/>
          <g id="그룹_631344" data-name="그룹 631344" transform="translate(25.564 25.943)">
            <g id="그룹_2267" data-name="그룹 2267" transform="translate(3.347)">
              <line id="선_957" data-name="선 957" class="cls-11" y2="35.726" transform="translate(19.564)"/>
              <line id="선_958" data-name="선 958" class="cls-11" x2="16.373" transform="translate(38.278 0.004) rotate(90)"/>
              <line id="선_960" data-name="선 960" class="cls-11" x2="27.743" transform="translate(28.921) rotate(90)"/>
              <line id="선_961" data-name="선 961" class="cls-11" x2="31.471" transform="translate(10.207) rotate(90)"/>
              <line id="선_962" data-name="선 962" class="cls-11" x2="15.258" transform="translate(0 24.359) rotate(90)"/>
            </g>
            <g id="그룹_631346" data-name="그룹 631346" transform="translate(50.076 49.261) rotate(90)">
              <path id="패스_3393" data-name="패스 3393" class="cls-18" d="M0,.221V17.012l7.859-4.853,7.889,4.853V0" transform="translate(9.474 33.064)"/>
              <path id="패스_3394" data-name="패스 3394" class="cls-11" d="M0,.221V17.012l7.859-4.853,7.889,4.853V0" transform="translate(9.474 33.064)"/>
              <circle id="타원_567" data-name="타원 567" class="cls-11" cx="17.012" cy="17.012" r="17.012" transform="translate(0 0)"/>
              <path id="패스_3395" data-name="패스 3395" class="cls-18" d="M10.8,0A10.8,10.8,0,1,0,21.6,10.8,10.813,10.813,0,0,0,10.8,0" transform="translate(6.212 6.211)"/>
            </g>
          </g>
        </g>
      </g>
    </g>
  </g>
</svg>
