<svg xmlns="http://www.w3.org/2000/svg" width="444" height="241" viewBox="0 0 444 241">
    <defs>
        <clipPath id="p2ac74uhwa">
            <path data-name="사각형 464744" transform="translate(37.011 -33.508)" style="stroke:#707070;fill:#fff" d="M0 0h60v177.597H0z"/>
        </clipPath>
    </defs>
    <g transform="translate(39 21.281)">
        <circle data-name="Ellipse 2" cx="53.5" cy="53.5" r="53.5" transform="translate(-11 -21.281)" style="fill:#dcf5fb"/>
        <circle data-name="Ellipse 2" cx="32.168" cy="32.168" r="32.168" transform="translate(293.332 155.383)" style="fill:#fbf0e3"/>
        <circle data-name="Ellipse 2" cx="22.008" cy="22.008" r="22.008" transform="translate(329.5 133.375)" style="fill:#e4ffe1;opacity:.4"/>
        <circle data-name="Ellipse 2" cx="10.705" cy="10.705" r="10.705" transform="translate(297.332 75.012)" style="fill:#fcf5bd"/>
    </g>
    <g data-name="그룹 3631">
        <g data-name="그룹 3630">
            <g data-name="그룹 3629">
                <g data-name="패스 6140" style="stroke-linejoin:round;stroke-linecap:round;fill:#f2ac58">
                    <path d="M235.133 225.396c-7.77 0-13.129-.465-16.864-1.463-2.069-.553-3.625-1.275-4.623-2.146-.956-.833-1.4-1.78-1.4-2.982 0-10.9 13.914-70.97 14.055-71.575l.01-.043.007-.044c.939-5.503 2.497-10.635 4.63-15.254 2.162-4.683 4.885-8.767 8.093-12.14 3.307-3.478 7.108-6.171 11.295-8.004 4.402-1.926 9.242-2.903 14.385-2.903h22.246c10.07 0 19.08 3.846 26.059 11.12 3.29 3.43 6.025 7.519 8.131 12.154 2.104 4.629 3.517 9.664 4.201 14.967l.01.08.02.08c.038.156 3.809 15.774 7.53 32.356 3.421 15.239 7.5 34.41 7.5 39.206 0 .672-.2 1.689-1.92 2.746-1.433.88-3.631 1.597-6.535 2.134-6.297 1.163-15.017 1.313-21.91 1.313-3.628 0-7.355-.048-10.96-.095-3.566-.046-6.934-.09-10.18-.09h-26.14c-4.38 0-9.149.148-13.76.291-4.643.144-9.444.292-13.88.292z" style="stroke:none" transform="translate(-65.783 -42.242)"/>
                    <path d="M235.133 223.896c4.413 0 9.202-.148 13.833-.291 4.623-.143 9.404-.291 13.807-.291h26.14c3.255 0 6.628.043 10.2.09 3.6.046 7.321.094 10.94.094 6.829 0 15.46-.147 21.638-1.288 2.721-.503 4.747-1.155 6.021-1.937 1.205-.74 1.205-1.25 1.205-1.468 0-2.105-.97-9.953-7.461-38.874-3.72-16.57-7.488-32.18-7.526-32.336a3.002 3.002 0 0 1-.06-.32c-.664-5.155-2.037-10.046-4.078-14.539-2.036-4.48-4.677-8.428-7.849-11.735-6.688-6.973-15.325-10.659-24.976-10.659H264.72c-4.935 0-9.573.935-13.784 2.778-4.003 1.752-7.64 4.33-10.81 7.663-3.094 3.253-5.724 7.201-7.817 11.735-2.078 4.499-3.597 9.504-4.513 14.877-.01.058-.022.116-.035.174-.035.152-3.56 15.349-7.037 31.712-2.039 9.595-3.663 17.705-4.826 24.104-1.78 9.787-2.153 13.787-2.153 15.42 0 .756.265 1.31.885 1.851.825.72 2.18 1.334 4.026 1.828 3.605.963 8.84 1.412 16.476 1.412m0 3c-13.486 0-24.387-1.34-24.387-8.091 0-11.197 14.093-71.914 14.093-71.914 3.823-22.404 17.855-39.549 39.882-39.549h22.246c22.024 0 37.06 17.704 39.879 39.549 0 0 15.071 62.365 15.071 71.914 0 6.69-15.195 7.693-31.865 7.693-7.135 0-14.538-.184-21.14-.184h-26.139c-8.746 0-18.755.582-27.64.582z" style="fill:#222;stroke:none" transform="translate(-65.783 -42.242)"/>
                </g>
                <path data-name="패스 6142" d="M301.876 109.843c5.085-1.49-.595-2.5-6.146-2.5h-22.245c-5.555 0-9.326.627-3.52 2.334z" transform="translate(-74.546 -42.242)" style="fill:#d6d6d6;mix-blend-mode:multiply;isolation:isolate"/>
                <g data-name="패스 6144" style="stroke-linejoin:round;stroke-linecap:round;fill:#f2ac58">
                    <path d="M298.617 95.927h-30.21c-.121-.657-.363-1.394-.839-1.979l-7.72-11.227c.325-.233 1.254-.71 3.716-1.136 3.294-.569 8.26-.857 14.76-.857 2.765 0 5.845.053 9.17.157l2.344 6.887.938 2.757 1.7-2.366 5.209-7.25h.239c4.121 0 7.354.326 9.608.969 1.434.409 2.061.834 2.318 1.07l-10.417 10.95-.108.114-.082.132c-.354.574-.536 1.21-.626 1.779z" style="stroke:none" transform="translate(-73.404 -38.115)"/>
                    <path d="M297.456 94.427c.13-.359.296-.72.511-1.067a3 3 0 0 1 .379-.49l9.012-9.475c-1.426-.441-4.099-.945-8.905-.98l-4.76 6.624a3 3 0 0 1-5.275-.784l-2.009-5.902a285.241 285.241 0 0 0-8.086-.125c-5.772 0-10.318.229-13.512.68-1.187.168-2.047.347-2.664.51l6.626 9.635c.339.429.587.9.769 1.374h27.914m2.603 3h-33.045s.094-1.725-.642-2.57l-7.885-11.468c-.897-1.416-.327-4.161 19.836-4.161 2.974 0 6.372.06 10.257.192l2.678 7.868 5.653-7.868c14.002-.173 15.512 3.237 14.204 4.378l-10.596 11.139c-.634 1.027-.46 2.49-.46 2.49z" style="fill:#222;stroke:none" transform="translate(-73.404 -38.115)"/>
                </g>
                <path data-name="패스 6145" d="M301.961 106.034c0 .679-33.214.679-33.214 0v-8.351a1.232 1.232 0 0 1 1.243-1.226h30.73a1.231 1.231 0 0 1 1.242 1.226z" transform="translate(-74.81 -39.475)" style="stroke-width:3px;stroke:#222;fill:#fcf28d;stroke-linejoin:round;stroke-linecap:round"/>
                <g data-name="패스 6146" style="fill:#fcf28d;stroke-linejoin:round;stroke-linecap:round">
                    <path d="M283.18 197.845a26.194 26.194 0 0 1-18.501-7.598 25.829 25.829 0 0 1-5.603-8.24 25.57 25.57 0 0 1-2.053-10.088c0-3.5.69-6.893 2.053-10.087a25.827 25.827 0 0 1 5.603-8.24 26.194 26.194 0 0 1 18.5-7.598 26.2 26.2 0 0 1 18.503 7.597 25.826 25.826 0 0 1 5.603 8.241 25.566 25.566 0 0 1 2.053 10.087c0 3.499-.69 6.893-2.053 10.087a25.827 25.827 0 0 1-5.603 8.241 26.2 26.2 0 0 1-18.502 7.598z" style="stroke:none" transform="translate(-72.752 -48.024)"/>
                    <path d="M283.18 147.494a24.702 24.702 0 0 0-17.445 7.162 24.335 24.335 0 0 0-5.28 7.765 24.074 24.074 0 0 0-1.932 9.498c0 3.296.65 6.492 1.932 9.499a24.335 24.335 0 0 0 5.28 7.764 24.702 24.702 0 0 0 17.444 7.163c3.335 0 6.567-.646 9.608-1.922a24.589 24.589 0 0 0 7.839-5.24 24.334 24.334 0 0 0 5.28-7.765 24.079 24.079 0 0 0 1.932-9.5c0-3.295-.65-6.49-1.933-9.497a24.334 24.334 0 0 0-5.28-7.765 24.59 24.59 0 0 0-7.838-5.24 24.707 24.707 0 0 0-9.608-1.922m0-3c15.28 0 27.659 12.278 27.659 27.425s-12.38 27.426-27.659 27.426c-15.276 0-27.656-12.279-27.656-27.426 0-15.147 12.38-27.425 27.656-27.425z" style="fill:#222;stroke:none" transform="translate(-72.752 -48.024)"/>
                </g>
            </g>
            <g data-name="그룹 634182">
                <path data-name="패스 6147" d="m266.857 107.683 1.062 29.016 13.771-1.754-10.757-27.262z" transform="translate(-63.681 -42.832)" style="stroke-width:3px;stroke:#222;fill:#fcf28d;stroke-linejoin:round;stroke-linecap:round"/>
                <path data-name="패스 6148" d="m264.326 107.232-15.241 24.044 10.1 2.635 10.839-26.679z" transform="translate(-61.749 -43.015)" style="stroke-width:3px;stroke:#222;fill:#fcf28d;stroke-linejoin:round;stroke-linecap:round"/>
                <path data-name="사각형 1902" transform="translate(198.915 57.685)" style="stroke-width:3px;stroke:#222;fill:#fcf28d;stroke-linejoin:round;stroke-linecap:round" d="M0 0h10.677v9.957H0z"/>
            </g>
        </g>
    </g>
    <g data-name="그룹 3633">
        <path data-name="패스 6154" d="m270.961 169.348 6.049 15.728a1.421 1.421 0 0 0 2.688-.116l4.383-15.248a1.421 1.421 0 0 1 2.719-.025l4.671 15.175a1.421 1.421 0 0 0 2.7.042l5.342-15.556" transform="translate(-75.154 -51.789)" style="stroke-width:3.009px;fill:none;stroke:#222;stroke-linejoin:round;stroke-linecap:round"/>
        <path data-name="선 1465" transform="translate(193.071 124.813)" style="stroke-width:3.022px;fill:none;stroke:#222;stroke-linejoin:round;stroke-linecap:round" d="M0 0h34.022"/>
    </g>
    <path d="M3906.458-16526.617a4 4 0 0 1-2.561-5.039c5.277-16.207 5.29-31.172.038-45.742a64.315 64.315 0 0 0-21.52-29.3l1.4 7.664a3.994 3.994 0 0 1-3.212 4.65 3.837 3.837 0 0 1-.726.068 4 4 0 0 1-3.93-3.279l-3.037-16.6a3.993 3.993 0 0 1 .647-3 4 4 0 0 1 2.582-1.66l16.737-3.012a4 4 0 0 1 4.643 3.229 4 4 0 0 1-3.229 4.648l-6.67 1.2a72.29 72.29 0 0 1 23.84 32.678c5.878 16.313 5.894 32.969.042 50.928a4.005 4.005 0 0 1-3.8 2.766 4.053 4.053 0 0 1-1.244-.199z" transform="translate(-3614.703 16676.96)" style="fill:#50ccc6;stroke-width:3px;stroke:#222;stroke-linecap:round"/>
    <path data-name="화살" d="m4040.174-16529.7-15.042-7.877a4 4 0 0 1-1.69-5.395 4 4 0 0 1 5.4-1.691l5.082 2.662a71.515 71.515 0 0 1 1.135-42.047 72 72 0 0 1 35.309-41.1 4 4 0 0 1 5.391 1.711 4 4 0 0 1-1.711 5.391 64.033 64.033 0 0 0-31.407 36.553 63.533 63.533 0 0 0-.411 39.365l4.212-7.908a4 4 0 0 1 5.412-1.648 4 4 0 0 1 1.648 5.408l-7.941 14.916a4.007 4.007 0 0 1-3.534 2.119 3.934 3.934 0 0 1-1.853-.459z" transform="translate(-3914.986 16684.301)" style="fill:#50ccc6;stroke-width:3px;stroke:#222;stroke-linecap:round"/>
    <g>
        <g data-name="마스크 그룹 626228" style="clip-path:url(#p2ac74uhwa)" transform="rotate(-90 212.275 42.92)">
            <g data-name="그룹 1636">
                <path data-name="합치기 47" d="M3932.626-12480.051c-1.828-1.919-2.117-3.146-3.063-5.257l-31.051-39.593a8.619 8.619 0 0 1 1.438-12.107l.846-.689a8.624 8.624 0 0 1 12.146 1.114l34.517 42.622c.156-2.326.664-5.952 2.291-7.611a8.938 8.938 0 0 1 13.046.286l18.157 19a9.1 9.1 0 0 1 10.506 2.08l17.76 18.579a10.285 10.285 0 0 1 2.817 6.854l.491 23.369-19.2 14.194zm14.55-11.711a1.557 1.557 0 0 0 .217-.085v-.094z" transform="rotate(45 -13114.656 -10909.86)" style="stroke-width:3.031px;stroke:#222;stroke-linejoin:round;stroke-linecap:round;fill:#fff"/>
                <g data-name="그룹 1635">
                    <path data-name="패스 2667" d="M141 195.922a9.977 9.977 0 0 0 .266 13.65h0l20.747 21.706" transform="rotate(45 308.233 36.287)" style="stroke-width:3.031px;stroke:#222;stroke-linejoin:round;stroke-linecap:round;fill:#fff"/>
                </g>
            </g>
            <path data-name="패스 2664" d="m211.542 283.574-.9-28.47-54.172.078.189 28.61" transform="translate(-117.298 -141.808)" style="fill:#afdae9;stroke-miterlimit:10;stroke-width:1.01px;stroke:#222"/>
            <path data-name="패스 2665" d="M211.7 282.614v-26.776l-54.994.08v26.7" transform="translate(-117.258 -141.683)" style="stroke-width:3.031px;fill:none;stroke:#222;stroke-linejoin:round;stroke-linecap:round"/>
            <circle data-name="타원 1433" cx="3.5" cy="3.5" r="3.5" transform="rotate(69 -47.135 123.818)" style="fill:#222"/>
        </g>
    </g>
</svg>
