<svg xmlns="http://www.w3.org/2000/svg" width="444" height="221" viewBox="0 0 444 221">
    <defs>
        <clipPath id="7ezapjomka">
            <path transform="translate(78.672 41.88)" style="fill:none" d="M0 0h243.332v170.199H0z"/>
        </clipPath>
    </defs>
    <g transform="translate(39 33.282)">
        <circle data-name="Ellipse 2" cx="54" cy="54" r="54" transform="translate(39 61.718)" style="fill:#fbf0e3"/>
        <circle data-name="Ellipse 2" cx="15" cy="15" r="15" transform="translate(245.967 -23.384)" style="fill:#e4ffe1"/>
        <circle data-name="Ellipse 2" cx="26" cy="26" r="26" transform="translate(317.677 12.442)" style="fill:#dcf5fb"/>
    </g>
    <g data-name="그룹 626234">
        <path data-name="선 223" transform="translate(42 208.311)" style="stroke-width:3px;stroke-linejoin:round;stroke-linecap:round;stroke:#222;fill:none" d="M0 0h360"/>
        <g data-name="img" transform="translate(4.662 -3.481)" style="clip-path:url(#7ezapjomka)">
            <g data-name="그룹 2008">
                <path data-name="패스 3293" d="M138.1 43.411a7.14 7.14 0 0 1 10.812-3.628l9.448 6.509a10.727 10.727 0 0 1 3.506 4.042 10.952 10.952 0 0 1 1.049 3.642L204.621 68 200.6 80.02 158.891 66a10.91 10.91 0 0 1-3.03 2.27 10.682 10.682 0 0 1-5.23 1.1l-11.453-.521a7.153 7.153 0 0 1-6.439-9.426zm12.871 18.8a3.476 3.476 0 0 0 3.439-2.375l1.224-3.653a3.487 3.487 0 0 0-1.313-3.972l-9.47-6.515-5.321 16.01z" transform="rotate(20 102.266 -62.371)" style="fill:#50ccc6"/>
                <path data-name="패스 3294" d="M138.1 43.411a7.14 7.14 0 0 1 10.812-3.628l9.448 6.509a10.727 10.727 0 0 1 3.506 4.042 10.952 10.952 0 0 1 1.049 3.642L204.621 68 200.6 80.02 158.891 66a10.91 10.91 0 0 1-3.03 2.27 10.682 10.682 0 0 1-5.23 1.1l-11.453-.521a7.153 7.153 0 0 1-6.439-9.426zm12.871 18.8a3.476 3.476 0 0 0 3.439-2.375l1.224-3.653a3.487 3.487 0 0 0-1.313-3.972l-9.47-6.515-5.321 16.01z" transform="rotate(20 102.266 -62.371)" style="stroke-width:3px;stroke-linejoin:round;stroke-linecap:round;stroke:#222;fill:none"/>
                <path data-name="패스 3295" d="m218.277 100.075 15.141 5.092a46.964 46.964 0 0 0 35.888-2.484 9.19 9.19 0 0 0 4.124-12.309A47.035 47.035 0 0 0 246.305 66.7l-15.141-5.09-8.456 25.243z" transform="rotate(20 113.515 -86.463)" style="fill:#fff"/>
                <path data-name="패스 3296" d="m228.814 72.417 15.61 5.212a2.367 2.367 0 0 1 .914.56l9.411 9.261a2.281 2.281 0 0 1 .666 2.156 1.439 1.439 0 0 1-.486.792c-1.549 1.424-20.2-6.064-26.859-8.377a2.377 2.377 0 0 1-1.466-3z" transform="rotate(20 117.123 -88.316)" style="fill:#d1dee8;opacity:.5"/>
                <path data-name="패스 3297" d="m218.277 100.075 15.141 5.092a46.964 46.964 0 0 0 35.888-2.484 9.19 9.19 0 0 0 4.124-12.309A47.035 47.035 0 0 0 246.305 66.7l-15.141-5.09-8.456 25.243z" transform="rotate(20 113.515 -86.463)" style="stroke-width:3px;stroke-linejoin:round;stroke-linecap:round;stroke:#222;fill:none"/>
                <path data-name="패스 3298" d="m212.521 71.412 28.6 9.617a.947.947 0 0 1 .343.2l9.518 8.891a.945.945 0 0 1-.546 1.631l-12.944 1.338a.963.963 0 0 1-.4-.044l-28.6-9.618z" transform="rotate(20 115.892 -83.075)" style="fill:#e6e9ed"/>
                <path data-name="패스 3299" d="m212.521 71.412 28.6 9.617a.947.947 0 0 1 .343.2l9.518 8.891a.945.945 0 0 1-.546 1.631l-12.944 1.338a.963.963 0 0 1-.4-.044l-28.6-9.618z" transform="rotate(20 115.892 -83.075)" style="stroke-width:3px;stroke-linejoin:round;stroke-linecap:round;stroke:#222;fill:none"/>
            </g>
            <g data-name="그룹 2022">
                <g data-name="그룹 2012">
                    <g data-name="그룹 2009">
                        <path data-name="패스 3300" d="M158.44 193.64a11.313 11.313 0 0 0-5.647-2.327 10.285 10.285 0 0 0-4.038-5.521 15.58 15.58 0 0 0-9.08-2.781 16.64 16.64 0 0 0-4.258.542 11.925 11.925 0 0 0-.955-.816 15.436 15.436 0 0 0-9.385-3c-7.4 0-13.424 4.734-13.424 10.552a8.4 8.4 0 0 0 .328 2.33 7.909 7.909 0 0 0-4.5 6.788 1.785 1.785 0 0 0 1.955 1.537h50.048a1.785 1.785 0 0 0 1.955-1.537 7.413 7.413 0 0 0-3-5.763z" transform="translate(-17.555 -14.255)" style="fill:#fcf28d;stroke-width:3px;stroke-linejoin:round;stroke-linecap:round;stroke:#222"/>
                    </g>
                    <g data-name="그룹 2010">
                        <path data-name="패스 3301" d="M120.617 194.814a2.417 2.417 0 1 1 4.835 0" transform="translate(-21.194 -17.762)" style="stroke-width:3px;stroke-linejoin:round;stroke-linecap:round;stroke:#222;fill:none"/>
                    </g>
                    <g data-name="그룹 2011">
                        <path data-name="패스 3302" d="M161.519 202.11a2.417 2.417 0 1 1 4.835 0" transform="translate(-32.528 -19.784)" style="stroke-width:3px;stroke-linejoin:round;stroke-linecap:round;stroke:#222;fill:none"/>
                    </g>
                </g>
                <g data-name="그룹 2013">
                    <path data-name="패스 3303" d="M253.888 208.254H96.837v26.224h209.4v-26.224z" transform="translate(-14.605 -22.158)" style="fill:#fff"/>
                    <path data-name="사각형 957" style="fill:#d1dee8;opacity:.5" d="M0 0h209.401v7.867H0z" transform="translate(82.175 185.702)"/>
                    <path data-name="패스 3304" d="M253.888 208.254H96.837v26.224h209.4v-26.224z" transform="translate(-14.605 -22.158)" style="stroke-width:3px;stroke-linejoin:round;stroke-linecap:round;stroke:#222;fill:none"/>
                    <path data-name="선 888" transform="translate(132.562 186.685)" style="fill:#fff;stroke-width:3px;stroke-linejoin:round;stroke-linecap:round;stroke:#222" d="M0 24.913V0"/>
                    <path data-name="선 889" transform="translate(185.567 186.685)" style="fill:#fff;stroke-width:3px;stroke-linejoin:round;stroke-linecap:round;stroke:#222" d="M0 24.913V0"/>
                    <path data-name="선 890" transform="translate(238.572 186.685)" style="fill:#fff;stroke-width:3px;stroke-linejoin:round;stroke-linecap:round;stroke:#222" d="M0 24.913V0"/>
                </g>
                <g data-name="그룹 2014">
                    <path data-name="패스 3305" d="M470.228 135.7H313.177v26.224h209.4V135.7z" transform="translate(-74.549 -2.055)" style="fill:#fff"/>
                    <path data-name="사각형 958" style="fill:#d1dee8;opacity:.5" d="M0 0h209.401v7.867H0z" transform="translate(238.572 133.254)"/>
                    <path data-name="패스 3306" d="M470.228 135.7H313.177v26.224h209.4V135.7z" transform="translate(-74.549 -2.055)" style="stroke-width:3px;stroke-linejoin:round;stroke-linecap:round;stroke:#222;fill:none"/>
                    <path data-name="선 892" transform="translate(341.964 134.237)" style="stroke-width:2.003px;fill:#fff;stroke-linejoin:round;stroke-linecap:round;stroke:#222" d="M0 24.913V0"/>
                </g>
                <g data-name="그룹 2020" transform="translate(153.074 126.697)">
                    <g data-name="그룹 2015">
                        <path data-name="패스 3307" d="M284.889 151a14.466 14.466 0 0 0-6.984-2.713 12.053 12.053 0 0 0-4.993-6.434 20.1 20.1 0 0 0-11.228-3.241 22.316 22.316 0 0 0-2.79.175A16.552 16.552 0 0 0 245 131.255a16.423 16.423 0 0 0-5.265.854 16.559 16.559 0 0 0-12.785-6.021 16.649 16.649 0 0 0-16.194 20.3c-.085.058-.165.122-.248.182a12.213 12.213 0 0 0-5.934 1.972 7.492 7.492 0 0 0-3.1 4 8.987 8.987 0 0 0-4.338 1.685 5.278 5.278 0 0 0-2.3 4.172c0 .615.673 1.113 1.5 1.113h89.848c1.334 0 2.417-.8 2.417-1.791a8.495 8.495 0 0 0-3.712-6.721z" transform="translate(-194.832 -126.088)" style="fill:#fcf28d"/>
                    </g>
                    <g data-name="그룹 2016">
                        <path data-name="패스 3308" d="M324.538 169.845z" transform="translate(-230.771 -138.212)" style="stroke-width:1.999px;stroke-linejoin:round;stroke-linecap:round;stroke:#222;fill:none"/>
                        <path data-name="패스 3309" d="M288.6 157.721a8.495 8.495 0 0 0-3.71-6.717 14.466 14.466 0 0 0-6.984-2.713 12.053 12.053 0 0 0-4.993-6.434 20.1 20.1 0 0 0-11.228-3.241 22.316 22.316 0 0 0-2.79.175A16.552 16.552 0 0 0 245 131.255a16.423 16.423 0 0 0-5.265.854 16.559 16.559 0 0 0-12.785-6.021 16.649 16.649 0 0 0-16.194 20.3c-.085.058-.165.122-.248.182a12.213 12.213 0 0 0-5.934 1.972 7.492 7.492 0 0 0-3.1 4 8.987 8.987 0 0 0-4.338 1.685 5.278 5.278 0 0 0-2.3 4.172" transform="translate(-194.832 -126.088)" style="stroke-width:3px;stroke-linejoin:round;stroke-linecap:round;stroke:#222;fill:none"/>
                    </g>
                    <g data-name="그룹 2017">
                        <path data-name="패스 3310" d="M275.144 152.542a2.421 2.421 0 0 1 4.2 2.131" transform="translate(-217.084 -133.178)" style="stroke-width:3px;stroke-linejoin:round;stroke-linecap:round;stroke:#222;fill:none"/>
                    </g>
                    <g data-name="그룹 2018">
                        <path data-name="패스 3311" d="M210.238 165.563a2.418 2.418 0 0 1 4.7.223" transform="translate(-199.101 -136.538)" style="stroke-width:3px;stroke-linejoin:round;stroke-linecap:round;stroke:#222;fill:none"/>
                    </g>
                    <g data-name="그룹 2019">
                        <path data-name="패스 3312" d="M247.182 140.988a2.417 2.417 0 0 1 4.7.224" transform="translate(-209.337 -129.729)" style="stroke-width:3px;stroke-linejoin:round;stroke-linecap:round;stroke:#222;fill:none"/>
                    </g>
                    <ellipse data-name="타원 127" cx="2.618" cy="2.622" rx="2.618" ry="2.622" transform="translate(23.532 16.872)" style="stroke-width:3px;stroke-linejoin:round;stroke-linecap:round;stroke:#222;fill:none"/>
                </g>
                <g data-name="그룹 2021">
                    <path data-name="패스 3313" d="M345.5 171.979H188.446V198.2h209.4v-26.221z" transform="translate(-39.988 -12.106)" style="fill:#fff"/>
                    <path data-name="사각형 959" style="fill:#d1dee8;opacity:.5" d="M0 0h209.401v7.867H0z" transform="translate(148.401 159.478)"/>
                    <path data-name="패스 3314" d="M345.5 171.979H188.446V198.2h209.4v-26.221z" transform="translate(-39.988 -12.106)" style="stroke-width:3px;stroke-linejoin:round;stroke-linecap:round;stroke:#222;fill:none"/>
                    <path data-name="패스 7377" d="M0 24.913V0" transform="translate(198.788 160.461)" style="fill:#fff;stroke-width:3px;stroke-linecap:round;stroke:#222"/>
                    <path data-name="선 894" transform="translate(251.793 160.461)" style="fill:#fff;stroke-width:3px;stroke-linejoin:round;stroke-linecap:round;stroke:#222" d="M0 24.913V0"/>
                    <path data-name="선 895" transform="translate(304.798 160.461)" style="stroke-width:2.003px;fill:#fff;stroke-linejoin:round;stroke-linecap:round;stroke:#222" d="M0 24.913V0"/>
                </g>
            </g>
        </g>
    </g>
    <path data-name="패스 3271" d="M285.192 163.851h-87.133a2.235 2.235 0 0 1-2.234-2.234v-11.171a78.242 78.242 0 0 1 5.4-29.042 1.4 1.4 0 0 1 2.668.3l4.7 27.264a4.469 4.469 0 0 0 4.4 3.71h23.75a4.469 4.469 0 0 0 4.4-3.71l8.783-50.941a58.09 58.09 0 0 0-49.044-.481v-.006c-.044.02-1.071.533-1.071.533a58.055 58.055 0 0 0-33.035 52.371v13.4h-2.234a2.235 2.235 0 0 0-2.234 2.234v2.848a2.226 2.226 0 0 0 1.522 2.129c15.981 5.225 37.434 8.427 61.035 8.427s45.054-3.2 61.034-8.427a2.226 2.226 0 0 0 1.523-2.129v-2.848a2.235 2.235 0 0 0-2.234-2.234" transform="translate(94.131 38.821)" style="fill:#fcf28d"/>
    <path data-name="패스 3275" d="m226.938 147.918-1.367-55.854c-.062-2.527 1.375-4.622 3.17-4.622h-5.25a4.468 4.468 0 0 0-4.465 4.622l1.926 55.854a4.468 4.468 0 0 0 4.465 4.314h4.692c-1.71 0-3.112-1.908-3.171-4.314" transform="translate(88.962 39.269)" style="fill:#fcf28d"/>
    <path data-name="패스 3270" d="M225.317 92.357a58.089 58.089 0 0 0-58.089 58.089v13.4h116.178v-13.4a58.089 58.089 0 0 0-58.089-58.089" transform="translate(93.683 38.821)" style="fill:#fcf28d"/>
    <path data-name="패스 3272" d="M225.317 92.357a58.089 58.089 0 0 0-58.089 58.089v13.4h116.178v-13.4a58.089 58.089 0 0 0-58.089-58.089z" transform="translate(93.683 38.821)" style="stroke-width:3px;stroke-linejoin:round;stroke-linecap:round;stroke:#222;fill:none"/>
    <path data-name="패스 3273" d="M234.657 152.232h-9.239a4.468 4.468 0 0 1-4.465-4.314l-1.926-55.854a4.468 4.468 0 0 1 4.465-4.622h13.091a4.469 4.469 0 0 1 4.466 4.622l-1.927 55.854a4.468 4.468 0 0 1-4.465 4.314" transform="translate(88.962 39.269)" style="fill:#fcf28d"/>
    <path data-name="패스 3274" d="M285.9 174.117c-15.981 3.733-37.434 6.019-61.034 6.019s-45.054-2.287-61.035-6.019A1.912 1.912 0 0 1 162.4 173a2.174 2.174 0 0 0-.087.435v2.848a2.226 2.226 0 0 0 1.522 2.129c15.981 5.226 37.434 8.428 61.035 8.428s45.053-3.2 61.034-8.427a2.227 2.227 0 0 0 1.523-2.13v-2.847a2.115 2.115 0 0 0-.088-.435 1.912 1.912 0 0 1-1.435 1.118" transform="translate(94.131 31.472)" style="fill:#fcf28d"/>
    <path data-name="패스 3276" d="M234.657 152.232h-9.239a4.468 4.468 0 0 1-4.465-4.314l-1.926-55.854a4.468 4.468 0 0 1 4.465-4.622h13.091a4.469 4.469 0 0 1 4.466 4.622l-1.927 55.854a4.468 4.468 0 0 1-4.465 4.314z" transform="translate(88.962 39.269)" style="stroke-width:3px;stroke-linejoin:round;stroke-linecap:round;stroke:#222;fill:none"/>
    <path data-name="패스 3277" d="M166.781 171.02h-2.234a2.235 2.235 0 0 0-2.235 2.234v2.846a2.226 2.226 0 0 0 1.523 2.129c15.981 5.225 37.433 8.427 61.035 8.427s45.053-3.2 61.034-8.427a2.226 2.226 0 0 0 1.523-2.129v-2.848a2.235 2.235 0 0 0-2.234-2.234h-3.216" transform="translate(94.131 31.652)" style="stroke-width:3px;stroke-linejoin:round;stroke-linecap:round;stroke:#222;fill:none"/>
    <path data-name="선 197" transform="translate(336.923 137.647)" style="stroke-width:3px;stroke-linejoin:round;stroke-linecap:round;stroke:#222;fill:none" d="M6.81 0 0 39.497"/>
    <path data-name="선 198" transform="translate(294.635 137.647)" style="stroke-width:3px;stroke-linejoin:round;stroke-linecap:round;stroke:#222;fill:none" d="M6.81 39.497 0 0"/>
    <g data-name="타원 1186" transform="translate(301.064 165.946)" style="fill:#fff;stroke-width:3px;stroke:#222">
        <circle cx="17.936" cy="17.936" r="17.936" style="stroke:none"/>
        <circle cx="17.936" cy="17.936" r="16.436" style="fill:none"/>
    </g>
    <g data-name="그룹 630713">
        <path data-name="합치기 22" d="M7.179 19.575V12.4H0V7.178h7.179V0H12.4v7.178h7.177V12.4H12.4v7.177z" style="fill:#6fa735" transform="translate(309.213 174.102)"/>
    </g>
</svg>
