<svg xmlns="http://www.w3.org/2000/svg" width="285" height="332" viewBox="0 0 285 332">
    <defs>
        <filter id="srf9xb78sa" x="0" y="201" width="86" height="131" filterUnits="userSpaceOnUse">
            <feOffset dy="1"/>
            <feGaussianBlur stdDeviation="1" result="blur"/>
            <feFlood flood-opacity=".161"/>
            <feComposite operator="in" in2="blur"/>
            <feComposite in="SourceGraphic"/>
        </filter>
        <filter id="c22tyn9p6b" x="199" y="201" width="86" height="131" filterUnits="userSpaceOnUse">
            <feOffset dy="1"/>
            <feGaussianBlur stdDeviation="1" result="blur-2"/>
            <feFlood flood-opacity=".161"/>
            <feComposite operator="in" in2="blur-2"/>
            <feComposite in="SourceGraphic"/>
        </filter>
        <filter id="4cmvv4ya1c" x="70" y="0" width="146" height="98" filterUnits="userSpaceOnUse">
            <feOffset dy="3"/>
            <feGaussianBlur stdDeviation="3" result="blur-3"/>
            <feFlood flood-opacity=".078"/>
            <feComposite operator="in" in2="blur-3"/>
            <feComposite in="SourceGraphic"/>
        </filter>
    </defs>
    <g data-name="왼 줄">
        <path data-name="line" transform="translate(43 56)" style="fill:#c3c3c7" d="M0 0h36v1H0z"/>
        <path data-name="&gt;" d="m0 0 8 5v1l-8 5z" transform="rotate(90 -71 120)" style="fill:#c3c3c7"/>
        <path data-name="line" transform="translate(64 77)" style="fill:#c3c3c7" d="M0 0h11v1H0z"/>
        <path data-name="&gt;" d="m0 0 8 5v1l-8 5z" transform="translate(67 72)" style="fill:#c3c3c7"/>
        <g data-name="line">
            <path data-name="line" transform="translate(22 35)" style="fill:#43495a" d="M0 0h52v1H0z"/>
            <path data-name="&gt;" d="m0 0 8 5v1l-8 5z" transform="translate(67 30)" style="fill:#43495a"/>
            <text transform="translate(25 31)" style="font-family:AppleSDGothicNeo-Regular,Apple SD Gothic Neo;font-size:14px;fill:#43495a"><tspan x="0" y="0">START</tspan></text>
        </g>
        <g data-name="그룹 626081">
            <path data-name="line" transform="rotate(-90 121 78)" style="fill:#c3c3c7" d="M0 0h143v1H0z"/>
            <path data-name="line" transform="rotate(-90 112.5 90.5)" style="fill:#43495a" d="M0 0h168v1H0z"/>
            <path data-name="line" transform="rotate(-90 133.5 69.5)" style="fill:#c3c3c7" d="M0 0h126v1H0z"/>
        </g>
        <g>
            <g transform="translate(11 106.255)">
                <circle data-name="타원 551" cx="10.5" cy="10.5" r="10.5" transform="translate(1 .745)" style="fill:#999fa7"/>
                <text data-name="1" transform="translate(12 16.745)" style="font-weight:700;font-family:Lato-Bold,Lato;fill:#fff;font-size:14px"><tspan x="-4.06" y="0">1</tspan></text>
            </g>
            <g data-name="no" transform="translate(33 127.255)">
                <circle data-name="타원 551" cx="10.5" cy="10.5" r="10.5" transform="translate(0 .745)" style="fill:#999fa7"/>
                <text data-name="2" transform="translate(11 16.745)" style="font-weight:700;font-family:Lato-Bold,Lato;fill:#fff;font-size:14px"><tspan x="-4.06" y="0">2</tspan></text>
            </g>
            <g data-name="no" transform="translate(54 148.255)">
                <circle data-name="타원 551" cx="10.5" cy="10.5" r="10.5" transform="translate(0 .745)" style="fill:#999fa7"/>
                <text data-name="5" transform="translate(11 16.745)" style="font-weight:700;font-family:Lato-Bold,Lato;fill:#fff;font-size:14px"><tspan x="-4.06" y="0">5</tspan></text>
            </g>
        </g>
    </g>
    <g data-name="오른 줄">
        <g data-name="line">
            <path data-name="&gt;" d="m0 0 8 5v1l-8 5z" transform="rotate(180 109.5 31)" style="fill:#c3c3c7"/>
            <path d="M11 1.9h31.5v146.45" transform="translate(200 54.598)" style="stroke:#c3c3c7;fill:none"/>
        </g>
        <g data-name="line">
            <path data-name="line" transform="translate(207 36)" style="fill:#c3c3c7" d="M0 0h56v1H0z"/>
            <path data-name="line" transform="rotate(-90 231 -32)" style="fill:#c3c3c7" d="M0 0h163v1H0z"/>
            <path data-name="&gt;" d="m0 0 8 5v1l-8 5z" transform="rotate(90 39 230)" style="fill:#c3c3c7"/>
        </g>
        <g data-name="no_set">
            <g data-name="no" transform="translate(233 108.255)">
                <circle data-name="타원 551" cx="10.5" cy="10.5" r="10.5" transform="translate(0 .745)" style="fill:#999fa7"/>
                <text data-name="6" transform="translate(11 16.745)" style="font-weight:700;font-family:Lato-Bold,Lato;fill:#fff;font-size:14px"><tspan x="-4.06" y="0">6</tspan></text>
            </g>
            <g data-name="no" transform="translate(254 129.255)">
                <circle data-name="타원 551" cx="10.5" cy="10.5" r="10.5" transform="translate(0 .745)" style="fill:#999fa7"/>
                <text data-name="7" transform="translate(11 16.745)" style="opacity:.9;font-weight:700;font-family:Lato-Bold,Lato;fill:#fff;font-size:14px"><tspan x="-4.06" y="0">7</tspan></text>
            </g>
        </g>
    </g>
    <g data-name="아래 줄">
        <g data-name="line">
            <path data-name="line" transform="rotate(180 95.5 128)" style="fill:#c3c3c7" d="M0 0h108v1H0z"/>
            <path data-name="&gt;" d="m0 0 8 5v1l-8 5z" transform="translate(190 250)" style="fill:#c3c3c7"/>
            <path data-name="&gt;" d="M8 0 0 5v1l8 5z" transform="translate(87 271)" style="fill:#c3c3c7"/>
            <path data-name="dot" d="M11 1.9h108.1" transform="translate(82 274.599)" style="stroke:#c3c3c7;fill:none"/>
        </g>
        <g data-name="no_set">
            <g data-name="no" transform="translate(122 244.255)">
                <circle data-name="타원 551" cx="10.5" cy="10.5" r="10.5" transform="translate(0 .745)" style="fill:#999fa7"/>
                <text data-name="3" transform="translate(11 16.745)" style="font-weight:700;font-family:Lato-Bold,Lato;fill:#fff;font-size:14px"><tspan x="-4.06" y="0">3</tspan></text>
            </g>
            <g data-name="no" transform="translate(143 265.255)">
                <circle data-name="타원 551" cx="10.5" cy="10.5" r="10.5" transform="translate(0 .745)" style="fill:#999fa7"/>
                <text data-name="4" transform="translate(11 16.745)" style="font-weight:700;font-family:Lato-Bold,Lato;fill:#fff;font-size:14px"><tspan x="-4.06" y="0">4</tspan></text>
            </g>
        </g>
    </g>
    <g style="filter:url(#srf9xb78sa)">
        <rect data-name="area" width="80" height="125" rx="8" transform="translate(3 203)" style="fill:#e7f8f4"/>
    </g>
    <g data-name="그룹 626076">
        <g data-name="그룹 626075">
            <path data-name="사각형 460952" d="M0 0h7a3 3 0 0 1 3 3v15a3 3 0 0 1-3 3H0V0z" transform="translate(46 249)" style="fill:#00a0a6"/>
        </g>
        <g data-name="그룹 626074">
            <path data-name="사각형 460951" d="M3 0h15a3 3 0 0 1 3 3v29H3a3 3 0 0 1-3-3V3a3 3 0 0 1 3-3z" transform="translate(26 238)" style="fill:#00c8d0"/>
            <g data-name="그룹 626102" transform="translate(2523 -6535)">
                <rect data-name="사각형 460953" width="4" height="6" rx="1" transform="translate(-2492 6778)" style="fill:#00a0a6"/>
                <rect data-name="사각형 460982" width="4" height="6" rx="1" transform="translate(-2485 6778)" style="fill:#00a0a6"/>
                <rect data-name="사각형 460983" width="4" height="6" rx="1" transform="translate(-2492 6787)" style="fill:#00a0a6"/>
                <rect data-name="사각형 460984" width="4" height="6" rx="1" transform="translate(-2485 6787)" style="fill:#00a0a6"/>
            </g>
        </g>
        <g data-name="그룹 626093">
            <path data-name="패스 2202" d="M22 9a9 9 0 1 1-9-9 9 9 0 0 1 9 9" transform="translate(39 253)" style="fill:#ffc02c"/>
            <path data-name="패스 2203" d="m11.5 9 1.25 6L15 10l2.25 5 1.25-6" style="stroke:#fff;stroke-linecap:round;stroke-linejoin:round;stroke-width:1.5px;fill:none" transform="translate(37 251)"/>
            <path data-name="선 9" transform="translate(47 262)" style="stroke:#fff;stroke-linecap:round;stroke-linejoin:round;stroke-width:1.5px;fill:none" d="M0 0h2"/>
            <path data-name="선 10" transform="translate(55 262)" style="stroke:#fff;stroke-linecap:round;stroke-linejoin:round;stroke-width:1.5px;fill:none" d="M0 0h2"/>
        </g>
        <text transform="translate(43 294)" style="font-family:AppleSDGothicNeo-Bold,Apple SD Gothic Neo;font-weight:700;font-size:14px"><tspan x="-30.275" y="0">분양사업자</tspan></text>
    </g>
    <g style="filter:url(#c22tyn9p6b)">
        <rect data-name="area" width="80" height="125" rx="8" transform="translate(202 203)" style="fill:#fff7de"/>
    </g>
    <g data-name="그룹 626077">
        <g data-name="그룹 626098">
            <g data-name="그룹 626095" transform="translate(2723 -6532)" style="opacity:.998">
                <path data-name="패스 2646" d="M3 0h13a10 10 0 0 1 10 10v18a3 3 0 0 1-3 3H3a3 3 0 0 1-3-3V3a3 3 0 0 1 3-3z" transform="translate(-2497 6772)" style="fill:#ff8217"/>
                <rect data-name="사각형 460953" width="13" height="1.5" rx=".75" transform="translate(-2493 6789)" style="fill:#fff"/>
                <rect data-name="사각형 460971" width="9" height="1.5" rx=".75" transform="translate(-2493 6793)" style="fill:#fff"/>
                <path data-name="패스 2641" d="M.295-8.237S2.129-9.6 2.826-10.086A.319.319 0 0 1 3-10.142a.332.332 0 0 1 .172.056c.628.42 2.542 1.849 2.542 1.849.26.21.286.237.286.548V-4.7a.561.561 0 0 1-.562.56H.563A.561.561 0 0 1 0-4.7v-2.989a.643.643 0 0 1 .295-.548z" transform="translate(-2493 6789.142)" style="fill:#fff"/>
            </g>
            <g data-name="그룹 626097">
                <path data-name="패스 2204" d="M16 4a4 4 0 1 1-4-4 4 4 0 0 1 4 4" transform="translate(239 254)" style="fill:#ffc02c"/>
                <path data-name="사각형 459205" d="M4 0h6a4 4 0 0 1 4 4v3a1 1 0 0 1-1 1H1a1 1 0 0 1-1-1V4a4 4 0 0 1 4-4z" transform="translate(244 263)" style="fill:#ffc02c"/>
            </g>
        </g>
        <text transform="translate(242 294)" style="font-family:AppleSDGothicNeo-Bold,Apple SD Gothic Neo;font-weight:700;font-size:14px"><tspan x="-24.22" y="0">수분양자</tspan></text>
    </g>
    <g>
        <g style="filter:url(#4cmvv4ya1c)">
            <rect data-name="사각형 460866" width="128" height="80" rx="8" transform="translate(79 6)" style="fill:#4bacff"/>
        </g>
        <g data-name="그룹 626070">
            <text data-name="SGI 서울보증" transform="translate(143 68)" style="font-family:AppleSDGothicNeo-Bold,Apple SD Gothic Neo;font-weight:700;fill:#fff;font-size:14px"><tspan x="-36.442" y="0">SGI 서울보증</tspan></text>
            <path data-name="패스 1353" d="M0 21.77a18.293 18.293 0 0 0 6.75 2.69c5.078 1.04 10.99.7 11.022-3.426V17.76h-4.089v3.567c-2.647.228-5-1.094-5.154-3.582a3.649 3.649 0 0 1 1.952-3.454c2.13-1.2 5.979-1.1 8.972.476 6.257 3.285 5.778 11 .265 14.025C13.018 32.47 2.43 29.838 0 28.8z" transform="translate(131 16.315)" style="fill:#003174"/>
            <path data-name="패스 1354" d="M22.91 9.793c-6.492-3.287-13.422-2.385-16.2-.136-3.1 2.509-3.161 6.662-.907 8.69-6.367-2.194-6.417-7.953-4.682-10.735C3.946 3.071 13.6.913 22.91 4.56z" transform="translate(130.972 18.283)" style="fill:#e60c19"/>
        </g>
    </g>
</svg>
