<svg xmlns="http://www.w3.org/2000/svg" width="444" height="258" viewBox="0 0 444 258">
    <g transform="translate(39 70.282)">
        <circle data-name="타원 561" cx="20.5" cy="20.5" r="20.5" transform="translate(51 -65.282)" style="fill:#e3e6fb"/>
        <circle data-name="타원 562" cx="50" cy="50" r="50" transform="translate(-12 44.718)" style="fill:#fbf0e3"/>
    </g>
    <g data-name="그룹 959">
        <g data-name="사각형 463052" style="stroke-width:3px;stroke-linecap:round;stroke-linejoin:round;stroke:#222;fill:#fff">
            <path style="stroke:none" d="M0 0h97v194H0z" transform="translate(112 63)"/>
            <path style="fill:none" d="M1.5 1.5h94v191h-94z" transform="translate(112 63)"/>
        </g>
        <g data-name="사각형 393" style="stroke-width:3px;stroke-linecap:round;stroke-linejoin:round;stroke:#222;fill:#fff">
            <path style="stroke:none" d="M0 0h58v15H0z" transform="translate(131 51)"/>
            <path style="fill:none" d="M1.5 1.5h55v12h-55z" transform="translate(131 51)"/>
        </g>
        <g data-name="그룹 631434" transform="translate(133.308 85.115)">
            <rect data-name="사각형 462996" width="54.238" height="19.371" rx="2" style="fill:#e4e4e4"/>
        </g>
        <g data-name="그룹 631434" transform="translate(133.308 123.857)">
            <rect data-name="사각형 462996" width="19.371" height="19.371" rx="2" style="fill:#e4e4e4"/>
        </g>
        <g data-name="그룹 631434" transform="translate(133.308 162.599)">
            <rect data-name="사각형 462996" width="19.371" height="19.371" rx="2" style="fill:#e4e4e4"/>
            <rect data-name="사각형 463053" width="19.371" height="19.371" rx="2" transform="translate(34.868)" style="fill:#e4e4e4"/>
        </g>
        <g data-name="그룹 631434" transform="translate(133.308 201.34)">
            <rect data-name="사각형 462996" width="19.371" height="19.371" rx="2" style="fill:#e4e4e4"/>
            <rect data-name="사각형 463053" width="19.371" height="19.371" rx="2" transform="translate(34.868)" style="fill:#e4e4e4"/>
        </g>
    </g>
    <g data-name="그룹 631437">
        <g data-name="사각형 463052" style="stroke-width:3px;stroke-linecap:round;stroke-linejoin:round;stroke:#222;fill:#fff">
            <path style="stroke:none" d="M0 0h97v194H0z" transform="translate(235 63)"/>
            <path style="fill:none" d="M1.5 1.5h94v191h-94z" transform="translate(235 63)"/>
        </g>
        <g data-name="사각형 393" style="stroke-width:3px;stroke-linecap:round;stroke-linejoin:round;stroke:#222;fill:#fff">
            <path style="stroke:none" d="M0 0h58v15H0z" transform="translate(254 51)"/>
            <path style="fill:none" d="M1.5 1.5h55v12h-55z" transform="translate(254 51)"/>
        </g>
        <g data-name="창">
            <g data-name="그룹 631434" transform="translate(256.282 85.115)">
                <rect data-name="사각형 462996" width="54.238" height="19.371" rx="2" style="fill:#e4e4e4"/>
            </g>
            <g data-name="그룹 631434" transform="translate(291.15 123.857)">
                <rect data-name="사각형 463053" width="19.371" height="19.371" rx="2" style="fill:#e4e4e4"/>
            </g>
            <g data-name="그룹 631434" transform="translate(256.282 162.599)">
                <rect data-name="사각형 462996" width="19.371" height="19.371" rx="2" style="fill:#e4e4e4"/>
                <rect data-name="사각형 463053" width="19.371" height="19.371" rx="2" transform="translate(34.868)" style="fill:#e4e4e4"/>
            </g>
            <g data-name="그룹 631434" transform="translate(256.282 201.34)">
                <rect data-name="사각형 462996" width="19.371" height="19.371" rx="2" style="fill:#e4e4e4"/>
                <rect data-name="사각형 463053" width="19.371" height="19.371" rx="2" transform="translate(34.868)" style="fill:#e4e4e4"/>
            </g>
        </g>
    </g>
    <g data-name="사각형 463052" style="fill:#b8e6f7;stroke-width:3px;stroke-linecap:round;stroke-linejoin:round;stroke:#222">
        <path style="stroke:none" d="M0 0h126v115H0z" transform="translate(158.505 142)"/>
        <path style="fill:none" d="M1.5 1.5h123v112H1.5z" transform="translate(158.505 142)"/>
    </g>
    <g data-name="사각형 393" style="fill:#e4e4e4;stroke-width:3px;stroke-linecap:round;stroke-linejoin:round;stroke:#222">
        <path style="stroke:none" d="M0 0h96.854v21.308H0z" transform="translate(173.492 122.888)"/>
        <path style="fill:none" d="M1.5 1.5h93.854v18.308H1.5z" transform="translate(173.492 122.888)"/>
    </g>
    <g data-name="창">
        <g data-name="그룹 631434">
            <g data-name="사각형 462996" style="fill:#e9f6fd;stroke-width:3px;stroke:#222" transform="translate(173.505 156)">
                <rect width="19" height="35" rx="2" style="stroke:none"/>
                <rect x="1.5" y="1.5" width="16" height="32" rx=".5" style="fill:none"/>
            </g>
            <g data-name="사각형 463053" transform="translate(199.32 156.303)" style="fill:#e9f6fd;stroke-width:3px;stroke:#222">
                <rect width="19.371" height="34.868" rx="2" style="stroke:none"/>
                <rect x="1.5" y="1.5" width="16.371" height="31.868" rx=".5" style="fill:none"/>
            </g>
            <g data-name="사각형 463054" transform="translate(225.148 156.303)" style="fill:#e9f6fd;stroke-width:3px;stroke:#222">
                <rect width="19.371" height="34.868" rx="2" style="stroke:none"/>
                <rect x="1.5" y="1.5" width="16.371" height="31.868" rx=".5" style="fill:none"/>
            </g>
            <g data-name="사각형 463055" transform="translate(250.505 156)" style="fill:#e9f6fd;stroke-width:3px;stroke:#222">
                <rect width="20" height="35" rx="2" style="stroke:none"/>
                <rect x="1.5" y="1.5" width="17" height="32" rx=".5" style="fill:none"/>
            </g>
        </g>
    </g>
    <g data-name="사각형 463056" style="stroke-width:3px;stroke-linecap:round;stroke-linejoin:round;stroke:#222;fill:#fff">
        <path style="stroke:none" d="M0 0h58.112v47.943H0z" transform="translate(192.863 210.057)"/>
        <path style="fill:none" d="M1.5 1.5h55.112v44.943H1.5z" transform="translate(192.863 210.057)"/>
    </g>
    <path data-name="선 1901" transform="translate(222.403 211.994)" style="stroke-width:3px;stroke-linecap:round;stroke-linejoin:round;stroke:#222;fill:#fff" d="M0 43.585V0"/>
    <g data-name="사각형 463057" style="stroke-width:3px;stroke-linecap:round;stroke-linejoin:round;stroke:#222;fill:#fff">
        <path style="stroke:none" d="M0 0h63.924v8.717H0z" transform="translate(189.957 206.183)"/>
        <path style="fill:none" d="M1.5 1.5h60.924v5.717H1.5z" transform="translate(189.957 206.183)"/>
    </g>
    <g transform="translate(266.925 .926)">
        <circle data-name="타원 953" cx="70" cy="70" r="70" transform="translate(1.075 -.925)" style="fill:#dcf5fb"/>
        <g data-name="그룹 628726">
            <g data-name="그룹 628723">
                <path data-name="패스 7723" d="m325.317 130.731-30.842-30.05a4.977 4.977 0 0 0-7.111-.272l-3.832 3.754-8.727-8.48-19.717 19.209 8.881 8.677a9.643 9.643 0 0 0 2.4 4.892l25.153 24.508a5.11 5.11 0 0 0 3.377 1.319 4.91 4.91 0 0 0 4.988-4.93 4.75 4.75 0 0 0-.349-1.761l.38-.206 1.525 1.505a5.1 5.1 0 0 0 3.375 1.326 4.881 4.881 0 0 0 4.087-7.706l2.363 2.1a5.088 5.088 0 0 0 3.374 1.321 4.9 4.9 0 0 0 3.676-8.236 5.077 5.077 0 0 0 3.344 1.3 4.916 4.916 0 0 0 4.992-4.93 4.973 4.973 0 0 0-1.337-3.34z" transform="translate(-225.569 -45.519)" style="stroke-miterlimit:10;stroke-width:3px;stroke:#222;fill:#fff"/>
                <path data-name="선 1415" transform="translate(79.432 79.201)" style="fill:none;stroke-miterlimit:10;stroke-width:3px;stroke:#222" d="M13.322 12.979 0 0"/>
                <path data-name="선 1416" transform="translate(72.253 86.196)" style="fill:none;stroke-miterlimit:10;stroke-width:3px;stroke:#222" d="M11.089 10.802 0 0"/>
                <path data-name="선 1417" transform="translate(65.257 93.013)" style="fill:none;stroke-miterlimit:10;stroke-width:3px;stroke:#222" d="m0 0 9.098 8.859"/>
                <path data-name="패스 7724" d="m250 111.81 21.715-21.158 7.506 7.315-21.715 21.156z" transform="translate(-228.925 -48.836)" style="stroke:#383a3a;fill:#afdae9;stroke-miterlimit:10;stroke-width:3px"/>
                <path data-name="패스 7725" d="M265.058 96.73a1.7 1.7 0 0 1-2.36 0 1.6 1.6 0 0 1 0-2.3 1.7 1.7 0 0 1 2.36 0 1.6 1.6 0 0 1 0 2.3z" transform="translate(-220.874 -46.659)" style="fill:#383a3a"/>
            </g>
            <g data-name="그룹 628724">
                <path data-name="패스 7726" d="m276.96 101.8-.337.332.34-.332z" transform="translate(-211.369 -41.483)" style="stroke-width:2px;stroke:#383a3a;stroke-miterlimit:10;fill:#fff"/>
                <path data-name="사각형 461836" transform="translate(63.909 60.317)" style="stroke-width:2px;stroke:#383a3a;stroke-miterlimit:10;fill:#fff" d="M0 0h1.684v.004H0z"/>
                <path data-name="패스 7727" d="m309.712 94.23-8.387 8.169-3.777-3.739a5.593 5.593 0 0 0-3.8-1.415h-20.24a4.777 4.777 0 1 0 0 9.552h17.27l23.185 22.6 3.767-3.669a10.543 10.543 0 0 0 2.546-4.557l8.541-8.322z" transform="translate(-216.651 -46.477)" style="stroke-miterlimit:10;stroke-width:3px;stroke:#222;fill:#fff"/>
                <path data-name="패스 7728" d="M314.072 117.275 292.51 96.268 299.972 89l21.561 21.005z" transform="translate(-200.893 -49.926)" style="fill:#afdae9;stroke-miterlimit:10;stroke-width:3px;stroke:#222"/>
                <path data-name="패스 7729" d="M298.808 94.987a1.693 1.693 0 0 1-2.358 0 1.6 1.6 0 0 1 0-2.3 1.7 1.7 0 0 1 2.358 0 1.6 1.6 0 0 1 0 2.3z" transform="translate(-198.617 -47.807)" style="fill:#383a3a"/>
            </g>
            <g data-name="그룹 628725">
                <path data-name="패스 7730" d="M285.565 126.068a5.045 5.045 0 0 0-3.277 1.359 4.8 4.8 0 0 0 1.391-3.2 4.376 4.376 0 0 0-4.6-4.484 5.021 5.021 0 0 0-3.252 1.336 4.793 4.793 0 0 0 1.374-3.174 4.38 4.38 0 0 0-4.6-4.484 5.052 5.052 0 0 0-3.282 1.357 4.78 4.78 0 0 0 1.4-3.2 4.38 4.38 0 0 0-4.6-4.482 5.06 5.06 0 0 0-3.488 1.558l-3.536 3.448-1.922 1.873a3.685 3.685 0 0 0-.149 5.282l20.652 20.143a3.913 3.913 0 0 0 5.418-.143l1.925-1.875 3.412-3.32a4.823 4.823 0 0 0 1.734-3.513 4.371 4.371 0 0 0-4.6-4.481z" transform="translate(-224.991 -37.99)" style="stroke-miterlimit:10;stroke-width:3px;stroke:#222;fill:#fff"/>
                <path data-name="선 1418" transform="translate(52.849 89.437)" style="stroke-miterlimit:10;stroke-width:3px;stroke:#222;fill:#fff" d="M4.448 0 0 4.333"/>
                <path data-name="선 1419" transform="translate(46.326 83.094)" style="stroke-miterlimit:10;stroke-width:3px;stroke:#222;fill:#fff" d="M4.505 0 0 4.387"/>
                <path data-name="선 1420" transform="translate(39.837 76.793)" style="stroke-miterlimit:10;stroke-width:3px;stroke:#222;fill:#fff" d="M4.482 0 0 4.366"/>
            </g>
        </g>
    </g>
    <path data-name="선 381" transform="translate(42.5 256.432)" style="fill:none;stroke-width:3px;stroke-linecap:round;stroke-linejoin:round;stroke:#222" d="M0 0h360"/>
</svg>
