<svg xmlns="http://www.w3.org/2000/svg" width="285" height="318" viewBox="0 0 285 318">
    <defs>
        <filter id="b33ay1y61a" x="76" y="0" width="134" height="86" filterUnits="userSpaceOnUse">
            <feOffset dy="1"/>
            <feGaussianBlur stdDeviation="1" result="blur"/>
            <feFlood flood-opacity=".161"/>
            <feComposite operator="in" in2="blur"/>
            <feComposite in="SourceGraphic"/>
        </filter>
        <filter id="vgg2vp6nrb" x="0" y="187" width="86" height="131" filterUnits="userSpaceOnUse">
            <feOffset dy="1"/>
            <feGaussianBlur stdDeviation="1" result="blur-2"/>
            <feFlood flood-opacity=".161"/>
            <feComposite operator="in" in2="blur-2"/>
            <feComposite in="SourceGraphic"/>
        </filter>
        <filter id="f5ho5l9ehc" x="199" y="187" width="86" height="131" filterUnits="userSpaceOnUse">
            <feOffset dy="1"/>
            <feGaussianBlur stdDeviation="1" result="blur-3"/>
            <feFlood flood-opacity=".161"/>
            <feComposite operator="in" in2="blur-3"/>
            <feComposite in="SourceGraphic"/>
        </filter>
    </defs>
    <g data-name="왼 줄">
        <path data-name="line" transform="translate(43 42)" style="fill:#c3c3c7" d="M0 0h36v1H0z"/>
        <path data-name="&gt;" d="m0 0 8 5v1l-8 5z" transform="rotate(90 -64 113)" style="fill:#c3c3c7"/>
        <g data-name="line">
            <path data-name="line" transform="translate(22 21)" style="fill:#c3c3c7" d="M0 0h52v1H0z"/>
            <path data-name="&gt;" d="m0 0 8 5v1l-8 5z" transform="translate(67 16)" style="fill:#c3c3c7"/>
        </g>
        <g data-name="그룹 626081">
            <path data-name="line" transform="rotate(-90 114 71)" style="fill:#c3c3c7" d="M0 0h143v1H0z"/>
            <path data-name="line" transform="rotate(-90 105.5 83.5)" style="fill:#c3c3c7" d="M0 0h168v1H0z"/>
        </g>
        <g>
            <g transform="translate(11 92.255)">
                <circle data-name="타원 551" cx="10.5" cy="10.5" r="10.5" transform="translate(1 .745)" style="fill:#999fa7"/>
                <text data-name="7" transform="translate(12 16.745)" style="font-weight:700;font-family:Lato-Bold,Lato;font-size:14px;fill:#fff"><tspan x="-4.06" y="0">7</tspan></text>
            </g>
            <g data-name="no" transform="translate(33 113.255)">
                <circle data-name="타원 551" cx="10.5" cy="10.5" r="10.5" transform="translate(0 .745)" style="fill:#999fa7"/>
                <text data-name="8" transform="translate(11 16.745)" style="font-weight:700;font-family:Lato-Bold,Lato;font-size:14px;fill:#fff"><tspan x="-4.06" y="0">8</tspan></text>
            </g>
        </g>
    </g>
    <g data-name="오른 줄">
        <g data-name="line">
            <path data-name="line" transform="translate(207 63)" style="fill:#c3c3c7" d="M0 0h15v1H0z"/>
            <path data-name="line" transform="rotate(-90 203.5 -18.5)" style="fill:#c3c3c7" d="M0 0h122v1H0z"/>
            <path data-name="&gt;" d="m0 0 8 5v1l-8 5z" transform="rotate(90 25.5 202.5)" style="fill:#c3c3c7"/>
        </g>
        <g data-name="line">
            <path data-name="line" transform="translate(207 42)" style="fill:#c3c3c7" d="M0 0h36v1H0z"/>
            <path data-name="line" transform="rotate(-90 213.5 -28.5)" style="fill:#c3c3c7" d="M0 0h143v1H0z"/>
            <path data-name="&gt;" d="m0 0 8 5v1l-8 5z" transform="rotate(90 35.5 212.5)" style="fill:#c3c3c7"/>
        </g>
        <g data-name="line">
            <path data-name="line" style="fill:#c3c3c7" d="M0 0h47v1H0z" transform="translate(216 22)"/>
            <path data-name="line" transform="rotate(-90 226 -37)" style="fill:#c3c3c7" d="M0 0h167v1H0z"/>
            <path data-name="&gt;" d="m0 0 8 5v1l-8 5z" transform="rotate(180 109.5 14)" style="fill:#c3c3c7"/>
        </g>
        <g data-name="no_set">
            <g data-name="no" transform="translate(212 92.255)">
                <circle data-name="타원 551" cx="10.5" cy="10.5" r="10.5" transform="translate(0 .745)" style="fill:#999fa7"/>
                <text data-name="9" transform="translate(11 16.745)" style="font-weight:700;font-family:Lato-Bold,Lato;font-size:14px;fill:#fff"><tspan x="-4.06" y="0">9</tspan></text>
            </g>
            <g data-name="no" transform="translate(233 113.255)">
                <circle data-name="타원 551" cx="10.5" cy="10.5" r="10.5" transform="translate(0 .745)" style="fill:#999fa7"/>
                <text data-name="3" transform="translate(11 16.745)" style="font-weight:700;font-family:Lato-Bold,Lato;font-size:14px;fill:#fff"><tspan x="-4.06" y="0">3</tspan></text>
            </g>
            <g data-name="no" transform="translate(254 134.255)">
                <circle data-name="타원 551" cx="10.5" cy="10.5" r="10.5" transform="translate(0 .745)" style="fill:#999fa7"/>
                <text data-name="2" transform="translate(11 16.745)" style="opacity:.9;font-weight:700;font-family:Lato-Bold,Lato;font-size:14px;fill:#fff"><tspan x="-4.06" y="0">2</tspan></text>
            </g>
        </g>
    </g>
    <g data-name="아래 줄">
        <g data-name="line">
            <path data-name="line" transform="rotate(180 99 110.5)" style="fill:#43495a" d="M0 0h115v1H0z"/>
            <path data-name="line" transform="rotate(180 101 121)" style="fill:#c3c3c7" d="M0 0h115v1H0z"/>
            <path data-name="line" transform="rotate(180 99 131.5)" style="fill:#c3c3c7" d="M0 0h115v1H0z"/>
            <path data-name="line" transform="rotate(180 101 142)" style="fill:#c3c3c7" d="M0 0h115v1H0z"/>
            <path data-name="&gt;" d="m0 0 8 5v1l-8 5z" transform="translate(190 215)" style="fill:#43495a"/>
            <path data-name="&gt;" d="M8 0 0 5v1l8 5z" transform="translate(87 236)" style="fill:#c3c3c7"/>
            <path data-name="&gt;" d="m0 0 8 5v1l-8 5z" transform="translate(190 257)" style="fill:#c3c3c7"/>
            <path data-name="&gt;" d="M8 0 0 5v1l8 5z" transform="translate(87 278)" style="fill:#c3c3c7"/>
            <text transform="translate(148 216)" style="font-family:AppleSDGothicNeo-Regular,Apple SD Gothic Neo;fill:#43495a;font-size:14px"><tspan x="0" y="0">START</tspan></text>
        </g>
        <g data-name="no_set">
            <g data-name="no" transform="translate(104 209.255)">
                <circle data-name="타원 551" cx="10.5" cy="10.5" r="10.5" transform="translate(0 .745)" style="fill:#999fa7"/>
                <text data-name="1" transform="translate(11 16.745)" style="font-weight:700;font-family:Lato-Bold,Lato;font-size:14px;fill:#fff"><tspan x="-4.06" y="0">1</tspan></text>
            </g>
            <g data-name="no" transform="translate(125 230.255)">
                <circle data-name="타원 551" cx="10.5" cy="10.5" r="10.5" transform="translate(0 .745)" style="fill:#999fa7"/>
                <text data-name="4" transform="translate(11 16.745)" style="font-weight:700;font-family:Lato-Bold,Lato;font-size:14px;fill:#fff"><tspan x="-4.06" y="0">4</tspan></text>
            </g>
            <g data-name="no" transform="translate(146 251.255)">
                <circle data-name="타원 551" cx="10.5" cy="10.5" r="10.5" transform="translate(0 .745)" style="fill:#999fa7"/>
                <text data-name="5" transform="translate(11 16.745)" style="font-weight:700;font-family:Lato-Bold,Lato;font-size:14px;fill:#fff"><tspan x="-4.06" y="0">5</tspan></text>
            </g>
            <g data-name="no" transform="translate(167 272.255)">
                <circle data-name="타원 551" cx="10.5" cy="10.5" r="10.5" transform="translate(0 .745)" style="fill:#999fa7"/>
                <text data-name="6" transform="translate(11 16.745)" style="font-weight:700;font-family:Lato-Bold,Lato;font-size:14px;fill:#fff"><tspan x="-4.06" y="0">6</tspan></text>
            </g>
        </g>
    </g>
    <g style="filter:url(#b33ay1y61a)">
        <rect data-name="사각형 460866" width="128" height="80" rx="8" transform="translate(79 2)" style="fill:#4bacff"/>
    </g>
    <g data-name="그룹 626070">
        <text data-name="SGI 서울보증" transform="translate(143 64)" style="font-family:AppleSDGothicNeo-Bold,Apple SD Gothic Neo;font-weight:700;font-size:14px;fill:#fff"><tspan x="-36.442" y="0">SGI 서울보증</tspan></text>
        <path data-name="패스 1353" d="M0 21.77a18.293 18.293 0 0 0 6.75 2.69c5.078 1.04 10.99.7 11.022-3.426V17.76h-4.089v3.567c-2.647.228-5-1.094-5.154-3.582a3.649 3.649 0 0 1 1.952-3.454c2.13-1.2 5.979-1.1 8.972.476 6.257 3.285 5.778 11 .265 14.025C13.018 32.47 2.43 29.838 0 28.8z" transform="translate(131 12.315)" style="fill:#003174"/>
        <path data-name="패스 1354" d="M22.91 9.793c-6.492-3.287-13.422-2.385-16.2-.136-3.1 2.509-3.161 6.662-.907 8.69-6.367-2.194-6.417-7.953-4.682-10.735C3.946 3.071 13.6.913 22.91 4.56z" transform="translate(130.972 14.283)" style="fill:#e60c19"/>
    </g>
    <g style="filter:url(#vgg2vp6nrb)">
        <rect data-name="area" width="80" height="125" rx="8" transform="translate(3 189)" style="fill:#e7f8f4"/>
    </g>
    <g data-name="그룹 626076">
        <text data-name="법원" transform="translate(43 270)" style="font-family:AppleSDGothicNeo-Bold,Apple SD Gothic Neo;font-weight:700;font-size:14px"><tspan x="-12.11" y="0">법원</tspan></text>
        <g data-name="그룹 626091" transform="translate(-3946 -3687.531)">
            <path data-name="합치기 12" d="M6 33V12H3a1 1 0 0 1-1-1V9c0-.553.514-.7 1-1l14.8-7L33 8c.648.344 1 .447 1 1v2a1 1 0 0 1-1 1h-3v21z" transform="translate(3971 3899.531)" style="fill:#00c8d0"/>
            <g data-name="그룹 626099">
                <path data-name="사각형 460969" transform="translate(3981 3914.531)" style="fill:#e7f8f4" d="M0 0h3v12H0z"/>
                <path data-name="사각형 460969" transform="translate(3987.5 3914.531)" style="fill:#e7f8f4" d="M0 0h3v12H0z"/>
                <path data-name="사각형 460969" transform="translate(3994 3914.531)" style="fill:#e7f8f4" d="M0 0h3v12H0z"/>
            </g>
            <circle data-name="타원 554" cx="3" cy="3" r="3" transform="translate(3986 3904.531)" style="opacity:.2"/>
            <rect data-name="사각형 460970" width="32" height="4" rx="1" transform="translate(3973 3928.531)" style="fill:#00a0a7"/>
        </g>
    </g>
    <g>
        <g style="filter:url(#f5ho5l9ehc)">
            <rect data-name="area" width="80" height="125" rx="8" transform="translate(202 189)" style="fill:#e6f2ff"/>
        </g>
        <g data-name="그룹 626077">
            <text data-name="경매 참가자" transform="translate(242 270)" style="font-family:AppleSDGothicNeo-Bold,Apple SD Gothic Neo;font-weight:700;font-size:14px"><tspan x="-12.11" y="0">경매</tspan><tspan x="-18.165" y="20">참가자</tspan></text>
            <g data-name="그룹 626089" transform="translate(-3856 -3752)">
                <rect data-name="사각형 460966" width="4" height="8" rx="1" transform="translate(4096 3992)" style="fill:#2b3d6f"/>
                <circle data-name="타원 552" cx="15" cy="15" r="15" transform="translate(4083 3963)" style="fill:#4199f7"/>
                <g data-name="타원 553" transform="translate(4085 3965)" style="stroke:#1772d3;stroke-width:1.5px;opacity:.797;fill:none">
                    <circle cx="13" cy="13" r="13" style="stroke:none"/>
                    <circle cx="13" cy="13" r="12.25" style="fill:none"/>
                </g>
                <g data-name="그룹 626101">
                    <path data-name="사각형 460974" transform="translate(4097 3975)" style="fill:#fff" d="M0 0h1.5v7H0z"/>
                    <path data-name="빼기 1" d="M308.5 28H307v-7h1.5a3.5 3.5 0 0 1 0 7zm0-5.5v4a2 2 0 0 0 0-4z" transform="translate(3793.5 3954)" style="fill:#fff"/>
                    <g data-name="그룹 626101">
                        <path data-name="빼기 2" d="M310 25h-3v-4h3a2 2 0 0 1 0 4zm-1.5-2.5V24h1.25a.75.75 0 0 0 0-1.5h-1.25z" transform="translate(3783.5 3954)" style="fill:#fff"/>
                        <path data-name="빼기 3" d="M310 25h-3v-4h3a2 2 0 0 1 0 4zm-1.5-3v1.5h1.25a.75.75 0 0 0 0-1.5h-1.25z" transform="translate(3783.5 3957)" style="fill:#fff"/>
                    </g>
                </g>
            </g>
        </g>
    </g>
</svg>
