<svg xmlns="http://www.w3.org/2000/svg" width="444" height="221" viewBox="0 0 444 221">
    <g transform="translate(39 33.282)">
        <circle data-name="타원 561" cx="16" cy="16" r="16" transform="translate(327 -33.282)" style="fill:#dcf5fb"/>
        <circle data-name="타원 1221" cx="26" cy="26" r="26" transform="translate(353 77.718)" style="fill:#fbf0e3"/>
        <circle data-name="타원 562" cx="55.5" cy="55.5" r="55.5" transform="translate(-39 -33.282)" style="fill:#fbf0e3"/>
    </g>
    <path data-name="선 223" transform="translate(42.5 219.312)" style="stroke-width:3px;stroke-linecap:round;stroke-linejoin:round;stroke:#222;fill:none" d="M0 0h360"/>
    <g transform="translate(-157 12.187)">
        <g data-name="사각형 740" transform="translate(227 50.624)" style="stroke-width:3.004px;fill:#e6eaed;stroke-linecap:round;stroke-linejoin:round;stroke:#222">
            <rect width="88" height="157.501" rx="14.718" style="stroke:none"/>
            <rect x="1.502" y="1.502" width="84.996" height="154.497" rx="13.216" style="fill:none"/>
        </g>
        <rect data-name="사각형 742" width="22.794" height="4.896" rx="2.448" transform="translate(259.97 59.193)" style="fill:#fff;stroke-width:3.004px;stroke-linecap:round;stroke-linejoin:round;stroke:#222"/>
        <g data-name="사각형 462995" style="fill:#fff;stroke-width:3px;stroke:#222">
            <path style="stroke:none" d="M0 0h88v119H0z" transform="translate(227 70.813)"/>
            <path style="fill:none" d="M1.5 1.5h85v116h-85z" transform="translate(227 70.813)"/>
        </g>
        <path data-name="패스 8038" d="M144.688 117.611a6.34 6.34 0 0 1-1.563-1.1v-11.034c0-2.941.824-5.485 2.989-6.273l9.231-3.274a8.22 8.22 0 0 0 .627-3.345 12.925 12.925 0 0 0-1.783-6.493 10.343 10.343 0 0 0-5.652-4.532l-25.279-7.873 6.594-2.351a3.88 3.88 0 0 1 2.416 0l25.8 8.029a8.352 8.352 0 0 1 4.583 4 12.394 12.394 0 0 1 1.582 5.726c0 2.347-.8 5.052-3.308 5.959-2.225.806-8.9 3.191-8.9 3.191a9.642 9.642 0 0 0-.634 4.03c0 1.353-.02 8.636-.02 9.944a7.528 7.528 0 0 1-1.12 4.157 3.855 3.855 0 0 1-3.3 1.812 5.149 5.149 0 0 1-2.263-.573z" transform="translate(130.596 33.007)" style="fill:#ee731c"/>
        <path data-name="패스 8039" d="M131.295 94.717a12.555 12.555 0 0 1 2.01 6.676v9.258c0 5.729 2.671 10.4 7.073 11.732l-6.793 2.327a3.61 3.61 0 0 1-1.779.139 4.675 4.675 0 0 1-1.722-.666 10.235 10.235 0 0 1-3.562-3.715 13.522 13.522 0 0 1-1.484-6.648c0-2.356-.017-5.573-.017-9.718a12.463 12.463 0 0 0-2.581-7.163 8.859 8.859 0 0 0-4.268-3.114 8.248 8.248 0 0 1-3.713-2.9 11.594 11.594 0 0 1-2.327-6.815 7.015 7.015 0 0 1 1.452-4.612 4.138 4.138 0 0 1 2.888-1.486 3.746 3.746 0 0 1 1.416.192c1.472.443 2.661.847 2.661.847-.823 4.2 1.649 10.651 6.635 12.4a7.635 7.635 0 0 1 4.111 3.266z" transform="translate(135.869 29.752)" style="fill:#dd0034"/>
    </g>
    <g data-name="핸드폰" transform="translate(-49 12.187)">
        <g data-name="사각형 740" transform="translate(227 50.624)" style="stroke-width:3.004px;fill:#e6eaed;stroke-linecap:round;stroke-linejoin:round;stroke:#222">
            <rect width="88" height="157.501" rx="14.718" style="stroke:none"/>
            <rect x="1.502" y="1.502" width="84.996" height="154.497" rx="13.216" style="fill:none"/>
        </g>
        <rect data-name="사각형 742" width="22.794" height="4.896" rx="2.448" transform="translate(259.97 59.193)" style="fill:#fff;stroke-width:3.004px;stroke-linecap:round;stroke-linejoin:round;stroke:#222"/>
        <g data-name="사각형 462995" style="fill:#fff;stroke-width:3px;stroke:#222">
            <path style="stroke:none" d="M0 0h88v119H0z" transform="translate(227 70.813)"/>
            <path style="fill:none" d="M1.5 1.5h85v116h-85z" transform="translate(227 70.813)"/>
        </g>
        <path data-name="패스 10598" d="M447.252 392.54a57.288 57.288 0 0 0 .357-6.757c0-2.568.25-4.585-.353-7.029a3.012 3.012 0 0 0-2.778-2.443h-9a7.092 7.092 0 0 1 1.07 3.422c.175 2.187.259 3.818.259 6.051 0 2.206-.084 3.565-.259 5.726-.313 3.931-2.652 6.065-8 6.169-.141.005-1.711.005-1.856.005-5.66 0-8.125-2.141-8.448-6.182-.176-2.161-.279-3.513-.279-5.719 0-2.233.1-3.826.279-6.007.33-4.093 2.75-6.229 8.448-6.229v-.026h11.038a31.2 31.2 0 0 0 8.058-.868 2.245 2.245 0 0 0 1.855-2.3v-7.282s-2.511 1.547-9.912 1.547h-10.55v.029c-14.119.07-18.894 6.551-19.641 14.125a64 64 0 0 0 0 13.747c.7 7.6 5.6 14.07 19.866 14.07 14.235 0 19.061-6.471 19.844-14.046" transform="translate(-156.172 -254.255)" style="fill:#e50019"/>
    </g>
    <g data-name="핸드폰" transform="translate(59 12.187)">
        <g data-name="사각형 740" transform="translate(227 50.624)" style="stroke-width:3.004px;fill:#e6eaed;stroke-linecap:round;stroke-linejoin:round;stroke:#222">
            <rect width="88" height="157.501" rx="14.718" style="stroke:none"/>
            <rect x="1.502" y="1.502" width="84.996" height="154.497" rx="13.216" style="fill:none"/>
        </g>
        <rect data-name="사각형 742" width="22.794" height="4.896" rx="2.448" transform="translate(259.97 59.193)" style="fill:#fff;stroke-width:3.004px;stroke-linecap:round;stroke-linejoin:round;stroke:#222"/>
        <g data-name="사각형 462995" style="fill:#fff;stroke-width:3px;stroke:#222">
            <path style="stroke:none" d="M0 0h88v119H0z" transform="translate(227 70.813)"/>
            <path style="fill:none" d="M1.5 1.5h85v116h-85z" transform="translate(227 70.813)"/>
        </g>
        <g data-name="그룹 629766">
            <path data-name="패스 8050" d="m427.531 77.453-6.167-4.346s-5.1-3.584-5.092-3.577c-2.417-1.716-5.806-1.231-7.619-.832l-20 4.5a6.543 6.543 0 0 0-4.887 6.1v19.486a6.546 6.546 0 0 0 4.887 6.1l20 4.506a12.877 12.877 0 0 0 8.98-1.781l9.9-6.976c2.593-1.816 3.072-3.282 3.072-5.906V83.359c-.005-2.7-.455-4.078-3.074-5.906z" transform="translate(-135.763 41.497)" style="fill:#d2006a"/>
            <path data-name="패스 8051" d="M420.772 77.645v.639l-5.168-2.66a4.017 4.017 0 0 0-2.111-.333l-5.82.95a1.526 1.526 0 0 0-1.235 1.46v16.436c0 3.366-2.294 4.188-4.82 3.945l-3.6-.349c-2.756-.269-3.777-2.3-3.777-4.688V79.7a1.035 1.035 0 0 0-1.235-1.059l-3.21.52a1.525 1.525 0 0 0-1.237 1.457v13.035c0 5.48 3.478 8.489 9.709 9.432l4.513.7c6.608 1 11.819-2.163 11.819-9.724V82.9l6.168 1.589v6.525a1.124 1.124 0 0 0 1.245 1.145l2.229-.173a1.4 1.4 0 0 0 1.246-1.368V85.7l3.245.836a.553.553 0 0 0 .725-.566v-2.461a1.364 1.364 0 0 0-.666-1.1l-3.3-1.7v-.847A6.6 6.6 0 0 0 423 74.239c-.077-.064-.022-.136.06-.089l-5.084-3.607h-.011c1.62 1.145 2.807 3.284 2.807 7.102z" transform="translate(-138.336 40.305)" style="fill:#fff"/>
        </g>
    </g>
</svg>
