<svg xmlns="http://www.w3.org/2000/svg" width="444" height="246" viewBox="0 0 444 246">
  <defs>
    <style>
      .cls-1 {
        fill: rgba(255,191,191,0.5);
        opacity: 0;
      }

      .cls-2 {
        fill: #dcf5fb;
        opacity: 0.8;
      }

      .cls-3 {
        fill: #ecfbec;
      }

      .cls-4 {
        fill: #fff;
      }

      .cls-10, .cls-5, .cls-6 {
        fill: none;
        stroke-linecap: round;
      }

      .cls-5 {
        stroke: #f0f2f5;
        stroke-width: 6px;
      }

      .cls-10, .cls-6 {
        stroke: #222;
        stroke-linejoin: round;
      }

      .cls-6 {
        stroke-width: 3px;
      }

      .cls-7 {
        fill: #f0f2f5;
      }

      .cls-8 {
        fill: #f2ac58;
      }

      .cls-9 {
        fill: #fcf28d;
      }

      .cls-10 {
        stroke-width: 2px;
      }

      .cls-11 {
        fill: #afdae9;
      }
    </style>
  </defs>
  <g id="SWKDIFDT1900_1" transform="translate(-622 -2020)">
    <g id="deco">
      <rect id="BG" class="cls-1" width="444" height="246" transform="translate(622 2020)"/>
      <circle id="타원_559" data-name="타원 559" class="cls-2" cx="54" cy="54" r="54" transform="translate(653 2040)"/>
      <circle id="타원_560" data-name="타원 560" class="cls-3" cx="20" cy="20" r="20" transform="translate(984 2020)"/>
    </g>
    <g id="img" transform="translate(663 2073.151)">
      <g id="그룹_629928" data-name="그룹 629928">
        <path id="패스_3454" data-name="패스 3454" class="cls-4" d="M275.277,31.729V16.245a15.15,15.15,0,0,1,10.076-14.26H172.51c-27.293,0-24.562,30.44-24.562,30.44v71.719H255.289a19.987,19.987,0,0,0,19.988-19.988V32.425s-.006-.253,0-.7"/>
        <line id="선_1834" data-name="선 1834" class="cls-5" x2="94.756" transform="translate(164.234 25.109)"/>
        <line id="선_1835" data-name="선 1835" class="cls-5" x2="94.756" transform="translate(164.234 49.109)"/>
        <path id="패스_3455" data-name="패스 3455" class="cls-6" d="M275.277,31.729V16.245a15.15,15.15,0,0,1,10.076-14.26H172.51c-27.293,0-24.562,30.44-24.562,30.44v71.719H255.289a19.987,19.987,0,0,0,19.988-19.988V32.425S275.271,32.172,275.277,31.729Z"/>
        <path id="패스_3457" data-name="패스 3457" class="cls-7" d="M301.927,33.076V14.289c0-7.064-6-12.789-13.325-12.789s-13.325,5.725-13.325,12.789V33.076Z"/>
        <path id="패스_3458" data-name="패스 3458" class="cls-6" d="M301.927,33.076V14.289c0-7.064-6-12.789-13.325-12.789s-13.325,5.725-13.325,12.789V33.076Z"/>
        <path id="패스_3459" data-name="패스 3459" class="cls-7" d="M233.821,84.156V55.745c0-7.063-6-12.789-13.325-12.789s-13.325,5.726-13.325,12.789v1.02H116.856V84.156a19.987,19.987,0,0,0,19.988,19.988H253.809a19.987,19.987,0,0,1-19.988-19.988"/>
        <path id="패스_3460" data-name="패스 3460" class="cls-6" d="M233.821,84.156V55.745c0-7.063-6-12.789-13.325-12.789s-13.325,5.726-13.325,12.789v1.02H116.856V84.156a19.987,19.987,0,0,0,19.988,19.988H253.809A19.987,19.987,0,0,1,233.821,84.156Z"/>
        <path id="패스_3461" data-name="패스 3461" class="cls-4" d="M207.17,73.185V57.7a15.15,15.15,0,0,1,10.076-14.26H104.4c-27.293,0-24.562,30.44-24.562,30.44V190.017H187.182a19.987,19.987,0,0,0,19.988-19.988V73.881s-.006-.253,0-.7"/>
        <path id="패스_3462" data-name="패스 3462" class="cls-6" d="M207.17,73.185V57.7a15.15,15.15,0,0,1,10.076-14.26H104.4c-27.293,0-24.562,30.44-24.562,30.44V190.017H187.182a19.987,19.987,0,0,0,19.988-19.988V73.881S207.164,73.628,207.17,73.185Z"/>
        <path id="패스_3464" data-name="패스 3464" class="cls-7" d="M187.182,189.959a19.814,19.814,0,0,1-19.988-19.636V141.959H50.229v28.364a19.814,19.814,0,0,0,19.988,19.636"/>
        <path id="패스_3465" data-name="패스 3465" class="cls-6" d="M187.182,189.959a19.814,19.814,0,0,1-19.988-19.636V141.959H50.229v28.364a19.814,19.814,0,0,0,19.988,19.636"/>
        <path id="패스_3466" data-name="패스 3466" class="cls-8" d="M124.32,100.534v18.424l-9.212-6.5-9.212,6.5V100.534"/>
        <path id="패스_3467" data-name="패스 3467" class="cls-6" d="M124.32,100.534v18.424l-9.212-6.5-9.212,6.5V100.534"/>
        <path id="패스_3468" data-name="패스 3468" class="cls-6" d="M115.139,101.807a18.424,18.424,0,1,1,18.426-18.423A18.443,18.443,0,0,1,115.139,101.807Z"/>
        <path id="패스_3469" data-name="패스 3469" class="cls-8" d="M115.14,95.383a12,12,0,1,1,12-12,12.012,12.012,0,0,1-12,12"/>
        <line id="선_1593" data-name="선 1593" class="cls-5" x2="42" transform="translate(148.5 71.349)"/>
        <line id="선_1832" data-name="선 1832" class="cls-5" x2="42" transform="translate(148.5 95.534)"/>
        <line id="선_1833" data-name="선 1833" class="cls-5" x2="42" transform="translate(148.5 119.719)"/>
      </g>
      <g id="손_돈" data-name="손 돈">
        <rect id="사각형_461143" data-name="사각형 461143" class="cls-4" width="87" height="43.5" transform="translate(225.77 76.69)"/>
        <path id="패스_3470" data-name="패스 3470" class="cls-6" d="M248.427,120.19H225.771V76.69h87v43.5H299.922"/>
        <path id="패스_3471" data-name="패스 3471" class="cls-9" d="M305.52,107.5V89.377a5.438,5.438,0,0,1-5.437-5.437H238.458a5.439,5.439,0,0,1-5.438,5.437V107.5a5.439,5.439,0,0,1,5.438,5.437h61.625a5.439,5.439,0,0,1,5.437-5.437"/>
        <path id="패스_3472" data-name="패스 3472" class="cls-6" d="M290.789,112.94h9.293a5.439,5.439,0,0,1,5.439-5.437V89.378a5.44,5.44,0,0,1-5.439-5.438H238.458a5.439,5.439,0,0,1-5.437,5.438V107.5a5.438,5.438,0,0,1,5.437,5.437h10.036"/>
        <path id="패스_3473" data-name="패스 3473" class="cls-4" d="M278.333,98.44a9.063,9.063,0,1,1-9.063-9.063,9.062,9.062,0,0,1,9.063,9.063"/>
        <path id="패스_3474" data-name="패스 3474" class="cls-6" d="M262.008,103.863a9.063,9.063,0,1,1,14.778-.358"/>
        <path id="패스_3475" data-name="패스 3475" class="cls-10" d="M265.608,96.52l1.622,4.252a.38.38,0,0,0,.72-.032l1.175-4.122a.379.379,0,0,1,.728-.006l1.252,4.1a.381.381,0,0,0,.724.011l1.432-4.205"/>
        <line id="선_300" data-name="선 300" class="cls-10" x2="9.119" transform="translate(264.875 98.481)"/>
        <rect id="사각형_461144" data-name="사각형 461144" class="cls-11" width="38.252" height="9.995" transform="translate(254.581 179.07)"/>
        <path id="패스_3476" data-name="패스 3476" class="cls-6" d="M254.581,189.065V179.07h38.252v9.995"/>
        <path id="패스_3477" data-name="패스 3477" class="cls-4" d="M292.672,121.611a4.62,4.62,0,0,0-9.133,0h-.05l0-5.266c0-.028.009-.056.009-.086a4.651,4.651,0,0,0-4.642-4.661c-2.563,0-4.612,1.52-4.612,4.094h0V110.35a4.641,4.641,0,1,0-9.282,0h-.018v3.13a4.633,4.633,0,0,0-9.264.166v36.392l-2.609.8-5.7-14.132a.324.324,0,0,0-.027-.06l-.023-.05a4.63,4.63,0,0,0-4.223-2.982,4.837,4.837,0,0,0-4.632,5.023,5.389,5.389,0,0,0,.389,2.009l8.9,22.053c3,6.322,9.809,7.349,9.809,7.349l-.007,9.023h31.621l.015-9.165a7.493,7.493,0,0,0,3.49-6.243Z"/>
        <path id="패스_3478" data-name="패스 3478" class="cls-6" d="M292.672,121.611a4.62,4.62,0,0,0-9.133,0h-.05l0-5.266c0-.028.009-.056.009-.086a4.651,4.651,0,0,0-4.642-4.661c-2.563,0-4.612,1.52-4.612,4.094h0V110.35a4.641,4.641,0,1,0-9.282,0h-.018v3.13a4.633,4.633,0,0,0-9.264.166v36.392l-2.609.8-5.7-14.132a.324.324,0,0,0-.027-.06l-.023-.05a4.63,4.63,0,0,0-4.223-2.982,4.837,4.837,0,0,0-4.632,5.023,5.389,5.389,0,0,0,.389,2.009l8.9,22.053c3,6.322,9.809,7.349,9.809,7.349l-.007,9.023h31.621l.015-9.165a7.493,7.493,0,0,0,3.49-6.243Z"/>
        <line id="선_301" data-name="선 301" class="cls-4" y2="22.58" transform="translate(264.941 113.478)"/>
        <line id="선_302" data-name="선 302" class="cls-6" y2="22.58" transform="translate(264.941 113.478)"/>
        <line id="선_303" data-name="선 303" class="cls-4" y2="22.185" transform="translate(274.255 115.692)"/>
        <line id="선_304" data-name="선 304" class="cls-6" y2="22.185" transform="translate(274.255 115.692)"/>
        <line id="선_305" data-name="선 305" class="cls-4" y2="18.086" transform="translate(283.539 121.611)"/>
        <line id="선_306" data-name="선 306" class="cls-6" y2="18.086" transform="translate(283.539 121.611)"/>
      </g>
      <line id="line" class="cls-6" x2="360" transform="translate(1 190.651)"/>
    </g>
  </g>
</svg>
