<svg xmlns="http://www.w3.org/2000/svg" width="444" height="226" viewBox="0 0 444 226">
    <g transform="translate(-622 -2040)">
        <circle data-name="타원 559" cx="51.5" cy="51.5" r="51.5" transform="translate(945 2061)" style="fill:#dcf5fb"/>
        <circle data-name="타원 560" cx="20" cy="20" r="20" transform="translate(665 2041)" style="fill:#d5fcd0"/>
    </g>
    <path data-name="패스 3293" d="M155.8 117.215V20.786h38.571v96.429" style="fill:#fff" transform="translate(41 49.963)"/>
    <path data-name="패스 3294" d="M155.8 117.215V20.786h38.571v96.429" style="stroke-linecap:round;stroke-linejoin:round;stroke-width:3px;fill:none;stroke:#222" transform="translate(41 49.963)"/>
    <g data-name="그룹 626234">
        <path data-name="패스 3295" d="M183.867 72.215h-4.714a.857.857 0 0 1-.857-.857v-4.714a.857.857 0 0 1 .857-.858h4.714a.858.858 0 0 1 .857.858v4.714a.857.857 0 0 1-.857.857" style="fill:#ddd" transform="translate(41 49.963)"/>
        <path data-name="패스 3296" d="M183.867 40.072h-4.714a.857.857 0 0 1-.857-.857V34.5a.857.857 0 0 1 .857-.858h4.714a.858.858 0 0 1 .857.858v4.714a.857.857 0 0 1-.857.857" style="fill:#ddd" transform="translate(41 49.963)"/>
        <path data-name="패스 3297" d="M183.867 56.143h-4.714a.857.857 0 0 1-.857-.857v-4.714a.857.857 0 0 1 .857-.858h4.714a.858.858 0 0 1 .857.858v4.714a.857.857 0 0 1-.857.857" style="fill:#ddd" transform="translate(41 49.963)"/>
        <path data-name="패스 3298" d="M183.867 88.286h-4.714a.857.857 0 0 1-.857-.857v-4.714a.857.857 0 0 1 .857-.858h4.714a.858.858 0 0 1 .857.858v4.714a.857.857 0 0 1-.857.857" style="fill:#ddd" transform="translate(41 49.963)"/>
        <path data-name="패스 3299" d="M183.867 104.357h-4.714a.857.857 0 0 1-.857-.857v-4.714a.857.857 0 0 1 .857-.858h4.714a.858.858 0 0 1 .857.858v4.714a.857.857 0 0 1-.857.857" style="fill:#ddd" transform="translate(41 49.963)"/>
        <path data-name="패스 3300" d="M91.51 117.215V24l38.571-22.5h6.429v115.715" style="fill:#f2ac58" transform="translate(41 49.963)"/>
        <path data-name="패스 3301" d="M91.51 117.215V24l38.571-22.5h6.429v115.715" style="stroke-linecap:round;stroke-linejoin:round;stroke-width:3px;fill:none;stroke:#222" transform="translate(41 49.963)"/>
        <path data-name="선 205" transform="translate(138.938 109.32)" style="stroke-linecap:round;stroke-linejoin:round;stroke-width:3px;fill:none;stroke:#222" d="M0 0h12.857"/>
        <path data-name="선 206" transform="translate(138.938 96.463)" style="stroke-linecap:round;stroke-linejoin:round;stroke-width:3px;fill:none;stroke:#222" d="M0 0h12.857"/>
        <path data-name="선 207" transform="translate(138.938 122.178)" style="stroke-linecap:round;stroke-linejoin:round;stroke-width:3px;fill:none;stroke:#222" d="M0 0h12.857"/>
        <path data-name="선 208" transform="translate(138.938 135.035)" style="stroke-linecap:round;stroke-linejoin:round;stroke-width:3px;fill:none;stroke:#222" d="M0 0h12.857"/>
        <path data-name="선 209" transform="translate(138.938 147.892)" style="stroke-linecap:round;stroke-linejoin:round;stroke-width:3px;fill:none;stroke:#222" d="M0 0h12.857"/>
        <path data-name="패스 3302" d="M126.867 117.215V46.5h45v70.714" style="fill:#fff" transform="translate(41 49.963)"/>
        <path data-name="패스 3303" d="M126.867 117.215V46.5h45v70.714" style="stroke-linecap:round;stroke-linejoin:round;stroke-width:3px;fill:none;stroke:#222" transform="translate(41 49.963)"/>
        <path data-name="선 210" transform="translate(177.51 138.249)" style="fill:#fff" d="M0 0h25.714"/>
        <path data-name="선 211" transform="translate(177.51 138.249)" style="stroke-linecap:round;stroke-linejoin:round;stroke-width:3px;fill:none;stroke:#222" d="M0 0h25.714"/>
        <path data-name="선 212" transform="translate(177.51 125.392)" style="fill:#fff" d="M0 0h25.714"/>
        <path data-name="선 213" transform="translate(177.51 125.392)" style="stroke-linecap:round;stroke-linejoin:round;stroke-width:3px;fill:none;stroke:#222" d="M0 0h25.714"/>
        <path data-name="선 214" transform="translate(177.51 151.106)" style="fill:#fff" d="M0 0h25.714"/>
        <path data-name="선 215" transform="translate(177.51 151.106)" style="stroke-linecap:round;stroke-linejoin:round;stroke-width:3px;fill:none;stroke:#222" d="M0 0h25.714"/>
        <path data-name="선 216" transform="translate(177.51 112.535)" style="fill:#fff" d="M0 0h25.714"/>
        <path data-name="선 217" transform="translate(177.51 112.535)" style="stroke-linecap:round;stroke-linejoin:round;stroke-width:3px;fill:none;stroke:#222" d="M0 0h25.714"/>
        <path data-name="사각형 461090" transform="translate(177.51 83.606)" style="fill:#fff" d="M0 0h25.714v12.857H0z"/>
        <path data-name="사각형 461091" transform="translate(177.51 83.606)" style="stroke-linecap:round;stroke-linejoin:round;stroke-width:3px;fill:none;stroke:#222" d="M0 0h25.714v12.857H0z"/>
        <path data-name="선 218" transform="translate(124.5 168.035)" style="stroke-linecap:round;stroke-linejoin:round;stroke-width:3px;fill:none;stroke:#222" d="M0 0h120"/>
        <path data-name="패스 3304" d="m152.562 172.983-.024-21.857 46.286.065v21.792" style="fill:#afdae9" transform="translate(41 49.963)"/>
        <path data-name="패스 3305" d="m152.562 172.983-.024-21.857 46.286.065v21.792" style="stroke-miterlimit:10;fill:none;stroke:#222" transform="translate(41 49.963)"/>
        <path data-name="패스 3306" d="m152.835 174.251-.024-22.406 46.988.067v22.339" style="stroke-linecap:round;stroke-linejoin:round;stroke-width:3px;fill:none;stroke:#222" transform="translate(41 49.963)"/>
        <path data-name="패스 3307" d="M231.318 58.566a7.76 7.76 0 0 0-11.147.24 8.5 8.5 0 0 0-2.392 6.309l-.588 29.4s-.888-.812-1.427-1.367a7.747 7.747 0 0 0-11.147.24l-15.512 15.9a7.893 7.893 0 0 0-8.977 1.739l-15.174 15.548a8.517 8.517 0 0 0-2.406 5.737l-.422 19.554 28.5.042 39.774-40.75a8.488 8.488 0 0 0 2.379-6.334l.721-40.542a7.83 7.83 0 0 0-2.178-5.71" style="fill:#fff" transform="translate(41 49.963)"/>
        <path data-name="패스 3308" d="M231.318 58.566a7.76 7.76 0 0 0-11.147.24 8.5 8.5 0 0 0-2.392 6.309l-.588 29.4s-.888-.812-1.427-1.367a7.747 7.747 0 0 0-11.147.24l-15.512 15.9a7.893 7.893 0 0 0-8.977 1.739l-15.174 15.548a8.517 8.517 0 0 0-2.406 5.737l-.422 19.554 28.5.042 39.774-40.75a8.488 8.488 0 0 0 2.379-6.334l.721-40.542a7.83 7.83 0 0 0-2.182-5.716z" style="stroke-linecap:round;stroke-linejoin:round;stroke-width:3px;fill:none;stroke:#222" transform="translate(41 49.963)"/>
        <path data-name="패스 3309" d="M215.876 93.165a8.227 8.227 0 0 1-.227 11.423l-17.727 18.163" style="fill:#fff" transform="translate(41 49.963)"/>
        <path data-name="패스 3310" d="M215.876 93.165a8.227 8.227 0 0 1-.227 11.423l-17.727 18.163" style="stroke-linecap:round;stroke-linejoin:round;stroke-width:3px;fill:none;stroke:#222" transform="translate(41 49.963)"/>
        <path data-name="패스 3311" d="M164.139 161.316a2.828 2.828 0 0 1 .009 3.94 2.667 2.667 0 0 1-3.84-.018 2.832 2.832 0 0 1-.009-3.934 2.672 2.672 0 0 1 3.84.012" style="fill:#222" transform="translate(41 49.963)"/>
        <path data-name="패스 3312" d="M133.253 172.983v-21.857l-46.286.065v21.792" style="fill:#afdae9" transform="translate(41 49.963)"/>
        <path data-name="패스 3313" d="M133.253 172.983v-21.857l-46.286.065v21.792" style="stroke-miterlimit:10;fill:none;stroke:#222" transform="translate(41 49.963)"/>
        <path data-name="패스 3314" d="M134.19 174.251v-22.406l-46.988.067v22.339" style="stroke-linecap:round;stroke-linejoin:round;stroke-width:3px;fill:none;stroke:#222" transform="translate(41 49.963)"/>
        <path data-name="패스 3315" d="M55.682 58.566a7.76 7.76 0 0 1 11.147.24 8.495 8.495 0 0 1 2.391 6.309l.588 29.4s.888-.812 1.427-1.367a7.747 7.747 0 0 1 11.147.24l15.512 15.9a7.9 7.9 0 0 1 8.977 1.739l15.174 15.548a8.519 8.519 0 0 1 2.407 5.737l.421 19.554-28.5.042L56.6 111.152a8.488 8.488 0 0 1-2.379-6.334L53.5 64.276a7.827 7.827 0 0 1 2.179-5.71" style="fill:#fff" transform="translate(41 49.963)"/>
        <path data-name="패스 3316" d="M55.682 58.566a7.76 7.76 0 0 1 11.147.24 8.495 8.495 0 0 1 2.391 6.309l.588 29.4s.888-.812 1.427-1.367a7.747 7.747 0 0 1 11.147.24l15.512 15.9a7.9 7.9 0 0 1 8.977 1.739l15.174 15.548a8.519 8.519 0 0 1 2.407 5.737l.421 19.554-28.5.042L56.6 111.152a8.488 8.488 0 0 1-2.379-6.334L53.5 64.276a7.827 7.827 0 0 1 2.182-5.71z" style="stroke-linecap:round;stroke-linejoin:round;stroke-width:3px;fill:none;stroke:#222" transform="translate(41 49.963)"/>
        <path data-name="패스 3317" d="M71.124 93.165a8.226 8.226 0 0 0 .228 11.423l17.726 18.163" style="fill:#fff" transform="translate(41 49.963)"/>
        <path data-name="패스 3318" d="M71.124 93.165a8.226 8.226 0 0 0 .228 11.423l17.726 18.163" style="stroke-linecap:round;stroke-linejoin:round;stroke-width:3px;fill:none;stroke:#222" transform="translate(41 49.963)"/>
        <path data-name="패스 3319" d="M122.858 161.316a2.831 2.831 0 0 0-.006 3.94 2.667 2.667 0 0 0 3.84-.018 2.835 2.835 0 0 0 .009-3.934 2.676 2.676 0 0 0-3.843.012" style="fill:#222" transform="translate(41 49.963)"/>
        <path data-name="패스 3320" d="M229.5 174.286v-40h80v40" style="fill:#fcf28d" transform="translate(41 49.963)"/>
        <path data-name="패스 3321" d="M229.5 174.286v-40h80v40" style="stroke-linecap:round;stroke-linejoin:round;stroke-width:3px;fill:none;stroke:#222" transform="translate(41 49.963)"/>
        <path data-name="선 219" transform="translate(270.5 217.249)" style="stroke-linecap:round;stroke-linejoin:round;stroke-width:3px;fill:none;stroke:#222" d="M0 0h80"/>
        <path data-name="선 220" transform="translate(270.5 209.249)" style="stroke-linecap:round;stroke-linejoin:round;stroke-width:3px;fill:none;stroke:#222" d="M0 0h80"/>
        <path data-name="선 221" transform="translate(270.5 201.249)" style="stroke-linecap:round;stroke-linejoin:round;stroke-width:3px;fill:none;stroke:#222" d="M0 0h80"/>
        <path data-name="선 222" transform="translate(270.5 193.249)" style="stroke-linecap:round;stroke-linejoin:round;stroke-width:3px;fill:none;stroke:#222" d="M0 0h80"/>
        <path data-name="패스 3322" d="M309.5 134.286h-80l7.193-10h65.614z" style="fill:#fcf28d" transform="translate(41 49.963)"/>
        <path data-name="패스 3323" d="M309.5 134.286h-80l7.193-10h65.614z" style="stroke-linecap:round;stroke-linejoin:round;stroke-width:3px;fill:none;stroke:#222" transform="translate(41 49.963)"/>
        <path data-name="패스 3324" d="m262.764 133.676 1.216-9.39h11.082l1.213 9.39" style="fill:#fff" transform="translate(41 49.963)"/>
        <path data-name="패스 3325" d="m262.764 133.676 1.216-9.39h11.082l1.213 9.39" style="stroke-linecap:round;stroke-linejoin:round;stroke-width:3px;fill:none;stroke:#222" transform="translate(41 49.963)"/>
        <path data-name="패스 3326" d="M263 174.286v-40h13v40" style="fill:#fff" transform="translate(41 49.963)"/>
        <path data-name="패스 3327" d="M263 174.286v-40h13v40" style="stroke-linecap:round;stroke-linejoin:round;stroke-width:3px;fill:none;stroke:#222" transform="translate(41 49.963)"/>
        <path data-name="선 223" transform="translate(42.5 224)" style="stroke-linecap:round;stroke-linejoin:round;stroke-width:3px;fill:none;stroke:#222" d="M0 0h360"/>
    </g>
</svg>
