<svg xmlns="http://www.w3.org/2000/svg" width="444" height="225.279" viewBox="0 0 444 225.279">
    <g transform="translate(39 33.282)">
        <circle data-name="Ellipse 2" cx="53.5" cy="53.5" r="53.5" transform="translate(-4.033 -33.282)" style="fill:#dcf5fb"/>
        <circle data-name="Ellipse 2" cx="19.75" cy="19.75" r="19.75" transform="translate(337.967 70.718)" style="fill:#fbf0e3"/>
    </g>
    <path data-name="패스 4038" d="M242.484 226.4h-140V46.148l140 10.014z" transform="translate(49.516 -6.215)" style="fill:#f2ac58"/>
    <path data-name="패스 4039" d="M102.484 226.4V46.148l140 10.014V226.4" transform="translate(49.516 -6.215)" style="stroke-width:3.002px;stroke-linecap:round;stroke-linejoin:round;stroke:#222;fill:none"/>
    <path data-name="사각형 1210" transform="translate(162 59.961)" style="fill:#fff;stroke-width:3.002px;stroke-linecap:round;stroke-linejoin:round;stroke:#222" d="M0 0h120v150.212H0z"/>
    <path data-name="패스 4040" d="M242.484 56.162H112.523a10.014 10.014 0 1 1 0-20.028h129.961v20.028" transform="translate(49.516 -6.215)" style="fill:#fff;stroke-width:3.002px;stroke-linecap:round;stroke-linejoin:round;stroke:#222"/>
    <g data-name="그룹 2442">
        <path data-name="패스 4041" d="M149.608 101.453v13.841h4.243a1.811 1.811 0 0 1 1.81 1.812 1.811 1.811 0 0 1-1.81 1.813H146.8a1.811 1.811 0 0 1-1.81-1.813v-15.653a1.811 1.811 0 0 1 1.81-1.812h1a1.81 1.81 0 0 1 1.808 1.812z" transform="translate(49.516 -14.221)" style="fill:#333"/>
        <path data-name="패스 4042" d="M169.687 115.512h-7.08l-.619 1.858a2.262 2.262 0 0 1-2.145 1.548 2.265 2.265 0 0 1-2.13-3.025l5.25-14.747a2.261 2.261 0 0 1 2.131-1.5h2.161a2.261 2.261 0 0 1 2.13 1.5l5.251 14.747a2.264 2.264 0 0 1-2.13 3.025h-.054a2.262 2.262 0 0 1-2.146-1.548zm-3.54-10.681-2.324 7.057h4.677z" transform="translate(49.516 -14.221)" style="fill:#333"/>
        <path data-name="패스 4043" d="M176.564 99.642a2.35 2.35 0 0 1 2.306 1.9l2.359 12.128 2.945-12.229a2.349 2.349 0 0 1 2.284-1.8h1.361a2.351 2.351 0 0 1 2.29 1.823l2.822 12.208 2.382-12.132a2.351 2.351 0 0 1 2.306-1.9h.01a2.352 2.352 0 0 1 2.276 2.938l-3.738 14.571a2.351 2.351 0 0 1-2.276 1.767h-1.917a2.35 2.35 0 0 1-2.285-1.807l-2.6-10.879-2.693 10.9a2.351 2.351 0 0 1-2.281 1.789H180.2a2.352 2.352 0 0 1-2.28-1.783l-3.635-14.571a2.352 2.352 0 0 1 2.279-2.923z" transform="translate(49.516 -14.221)" style="fill:#333"/>
    </g>
    <path data-name="패스 4044" d="M149.1 45.363h-28V15.156a1.216 1.216 0 0 1 1.69-1.122l12.31 5.222 12.309-5.222a1.217 1.217 0 0 1 1.691 1.122z" transform="translate(49.516 -6.215)" style="fill:#fcf28d"/>
    <path data-name="패스 4045" d="M121.1 45.363V15.156a1.216 1.216 0 0 1 1.69-1.122l12.31 5.222 12.309-5.222a1.217 1.217 0 0 1 1.691 1.122v30.207" transform="translate(49.516 -6.215)" style="stroke-width:2.402px;stroke-linecap:round;stroke-linejoin:round;stroke:#222;fill:none"/>
    <path data-name="선 1125" transform="translate(162.04 39.148)" style="stroke-width:3px;fill:#fff;stroke-linecap:round;stroke-linejoin:round;stroke:#222" d="M0 0h130"/>
    <g data-name="그룹 631486">
        <path data-name="패스 10646" d="M413.083 318.714a17.306 17.306 0 0 1 .6-2.312 6.065 6.065 0 0 1 4.567-4.035 9.641 9.641 0 0 1 1.026-.106c1.481-3.088 2.82-4 5.538-3.69a6.6 6.6 0 0 1 2.472-3.321 5.6 5.6 0 0 1 4.087-.687c.823-3.777 2.069-4.912 5.727-5.206.027-.088.066-.188.092-.3a4.588 4.588 0 0 1 4.732-3.592.688.688 0 0 0 .752-.475 5.832 5.832 0 0 1 4.733-3.345 7.139 7.139 0 0 1 3.8.389 4.556 4.556 0 0 1 3 3.38 6.021 6.021 0 0 1 3.322.293 5.511 5.511 0 0 1 2.854 3.23.688.688 0 0 0 .585.509c2.822.545 4.658 2.093 5.169 4.945a1.451 1.451 0 0 0 .064.173c3.387-.5 5.429 1.027 6.438 4a14.761 14.761 0 0 1 2.239.338 4.408 4.408 0 0 1 2.928 3.09.851.851 0 0 0 .852.684 5.137 5.137 0 0 1 3.248 1.665 7.151 7.151 0 0 1 2 4.953 4.571 4.571 0 0 1-2.317 4.316 17.17 17.17 0 0 1 .581 2.5 5.148 5.148 0 0 1-2.282 4.434.913.913 0 0 0-.326.631c.273 2.866-.662 5.118-3.312 6.387a19.077 19.077 0 0 1 .727 2.718 4.935 4.935 0 0 1-2.056 4.417.6.6 0 0 0-.221.836 4.444 4.444 0 0 1-1.481 5.39.918.918 0 0 0-.412 1.1 5 5 0 0 1-.649 3.893 7.007 7.007 0 0 1-5.525 3.607 4.492 4.492 0 0 1-3.278-1.075c-.057.052-.125.086-.168.135a5.046 5.046 0 0 1-6.586.922 1.369 1.369 0 0 0-1.451-.052 5.926 5.926 0 0 1-6.975-1.062.568.568 0 0 0-.135.062 5.976 5.976 0 0 1-7.182.869.777.777 0 0 0-.879.04 5.168 5.168 0 0 1-5.993-.005c-.347-.255-.654-.571-.992-.866-.021 0-.068-.016-.095 0a5.286 5.286 0 0 1-6.512-.155 6.359 6.359 0 0 1-3.023-5.456.558.558 0 0 1 0-.112c.42-1.03-.068-1.671-.826-2.4a4.187 4.187 0 0 1-.9-4.98c.043-.1.083-.2.135-.337-2.6-2.08-3.23-4.572-1.633-7.534a.669.669 0 0 0-.16-.148 5.86 5.86 0 0 1-3.023-6.33.972.972 0 0 0-.341-1.014c-2.244-1.974-2.586-3.931-1.251-6.847a4.523 4.523 0 0 1-2.126-3.053c-.052-.249-.109-.495-.16-.744zm40.585-20.679a4.185 4.185 0 0 0-3.154-3.28 8.169 8.169 0 0 0-2.667-.279 5.364 5.364 0 0 0-4.806 3.081.736.736 0 0 1-.8.5 4.131 4.131 0 0 0-4.161 2.864c-.183.63-.481.775-1.088.83a4.51 4.51 0 0 0-4.03 2.905.973.973 0 0 0 .114 1.039c1.125 1.63 2.221 3.275 3.333 4.915.832 1.23 1.654 2.462 2.5 3.714a13.682 13.682 0 0 1 4.984-2.083 3.5 3.5 0 0 0 2.75-2.077 15.79 15.79 0 0 0 1.09-2.342c.326-.953.495-1.956.72-2.9a.21.21 0 0 1 .043.1c.025.146.044.293.062.441a11.257 11.257 0 0 0 2.268 5.451 2.835 2.835 0 0 0 2.035 1.3 2.856 2.856 0 0 1 .883.258c1.5.64 3.01 1.3 4.559 1.977-.068.066-.034.049-.013.016q3-4.43 5.966-8.87a.787.787 0 0 0 .023-.663 5.361 5.361 0 0 0-4.132-3.148 1.035 1.035 0 0 1-.861-.734 4.7 4.7 0 0 0-5.618-3.015zM433.979 356.4a4.752 4.752 0 0 0 6.474.861.852.852 0 0 1 .931-.013 5.745 5.745 0 0 0 5.161.173.784.784 0 0 0 .511-.823c.021-2.45.078-4.9.107-7.351.014-.927 0-1.854 0-2.8a18.6 18.6 0 0 1-6.948-1.913 1.191 1.191 0 0 0-.71-.027 9.753 9.753 0 0 0-4.378 2.269c-.5.438-1.023.85-1.524 1.269a9.458 9.458 0 0 0 1.51-4.6c.087-1.538.14-3.073-1.138-4.274a2.187 2.187 0 0 1-.169-.229 18 18 0 0 1-2.374-4.854 2.443 2.443 0 0 0-.25.061q-4.619 1.9-9.24 3.811a.852.852 0 0 0-.412.472 4.712 4.712 0 0 0 1.736 5.221c.281.242.372.415.217.783a3.867 3.867 0 0 0 .7 4.349c.335.381.927.64 1.071 1.061.155.441-.131 1.013-.144 1.528a5.846 5.846 0 0 0 2.585 4.789 4.986 4.986 0 0 0 6.284.237zm28.017.13a14.3 14.3 0 0 0 2.517.845c2.649.332 5.772-2.005 6.344-4.716a6.6 6.6 0 0 0 .013-2.222.868.868 0 0 1 .369-.965 4.008 4.008 0 0 0 1.484-4.8c-.242-.59-.064-.831.338-1.195a4.565 4.565 0 0 0 1.633-4.59.893.893 0 0 0-.607-.727c-1.316-.513-2.624-1.057-3.931-1.595-1.663-.683-3.321-1.367-4.993-2.052a1.062 1.062 0 0 0-.134.226 17.8 17.8 0 0 1-3.563 5.982 1.479 1.479 0 0 0-.282.7 11.221 11.221 0 0 0 1.157 6.6c.072.134.134.277.2.415a3.25 3.25 0 0 1-.6-.554 10.291 10.291 0 0 0-5.287-3.139 1.678 1.678 0 0 0-.818.082c-1.364.424-2.715.919-4.1 1.3a27.167 27.167 0 0 1-2.706.415c0 3.421-.009 6.845.013 10.266a.758.758 0 0 0 .36.49 5.52 5.52 0 0 0 5.3-.039.93.93 0 0 1 1.034.03 5.112 5.112 0 0 0 2.647.849 4.611 4.611 0 0 0 3.616-1.603zm13.762-42.593c-.7-2.407-2.188-3.845-4.962-3.647-.1-.239-.183-.467-.274-.684a4.751 4.751 0 0 0-3.917-3.167.633.633 0 0 0-.7.319c-1.3 1.951-2.615 3.887-3.919 5.826-.713 1.061-1.437 2.117-2.157 3.186a1.564 1.564 0 0 0 .174.2 18.023 18.023 0 0 1 3.836 4.737.979.979 0 0 0 .355.337 9.581 9.581 0 0 0 3.533 1.154 13.531 13.531 0 0 0 1.836.1c.588-.006 1.174-.1 1.806-.16a1.079 1.079 0 0 1-.134.09c-.1.048-.207.1-.312.143a9.318 9.318 0 0 0-4.849 4.29 1.37 1.37 0 0 0-.152.731 16.39 16.39 0 0 1-.221 4.8c-.075.359.1.455.376.563 2.852 1.168 5.706 2.33 8.556 3.517a.7.7 0 0 0 .857-.157 5.335 5.335 0 0 0 1.679-4.693 1 1 0 0 1 .442-1.023 4.545 4.545 0 0 0 1.923-4.48 12.215 12.215 0 0 0-.551-1.75c2.364-1.439 2.49-3.779 1.992-5.664a5.723 5.723 0 0 0-5.217-4.566zm-50.4 7.706c.034 0 .186.009.332.029a11.808 11.808 0 0 0 6.707-.86 2.3 2.3 0 0 0 .775-.687c.814-1.02 1.581-2.072 2.4-3.083.489-.6 1.034-1.149 1.577-1.755-1.876-2.785-3.83-5.7-5.812-8.595a.749.749 0 0 0-.6-.258 4.91 4.91 0 0 0-4.078 3.3.586.586 0 0 1-.7.439 4.084 4.084 0 0 0-4.182 2.408c-.174.33-.3.682-.451 1.037-.312.03-.619.042-.913.095a5.686 5.686 0 0 0-4.326 3.811 4.9 4.9 0 0 0 1.619 6.226c-.03.062-.052.128-.091.194a4.553 4.553 0 0 0 1.169 6.065 1.019 1.019 0 0 1 .381 1.052 5.582 5.582 0 0 0 1.415 4.793.619.619 0 0 0 .8.2q4.578-1.909 9.193-3.775c.289-.121.393-.253.332-.58a16.367 16.367 0 0 1-.048-5.033.909.909 0 0 0-.181-.667 18.927 18.927 0 0 0-2.265-2.442 28.55 28.55 0 0 0-3.052-1.912zm11.326 17.681c6.905 7.645 18.281 6.2 23.334-.1-6.927-6.471-15.66-6.87-23.333.103zm26.958-7.219a15.364 15.364 0 0 0-12.47-18.2 2.344 2.344 0 0 0-.039.381 28.118 28.118 0 0 0 1.727 8.659 14.5 14.5 0 0 0 5.715 7.341 12.872 12.872 0 0 0 5.068 1.822zm-18.19-18.214c-9.764 1.867-14.228 11.4-12.356 18.287a16.467 16.467 0 0 0 7.476-4.243c3.889-3.917 4.937-8.773 4.881-14.041z" transform="translate(-226.495 -172.906)" style="fill:#d7b23c;stroke:#d7b23c;fill-rule:evenodd"/>
    </g>
    <g>
        <path data-name="패스 4051" d="M200 225.318V218.6c0-5.138 4.5-9.3 10.06-9.3h69.877c5.559 0 10.063 4.165 10.063 9.3v6.719" transform="translate(47.324 -5.215)" style="fill:#afdae9;stroke-width:3.002px;stroke-linecap:round;stroke-linejoin:round;stroke:#222"/>
        <path data-name="선 223" transform="translate(42 220.187)" style="stroke-width:3px;stroke-linecap:round;stroke-linejoin:round;stroke:#222;fill:none" d="M0 0h360"/>
        <g data-name="그룹 2448">
            <path data-name="패스 4052" d="M354.762 212.1a6.66 6.66 0 0 1 2.19 9.15h0a6.643 6.643 0 0 1-9.225 1.8l-68.474-44.128a6.661 6.661 0 0 1-2.19-9.149h0a6.643 6.643 0 0 1 9.225-1.8z" transform="translate(47.324 -.21)" style="fill:#fff;stroke-width:3.002px;stroke-linecap:round;stroke-linejoin:round;stroke:#222"/>
            <path data-name="패스 4053" d="M288.9 161.321a5.672 5.672 0 0 1 1.621 7.851l-8.421 13.109a5.654 5.654 0 0 1-7.808 1.776l-6.546-4.218a5.68 5.68 0 0 1-1.622-7.855l8.425-13.105a5.654 5.654 0 0 1 7.806-1.777z" transform="translate(47.324 -.21)" style="fill:#fff;stroke-width:3.002px;stroke-linecap:round;stroke-linejoin:round;stroke:#222"/>
            <path data-name="사각형 1213" transform="matrix(.541 -.842 .841 .542 279.261 179.176)" style="stroke-width:3px;fill:#fff;stroke-linecap:round;stroke-linejoin:round;stroke:#222" d="M0 0h66.999v32.998H0z"/>
            <g data-name="그룹 2447">
                <path data-name="패스 4054" d="M265.635 191.579a5.582 5.582 0 0 1 1.677 7.7l-3.179 4.944a5.563 5.563 0 0 1-7.7 1.666l-30.988-19.97a5.582 5.582 0 0 1-1.679-7.706l3.178-4.945a5.568 5.568 0 0 1 7.7-1.665z" transform="translate(47.324 -.21)" style="fill:#fff;stroke-width:3.002px;stroke-linecap:round;stroke-linejoin:round;stroke:#222"/>
                <path data-name="패스 4055" d="M302.432 134.314a5.578 5.578 0 0 1 1.678 7.7l-3.181 4.945a5.561 5.561 0 0 1-7.695 1.665l-30.989-19.971a5.58 5.58 0 0 1-1.676-7.7l3.176-4.945a5.569 5.569 0 0 1 7.7-1.665z" transform="translate(47.324 -.21)" style="fill:#fff;stroke-width:3.002px;stroke-linecap:round;stroke-linejoin:round;stroke:#222"/>
            </g>
        </g>
    </g>
    <g>
        <g data-name="사각형 461839" transform="translate(62 164.806)" style="stroke-miterlimit:10;stroke-width:3px;fill:#fff;stroke:#222">
            <rect width="109" height="60" rx="3" style="stroke:none"/>
            <rect x="1.5" y="1.5" width="106" height="57" rx="1.5" style="fill:none"/>
        </g>
        <g data-name="그룹 628743" transform="translate(103.016 132.391)">
            <rect data-name="사각형 461840" width="29" height="21" rx="2" transform="translate(-.016 1.415)" style="stroke-miterlimit:10;stroke-width:3px;stroke:#222;fill:none"/>
        </g>
        <path data-name="패스 7745" d="M351 403v24.992c0 5.891 5.66 10.711 12.577 10.711h83.846c6.917 0 12.577-4.82 12.577-10.711V403z" transform="translate(-288.5 -257.897)" style="stroke-miterlimit:10;stroke-width:3px;fill:#fcf28d;stroke:#222"/>
        <g data-name="그룹 628744" transform="translate(93.607 174.309)">
            <rect data-name="사각형 461841" width="9" height="13" rx="2" transform="translate(46.393 .497)" style="stroke-miterlimit:10;stroke-width:3px;fill:#fff;stroke:#222"/>
            <rect data-name="사각형 461842" width="9" height="13" rx="2" transform="translate(-7.607 .497)" style="stroke-miterlimit:10;stroke-width:3px;fill:#fff;stroke:#222"/>
        </g>
    </g>
</svg>
