<svg xmlns="http://www.w3.org/2000/svg" width="444" height="221" viewBox="0 0 444 221">
    <g transform="translate(-622 -2020)">
        <circle data-name="Ellipse 2" cx="13.75" cy="13.75" r="13.75" transform="translate(656.25 2153.25)" style="fill:#dcf5fb"/>
        <circle data-name="Ellipse 2" cx="19.75" cy="19.75" r="19.75" transform="translate(700 2020)" style="fill:#dafdd6"/>
    </g>
    <path data-name="패스 9529" d="M10.593 0s10.784 12.506 10.784 25.013-10.784 25.012-10.784 25.012S0 38.632 0 26.125 10.593 0 10.593 0z" transform="rotate(61 81.275 361.646)" style="fill:#7dd3cf"/>
    <g data-name="그룹 630744">
        <g data-name="패스 9523" style="fill:#e5a067">
            <path d="M55.963 57.155H14.904a5.545 5.545 0 0 1-5.538-5.539v-.084l-.01-.085L3.68 1.5h63.507L61.51 51.447l-.01.085v.084a5.545 5.545 0 0 1-5.538 5.54z" style="stroke:none" transform="translate(286.77 151.944)"/>
            <path d="m5.36 3 5.506 48.447v.17a4.043 4.043 0 0 0 4.038 4.038h41.059A4.043 4.043 0 0 0 60 51.616v-.17L65.507 3H5.36M2 0h66.867L63 51.616a7.039 7.039 0 0 1-7.038 7.04H14.904a7.039 7.039 0 0 1-7.038-7.04L2 0z" style="fill:#222;stroke:none" transform="translate(286.77 151.944)"/>
        </g>
        <g data-name="사각형 462579" transform="translate(286.219 144.643)" style="stroke:#222;stroke-width:3px;fill:#e89b46">
            <rect width="71.362" height="15.137" rx="3" style="stroke:none"/>
            <rect x="1.5" y="1.5" width="68.362" height="12.137" rx="1.5" style="fill:none"/>
        </g>
    </g>
    <path data-name="패스 9531" d="M10.593 0s10.784 12.931 10.784 25.862-10.784 25.863-10.784 25.863S0 39.944 0 27.013 10.593 0 10.593 0z" transform="rotate(122 126.347 158.978)" style="fill:#7dd3cf"/>
    <g data-name="그룹 630759">
        <path data-name="패스 9530" d="M0 0h3.519v83.614H0z" transform="translate(320.443 63.126)" style="fill:#222"/>
        <path data-name="패스 9525" d="M0 14.744 15.528 0" transform="rotate(2 -2991.053 9265.665)" style="fill:none;stroke:#222;stroke-width:3px"/>
        <path data-name="패스 9526" d="m-2940.906 6233.588-17.576-13.787" transform="translate(3263.109 -6123.221)" style="fill:none;stroke:#222;stroke-width:3px"/>
        <g data-name="그룹 630739">
            <g data-name="타원 1204" transform="translate(299.194 22.75)" style="fill:#fcf28d;stroke:#222;stroke-width:3px">
                <circle cx="23.787" cy="23.787" r="23.787" style="stroke:none"/>
                <circle cx="23.787" cy="23.787" r="22.287" style="fill:none"/>
            </g>
            <path data-name="패스 9527" d="M398.171 792.041a7.841 7.841 0 0 0-3.5-2.016l-2.092-.673a2.391 2.391 0 0 1-1.006-.538.684.684 0 0 1-.179-.584.671.671 0 0 1 .336-.617 4.83 4.83 0 0 1 2.948-.174 7.711 7.711 0 0 1 1.375.446 1.41 1.41 0 0 0 1.214-.056 1.374 1.374 0 0 0 .653-.679l1-2.121-.745-.407a11.531 11.531 0 0 0-1.691-.747 7.66 7.66 0 0 0-1.255-.333v-2.471h-4.433v2.551a6.753 6.753 0 0 0-1.012.343 5.037 5.037 0 0 0-1.493.974 4.528 4.528 0 0 0-1.02 1.452 4.945 4.945 0 0 0-.067 3.6 4.16 4.16 0 0 0 .906 1.383 5.283 5.283 0 0 0 1.385.994 12.106 12.106 0 0 0 1.714.712l2.161.7a2.656 2.656 0 0 1 1.229.7 1.316 1.316 0 0 1 .246.938 1.017 1.017 0 0 1-.128.481 1.193 1.193 0 0 1-.353.4 2.316 2.316 0 0 1-.633.318 6.008 6.008 0 0 1-3.071-.138 12.47 12.47 0 0 1-2-.7l-.8-.359-1.088 2.221a1.565 1.565 0 0 0-.135 1.166 1.394 1.394 0 0 0 .76.858 10.762 10.762 0 0 0 2 .7c.436.1.906.189 1.395.253v2.433h3a1.335 1.335 0 0 0 1.429-1.391v-1.2a5.953 5.953 0 0 0 2.666-1.459 5.02 5.02 0 0 0 1.45-3.56 4.734 4.734 0 0 0-1.166-3.4z" transform="translate(-69.652 -744.927)" style="fill:#222"/>
        </g>
        <g data-name="그룹 630740">
            <g data-name="타원 1204" transform="translate(270 68.162)" style="fill:#fff;stroke:#222;stroke-width:3px">
                <circle cx="20.003" cy="20.003" r="20.003" style="stroke:none"/>
                <circle cx="20.003" cy="20.003" r="18.503" style="fill:none"/>
            </g>
            <path data-name="패스 9527" d="M396.376 790.343a6.629 6.629 0 0 0-2.96-1.7l-1.768-.569a2.021 2.021 0 0 1-.85-.455.579.579 0 0 1-.151-.494.567.567 0 0 1 .284-.521 4.082 4.082 0 0 1 2.492-.147 6.517 6.517 0 0 1 1.162.377 1.192 1.192 0 0 0 1.026-.047 1.16 1.16 0 0 0 .552-.574l.843-1.793-.63-.344a9.75 9.75 0 0 0-1.43-.631 6.483 6.483 0 0 0-1.061-.281v-2.088h-3.747v2.156a5.7 5.7 0 0 0-.855.29 4.256 4.256 0 0 0-1.262.824 3.826 3.826 0 0 0-.862 1.227 4.178 4.178 0 0 0-.057 3.044 3.515 3.515 0 0 0 .765 1.169 4.466 4.466 0 0 0 1.17.84 10.246 10.246 0 0 0 1.449.6l1.826.595a2.246 2.246 0 0 1 1.039.593 1.113 1.113 0 0 1 .208.793.861.861 0 0 1-.108.406 1.007 1.007 0 0 1-.3.338 1.955 1.955 0 0 1-.535.269 5.076 5.076 0 0 1-2.6-.116 10.527 10.527 0 0 1-1.688-.593l-.675-.3-.919 1.877a1.323 1.323 0 0 0-.114.986 1.177 1.177 0 0 0 .642.725 9.088 9.088 0 0 0 1.692.591c.369.086.765.159 1.179.213v2.057h2.539a1.128 1.128 0 0 0 1.208-1.176v-1.012a5.029 5.029 0 0 0 2.253-1.233 4.243 4.243 0 0 0 1.226-3.009 4 4 0 0 0-.983-2.887z" transform="translate(-101.705 -702.348)" style="fill:#222"/>
        </g>
        <g data-name="그룹 630741">
            <g data-name="타원 1204" transform="translate(270 68.162)" style="fill:#fcf28d;stroke:#222;stroke-width:3px">
                <circle cx="20.003" cy="20.003" r="20.003" style="stroke:none"/>
                <circle cx="20.003" cy="20.003" r="18.503" style="fill:none"/>
            </g>
            <path data-name="패스 9527" d="M396.376 790.343a6.629 6.629 0 0 0-2.96-1.7l-1.768-.569a2.021 2.021 0 0 1-.85-.455.579.579 0 0 1-.151-.494.567.567 0 0 1 .284-.521 4.082 4.082 0 0 1 2.492-.147 6.517 6.517 0 0 1 1.162.377 1.192 1.192 0 0 0 1.026-.047 1.16 1.16 0 0 0 .552-.574l.843-1.793-.63-.344a9.75 9.75 0 0 0-1.43-.631 6.483 6.483 0 0 0-1.061-.281v-2.088h-3.747v2.156a5.7 5.7 0 0 0-.855.29 4.256 4.256 0 0 0-1.262.824 3.826 3.826 0 0 0-.862 1.227 4.178 4.178 0 0 0-.057 3.044 3.515 3.515 0 0 0 .765 1.169 4.466 4.466 0 0 0 1.17.84 10.246 10.246 0 0 0 1.449.6l1.826.595a2.246 2.246 0 0 1 1.039.593 1.113 1.113 0 0 1 .208.793.861.861 0 0 1-.108.406 1.007 1.007 0 0 1-.3.338 1.955 1.955 0 0 1-.535.269 5.076 5.076 0 0 1-2.6-.116 10.527 10.527 0 0 1-1.688-.593l-.675-.3-.919 1.877a1.323 1.323 0 0 0-.114.986 1.177 1.177 0 0 0 .642.725 9.088 9.088 0 0 0 1.692.591c.369.086.765.159 1.179.213v2.057h2.539a1.128 1.128 0 0 0 1.208-1.176v-1.012a5.029 5.029 0 0 0 2.253-1.233 4.243 4.243 0 0 0 1.226-3.009 4 4 0 0 0-.983-2.887z" transform="translate(-101.705 -702.348)" style="fill:#222"/>
        </g>
        <g data-name="그룹 630742">
            <g data-name="타원 1204" transform="translate(333.027 81.583)" style="fill:#fcf28d;stroke:#222;stroke-width:3px">
                <circle cx="17.304" cy="17.304" r="17.304" style="stroke:none"/>
                <circle cx="17.304" cy="17.304" r="15.804" style="fill:none"/>
            </g>
            <path data-name="패스 9527" d="M395.054 789.092a5.734 5.734 0 0 0-2.561-1.474l-1.529-.492a1.748 1.748 0 0 1-.735-.393.5.5 0 0 1-.131-.427.49.49 0 0 1 .246-.451 3.531 3.531 0 0 1 2.156-.127 5.642 5.642 0 0 1 1.005.326 1.031 1.031 0 0 0 .888-.041 1 1 0 0 0 .477-.5l.729-1.551-.545-.3a8.424 8.424 0 0 0-1.237-.546 5.588 5.588 0 0 0-.918-.244v-1.806h-3.241v1.865a4.92 4.92 0 0 0-.74.251 3.682 3.682 0 0 0-1.092.712 3.309 3.309 0 0 0-.746 1.062 3.614 3.614 0 0 0-.049 2.633 3.039 3.039 0 0 0 .662 1.011 3.864 3.864 0 0 0 1.012.727 8.884 8.884 0 0 0 1.254.521l1.58.515a1.941 1.941 0 0 1 .9.513.962.962 0 0 1 .18.686.745.745 0 0 1-.094.351.87.87 0 0 1-.258.293 1.693 1.693 0 0 1-.463.233 4.392 4.392 0 0 1-2.245-.1 9.112 9.112 0 0 1-1.46-.513l-.584-.263-.8 1.624a1.144 1.144 0 0 0-.1.853 1.018 1.018 0 0 0 .555.627 7.864 7.864 0 0 0 1.463.511c.319.074.662.138 1.02.185v1.779h2.2a.976.976 0 0 0 1.045-1.017v-.875a4.349 4.349 0 0 0 1.949-1.067 3.67 3.67 0 0 0 1.06-2.6 3.46 3.46 0 0 0-.853-2.491z" transform="translate(-40.374 -690.254)" style="fill:#222"/>
        </g>
    </g>
    <path data-name="선 686" transform="translate(42.5 209.599)" style="stroke-linecap:round;stroke-linejoin:round;fill:none;stroke:#222;stroke-width:3px" d="M0 0h360"/>
    <g transform="translate(-155.156 -45.52)">
        <g data-name="사각형 462981" transform="translate(230.156 73.27)" style="fill:#fff;stroke:#222;stroke-width:3px">
            <rect width="147" height="183" rx="8" style="stroke:none"/>
            <rect x="1.5" y="1.5" width="144" height="180" rx="6.5" style="fill:none"/>
        </g>
        <g data-name="사각형 462982" style="stroke:#222;stroke-width:3px;fill:#7dd3cf">
            <path d="M7.5 0h132a7.5 7.5 0 0 1 7.5 7.5A22.5 22.5 0 0 1 124.5 30h-102A22.5 22.5 0 0 1 0 7.5 7.5 7.5 0 0 1 7.5 0z" style="stroke:none" transform="translate(230.156 73.27)"/>
            <path d="M7.552 1.5h131.9a6.052 6.052 0 0 1 6.048 6.052A20.948 20.948 0 0 1 124.552 28.5H22.448A20.948 20.948 0 0 1 1.5 7.552 6.052 6.052 0 0 1 7.552 1.5z" style="fill:none" transform="translate(230.156 73.27)"/>
        </g>
        <g data-name="사각형 462983" style="stroke:#222;stroke-width:3px;fill:#7dd3cf">
            <path d="M22.5 0h102A22.5 22.5 0 0 1 147 22.5a7.5 7.5 0 0 1-7.5 7.5H7.5A7.5 7.5 0 0 1 0 22.5 22.5 22.5 0 0 1 22.5 0z" style="stroke:none" transform="translate(230.156 226.27)"/>
            <path d="M22.448 1.5h102.1A20.948 20.948 0 0 1 145.5 22.448a6.052 6.052 0 0 1-6.052 6.052H7.552A6.052 6.052 0 0 1 1.5 22.448 20.948 20.948 0 0 1 22.448 1.5z" style="fill:none" transform="translate(230.156 226.27)"/>
        </g>
        <path data-name="사각형 462984" transform="translate(302.156 103.27)" style="fill:#222" d="M0 0h3v126H0z"/>
        <g data-name="타원 1217" transform="translate(296.156 81.27)" style="fill:#fff;stroke:#222;stroke-width:3px">
            <circle cx="7.5" cy="7.5" r="7.5" style="stroke:none"/>
            <circle cx="7.5" cy="7.5" r="6" style="fill:none"/>
        </g>
        <rect data-name="사각형 462988" width="37.957" height="9" rx="1.003" transform="rotate(-90 231.191 -17.156)" style="fill:#f5f5f5"/>
    </g>
    <g transform="rotate(-90 165.465 52.465)">
        <rect data-name="사각형 1134" width="152" height="116" rx="5.392" transform="rotate(-90 76.09 75.91)" style="fill:#afdae9;stroke-linecap:round;stroke-linejoin:round;stroke:#222;stroke-width:3px"/>
        <path data-name="패스 3714" d="M327.5 120h-68.335a15.817 15.817 0 0 1-15.834 15.8v103.4a15.817 15.817 0 0 1 15.834 15.8H327.5a15.817 15.817 0 0 1 15.833-15.8V135.8A15.817 15.817 0 0 1 327.5 120z" transform="translate(-235.331 -112)" style="stroke-linecap:round;stroke-linejoin:round;fill:#fff;stroke:#222;stroke-width:3px"/>
        <g data-name="그룹 631344">
            <g data-name="그룹 2267">
                <path data-name="선 957" transform="translate(57.168 30.5)" style="stroke-linecap:round;stroke-linejoin:round;fill:none;stroke:#222;stroke-width:3px" d="M0 0v42"/>
                <path data-name="선 958" transform="rotate(90 24.332 54.836)" style="stroke-linecap:round;stroke-linejoin:round;fill:none;stroke:#222;stroke-width:3px" d="M0 0h19.248"/>
                <path data-name="선 960" transform="rotate(90 18.834 49.334)" style="stroke-linecap:round;stroke-linejoin:round;fill:none;stroke:#222;stroke-width:3px" d="M0 0h32.615"/>
                <path data-name="선 961" transform="rotate(90 7.834 38.334)" style="stroke-linecap:round;stroke-linejoin:round;fill:none;stroke:#222;stroke-width:3px" d="M0 0h36.998"/>
                <path data-name="선 962" transform="rotate(90 -12.484 46.652)" style="stroke-linecap:round;stroke-linejoin:round;fill:none;stroke:#222;stroke-width:3px" d="M0 0h17.937"/>
            </g>
            <g data-name="그룹 631346" transform="rotate(90 170.596 -21.991)">
                <path data-name="패스 3393" d="M272.138 98.631v19.74l9.239-5.7 9.275 5.7v-20" transform="translate(20)" style="fill:#f2ac58"/>
                <path data-name="패스 3394" d="M272.138 98.631v19.74l9.239-5.7 9.275 5.7v-20" transform="translate(20)" style="stroke-linecap:round;stroke-linejoin:round;fill:none;stroke:#222;stroke-width:3px"/>
                <circle data-name="타원 567" cx="20" cy="20" r="20" transform="translate(281 59.5)" style="stroke-linecap:round;stroke-linejoin:round;fill:none;stroke:#222;stroke-width:3px"/>
                <path data-name="패스 3395" d="M281 66.8a12.7 12.7 0 1 0 12.7 12.7A12.712 12.712 0 0 0 281 66.8" transform="translate(20)" style="fill:#f2ac58"/>
            </g>
        </g>
    </g>
</svg>
