<svg xmlns="http://www.w3.org/2000/svg" width="444" height="204" viewBox="0 0 444 204">
    <g transform="translate(-622 -2040)">
        <circle data-name="Ellipse 2" cx="40.5" cy="40.5" r="40.5" transform="translate(985 2040)" style="fill:#e4ffe1"/>
        <circle data-name="Ellipse 2" cx="18.25" cy="18.25" r="18.25" transform="translate(622 2151)" style="fill:#fbf0e3"/>
    </g>
    <g transform="translate(6 -42.367)">
        <rect data-name="사각형 463139" width="46" height="142.776" rx="2.005" transform="translate(72.392 79.757)" style="fill:#fff"/>
        <path data-name="패스 10925" d="M72.417 220.841a2.111 2.111 0 0 1-.025-.32V81.767a2.006 2.006 0 0 1 2-2.011h42a2.006 2.006 0 0 1 2 2.011v138.754" style="stroke-width:3.008px;stroke-linecap:round;stroke-linejoin:round;stroke:#222;fill:none"/>
        <path data-name="선 1953" transform="translate(36 222.336)" style="stroke-width:3px;stroke-linecap:round;stroke-linejoin:round;stroke:#222;fill:none" d="M0 0h360"/>
        <g data-name="그룹 631602">
            <path data-name="패스 10926" d="M185.775 63.875h-35.184c-8.113 0-14.78 6.931-14.78 15.39s6.667 15.389 14.78 15.389h35.184z" style="fill:#f0f2f5;stroke-width:3.008px;stroke-linecap:round;stroke-linejoin:round;stroke:#222"/>
            <g data-name="그룹 631601">
                <path data-name="패스 10927" d="M153.065 94.653c-10.9 0-16.529-7.209-17.254-15.389v124.38c0 21.47 23.816 19.321 23.816 19.321h178.412V110.377A15.68 15.68 0 0 0 322.4 94.653H153.065z" style="stroke-width:3.008px;stroke-linecap:round;stroke-linejoin:round;stroke:#222;fill:#fff"/>
            </g>
        </g>
        <g data-name="그룹 631604">
            <g data-name="그룹 631603">
                <path data-name="패스 10928" d="m263.826 158.638-4.192-.585a1.59 1.59 0 0 1-1.34-1.2 27.562 27.562 0 0 0-2.5-5.945 1.6 1.6 0 0 1 .087-1.816l2.592-3.457a1.62 1.62 0 0 0-.146-2.138l-4.92-4.95a1.6 1.6 0 0 0-2.126-.147l-3.523 2.695a1.63 1.63 0 0 1-1.776.088 24.893 24.893 0 0 0-5.824-2.4 1.7 1.7 0 0 1-1.223-1.347l-.582-4.394a1.662 1.662 0 0 0-1.631-1.435h-6.93a1.661 1.661 0 0 0-1.63 1.435l-.583 4.394a1.7 1.7 0 0 1-1.223 1.347 27.418 27.418 0 0 0-5.823 2.4 1.63 1.63 0 0 1-1.776-.088l-3.527-2.695a1.6 1.6 0 0 0-2.126.147l-4.921 4.95a1.621 1.621 0 0 0-.145 2.138l2.591 3.457a1.592 1.592 0 0 1 .087 1.816 27.613 27.613 0 0 0-2.5 5.945 1.588 1.588 0 0 1-1.339 1.2l-4.193.585a1.667 1.667 0 0 0-1.427 1.641v6.971a1.665 1.665 0 0 0 1.427 1.64l4.077.557a1.656 1.656 0 0 1 1.339 1.23 25.869 25.869 0 0 0 2.475 6.181 1.7 1.7 0 0 1-.087 1.816l-2.446 3.222a1.659 1.659 0 0 0 .145 2.168l4.921 4.921a1.6 1.6 0 0 0 2.126.147l3.144-2.4a1.622 1.622 0 0 1 1.806-.088 24.424 24.424 0 0 0 6.231 2.607 1.66 1.66 0 0 1 1.223 1.376l.524 3.9a1.661 1.661 0 0 0 1.63 1.436h6.93a1.662 1.662 0 0 0 1.631-1.436l.524-3.9a1.658 1.658 0 0 1 1.223-1.347 24.511 24.511 0 0 0 6.231-2.636 1.73 1.73 0 0 1 1.834.088l3.116 2.4a1.6 1.6 0 0 0 2.126-.147l4.92-4.921a1.658 1.658 0 0 0 .146-2.168l-2.446-3.222a1.7 1.7 0 0 1-.087-1.816 25.911 25.911 0 0 0 2.475-6.181 1.653 1.653 0 0 1 1.339-1.23l4.076-.557a1.664 1.664 0 0 0 1.427-1.64v-6.971a1.666 1.666 0 0 0-1.431-1.641zm-30.573 18.676a13.536 13.536 0 1 1 13.447-13.522 13.489 13.489 0 0 1-13.447 13.523z" style="fill:#fcf28d;stroke-miterlimit:10;stroke-width:3.008px;stroke:#222"/>
            </g>
        </g>
        <g data-name="그룹 631605">
            <path data-name="패스 10929" d="m147.884 208.317-7.894-1.984c-7.808-1.963-13.242 2.7-16.054 5.382a31.92 31.92 0 0 1-6.374 4.751l-7.384 3.273a3.128 3.128 0 0 0-.192 5.331l8.385 4.515a32.509 32.509 0 0 1 4.843 3.847c2.915 2.857 8.3 7.773 16.3 6.076l8.37-1.774" style="stroke-width:3.008px;stroke-linecap:round;stroke-linejoin:round;stroke:#222;fill:#fff"/>
            <path data-name="패스 10930" d="M147.884 208.147h73.171a3.254 3.254 0 0 1 3.235 3.253v22.91a3.254 3.254 0 0 1-3.235 3.254h-73.171z" style="fill:#fff"/>
            <path data-name="패스 10931" d="M147.884 208.147h5.671a3.254 3.254 0 0 1 3.235 3.253v22.91a3.254 3.254 0 0 1-3.235 3.254h-5.671z" style="fill:#afdae9"/>
            <path data-name="패스 10932" d="M206.384 208.147h14.671a3.254 3.254 0 0 1 3.235 3.253v22.91a3.254 3.254 0 0 1-3.235 3.254h-14.671z" style="fill:#afdae9"/>
            <path data-name="패스 10933" d="M147.884 208.147h73.171a3.254 3.254 0 0 1 3.235 3.253v22.91a3.254 3.254 0 0 1-3.235 3.254h-73.171z" style="stroke-width:3.008px;stroke-linecap:round;stroke-linejoin:round;stroke:#222;fill:none"/>
            <path data-name="선 1954" transform="translate(157.192 208.147)" style="stroke-width:3.008px;stroke-linecap:round;stroke-linejoin:round;stroke:#222;fill:#fff" d="M0 29.417V0"/>
            <path data-name="선 1955" transform="translate(109.848 222.595)" style="stroke-width:3.008px;stroke-linecap:round;stroke-linejoin:round;stroke:#222;fill:#fff" d="M22.677 0H0"/>
            <path data-name="패스 10934" d="M134.723 220.845a1.559 1.559 0 1 0 1.552 1.559 1.555 1.555 0 0 0-1.552-1.559z" style="stroke-width:3.008px;stroke-linecap:round;stroke-linejoin:round;stroke:#222;fill:#fff"/>
            <path data-name="선 1956" transform="translate(206.939 208.538)" style="stroke-width:3.016px;stroke-linecap:round;stroke-linejoin:round;stroke:#222;fill:none" d="M0 28.29V0"/>
        </g>
        <path data-name="선 1957" transform="translate(152.337 117.494)" style="stroke:#f0f2f5;stroke-width:5px;stroke-linecap:round;stroke-linejoin:round;fill:none" d="M0 0h48"/>
        <path data-name="선 1958" transform="translate(152.337 130.392)" style="stroke:#f0f2f5;stroke-width:5px;stroke-linecap:round;stroke-linejoin:round;fill:none" d="M0 0h38"/>
        <path data-name="선 1959" transform="translate(152.337 143.291)" style="stroke:#f0f2f5;stroke-width:5px;stroke-linecap:round;stroke-linejoin:round;fill:none" d="M0 0h38"/>
        <path data-name="선 1960" transform="translate(289.934 185.285)" style="stroke:#f0f2f5;stroke-width:5px;stroke-linecap:round;stroke-linejoin:round;fill:none" d="M0 0h48"/>
        <path data-name="선 1961" transform="translate(299.934 198.184)" style="stroke:#f0f2f5;stroke-width:5px;stroke-linecap:round;stroke-linejoin:round;fill:none" d="M0 0h38"/>
        <path data-name="선 1962" transform="translate(299.934 211.082)" style="stroke:#f0f2f5;stroke-width:5px;stroke-linecap:round;stroke-linejoin:round;fill:none" d="M0 0h38"/>
        <g data-name="그룹 631606">
            <path data-name="패스 10935" d="M338.039 229.136v-117.6a15.68 15.68 0 0 1-15.639 15.729h-20.326v117.594H322.4a15.68 15.68 0 0 0 15.639-15.723z" style="fill:#f0f2f5;stroke-width:3.008px;stroke-linecap:round;stroke-linejoin:round;stroke:#222"/>
        </g>
        <rect data-name="사각형 463140" width="34.285" height="50.39" rx="2.349" transform="translate(79.107 86.346)" style="fill:#f2ac58"/>
        <g data-name="그룹 631607">
            <path data-name="선 1963" transform="translate(98.392 112.872)" style="stroke-width:3px;stroke-linecap:round;stroke-linejoin:round;stroke:#222;fill:none" d="M0 0h20"/>
            <path data-name="선 1964" transform="translate(108.392 97.562)" style="stroke-width:3px;stroke-linecap:round;stroke-linejoin:round;stroke:#222;fill:none" d="M0 0h10"/>
            <path data-name="선 1965" transform="translate(98.392 143.49)" style="stroke-width:3px;stroke-linecap:round;stroke-linejoin:round;stroke:#222;fill:none" d="M0 0h20"/>
            <path data-name="선 1966" transform="translate(108.392 128.181)" style="stroke-width:3px;stroke-linecap:round;stroke-linejoin:round;stroke:#222;fill:none" d="M0 0h10"/>
            <path data-name="선 1967" transform="translate(98.392 174.108)" style="stroke-width:3px;stroke-linecap:round;stroke-linejoin:round;stroke:#222;fill:none" d="M0 0h20"/>
            <path data-name="선 1968" transform="translate(108.392 158.799)" style="stroke-width:3px;stroke-linecap:round;stroke-linejoin:round;stroke:#222;fill:none" d="M0 0h10"/>
            <path data-name="선 1969" transform="translate(98.392 204.727)" style="stroke-width:3px;stroke-linecap:round;stroke-linejoin:round;stroke:#222;fill:none" d="M0 0h20"/>
            <path data-name="선 1970" transform="translate(108.392 189.418)" style="stroke-width:3px;stroke-linecap:round;stroke-linejoin:round;stroke:#222;fill:none" d="M0 0h10"/>
        </g>
    </g>
</svg>
