<svg xmlns="http://www.w3.org/2000/svg" width="444" height="228" viewBox="0 0 444 228">
  <defs>
    <style>
      .cls-1 {
        fill: rgba(255,191,191,0.5);
        opacity: 0;
      }

      .cls-2 {
        fill: #dcf5fb;
      }

      .cls-3 {
        fill: #e3e6fb;
      }

      .cls-4 {
        fill: #fbf0e3;
      }

      .cls-5 {
        fill: #e4e4e4;
      }

      .cls-12, .cls-14, .cls-15, .cls-5, .cls-6, .cls-7 {
        stroke: #222;
      }

      .cls-15, .cls-5, .cls-6, .cls-7 {
        stroke-linecap: round;
        stroke-linejoin: round;
      }

      .cls-5, .cls-6 {
        stroke-width: 2.994px;
      }

      .cls-6, .cls-9 {
        fill: #fff;
      }

      .cls-7 {
        fill: none;
      }

      .cls-12, .cls-14, .cls-15, .cls-7 {
        stroke-width: 3px;
      }

      .cls-8 {
        fill: #b8e6f7;
      }

      .cls-10 {
        fill: #fcc37f;
      }

      .cls-11, .cls-12 {
        fill: #fcf28d;
      }

      .cls-13 {
        fill: #222;
      }

      .cls-14 {
        fill: #47bcbf;
        stroke-miterlimit: 10;
      }

      .cls-15 {
        fill: #7dd3cf;
      }
    </style>
  </defs>
  <g id="SWKDIFDT2800_2" transform="translate(-465 -1590)">
    <g id="deco">
      <rect id="BG" class="cls-1" width="444" height="228" transform="translate(465 1590)"/>
      <circle id="Ellipse_2" data-name="Ellipse 2" class="cls-2" cx="41" cy="41" r="41" transform="translate(758 1720)"/>
      <circle id="Ellipse_2-2" data-name="Ellipse 2" class="cls-3" cx="19.75" cy="19.75" r="19.75" transform="translate(828 1590)"/>
      <circle id="Ellipse_2-3" data-name="Ellipse 2" class="cls-4" cx="13.479" cy="13.479" r="13.479" transform="translate(494.021 1629.5)"/>
    </g>
    <g id="img" transform="translate(-1049.944 -531.776)">
      <g id="문서" transform="translate(1491.444 2082.535)">
        <g id="그룹_841" data-name="그룹 841" transform="translate(-0.702)">
          <path id="패스_1446" data-name="패스 1446" class="cls-5" d="M365.2,97.543v36.065H337.26V97.543c0-6.4,6.256-11.592,13.971-11.592S365.2,91.141,365.2,97.543Z"/>
          <path id="패스_1447" data-name="패스 1447" class="cls-6" d="M191.2,264.734V99.241c0-7.912,7.376-14.018,15.523-13.088v-.088H350.888c-7.715,0-13.97,5.9-13.97,13.182V264.811" transform="translate(0.5)"/>
        </g>
        <line id="선_335" data-name="선 335" class="cls-7" x2="76" transform="translate(225 224.741)"/>
        <line id="선_336" data-name="선 336" class="cls-7" x2="48.5" transform="translate(225 243.742)"/>
        <g id="건물_3종" data-name="건물 3종" transform="translate(6653.68 4526.24)">
          <path id="패스_3543" data-name="패스 3543" class="cls-8" d="M185.82,113.447V30.5l30.379,7v75.947" transform="translate(-6562.074 -4434.811)"/>
          <path id="패스_3544" data-name="패스 3544" class="cls-7" d="M185.82,113.447V30.5l30.379,7v75.947" transform="translate(-6562.074 -4434.811)"/>
          <path id="패스_3545" data-name="패스 3545" class="cls-9" d="M206.313,73.362h-3.748a.681.681,0,0,1-.682-.681V68.931a.681.681,0,0,1,.682-.681h3.748a.681.681,0,0,1,.681.681v3.749a.681.681,0,0,1-.681.681" transform="translate(-6559.369 -4429.632)"/>
          <path id="패스_3546" data-name="패스 3546" class="cls-9" d="M206.313,51.487h-3.748a.681.681,0,0,1-.682-.681V47.056a.681.681,0,0,1,.682-.681h3.748a.681.681,0,0,1,.681.681v3.749a.681.681,0,0,1-.681.681" transform="translate(-6559.369 -4433.316)"/>
          <path id="패스_3547" data-name="패스 3547" class="cls-9" d="M206.313,62.425h-3.748a.681.681,0,0,1-.682-.681V57.994a.681.681,0,0,1,.682-.681h3.748a.681.681,0,0,1,.681.681v3.749a.681.681,0,0,1-.681.681" transform="translate(-6559.369 -4431.474)"/>
          <path id="패스_3548" data-name="패스 3548" class="cls-9" d="M206.313,84.3h-3.748a.681.681,0,0,1-.682-.681V79.869a.681.681,0,0,1,.682-.681h3.748a.681.681,0,0,1,.681.681v3.749a.681.681,0,0,1-.681.681" transform="translate(-6559.369 -4427.79)"/>
          <path id="패스_3549" data-name="패스 3549" class="cls-9" d="M206.313,95.237h-3.748a.681.681,0,0,1-.682-.681V90.806a.681.681,0,0,1,.682-.681h3.748a.681.681,0,0,1,.681.681v3.749a.681.681,0,0,1-.681.681" transform="translate(-6559.369 -4425.948)"/>
          <path id="패스_3550" data-name="패스 3550" class="cls-10" d="M142.82,115.636V42.221L172.865,24.5h5.008v91.136" transform="translate(-6569.316 -4437)"/>
          <path id="패스_3551" data-name="패스 3551" class="cls-7" d="M142.82,115.636V42.221L172.865,24.5h5.008v91.136" transform="translate(-6569.316 -4437)"/>
          <line id="선_334" data-name="선 334" class="cls-7" x2="9.347" transform="translate(-6419.485 -4368.101)"/>
          <line id="선_335-2" data-name="선 335" class="cls-7" x2="9.347" transform="translate(-6419.485 -4377.447)"/>
          <line id="선_336-2" data-name="선 336" class="cls-7" x2="9.347" transform="translate(-6419.485 -4357.584)"/>
          <line id="선_337" data-name="선 337" class="cls-7" x2="9.347" transform="translate(-6419.485 -4347.069)"/>
          <line id="선_338" data-name="선 338" class="cls-7" x2="9.347" transform="translate(-6419.485 -4336.553)"/>
          <path id="패스_3552" data-name="패스 3552" class="cls-9" d="M172.82,54.847V45.5h19.863v9.347" transform="translate(-6564.263 -4433.463)"/>
          <path id="패스_3553" data-name="패스 3553" class="cls-7" d="M172.82,54.847V45.5h19.863v9.347" transform="translate(-6564.263 -4433.463)"/>
          <path id="패스_3554" data-name="패스 3554" class="cls-9" d="M166.82,110.584V54.5h35.052v56.084" transform="translate(-6565.274 -4431.947)"/>
          <path id="패스_3555" data-name="패스 3555" class="cls-7" d="M166.82,110.584V54.5h35.052v56.084" transform="translate(-6565.274 -4431.947)"/>
          <line id="선_339" data-name="선 339" class="cls-9" x2="18.695" transform="translate(-6390.275 -4343.563)"/>
          <line id="선_340" data-name="선 340" class="cls-7" x2="18.695" transform="translate(-6390.275 -4343.563)"/>
          <line id="선_341" data-name="선 341" class="cls-9" x2="18.695" transform="translate(-6390.275 -4354.08)"/>
          <line id="선_342" data-name="선 342" class="cls-7" x2="18.695" transform="translate(-6390.275 -4354.08)"/>
          <line id="선_343" data-name="선 343" class="cls-9" x2="18.695" transform="translate(-6390.275 -4334.216)"/>
          <line id="선_344" data-name="선 344" class="cls-7" x2="18.695" transform="translate(-6390.275 -4334.216)"/>
          <line id="선_345" data-name="선 345" class="cls-9" x2="18.695" transform="translate(-6390.275 -4364.595)"/>
          <line id="선_346" data-name="선 346" class="cls-7" x2="18.695" transform="translate(-6390.275 -4364.595)"/>
          <line id="선_347" data-name="선 347" class="cls-11" x2="105.157" transform="translate(-6438.18 -4320.195)"/>
          <line id="선_348" data-name="선 348" class="cls-7" x2="82" transform="translate(-6427.303 -4320.498)"/>
        </g>
      </g>
      <g id="money" transform="translate(1366.083 2155.992)">
        <path id="패스_3320" data-name="패스 3320" class="cls-11" d="M229.5,187.329V134.286H335.586v53.043" transform="translate(0 3.261)"/>
        <path id="패스_3321" data-name="패스 3321" class="cls-7" d="M229.5,187.329V134.286H335.586v53.043" transform="translate(0 3.261)"/>
        <line id="선_219" data-name="선 219" class="cls-7" x2="106.086" transform="translate(229.5 181.308)"/>
        <line id="선_220" data-name="선 220" class="cls-7" x2="106.086" transform="translate(229.5 170.699)"/>
        <line id="선_221" data-name="선 221" class="cls-7" x2="106.086" transform="translate(229.5 160.09)"/>
        <line id="선_222" data-name="선 222" class="cls-7" x2="106.086" transform="translate(229.5 149.482)"/>
        <path id="패스_3322" data-name="패스 3322" class="cls-11" d="M335.586,137.547H229.5l9.538-13.261h87.009Z" transform="translate(0 0)"/>
        <path id="패스_3323" data-name="패스 3323" class="cls-7" d="M335.586,137.547H229.5l9.538-13.261h87.009Z" transform="translate(0 0)"/>
        <path id="패스_3324" data-name="패스 3324" class="cls-9" d="M262.764,136.738l1.612-12.452h14.7l1.609,12.452" transform="translate(10.847)"/>
        <path id="패스_3325" data-name="패스 3325" class="cls-7" d="M262.764,136.738l1.612-12.452h14.7l1.609,12.452" transform="translate(10.847)"/>
        <path id="패스_3326" data-name="패스 3326" class="cls-9" d="M263,187.329V134.286h17.239v53.043" transform="translate(10.924 3.261)"/>
        <path id="패스_3327" data-name="패스 3327" class="cls-7" d="M263,187.329V134.286h17.239v53.043" transform="translate(10.924 3.261)"/>
      </g>
      <g id="동전_회전" data-name="동전 회전" transform="translate(1306.364 2072.122)">
        <circle id="타원_1191" data-name="타원 1191" class="cls-9" cx="46" cy="46" r="46" transform="translate(296.262 131.573)"/>
        <circle id="타원_83" data-name="타원 83" class="cls-12" cx="32.01" cy="32.01" r="32.01" transform="translate(310.662 146.328)"/>
        <g id="그룹_972" data-name="그룹 972" transform="translate(324.177 170.427)">
          <path id="패스_1660" data-name="패스 1660" class="cls-7" d="M331.491,176.827l6.53,17.12a1.53,1.53,0,0,0,2.9-.125l4.729-16.6a1.53,1.53,0,0,1,2.935-.027l5.042,16.517a1.53,1.53,0,0,0,2.911.047l5.767-16.933" transform="translate(-328.538 -176.114)"/>
          <line id="선_394" data-name="선 394" class="cls-7" x2="36.719" transform="translate(0 8.61)"/>
        </g>
        <g id="그룹_630719" data-name="그룹 630719">
          <path id="교차_1" data-name="교차 1" class="cls-13" d="M5530.868-6620.485a45.987,45.987,0,0,1-45.606-45.971l3.007.786a42.649,42.649,0,0,0,3.371,15.941,42.85,42.85,0,0,0,9.217,13.66,42.859,42.859,0,0,0,13.668,9.211,42.745,42.745,0,0,0,16.737,3.376,42.745,42.745,0,0,0,16.738-3.376,42.856,42.856,0,0,0,13.669-9.211,42.985,42.985,0,0,0,6.714-8.675l3.005.785a45.993,45.993,0,0,1-39.733,23.475Z" transform="translate(-5189 6844)"/>
          <path id="다각형_2" data-name="다각형 2" class="cls-13" d="M8.627,1.562a1,1,0,0,1,1.746,0l7.8,13.95A1,1,0,0,1,17.3,17H1.7a1,1,0,0,1-.873-1.488Z" transform="translate(288.262 163.552)"/>
        </g>
        <g id="그룹_630720" data-name="그룹 630720" transform="translate(296.262 131.573)">
          <path id="교차_1-2" data-name="교차 1" class="cls-13" d="M0,0,3.008.8a42.551,42.551,0,0,0,3.37,15.907A42.777,42.777,0,0,0,15.6,30.35a42.846,42.846,0,0,0,13.668,9.2A42.8,42.8,0,0,0,46,42.921a42.8,42.8,0,0,0,16.736-3.372,42.85,42.85,0,0,0,13.669-9.2,42.946,42.946,0,0,0,6.513-8.325l3,.8A45.994,45.994,0,0,1,46,45.915,45.957,45.957,0,0,1,0,0Z" transform="translate(92.001 45.971) rotate(180)"/>
          <path id="다각형_2-2" data-name="다각형 2" class="cls-13" d="M8.627,1.562a1,1,0,0,1,1.746,0l7.8,13.95A1,1,0,0,1,17.3,17H1.7a1,1,0,0,1-.873-1.488Z" transform="translate(100.001 59.963) rotate(180)"/>
        </g>
      </g>
      <line id="선_224" data-name="선 224" class="cls-7" x2="360" transform="translate(1557.444 2347.876)"/>
      <g id="나무" transform="translate(1841.042 2313.429)">
        <path id="패스_3405" data-name="패스 3405" class="cls-14" d="M57.91,148.99a10.293,10.293,0,0,1-1.177-.067A10.141,10.141,0,0,1,50,132.528a2.4,2.4,0,0,0,.558-1.822,7.3,7.3,0,0,1-.069-1,7.448,7.448,0,0,1,14.709-1.662,7.523,7.523,0,0,1,.122,2.633,2.412,2.412,0,0,0,.536,1.836A10.142,10.142,0,0,1,57.91,148.99Z" transform="translate(-47.786 -122.257)"/>
        <line id="선_263" data-name="선 263" class="cls-7" y1="5.961" transform="translate(10.4 27.192)"/>
      </g>
      <g id="나무-2" data-name="나무" transform="translate(-7.896 26.825)">
        <path id="패스_5241" data-name="패스 5241" class="cls-15" d="M1895.067,2308.769a14.539,14.539,0,0,1-4.774-.8h0a14.638,14.638,0,0,1-8.9-19.019.207.207,0,0,0-.012-.177,15.713,15.713,0,0,1,2.834-19.067.167.167,0,0,0,.042-.153,11.139,11.139,0,1,1,21.643.01.156.156,0,0,0,.045.143,15.716,15.716,0,0,1,2.834,19.066.217.217,0,0,0-.009.187,14.653,14.653,0,0,1-12.361,19.751Q1895.733,2308.77,1895.067,2308.769Z"/>
        <line id="선_440" data-name="선 440" class="cls-7" y2="44.285" transform="translate(1895.076 2276.766)"/>
        <line id="선_441" data-name="선 441" class="cls-7" x1="5.807" y2="8.576" transform="translate(1895.076 2279.564)"/>
        <line id="선_442" data-name="선 442" class="cls-7" x2="6.694" y2="11.061" transform="translate(1888.381 2284.841)"/>
      </g>
    </g>
  </g>
</svg>
