<svg xmlns="http://www.w3.org/2000/svg" width="444" height="221" viewBox="0 0 444 221">
    <g transform="translate(39 33.282)">
        <circle data-name="타원 561" cx="16" cy="16" r="16" transform="translate(350 -33.282)" style="fill:#dcf5fb"/>
        <circle data-name="타원 562" cx="55.5" cy="55.5" r="55.5" transform="translate(-10 29.718)" style="fill:#fbf0e3"/>
        <circle data-name="타원 752" cx="23" cy="23" r="23" transform="translate(327 -24.282)" style="fill:#f8f6b1;opacity:.603"/>
    </g>
    <g data-name="그룹 626234">
        <g data-name="그룹 323">
            <path data-name="패스 590" d="M186.5 178.763V84.475a1.1 1.1 0 0 1 1.165-1.024h122.948a1.1 1.1 0 0 1 1.165 1.024v94.288" transform="translate(-85.997 39.624)" style="stroke-width:3.004px;stroke-linecap:round;stroke-linejoin:round;stroke:#222;fill:#fff"/>
            <g data-name="그룹 322">
                <path data-name="패스 595" d="m313.773 103.129 4 19.73c0 4.584-4.686 8.3-9.233 8.3s-9.232-3.717-9.232-8.3l-2-19.73z" transform="translate(-118.378 19.946)" style="stroke-width:3px;fill:#f2ac58;stroke:#222"/>
                <path data-name="패스 596" d="m290.708 103.129 2 19.73c0 4.584-4.686 8.3-9.233 8.3s-9.232-3.717-9.232-8.3v-19.73z" transform="translate(-111.779 19.946)" style="fill:#fcf28d;stroke-width:3px;stroke:#222"/>
                <path data-name="패스 9504" d="m313.773 103.129 4 19.73c0 4.584-4.686 8.3-9.233 8.3s-9.232-3.717-9.232-8.3l-4-19.73z" transform="translate(-100.378 19.946)" style="fill:#fcf28d;stroke-width:3px;stroke:#222"/>
                <path data-name="패스 9505" d="m313.773 103.129 4 19.73c0 4.584-4.686 8.3-9.233 8.3s-9.232-3.717-9.232-8.3l-4-19.73z" transform="translate(-82.378 19.946)" style="stroke-width:3px;fill:#f2ac58;stroke:#222"/>
                <path data-name="패스 9506" d="m301.307 103.129-4 19.73c0 4.584 4.686 8.3 9.233 8.3s9.232-3.717 9.232-8.3l2-19.73z" transform="translate(-153.308 19.946)" style="stroke-width:3px;fill:#f2ac58;stroke:#222"/>
                <path data-name="패스 9507" d="m299.307 103.129-4 19.73c0 4.584 4.686 8.3 9.233 8.3s9.232-3.717 9.232-8.3l4-19.73z" transform="translate(-169.308 19.947)" style="fill:#fcf28d;stroke-width:3px;stroke:#222"/>
                <path data-name="패스 9508" d="m299.307 103.129-4 19.73c0 4.584 4.686 8.3 9.233 8.3s9.232-3.717 9.232-8.3l4-19.73z" transform="translate(-187.308 19.947)" style="stroke-width:3px;fill:#f2ac58;stroke:#222"/>
                <path data-name="패스 9509" d="m299.307 103.129-4 19.73c0 4.584 4.686 8.3 9.233 8.3s9.232-3.717 9.232-8.3l4-19.73z" transform="translate(-205.308 19.947)" style="fill:#fcf28d;stroke-width:3px;stroke:#222"/>
            </g>
            <path data-name="사각형 462568" transform="translate(112.999 171.001)" style="fill:#e9f6fd" d="M0 0h18v18H0z"/>
            <path data-name="사각형 462569" transform="translate(139.999 171.001)" style="fill:#e9f6fd" d="M0 0h18v18H0z"/>
            <path data-name="패스 599" d="M222.092 189.022h-19.457a1.18 1.18 0 0 1-1.175-1.184V168.56a1.18 1.18 0 0 1 1.175-1.184h19.457a1.18 1.18 0 0 1 1.175 1.184v19.277a1.18 1.18 0 0 1-1.175 1.185zm-18.283-2.369h17.108v-16.908h-17.108z" transform="translate(-90.596 1.564)" style="fill:#222"/>
            <path data-name="사각형 462567" transform="translate(171.999 170.001)" style="fill:#e9f6fd" d="M0 0h40v48H0z"/>
            <path data-name="패스 600" d="M260.669 189.022h-19.458a1.179 1.179 0 0 1-1.175-1.184V168.56a1.179 1.179 0 0 1 1.175-1.184h19.458a1.18 1.18 0 0 1 1.175 1.184v19.277a1.18 1.18 0 0 1-1.175 1.185zm-18.283-2.369h17.107v-16.908h-17.107z" transform="translate(-101.634 1.564)" style="fill:#222"/>
            <path data-name="패스 601" d="M327.434 217.461a1.18 1.18 0 0 1-1.175-1.185V168.74h-39.2v47.536a1.175 1.175 0 1 1-2.35 0v-48.721a1.18 1.18 0 0 1 1.175-1.184h41.549a1.18 1.18 0 0 1 1.175 1.184v48.721a1.18 1.18 0 0 1-1.174 1.185z" transform="translate(-114.416 1.852)" style="fill:#222"/>
            <path data-name="패스 602" d="M314.986 217.461a1.18 1.18 0 0 1-1.175-1.185v-48.721a1.175 1.175 0 1 1 2.35 0v48.721a1.18 1.18 0 0 1-1.175 1.185z" transform="translate(-122.742 1.852)" style="fill:#222"/>
            <g data-name="사각형 462562" transform="translate(113.999 82.001)" style="fill:#c7f1ff;stroke-width:3px;stroke:#222">
                <rect width="98" height="33" rx="3" style="stroke:none"/>
                <rect x="1.5" y="1.5" width="95" height="30" rx="1.5" style="fill:none"/>
            </g>
            <g data-name="그룹 630712">
                <path data-name="사각형 462563" transform="translate(136.999 114.001)" style="fill:#222" d="M0 0h3v8H0z"/>
                <path data-name="사각형 462564" transform="translate(185.999 114.001)" style="fill:#222" d="M0 0h3v8H0z"/>
            </g>
            <path data-name="패스 15859" d="M-18.116-3.867a3.786 3.786 0 0 1-.6 2.1A4 4 0 0 1-20.48-.308a6.6 6.6 0 0 1-2.751.528 6.19 6.19 0 0 1-3.147-.72 4.192 4.192 0 0 1-1.428-1.384 3.142 3.142 0 0 1-.549-1.683 1.124 1.124 0 0 1 .33-.813 1.121 1.121 0 0 1 .839-.338.992.992 0 0 1 .7.264 2.074 2.074 0 0 1 .486.78 5.227 5.227 0 0 0 .532 1.028 2.156 2.156 0 0 0 .8.681A2.972 2.972 0 0 0-23.3-1.7a3.074 3.074 0 0 0 1.885-.541 1.626 1.626 0 0 0 .725-1.349 1.426 1.426 0 0 0-.391-1.042 2.522 2.522 0 0 0-1.011-.611q-.62-.211-1.657-.448a12.154 12.154 0 0 1-2.325-.76 3.757 3.757 0 0 1-1.486-1.182 3.08 3.08 0 0 1-.549-1.867 3.207 3.207 0 0 1 .58-1.89 3.657 3.657 0 0 1 1.679-1.27 6.874 6.874 0 0 1 2.584-.444 6.392 6.392 0 0 1 2.052.294 4.337 4.337 0 0 1 1.437.782A3.268 3.268 0 0 1-18.942-11a2.361 2.361 0 0 1 .264 1.046 1.236 1.236 0 0 1-.33.839 1.051 1.051 0 0 1-.822.374.945.945 0 0 1-.681-.224 3.02 3.02 0 0 1-.505-.734 3.327 3.327 0 0 0-.844-1.138 2.468 2.468 0 0 0-1.582-.409 2.74 2.74 0 0 0-1.63.444 1.291 1.291 0 0 0-.62 1.068 1.082 1.082 0 0 0 .211.668 1.776 1.776 0 0 0 .58.483 3.911 3.911 0 0 0 .747.316q.378.114 1.248.334a19.583 19.583 0 0 1 1.973.563 6 6 0 0 1 1.5.747 3.073 3.073 0 0 1 .967 1.112 3.561 3.561 0 0 1 .35 1.644zm9.682-6.864h-2.848v9.36a1.723 1.723 0 0 1-.36 1.2 1.209 1.209 0 0 1-.932.391 1.226 1.226 0 0 1-.945-.4 1.711 1.711 0 0 1-.365-1.2v-9.36h-2.848a1.442 1.442 0 0 1-.993-.294 1 1 0 0 1-.325-.778.987.987 0 0 1 .338-.791 1.466 1.466 0 0 1 .98-.29h8.3a1.46 1.46 0 0 1 1.006.3 1.006 1.006 0 0 1 .33.782.986.986 0 0 1-.334.778 1.477 1.477 0 0 1-1.004.302zM-1.02-13.1a6.88 6.88 0 0 1 3.441.813A5.27 5.27 0 0 1 4.6-9.98a7.878 7.878 0 0 1 .738 3.52 8.61 8.61 0 0 1-.4 2.716 5.876 5.876 0 0 1-1.22 2.118A5.3 5.3 0 0 1 1.731-.255 7.174 7.174 0 0 1-.967.22a7.111 7.111 0 0 1-2.707-.488 5.37 5.37 0 0 1-2-1.375 5.875 5.875 0 0 1-1.203-2.136 8.622 8.622 0 0 1-.409-2.7A8.33 8.33 0 0 1-6.86-9.2a5.845 5.845 0 0 1 1.235-2.109 5.341 5.341 0 0 1 1.969-1.332A7.088 7.088 0 0 1-1.02-13.1zm3.709 6.622a6.045 6.045 0 0 0-.457-2.452A3.412 3.412 0 0 0 .927-10.5a3.588 3.588 0 0 0-1.947-.53 3.524 3.524 0 0 0-1.446.294 3.177 3.177 0 0 0-1.143.857 4.094 4.094 0 0 0-.756 1.437 6.494 6.494 0 0 0-.277 1.964 6.656 6.656 0 0 0 .277 1.986 4.072 4.072 0 0 0 .782 1.472 3.286 3.286 0 0 0 1.16.875 3.509 3.509 0 0 0 1.437.29 3.526 3.526 0 0 0 1.841-.5A3.463 3.463 0 0 0 2.193-3.9a5.98 5.98 0 0 0 .496-2.578zm7.485.967H9.26v4.14a1.72 1.72 0 0 1-.36 1.2 1.226 1.226 0 0 1-.94.387 1.2 1.2 0 0 1-.967-.4 1.791 1.791 0 0 1-.343-1.187v-9.914a1.676 1.676 0 0 1 .378-1.222 1.676 1.676 0 0 1 1.222-.378h4.245a12.894 12.894 0 0 1 1.5.075 3.778 3.778 0 0 1 1.125.3 3.257 3.257 0 0 1 1.072.729 3.194 3.194 0 0 1 .708 1.1 3.677 3.677 0 0 1 .242 1.332 3.218 3.218 0 0 1-.813 2.3 4.669 4.669 0 0 1-2.465 1.222 4.772 4.772 0 0 1 1.327 1.09 11.053 11.053 0 0 1 1.129 1.534 11.363 11.363 0 0 1 .78 1.476 2.9 2.9 0 0 1 .277.9.92.92 0 0 1-.163.505 1.14 1.14 0 0 1-.444.4 1.4 1.4 0 0 1-.65.145 1.267 1.267 0 0 1-.738-.207 1.986 1.986 0 0 1-.514-.523q-.215-.316-.584-.932l-1.046-1.74a9.575 9.575 0 0 0-1.006-1.459 2.484 2.484 0 0 0-.9-.686 3.1 3.1 0 0 0-1.158-.187zm1.494-5.414H9.26v3.542h2.34a6.55 6.55 0 0 0 1.582-.163 1.855 1.855 0 0 0 .98-.554 1.591 1.591 0 0 0 .338-1.076 1.664 1.664 0 0 0-.272-.945 1.647 1.647 0 0 0-.756-.611 5.438 5.438 0 0 0-1.804-.193zm15.536.053h-5.88v3.164h5.414a1.289 1.289 0 0 1 .892.268.911.911 0 0 1 .294.708.946.946 0 0 1-.29.716 1.259 1.259 0 0 1-.9.277h-5.41v3.665h6.082a1.331 1.331 0 0 1 .927.286.981.981 0 0 1 .312.76.96.96 0 0 1-.312.743 1.331 1.331 0 0 1-.927.285h-7.093a1.674 1.674 0 0 1-1.226-.378 1.689 1.689 0 0 1-.373-1.222v-9.686a2.172 2.172 0 0 1 .167-.918 1.037 1.037 0 0 1 .523-.519 2.2 2.2 0 0 1 .91-.163H27.2a1.339 1.339 0 0 1 .927.277.936.936 0 0 1 .3.725.946.946 0 0 1-.3.734 1.339 1.339 0 0 1-.927.278z" transform="translate(162.999 105.001)" style="fill:#222"/>
        </g>
        <g data-name="카드 손">
            <g data-name="그룹 627513" transform="translate(249.308 18.031)">
                <path data-name="패스 6283" d="M1309.135 503.19h-40.684v-12.109s-12.6-11.22-8.719-20.422 29.742-34.327 29.742-34.327 19.658 17.481 19.661 30.264 0 36.594 0 36.594z" transform="translate(-1219.422 -361.845)" style="fill:#ffece1"/>
                <path data-name="패스 6284" d="M1268.6 509.485v-11.67s-8.719-6.564-8.719-14.587v-5.835" transform="translate(-1219.568 -368.579)" style="fill:none;stroke-width:3px;stroke-linecap:round;stroke-linejoin:round;stroke:#222"/>
                <path data-name="패스 6285" d="M1318 529.674v-13.893h-58.125v13.893" transform="translate(-1219.568 -374.875)" style="stroke-width:3px;stroke-linecap:round;stroke-linejoin:round;stroke:#222;fill:#fff"/>
                <path data-name="패스 6286" d="M1314.983 502.617v-40.845c0-5.835-2.906-8.753-5.813-11.67l-14.531-14.587" transform="translate(-1225.269 -361.711)" style="fill:#ffece1;stroke-width:3px;stroke-linecap:round;stroke-linejoin:round;stroke:#222"/>
                <rect data-name="사각형 461531" width="69.373" height="108.814" rx="4.33" transform="rotate(180 34.687 54.407)" style="fill:#fff"/>
                <path data-name="사각형 461532" transform="rotate(-90 76.931 31.882)" style="fill:#e5e4df" d="M0 0h108.814v12.546H0z"/>
                <rect data-name="사각형 461533" width="69.373" height="108.814" rx="4.33" transform="rotate(180 34.687 54.407)" style="fill:none;stroke-width:3px;stroke-linecap:round;stroke-linejoin:round;stroke:#222"/>
                <ellipse data-name="타원 694" cx="9.394" cy="9.431" rx="9.394" ry="9.431" transform="translate(9.395 28.254)" style="stroke-miterlimit:10;fill:#afdae9;stroke-width:3px;stroke:#222"/>
                <ellipse data-name="타원 1431" cx="9.394" cy="9.431" rx="9.394" ry="9.431" transform="translate(9.396 13.733)" style="stroke-miterlimit:10;fill:#fcf28d;stroke-width:3px;stroke:#222"/>
                <path data-name="선 752" transform="translate(57.595)" style="stroke-miterlimit:10;fill:none;stroke-width:3px;stroke:#222" d="M0 108.814V0"/>
                <path data-name="선 753" transform="translate(45.049)" style="stroke-miterlimit:10;fill:none;stroke-width:3px;stroke:#222" d="M0 108.814V0"/>
                <path data-name="선 754" transform="translate(18.789 81.94)" style="fill:none;stroke-width:3px;stroke-linecap:round;stroke-linejoin:round;stroke:#222" d="M0 12.224V0"/>
                <path data-name="선 755" transform="translate(18.789 63.419)" style="fill:none;stroke-width:3px;stroke-linecap:round;stroke-linejoin:round;stroke:#222" d="M0 12.224V0"/>
                <path data-name="패스 6288" d="m1298.826 469.077-23.251-23.34c-5.352-5.373-12.655 7.719-5.812 14.587l5.812 5.835v5.835a14.484 14.484 0 0 0 12.066 14.587" transform="translate(-1220.733 -363.18)" style="fill:#ffece1;stroke-width:3px;stroke-linecap:round;stroke-linejoin:round;stroke:#222"/>
                <path data-name="사각형 461534" transform="rotate(180 52.668 100.734)" style="fill:#727272;stroke-width:3px;stroke-linecap:round;stroke-linejoin:round;stroke:#222" d="M0 0h72.264v50.78H0z"/>
                <path data-name="사각형 461535" transform="rotate(180 26.957 100.11)" style="fill:#595959" d="M0 0h20.064v48.282H0z"/>
                <path data-name="패스 6289" d="M1265.87 536.739a2 2 0 1 1-2-2 2 2 0 0 1 2 2z" transform="translate(-1220.782 -378.769)" style="fill:#222"/>
                <g data-name="그룹 626973">
                    <g data-name="그룹 626971">
                        <path data-name="선 458" transform="translate(-35.523 18.588)" style="stroke:#000;stroke-width:2px;stroke-linecap:round;stroke-linejoin:round;fill:#fff" d="M0 3.59 3.59 0"/>
                        <path data-name="선 459" transform="translate(-27.078 10.142)" style="stroke:#000;stroke-width:2px;stroke-linecap:round;stroke-linejoin:round;fill:#fff" d="M0 3.59 3.59 0"/>
                    </g>
                    <g data-name="그룹 626972">
                        <path data-name="선 460" transform="translate(-27.077 18.588)" style="stroke:#000;stroke-width:2px;stroke-linecap:round;stroke-linejoin:round;fill:#fff" d="M3.589 3.589 0 0"/>
                        <path data-name="선 461" transform="translate(-35.523 10.142)" style="stroke:#000;stroke-width:2px;stroke-linecap:round;stroke-linejoin:round;fill:#fff" d="M3.589 3.589 0 0"/>
                    </g>
                </g>
                <g data-name="그룹 626976">
                    <g data-name="그룹 626974">
                        <path data-name="선 462" transform="translate(92.419 45.079)" style="stroke:#000;stroke-width:2px;stroke-linecap:round;stroke-linejoin:round;fill:#fff" d="m0 0 3.59 3.59"/>
                        <path data-name="선 463" transform="translate(100.864 53.525)" style="stroke:#000;stroke-width:2px;stroke-linecap:round;stroke-linejoin:round;fill:#fff" d="m0 0 3.59 3.59"/>
                    </g>
                    <g data-name="그룹 626975">
                        <path data-name="선 464" transform="translate(92.419 53.525)" style="stroke:#000;stroke-width:2px;stroke-linecap:round;stroke-linejoin:round;fill:#fff" d="M0 3.589 3.589 0"/>
                        <path data-name="선 465" transform="translate(100.865 45.079)" style="stroke:#000;stroke-width:2px;stroke-linecap:round;stroke-linejoin:round;fill:#fff" d="M0 3.589 3.589 0"/>
                    </g>
                </g>
            </g>
        </g>
    </g>
    <path data-name="선 223" transform="translate(42.5 219.312)" style="fill:none;stroke-width:3px;stroke-linecap:round;stroke-linejoin:round;stroke:#222" d="M0 0h360"/>
</svg>
