<svg xmlns="http://www.w3.org/2000/svg" width="444" height="226" viewBox="0 0 444 226">
    <g transform="translate(39 33.282)">
        <circle data-name="Ellipse 2" cx="50.017" cy="50.017" r="50.017" transform="translate(260.684 -33.282)" style="fill:#fbf0e3"/>
        <circle data-name="Ellipse 2" cx="28.5" cy="28.5" r="28.5" transform="translate(-2.533 72.251)" style="fill:#e4ffe1"/>
    </g>
    <g data-name="그룹 323">
        <path data-name="패스 590" d="M186.5 206.453v-89.6a1.321 1.321 0 0 1 1.392-1.235l73.208-71.21 73.636 71.211a1.321 1.321 0 0 1 1.392 1.235v89.6" transform="translate(-39.708 12.994)" style="stroke-width:3.004px;stroke-linejoin:round;stroke-linecap:round;stroke:#222;fill:#fff"/>
        <g transform="translate(182.021 124.882)">
            <ellipse data-name="타원 150" cx="32.794" cy="32.961" rx="32.794" ry="32.961" transform="matrix(.22 -.975 .975 .22 0 63.978)" style="stroke-width:3.008px;stroke-linejoin:round;stroke-linecap:round;stroke:#222;fill:#fff"/>
            <ellipse data-name="타원 151" cx="25.081" cy="25.209" rx="25.081" ry="25.209" transform="translate(14.525 13.788)" style="fill:#fcf28d"/>
            <g data-name="그룹 2555">
                <path data-name="패스 4209" d="m86.4 183.657 5.1 13.433a1.193 1.193 0 0 0 2.264-.1l3.692-13.022a1.192 1.192 0 0 1 2.291-.022l3.937 12.96a1.192 1.192 0 0 0 2.273.036l4.5-13.285" transform="translate(-58.817 -150.062)" style="fill:none;stroke-width:3.008px;stroke-linejoin:round;stroke-linecap:round;stroke:#222"/>
                <path data-name="선 1166" transform="translate(25.274 39.79)" style="stroke-width:3px;fill:none;stroke-linejoin:round;stroke-linecap:round;stroke:#222" d="M0 0h28.664"/>
            </g>
        </g>
    </g>
    <g data-name="그룹 631460">
        <g data-name="합치기 41" style="fill:#f2ac58">
            <path d="M13.384 85.005 2.09 68.875 97.935 1.83l42.138 29.354 2.358 1.642V10.403h19.693v36.14l.642.448 31.423 21.887-11.293 16.127L99 26.26l-.86-.603-.86.603-83.896 58.744z" style="stroke:none" transform="translate(123.5 53.874)"/>
            <path d="M97.937 3.659 4.179 69.245l9.573 13.67L98.14 23.828l84.388 59.089 9.57-13.666-31.474-21.924V11.903H143.93v23.795L97.937 3.658M97.933 0l42.998 29.952V8.903h22.693V45.76l32.656 22.747-13.016 18.587L98.14 27.489 13.016 87.094 0 68.507 97.933 0z" style="fill:#222;stroke:none" transform="translate(123.5 53.874)"/>
        </g>
    </g>
    <g transform="matrix(.966 .259 -.259 .967 285.789 98.237)">
        <rect data-name="사각형 462354" width="14.931" height="36.95" rx="3" transform="rotate(-45 121.506 -39.834)" style="stroke-miterlimit:10;stroke-width:3px;stroke:#222;fill:#fff"/>
        <g data-name="그룹 629862">
            <path data-name="패스 8591" d="M439.046 310.638a43.007 43.007 0 0 1 0 61.03 43.539 43.539 0 0 1-61.342 0 43 43 0 0 1 0-61.03 43.536 43.536 0 0 1 61.342 0z" transform="translate(-364.632 -298.365)" style="fill:#50ccc6;stroke-miterlimit:10;stroke-width:3px;stroke:#222"/>
            <path data-name="패스 8592" d="M426.8 311.949a33.834 33.834 0 1 1-47.849 0 33.84 33.84 0 0 1 47.849 0z" transform="translate(-359.131 -292.864)" style="stroke-miterlimit:10;stroke-width:3px;stroke:#222;fill:#fff"/>
            <path data-name="패스 8593" d="M5.419 26.159A18.494 18.494 0 0 1 5.419 0" transform="rotate(144 30.349 30.508)" style="stroke-miterlimit:10;stroke-width:3px;fill:none;stroke-linecap:round;stroke:#222"/>
        </g>
    </g>
    <path data-name="합치기 18" d="M186.657-4046.9a2.994 2.994 0 0 1-.865.127h-22.384a3.018 3.018 0 0 1-.473-.037q-.391.037-.792.037a8.046 8.046 0 0 1-8.143-7.945 8.017 8.017 0 0 1 7.122-7.884q-.018-.253-.019-.511a7.3 7.3 0 0 1 7.416-7.171 7.409 7.409 0 0 1 6.981 4.744 7.007 7.007 0 0 1 4.518-1.631 6.787 6.787 0 0 1 6.9 6.67 6.482 6.482 0 0 1-.16 1.433 7.255 7.255 0 0 1 1.354-.126 6.483 6.483 0 0 1 6.717 6.22 6.483 6.483 0 0 1-6.717 6.221 7.255 7.255 0 0 1-1.455-.147z" transform="translate(113.595 4093.329)" style="stroke-width:3px;stroke:#222;fill:#fff"/>
    <path data-name="합치기 43" d="M183.012-4049.427a3 3 0 0 1-.933.148h-19.354a3.021 3.021 0 0 1-.558-.052 7.568 7.568 0 0 1-.892.053 7.189 7.189 0 0 1-7.275-7.1 7.162 7.162 0 0 1 6.362-7.043q-.016-.226-.017-.457a6.519 6.519 0 0 1 6.624-6.406 6.619 6.619 0 0 1 6.236 4.238 6.258 6.258 0 0 1 4.036-1.456 6.063 6.063 0 0 1 6.162 5.958 5.786 5.786 0 0 1-.143 1.28 6.5 6.5 0 0 1 1.209-.113 5.791 5.791 0 0 1 6 5.556 5.791 5.791 0 0 1-6 5.557 6.473 6.473 0 0 1-1.457-.163z" transform="translate(-52.499 4116.879)" style="stroke-width:3px;stroke:#222;fill:#fff"/>
    <path data-name="선 223" transform="translate(42 220.187)" style="stroke-width:3px;fill:none;stroke-linejoin:round;stroke-linecap:round;stroke:#222" d="M0 0h360"/>
    <g>
        <g data-name="사각형 463062" transform="translate(77.836 128.973)" style="stroke-width:3px;stroke:#222;fill:#fff">
            <rect width="73.331" height="96.247" rx="4" style="stroke:none"/>
            <rect x="1.5" y="1.5" width="70.331" height="93.247" rx="2.5" style="fill:none"/>
        </g>
        <path data-name="사각형 195" transform="translate(91.921 143.274)" style="fill:#afdae9;stroke-width:3px;stroke-linejoin:round;stroke-linecap:round;stroke:#222" d="M0 0h45.323v19.083H0z"/>
        <g data-name="그룹 612">
            <path data-name="선 212" transform="translate(92.07 180.546)" style="stroke-width:3px;stroke-linejoin:round;stroke-linecap:round;stroke:#222;fill:#fff" d="M0 0h14.312"/>
            <path data-name="선 213" transform="translate(99.226 173.39)" style="stroke-width:3px;stroke-linejoin:round;stroke-linecap:round;stroke:#222;fill:#fff" d="M0 14.312V0"/>
        </g>
        <g data-name="그룹 613">
            <path data-name="선 214" style="stroke-width:3px;stroke-linejoin:round;stroke-linecap:round;stroke:#222;fill:#fff" d="M0 0h14.312" transform="translate(123.08 180.546)"/>
        </g>
        <g data-name="그룹 614">
            <path data-name="선 215" style="stroke-width:3px;stroke-linejoin:round;stroke-linecap:round;stroke:#222;fill:#fff" d="m0 0 10.12 10.12" transform="translate(94.017 199.638)"/>
            <path data-name="선 216" style="stroke-width:3px;stroke-linejoin:round;stroke-linecap:round;stroke:#222;fill:#fff" d="M0 10.12 10.12 0" transform="translate(94.017 199.638)"/>
        </g>
        <g data-name="그룹 615">
            <path data-name="선 217" transform="translate(122.931 204.997)" style="stroke-width:3px;stroke-linejoin:round;stroke-linecap:round;stroke:#222;fill:#fff" d="M0 0h14.312"/>
            <path data-name="선 218" transform="translate(128.596 200.226)" style="stroke-width:3px;stroke-linejoin:round;stroke-linecap:round;stroke:#222;fill:#fff" d="M2.982 0H0"/>
            <path data-name="선 219" transform="translate(128.596 209.768)" style="stroke-width:3px;stroke-linejoin:round;stroke-linecap:round;stroke:#222;fill:#fff" d="M2.982 0H0"/>
        </g>
    </g>
</svg>
