<svg xmlns="http://www.w3.org/2000/svg" width="444" height="261" viewBox="0 0 444 261">
    <g transform="translate(-622 -2020)">
        <ellipse data-name="타원 559" cx="43.5" cy="44" rx="43.5" ry="44" transform="translate(664 2107)" style="fill:#dcf5fb"/>
        <circle data-name="타원 560" cx="31.5" cy="31.5" r="31.5" transform="translate(961 2020)" style="fill:#fbf0e3"/>
        <path d="M455.77 236h-360" transform="translate(568.229 2012)" style="stroke:#222;stroke-linecap:round;stroke-linejoin:round;stroke-width:3px;fill:none"/>
        <g data-name="그룹 1551">
            <path data-name="패스 2508" d="M203.839 59H175.77v87h200V59H203.839z" style="fill:#fff;stroke:#222;stroke-linecap:round;stroke-linejoin:round;stroke-width:3px" transform="translate(568.729 2012.5)"/>
            <path data-name="사각형 651" transform="translate(761.499 2102.5)" style="fill:#afdae9;stroke:#222;stroke-linecap:round;stroke-linejoin:round;stroke-width:3px" d="M0 0h165v22H0z"/>
            <g data-name="그룹 1550">
                <path data-name="패스 2509" d="M348.77 92v166.124a6.934 6.934 0 0 1-6.953 6.876H209.723a6.935 6.935 0 0 1-6.953-6.876V92" style="fill:#fcf28d;stroke:#222;stroke-linecap:round;stroke-linejoin:round;stroke-width:3px" transform="translate(568.729 2012.5)"/>
                <g data-name="그룹 1549">
                    <path data-name="패스 2510" d="M330.77 92v153a2 2 0 0 1-2 2h-106a2 2 0 0 1-2-2V92" style="fill:#fff;stroke:#222;stroke-linecap:round;stroke-linejoin:round;stroke-width:3px" transform="translate(568.729 2012.5)"/>
                    <g data-name="그룹 1547">
                        <path data-name="패스 2511" d="M299.9 134.862h19.74l-5.705-9.239 5.705-9.275h-20" style="fill:#f2ac58;stroke:#222;stroke-linecap:round;stroke-linejoin:round;stroke-width:3px" transform="translate(568.729 2012.5)"/>
                        <g data-name="그룹 1546" transform="translate(568.729 2012.5)">
                            <circle data-name="타원 114" cx="20" cy="20" r="20" transform="translate(260.77 104)" style="stroke:#222;stroke-linecap:round;stroke-linejoin:round;stroke-width:3px;fill:none"/>
                            <path data-name="패스 2512" d="M268.073 124a12.7 12.7 0 1 0 12.7-12.7 12.711 12.711 0 0 0-12.7 12.7z" style="fill:#f2ac58"/>
                        </g>
                    </g>
                    <g data-name="그룹 1548">
                        <path data-name="선 704" transform="translate(814.98 2153.5)" style="stroke:#222;stroke-linecap:round;stroke-linejoin:round;stroke-width:3px;fill:none" d="M0 88V0"/>
                        <path data-name="선 705" transform="translate(830.98 2200.5)" style="stroke:#222;stroke-linecap:round;stroke-linejoin:round;stroke-width:3px;fill:none" d="M0 41V0"/>
                        <path data-name="선 706" transform="translate(849.98 2221.5)" style="stroke:#222;stroke-linecap:round;stroke-linejoin:round;stroke-width:3px;fill:none" d="M0 20V0"/>
                        <path data-name="선 707" transform="translate(862.98 2209.5)" style="stroke:#222;stroke-linecap:round;stroke-linejoin:round;stroke-width:3px;fill:none" d="M0 32V0"/>
                        <path data-name="선 708" transform="translate(849.98 2183.5)" style="stroke:#222;stroke-linecap:round;stroke-linejoin:round;stroke-width:3px;fill:none" d="M0 27V0"/>
                        <path data-name="선 709" transform="translate(862.98 2182.5)" style="stroke:#222;stroke-linecap:round;stroke-linejoin:round;stroke-width:3px;fill:none" d="M0 17V0"/>
                        <path data-name="선 710" transform="translate(875.98 2194.5)" style="stroke:#222;stroke-linecap:round;stroke-linejoin:round;stroke-width:3px;fill:none" d="M0 47V0"/>
                    </g>
                </g>
            </g>
        </g>
        <g data-name="그룹 1552">
            <path data-name="패스 2513" d="m423.308 109.925-8.767 8.767-8.767-8.767" style="stroke:#222;stroke-linecap:round;stroke-linejoin:round;stroke-width:3px;fill:none" transform="translate(568.729 2012.5)"/>
            <path data-name="패스 2514" d="m423.308 120.541-8.767 8.767-8.767-8.767" style="stroke:#222;stroke-linecap:round;stroke-linejoin:round;stroke-width:3px;fill:none" transform="translate(568.729 2012.5)"/>
            <path data-name="패스 2515" d="m423.308 131.158-8.767 8.767-8.767-8.767" style="stroke:#222;stroke-linecap:round;stroke-linejoin:round;stroke-width:3px;fill:none" transform="translate(568.729 2012.5)"/>
        </g>
        <g data-name="그룹 1553">
            <path data-name="패스 2516" d="m155.308 169.925-8.767 8.767-8.767-8.767" style="stroke:#222;stroke-linecap:round;stroke-linejoin:round;stroke-width:3px;fill:none" transform="translate(568.729 2012.5)"/>
            <path data-name="패스 2517" d="m155.308 180.541-8.767 8.767-8.767-8.767" style="stroke:#222;stroke-linecap:round;stroke-linejoin:round;stroke-width:3px;fill:none" transform="translate(568.729 2012.5)"/>
            <path data-name="패스 2518" d="m155.308 191.158-8.767 8.767-8.767-8.767" style="stroke:#222;stroke-linecap:round;stroke-linejoin:round;stroke-width:3px;fill:none" transform="translate(568.729 2012.5)"/>
        </g>
    </g>
</svg>
